  0
SECTION
  2
HEADER
  9
$ANGBASE
  50
0.0
  9
$ANGDIR
  70
1
  9
$MEASUREMENT
  70
0
  9
$INSUNITS
  70
1
  0
ENDSEC
  0
SECTION
  2
TABLES
  0
TABLE
  2
LTYPE
  70
4
  0
LTYPE
  5
40F
  2
CONTINUOUS
  70
0
  3
Solid line
  72
65
  73
0
  40
0.0
  0
LTYPE
  5
410
  2
DASHDOT
 70
0
  3
Dash Dot ____ _ ____ _
 72
65
 73
4
 40
2.0
 49
1.25
 49
-0.25
 49
0.25
 49
-0.25
  0
LTYPE
  5
411
  2
DASHED
 70
0
  3
Dashed __ __ __ __ __
 72
65
 73
2
 40
0.75
 49
0.5
 49
-0.25
  0
LTYPE
  5
43B
  2
DOTTED
 70
0
  3
Dotted .  .  .  .
 72
65
 73
2
 40
0.2
 49
0.0
 49
-0.2
  0
ENDTAB
  0
TABLE
  2
STYLE
  70
4
  0
STYLE
  2
KICAD
  70
0
  40
0
  41
1
  42
1
  50
0
  71
0
  3
isocp.shx
  0
STYLE
  2
KICADB
  70
0
  40
0
  41
1
  42
1
  50
0
  71
0
  3
isocp.shx
  0
STYLE
  2
KICADI
  70
0
  40
0
  41
1
  42
1
  50
15
  71
0
  3
isocp.shx
  0
STYLE
  2
KICADBI
  70
0
  40
0
  41
1
  42
1
  50
15
  71
0
  3
isocp.shx
  0
ENDTAB
  0
TABLE
  2
LAYER
  70
1
  0
LAYER
  2
BLACK
  70
0
  62
250
  6
CONTINUOUS
  0
ENDTAB
  0
ENDSEC
  0
SECTION
  2
ENTITIES
0
LINE
8
BLACK
6
CONTINUOUS
10
3.4574462204724408
20
-0.7855829133858268
11
3.4585115748031496
21
-0.7866482677165354
0
LINE
8
BLACK
6
CONTINUOUS
10
3.4585115748031496
20
-0.7866482677165354
11
3.4586614173228347
21
-0.7874015748031495
0
LINE
8
BLACK
6
CONTINUOUS
10
3.4586614173228347
20
-0.7874015748031495
11
3.4586614173228347
21
-0.8267716535433071
0
LINE
8
BLACK
6
CONTINUOUS
10
3.4586614173228347
20
-0.8267716535433071
11
3.4586614173228347
21
-0.8285857480314961
0
LINE
8
BLACK
6
CONTINUOUS
10
3.4586614173228347
20
-0.8285857480314961
11
3.4596004724409446
21
-0.8320903543307087
0
LINE
8
BLACK
6
CONTINUOUS
10
3.4596004724409446
20
-0.8320903543307087
11
3.4614146062992126
21
-0.8352324803149606
0
LINE
8
BLACK
6
CONTINUOUS
10
3.4614146062992126
20
-0.8352324803149606
11
3.4639801181102361
21
-0.8377979921259843
0
LINE
8
BLACK
6
CONTINUOUS
10
3.4639801181102361
20
-0.8377979921259843
11
3.467122244094488
21
-0.8396121259842519
0
LINE
8
BLACK
6
CONTINUOUS
10
3.467122244094488
20
-0.8396121259842519
11
3.4706268503937006
21
-0.8405511811023622
0
LINE
8
BLACK
6
CONTINUOUS
10
3.4706268503937006
20
-0.8405511811023622
11
3.4724409448818898
21
-0.8405511811023622
0
LINE
8
BLACK
6
CONTINUOUS
10
3.4724409448818898
20
-0.8405511811023622
11
3.6141732283464565
21
-0.8405511811023622
0
LINE
8
BLACK
6
CONTINUOUS
10
3.6141732283464565
20
-0.8405511811023622
11
3.6159873228346457
21
-0.8405511811023622
0
LINE
8
BLACK
6
CONTINUOUS
10
3.6159873228346457
20
-0.8405511811023622
11
3.6194919291338583
21
-0.8396121259842519
0
LINE
8
BLACK
6
CONTINUOUS
10
3.6194919291338583
20
-0.8396121259842519
11
3.6226340551181102
21
-0.8377979921259843
0
LINE
8
BLACK
6
CONTINUOUS
10
3.6226340551181102
20
-0.8377979921259843
11
3.6251995669291337
21
-0.8352324803149606
0
LINE
8
BLACK
6
CONTINUOUS
10
3.6251995669291337
20
-0.8352324803149606
11
3.6270137007874017
21
-0.8320903543307087
0
LINE
8
BLACK
6
CONTINUOUS
10
3.6270137007874017
20
-0.8320903543307087
11
3.6279527559055116
21
-0.8285857480314961
0
LINE
8
BLACK
6
CONTINUOUS
10
3.6279527559055116
20
-0.8285857480314961
11
3.6279527559055116
21
-0.8267716535433071
0
LINE
8
BLACK
6
CONTINUOUS
10
3.6279527559055116
20
-0.8267716535433071
11
3.6279527559055116
21
-0.7874015748031495
0
LINE
8
BLACK
6
CONTINUOUS
10
3.6279527559055116
20
-0.7874015748031495
11
3.6281025984251967
21
-0.7866482677165354
0
LINE
8
BLACK
6
CONTINUOUS
10
3.6281025984251967
20
-0.7866482677165354
11
3.6291679527559055
21
-0.7855829133858268
0
LINE
8
BLACK
6
CONTINUOUS
10
3.6291679527559055
20
-0.7855829133858268
11
3.6299212598425195
21
-0.7854330708661417
0
LINE
8
BLACK
6
CONTINUOUS
10
3.6299212598425195
20
-0.7854330708661417
11
3.9370078740157481
21
-0.7854330708661417
0
LINE
8
BLACK
6
CONTINUOUS
10
3.9370078740157481
20
-0.7854330708661417
11
3.9374922047244092
21
-0.7855294094488189
0
LINE
8
BLACK
6
CONTINUOUS
10
3.9374922047244092
20
-0.7855294094488189
11
3.9376161811023622
21
-0.7855294094488189
0
LINE
8
BLACK
6
CONTINUOUS
10
3.9376161811023622
20
-0.7855294094488189
11
3.9376629133858265
21
-0.7855633464566929
0
LINE
8
BLACK
6
CONTINUOUS
10
3.9376629133858265
20
-0.7855633464566929
11
3.9377611811023621
21
-0.7855829133858268
0
LINE
8
BLACK
6
CONTINUOUS
10
3.9377611811023621
20
-0.7855829133858268
11
3.9379507874015749
21
-0.7857725196850394
0
LINE
8
BLACK
6
CONTINUOUS
10
3.9379507874015749
20
-0.7857725196850394
11
3.9386004330708659
21
-0.7862445275590551
0
LINE
8
BLACK
6
CONTINUOUS
10
3.9386004330708659
20
-0.7862445275590551
11
3.9386859055118109
21
-0.7865076377952755
0
LINE
8
BLACK
6
CONTINUOUS
10
3.9386859055118109
20
-0.7865076377952755
11
3.9388265354330709
21
-0.7866482677165354
0
LINE
8
BLACK
6
CONTINUOUS
10
3.9388265354330709
20
-0.7866482677165354
11
3.9388265354330709
21
-0.7869403937007874
0
LINE
8
BLACK
6
CONTINUOUS
10
3.9388265354330709
20
-0.7869403937007874
11
3.938976377952756
21
-0.7874015748031495
0
LINE
8
BLACK
6
CONTINUOUS
10
3.938976377952756
20
-0.7874015748031495
11
3.938976377952756
21
-0.7959103149606299
0
LINE
8
BLACK
6
CONTINUOUS
10
3.938976377952756
20
-0.7959103149606299
11
3.9404595275590548
21
-0.8128629921259842
0
LINE
8
BLACK
6
CONTINUOUS
10
3.9404595275590548
20
-0.8128629921259842
11
3.9434146062992124
21
-0.8296219291338582
0
LINE
8
BLACK
6
CONTINUOUS
10
3.9434146062992124
20
-0.8296219291338582
11
3.9478190157480313
21
-0.8460595275590551
0
LINE
8
BLACK
6
CONTINUOUS
10
3.9478190157480313
20
-0.8460595275590551
11
3.9536393307086612
21
-0.8620507086614173
0
LINE
8
BLACK
6
CONTINUOUS
10
3.9536393307086612
20
-0.8620507086614173
11
3.960831220472441
21
-0.8774737401574803
0
LINE
8
BLACK
6
CONTINUOUS
10
3.960831220472441
20
-0.8774737401574803
11
3.9693399606299211
21
-0.8922112992125985
0
LINE
8
BLACK
6
CONTINUOUS
10
3.9693399606299211
20
-0.8922112992125985
11
3.9791007874015749
21
-0.9061511811023621
0
LINE
8
BLACK
6
CONTINUOUS
10
3.9791007874015749
20
-0.9061511811023621
11
3.99003937007874
21
-0.9191873228346457
0
LINE
8
BLACK
6
CONTINUOUS
10
3.99003937007874
20
-0.9191873228346457
11
4.0020725196850391
21
-0.9312204724409449
0
LINE
8
BLACK
6
CONTINUOUS
10
4.0020725196850391
20
-0.9312204724409449
11
4.0151086614173224
21
-0.9421590551181103
0
LINE
8
BLACK
6
CONTINUOUS
10
4.0151086614173224
20
-0.9421590551181103
11
4.0290485433070868
21
-0.9519198818897637
0
LINE
8
BLACK
6
CONTINUOUS
10
4.0290485433070868
20
-0.9519198818897637
11
4.0437861023622048
21
-0.9604286220472441
0
LINE
8
BLACK
6
CONTINUOUS
10
4.0437861023622048
20
-0.9604286220472441
11
4.0592091338582676
21
-0.9676205118110236
0
LINE
8
BLACK
6
CONTINUOUS
10
4.0592091338582676
20
-0.9676205118110236
11
4.0752003149606297
21
-0.9734408267716536
0
LINE
8
BLACK
6
CONTINUOUS
10
4.0752003149606297
20
-0.9734408267716536
11
4.0916379133858269
21
-0.9778452362204724
0
LINE
8
BLACK
6
CONTINUOUS
10
4.0916379133858269
20
-0.9778452362204724
11
4.1083968503937003
21
-0.9808003149606299
0
LINE
8
BLACK
6
CONTINUOUS
10
4.1083968503937003
20
-0.9808003149606299
11
4.125349527559055
21
-0.9822834645669292
0
LINE
8
BLACK
6
CONTINUOUS
10
4.125349527559055
20
-0.9822834645669292
11
4.1423670078740153
21
-0.9822834645669292
0
LINE
8
BLACK
6
CONTINUOUS
10
4.1423670078740153
20
-0.9822834645669292
11
4.1593196850393701
21
-0.9808003149606299
0
LINE
8
BLACK
6
CONTINUOUS
10
4.1593196850393701
20
-0.9808003149606299
11
4.1760786220472443
21
-0.9778452362204724
0
LINE
8
BLACK
6
CONTINUOUS
10
4.1760786220472443
20
-0.9778452362204724
11
4.1925162204724407
21
-0.9734408267716536
0
LINE
8
BLACK
6
CONTINUOUS
10
4.1925162204724407
20
-0.9734408267716536
11
4.2085074015748027
21
-0.9676205118110236
0
LINE
8
BLACK
6
CONTINUOUS
10
4.2085074015748027
20
-0.9676205118110236
11
4.2239304330708665
21
-0.9604286220472441
0
LINE
8
BLACK
6
CONTINUOUS
10
4.2239304330708665
20
-0.9604286220472441
11
4.2386679921259844
21
-0.9519198818897637
0
LINE
8
BLACK
6
CONTINUOUS
10
4.2386679921259844
20
-0.9519198818897637
11
4.252607874015748
21
-0.9421590551181103
0
LINE
8
BLACK
6
CONTINUOUS
10
4.252607874015748
20
-0.9421590551181103
11
4.2656440157480313
21
-0.9312204724409449
0
LINE
8
BLACK
6
CONTINUOUS
10
4.2656440157480313
20
-0.9312204724409449
11
4.2776771653543308
21
-0.9191873228346457
0
LINE
8
BLACK
6
CONTINUOUS
10
4.2776771653543308
20
-0.9191873228346457
11
4.2886157480314964
21
-0.9061511811023621
0
LINE
8
BLACK
6
CONTINUOUS
10
4.2886157480314964
20
-0.9061511811023621
11
4.2983765748031493
21
-0.8922112992125985
0
LINE
8
BLACK
6
CONTINUOUS
10
4.2983765748031493
20
-0.8922112992125985
11
4.3068853149606294
21
-0.8774737401574803
0
LINE
8
BLACK
6
CONTINUOUS
10
4.3068853149606294
20
-0.8774737401574803
11
4.3140772047244091
21
-0.8620507086614173
0
LINE
8
BLACK
6
CONTINUOUS
10
4.3140772047244091
20
-0.8620507086614173
11
4.3198975196850391
21
-0.8460595275590551
0
LINE
8
BLACK
6
CONTINUOUS
10
4.3198975196850391
20
-0.8460595275590551
11
4.324301929133858
21
-0.8296219291338582
0
LINE
8
BLACK
6
CONTINUOUS
10
4.324301929133858
20
-0.8296219291338582
11
4.3272570078740156
21
-0.8128629921259842
0
LINE
8
BLACK
6
CONTINUOUS
10
4.3272570078740156
20
-0.8128629921259842
11
4.3287401574803148
21
-0.7959103149606299
0
LINE
8
BLACK
6
CONTINUOUS
10
4.3287401574803148
20
-0.7959103149606299
11
4.3287401574803148
21
-0.7874015748031495
0
LINE
8
BLACK
6
CONTINUOUS
10
4.3287401574803148
20
-0.7874015748031495
11
4.3288899999999995
21
-0.7869403937007874
0
LINE
8
BLACK
6
CONTINUOUS
10
4.3288899999999995
20
-0.7869403937007874
11
4.3288899999999995
21
-0.7866482677165354
0
LINE
8
BLACK
6
CONTINUOUS
10
4.3288899999999995
20
-0.7866482677165354
11
4.3290305905511808
21
-0.7865076377952755
0
LINE
8
BLACK
6
CONTINUOUS
10
4.3290305905511808
20
-0.7865076377952755
11
4.3291161023622049
21
-0.7862445275590551
0
LINE
8
BLACK
6
CONTINUOUS
10
4.3291161023622049
20
-0.7862445275590551
11
4.3297657086614176
21
-0.7857725196850394
0
LINE
8
BLACK
6
CONTINUOUS
10
4.3297657086614176
20
-0.7857725196850394
11
4.3299553543307088
21
-0.7855829133858268
0
LINE
8
BLACK
6
CONTINUOUS
10
4.3299553543307088
20
-0.7855829133858268
11
4.3300535826771656
21
-0.7855633464566929
0
LINE
8
BLACK
6
CONTINUOUS
10
4.3300535826771656
20
-0.7855633464566929
11
4.3301003543307086
21
-0.7855294094488189
0
LINE
8
BLACK
6
CONTINUOUS
10
4.3301003543307086
20
-0.7855294094488189
11
4.3302243307086616
21
-0.7855294094488189
0
LINE
8
BLACK
6
CONTINUOUS
10
4.3302243307086616
20
-0.7855294094488189
11
4.3307086614173231
21
-0.7854330708661417
0
LINE
8
BLACK
6
CONTINUOUS
10
4.3307086614173231
20
-0.7854330708661417
11
4.6377952755905509
21
-0.7854330708661417
0
LINE
8
BLACK
6
CONTINUOUS
10
4.6377952755905509
20
-0.7854330708661417
11
4.6385485826771653
21
-0.7855829133858268
0
LINE
8
BLACK
6
CONTINUOUS
10
4.6385485826771653
20
-0.7855829133858268
11
4.6396139370078737
21
-0.7866482677165354
0
LINE
8
BLACK
6
CONTINUOUS
10
4.6396139370078737
20
-0.7866482677165354
11
4.6397637795275593
21
-0.7874015748031495
0
LINE
8
BLACK
6
CONTINUOUS
10
4.6397637795275593
20
-0.7874015748031495
11
4.6397637795275593
21
-0.8267716535433071
0
LINE
8
BLACK
6
CONTINUOUS
10
4.6397637795275593
20
-0.8267716535433071
11
4.6397637795275593
21
-0.8285857480314961
0
LINE
8
BLACK
6
CONTINUOUS
10
4.6397637795275593
20
-0.8285857480314961
11
4.6407028346456691
21
-0.8320903543307087
0
LINE
8
BLACK
6
CONTINUOUS
10
4.6407028346456691
20
-0.8320903543307087
11
4.6425169291338584
21
-0.8352324803149606
0
LINE
8
BLACK
6
CONTINUOUS
10
4.6425169291338584
20
-0.8352324803149606
11
4.6450824803149606
21
-0.837798031496063
0
LINE
8
BLACK
6
CONTINUOUS
10
4.6450824803149606
20
-0.837798031496063
11
4.6482246062992125
21
-0.8396121259842519
0
LINE
8
BLACK
6
CONTINUOUS
10
4.6482246062992125
20
-0.8396121259842519
11
4.6517292125984255
21
-0.8405511811023622
0
LINE
8
BLACK
6
CONTINUOUS
10
4.6517292125984255
20
-0.8405511811023622
11
4.6535433070866139
21
-0.8405511811023622
0
LINE
8
BLACK
6
CONTINUOUS
10
4.6535433070866139
20
-0.8405511811023622
11
4.7952755118110231
21
-0.8405512598425197
0
LINE
8
BLACK
6
CONTINUOUS
10
4.7952755118110231
20
-0.8405512598425197
11
4.7970896062992123
21
-0.8405512598425197
0
LINE
8
BLACK
6
CONTINUOUS
10
4.7970896062992123
20
-0.8405512598425197
11
4.8005942125984253
21
-0.8396121653543307
0
LINE
8
BLACK
6
CONTINUOUS
10
4.8005942125984253
20
-0.8396121653543307
11
4.803736377952756
21
-0.8377980708661417
0
LINE
8
BLACK
6
CONTINUOUS
10
4.803736377952756
20
-0.8377980708661417
11
4.8063019291338582
21
-0.8352325196850393
0
LINE
8
BLACK
6
CONTINUOUS
10
4.8063019291338582
20
-0.8352325196850393
11
4.8081160236220475
21
-0.8320903543307087
0
LINE
8
BLACK
6
CONTINUOUS
10
4.8081160236220475
20
-0.8320903543307087
11
4.8090551181102361
21
-0.8285857480314961
0
LINE
8
BLACK
6
CONTINUOUS
10
4.8090551181102361
20
-0.8285857480314961
11
4.8090551181102361
21
-0.8267716535433071
0
LINE
8
BLACK
6
CONTINUOUS
10
4.8090551181102361
20
-0.8267716535433071
11
4.8090551181102361
21
-0.7874015748031495
0
LINE
8
BLACK
6
CONTINUOUS
10
4.8090551181102361
20
-0.7874015748031495
11
4.8092049606299208
21
-0.7866482677165354
0
LINE
8
BLACK
6
CONTINUOUS
10
4.8092049606299208
20
-0.7866482677165354
11
4.8102703149606301
21
-0.7855829133858268
0
LINE
8
BLACK
6
CONTINUOUS
10
4.8102703149606301
20
-0.7855829133858268
11
4.8110236220472435
21
-0.7854330708661417
0
LINE
8
BLACK
6
CONTINUOUS
10
4.8110236220472435
20
-0.7854330708661417
11
7.3622047244094491
21
-0.7854330708661417
0
LINE
8
BLACK
6
CONTINUOUS
10
7.3622047244094491
20
-0.7854330708661417
11
7.3693831102362202
21
-0.7860611023622047
0
LINE
8
BLACK
6
CONTINUOUS
10
7.3693831102362202
20
-0.7860611023622047
11
7.376343346456693
21
-0.7879261023622047
0
LINE
8
BLACK
6
CONTINUOUS
10
7.376343346456693
20
-0.7879261023622047
11
7.3828740157480315
21
-0.7909713779527558
0
LINE
8
BLACK
6
CONTINUOUS
10
7.3828740157480315
20
-0.7909713779527558
11
7.3887766535433066
21
-0.7951044488188976
0
LINE
8
BLACK
6
CONTINUOUS
10
7.3887766535433066
20
-0.7951044488188976
11
7.3938719291338577
21
-0.8001997244094488
0
LINE
8
BLACK
6
CONTINUOUS
10
7.3938719291338577
20
-0.8001997244094488
11
7.3980049999999995
21
-0.8061023622047244
0
LINE
8
BLACK
6
CONTINUOUS
10
7.3980049999999995
20
-0.8061023622047244
11
7.401050275590551
21
-0.8126330314960629
0
LINE
8
BLACK
6
CONTINUOUS
10
7.401050275590551
20
-0.8126330314960629
11
7.4029152755905514
21
-0.8195932677165354
0
LINE
8
BLACK
6
CONTINUOUS
10
7.4029152755905514
20
-0.8195932677165354
11
7.4035433070866139
21
-0.8267716535433071
0
LINE
8
BLACK
6
CONTINUOUS
10
7.4035433070866139
20
-0.8267716535433071
11
7.4035433070866139
21
-0.905511811023622
0
LINE
8
BLACK
6
CONTINUOUS
10
7.4035433070866139
20
-0.905511811023622
11
7.4035433070866139
21
-0.9120341732283465
0
LINE
8
BLACK
6
CONTINUOUS
10
7.4035433070866139
20
-0.9120341732283465
11
7.4050038582677162
21
-0.9249969291338582
0
LINE
8
BLACK
6
CONTINUOUS
10
7.4050038582677162
20
-0.9249969291338582
11
7.4079066141732284
21
-0.9377146062992125
0
LINE
8
BLACK
6
CONTINUOUS
10
7.4079066141732284
20
-0.9377146062992125
11
7.4122149999999998
21
-0.9500273622047244
0
LINE
8
BLACK
6
CONTINUOUS
10
7.4122149999999998
20
-0.9500273622047244
11
7.417874921259842
21
-0.9617802755905511
0
LINE
8
BLACK
6
CONTINUOUS
10
7.417874921259842
20
-0.9617802755905511
11
7.4248151574803147
21
-0.9728255905511811
0
LINE
8
BLACK
6
CONTINUOUS
10
7.4248151574803147
20
-0.9728255905511811
11
7.4329484251968498
21
-0.9830243700787401
0
LINE
8
BLACK
6
CONTINUOUS
10
7.4329484251968498
20
-0.9830243700787401
11
7.4421724803149605
21
-0.9922484251968504
0
LINE
8
BLACK
6
CONTINUOUS
10
7.4421724803149605
20
-0.9922484251968504
11
7.4523712598425194
21
-1.0003816929133857
0
LINE
8
BLACK
6
CONTINUOUS
10
7.4523712598425194
20
-1.0003816929133857
11
7.4634165748031496
21
-1.0073219291338582
0
LINE
8
BLACK
6
CONTINUOUS
10
7.4634165748031496
20
-1.0073219291338582
11
7.4751694881889765
21
-1.0129818503937007
0
LINE
8
BLACK
6
CONTINUOUS
10
7.4751694881889765
20
-1.0129818503937007
11
7.4874822440944877
21
-1.0172902362204723
0
LINE
8
BLACK
6
CONTINUOUS
10
7.4874822440944877
20
-1.0172902362204723
11
7.500199921259842
21
-1.0201929921259842
0
LINE
8
BLACK
6
CONTINUOUS
10
7.500199921259842
20
-1.0201929921259842
11
7.5131626771653544
21
-1.0216535433070866
0
LINE
8
BLACK
6
CONTINUOUS
10
7.5131626771653544
20
-1.0216535433070866
11
7.5196850393700787
21
-1.0216535433070866
0
LINE
8
BLACK
6
CONTINUOUS
10
7.5196850393700787
20
-1.0216535433070866
11
7.5268634251968498
21
-1.0222815748031495
0
LINE
8
BLACK
6
CONTINUOUS
10
7.5268634251968498
20
-1.0222815748031495
11
7.5338236614173226
21
-1.0241465748031495
0
LINE
8
BLACK
6
CONTINUOUS
10
7.5338236614173226
20
-1.0241465748031495
11
7.5403543307086611
21
-1.0271918503937008
0
LINE
8
BLACK
6
CONTINUOUS
10
7.5403543307086611
20
-1.0271918503937008
11
7.5462569685039371
21
-1.0313249212598425
0
LINE
8
BLACK
6
CONTINUOUS
10
7.5462569685039371
20
-1.0313249212598425
11
7.5513522440944882
21
-1.0364201968503937
0
LINE
8
BLACK
6
CONTINUOUS
10
7.5513522440944882
20
-1.0364201968503937
11
7.55548531496063
21
-1.0423228346456692
0
LINE
8
BLACK
6
CONTINUOUS
10
7.55548531496063
20
-1.0423228346456692
11
7.5585305905511806
21
-1.0488535039370079
0
LINE
8
BLACK
6
CONTINUOUS
10
7.5585305905511806
20
-1.0488535039370079
11
7.560395590551181
21
-1.0558137401574803
0
LINE
8
BLACK
6
CONTINUOUS
10
7.560395590551181
20
-1.0558137401574803
11
7.5610236220472435
21
-1.0629921259842519
0
LINE
8
BLACK
6
CONTINUOUS
10
7.5610236220472435
20
-1.0629921259842519
11
7.5610236220472435
21
-4.8818897637795278
0
LINE
8
BLACK
6
CONTINUOUS
10
7.5610236220472435
20
-4.8818897637795278
11
7.560395590551181
21
-4.8890681496062989
0
LINE
8
BLACK
6
CONTINUOUS
10
7.560395590551181
20
-4.8890681496062989
11
7.5585305905511806
21
-4.8960283858267717
0
LINE
8
BLACK
6
CONTINUOUS
10
7.5585305905511806
20
-4.8960283858267717
11
7.55548531496063
21
-4.9025590551181102
0
LINE
8
BLACK
6
CONTINUOUS
10
7.55548531496063
20
-4.9025590551181102
11
7.5513522440944882
21
-4.9084616929133853
0
LINE
8
BLACK
6
CONTINUOUS
10
7.5513522440944882
20
-4.9084616929133853
11
7.5462569685039371
21
-4.9135569685039373
0
LINE
8
BLACK
6
CONTINUOUS
10
7.5462569685039371
20
-4.9135569685039373
11
7.5403543307086611
21
-4.9176900393700782
0
LINE
8
BLACK
6
CONTINUOUS
10
7.5403543307086611
20
-4.9176900393700782
11
7.5338236614173226
21
-4.9207353149606297
0
LINE
8
BLACK
6
CONTINUOUS
10
7.5338236614173226
20
-4.9207353149606297
11
7.5268634251968498
21
-4.9226003149606301
0
LINE
8
BLACK
6
CONTINUOUS
10
7.5268634251968498
20
-4.9226003149606301
11
7.5196850393700787
21
-4.9232283464566926
0
LINE
8
BLACK
6
CONTINUOUS
10
7.5196850393700787
20
-4.9232283464566926
11
7.5131626771653544
21
-4.9232283464566926
0
LINE
8
BLACK
6
CONTINUOUS
10
7.5131626771653544
20
-4.9232283464566926
11
7.500199921259842
21
-4.9246888976377949
0
LINE
8
BLACK
6
CONTINUOUS
10
7.500199921259842
20
-4.9246888976377949
11
7.4874822440944877
21
-4.9275916535433071
0
LINE
8
BLACK
6
CONTINUOUS
10
7.4874822440944877
20
-4.9275916535433071
11
7.4751694881889765
21
-4.9319000393700785
0
LINE
8
BLACK
6
CONTINUOUS
10
7.4751694881889765
20
-4.9319000393700785
11
7.4634165748031496
21
-4.9375599606299208
0
LINE
8
BLACK
6
CONTINUOUS
10
7.4634165748031496
20
-4.9375599606299208
11
7.4523712598425194
21
-4.9445001968503934
0
LINE
8
BLACK
6
CONTINUOUS
10
7.4523712598425194
20
-4.9445001968503934
11
7.4421724803149605
21
-4.9526334645669294
0
LINE
8
BLACK
6
CONTINUOUS
10
7.4421724803149605
20
-4.9526334645669294
11
7.4329484251968498
21
-4.9618575196850392
0
LINE
8
BLACK
6
CONTINUOUS
10
7.4329484251968498
20
-4.9618575196850392
11
7.4248151574803147
21
-4.9720562992125981
0
LINE
8
BLACK
6
CONTINUOUS
10
7.4248151574803147
20
-4.9720562992125981
11
7.417874921259842
21
-4.9831016141732283
0
LINE
8
BLACK
6
CONTINUOUS
10
7.417874921259842
20
-4.9831016141732283
11
7.4122149999999998
21
-4.9948545275590552
0
LINE
8
BLACK
6
CONTINUOUS
10
7.4122149999999998
20
-4.9948545275590552
11
7.4079066141732284
21
-5.0071672834645664
0
LINE
8
BLACK
6
CONTINUOUS
10
7.4079066141732284
20
-5.0071672834645664
11
7.4050038582677162
21
-5.0198849606299207
0
LINE
8
BLACK
6
CONTINUOUS
10
7.4050038582677162
20
-5.0198849606299207
11
7.4035433070866139
21
-5.0328477165354331
0
LINE
8
BLACK
6
CONTINUOUS
10
7.4035433070866139
20
-5.0328477165354331
11
7.4035433070866139
21
-5.0393700787401574
0
LINE
8
BLACK
6
CONTINUOUS
10
7.4035433070866139
20
-5.0393700787401574
11
7.4035433070866139
21
-5.1181102362204722
0
LINE
8
BLACK
6
CONTINUOUS
10
7.4035433070866139
20
-5.1181102362204722
11
7.4029152755905514
21
-5.1252886220472442
0
LINE
8
BLACK
6
CONTINUOUS
10
7.4029152755905514
20
-5.1252886220472442
11
7.401050275590551
21
-5.1322488582677162
0
LINE
8
BLACK
6
CONTINUOUS
10
7.401050275590551
20
-5.1322488582677162
11
7.3980049999999995
21
-5.1387795275590546
0
LINE
8
BLACK
6
CONTINUOUS
10
7.3980049999999995
20
-5.1387795275590546
11
7.3938719291338577
21
-5.1446821653543306
0
LINE
8
BLACK
6
CONTINUOUS
10
7.3938719291338577
20
-5.1446821653543306
11
7.3887766535433066
21
-5.1497774409448818
0
LINE
8
BLACK
6
CONTINUOUS
10
7.3887766535433066
20
-5.1497774409448818
11
7.3828740157480315
21
-5.1539105118110236
0
LINE
8
BLACK
6
CONTINUOUS
10
7.3828740157480315
20
-5.1539105118110236
11
7.376343346456693
21
-5.156955787401575
0
LINE
8
BLACK
6
CONTINUOUS
10
7.376343346456693
20
-5.156955787401575
11
7.3693831102362202
21
-5.1588207874015746
0
LINE
8
BLACK
6
CONTINUOUS
10
7.3693831102362202
20
-5.1588207874015746
11
7.3622047244094491
21
-5.159448818897638
0
LINE
8
BLACK
6
CONTINUOUS
10
7.3622047244094491
20
-5.159448818897638
11
4.3307086614173231
21
-5.159448818897638
0
LINE
8
BLACK
6
CONTINUOUS
10
4.3307086614173231
20
-5.159448818897638
11
4.3302243307086616
21
-5.1593524803149604
0
LINE
8
BLACK
6
CONTINUOUS
10
4.3302243307086616
20
-5.1593524803149604
11
4.3301003543307086
21
-5.1593524803149604
0
LINE
8
BLACK
6
CONTINUOUS
10
4.3301003543307086
20
-5.1593524803149604
11
4.3300535826771656
21
-5.1593185039370075
0
LINE
8
BLACK
6
CONTINUOUS
10
4.3300535826771656
20
-5.1593185039370075
11
4.3299553543307088
21
-5.1592989763779524
0
LINE
8
BLACK
6
CONTINUOUS
10
4.3299553543307088
20
-5.1592989763779524
11
4.3297657086614176
21
-5.1591093307086613
0
LINE
8
BLACK
6
CONTINUOUS
10
4.3297657086614176
20
-5.1591093307086613
11
4.3291161023622049
21
-5.1586373622047246
0
LINE
8
BLACK
6
CONTINUOUS
10
4.3291161023622049
20
-5.1586373622047246
11
4.3290305905511808
21
-5.1583742125984253
0
LINE
8
BLACK
6
CONTINUOUS
10
4.3290305905511808
20
-5.1583742125984253
11
4.3288899999999995
21
-5.158233622047244
0
LINE
8
BLACK
6
CONTINUOUS
10
4.3288899999999995
20
-5.158233622047244
11
4.3288899999999995
21
-5.1579414566929129
0
LINE
8
BLACK
6
CONTINUOUS
10
4.3288899999999995
20
-5.1579414566929129
11
4.3287401574803148
21
-5.1574803149606296
0
LINE
8
BLACK
6
CONTINUOUS
10
4.3287401574803148
20
-5.1574803149606296
11
4.3287401574803148
21
-5.1489715748031495
0
LINE
8
BLACK
6
CONTINUOUS
10
4.3287401574803148
20
-5.1489715748031495
11
4.3272570078740156
21
-5.1320188976377947
0
LINE
8
BLACK
6
CONTINUOUS
10
4.3272570078740156
20
-5.1320188976377947
11
4.324301929133858
21
-5.1152599606299214
0
LINE
8
BLACK
6
CONTINUOUS
10
4.324301929133858
20
-5.1152599606299214
11
4.3198975196850391
21
-5.0988223622047242
0
LINE
8
BLACK
6
CONTINUOUS
10
4.3198975196850391
20
-5.0988223622047242
11
4.3140772047244091
21
-5.0828311811023621
0
LINE
8
BLACK
6
CONTINUOUS
10
4.3140772047244091
20
-5.0828311811023621
11
4.3068853149606294
21
-5.0674081496062993
0
LINE
8
BLACK
6
CONTINUOUS
10
4.3068853149606294
20
-5.0674081496062993
11
4.2983765748031493
21
-5.0526705905511813
0
LINE
8
BLACK
6
CONTINUOUS
10
4.2983765748031493
20
-5.0526705905511813
11
4.2886157480314964
21
-5.0387307086614168
0
LINE
8
BLACK
6
CONTINUOUS
10
4.2886157480314964
20
-5.0387307086614168
11
4.2776771653543308
21
-5.0256945669291335
0
LINE
8
BLACK
6
CONTINUOUS
10
4.2776771653543308
20
-5.0256945669291335
11
4.2656440157480313
21
-5.0136614173228349
0
LINE
8
BLACK
6
CONTINUOUS
10
4.2656440157480313
20
-5.0136614173228349
11
4.252607874015748
21
-5.0027228346456694
0
LINE
8
BLACK
6
CONTINUOUS
10
4.252607874015748
20
-5.0027228346456694
11
4.2386679921259844
21
-4.9929620078740156
0
LINE
8
BLACK
6
CONTINUOUS
10
4.2386679921259844
20
-4.9929620078740156
11
4.2239304330708665
21
-4.9844532677165354
0
LINE
8
BLACK
6
CONTINUOUS
10
4.2239304330708665
20
-4.9844532677165354
11
4.2085074015748027
21
-4.9772613779527557
0
LINE
8
BLACK
6
CONTINUOUS
10
4.2085074015748027
20
-4.9772613779527557
11
4.1925162204724407
21
-4.9714410629921257
0
LINE
8
BLACK
6
CONTINUOUS
10
4.1925162204724407
20
-4.9714410629921257
11
4.1760786220472443
21
-4.9670366535433068
0
LINE
8
BLACK
6
CONTINUOUS
10
4.1760786220472443
20
-4.9670366535433068
11
4.1593196850393701
21
-4.9640815748031493
0
LINE
8
BLACK
6
CONTINUOUS
10
4.1593196850393701
20
-4.9640815748031493
11
4.1423670078740153
21
-4.96259842519685
0
LINE
8
BLACK
6
CONTINUOUS
10
4.1423670078740153
20
-4.96259842519685
11
4.125349527559055
21
-4.96259842519685
0
LINE
8
BLACK
6
CONTINUOUS
10
4.125349527559055
20
-4.96259842519685
11
4.1083968503937003
21
-4.9640815748031493
0
LINE
8
BLACK
6
CONTINUOUS
10
4.1083968503937003
20
-4.9640815748031493
11
4.0916379133858269
21
-4.9670366535433068
0
LINE
8
BLACK
6
CONTINUOUS
10
4.0916379133858269
20
-4.9670366535433068
11
4.0752003149606297
21
-4.9714410629921257
0
LINE
8
BLACK
6
CONTINUOUS
10
4.0752003149606297
20
-4.9714410629921257
11
4.0592091338582676
21
-4.9772613779527557
0
LINE
8
BLACK
6
CONTINUOUS
10
4.0592091338582676
20
-4.9772613779527557
11
4.0437861023622048
21
-4.9844532677165354
0
LINE
8
BLACK
6
CONTINUOUS
10
4.0437861023622048
20
-4.9844532677165354
11
4.0290485433070868
21
-4.9929620078740156
0
LINE
8
BLACK
6
CONTINUOUS
10
4.0290485433070868
20
-4.9929620078740156
11
4.0151086614173224
21
-5.0027228346456694
0
LINE
8
BLACK
6
CONTINUOUS
10
4.0151086614173224
20
-5.0027228346456694
11
4.0020725196850391
21
-5.0136614173228349
0
LINE
8
BLACK
6
CONTINUOUS
10
4.0020725196850391
20
-5.0136614173228349
11
3.99003937007874
21
-5.0256945669291335
0
LINE
8
BLACK
6
CONTINUOUS
10
3.99003937007874
20
-5.0256945669291335
11
3.9791007874015749
21
-5.0387307086614168
0
LINE
8
BLACK
6
CONTINUOUS
10
3.9791007874015749
20
-5.0387307086614168
11
3.9693399606299211
21
-5.0526705905511813
0
LINE
8
BLACK
6
CONTINUOUS
10
3.9693399606299211
20
-5.0526705905511813
11
3.960831220472441
21
-5.0674081496062993
0
LINE
8
BLACK
6
CONTINUOUS
10
3.960831220472441
20
-5.0674081496062993
11
3.9536393307086612
21
-5.0828311811023621
0
LINE
8
BLACK
6
CONTINUOUS
10
3.9536393307086612
20
-5.0828311811023621
11
3.9478190157480313
21
-5.0988223622047242
0
LINE
8
BLACK
6
CONTINUOUS
10
3.9478190157480313
20
-5.0988223622047242
11
3.9434146062992124
21
-5.1152599606299214
0
LINE
8
BLACK
6
CONTINUOUS
10
3.9434146062992124
20
-5.1152599606299214
11
3.9404595275590548
21
-5.1320188976377947
0
LINE
8
BLACK
6
CONTINUOUS
10
3.9404595275590548
20
-5.1320188976377947
11
3.938976377952756
21
-5.1489715748031495
0
LINE
8
BLACK
6
CONTINUOUS
10
3.938976377952756
20
-5.1489715748031495
11
3.938976377952756
21
-5.1574803149606296
0
LINE
8
BLACK
6
CONTINUOUS
10
3.938976377952756
20
-5.1574803149606296
11
3.9388265354330709
21
-5.1579414566929129
0
LINE
8
BLACK
6
CONTINUOUS
10
3.9388265354330709
20
-5.1579414566929129
11
3.9388265354330709
21
-5.158233622047244
0
LINE
8
BLACK
6
CONTINUOUS
10
3.9388265354330709
20
-5.158233622047244
11
3.9386859055118109
21
-5.1583742125984253
0
LINE
8
BLACK
6
CONTINUOUS
10
3.9386859055118109
20
-5.1583742125984253
11
3.9386004330708659
21
-5.1586373622047246
0
LINE
8
BLACK
6
CONTINUOUS
10
3.9386004330708659
20
-5.1586373622047246
11
3.9379507874015749
21
-5.1591093307086613
0
LINE
8
BLACK
6
CONTINUOUS
10
3.9379507874015749
20
-5.1591093307086613
11
3.9377611811023621
21
-5.1592989763779524
0
LINE
8
BLACK
6
CONTINUOUS
10
3.9377611811023621
20
-5.1592989763779524
11
3.9376629133858265
21
-5.1593185039370075
0
LINE
8
BLACK
6
CONTINUOUS
10
3.9376629133858265
20
-5.1593185039370075
11
3.9376161811023622
21
-5.1593524803149604
0
LINE
8
BLACK
6
CONTINUOUS
10
3.9376161811023622
20
-5.1593524803149604
11
3.9374922047244092
21
-5.1593524803149604
0
LINE
8
BLACK
6
CONTINUOUS
10
3.9374922047244092
20
-5.1593524803149604
11
3.9370078740157481
21
-5.159448818897638
0
LINE
8
BLACK
6
CONTINUOUS
10
3.9370078740157481
20
-5.159448818897638
11
0.905511811023622
21
-5.159448818897638
0
LINE
8
BLACK
6
CONTINUOUS
10
0.905511811023622
20
-5.159448818897638
11
0.8983334251968503
21
-5.1588207874015746
0
LINE
8
BLACK
6
CONTINUOUS
10
0.8983334251968503
20
-5.1588207874015746
11
0.891373188976378
21
-5.156955787401575
0
LINE
8
BLACK
6
CONTINUOUS
10
0.891373188976378
20
-5.156955787401575
11
0.8848425196850394
21
-5.1539105118110236
0
LINE
8
BLACK
6
CONTINUOUS
10
0.8848425196850394
20
-5.1539105118110236
11
0.8789398818897638
21
-5.1497774409448818
0
LINE
8
BLACK
6
CONTINUOUS
10
0.8789398818897638
20
-5.1497774409448818
11
0.8738446062992126
21
-5.1446821653543306
0
LINE
8
BLACK
6
CONTINUOUS
10
0.8738446062992126
20
-5.1446821653543306
11
0.8697115354330709
21
-5.1387795275590546
0
LINE
8
BLACK
6
CONTINUOUS
10
0.8697115354330709
20
-5.1387795275590546
11
0.8666662598425197
21
-5.1322488582677162
0
LINE
8
BLACK
6
CONTINUOUS
10
0.8666662598425197
20
-5.1322488582677162
11
0.8648012598425197
21
-5.1252886220472442
0
LINE
8
BLACK
6
CONTINUOUS
10
0.8648012598425197
20
-5.1252886220472442
11
0.8641732283464567
21
-5.1181102362204722
0
LINE
8
BLACK
6
CONTINUOUS
10
0.8641732283464567
20
-5.1181102362204722
11
0.8641732283464567
21
-5.0393700787401574
0
LINE
8
BLACK
6
CONTINUOUS
10
0.8641732283464567
20
-5.0393700787401574
11
0.8641732283464567
21
-5.0328477165354331
0
LINE
8
BLACK
6
CONTINUOUS
10
0.8641732283464567
20
-5.0328477165354331
11
0.8627126771653543
21
-5.0198849606299207
0
LINE
8
BLACK
6
CONTINUOUS
10
0.8627126771653543
20
-5.0198849606299207
11
0.8598099212598425
21
-5.0071672834645664
0
LINE
8
BLACK
6
CONTINUOUS
10
0.8598099212598425
20
-5.0071672834645664
11
0.8555015354330708
21
-4.9948545275590552
0
LINE
8
BLACK
6
CONTINUOUS
10
0.8555015354330708
20
-4.9948545275590552
11
0.8498416141732283
21
-4.9831016141732283
0
LINE
8
BLACK
6
CONTINUOUS
10
0.8498416141732283
20
-4.9831016141732283
11
0.8429013779527559
21
-4.9720562992125981
0
LINE
8
BLACK
6
CONTINUOUS
10
0.8429013779527559
20
-4.9720562992125981
11
0.8347681102362204
21
-4.9618575196850392
0
LINE
8
BLACK
6
CONTINUOUS
10
0.8347681102362204
20
-4.9618575196850392
11
0.8255440551181102
21
-4.9526334645669294
0
LINE
8
BLACK
6
CONTINUOUS
10
0.8255440551181102
20
-4.9526334645669294
11
0.8153452755905511
21
-4.9445001968503934
0
LINE
8
BLACK
6
CONTINUOUS
10
0.8153452755905511
20
-4.9445001968503934
11
0.8042999606299213
21
-4.9375599606299208
0
LINE
8
BLACK
6
CONTINUOUS
10
0.8042999606299213
20
-4.9375599606299208
11
0.7925470472440944
21
-4.9319000393700785
0
LINE
8
BLACK
6
CONTINUOUS
10
0.7925470472440944
20
-4.9319000393700785
11
0.7802342913385827
21
-4.9275916535433071
0
LINE
8
BLACK
6
CONTINUOUS
10
0.7802342913385827
20
-4.9275916535433071
11
0.7675166141732284
21
-4.9246888976377949
0
LINE
8
BLACK
6
CONTINUOUS
10
0.7675166141732284
20
-4.9246888976377949
11
0.7545538582677165
21
-4.9232283464566926
0
LINE
8
BLACK
6
CONTINUOUS
10
0.7545538582677165
20
-4.9232283464566926
11
0.7480314960629921
21
-4.9232283464566926
0
LINE
8
BLACK
6
CONTINUOUS
10
0.7480314960629921
20
-4.9232283464566926
11
0.7408531102362205
21
-4.9226003149606301
0
LINE
8
BLACK
6
CONTINUOUS
10
0.7408531102362205
20
-4.9226003149606301
11
0.733892874015748
21
-4.9207353149606297
0
LINE
8
BLACK
6
CONTINUOUS
10
0.733892874015748
20
-4.9207353149606297
11
0.7273622047244094
21
-4.9176900393700782
0
LINE
8
BLACK
6
CONTINUOUS
10
0.7273622047244094
20
-4.9176900393700782
11
0.7214595669291338
21
-4.9135569685039373
0
LINE
8
BLACK
6
CONTINUOUS
10
0.7214595669291338
20
-4.9135569685039373
11
0.7163642913385827
21
-4.9084616929133853
0
LINE
8
BLACK
6
CONTINUOUS
10
0.7163642913385827
20
-4.9084616929133853
11
0.7122312204724409
21
-4.9025590551181102
0
LINE
8
BLACK
6
CONTINUOUS
10
0.7122312204724409
20
-4.9025590551181102
11
0.7091859448818898
21
-4.8960283858267717
0
LINE
8
BLACK
6
CONTINUOUS
10
0.7091859448818898
20
-4.8960283858267717
11
0.7073209448818898
21
-4.8890681496062989
0
LINE
8
BLACK
6
CONTINUOUS
10
0.7073209448818898
20
-4.8890681496062989
11
0.7066929133858267
21
-4.8818897637795278
0
LINE
8
BLACK
6
CONTINUOUS
10
0.7066929133858267
20
-4.8818897637795278
11
0.7066929133858267
21
-1.0629921259842519
0
LINE
8
BLACK
6
CONTINUOUS
10
0.7066929133858267
20
-1.0629921259842519
11
0.7073209448818898
21
-1.0558137401574803
0
LINE
8
BLACK
6
CONTINUOUS
10
0.7073209448818898
20
-1.0558137401574803
11
0.7091859448818898
21
-1.0488535039370079
0
LINE
8
BLACK
6
CONTINUOUS
10
0.7091859448818898
20
-1.0488535039370079
11
0.7122312204724409
21
-1.0423228346456692
0
LINE
8
BLACK
6
CONTINUOUS
10
0.7122312204724409
20
-1.0423228346456692
11
0.7163642913385827
21
-1.0364201968503937
0
LINE
8
BLACK
6
CONTINUOUS
10
0.7163642913385827
20
-1.0364201968503937
11
0.7214595669291338
21
-1.0313249212598425
0
LINE
8
BLACK
6
CONTINUOUS
10
0.7214595669291338
20
-1.0313249212598425
11
0.7273622047244094
21
-1.0271918503937008
0
LINE
8
BLACK
6
CONTINUOUS
10
0.7273622047244094
20
-1.0271918503937008
11
0.733892874015748
21
-1.0241465748031495
0
LINE
8
BLACK
6
CONTINUOUS
10
0.733892874015748
20
-1.0241465748031495
11
0.7408531102362205
21
-1.0222815748031495
0
LINE
8
BLACK
6
CONTINUOUS
10
0.7408531102362205
20
-1.0222815748031495
11
0.7480314960629921
21
-1.0216535433070866
0
LINE
8
BLACK
6
CONTINUOUS
10
0.7480314960629921
20
-1.0216535433070866
11
0.7545538582677165
21
-1.0216535433070866
0
LINE
8
BLACK
6
CONTINUOUS
10
0.7545538582677165
20
-1.0216535433070866
11
0.7675166141732284
21
-1.0201929921259842
0
LINE
8
BLACK
6
CONTINUOUS
10
0.7675166141732284
20
-1.0201929921259842
11
0.7802342913385827
21
-1.0172902362204723
0
LINE
8
BLACK
6
CONTINUOUS
10
0.7802342913385827
20
-1.0172902362204723
11
0.7925470472440944
21
-1.0129818503937007
0
LINE
8
BLACK
6
CONTINUOUS
10
0.7925470472440944
20
-1.0129818503937007
11
0.8042999606299213
21
-1.0073219291338582
0
LINE
8
BLACK
6
CONTINUOUS
10
0.8042999606299213
20
-1.0073219291338582
11
0.8153452755905511
21
-1.0003816929133857
0
LINE
8
BLACK
6
CONTINUOUS
10
0.8153452755905511
20
-1.0003816929133857
11
0.8255440551181102
21
-0.9922484251968504
0
LINE
8
BLACK
6
CONTINUOUS
10
0.8255440551181102
20
-0.9922484251968504
11
0.8347681102362204
21
-0.9830243700787401
0
LINE
8
BLACK
6
CONTINUOUS
10
0.8347681102362204
20
-0.9830243700787401
11
0.8429013779527559
21
-0.9728255905511811
0
LINE
8
BLACK
6
CONTINUOUS
10
0.8429013779527559
20
-0.9728255905511811
11
0.8498416141732283
21
-0.9617802755905511
0
LINE
8
BLACK
6
CONTINUOUS
10
0.8498416141732283
20
-0.9617802755905511
11
0.8555015354330708
21
-0.9500273622047244
0
LINE
8
BLACK
6
CONTINUOUS
10
0.8555015354330708
20
-0.9500273622047244
11
0.8598099212598425
21
-0.9377146062992125
0
LINE
8
BLACK
6
CONTINUOUS
10
0.8598099212598425
20
-0.9377146062992125
11
0.8627126771653543
21
-0.9249969291338582
0
LINE
8
BLACK
6
CONTINUOUS
10
0.8627126771653543
20
-0.9249969291338582
11
0.8641732283464567
21
-0.9120341732283465
0
LINE
8
BLACK
6
CONTINUOUS
10
0.8641732283464567
20
-0.9120341732283465
11
0.8641732283464567
21
-0.905511811023622
0
LINE
8
BLACK
6
CONTINUOUS
10
0.8641732283464567
20
-0.905511811023622
11
0.8641732283464567
21
-0.8267716535433071
0
LINE
8
BLACK
6
CONTINUOUS
10
0.8641732283464567
20
-0.8267716535433071
11
0.8648012598425197
21
-0.8195932677165354
0
LINE
8
BLACK
6
CONTINUOUS
10
0.8648012598425197
20
-0.8195932677165354
11
0.8666662598425197
21
-0.8126330314960629
0
LINE
8
BLACK
6
CONTINUOUS
10
0.8666662598425197
20
-0.8126330314960629
11
0.8697115354330709
21
-0.8061023622047244
0
LINE
8
BLACK
6
CONTINUOUS
10
0.8697115354330709
20
-0.8061023622047244
11
0.8738446062992126
21
-0.8001997244094488
0
LINE
8
BLACK
6
CONTINUOUS
10
0.8738446062992126
20
-0.8001997244094488
11
0.8789398818897638
21
-0.7951044488188976
0
LINE
8
BLACK
6
CONTINUOUS
10
0.8789398818897638
20
-0.7951044488188976
11
0.8848425196850394
21
-0.7909713779527558
0
LINE
8
BLACK
6
CONTINUOUS
10
0.8848425196850394
20
-0.7909713779527558
11
0.891373188976378
21
-0.7879261023622047
0
LINE
8
BLACK
6
CONTINUOUS
10
0.891373188976378
20
-0.7879261023622047
11
0.8983334251968503
21
-0.7860611023622047
0
LINE
8
BLACK
6
CONTINUOUS
10
0.8983334251968503
20
-0.7860611023622047
11
0.905511811023622
21
-0.7854330708661417
0
LINE
8
BLACK
6
CONTINUOUS
10
0.905511811023622
20
-0.7854330708661417
11
3.4566929133858268
21
-0.7854330708661417
0
LINE
8
BLACK
6
CONTINUOUS
10
3.4566929133858268
20
-0.7854330708661417
11
3.4574462204724408
21
-0.7855829133858268
0
LINE
8
BLACK
6
CONTINUOUS
10
0.905511811023622
20
-0.7893700787401574
11
0.9022396062992126
21
-0.7893700787401574
0
LINE
8
BLACK
6
CONTINUOUS
10
0.9022396062992126
20
-0.7893700787401574
11
0.8957946062992126
21
-0.7905064960629921
0
LINE
8
BLACK
6
CONTINUOUS
10
0.8957946062992126
20
-0.7905064960629921
11
0.889644842519685
21
-0.7927448031496063
0
LINE
8
BLACK
6
CONTINUOUS
10
0.889644842519685
20
-0.7927448031496063
11
0.8839772047244094
21
-0.7960170472440945
0
LINE
8
BLACK
6
CONTINUOUS
10
0.8839772047244094
20
-0.7960170472440945
11
0.8789638582677165
21
-0.8002237007874016
0
LINE
8
BLACK
6
CONTINUOUS
10
0.8789638582677165
20
-0.8002237007874016
11
0.8747572047244094
21
-0.8052370472440945
0
LINE
8
BLACK
6
CONTINUOUS
10
0.8747572047244094
20
-0.8052370472440945
11
0.8714849606299212
21
-0.8109046850393701
0
LINE
8
BLACK
6
CONTINUOUS
10
0.8714849606299212
20
-0.8109046850393701
11
0.8692466535433071
21
-0.8170544488188977
0
LINE
8
BLACK
6
CONTINUOUS
10
0.8692466535433071
20
-0.8170544488188977
11
0.8681102362204725
21
-0.8234994488188976
0
LINE
8
BLACK
6
CONTINUOUS
10
0.8681102362204725
20
-0.8234994488188976
11
0.8681102362204725
21
-0.8267716535433071
0
LINE
8
BLACK
6
CONTINUOUS
10
0.8681102362204725
20
-0.8267716535433071
11
0.8681102362204725
21
-0.905511811023622
0
LINE
8
BLACK
6
CONTINUOUS
10
0.8681102362204725
20
-0.905511811023622
11
0.8674524409448818
21
-0.9180634645669291
0
LINE
8
BLACK
6
CONTINUOUS
10
0.8674524409448818
20
-0.9180634645669291
11
0.8654862204724409
21
-0.9304775984251968
0
LINE
8
BLACK
6
CONTINUOUS
10
0.8654862204724409
20
-0.9304775984251968
11
0.8622331496062992
21
-0.9426181889763779
0
LINE
8
BLACK
6
CONTINUOUS
10
0.8622331496062992
20
-0.9426181889763779
11
0.8577288582677165
21
-0.9543522440944882
0
LINE
8
BLACK
6
CONTINUOUS
10
0.8577288582677165
20
-0.9543522440944882
11
0.852022716535433
21
-0.9655511811023622
0
LINE
8
BLACK
6
CONTINUOUS
10
0.852022716535433
20
-0.9655511811023622
11
0.8451772047244094
21
-0.9760923228346456
0
LINE
8
BLACK
6
CONTINUOUS
10
0.8451772047244094
20
-0.9760923228346456
11
0.8372673622047244
21
-0.985860157480315
0
LINE
8
BLACK
6
CONTINUOUS
10
0.8372673622047244
20
-0.985860157480315
11
0.828379842519685
21
-0.9947476771653543
0
LINE
8
BLACK
6
CONTINUOUS
10
0.828379842519685
20
-0.9947476771653543
11
0.8186120078740158
21
-1.0026575196850394
0
LINE
8
BLACK
6
CONTINUOUS
10
0.8186120078740158
20
-1.0026575196850394
11
0.8080708661417323
21
-1.0095030314960629
0
LINE
8
BLACK
6
CONTINUOUS
10
0.8080708661417323
20
-1.0095030314960629
11
0.7968719291338583
21
-1.0152091732283464
0
LINE
8
BLACK
6
CONTINUOUS
10
0.7968719291338583
20
-1.0152091732283464
11
0.785137874015748
21
-1.019713464566929
0
LINE
8
BLACK
6
CONTINUOUS
10
0.785137874015748
20
-1.019713464566929
11
0.7729972834645669
21
-1.0229665354330708
0
LINE
8
BLACK
6
CONTINUOUS
10
0.7729972834645669
20
-1.0229665354330708
11
0.7605831496062992
21
-1.0249327559055117
0
LINE
8
BLACK
6
CONTINUOUS
10
0.7605831496062992
20
-1.0249327559055117
11
0.7480314960629921
21
-1.0255905511811023
0
LINE
8
BLACK
6
CONTINUOUS
10
0.7480314960629921
20
-1.0255905511811023
11
0.7447592913385827
21
-1.0255905511811023
0
LINE
8
BLACK
6
CONTINUOUS
10
0.7447592913385827
20
-1.0255905511811023
11
0.7383142913385826
21
-1.0267269685039371
0
LINE
8
BLACK
6
CONTINUOUS
10
0.7383142913385826
20
-1.0267269685039371
11
0.7321645275590551
21
-1.0289652755905512
0
LINE
8
BLACK
6
CONTINUOUS
10
0.7321645275590551
20
-1.0289652755905512
11
0.7264968897637795
21
-1.0322375196850393
0
LINE
8
BLACK
6
CONTINUOUS
10
0.7264968897637795
20
-1.0322375196850393
11
0.7214835433070866
21
-1.0364441732283465
0
LINE
8
BLACK
6
CONTINUOUS
10
0.7214835433070866
20
-1.0364441732283465
11
0.7172768897637795
21
-1.0414575196850393
0
LINE
8
BLACK
6
CONTINUOUS
10
0.7172768897637795
20
-1.0414575196850393
11
0.7140046456692913
21
-1.0471251574803149
0
LINE
8
BLACK
6
CONTINUOUS
10
0.7140046456692913
20
-1.0471251574803149
11
0.7117663385826771
21
-1.0532749212598425
0
LINE
8
BLACK
6
CONTINUOUS
10
0.7117663385826771
20
-1.0532749212598425
11
0.7106299212598425
21
-1.0597199212598425
0
LINE
8
BLACK
6
CONTINUOUS
10
0.7106299212598425
20
-1.0597199212598425
11
0.7106299212598425
21
-1.0629921259842519
0
LINE
8
BLACK
6
CONTINUOUS
10
0.7106299212598425
20
-1.0629921259842519
11
0.7106299212598425
21
-4.8818897637795278
0
LINE
8
BLACK
6
CONTINUOUS
10
0.7106299212598425
20
-4.8818897637795278
11
0.7106299212598425
21
-4.8851619685039367
0
LINE
8
BLACK
6
CONTINUOUS
10
0.7106299212598425
20
-4.8851619685039367
11
0.7117663385826771
21
-4.8916069685039369
0
LINE
8
BLACK
6
CONTINUOUS
10
0.7117663385826771
20
-4.8916069685039369
11
0.7140046456692913
21
-4.8977567322834643
0
LINE
8
BLACK
6
CONTINUOUS
10
0.7140046456692913
20
-4.8977567322834643
11
0.7172768897637795
21
-4.9034243700787403
0
LINE
8
BLACK
6
CONTINUOUS
10
0.7172768897637795
20
-4.9034243700787403
11
0.7214835433070866
21
-4.9084377165354329
0
LINE
8
BLACK
6
CONTINUOUS
10
0.7214835433070866
20
-4.9084377165354329
11
0.7264968897637795
21
-4.9126443700787403
0
LINE
8
BLACK
6
CONTINUOUS
10
0.7264968897637795
20
-4.9126443700787403
11
0.7321645275590551
21
-4.915916614173228
0
LINE
8
BLACK
6
CONTINUOUS
10
0.7321645275590551
20
-4.915916614173228
11
0.7383142913385826
21
-4.9181549212598421
0
LINE
8
BLACK
6
CONTINUOUS
10
0.7383142913385826
20
-4.9181549212598421
11
0.7447592913385827
21
-4.9192913385826769
0
LINE
8
BLACK
6
CONTINUOUS
10
0.7447592913385827
20
-4.9192913385826769
11
0.7480314960629921
21
-4.9192913385826769
0
LINE
8
BLACK
6
CONTINUOUS
10
0.7480314960629921
20
-4.9192913385826769
11
0.7605831496062992
21
-4.9199491338582675
0
LINE
8
BLACK
6
CONTINUOUS
10
0.7605831496062992
20
-4.9199491338582675
11
0.7729972834645669
21
-4.9219153543307081
0
LINE
8
BLACK
6
CONTINUOUS
10
0.7729972834645669
20
-4.9219153543307081
11
0.785137874015748
21
-4.9251684251968504
0
LINE
8
BLACK
6
CONTINUOUS
10
0.785137874015748
20
-4.9251684251968504
11
0.7968719291338583
21
-4.9296727165354328
0
LINE
8
BLACK
6
CONTINUOUS
10
0.7968719291338583
20
-4.9296727165354328
11
0.8080708661417323
21
-4.9353788582677165
0
LINE
8
BLACK
6
CONTINUOUS
10
0.8080708661417323
20
-4.9353788582677165
11
0.8186120078740158
21
-4.9422243700787396
0
LINE
8
BLACK
6
CONTINUOUS
10
0.8186120078740158
20
-4.9422243700787396
11
0.828379842519685
21
-4.9501342125984253
0
LINE
8
BLACK
6
CONTINUOUS
10
0.828379842519685
20
-4.9501342125984253
11
0.8372673622047244
21
-4.9590217322834649
0
LINE
8
BLACK
6
CONTINUOUS
10
0.8372673622047244
20
-4.9590217322834649
11
0.8451772047244094
21
-4.968789566929134
0
LINE
8
BLACK
6
CONTINUOUS
10
0.8451772047244094
20
-4.968789566929134
11
0.852022716535433
21
-4.9793307086614176
0
LINE
8
BLACK
6
CONTINUOUS
10
0.852022716535433
20
-4.9793307086614176
11
0.8577288582677165
21
-4.9905296456692909
0
LINE
8
BLACK
6
CONTINUOUS
10
0.8577288582677165
20
-4.9905296456692909
11
0.8622331496062992
21
-5.0022637007874016
0
LINE
8
BLACK
6
CONTINUOUS
10
0.8622331496062992
20
-5.0022637007874016
11
0.8654862204724409
21
-5.0144042913385825
0
LINE
8
BLACK
6
CONTINUOUS
10
0.8654862204724409
20
-5.0144042913385825
11
0.8674524409448818
21
-5.0268184251968506
0
LINE
8
BLACK
6
CONTINUOUS
10
0.8674524409448818
20
-5.0268184251968506
11
0.8681102362204725
21
-5.0393700787401574
0
LINE
8
BLACK
6
CONTINUOUS
10
0.8681102362204725
20
-5.0393700787401574
11
0.8681102362204725
21
-5.1181102362204722
0
LINE
8
BLACK
6
CONTINUOUS
10
0.8681102362204725
20
-5.1181102362204722
11
0.8681102362204725
21
-5.121382440944882
0
LINE
8
BLACK
6
CONTINUOUS
10
0.8681102362204725
20
-5.121382440944882
11
0.8692466535433071
21
-5.1278274409448814
0
LINE
8
BLACK
6
CONTINUOUS
10
0.8692466535433071
20
-5.1278274409448814
11
0.8714849606299212
21
-5.1339772047244097
0
LINE
8
BLACK
6
CONTINUOUS
10
0.8714849606299212
20
-5.1339772047244097
11
0.8747572047244094
21
-5.1396448425196848
0
LINE
8
BLACK
6
CONTINUOUS
10
0.8747572047244094
20
-5.1396448425196848
11
0.8789638582677165
21
-5.1446581889763783
0
LINE
8
BLACK
6
CONTINUOUS
10
0.8789638582677165
20
-5.1446581889763783
11
0.8839772047244094
21
-5.1488648425196848
0
LINE
8
BLACK
6
CONTINUOUS
10
0.8839772047244094
20
-5.1488648425196848
11
0.889644842519685
21
-5.1521370866141734
0
LINE
8
BLACK
6
CONTINUOUS
10
0.889644842519685
20
-5.1521370866141734
11
0.8957946062992126
21
-5.1543753937007875
0
LINE
8
BLACK
6
CONTINUOUS
10
0.8957946062992126
20
-5.1543753937007875
11
0.9022396062992126
21
-5.1555118110236222
0
LINE
8
BLACK
6
CONTINUOUS
10
0.9022396062992126
20
-5.1555118110236222
11
0.905511811023622
21
-5.1555118110236222
0
LINE
8
BLACK
6
CONTINUOUS
10
0.905511811023622
20
-5.1555118110236222
11
3.9351253149606298
21
-5.1555118110236222
0
LINE
8
BLACK
6
CONTINUOUS
10
3.9351253149606298
20
-5.1555118110236222
11
3.9357959448818898
21
-5.1401520866141732
0
LINE
8
BLACK
6
CONTINUOUS
10
3.9357959448818898
20
-5.1401520866141732
11
3.9380598818897639
21
-5.1229557874015743
0
LINE
8
BLACK
6
CONTINUOUS
10
3.9380598818897639
20
-5.1229557874015743
11
3.9418139763779525
21
-5.1060222047244093
0
LINE
8
BLACK
6
CONTINUOUS
10
3.9418139763779525
20
-5.1060222047244093
11
3.9470296062992123
21
-5.0894802362204725
0
LINE
8
BLACK
6
CONTINUOUS
10
3.9470296062992123
20
-5.0894802362204725
11
3.9536671653543305
21
-5.0734558267716539
0
LINE
8
BLACK
6
CONTINUOUS
10
3.9536671653543305
20
-5.0734558267716539
11
3.9616760629921259
21
-5.0580708661417324
0
LINE
8
BLACK
6
CONTINUOUS
10
3.9616760629921259
20
-5.0580708661417324
11
3.9709953543307086
21
-5.0434424803149609
0
LINE
8
BLACK
6
CONTINUOUS
10
3.9709953543307086
20
-5.0434424803149609
11
3.9815541732283464
21
-5.0296820078740154
0
LINE
8
BLACK
6
CONTINUOUS
10
3.9815541732283464
20
-5.0296820078740154
11
3.9932720866141733
21
-5.0168941338582673
0
LINE
8
BLACK
6
CONTINUOUS
10
3.9932720866141733
20
-5.0168941338582673
11
4.006059960629921
21
-5.0051762204724408
0
LINE
8
BLACK
6
CONTINUOUS
10
4.006059960629921
20
-5.0051762204724408
11
4.0198204330708665
21
-4.9946174015748026
0
LINE
8
BLACK
6
CONTINUOUS
10
4.0198204330708665
20
-4.9946174015748026
11
4.034448818897638
21
-4.9852981102362204
0
LINE
8
BLACK
6
CONTINUOUS
10
4.034448818897638
20
-4.9852981102362204
11
4.0498337795275585
21
-4.9772892125984249
0
LINE
8
BLACK
6
CONTINUOUS
10
4.0498337795275585
20
-4.9772892125984249
11
4.0658581889763781
21
-4.9706516535433067
0
LINE
8
BLACK
6
CONTINUOUS
10
4.0658581889763781
20
-4.9706516535433067
11
4.0824001574803148
21
-4.9654360236220469
0
LINE
8
BLACK
6
CONTINUOUS
10
4.0824001574803148
20
-4.9654360236220469
11
4.0993337401574799
21
-4.9616819291338583
0
LINE
8
BLACK
6
CONTINUOUS
10
4.0993337401574799
20
-4.9616819291338583
11
4.1165300393700788
21
-4.9594179921259842
0
LINE
8
BLACK
6
CONTINUOUS
10
4.1165300393700788
20
-4.9594179921259842
11
4.1338582677165352
21
-4.9586614173228343
0
LINE
8
BLACK
6
CONTINUOUS
10
4.1338582677165352
20
-4.9586614173228343
11
4.1511864960629916
21
-4.9594179921259842
0
LINE
8
BLACK
6
CONTINUOUS
10
4.1511864960629916
20
-4.9594179921259842
11
4.1683827952755905
21
-4.9616819291338583
0
LINE
8
BLACK
6
CONTINUOUS
10
4.1683827952755905
20
-4.9616819291338583
11
4.1853163779527556
21
-4.9654360236220469
0
LINE
8
BLACK
6
CONTINUOUS
10
4.1853163779527556
20
-4.9654360236220469
11
4.2018583464566932
21
-4.9706516535433067
0
LINE
8
BLACK
6
CONTINUOUS
10
4.2018583464566932
20
-4.9706516535433067
11
4.2178827559055119
21
-4.9772892125984249
0
LINE
8
BLACK
6
CONTINUOUS
10
4.2178827559055119
20
-4.9772892125984249
11
4.2332677165354333
21
-4.9852981102362204
0
LINE
8
BLACK
6
CONTINUOUS
10
4.2332677165354333
20
-4.9852981102362204
11
4.2478961023622048
21
-4.9946174015748026
0
LINE
8
BLACK
6
CONTINUOUS
10
4.2478961023622048
20
-4.9946174015748026
11
4.2616565748031494
21
-5.0051762204724408
0
LINE
8
BLACK
6
CONTINUOUS
10
4.2616565748031494
20
-5.0051762204724408
11
4.2744444488188975
21
-5.0168941338582673
0
LINE
8
BLACK
6
CONTINUOUS
10
4.2744444488188975
20
-5.0168941338582673
11
4.286162362204724
21
-5.0296820078740154
0
LINE
8
BLACK
6
CONTINUOUS
10
4.286162362204724
20
-5.0296820078740154
11
4.2967211811023622
21
-5.0434424803149609
0
LINE
8
BLACK
6
CONTINUOUS
10
4.2967211811023622
20
-5.0434424803149609
11
4.3060404724409445
21
-5.0580708661417324
0
LINE
8
BLACK
6
CONTINUOUS
10
4.3060404724409445
20
-5.0580708661417324
11
4.3140493700787399
21
-5.0734558267716539
0
LINE
8
BLACK
6
CONTINUOUS
10
4.3140493700787399
20
-5.0734558267716539
11
4.3206869291338581
21
-5.0894802362204725
0
LINE
8
BLACK
6
CONTINUOUS
10
4.3206869291338581
20
-5.0894802362204725
11
4.3259025590551179
21
-5.1060222047244093
0
LINE
8
BLACK
6
CONTINUOUS
10
4.3259025590551179
20
-5.1060222047244093
11
4.3296566535433074
21
-5.1229557874015743
0
LINE
8
BLACK
6
CONTINUOUS
10
4.3296566535433074
20
-5.1229557874015743
11
4.3319205905511806
21
-5.1401520866141732
0
LINE
8
BLACK
6
CONTINUOUS
10
4.3319205905511806
20
-5.1401520866141732
11
4.3325912204724411
21
-5.1555118110236222
0
LINE
8
BLACK
6
CONTINUOUS
10
4.3325912204724411
20
-5.1555118110236222
11
7.3622047244094491
21
-5.1555118110236222
0
LINE
8
BLACK
6
CONTINUOUS
10
7.3622047244094491
20
-5.1555118110236222
11
7.365476929133858
21
-5.1555118110236222
0
LINE
8
BLACK
6
CONTINUOUS
10
7.365476929133858
20
-5.1555118110236222
11
7.3719219291338582
21
-5.1543753937007875
0
LINE
8
BLACK
6
CONTINUOUS
10
7.3719219291338582
20
-5.1543753937007875
11
7.3780716929133856
21
-5.1521370866141734
0
LINE
8
BLACK
6
CONTINUOUS
10
7.3780716929133856
20
-5.1521370866141734
11
7.3837393307086616
21
-5.1488648425196848
0
LINE
8
BLACK
6
CONTINUOUS
10
7.3837393307086616
20
-5.1488648425196848
11
7.3887526771653542
21
-5.1446581889763783
0
LINE
8
BLACK
6
CONTINUOUS
10
7.3887526771653542
20
-5.1446581889763783
11
7.3929593307086616
21
-5.1396448425196848
0
LINE
8
BLACK
6
CONTINUOUS
10
7.3929593307086616
20
-5.1396448425196848
11
7.3962315748031493
21
-5.1339772047244097
0
LINE
8
BLACK
6
CONTINUOUS
10
7.3962315748031493
20
-5.1339772047244097
11
7.3984698818897634
21
-5.1278274409448814
0
LINE
8
BLACK
6
CONTINUOUS
10
7.3984698818897634
20
-5.1278274409448814
11
7.3996062992125982
21
-5.121382440944882
0
LINE
8
BLACK
6
CONTINUOUS
10
7.3996062992125982
20
-5.121382440944882
11
7.3996062992125982
21
-5.1181102362204722
0
LINE
8
BLACK
6
CONTINUOUS
10
7.3996062992125982
20
-5.1181102362204722
11
7.3996062992125982
21
-5.0393700787401574
0
LINE
8
BLACK
6
CONTINUOUS
10
7.3996062992125982
20
-5.0393700787401574
11
7.4002640944881888
21
-5.0268184251968506
0
LINE
8
BLACK
6
CONTINUOUS
10
7.4002640944881888
20
-5.0268184251968506
11
7.4022303149606294
21
-5.0144042913385825
0
LINE
8
BLACK
6
CONTINUOUS
10
7.4022303149606294
20
-5.0144042913385825
11
7.4054833858267717
21
-5.0022637007874016
0
LINE
8
BLACK
6
CONTINUOUS
10
7.4054833858267717
20
-5.0022637007874016
11
7.4099876771653541
21
-4.9905296456692909
0
LINE
8
BLACK
6
CONTINUOUS
10
7.4099876771653541
20
-4.9905296456692909
11
7.4156938188976378
21
-4.9793307086614176
0
LINE
8
BLACK
6
CONTINUOUS
10
7.4156938188976378
20
-4.9793307086614176
11
7.4225393307086609
21
-4.968789566929134
0
LINE
8
BLACK
6
CONTINUOUS
10
7.4225393307086609
20
-4.968789566929134
11
7.4304491732283466
21
-4.9590217322834649
0
LINE
8
BLACK
6
CONTINUOUS
10
7.4304491732283466
20
-4.9590217322834649
11
7.4393366929133853
21
-4.9501342125984253
0
LINE
8
BLACK
6
CONTINUOUS
10
7.4393366929133853
20
-4.9501342125984253
11
7.4491045275590553
21
-4.9422243700787396
0
LINE
8
BLACK
6
CONTINUOUS
10
7.4491045275590553
20
-4.9422243700787396
11
7.459645669291338
21
-4.9353788582677165
0
LINE
8
BLACK
6
CONTINUOUS
10
7.459645669291338
20
-4.9353788582677165
11
7.4708446062992122
21
-4.9296727165354328
0
LINE
8
BLACK
6
CONTINUOUS
10
7.4708446062992122
20
-4.9296727165354328
11
7.4825786614173229
21
-4.9251684251968504
0
LINE
8
BLACK
6
CONTINUOUS
10
7.4825786614173229
20
-4.9251684251968504
11
7.4947192519685037
21
-4.9219153543307081
0
LINE
8
BLACK
6
CONTINUOUS
10
7.4947192519685037
20
-4.9219153543307081
11
7.5071333858267719
21
-4.9199491338582675
0
LINE
8
BLACK
6
CONTINUOUS
10
7.5071333858267719
20
-4.9199491338582675
11
7.5196850393700787
21
-4.9192913385826769
0
LINE
8
BLACK
6
CONTINUOUS
10
7.5196850393700787
20
-4.9192913385826769
11
7.5229572440944876
21
-4.9192913385826769
0
LINE
8
BLACK
6
CONTINUOUS
10
7.5229572440944876
20
-4.9192913385826769
11
7.5294022440944879
21
-4.9181549212598421
0
LINE
8
BLACK
6
CONTINUOUS
10
7.5294022440944879
20
-4.9181549212598421
11
7.5355520078740152
21
-4.915916614173228
0
LINE
8
BLACK
6
CONTINUOUS
10
7.5355520078740152
20
-4.915916614173228
11
7.5412196456692913
21
-4.9126443700787403
0
LINE
8
BLACK
6
CONTINUOUS
10
7.5412196456692913
20
-4.9126443700787403
11
7.5462329921259839
21
-4.9084377165354329
0
LINE
8
BLACK
6
CONTINUOUS
10
7.5462329921259839
20
-4.9084377165354329
11
7.5504396456692913
21
-4.9034243700787403
0
LINE
8
BLACK
6
CONTINUOUS
10
7.5504396456692913
20
-4.9034243700787403
11
7.5537118897637789
21
-4.8977567322834643
0
LINE
8
BLACK
6
CONTINUOUS
10
7.5537118897637789
20
-4.8977567322834643
11
7.5559501968503939
21
-4.8916069685039369
0
LINE
8
BLACK
6
CONTINUOUS
10
7.5559501968503939
20
-4.8916069685039369
11
7.5570866141732278
21
-4.8851619685039367
0
LINE
8
BLACK
6
CONTINUOUS
10
7.5570866141732278
20
-4.8851619685039367
11
7.5570866141732278
21
-4.8818897637795278
0
LINE
8
BLACK
6
CONTINUOUS
10
7.5570866141732278
20
-4.8818897637795278
11
7.5570866141732278
21
-1.0629921259842519
0
LINE
8
BLACK
6
CONTINUOUS
10
7.5570866141732278
20
-1.0629921259842519
11
7.5570866141732278
21
-1.0597199212598425
0
LINE
8
BLACK
6
CONTINUOUS
10
7.5570866141732278
20
-1.0597199212598425
11
7.5559501968503939
21
-1.0532749212598425
0
LINE
8
BLACK
6
CONTINUOUS
10
7.5559501968503939
20
-1.0532749212598425
11
7.5537118897637789
21
-1.0471251574803149
0
LINE
8
BLACK
6
CONTINUOUS
10
7.5537118897637789
20
-1.0471251574803149
11
7.5504396456692913
21
-1.0414575196850393
0
LINE
8
BLACK
6
CONTINUOUS
10
7.5504396456692913
20
-1.0414575196850393
11
7.5462329921259839
21
-1.0364441732283465
0
LINE
8
BLACK
6
CONTINUOUS
10
7.5462329921259839
20
-1.0364441732283465
11
7.5412196456692913
21
-1.0322375196850393
0
LINE
8
BLACK
6
CONTINUOUS
10
7.5412196456692913
20
-1.0322375196850393
11
7.5355520078740152
21
-1.0289652755905512
0
LINE
8
BLACK
6
CONTINUOUS
10
7.5355520078740152
20
-1.0289652755905512
11
7.5294022440944879
21
-1.0267269685039371
0
LINE
8
BLACK
6
CONTINUOUS
10
7.5294022440944879
20
-1.0267269685039371
11
7.5229572440944876
21
-1.0255905511811023
0
LINE
8
BLACK
6
CONTINUOUS
10
7.5229572440944876
20
-1.0255905511811023
11
7.5196850393700787
21
-1.0255905511811023
0
LINE
8
BLACK
6
CONTINUOUS
10
7.5196850393700787
20
-1.0255905511811023
11
7.5071333858267719
21
-1.0249327559055117
0
LINE
8
BLACK
6
CONTINUOUS
10
7.5071333858267719
20
-1.0249327559055117
11
7.4947192519685037
21
-1.0229665354330708
0
LINE
8
BLACK
6
CONTINUOUS
10
7.4947192519685037
20
-1.0229665354330708
11
7.4825786614173229
21
-1.019713464566929
0
LINE
8
BLACK
6
CONTINUOUS
10
7.4825786614173229
20
-1.019713464566929
11
7.4708446062992122
21
-1.0152091732283464
0
LINE
8
BLACK
6
CONTINUOUS
10
7.4708446062992122
20
-1.0152091732283464
11
7.459645669291338
21
-1.0095030314960629
0
LINE
8
BLACK
6
CONTINUOUS
10
7.459645669291338
20
-1.0095030314960629
11
7.4491045275590553
21
-1.0026575196850394
0
LINE
8
BLACK
6
CONTINUOUS
10
7.4491045275590553
20
-1.0026575196850394
11
7.4393366929133853
21
-0.9947476771653543
0
LINE
8
BLACK
6
CONTINUOUS
10
7.4393366929133853
20
-0.9947476771653543
11
7.4304491732283466
21
-0.985860157480315
0
LINE
8
BLACK
6
CONTINUOUS
10
7.4304491732283466
20
-0.985860157480315
11
7.4225393307086609
21
-0.9760923228346456
0
LINE
8
BLACK
6
CONTINUOUS
10
7.4225393307086609
20
-0.9760923228346456
11
7.4156938188976378
21
-0.9655511811023622
0
LINE
8
BLACK
6
CONTINUOUS
10
7.4156938188976378
20
-0.9655511811023622
11
7.4099876771653541
21
-0.9543522440944882
0
LINE
8
BLACK
6
CONTINUOUS
10
7.4099876771653541
20
-0.9543522440944882
11
7.4054833858267717
21
-0.9426181889763779
0
LINE
8
BLACK
6
CONTINUOUS
10
7.4054833858267717
20
-0.9426181889763779
11
7.4022303149606294
21
-0.9304775984251968
0
LINE
8
BLACK
6
CONTINUOUS
10
7.4022303149606294
20
-0.9304775984251968
11
7.4002640944881888
21
-0.9180634645669291
0
LINE
8
BLACK
6
CONTINUOUS
10
7.4002640944881888
20
-0.9180634645669291
11
7.3996062992125982
21
-0.905511811023622
0
LINE
8
BLACK
6
CONTINUOUS
10
7.3996062992125982
20
-0.905511811023622
11
7.3996062992125982
21
-0.8267716535433071
0
LINE
8
BLACK
6
CONTINUOUS
10
7.3996062992125982
20
-0.8267716535433071
11
7.3996062992125982
21
-0.8234994488188976
0
LINE
8
BLACK
6
CONTINUOUS
10
7.3996062992125982
20
-0.8234994488188976
11
7.3984698818897634
21
-0.8170544488188977
0
LINE
8
BLACK
6
CONTINUOUS
10
7.3984698818897634
20
-0.8170544488188977
11
7.3962315748031493
21
-0.8109046850393701
0
LINE
8
BLACK
6
CONTINUOUS
10
7.3962315748031493
20
-0.8109046850393701
11
7.3929593307086616
21
-0.8052370472440945
0
LINE
8
BLACK
6
CONTINUOUS
10
7.3929593307086616
20
-0.8052370472440945
11
7.3887526771653542
21
-0.8002237007874016
0
LINE
8
BLACK
6
CONTINUOUS
10
7.3887526771653542
20
-0.8002237007874016
11
7.3837393307086616
21
-0.7960170472440945
0
LINE
8
BLACK
6
CONTINUOUS
10
7.3837393307086616
20
-0.7960170472440945
11
7.3780716929133856
21
-0.7927448031496063
0
LINE
8
BLACK
6
CONTINUOUS
10
7.3780716929133856
20
-0.7927448031496063
11
7.3719219291338582
21
-0.7905064960629921
0
LINE
8
BLACK
6
CONTINUOUS
10
7.3719219291338582
20
-0.7905064960629921
11
7.365476929133858
21
-0.7893700787401574
0
LINE
8
BLACK
6
CONTINUOUS
10
7.365476929133858
20
-0.7893700787401574
11
7.3622047244094491
21
-0.7893700787401574
0
LINE
8
BLACK
6
CONTINUOUS
10
7.3622047244094491
20
-0.7893700787401574
11
4.8129921259842519
21
-0.7893700787401574
0
LINE
8
BLACK
6
CONTINUOUS
10
4.8129921259842519
20
-0.7893700787401574
11
4.8129921259842519
21
-0.8267716535433071
0
LINE
8
BLACK
6
CONTINUOUS
10
4.8129921259842519
20
-0.8267716535433071
11
4.8123884251968505
21
-0.8313570472440944
0
LINE
8
BLACK
6
CONTINUOUS
10
4.8123884251968505
20
-0.8313570472440944
11
4.8106185039370075
21
-0.8356299606299212
0
LINE
8
BLACK
6
CONTINUOUS
10
4.8106185039370075
20
-0.8356299606299212
11
4.8078030314960625
21
-0.8392991732283465
0
LINE
8
BLACK
6
CONTINUOUS
10
4.8078030314960625
20
-0.8392991732283465
11
4.8041338188976379
21
-0.8421146456692913
0
LINE
8
BLACK
6
CONTINUOUS
10
4.8041338188976379
20
-0.8421146456692913
11
4.7998609055118111
21
-0.8438845669291338
0
LINE
8
BLACK
6
CONTINUOUS
10
4.7998609055118111
20
-0.8438845669291338
11
4.7952755118110231
21
-0.8444882677165354
0
LINE
8
BLACK
6
CONTINUOUS
10
4.7952755118110231
20
-0.8444882677165354
11
4.6535433070866139
21
-0.8444881889763779
0
LINE
8
BLACK
6
CONTINUOUS
10
4.6535433070866139
20
-0.8444881889763779
11
4.6489579133858268
21
-0.8438845275590551
0
LINE
8
BLACK
6
CONTINUOUS
10
4.6489579133858268
20
-0.8438845275590551
11
4.6446850393700787
21
-0.8421146456692913
0
LINE
8
BLACK
6
CONTINUOUS
10
4.6446850393700787
20
-0.8421146456692913
11
4.6410158267716533
21
-0.8392991338582677
0
LINE
8
BLACK
6
CONTINUOUS
10
4.6410158267716533
20
-0.8392991338582677
11
4.6382003149606295
21
-0.8356299212598425
0
LINE
8
BLACK
6
CONTINUOUS
10
4.6382003149606295
20
-0.8356299212598425
11
4.6364304330708661
21
-0.8313570472440944
0
LINE
8
BLACK
6
CONTINUOUS
10
4.6364304330708661
20
-0.8313570472440944
11
4.6358267716535435
21
-0.8267716535433071
0
LINE
8
BLACK
6
CONTINUOUS
10
4.6358267716535435
20
-0.8267716535433071
11
4.6358267716535435
21
-0.7893700787401574
0
LINE
8
BLACK
6
CONTINUOUS
10
4.6358267716535435
20
-0.7893700787401574
11
4.3325912204724411
21
-0.7893700787401574
0
LINE
8
BLACK
6
CONTINUOUS
10
4.3325912204724411
20
-0.7893700787401574
11
4.3319205905511806
21
-0.8047298031496063
0
LINE
8
BLACK
6
CONTINUOUS
10
4.3319205905511806
20
-0.8047298031496063
11
4.3296566535433074
21
-0.8219261023622048
0
LINE
8
BLACK
6
CONTINUOUS
10
4.3296566535433074
20
-0.8219261023622048
11
4.3259025590551179
21
-0.83885968503937
0
LINE
8
BLACK
6
CONTINUOUS
10
4.3259025590551179
20
-0.83885968503937
11
4.3206869291338581
21
-0.8554016535433071
0
LINE
8
BLACK
6
CONTINUOUS
10
4.3206869291338581
20
-0.8554016535433071
11
4.3140493700787399
21
-0.871426062992126
0
LINE
8
BLACK
6
CONTINUOUS
10
4.3140493700787399
20
-0.871426062992126
11
4.3060404724409445
21
-0.8868110236220472
0
LINE
8
BLACK
6
CONTINUOUS
10
4.3060404724409445
20
-0.8868110236220472
11
4.2967211811023622
21
-0.9014394094488188
0
LINE
8
BLACK
6
CONTINUOUS
10
4.2967211811023622
20
-0.9014394094488188
11
4.286162362204724
21
-0.9151998818897638
0
LINE
8
BLACK
6
CONTINUOUS
10
4.286162362204724
20
-0.9151998818897638
11
4.2744444488188975
21
-0.9279877559055117
0
LINE
8
BLACK
6
CONTINUOUS
10
4.2744444488188975
20
-0.9279877559055117
11
4.2616565748031494
21
-0.9397056692913386
0
LINE
8
BLACK
6
CONTINUOUS
10
4.2616565748031494
20
-0.9397056692913386
11
4.2478961023622048
21
-0.9502644881889764
0
LINE
8
BLACK
6
CONTINUOUS
10
4.2478961023622048
20
-0.9502644881889764
11
4.2332677165354333
21
-0.959583779527559
0
LINE
8
BLACK
6
CONTINUOUS
10
4.2332677165354333
20
-0.959583779527559
11
4.2178827559055119
21
-0.9675926771653544
0
LINE
8
BLACK
6
CONTINUOUS
10
4.2178827559055119
20
-0.9675926771653544
11
4.2018583464566932
21
-0.9742302362204724
0
LINE
8
BLACK
6
CONTINUOUS
10
4.2018583464566932
20
-0.9742302362204724
11
4.1853163779527556
21
-0.9794458661417322
0
LINE
8
BLACK
6
CONTINUOUS
10
4.1853163779527556
20
-0.9794458661417322
11
4.1683827952755905
21
-0.9831999606299212
0
LINE
8
BLACK
6
CONTINUOUS
10
4.1683827952755905
20
-0.9831999606299212
11
4.1511864960629916
21
-0.9854638976377953
0
LINE
8
BLACK
6
CONTINUOUS
10
4.1511864960629916
20
-0.9854638976377953
11
4.1338582677165352
21
-0.9862204724409449
0
LINE
8
BLACK
6
CONTINUOUS
10
4.1338582677165352
20
-0.9862204724409449
11
4.1165300393700788
21
-0.9854638976377953
0
LINE
8
BLACK
6
CONTINUOUS
10
4.1165300393700788
20
-0.9854638976377953
11
4.0993337401574799
21
-0.9831999606299212
0
LINE
8
BLACK
6
CONTINUOUS
10
4.0993337401574799
20
-0.9831999606299212
11
4.0824001574803148
21
-0.9794458661417322
0
LINE
8
BLACK
6
CONTINUOUS
10
4.0824001574803148
20
-0.9794458661417322
11
4.0658581889763781
21
-0.9742302362204724
0
LINE
8
BLACK
6
CONTINUOUS
10
4.0658581889763781
20
-0.9742302362204724
11
4.0498337795275585
21
-0.9675926771653544
0
LINE
8
BLACK
6
CONTINUOUS
10
4.0498337795275585
20
-0.9675926771653544
11
4.034448818897638
21
-0.959583779527559
0
LINE
8
BLACK
6
CONTINUOUS
10
4.034448818897638
20
-0.959583779527559
11
4.0198204330708665
21
-0.9502644881889764
0
LINE
8
BLACK
6
CONTINUOUS
10
4.0198204330708665
20
-0.9502644881889764
11
4.006059960629921
21
-0.9397056692913386
0
LINE
8
BLACK
6
CONTINUOUS
10
4.006059960629921
20
-0.9397056692913386
11
3.9932720866141733
21
-0.9279877559055117
0
LINE
8
BLACK
6
CONTINUOUS
10
3.9932720866141733
20
-0.9279877559055117
11
3.9815541732283464
21
-0.9151998818897638
0
LINE
8
BLACK
6
CONTINUOUS
10
3.9815541732283464
20
-0.9151998818897638
11
3.9709953543307086
21
-0.9014394094488188
0
LINE
8
BLACK
6
CONTINUOUS
10
3.9709953543307086
20
-0.9014394094488188
11
3.9616760629921259
21
-0.8868110236220472
0
LINE
8
BLACK
6
CONTINUOUS
10
3.9616760629921259
20
-0.8868110236220472
11
3.9536671653543305
21
-0.871426062992126
0
LINE
8
BLACK
6
CONTINUOUS
10
3.9536671653543305
20
-0.871426062992126
11
3.9470296062992123
21
-0.8554016535433071
0
LINE
8
BLACK
6
CONTINUOUS
10
3.9470296062992123
20
-0.8554016535433071
11
3.9418139763779525
21
-0.83885968503937
0
LINE
8
BLACK
6
CONTINUOUS
10
3.9418139763779525
20
-0.83885968503937
11
3.9380598818897639
21
-0.8219261023622048
0
LINE
8
BLACK
6
CONTINUOUS
10
3.9380598818897639
20
-0.8219261023622048
11
3.9357959448818898
21
-0.8047298031496063
0
LINE
8
BLACK
6
CONTINUOUS
10
3.9357959448818898
20
-0.8047298031496063
11
3.9351253149606298
21
-0.7893700787401574
0
LINE
8
BLACK
6
CONTINUOUS
10
3.9351253149606298
20
-0.7893700787401574
11
3.6318897637795273
21
-0.7893700787401574
0
LINE
8
BLACK
6
CONTINUOUS
10
3.6318897637795273
20
-0.7893700787401574
11
3.6318897637795273
21
-0.8267716535433071
0
LINE
8
BLACK
6
CONTINUOUS
10
3.6318897637795273
20
-0.8267716535433071
11
3.631286062992126
21
-0.8313570472440944
0
LINE
8
BLACK
6
CONTINUOUS
10
3.631286062992126
20
-0.8313570472440944
11
3.6295161811023622
21
-0.8356299212598425
0
LINE
8
BLACK
6
CONTINUOUS
10
3.6295161811023622
20
-0.8356299212598425
11
3.6267007086614171
21
-0.8392991338582677
0
LINE
8
BLACK
6
CONTINUOUS
10
3.6267007086614171
20
-0.8392991338582677
11
3.6230314960629921
21
-0.8421146062992125
0
LINE
8
BLACK
6
CONTINUOUS
10
3.6230314960629921
20
-0.8421146062992125
11
3.6187586220472441
21
-0.8438844881889763
0
LINE
8
BLACK
6
CONTINUOUS
10
3.6187586220472441
20
-0.8438844881889763
11
3.6141732283464565
21
-0.8444881889763779
0
LINE
8
BLACK
6
CONTINUOUS
10
3.6141732283464565
20
-0.8444881889763779
11
3.4724409448818898
21
-0.8444881889763779
0
LINE
8
BLACK
6
CONTINUOUS
10
3.4724409448818898
20
-0.8444881889763779
11
3.4678555511811022
21
-0.8438844881889763
0
LINE
8
BLACK
6
CONTINUOUS
10
3.4678555511811022
20
-0.8438844881889763
11
3.4635826771653542
21
-0.8421146062992125
0
LINE
8
BLACK
6
CONTINUOUS
10
3.4635826771653542
20
-0.8421146062992125
11
3.4599134645669292
21
-0.8392991338582677
0
LINE
8
BLACK
6
CONTINUOUS
10
3.4599134645669292
20
-0.8392991338582677
11
3.4570979921259841
21
-0.8356299212598425
0
LINE
8
BLACK
6
CONTINUOUS
10
3.4570979921259841
20
-0.8356299212598425
11
3.4553281102362203
21
-0.8313570472440944
0
LINE
8
BLACK
6
CONTINUOUS
10
3.4553281102362203
20
-0.8313570472440944
11
3.454724409448819
21
-0.8267716535433071
0
LINE
8
BLACK
6
CONTINUOUS
10
3.454724409448819
20
-0.8267716535433071
11
3.454724409448819
21
-0.7893700787401574
0
LINE
8
BLACK
6
CONTINUOUS
10
3.454724409448819
20
-0.7893700787401574
11
0.905511811023622
21
-0.7893700787401574
0
CIRCLE
8
BLACK
10
6.6141732283464565
20
-4.7834645669291334
40
0.0531496062992126
0
CIRCLE
8
BLACK
10
4.9212598425196852
20
-0.9645669291338582
40
0.0236220472440945
0
CIRCLE
8
BLACK
10
4.7244094488188972
20
-1.1614173228346456
40
0.0236220472440945
0
CIRCLE
8
BLACK
10
4.5275590551181102
20
-0.9645669291338582
40
0.0236220472440945
0
LINE
8
BLACK
6
CONTINUOUS
10
4.9448818897637796
20
-1.1811023622047243
11
4.9448818897637796
21
-1.1417322834645669
0
ARC
8
BLACK
10
4.9212598425196852
20
-1.1417322834645669
40
0.0236220472440945
50
0.00000000
51
180.00000000
0
LINE
8
BLACK
6
CONTINUOUS
10
4.8976377952755907
20
-1.1417322834645669
11
4.8976377952755907
21
-1.1811023622047243
0
ARC
8
BLACK
10
4.9212598425196852
20
-1.1811023622047243
40
0.0236220472440945
50
180.00000000
51
360.00000000
0
LINE
8
BLACK
6
CONTINUOUS
10
4.8464566929133861
20
-1.1811023622047243
11
4.8464566929133861
21
-1.1417322834645669
0
ARC
8
BLACK
10
4.8228346456692917
20
-1.1417322834645669
40
0.0236220472440945
50
0.00000000
51
180.00000000
0
LINE
8
BLACK
6
CONTINUOUS
10
4.7992125984251963
20
-1.1417322834645669
11
4.7992125984251963
21
-1.1811023622047243
0
ARC
8
BLACK
10
4.8228346456692917
20
-1.1811023622047243
40
0.0236220472440945
50
180.00000000
51
360.00000000
0
LINE
8
BLACK
6
CONTINUOUS
10
4.7440944881889759
20
-0.9409448818897638
11
4.7047244094488185
21
-0.9409448818897638
0
ARC
8
BLACK
10
4.7047244094488185
20
-0.9645669291338582
40
0.0236220472440945
50
90.00000000
51
270.00000000
0
LINE
8
BLACK
6
CONTINUOUS
10
4.7047244094488185
20
-0.9881889763779528
11
4.7440944881889759
21
-0.9881889763779528
0
ARC
8
BLACK
10
4.7440944881889759
20
-0.9645669291338582
40
0.0236220472440945
50
270.00000000
51
450.00000000
0
LINE
8
BLACK
6
CONTINUOUS
10
4.5039370078740157
20
-1.1417322834645669
11
4.5039370078740157
21
-1.1811023622047243
0
ARC
8
BLACK
10
4.5275590551181102
20
-1.1811023622047243
40
0.0236220472440945
50
-180.00000000
51
0.00000000
0
LINE
8
BLACK
6
CONTINUOUS
10
4.5511811023622046
20
-1.1811023622047243
11
4.5511811023622046
21
-1.1417322834645669
0
ARC
8
BLACK
10
4.5275590551181102
20
-1.1417322834645669
40
0.0236220472440945
50
0.00000000
51
180.00000000
0
LINE
8
BLACK
6
CONTINUOUS
10
4.6023622047244093
20
-1.1417322834645669
11
4.6023622047244093
21
-1.1811023622047243
0
ARC
8
BLACK
10
4.6259842519685037
20
-1.1811023622047243
40
0.0236220472440945
50
-180.00000000
51
0.00000000
0
LINE
8
BLACK
6
CONTINUOUS
10
4.6496062992125982
20
-1.1811023622047243
11
4.6496062992125982
21
-1.1417322834645669
0
ARC
8
BLACK
10
4.6259842519685037
20
-1.1417322834645669
40
0.0236220472440945
50
0.00000000
51
180.00000000
0
CIRCLE
8
BLACK
10
1.1043307086614174
20
-1.9685039370078741
40
0.0275590551181102
0
CIRCLE
8
BLACK
10
1.1043307086614174
20
-1.3295275590551181
40
0.0275590551181102
0
CIRCLE
8
BLACK
10
0.8543307086614172
20
-1.9685039370078741
40
0.0275590551181102
0
CIRCLE
8
BLACK
10
0.8543307086614172
20
-1.3295275590551181
40
0.0275590551181102
0
CIRCLE
8
BLACK
10
1.3543307086614174
20
-1.9685039370078741
40
0.0275590551181102
0
CIRCLE
8
BLACK
10
1.3543307086614174
20
-1.3295275590551181
40
0.0275590551181102
0
CIRCLE
8
BLACK
10
1.1043307086614174
20
-4.377952755905512
40
0.0275590551181102
0
CIRCLE
8
BLACK
10
1.1043307086614174
20
-3.7389763779527558
40
0.0275590551181102
0
CIRCLE
8
BLACK
10
0.8543307086614172
20
-4.377952755905512
40
0.0275590551181102
0
CIRCLE
8
BLACK
10
0.8543307086614172
20
-3.7389763779527558
40
0.0275590551181102
0
CIRCLE
8
BLACK
10
1.3543307086614174
20
-4.377952755905512
40
0.0275590551181102
0
CIRCLE
8
BLACK
10
1.3543307086614174
20
-3.7389763779527558
40
0.0275590551181102
0
LINE
8
BLACK
6
CONTINUOUS
10
7.0014645669291333
20
-1.1609685039370079
11
6.8991023622047241
21
-1.1609685039370079
0
ARC
8
BLACK
10
6.8991023622047241
20
-1.1964015748031496
40
0.0354330708661417
50
90.00000000
51
270.00000000
0
LINE
8
BLACK
6
CONTINUOUS
10
6.8991023622047241
20
-1.2318346456692912
11
7.0014645669291333
21
-1.2318346456692912
0
ARC
8
BLACK
10
7.0014645669291333
20
-1.1964015748031496
40
0.0354330708661417
50
270.00000000
51
450.00000000
0
LINE
8
BLACK
6
CONTINUOUS
10
6.9935905511811018
20
-0.9326220472440945
11
6.9069763779527555
21
-0.9326220472440945
0
ARC
8
BLACK
10
6.9069763779527555
20
-0.9680551181102361
40
0.0354330708661417
50
90.00000000
51
270.00000000
0
LINE
8
BLACK
6
CONTINUOUS
10
6.9069763779527555
20
-1.003488188976378
11
6.9935905511811018
21
-1.003488188976378
0
ARC
8
BLACK
10
6.9935905511811018
20
-0.9680551181102361
40
0.0354330708661417
50
270.00000000
51
450.00000000
0
LINE
8
BLACK
6
CONTINUOUS
10
6.7258740157480315
20
-1.034984251968504
11
6.7258740157480315
21
-1.1215984251968503
0
ARC
8
BLACK
10
6.7613070866141731
20
-1.1215984251968503
40
0.0354330708661417
50
180.00000000
51
360.00000000
0
LINE
8
BLACK
6
CONTINUOUS
10
6.7967401574803148
20
-1.1215984251968503
11
6.7967401574803148
21
-1.034984251968504
0
ARC
8
BLACK
10
6.7613070866141731
20
-1.034984251968504
40
0.0354330708661417
50
360.00000000
51
540.00000000
0
CIRCLE
8
BLACK
10
6.914850393700787
20
-1.1101811023622048
40
0.0255905511811024
0
CIRCLE
8
BLACK
10
6.914850393700787
20
-0.9133307086614173
40
0.0255905511811024
0
CIRCLE
8
BLACK
10
1.1043307086614174
20
-3.5826771653543306
40
0.0275590551181102
0
CIRCLE
8
BLACK
10
1.1043307086614174
20
-2.9437007874015748
40
0.0275590551181102
0
CIRCLE
8
BLACK
10
0.8543307086614172
20
-3.5826771653543306
40
0.0275590551181102
0
CIRCLE
8
BLACK
10
0.8543307086614172
20
-2.9437007874015748
40
0.0275590551181102
0
CIRCLE
8
BLACK
10
1.3543307086614174
20
-3.5826771653543306
40
0.0275590551181102
0
CIRCLE
8
BLACK
10
1.3543307086614174
20
-2.9437007874015748
40
0.0275590551181102
0
CIRCLE
8
BLACK
10
7.1633858267716537
20
-3.7399606299212595
40
0.0275590551181102
0
CIRCLE
8
BLACK
10
7.1633858267716537
20
-4.3789370078740157
40
0.0275590551181102
0
CIRCLE
8
BLACK
10
7.4133858267716537
20
-3.7399606299212595
40
0.0275590551181102
0
CIRCLE
8
BLACK
10
7.4133858267716537
20
-4.3789370078740157
40
0.0275590551181102
0
CIRCLE
8
BLACK
10
6.9133858267716537
20
-3.7399606299212595
40
0.0275590551181102
0
CIRCLE
8
BLACK
10
6.9133858267716537
20
-4.3789370078740157
40
0.0275590551181102
0
CIRCLE
8
BLACK
10
5.0911417322834644
20
-1.75
40
0.0196850393700787
0
CIRCLE
8
BLACK
10
5.1911417322834641
20
-1.75
40
0.0196850393700787
0
CIRCLE
8
BLACK
10
5.2911417322834646
20
-1.75
40
0.0196850393700787
0
CIRCLE
8
BLACK
10
4.6842519685039372
20
-4.7842519685039369
40
0.0531496062992126
0
CIRCLE
8
BLACK
10
3.1535433070866139
20
-0.8297244094488189
40
0.0098425196850394
0
CIRCLE
8
BLACK
10
3.1535433070866139
20
-0.8690944881889764
40
0.0098425196850394
0
CIRCLE
8
BLACK
10
3.1535433070866139
20
-0.9084645669291338
40
0.0098425196850394
0
CIRCLE
8
BLACK
10
3.1535433070866139
20
-0.9478346456692913
40
0.0098425196850394
0
CIRCLE
8
BLACK
10
3.1535433070866139
20
-0.9872047244094488
40
0.0098425196850394
0
CIRCLE
8
BLACK
10
3.1535433070866139
20
-1.0265748031496063
40
0.0098425196850394
0
CIRCLE
8
BLACK
10
3.1535433070866139
20
-1.1840551181102361
40
0.0098425196850394
0
CIRCLE
8
BLACK
10
3.1535433070866139
20
-1.2234251968503937
40
0.0098425196850394
0
CIRCLE
8
BLACK
10
3.1535433070866139
20
-1.2627952755905512
40
0.0098425196850394
0
CIRCLE
8
BLACK
10
3.1535433070866139
20
-1.3021653543307086
40
0.0098425196850394
0
CIRCLE
8
BLACK
10
3.1535433070866139
20
-1.3415354330708662
40
0.0098425196850394
0
CIRCLE
8
BLACK
10
3.1535433070866139
20
-1.3809055118110236
40
0.0098425196850394
0
CIRCLE
8
BLACK
10
3.1535433070866139
20
-1.420275590551181
40
0.0098425196850394
0
CIRCLE
8
BLACK
10
3.1929133858267718
20
-1.420275590551181
40
0.0098425196850394
0
CIRCLE
8
BLACK
10
3.2322834645669292
20
-1.420275590551181
40
0.0098425196850394
0
CIRCLE
8
BLACK
10
3.2716535433070866
20
-1.420275590551181
40
0.0098425196850394
0
CIRCLE
8
BLACK
10
3.311023622047244
20
-1.420275590551181
40
0.0098425196850394
0
CIRCLE
8
BLACK
10
3.3503937007874014
20
-1.420275590551181
40
0.0098425196850394
0
CIRCLE
8
BLACK
10
3.3897637795275588
20
-1.420275590551181
40
0.0098425196850394
0
CIRCLE
8
BLACK
10
3.4291338582677167
20
-1.420275590551181
40
0.0098425196850394
0
CIRCLE
8
BLACK
10
3.4685039370078741
20
-1.420275590551181
40
0.0098425196850394
0
CIRCLE
8
BLACK
10
3.5078740157480315
20
-1.420275590551181
40
0.0098425196850394
0
CIRCLE
8
BLACK
10
3.5472440944881889
20
-1.420275590551181
40
0.0098425196850394
0
CIRCLE
8
BLACK
10
3.5866141732283463
20
-1.420275590551181
40
0.0098425196850394
0
CIRCLE
8
BLACK
10
3.6259842519685037
20
-1.420275590551181
40
0.0098425196850394
0
CIRCLE
8
BLACK
10
3.6653543307086611
20
-1.420275590551181
40
0.0098425196850394
0
CIRCLE
8
BLACK
10
3.704724409448819
20
-1.420275590551181
40
0.0098425196850394
0
CIRCLE
8
BLACK
10
3.7440944881889764
20
-1.420275590551181
40
0.0098425196850394
0
CIRCLE
8
BLACK
10
3.7834645669291338
20
-1.420275590551181
40
0.0098425196850394
0
CIRCLE
8
BLACK
10
3.8228346456692912
20
-1.420275590551181
40
0.0098425196850394
0
CIRCLE
8
BLACK
10
3.8622047244094486
20
-1.420275590551181
40
0.0098425196850394
0
CIRCLE
8
BLACK
10
3.901574803149606
20
-1.420275590551181
40
0.0098425196850394
0
CIRCLE
8
BLACK
10
3.9409448818897639
20
-1.420275590551181
40
0.0098425196850394
0
CIRCLE
8
BLACK
10
3.9803149606299213
20
-1.420275590551181
40
0.0098425196850394
0
CIRCLE
8
BLACK
10
4.0196850393700787
20
-1.420275590551181
40
0.0098425196850394
0
CIRCLE
8
BLACK
10
4.0590551181102361
20
-1.420275590551181
40
0.0098425196850394
0
CIRCLE
8
BLACK
10
4.0984251968503935
20
-1.420275590551181
40
0.0098425196850394
0
CIRCLE
8
BLACK
10
4.1377952755905509
20
-1.420275590551181
40
0.0098425196850394
0
CIRCLE
8
BLACK
10
4.1771653543307083
20
-1.420275590551181
40
0.0098425196850394
0
CIRCLE
8
BLACK
10
4.2165354330708658
20
-1.420275590551181
40
0.0098425196850394
0
CIRCLE
8
BLACK
10
4.2559055118110232
20
-1.420275590551181
40
0.0098425196850394
0
CIRCLE
8
BLACK
10
4.2952755905511806
20
-1.420275590551181
40
0.0098425196850394
0
CIRCLE
8
BLACK
10
4.3346456692913389
20
-1.420275590551181
40
0.0098425196850394
0
CIRCLE
8
BLACK
10
4.3740157480314963
20
-1.420275590551181
40
0.0098425196850394
0
CIRCLE
8
BLACK
10
4.4133858267716537
20
-1.420275590551181
40
0.0098425196850394
0
CIRCLE
8
BLACK
10
4.4527559055118111
20
-1.420275590551181
40
0.0098425196850394
0
CIRCLE
8
BLACK
10
4.4921259842519685
20
-1.420275590551181
40
0.0098425196850394
0
CIRCLE
8
BLACK
10
4.5314960629921259
20
-1.420275590551181
40
0.0098425196850394
0
CIRCLE
8
BLACK
10
4.5708661417322833
20
-1.420275590551181
40
0.0098425196850394
0
CIRCLE
8
BLACK
10
4.6102362204724407
20
-1.420275590551181
40
0.0098425196850394
0
CIRCLE
8
BLACK
10
4.6496062992125982
20
-1.420275590551181
40
0.0098425196850394
0
CIRCLE
8
BLACK
10
4.6889763779527556
20
-1.420275590551181
40
0.0098425196850394
0
CIRCLE
8
BLACK
10
4.728346456692913
20
-1.420275590551181
40
0.0098425196850394
0
CIRCLE
8
BLACK
10
4.7677165354330704
20
-1.420275590551181
40
0.0098425196850394
0
CIRCLE
8
BLACK
10
4.8070866141732278
20
-1.420275590551181
40
0.0098425196850394
0
CIRCLE
8
BLACK
10
4.8464566929133861
20
-1.420275590551181
40
0.0098425196850394
0
CIRCLE
8
BLACK
10
4.8858267716535435
20
-1.420275590551181
40
0.0098425196850394
0
CIRCLE
8
BLACK
10
4.9251968503937009
20
-1.420275590551181
40
0.0098425196850394
0
CIRCLE
8
BLACK
10
4.9645669291338583
20
-1.420275590551181
40
0.0098425196850394
0
CIRCLE
8
BLACK
10
5.0039370078740157
20
-1.420275590551181
40
0.0098425196850394
0
CIRCLE
8
BLACK
10
5.0433070866141732
20
-1.420275590551181
40
0.0098425196850394
0
CIRCLE
8
BLACK
10
5.0826771653543306
20
-1.420275590551181
40
0.0098425196850394
0
CIRCLE
8
BLACK
10
5.122047244094488
20
-0.8297244094488189
40
0.0098425196850394
0
CIRCLE
8
BLACK
10
5.122047244094488
20
-0.8690944881889764
40
0.0098425196850394
0
CIRCLE
8
BLACK
10
5.122047244094488
20
-0.9084645669291338
40
0.0098425196850394
0
CIRCLE
8
BLACK
10
5.122047244094488
20
-0.9478346456692913
40
0.0098425196850394
0
CIRCLE
8
BLACK
10
5.122047244094488
20
-0.9872047244094488
40
0.0098425196850394
0
CIRCLE
8
BLACK
10
5.122047244094488
20
-1.0265748031496063
40
0.0098425196850394
0
CIRCLE
8
BLACK
10
5.122047244094488
20
-1.0659448818897637
40
0.0098425196850394
0
CIRCLE
8
BLACK
10
5.122047244094488
20
-1.1053149606299213
40
0.0098425196850394
0
CIRCLE
8
BLACK
10
5.122047244094488
20
-1.1446850393700787
40
0.0098425196850394
0
CIRCLE
8
BLACK
10
5.122047244094488
20
-1.1840551181102361
40
0.0098425196850394
0
CIRCLE
8
BLACK
10
5.122047244094488
20
-1.2234251968503937
40
0.0098425196850394
0
CIRCLE
8
BLACK
10
5.122047244094488
20
-1.2627952755905512
40
0.0098425196850394
0
CIRCLE
8
BLACK
10
5.122047244094488
20
-1.3021653543307086
40
0.0098425196850394
0
CIRCLE
8
BLACK
10
5.122047244094488
20
-1.3415354330708662
40
0.0098425196850394
0
CIRCLE
8
BLACK
10
5.122047244094488
20
-1.3809055118110236
40
0.0098425196850394
0
CIRCLE
8
BLACK
10
5.122047244094488
20
-1.420275590551181
40
0.0098425196850394
0
CIRCLE
8
BLACK
10
0.984251968503937
20
-0.905511811023622
40
0.0531496062992126
0
CIRCLE
8
BLACK
10
7.1639763779527561
20
-1.3307086614173229
40
0.0275590551181102
0
CIRCLE
8
BLACK
10
7.1639763779527561
20
-1.9696850393700787
40
0.0275590551181102
0
CIRCLE
8
BLACK
10
7.4139763779527561
20
-1.3307086614173229
40
0.0275590551181102
0
CIRCLE
8
BLACK
10
7.4139763779527561
20
-1.9696850393700787
40
0.0275590551181102
0
CIRCLE
8
BLACK
10
6.9139763779527561
20
-1.3307086614173229
40
0.0275590551181102
0
CIRCLE
8
BLACK
10
6.9139763779527561
20
-1.9696850393700787
40
0.0275590551181102
0
CIRCLE
8
BLACK
10
6.6141732283464565
20
-2.5
40
0.0531496062992126
0
CIRCLE
8
BLACK
10
4.4291338582677167
20
-1.2598425196850394
40
0.026
0
CIRCLE
8
BLACK
10
4.7244094488188972
20
-1.2598425196850394
40
0.026
0
CIRCLE
8
BLACK
10
5.0196850393700787
20
-1.2598425196850394
40
0.026
0
CIRCLE
8
BLACK
10
4.5275590551181102
20
-1.3582677165354331
40
0.026
0
CIRCLE
8
BLACK
10
4.9212598425196852
20
-1.3582677165354331
40
0.026
0
CIRCLE
8
BLACK
10
4.8228346456692917
20
-0.8661417322834646
40
0.026
0
CIRCLE
8
BLACK
10
4.9212598425196852
20
-0.8661417322834646
40
0.026
0
CIRCLE
8
BLACK
10
4.5275590551181102
20
-0.8661417322834646
40
0.026
0
CIRCLE
8
BLACK
10
4.6259842519685037
20
-0.8661417322834646
40
0.026
0
CIRCLE
8
BLACK
10
4.6850393700787398
20
-2.5
40
0.0531496062992126
0
CIRCLE
8
BLACK
10
2.372047244094488
20
-1.2401574803149606
40
0.0196850393700787
0
CIRCLE
8
BLACK
10
2.372047244094488
20
-1.4370078740157479
40
0.0196850393700787
0
CIRCLE
8
BLACK
10
2.372047244094488
20
-1.3385826771653544
40
0.0196850393700787
0
CIRCLE
8
BLACK
10
2.6673228346456694
20
-1.1181102362204725
40
0.0511811023622047
0
CIRCLE
8
BLACK
10
2.6673228346456694
20
-1.5590551181102361
40
0.0511811023622047
0
CIRCLE
8
BLACK
10
2.9429133858267718
20
-1.4370078740157479
40
0.0196850393700787
0
CIRCLE
8
BLACK
10
2.9429133858267718
20
-1.2401574803149606
40
0.0196850393700787
0
CIRCLE
8
BLACK
10
6.3570866141732285
20
-1.6437007874015748
40
0.0059055118110236
0
CIRCLE
8
BLACK
10
6.3059055118110239
20
-1.6437007874015748
40
0.0059055118110236
0
CIRCLE
8
BLACK
10
6.2547244094488184
20
-1.6437007874015748
40
0.0059055118110236
0
CIRCLE
8
BLACK
10
6.2035433070866137
20
-1.6437007874015748
40
0.0059055118110236
0
CIRCLE
8
BLACK
10
6.3570866141732285
20
-1.6948818897637794
40
0.0059055118110236
0
CIRCLE
8
BLACK
10
6.3059055118110239
20
-1.6948818897637794
40
0.0059055118110236
0
CIRCLE
8
BLACK
10
6.2547244094488184
20
-1.6948818897637794
40
0.0059055118110236
0
CIRCLE
8
BLACK
10
6.2035433070866137
20
-1.6948818897637794
40
0.0059055118110236
0
CIRCLE
8
BLACK
10
6.6141732283464565
20
-5.0393700787401574
40
0.0531496062992126
0
CIRCLE
8
BLACK
10
4.2214566929133861
20
-3.2007874015748032
40
0.0196850393700787
0
CIRCLE
8
BLACK
10
4.1214566929133856
20
-3.2007874015748032
40
0.0196850393700787
0
CIRCLE
8
BLACK
10
4.0214566929133859
20
-3.2007874015748032
40
0.0196850393700787
0
CIRCLE
8
BLACK
10
7.1633858267716537
20
-2.9440944881889761
40
0.0275590551181102
0
CIRCLE
8
BLACK
10
7.1633858267716537
20
-3.5830708661417323
40
0.0275590551181102
0
CIRCLE
8
BLACK
10
7.4133858267716537
20
-2.9440944881889761
40
0.0275590551181102
0
CIRCLE
8
BLACK
10
7.4133858267716537
20
-3.5830708661417323
40
0.0275590551181102
0
CIRCLE
8
BLACK
10
6.9133858267716537
20
-2.9440944881889761
40
0.0275590551181102
0
CIRCLE
8
BLACK
10
6.9133858267716537
20
-3.5830708661417323
40
0.0275590551181102
0
LINE
8
BLACK
6
CONTINUOUS
10
0.7629921259842519
20
-2.1425196850393702
11
0.776771653543307
21
-2.1425196850393702
0
ARC
8
BLACK
10
0.776771653543307
20
-2.1159448818897637
40
0.0265748031496063
50
-90.00000000
51
90.00000000
0
LINE
8
BLACK
6
CONTINUOUS
10
0.776771653543307
20
-2.0893700787401572
11
0.7629921259842519
21
-2.0893700787401572
0
ARC
8
BLACK
10
0.7629921259842519
20
-2.1159448818897637
40
0.0265748031496063
50
90.00000000
51
270.00000000
0
LINE
8
BLACK
6
CONTINUOUS
10
0.8801181102362204
20
-2.1498031496062993
11
0.8958661417322834
21
-2.1498031496062993
0
ARC
8
BLACK
10
0.8958661417322834
20
-2.1281496062992127
40
0.0216535433070866
50
-90.00000000
51
90.00000000
0
LINE
8
BLACK
6
CONTINUOUS
10
0.8958661417322834
20
-2.1064960629921261
11
0.8801181102362204
21
-2.1064960629921261
0
ARC
8
BLACK
10
0.8801181102362204
20
-2.1281496062992127
40
0.0216535433070866
50
90.00000000
51
270.00000000
0
LINE
8
BLACK
6
CONTINUOUS
10
0.8801181102362204
20
-2.3403543307086614
11
0.8958661417322834
21
-2.3403543307086614
0
ARC
8
BLACK
10
0.8958661417322834
20
-2.3187007874015748
40
0.0216535433070866
50
-90.00000000
51
90.00000000
0
LINE
8
BLACK
6
CONTINUOUS
10
0.8958661417322834
20
-2.2970472440944882
11
0.8801181102362204
21
-2.2970472440944882
0
ARC
8
BLACK
10
0.8801181102362204
20
-2.3187007874015748
40
0.0216535433070866
50
90.00000000
51
270.00000000
0
LINE
8
BLACK
6
CONTINUOUS
10
0.7629921259842519
20
-2.3574803149606298
11
0.776771653543307
21
-2.3574803149606298
0
ARC
8
BLACK
10
0.776771653543307
20
-2.3309055118110238
40
0.0265748031496063
50
-90.00000000
51
90.00000000
0
LINE
8
BLACK
6
CONTINUOUS
10
0.776771653543307
20
-2.3043307086614173
11
0.7629921259842519
21
-2.3043307086614173
0
ARC
8
BLACK
10
0.7629921259842519
20
-2.3309055118110238
40
0.0265748031496063
50
90.00000000
51
270.00000000
0
CIRCLE
8
BLACK
10
4.1781496062992121
20
-1.8454724409448819
40
0.0068897637795276
0
CIRCLE
8
BLACK
10
4.228346456692913
20
-1.8454724409448819
40
0.0068897637795276
0
CIRCLE
8
BLACK
10
4.2785433070866139
20
-1.8454724409448819
40
0.0068897637795276
0
CIRCLE
8
BLACK
10
4.1781496062992121
20
-1.795275590551181
40
0.0068897637795276
0
CIRCLE
8
BLACK
10
4.228346456692913
20
-1.795275590551181
40
0.0068897637795276
0
CIRCLE
8
BLACK
10
4.2785433070866139
20
-1.795275590551181
40
0.0068897637795276
0
CIRCLE
8
BLACK
10
4.1781496062992121
20
-1.7450787401574803
40
0.0068897637795276
0
CIRCLE
8
BLACK
10
4.228346456692913
20
-1.7450787401574803
40
0.0068897637795276
0
CIRCLE
8
BLACK
10
4.2785433070866139
20
-1.7450787401574803
40
0.0068897637795276
0
CIRCLE
8
BLACK
10
2.089763779527559
20
-1.25
40
0.0187007874015748
0
CIRCLE
8
BLACK
10
1.9913385826771652
20
-1.25
40
0.0187007874015748
0
CIRCLE
8
BLACK
10
1.9125984251968504
20
-1.25
40
0.0187007874015748
0
CIRCLE
8
BLACK
10
1.8141732283464567
20
-1.25
40
0.0187007874015748
0
CIRCLE
8
BLACK
10
2.2106299212598426
20
-1.1433070866141732
40
0.0452755905511811
0
CIRCLE
8
BLACK
10
1.6933070866141733
20
-1.1433070866141732
40
0.0452755905511811
0
CIRCLE
8
BLACK
10
3.5039370078740157
20
-4.3897637795275593
40
0.0531496062992126
0
CIRCLE
8
BLACK
10
3.5039370078740157
20
-2.5
40
0.0531496062992126
0
CIRCLE
8
BLACK
10
2.204724409448819
20
-4.3897637795275593
40
0.0531496062992126
0
CIRCLE
8
BLACK
10
2.204724409448819
20
-2.5
40
0.0531496062992126
0
CIRCLE
8
BLACK
10
1.6535433070866141
20
-5.0393700787401574
40
0.0531496062992126
0
CIRCLE
8
BLACK
10
7.2836856299212593
20
-0.905290748031496
40
0.0531496062992126
0
CIRCLE
8
BLACK
10
5.3248031496062991
20
-1.2401574803149606
40
0.0196850393700787
0
CIRCLE
8
BLACK
10
5.3248031496062991
20
-1.4370078740157479
40
0.0196850393700787
0
CIRCLE
8
BLACK
10
5.3248031496062991
20
-1.3385826771653544
40
0.0196850393700787
0
CIRCLE
8
BLACK
10
5.6200787401574805
20
-1.1181102362204725
40
0.0511811023622047
0
CIRCLE
8
BLACK
10
5.6200787401574805
20
-1.5590551181102361
40
0.0511811023622047
0
CIRCLE
8
BLACK
10
5.8956692913385824
20
-1.4370078740157479
40
0.0196850393700787
0
CIRCLE
8
BLACK
10
5.8956692913385824
20
-1.2401574803149606
40
0.0196850393700787
0
CIRCLE
8
BLACK
10
4.1338582677165352
20
-3.8582677165354329
40
0.0531496062992126
0
CIRCLE
8
BLACK
10
3.2480314960629921
20
-1.2598425196850394
40
0.026
0
CIRCLE
8
BLACK
10
3.5433070866141732
20
-1.2598425196850394
40
0.026
0
CIRCLE
8
BLACK
10
3.8385826771653542
20
-1.2598425196850394
40
0.026
0
CIRCLE
8
BLACK
10
3.3464566929133857
20
-1.3582677165354331
40
0.026
0
CIRCLE
8
BLACK
10
3.7401574803149606
20
-1.3582677165354331
40
0.026
0
CIRCLE
8
BLACK
10
3.6417322834645667
20
-0.8661417322834646
40
0.026
0
CIRCLE
8
BLACK
10
3.7401574803149606
20
-0.8661417322834646
40
0.026
0
CIRCLE
8
BLACK
10
3.3464566929133857
20
-0.8661417322834646
40
0.026
0
CIRCLE
8
BLACK
10
3.4448818897637796
20
-0.8661417322834646
40
0.026
0
CIRCLE
8
BLACK
10
3.7399409448818899
20
-0.9645669291338582
40
0.0236220472440945
0
CIRCLE
8
BLACK
10
3.5430905511811024
20
-1.1614173228346456
40
0.0236220472440945
0
CIRCLE
8
BLACK
10
3.3462401574803149
20
-0.9645669291338582
40
0.0236220472440945
0
LINE
8
BLACK
6
CONTINUOUS
10
3.7635629921259843
20
-1.1811023622047243
11
3.7635629921259843
21
-1.1417322834645669
0
ARC
8
BLACK
10
3.7399409448818899
20
-1.1417322834645669
40
0.0236220472440945
50
0.00000000
51
180.00000000
0
LINE
8
BLACK
6
CONTINUOUS
10
3.716318897637795
20
-1.1417322834645669
11
3.716318897637795
21
-1.1811023622047243
0
ARC
8
BLACK
10
3.7399409448818899
20
-1.1811023622047243
40
0.0236220472440945
50
180.00000000
51
360.00000000
0
LINE
8
BLACK
6
CONTINUOUS
10
3.6651377952755904
20
-1.1811023622047243
11
3.6651377952755904
21
-1.1417322834645669
0
ARC
8
BLACK
10
3.6415157480314959
20
-1.1417322834645669
40
0.0236220472440945
50
0.00000000
51
180.00000000
0
LINE
8
BLACK
6
CONTINUOUS
10
3.6178937007874015
20
-1.1417322834645669
11
3.6178937007874015
21
-1.1811023622047243
0
ARC
8
BLACK
10
3.6415157480314959
20
-1.1811023622047243
40
0.0236220472440945
50
180.00000000
51
360.00000000
0
LINE
8
BLACK
6
CONTINUOUS
10
3.5627755905511811
20
-0.9409448818897638
11
3.5234055118110237
21
-0.9409448818897638
0
ARC
8
BLACK
10
3.5234055118110237
20
-0.9645669291338582
40
0.0236220472440945
50
90.00000000
51
270.00000000
0
LINE
8
BLACK
6
CONTINUOUS
10
3.5234055118110237
20
-0.9881889763779528
11
3.5627755905511811
21
-0.9881889763779528
0
ARC
8
BLACK
10
3.5627755905511811
20
-0.9645669291338582
40
0.0236220472440945
50
270.00000000
51
450.00000000
0
LINE
8
BLACK
6
CONTINUOUS
10
3.3226181102362204
20
-1.1417322834645669
11
3.3226181102362204
21
-1.1811023622047243
0
ARC
8
BLACK
10
3.3462401574803149
20
-1.1811023622047243
40
0.0236220472440945
50
-180.00000000
51
0.00000000
0
LINE
8
BLACK
6
CONTINUOUS
10
3.3698622047244093
20
-1.1811023622047243
11
3.3698622047244093
21
-1.1417322834645669
0
ARC
8
BLACK
10
3.3462401574803149
20
-1.1417322834645669
40
0.0236220472440945
50
0.00000000
51
180.00000000
0
LINE
8
BLACK
6
CONTINUOUS
10
3.421043307086614
20
-1.1417322834645669
11
3.421043307086614
21
-1.1811023622047243
0
ARC
8
BLACK
10
3.4446653543307084
20
-1.1811023622047243
40
0.0236220472440945
50
-180.00000000
51
0.00000000
0
LINE
8
BLACK
6
CONTINUOUS
10
3.4682874015748029
20
-1.1811023622047243
11
3.4682874015748029
21
-1.1417322834645669
0
ARC
8
BLACK
10
3.4446653543307084
20
-1.1417322834645669
40
0.0236220472440945
50
0.00000000
51
180.00000000
0
CIRCLE
8
BLACK
10
1.1811023622047243
20
-4.6850393700787398
40
0.0728346456692913
0
CIRCLE
8
BLACK
10
4.1338582677165352
20
-2.6377952755905509
40
0.0728346456692913
0
CIRCLE
8
BLACK
10
1.1811023622047243
20
-2.6377952755905509
40
0.0728346456692913
0
CIRCLE
8
BLACK
10
7.0866141732283463
20
-2.6377952755905509
40
0.0728346456692913
0
CIRCLE
8
BLACK
10
4.1338582677165352
20
-4.6850393700787398
40
0.0728346456692913
0
CIRCLE
8
BLACK
10
2.8724409448818897
20
-0.9248031496062992
40
0.0147637795275591
0
CIRCLE
8
BLACK
10
2.9511811023622045
20
-0.9248031496062992
40
0.0147637795275591
0
CIRCLE
8
BLACK
10
3.0299212598425198
20
-0.9248031496062992
40
0.0147637795275591
0
CIRCLE
8
BLACK
10
7.0866141732283463
20
-4.6850393700787398
40
0.0728346456692913
0
CIRCLE
8
BLACK
10
4.734251968503937
20
-2.6919527559055116
40
0.0196850393700787
0
CIRCLE
8
BLACK
10
4.6342519685039365
20
-2.6919527559055116
40
0.0196850393700787
0
CIRCLE
8
BLACK
10
4.734251968503937
20
-2.7919527559055117
40
0.0196850393700787
0
CIRCLE
8
BLACK
10
4.6342519685039365
20
-2.7919527559055117
40
0.0196850393700787
0
CIRCLE
8
BLACK
10
4.734251968503937
20
-2.8919527559055118
40
0.0196850393700787
0
CIRCLE
8
BLACK
10
4.6342519685039365
20
-2.8919527559055118
40
0.0196850393700787
0
CIRCLE
8
BLACK
10
4.734251968503937
20
-2.9919527559055119
40
0.0196850393700787
0
CIRCLE
8
BLACK
10
4.6342519685039365
20
-2.9919527559055119
40
0.0196850393700787
0
CIRCLE
8
BLACK
10
4.734251968503937
20
-3.0919527559055116
40
0.0196850393700787
0
CIRCLE
8
BLACK
10
4.6342519685039365
20
-3.0919527559055116
40
0.0196850393700787
0
CIRCLE
8
BLACK
10
4.734251968503937
20
-3.1919527559055116
40
0.0196850393700787
0
CIRCLE
8
BLACK
10
4.6342519685039365
20
-3.1919527559055116
40
0.0196850393700787
0
CIRCLE
8
BLACK
10
4.734251968503937
20
-3.2919527559055117
40
0.0196850393700787
0
CIRCLE
8
BLACK
10
4.6342519685039365
20
-3.2919527559055117
40
0.0196850393700787
0
CIRCLE
8
BLACK
10
4.734251968503937
20
-3.3919527559055118
40
0.0196850393700787
0
CIRCLE
8
BLACK
10
4.6342519685039365
20
-3.3919527559055118
40
0.0196850393700787
0
CIRCLE
8
BLACK
10
4.734251968503937
20
-3.4919527559055119
40
0.0196850393700787
0
CIRCLE
8
BLACK
10
4.6342519685039365
20
-3.4919527559055119
40
0.0196850393700787
0
CIRCLE
8
BLACK
10
4.734251968503937
20
-3.5919527559055116
40
0.0196850393700787
0
CIRCLE
8
BLACK
10
4.6342519685039365
20
-3.5919527559055116
40
0.0196850393700787
0
CIRCLE
8
BLACK
10
4.734251968503937
20
-3.6919527559055116
40
0.0196850393700787
0
CIRCLE
8
BLACK
10
4.6342519685039365
20
-3.6919527559055116
40
0.0196850393700787
0
CIRCLE
8
BLACK
10
4.734251968503937
20
-3.7919527559055117
40
0.0196850393700787
0
CIRCLE
8
BLACK
10
4.6342519685039365
20
-3.7919527559055117
40
0.0196850393700787
0
CIRCLE
8
BLACK
10
4.734251968503937
20
-3.8919527559055118
40
0.0196850393700787
0
CIRCLE
8
BLACK
10
4.6342519685039365
20
-3.8919527559055118
40
0.0196850393700787
0
CIRCLE
8
BLACK
10
4.734251968503937
20
-3.9919527559055119
40
0.0196850393700787
0
CIRCLE
8
BLACK
10
4.6342519685039365
20
-3.9919527559055119
40
0.0196850393700787
0
CIRCLE
8
BLACK
10
4.734251968503937
20
-4.0919527559055116
40
0.0196850393700787
0
CIRCLE
8
BLACK
10
4.6342519685039365
20
-4.0919527559055116
40
0.0196850393700787
0
CIRCLE
8
BLACK
10
4.734251968503937
20
-4.1919527559055121
40
0.0196850393700787
0
CIRCLE
8
BLACK
10
4.6342519685039365
20
-4.1919527559055121
40
0.0196850393700787
0
CIRCLE
8
BLACK
10
4.734251968503937
20
-4.2919527559055117
40
0.0196850393700787
0
CIRCLE
8
BLACK
10
4.6342519685039365
20
-4.2919527559055117
40
0.0196850393700787
0
CIRCLE
8
BLACK
10
4.734251968503937
20
-4.3919527559055114
40
0.0196850393700787
0
CIRCLE
8
BLACK
10
4.6342519685039365
20
-4.3919527559055114
40
0.0196850393700787
0
CIRCLE
8
BLACK
10
4.734251968503937
20
-4.4919527559055119
40
0.0196850393700787
0
CIRCLE
8
BLACK
10
4.6342519685039365
20
-4.4919527559055119
40
0.0196850393700787
0
CIRCLE
8
BLACK
10
4.734251968503937
20
-4.5919527559055116
40
0.0196850393700787
0
CIRCLE
8
BLACK
10
4.6342519685039365
20
-4.5919527559055116
40
0.0196850393700787
0
CIRCLE
8
BLACK
10
6.1635826771653539
20
-2.9466771653543304
40
0.0196850393700787
0
CIRCLE
8
BLACK
10
6.0635826771653543
20
-2.9466771653543304
40
0.0196850393700787
0
CIRCLE
8
BLACK
10
6.1635826771653539
20
-3.0466771653543305
40
0.0196850393700787
0
CIRCLE
8
BLACK
10
6.0635826771653543
20
-3.0466771653543305
40
0.0196850393700787
0
CIRCLE
8
BLACK
10
6.1635826771653539
20
-3.1466771653543306
40
0.0196850393700787
0
CIRCLE
8
BLACK
10
6.0635826771653543
20
-3.1466771653543306
40
0.0196850393700787
0
CIRCLE
8
BLACK
10
5.9992125984251965
20
-4.6909685039370075
40
0.0196850393700787
0
CIRCLE
8
BLACK
10
5.9992125984251965
20
-4.790968503937008
40
0.0196850393700787
0
CIRCLE
8
BLACK
10
6.099212598425197
20
-4.6909685039370075
40
0.0196850393700787
0
CIRCLE
8
BLACK
10
6.099212598425197
20
-4.790968503937008
40
0.0196850393700787
0
CIRCLE
8
BLACK
10
6.1992125984251967
20
-4.6909685039370075
40
0.0196850393700787
0
CIRCLE
8
BLACK
10
6.1992125984251967
20
-4.790968503937008
40
0.0196850393700787
0
CIRCLE
8
BLACK
10
2.5208661417322835
20
-0.9251968503937008
40
0.0147637795275591
0
CIRCLE
8
BLACK
10
2.5996062992125983
20
-0.9251968503937008
40
0.0147637795275591
0
CIRCLE
8
BLACK
10
2.6783464566929132
20
-0.9251968503937008
40
0.0147637795275591
0
CIRCLE
8
BLACK
10
6.6141732283464565
20
-4.7834645669291334
40
0.0531495669291339
0
CIRCLE
8
BLACK
10
4.9212598425196852
20
-0.9645669291338582
40
0.0236220078740157
0
CIRCLE
8
BLACK
10
4.7244094488188972
20
-1.1614173228346456
40
0.0236220078740157
0
CIRCLE
8
BLACK
10
4.5275590551181102
20
-0.9645669291338582
40
0.0236220078740157
0
LINE
8
BLACK
6
CONTINUOUS
10
4.9301181102362204
20
-1.1801181102362204
11
4.9301181102362204
21
-1.1427165354330708
0
ARC
8
BLACK
10
4.9212598425196852
20
-1.1427165354330708
40
0.0088582677165354
50
0.00000000
51
180.00000000
0
LINE
8
BLACK
6
CONTINUOUS
10
4.9124015748031491
20
-1.1427165354330708
11
4.9124015748031491
21
-1.1801181102362204
0
ARC
8
BLACK
10
4.9212598425196852
20
-1.1801181102362204
40
0.0088582677165354
50
180.00000000
51
360.00000000
0
LINE
8
BLACK
6
CONTINUOUS
10
4.8316929133858268
20
-1.1801181102362204
11
4.8316929133858268
21
-1.1427165354330708
0
ARC
8
BLACK
10
4.8228346456692917
20
-1.1427165354330708
40
0.0088582677165354
50
0.00000000
51
180.00000000
0
LINE
8
BLACK
6
CONTINUOUS
10
4.8139763779527556
20
-1.1427165354330708
11
4.8139763779527556
21
-1.1801181102362204
0
ARC
8
BLACK
10
4.8228346456692917
20
-1.1801181102362204
40
0.0088582677165354
50
180.00000000
51
360.00000000
0
LINE
8
BLACK
6
CONTINUOUS
10
4.7431102362204722
20
-0.9557086614173228
11
4.7057086614173231
21
-0.9557086614173228
0
ARC
8
BLACK
10
4.7057086614173231
20
-0.9645669291338582
40
0.0088582677165354
50
90.00000000
51
270.00000000
0
LINE
8
BLACK
6
CONTINUOUS
10
4.7057086614173231
20
-0.9734251968503936
11
4.7431102362204722
21
-0.9734251968503936
0
ARC
8
BLACK
10
4.7431102362204722
20
-0.9645669291338582
40
0.0088582677165354
50
270.00000000
51
450.00000000
0
LINE
8
BLACK
6
CONTINUOUS
10
4.518700787401575
20
-1.1427165354330708
11
4.518700787401575
21
-1.1801181102362204
0
ARC
8
BLACK
10
4.5275590551181102
20
-1.1801181102362204
40
0.0088582677165354
50
-180.00000000
51
0.00000000
0
LINE
8
BLACK
6
CONTINUOUS
10
4.5364173228346454
20
-1.1801181102362204
11
4.5364173228346454
21
-1.1427165354330708
0
ARC
8
BLACK
10
4.5275590551181102
20
-1.1427165354330708
40
0.0088582677165354
50
0.00000000
51
180.00000000
0
LINE
8
BLACK
6
CONTINUOUS
10
4.6171259842519685
20
-1.1427165354330708
11
4.6171259842519685
21
-1.1801181102362204
0
ARC
8
BLACK
10
4.6259842519685037
20
-1.1801181102362204
40
0.0088582677165354
50
-180.00000000
51
0.00000000
0
LINE
8
BLACK
6
CONTINUOUS
10
4.6348425196850389
20
-1.1801181102362204
11
4.6348425196850389
21
-1.1427165354330708
0
ARC
8
BLACK
10
4.6259842519685037
20
-1.1427165354330708
40
0.0088582677165354
50
0.00000000
51
180.00000000
0
CIRCLE
8
BLACK
10
1.1043307086614174
20
-1.9685039370078741
40
0.0275590551181102
0
CIRCLE
8
BLACK
10
1.1043307086614174
20
-1.3295275590551181
40
0.0275590551181102
0
CIRCLE
8
BLACK
10
0.8543307086614172
20
-1.9685039370078741
40
0.0275590551181102
0
CIRCLE
8
BLACK
10
0.8543307086614172
20
-1.3295275590551181
40
0.0275590551181102
0
CIRCLE
8
BLACK
10
1.3543307086614174
20
-1.9685039370078741
40
0.0275590551181102
0
CIRCLE
8
BLACK
10
1.3543307086614174
20
-1.3295275590551181
40
0.0275590551181102
0
CIRCLE
8
BLACK
10
1.1043307086614174
20
-4.377952755905512
40
0.0275590551181102
0
CIRCLE
8
BLACK
10
1.1043307086614174
20
-3.7389763779527558
40
0.0275590551181102
0
CIRCLE
8
BLACK
10
0.8543307086614172
20
-4.377952755905512
40
0.0275590551181102
0
CIRCLE
8
BLACK
10
0.8543307086614172
20
-3.7389763779527558
40
0.0275590551181102
0
CIRCLE
8
BLACK
10
1.3543307086614174
20
-4.377952755905512
40
0.0275590551181102
0
CIRCLE
8
BLACK
10
1.3543307086614174
20
-3.7389763779527558
40
0.0275590551181102
0
LINE
8
BLACK
6
CONTINUOUS
10
7.0014645669291333
20
-1.1806535433070866
11
6.8991023622047241
21
-1.1806535433070866
0
ARC
8
BLACK
10
6.8991023622047241
20
-1.1964015748031496
40
0.015748031496063
50
90.00000000
51
270.00000000
0
LINE
8
BLACK
6
CONTINUOUS
10
6.8991023622047241
20
-1.2121496062992125
11
7.0014645669291333
21
-1.2121496062992125
0
ARC
8
BLACK
10
7.0014645669291333
20
-1.1964015748031496
40
0.015748031496063
50
270.00000000
51
450.00000000
0
LINE
8
BLACK
6
CONTINUOUS
10
6.9935905511811018
20
-0.9523070866141732
11
6.9069763779527555
21
-0.9523070866141732
0
ARC
8
BLACK
10
6.9069763779527555
20
-0.9680551181102361
40
0.015748031496063
50
90.00000000
51
270.00000000
0
LINE
8
BLACK
6
CONTINUOUS
10
6.9069763779527555
20
-0.9838031496062992
11
6.9935905511811018
21
-0.9838031496062992
0
ARC
8
BLACK
10
6.9935905511811018
20
-0.9680551181102361
40
0.015748031496063
50
270.00000000
51
450.00000000
0
LINE
8
BLACK
6
CONTINUOUS
10
6.7455590551181102
20
-1.034984251968504
11
6.7455590551181102
21
-1.1215984251968503
0
ARC
8
BLACK
10
6.7613070866141731
20
-1.1215984251968503
40
0.015748031496063
50
180.00000000
51
360.00000000
0
LINE
8
BLACK
6
CONTINUOUS
10
6.7770551181102361
20
-1.1215984251968503
11
6.7770551181102361
21
-1.034984251968504
0
ARC
8
BLACK
10
6.7613070866141731
20
-1.034984251968504
40
0.015748031496063
50
360.00000000
51
540.00000000
0
CIRCLE
8
BLACK
10
6.914850393700787
20
-1.1101811023622048
40
0.0255905511811024
0
CIRCLE
8
BLACK
10
6.914850393700787
20
-0.9133307086614173
40
0.0255905511811024
0
CIRCLE
8
BLACK
10
1.1043307086614174
20
-3.5826771653543306
40
0.0275590551181102
0
CIRCLE
8
BLACK
10
1.1043307086614174
20
-2.9437007874015748
40
0.0275590551181102
0
CIRCLE
8
BLACK
10
0.8543307086614172
20
-3.5826771653543306
40
0.0275590551181102
0
CIRCLE
8
BLACK
10
0.8543307086614172
20
-2.9437007874015748
40
0.0275590551181102
0
CIRCLE
8
BLACK
10
1.3543307086614174
20
-3.5826771653543306
40
0.0275590551181102
0
CIRCLE
8
BLACK
10
1.3543307086614174
20
-2.9437007874015748
40
0.0275590551181102
0
CIRCLE
8
BLACK
10
7.1633858267716537
20
-3.7399606299212595
40
0.0275590551181102
0
CIRCLE
8
BLACK
10
7.1633858267716537
20
-4.3789370078740157
40
0.0275590551181102
0
CIRCLE
8
BLACK
10
7.4133858267716537
20
-3.7399606299212595
40
0.0275590551181102
0
CIRCLE
8
BLACK
10
7.4133858267716537
20
-4.3789370078740157
40
0.0275590551181102
0
CIRCLE
8
BLACK
10
6.9133858267716537
20
-3.7399606299212595
40
0.0275590551181102
0
CIRCLE
8
BLACK
10
6.9133858267716537
20
-4.3789370078740157
40
0.0275590551181102
0
CIRCLE
8
BLACK
10
5.0911417322834644
20
-1.75
40
0.0196850393700787
0
CIRCLE
8
BLACK
10
5.1911417322834641
20
-1.75
40
0.0196850393700787
0
CIRCLE
8
BLACK
10
5.2911417322834646
20
-1.75
40
0.0196850393700787
0
CIRCLE
8
BLACK
10
4.6842519685039372
20
-4.7842519685039369
40
0.0531495669291339
0
CIRCLE
8
BLACK
10
3.1535433070866139
20
-0.8297244094488189
40
0.0098425196850394
0
CIRCLE
8
BLACK
10
3.1535433070866139
20
-0.8690944881889764
40
0.0098425196850394
0
CIRCLE
8
BLACK
10
3.1535433070866139
20
-0.9084645669291338
40
0.0098425196850394
0
CIRCLE
8
BLACK
10
3.1535433070866139
20
-0.9478346456692913
40
0.0098425196850394
0
CIRCLE
8
BLACK
10
3.1535433070866139
20
-0.9872047244094488
40
0.0098425196850394
0
CIRCLE
8
BLACK
10
3.1535433070866139
20
-1.0265748031496063
40
0.0098425196850394
0
CIRCLE
8
BLACK
10
3.1535433070866139
20
-1.1840551181102361
40
0.0098425196850394
0
CIRCLE
8
BLACK
10
3.1535433070866139
20
-1.2234251968503937
40
0.0098425196850394
0
CIRCLE
8
BLACK
10
3.1535433070866139
20
-1.2627952755905512
40
0.0098425196850394
0
CIRCLE
8
BLACK
10
3.1535433070866139
20
-1.3021653543307086
40
0.0098425196850394
0
CIRCLE
8
BLACK
10
3.1535433070866139
20
-1.3415354330708662
40
0.0098425196850394
0
CIRCLE
8
BLACK
10
3.1535433070866139
20
-1.3809055118110236
40
0.0098425196850394
0
CIRCLE
8
BLACK
10
3.1535433070866139
20
-1.420275590551181
40
0.0098425196850394
0
CIRCLE
8
BLACK
10
3.1929133858267718
20
-1.420275590551181
40
0.0098425196850394
0
CIRCLE
8
BLACK
10
3.2322834645669292
20
-1.420275590551181
40
0.0098425196850394
0
CIRCLE
8
BLACK
10
3.2716535433070866
20
-1.420275590551181
40
0.0098425196850394
0
CIRCLE
8
BLACK
10
3.311023622047244
20
-1.420275590551181
40
0.0098425196850394
0
CIRCLE
8
BLACK
10
3.3503937007874014
20
-1.420275590551181
40
0.0098425196850394
0
CIRCLE
8
BLACK
10
3.3897637795275588
20
-1.420275590551181
40
0.0098425196850394
0
CIRCLE
8
BLACK
10
3.4291338582677167
20
-1.420275590551181
40
0.0098425196850394
0
CIRCLE
8
BLACK
10
3.4685039370078741
20
-1.420275590551181
40
0.0098425196850394
0
CIRCLE
8
BLACK
10
3.5078740157480315
20
-1.420275590551181
40
0.0098425196850394
0
CIRCLE
8
BLACK
10
3.5472440944881889
20
-1.420275590551181
40
0.0098425196850394
0
CIRCLE
8
BLACK
10
3.5866141732283463
20
-1.420275590551181
40
0.0098425196850394
0
CIRCLE
8
BLACK
10
3.6259842519685037
20
-1.420275590551181
40
0.0098425196850394
0
CIRCLE
8
BLACK
10
3.6653543307086611
20
-1.420275590551181
40
0.0098425196850394
0
CIRCLE
8
BLACK
10
3.704724409448819
20
-1.420275590551181
40
0.0098425196850394
0
CIRCLE
8
BLACK
10
3.7440944881889764
20
-1.420275590551181
40
0.0098425196850394
0
CIRCLE
8
BLACK
10
3.7834645669291338
20
-1.420275590551181
40
0.0098425196850394
0
CIRCLE
8
BLACK
10
3.8228346456692912
20
-1.420275590551181
40
0.0098425196850394
0
CIRCLE
8
BLACK
10
3.8622047244094486
20
-1.420275590551181
40
0.0098425196850394
0
CIRCLE
8
BLACK
10
3.901574803149606
20
-1.420275590551181
40
0.0098425196850394
0
CIRCLE
8
BLACK
10
3.9409448818897639
20
-1.420275590551181
40
0.0098425196850394
0
CIRCLE
8
BLACK
10
3.9803149606299213
20
-1.420275590551181
40
0.0098425196850394
0
CIRCLE
8
BLACK
10
4.0196850393700787
20
-1.420275590551181
40
0.0098425196850394
0
CIRCLE
8
BLACK
10
4.0590551181102361
20
-1.420275590551181
40
0.0098425196850394
0
CIRCLE
8
BLACK
10
4.0984251968503935
20
-1.420275590551181
40
0.0098425196850394
0
CIRCLE
8
BLACK
10
4.1377952755905509
20
-1.420275590551181
40
0.0098425196850394
0
CIRCLE
8
BLACK
10
4.1771653543307083
20
-1.420275590551181
40
0.0098425196850394
0
CIRCLE
8
BLACK
10
4.2165354330708658
20
-1.420275590551181
40
0.0098425196850394
0
CIRCLE
8
BLACK
10
4.2559055118110232
20
-1.420275590551181
40
0.0098425196850394
0
CIRCLE
8
BLACK
10
4.2952755905511806
20
-1.420275590551181
40
0.0098425196850394
0
CIRCLE
8
BLACK
10
4.3346456692913389
20
-1.420275590551181
40
0.0098425196850394
0
CIRCLE
8
BLACK
10
4.3740157480314963
20
-1.420275590551181
40
0.0098425196850394
0
CIRCLE
8
BLACK
10
4.4133858267716537
20
-1.420275590551181
40
0.0098425196850394
0
CIRCLE
8
BLACK
10
4.4527559055118111
20
-1.420275590551181
40
0.0098425196850394
0
CIRCLE
8
BLACK
10
4.4921259842519685
20
-1.420275590551181
40
0.0098425196850394
0
CIRCLE
8
BLACK
10
4.5314960629921259
20
-1.420275590551181
40
0.0098425196850394
0
CIRCLE
8
BLACK
10
4.5708661417322833
20
-1.420275590551181
40
0.0098425196850394
0
CIRCLE
8
BLACK
10
4.6102362204724407
20
-1.420275590551181
40
0.0098425196850394
0
CIRCLE
8
BLACK
10
4.6496062992125982
20
-1.420275590551181
40
0.0098425196850394
0
CIRCLE
8
BLACK
10
4.6889763779527556
20
-1.420275590551181
40
0.0098425196850394
0
CIRCLE
8
BLACK
10
4.728346456692913
20
-1.420275590551181
40
0.0098425196850394
0
CIRCLE
8
BLACK
10
4.7677165354330704
20
-1.420275590551181
40
0.0098425196850394
0
CIRCLE
8
BLACK
10
4.8070866141732278
20
-1.420275590551181
40
0.0098425196850394
0
CIRCLE
8
BLACK
10
4.8464566929133861
20
-1.420275590551181
40
0.0098425196850394
0
CIRCLE
8
BLACK
10
4.8858267716535435
20
-1.420275590551181
40
0.0098425196850394
0
CIRCLE
8
BLACK
10
4.9251968503937009
20
-1.420275590551181
40
0.0098425196850394
0
CIRCLE
8
BLACK
10
4.9645669291338583
20
-1.420275590551181
40
0.0098425196850394
0
CIRCLE
8
BLACK
10
5.0039370078740157
20
-1.420275590551181
40
0.0098425196850394
0
CIRCLE
8
BLACK
10
5.0433070866141732
20
-1.420275590551181
40
0.0098425196850394
0
CIRCLE
8
BLACK
10
5.0826771653543306
20
-1.420275590551181
40
0.0098425196850394
0
CIRCLE
8
BLACK
10
5.122047244094488
20
-0.8297244094488189
40
0.0098425196850394
0
CIRCLE
8
BLACK
10
5.122047244094488
20
-0.8690944881889764
40
0.0098425196850394
0
CIRCLE
8
BLACK
10
5.122047244094488
20
-0.9084645669291338
40
0.0098425196850394
0
CIRCLE
8
BLACK
10
5.122047244094488
20
-0.9478346456692913
40
0.0098425196850394
0
CIRCLE
8
BLACK
10
5.122047244094488
20
-0.9872047244094488
40
0.0098425196850394
0
CIRCLE
8
BLACK
10
5.122047244094488
20
-1.0265748031496063
40
0.0098425196850394
0
CIRCLE
8
BLACK
10
5.122047244094488
20
-1.0659448818897637
40
0.0098425196850394
0
CIRCLE
8
BLACK
10
5.122047244094488
20
-1.1053149606299213
40
0.0098425196850394
0
CIRCLE
8
BLACK
10
5.122047244094488
20
-1.1446850393700787
40
0.0098425196850394
0
CIRCLE
8
BLACK
10
5.122047244094488
20
-1.1840551181102361
40
0.0098425196850394
0
CIRCLE
8
BLACK
10
5.122047244094488
20
-1.2234251968503937
40
0.0098425196850394
0
CIRCLE
8
BLACK
10
5.122047244094488
20
-1.2627952755905512
40
0.0098425196850394
0
CIRCLE
8
BLACK
10
5.122047244094488
20
-1.3021653543307086
40
0.0098425196850394
0
CIRCLE
8
BLACK
10
5.122047244094488
20
-1.3415354330708662
40
0.0098425196850394
0
CIRCLE
8
BLACK
10
5.122047244094488
20
-1.3809055118110236
40
0.0098425196850394
0
CIRCLE
8
BLACK
10
5.122047244094488
20
-1.420275590551181
40
0.0098425196850394
0
CIRCLE
8
BLACK
10
0.984251968503937
20
-0.905511811023622
40
0.0531495669291339
0
CIRCLE
8
BLACK
10
7.1639763779527561
20
-1.3307086614173229
40
0.0275590551181102
0
CIRCLE
8
BLACK
10
7.1639763779527561
20
-1.9696850393700787
40
0.0275590551181102
0
CIRCLE
8
BLACK
10
7.4139763779527561
20
-1.3307086614173229
40
0.0275590551181102
0
CIRCLE
8
BLACK
10
7.4139763779527561
20
-1.9696850393700787
40
0.0275590551181102
0
CIRCLE
8
BLACK
10
6.9139763779527561
20
-1.3307086614173229
40
0.0275590551181102
0
CIRCLE
8
BLACK
10
6.9139763779527561
20
-1.9696850393700787
40
0.0275590551181102
0
CIRCLE
8
BLACK
10
6.6141732283464565
20
-2.5
40
0.0531495669291339
0
CIRCLE
8
BLACK
10
4.4291338582677167
20
-1.2598425196850394
40
0.026
0
CIRCLE
8
BLACK
10
4.7244094488188972
20
-1.2598425196850394
40
0.026
0
CIRCLE
8
BLACK
10
5.0196850393700787
20
-1.2598425196850394
40
0.026
0
CIRCLE
8
BLACK
10
4.5275590551181102
20
-1.3582677165354331
40
0.026
0
CIRCLE
8
BLACK
10
4.9212598425196852
20
-1.3582677165354331
40
0.026
0
CIRCLE
8
BLACK
10
4.8228346456692917
20
-0.8661417322834646
40
0.026
0
CIRCLE
8
BLACK
10
4.9212598425196852
20
-0.8661417322834646
40
0.026
0
CIRCLE
8
BLACK
10
4.5275590551181102
20
-0.8661417322834646
40
0.026
0
CIRCLE
8
BLACK
10
4.6259842519685037
20
-0.8661417322834646
40
0.026
0
CIRCLE
8
BLACK
10
4.6850393700787398
20
-2.5
40
0.0531495669291339
0
CIRCLE
8
BLACK
10
2.372047244094488
20
-1.2401574803149606
40
0.0196850393700787
0
CIRCLE
8
BLACK
10
2.372047244094488
20
-1.4370078740157479
40
0.0196850393700787
0
CIRCLE
8
BLACK
10
2.372047244094488
20
-1.3385826771653544
40
0.0196850393700787
0
CIRCLE
8
BLACK
10
2.6673228346456694
20
-1.1181102362204725
40
0.0511811023622047
0
CIRCLE
8
BLACK
10
2.6673228346456694
20
-1.5590551181102361
40
0.0511811023622047
0
CIRCLE
8
BLACK
10
2.9429133858267718
20
-1.4370078740157479
40
0.0196850393700787
0
CIRCLE
8
BLACK
10
2.9429133858267718
20
-1.2401574803149606
40
0.0196850393700787
0
CIRCLE
8
BLACK
10
6.3570866141732285
20
-1.6437007874015748
40
0.0059055118110236
0
CIRCLE
8
BLACK
10
6.3059055118110239
20
-1.6437007874015748
40
0.0059055118110236
0
CIRCLE
8
BLACK
10
6.2547244094488184
20
-1.6437007874015748
40
0.0059055118110236
0
CIRCLE
8
BLACK
10
6.2035433070866137
20
-1.6437007874015748
40
0.0059055118110236
0
CIRCLE
8
BLACK
10
6.3570866141732285
20
-1.6948818897637794
40
0.0059055118110236
0
CIRCLE
8
BLACK
10
6.3059055118110239
20
-1.6948818897637794
40
0.0059055118110236
0
CIRCLE
8
BLACK
10
6.2547244094488184
20
-1.6948818897637794
40
0.0059055118110236
0
CIRCLE
8
BLACK
10
6.2035433070866137
20
-1.6948818897637794
40
0.0059055118110236
0
CIRCLE
8
BLACK
10
6.6141732283464565
20
-5.0393700787401574
40
0.0531495669291339
0
CIRCLE
8
BLACK
10
4.2214566929133861
20
-3.2007874015748032
40
0.0196850393700787
0
CIRCLE
8
BLACK
10
4.1214566929133856
20
-3.2007874015748032
40
0.0196850393700787
0
CIRCLE
8
BLACK
10
4.0214566929133859
20
-3.2007874015748032
40
0.0196850393700787
0
CIRCLE
8
BLACK
10
7.1633858267716537
20
-2.9440944881889761
40
0.0275590551181102
0
CIRCLE
8
BLACK
10
7.1633858267716537
20
-3.5830708661417323
40
0.0275590551181102
0
CIRCLE
8
BLACK
10
7.4133858267716537
20
-2.9440944881889761
40
0.0275590551181102
0
CIRCLE
8
BLACK
10
7.4133858267716537
20
-3.5830708661417323
40
0.0275590551181102
0
CIRCLE
8
BLACK
10
6.9133858267716537
20
-2.9440944881889761
40
0.0275590551181102
0
CIRCLE
8
BLACK
10
6.9133858267716537
20
-3.5830708661417323
40
0.0275590551181102
0
LINE
8
BLACK
6
CONTINUOUS
10
0.7600393700787401
20
-2.1297244094488188
11
0.7797244094488189
21
-2.1297244094488188
0
ARC
8
BLACK
10
0.7797244094488189
20
-2.1159448818897637
40
0.0137795275590551
50
-90.00000000
51
90.00000000
0
LINE
8
BLACK
6
CONTINUOUS
10
0.7797244094488189
20
-2.1021653543307086
11
0.7600393700787401
21
-2.1021653543307086
0
ARC
8
BLACK
10
0.7600393700787401
20
-2.1159448818897637
40
0.0137795275590551
50
90.00000000
51
270.00000000
0
LINE
8
BLACK
6
CONTINUOUS
10
0.8801181102362204
20
-2.1409448818897636
11
0.8958661417322834
21
-2.1409448818897636
0
ARC
8
BLACK
10
0.8958661417322834
20
-2.1281496062992127
40
0.0127952755905512
50
-90.00000000
51
90.00000000
0
LINE
8
BLACK
6
CONTINUOUS
10
0.8958661417322834
20
-2.1153543307086613
11
0.8801181102362204
21
-2.1153543307086613
0
ARC
8
BLACK
10
0.8801181102362204
20
-2.1281496062992127
40
0.0127952755905512
50
90.00000000
51
270.00000000
0
LINE
8
BLACK
6
CONTINUOUS
10
0.8801181102362204
20
-2.3314960629921258
11
0.8958661417322834
21
-2.3314960629921258
0
ARC
8
BLACK
10
0.8958661417322834
20
-2.3187007874015748
40
0.0127952755905512
50
-90.00000000
51
90.00000000
0
LINE
8
BLACK
6
CONTINUOUS
10
0.8958661417322834
20
-2.3059055118110234
11
0.8801181102362204
21
-2.3059055118110234
0
ARC
8
BLACK
10
0.8801181102362204
20
-2.3187007874015748
40
0.0127952755905512
50
90.00000000
51
270.00000000
0
LINE
8
BLACK
6
CONTINUOUS
10
0.7600393700787401
20
-2.3446850393700789
11
0.7797244094488189
21
-2.3446850393700789
0
ARC
8
BLACK
10
0.7797244094488189
20
-2.3309055118110238
40
0.0137795275590551
50
-90.00000000
51
90.00000000
0
LINE
8
BLACK
6
CONTINUOUS
10
0.7797244094488189
20
-2.3171259842519683
11
0.7600393700787401
21
-2.3171259842519683
0
ARC
8
BLACK
10
0.7600393700787401
20
-2.3309055118110238
40
0.0137795275590551
50
90.00000000
51
270.00000000
0
CIRCLE
8
BLACK
10
4.1781496062992121
20
-1.8454724409448819
40
0.0068897637795276
0
CIRCLE
8
BLACK
10
4.228346456692913
20
-1.8454724409448819
40
0.0068897637795276
0
CIRCLE
8
BLACK
10
4.2785433070866139
20
-1.8454724409448819
40
0.0068897637795276
0
CIRCLE
8
BLACK
10
4.1781496062992121
20
-1.795275590551181
40
0.0068897637795276
0
CIRCLE
8
BLACK
10
4.228346456692913
20
-1.795275590551181
40
0.0068897637795276
0
CIRCLE
8
BLACK
10
4.2785433070866139
20
-1.795275590551181
40
0.0068897637795276
0
CIRCLE
8
BLACK
10
4.1781496062992121
20
-1.7450787401574803
40
0.0068897637795276
0
CIRCLE
8
BLACK
10
4.228346456692913
20
-1.7450787401574803
40
0.0068897637795276
0
CIRCLE
8
BLACK
10
4.2785433070866139
20
-1.7450787401574803
40
0.0068897637795276
0
CIRCLE
8
BLACK
10
2.089763779527559
20
-1.25
40
0.0187007874015748
0
CIRCLE
8
BLACK
10
1.9913385826771652
20
-1.25
40
0.0187007874015748
0
CIRCLE
8
BLACK
10
1.9125984251968504
20
-1.25
40
0.0187007874015748
0
CIRCLE
8
BLACK
10
1.8141732283464567
20
-1.25
40
0.0187007874015748
0
CIRCLE
8
BLACK
10
2.2106299212598426
20
-1.1433070866141732
40
0.0452755905511811
0
CIRCLE
8
BLACK
10
1.6933070866141733
20
-1.1433070866141732
40
0.0452755905511811
0
CIRCLE
8
BLACK
10
3.5039370078740157
20
-4.3897637795275593
40
0.0531495669291339
0
CIRCLE
8
BLACK
10
3.5039370078740157
20
-2.5
40
0.0531495669291339
0
CIRCLE
8
BLACK
10
2.204724409448819
20
-4.3897637795275593
40
0.0531495669291339
0
CIRCLE
8
BLACK
10
2.204724409448819
20
-2.5
40
0.0531495669291339
0
CIRCLE
8
BLACK
10
1.6535433070866141
20
-5.0393700787401574
40
0.0531495669291339
0
CIRCLE
8
BLACK
10
7.2836856299212593
20
-0.905290748031496
40
0.0531495669291339
0
CIRCLE
8
BLACK
10
5.3248031496062991
20
-1.2401574803149606
40
0.0196850393700787
0
CIRCLE
8
BLACK
10
5.3248031496062991
20
-1.4370078740157479
40
0.0196850393700787
0
CIRCLE
8
BLACK
10
5.3248031496062991
20
-1.3385826771653544
40
0.0196850393700787
0
CIRCLE
8
BLACK
10
5.6200787401574805
20
-1.1181102362204725
40
0.0511811023622047
0
CIRCLE
8
BLACK
10
5.6200787401574805
20
-1.5590551181102361
40
0.0511811023622047
0
CIRCLE
8
BLACK
10
5.8956692913385824
20
-1.4370078740157479
40
0.0196850393700787
0
CIRCLE
8
BLACK
10
5.8956692913385824
20
-1.2401574803149606
40
0.0196850393700787
0
CIRCLE
8
BLACK
10
4.1338582677165352
20
-3.8582677165354329
40
0.0531495669291339
0
CIRCLE
8
BLACK
10
3.2480314960629921
20
-1.2598425196850394
40
0.026
0
CIRCLE
8
BLACK
10
3.5433070866141732
20
-1.2598425196850394
40
0.026
0
CIRCLE
8
BLACK
10
3.8385826771653542
20
-1.2598425196850394
40
0.026
0
CIRCLE
8
BLACK
10
3.3464566929133857
20
-1.3582677165354331
40
0.026
0
CIRCLE
8
BLACK
10
3.7401574803149606
20
-1.3582677165354331
40
0.026
0
CIRCLE
8
BLACK
10
3.6417322834645667
20
-0.8661417322834646
40
0.026
0
CIRCLE
8
BLACK
10
3.7401574803149606
20
-0.8661417322834646
40
0.026
0
CIRCLE
8
BLACK
10
3.3464566929133857
20
-0.8661417322834646
40
0.026
0
CIRCLE
8
BLACK
10
3.4448818897637796
20
-0.8661417322834646
40
0.026
0
CIRCLE
8
BLACK
10
3.7399409448818899
20
-0.9645669291338582
40
0.0236220078740157
0
CIRCLE
8
BLACK
10
3.5430905511811024
20
-1.1614173228346456
40
0.0236220078740157
0
CIRCLE
8
BLACK
10
3.3462401574803149
20
-0.9645669291338582
40
0.0236220078740157
0
LINE
8
BLACK
6
CONTINUOUS
10
3.7487992125984251
20
-1.1801181102362204
11
3.7487992125984251
21
-1.1427165354330708
0
ARC
8
BLACK
10
3.7399409448818899
20
-1.1427165354330708
40
0.0088582677165354
50
0.00000000
51
180.00000000
0
LINE
8
BLACK
6
CONTINUOUS
10
3.7310826771653542
20
-1.1427165354330708
11
3.7310826771653542
21
-1.1801181102362204
0
ARC
8
BLACK
10
3.7399409448818899
20
-1.1801181102362204
40
0.0088582677165354
50
180.00000000
51
360.00000000
0
LINE
8
BLACK
6
CONTINUOUS
10
3.6503740157480316
20
-1.1801181102362204
11
3.6503740157480316
21
-1.1427165354330708
0
ARC
8
BLACK
10
3.6415157480314959
20
-1.1427165354330708
40
0.0088582677165354
50
0.00000000
51
180.00000000
0
LINE
8
BLACK
6
CONTINUOUS
10
3.6326574803149607
20
-1.1427165354330708
11
3.6326574803149607
21
-1.1801181102362204
0
ARC
8
BLACK
10
3.6415157480314959
20
-1.1801181102362204
40
0.0088582677165354
50
180.00000000
51
360.00000000
0
LINE
8
BLACK
6
CONTINUOUS
10
3.5617913385826769
20
-0.9557086614173228
11
3.5243897637795274
21
-0.9557086614173228
0
ARC
8
BLACK
10
3.5243897637795274
20
-0.9645669291338582
40
0.0088582677165354
50
90.00000000
51
270.00000000
0
LINE
8
BLACK
6
CONTINUOUS
10
3.5243897637795274
20
-0.9734251968503936
11
3.5617913385826769
21
-0.9734251968503936
0
ARC
8
BLACK
10
3.5617913385826769
20
-0.9645669291338582
40
0.0088582677165354
50
270.00000000
51
450.00000000
0
LINE
8
BLACK
6
CONTINUOUS
10
3.3373818897637793
20
-1.1427165354330708
11
3.3373818897637793
21
-1.1801181102362204
0
ARC
8
BLACK
10
3.3462401574803149
20
-1.1801181102362204
40
0.0088582677165354
50
-180.00000000
51
0.00000000
0
LINE
8
BLACK
6
CONTINUOUS
10
3.3550984251968505
20
-1.1801181102362204
11
3.3550984251968505
21
-1.1427165354330708
0
ARC
8
BLACK
10
3.3462401574803149
20
-1.1427165354330708
40
0.0088582677165354
50
0.00000000
51
180.00000000
0
LINE
8
BLACK
6
CONTINUOUS
10
3.4358070866141732
20
-1.1427165354330708
11
3.4358070866141732
21
-1.1801181102362204
0
ARC
8
BLACK
10
3.4446653543307084
20
-1.1801181102362204
40
0.0088582677165354
50
-180.00000000
51
0.00000000
0
LINE
8
BLACK
6
CONTINUOUS
10
3.4535236220472441
20
-1.1801181102362204
11
3.4535236220472441
21
-1.1427165354330708
0
ARC
8
BLACK
10
3.4446653543307084
20
-1.1427165354330708
40
0.0088582677165354
50
0.00000000
51
180.00000000
0
CIRCLE
8
BLACK
10
1.1811023622047243
20
-4.6850393700787398
40
0.0728346456692913
0
CIRCLE
8
BLACK
10
4.1338582677165352
20
-2.6377952755905509
40
0.0728346456692913
0
CIRCLE
8
BLACK
10
1.1811023622047243
20
-2.6377952755905509
40
0.0728346456692913
0
CIRCLE
8
BLACK
10
7.0866141732283463
20
-2.6377952755905509
40
0.0728346456692913
0
CIRCLE
8
BLACK
10
4.1338582677165352
20
-4.6850393700787398
40
0.0728346456692913
0
CIRCLE
8
BLACK
10
2.8724409448818897
20
-0.9248031496062992
40
0.0147637795275591
0
CIRCLE
8
BLACK
10
2.9511811023622045
20
-0.9248031496062992
40
0.0147637795275591
0
CIRCLE
8
BLACK
10
3.0299212598425198
20
-0.9248031496062992
40
0.0147637795275591
0
CIRCLE
8
BLACK
10
7.0866141732283463
20
-4.6850393700787398
40
0.0728346456692913
0
CIRCLE
8
BLACK
10
4.734251968503937
20
-2.6919527559055116
40
0.0196850393700787
0
CIRCLE
8
BLACK
10
4.6342519685039365
20
-2.6919527559055116
40
0.0196850393700787
0
CIRCLE
8
BLACK
10
4.734251968503937
20
-2.7919527559055117
40
0.0196850393700787
0
CIRCLE
8
BLACK
10
4.6342519685039365
20
-2.7919527559055117
40
0.0196850393700787
0
CIRCLE
8
BLACK
10
4.734251968503937
20
-2.8919527559055118
40
0.0196850393700787
0
CIRCLE
8
BLACK
10
4.6342519685039365
20
-2.8919527559055118
40
0.0196850393700787
0
CIRCLE
8
BLACK
10
4.734251968503937
20
-2.9919527559055119
40
0.0196850393700787
0
CIRCLE
8
BLACK
10
4.6342519685039365
20
-2.9919527559055119
40
0.0196850393700787
0
CIRCLE
8
BLACK
10
4.734251968503937
20
-3.0919527559055116
40
0.0196850393700787
0
CIRCLE
8
BLACK
10
4.6342519685039365
20
-3.0919527559055116
40
0.0196850393700787
0
CIRCLE
8
BLACK
10
4.734251968503937
20
-3.1919527559055116
40
0.0196850393700787
0
CIRCLE
8
BLACK
10
4.6342519685039365
20
-3.1919527559055116
40
0.0196850393700787
0
CIRCLE
8
BLACK
10
4.734251968503937
20
-3.2919527559055117
40
0.0196850393700787
0
CIRCLE
8
BLACK
10
4.6342519685039365
20
-3.2919527559055117
40
0.0196850393700787
0
CIRCLE
8
BLACK
10
4.734251968503937
20
-3.3919527559055118
40
0.0196850393700787
0
CIRCLE
8
BLACK
10
4.6342519685039365
20
-3.3919527559055118
40
0.0196850393700787
0
CIRCLE
8
BLACK
10
4.734251968503937
20
-3.4919527559055119
40
0.0196850393700787
0
CIRCLE
8
BLACK
10
4.6342519685039365
20
-3.4919527559055119
40
0.0196850393700787
0
CIRCLE
8
BLACK
10
4.734251968503937
20
-3.5919527559055116
40
0.0196850393700787
0
CIRCLE
8
BLACK
10
4.6342519685039365
20
-3.5919527559055116
40
0.0196850393700787
0
CIRCLE
8
BLACK
10
4.734251968503937
20
-3.6919527559055116
40
0.0196850393700787
0
CIRCLE
8
BLACK
10
4.6342519685039365
20
-3.6919527559055116
40
0.0196850393700787
0
CIRCLE
8
BLACK
10
4.734251968503937
20
-3.7919527559055117
40
0.0196850393700787
0
CIRCLE
8
BLACK
10
4.6342519685039365
20
-3.7919527559055117
40
0.0196850393700787
0
CIRCLE
8
BLACK
10
4.734251968503937
20
-3.8919527559055118
40
0.0196850393700787
0
CIRCLE
8
BLACK
10
4.6342519685039365
20
-3.8919527559055118
40
0.0196850393700787
0
CIRCLE
8
BLACK
10
4.734251968503937
20
-3.9919527559055119
40
0.0196850393700787
0
CIRCLE
8
BLACK
10
4.6342519685039365
20
-3.9919527559055119
40
0.0196850393700787
0
CIRCLE
8
BLACK
10
4.734251968503937
20
-4.0919527559055116
40
0.0196850393700787
0
CIRCLE
8
BLACK
10
4.6342519685039365
20
-4.0919527559055116
40
0.0196850393700787
0
CIRCLE
8
BLACK
10
4.734251968503937
20
-4.1919527559055121
40
0.0196850393700787
0
CIRCLE
8
BLACK
10
4.6342519685039365
20
-4.1919527559055121
40
0.0196850393700787
0
CIRCLE
8
BLACK
10
4.734251968503937
20
-4.2919527559055117
40
0.0196850393700787
0
CIRCLE
8
BLACK
10
4.6342519685039365
20
-4.2919527559055117
40
0.0196850393700787
0
CIRCLE
8
BLACK
10
4.734251968503937
20
-4.3919527559055114
40
0.0196850393700787
0
CIRCLE
8
BLACK
10
4.6342519685039365
20
-4.3919527559055114
40
0.0196850393700787
0
CIRCLE
8
BLACK
10
4.734251968503937
20
-4.4919527559055119
40
0.0196850393700787
0
CIRCLE
8
BLACK
10
4.6342519685039365
20
-4.4919527559055119
40
0.0196850393700787
0
CIRCLE
8
BLACK
10
4.734251968503937
20
-4.5919527559055116
40
0.0196850393700787
0
CIRCLE
8
BLACK
10
4.6342519685039365
20
-4.5919527559055116
40
0.0196850393700787
0
CIRCLE
8
BLACK
10
6.1635826771653539
20
-2.9466771653543304
40
0.0196850393700787
0
CIRCLE
8
BLACK
10
6.0635826771653543
20
-2.9466771653543304
40
0.0196850393700787
0
CIRCLE
8
BLACK
10
6.1635826771653539
20
-3.0466771653543305
40
0.0196850393700787
0
CIRCLE
8
BLACK
10
6.0635826771653543
20
-3.0466771653543305
40
0.0196850393700787
0
CIRCLE
8
BLACK
10
6.1635826771653539
20
-3.1466771653543306
40
0.0196850393700787
0
CIRCLE
8
BLACK
10
6.0635826771653543
20
-3.1466771653543306
40
0.0196850393700787
0
CIRCLE
8
BLACK
10
5.9992125984251965
20
-4.6909685039370075
40
0.0196850393700787
0
CIRCLE
8
BLACK
10
5.9992125984251965
20
-4.790968503937008
40
0.0196850393700787
0
CIRCLE
8
BLACK
10
6.099212598425197
20
-4.6909685039370075
40
0.0196850393700787
0
CIRCLE
8
BLACK
10
6.099212598425197
20
-4.790968503937008
40
0.0196850393700787
0
CIRCLE
8
BLACK
10
6.1992125984251967
20
-4.6909685039370075
40
0.0196850393700787
0
CIRCLE
8
BLACK
10
6.1992125984251967
20
-4.790968503937008
40
0.0196850393700787
0
CIRCLE
8
BLACK
10
2.5208661417322835
20
-0.9251968503937008
40
0.0147637795275591
0
CIRCLE
8
BLACK
10
2.5996062992125983
20
-0.9251968503937008
40
0.0147637795275591
0
CIRCLE
8
BLACK
10
2.6783464566929132
20
-0.9251968503937008
40
0.0147637795275591
  0
ENDSEC
  0
EOF
