  0
SECTION
  2
HEADER
  9
$ANGBASE
  50
0.0
  9
$ANGDIR
  70
1
  9
$MEASUREMENT
  70
0
  9
$INSUNITS
  70
1
  0
ENDSEC
  0
SECTION
  2
TABLES
  0
TABLE
  2
LTYPE
  70
4
  0
LTYPE
  5
40F
  2
CONTINUOUS
  70
0
  3
Solid line
  72
65
  73
0
  40
0.0
  0
LTYPE
  5
410
  2
DASHDOT
 70
0
  3
Dash Dot ____ _ ____ _
 72
65
 73
4
 40
2.0
 49
1.25
 49
-0.25
 49
0.25
 49
-0.25
  0
LTYPE
  5
411
  2
DASHED
 70
0
  3
Dashed __ __ __ __ __
 72
65
 73
2
 40
0.75
 49
0.5
 49
-0.25
  0
LTYPE
  5
43B
  2
DOTTED
 70
0
  3
Dotted .  .  .  .
 72
65
 73
2
 40
0.2
 49
0.0
 49
-0.2
  0
ENDTAB
  0
TABLE
  2
STYLE
  70
4
  0
STYLE
  2
KICAD
  70
0
  40
0
  41
1
  42
1
  50
0
  71
0
  3
isocp.shx
  0
STYLE
  2
KICADB
  70
0
  40
0
  41
1
  42
1
  50
0
  71
0
  3
isocp.shx
  0
STYLE
  2
KICADI
  70
0
  40
0
  41
1
  42
1
  50
15
  71
0
  3
isocp.shx
  0
STYLE
  2
KICADBI
  70
0
  40
0
  41
1
  42
1
  50
15
  71
0
  3
isocp.shx
  0
ENDTAB
  0
TABLE
  2
LAYER
  70
1
  0
LAYER
  2
BLACK
  70
0
  62
250
  6
CONTINUOUS
  0
ENDTAB
  0
ENDSEC
  0
SECTION
  2
ENTITIES
0
LINE
8
BLACK
6
CONTINUOUS
10
6.2692742913385828
20
-4.6207678346456689
11
6.2698069685039366
21
-4.6213005118110235
0
LINE
8
BLACK
6
CONTINUOUS
10
6.2698069685039366
20
-4.6213005118110235
11
6.2698818897637798
21
-4.6216771653543303
0
LINE
8
BLACK
6
CONTINUOUS
10
6.2698818897637798
20
-4.6216771653543303
11
6.2698818897637798
21
-4.8618346456692914
0
LINE
8
BLACK
6
CONTINUOUS
10
6.2698818897637798
20
-4.8618346456692914
11
6.2698069685039366
21
-4.8622112992125981
0
LINE
8
BLACK
6
CONTINUOUS
10
6.2698069685039366
20
-4.8622112992125981
11
6.2692742913385828
21
-4.8627439763779527
0
LINE
8
BLACK
6
CONTINUOUS
10
6.2692742913385828
20
-4.8627439763779527
11
6.2688976377952752
21
-4.8628188976377951
0
LINE
8
BLACK
6
CONTINUOUS
10
6.2688976377952752
20
-4.8628188976377951
11
5.9283464566929132
21
-4.8628188976377951
0
LINE
8
BLACK
6
CONTINUOUS
10
5.9283464566929132
20
-4.8628188976377951
11
5.9279698031496064
21
-4.8627439763779527
0
LINE
8
BLACK
6
CONTINUOUS
10
5.9279698031496064
20
-4.8627439763779527
11
5.9274371259842518
21
-4.8622112992125981
0
LINE
8
BLACK
6
CONTINUOUS
10
5.9274371259842518
20
-4.8622112992125981
11
5.9273622047244094
21
-4.8618346456692914
0
LINE
8
BLACK
6
CONTINUOUS
10
5.9273622047244094
20
-4.8618346456692914
11
5.9273622047244094
21
-4.6216771653543303
0
LINE
8
BLACK
6
CONTINUOUS
10
5.9273622047244094
20
-4.6216771653543303
11
5.9274371259842518
21
-4.6213005118110235
0
LINE
8
BLACK
6
CONTINUOUS
10
5.9274371259842518
20
-4.6213005118110235
11
5.9279698031496064
21
-4.6207678346456689
0
LINE
8
BLACK
6
CONTINUOUS
10
5.9279698031496064
20
-4.6207678346456689
11
5.9283464566929132
21
-4.6206929133858266
0
LINE
8
BLACK
6
CONTINUOUS
10
5.9283464566929132
20
-4.6206929133858266
11
6.2688976377952752
21
-4.6206929133858266
0
LINE
8
BLACK
6
CONTINUOUS
10
6.2688976377952752
20
-4.6206929133858266
11
6.2692742913385828
21
-4.6207678346456689
0
LINE
8
BLACK
6
CONTINUOUS
10
5.9293307086614169
20
-4.6226614173228349
11
5.9293307086614169
21
-4.8608503937007876
0
LINE
8
BLACK
6
CONTINUOUS
10
5.9293307086614169
20
-4.8608503937007876
11
6.2679133858267715
21
-4.8608503937007876
0
LINE
8
BLACK
6
CONTINUOUS
10
6.2679133858267715
20
-4.8608503937007876
11
6.2679133858267715
21
-4.6226614173228349
0
LINE
8
BLACK
6
CONTINUOUS
10
6.2679133858267715
20
-4.6226614173228349
11
5.9293307086614169
21
-4.6226614173228349
0
LINE
8
BLACK
6
CONTINUOUS
10
1.2023703937007875
20
-4.5598648031496065
11
1.2162517716535433
21
-4.5630331496062988
0
LINE
8
BLACK
6
CONTINUOUS
10
1.2162517716535433
20
-4.5630331496062988
11
1.2296911023622048
21
-4.5677357874015749
0
LINE
8
BLACK
6
CONTINUOUS
10
1.2296911023622048
20
-4.5677357874015749
11
1.2425194094488188
21
-4.5739135433070865
0
LINE
8
BLACK
6
CONTINUOUS
10
1.2425194094488188
20
-4.5739135433070865
11
1.2545753937007873
21
-4.5814888188976379
0
LINE
8
BLACK
6
CONTINUOUS
10
1.2545753937007873
20
-4.5814888188976379
11
1.2657074015748031
21
-4.5903662992125982
0
LINE
8
BLACK
6
CONTINUOUS
10
1.2657074015748031
20
-4.5903662992125982
11
1.2757754330708662
21
-4.6004343307086613
0
LINE
8
BLACK
6
CONTINUOUS
10
1.2757754330708662
20
-4.6004343307086613
11
1.2846529133858267
21
-4.6115663385826773
0
LINE
8
BLACK
6
CONTINUOUS
10
1.2846529133858267
20
-4.6115663385826773
11
1.292228188976378
21
-4.6236223228346454
0
LINE
8
BLACK
6
CONTINUOUS
10
1.292228188976378
20
-4.6236223228346454
11
1.2984059448818897
21
-4.63645062992126
0
LINE
8
BLACK
6
CONTINUOUS
10
1.2984059448818897
20
-4.63645062992126
11
1.3031085826771653
21
-4.6498899606299213
0
LINE
8
BLACK
6
CONTINUOUS
10
1.3031085826771653
20
-4.6498899606299213
11
1.3062769291338583
21
-4.6637713385826771
0
LINE
8
BLACK
6
CONTINUOUS
10
1.3062769291338583
20
-4.6637713385826771
11
1.3078711023622047
21
-4.6779201968503932
0
LINE
8
BLACK
6
CONTINUOUS
10
1.3078711023622047
20
-4.6779201968503932
11
1.3078711023622047
21
-4.6921585433070865
0
LINE
8
BLACK
6
CONTINUOUS
10
1.3078711023622047
20
-4.6921585433070865
11
1.3062769291338583
21
-4.7063074015748034
0
LINE
8
BLACK
6
CONTINUOUS
10
1.3062769291338583
20
-4.7063074015748034
11
1.3031085826771653
21
-4.7201887795275592
0
LINE
8
BLACK
6
CONTINUOUS
10
1.3031085826771653
20
-4.7201887795275592
11
1.2984059448818897
21
-4.7336281102362205
0
LINE
8
BLACK
6
CONTINUOUS
10
1.2984059448818897
20
-4.7336281102362205
11
1.292228188976378
21
-4.7464564173228343
0
LINE
8
BLACK
6
CONTINUOUS
10
1.292228188976378
20
-4.7464564173228343
11
1.2846529133858267
21
-4.7585124015748033
0
LINE
8
BLACK
6
CONTINUOUS
10
1.2846529133858267
20
-4.7585124015748033
11
1.2757754330708662
21
-4.7696444094488184
0
LINE
8
BLACK
6
CONTINUOUS
10
1.2757754330708662
20
-4.7696444094488184
11
1.2657074015748031
21
-4.7797124409448815
0
LINE
8
BLACK
6
CONTINUOUS
10
1.2657074015748031
20
-4.7797124409448815
11
1.2545753937007873
21
-4.7885899212598426
0
LINE
8
BLACK
6
CONTINUOUS
10
1.2545753937007873
20
-4.7885899212598426
11
1.2425194094488188
21
-4.796165196850394
0
LINE
8
BLACK
6
CONTINUOUS
10
1.2425194094488188
20
-4.796165196850394
11
1.2296911023622048
21
-4.8023429527559056
0
LINE
8
BLACK
6
CONTINUOUS
10
1.2296911023622048
20
-4.8023429527559056
11
1.2162517716535433
21
-4.8070455905511809
0
LINE
8
BLACK
6
CONTINUOUS
10
1.2162517716535433
20
-4.8070455905511809
11
1.2023703937007875
21
-4.810213937007874
0
LINE
8
BLACK
6
CONTINUOUS
10
1.2023703937007875
20
-4.810213937007874
11
1.1882215354330707
21
-4.8118081102362202
0
LINE
8
BLACK
6
CONTINUOUS
10
1.1882215354330707
20
-4.8118081102362202
11
1.1739831889763779
21
-4.8118081102362202
0
LINE
8
BLACK
6
CONTINUOUS
10
1.1739831889763779
20
-4.8118081102362202
11
1.1598343307086614
21
-4.810213937007874
0
LINE
8
BLACK
6
CONTINUOUS
10
1.1598343307086614
20
-4.810213937007874
11
1.1459529527559056
21
-4.8070455905511809
0
LINE
8
BLACK
6
CONTINUOUS
10
1.1459529527559056
20
-4.8070455905511809
11
1.132513622047244
21
-4.8023429527559056
0
LINE
8
BLACK
6
CONTINUOUS
10
1.132513622047244
20
-4.8023429527559056
11
1.1196853149606298
21
-4.796165196850394
0
LINE
8
BLACK
6
CONTINUOUS
10
1.1196853149606298
20
-4.796165196850394
11
1.1076293307086613
21
-4.7885899212598426
0
LINE
8
BLACK
6
CONTINUOUS
10
1.1076293307086613
20
-4.7885899212598426
11
1.0964973228346457
21
-4.7797124409448815
0
LINE
8
BLACK
6
CONTINUOUS
10
1.0964973228346457
20
-4.7797124409448815
11
1.0864292913385827
21
-4.7696444094488184
0
LINE
8
BLACK
6
CONTINUOUS
10
1.0864292913385827
20
-4.7696444094488184
11
1.077551811023622
21
-4.7585124015748033
0
LINE
8
BLACK
6
CONTINUOUS
10
1.077551811023622
20
-4.7585124015748033
11
1.0699765354330708
21
-4.7464564173228343
0
LINE
8
BLACK
6
CONTINUOUS
10
1.0699765354330708
20
-4.7464564173228343
11
1.063798779527559
21
-4.7336281102362205
0
LINE
8
BLACK
6
CONTINUOUS
10
1.063798779527559
20
-4.7336281102362205
11
1.0590961417322835
21
-4.7201887795275592
0
LINE
8
BLACK
6
CONTINUOUS
10
1.0590961417322835
20
-4.7201887795275592
11
1.0559277952755906
21
-4.7063074015748034
0
LINE
8
BLACK
6
CONTINUOUS
10
1.0559277952755906
20
-4.7063074015748034
11
1.0543336220472441
21
-4.6921585433070865
0
LINE
8
BLACK
6
CONTINUOUS
10
1.0543336220472441
20
-4.6921585433070865
11
1.0543336220472441
21
-4.678019527559055
0
LINE
8
BLACK
6
CONTINUOUS
10
1.0543336220472441
20
-4.678019527559055
11
1.0543336220472441
21
-4.6779201968503932
0
LINE
8
BLACK
6
CONTINUOUS
10
1.0543336220472441
20
-4.6779201968503932
11
1.0559277952755906
21
-4.6637713385826771
0
LINE
8
BLACK
6
CONTINUOUS
10
1.0559277952755906
20
-4.6637713385826771
11
1.0590961417322835
21
-4.6498899606299213
0
LINE
8
BLACK
6
CONTINUOUS
10
1.0590961417322835
20
-4.6498899606299213
11
1.063798779527559
21
-4.63645062992126
0
LINE
8
BLACK
6
CONTINUOUS
10
1.063798779527559
20
-4.63645062992126
11
1.0699765354330708
21
-4.6236223228346454
0
LINE
8
BLACK
6
CONTINUOUS
10
1.0699765354330708
20
-4.6236223228346454
11
1.077551811023622
21
-4.6115663385826773
0
LINE
8
BLACK
6
CONTINUOUS
10
1.077551811023622
20
-4.6115663385826773
11
1.0864292913385827
21
-4.6004343307086613
0
LINE
8
BLACK
6
CONTINUOUS
10
1.0864292913385827
20
-4.6004343307086613
11
1.0964973228346457
21
-4.5903662992125982
0
LINE
8
BLACK
6
CONTINUOUS
10
1.0964973228346457
20
-4.5903662992125982
11
1.1076293307086613
21
-4.5814888188976379
0
LINE
8
BLACK
6
CONTINUOUS
10
1.1076293307086613
20
-4.5814888188976379
11
1.1196853149606298
21
-4.5739135433070865
0
LINE
8
BLACK
6
CONTINUOUS
10
1.1196853149606298
20
-4.5739135433070865
11
1.132513622047244
21
-4.5677357874015749
0
LINE
8
BLACK
6
CONTINUOUS
10
1.132513622047244
20
-4.5677357874015749
11
1.1459529527559056
21
-4.5630331496062988
0
LINE
8
BLACK
6
CONTINUOUS
10
1.1459529527559056
20
-4.5630331496062988
11
1.1598343307086614
21
-4.5598648031496065
0
LINE
8
BLACK
6
CONTINUOUS
10
1.1598343307086614
20
-4.5598648031496065
11
1.1739831889763779
21
-4.5582706299212594
0
LINE
8
BLACK
6
CONTINUOUS
10
1.1739831889763779
20
-4.5582706299212594
11
1.1882215354330707
21
-4.5582706299212594
0
LINE
8
BLACK
6
CONTINUOUS
10
1.1882215354330707
20
-4.5582706299212594
11
1.2023703937007875
21
-4.5598648031496065
0
LINE
8
BLACK
6
CONTINUOUS
10
1.0561023622047243
20
-4.6920592125984255
11
1.0576742913385826
21
-4.7060106299212601
0
LINE
8
BLACK
6
CONTINUOUS
10
1.0576742913385826
20
-4.7060106299212601
11
1.0607984251968503
21
-4.7196983464566928
0
LINE
8
BLACK
6
CONTINUOUS
10
1.0607984251968503
20
-4.7196983464566928
11
1.0654354330708662
21
-4.7329501574803148
0
LINE
8
BLACK
6
CONTINUOUS
10
1.0654354330708662
20
-4.7329501574803148
11
1.0715270472440945
21
-4.7455995275590555
0
LINE
8
BLACK
6
CONTINUOUS
10
1.0715270472440945
20
-4.7455995275590555
11
1.0789966141732283
21
-4.757487244094488
0
LINE
8
BLACK
6
CONTINUOUS
10
1.0789966141732283
20
-4.757487244094488
11
1.0877502362204725
21
-4.7684639370078736
0
LINE
8
BLACK
6
CONTINUOUS
10
1.0877502362204725
20
-4.7684639370078736
11
1.0976777952755905
21
-4.7783914960629916
0
LINE
8
BLACK
6
CONTINUOUS
10
1.0976777952755905
20
-4.7783914960629916
11
1.1086544881889764
21
-4.787145118110236
0
LINE
8
BLACK
6
CONTINUOUS
10
1.1086544881889764
20
-4.787145118110236
11
1.1205422047244094
21
-4.7946146850393703
0
LINE
8
BLACK
6
CONTINUOUS
10
1.1205422047244094
20
-4.7946146850393703
11
1.1331915748031496
21
-4.8007062992125986
0
LINE
8
BLACK
6
CONTINUOUS
10
1.1331915748031496
20
-4.8007062992125986
11
1.1464433858267715
21
-4.8053433070866145
0
LINE
8
BLACK
6
CONTINUOUS
10
1.1464433858267715
20
-4.8053433070866145
11
1.1601311023622047
21
-4.8084674409448818
0
LINE
8
BLACK
6
CONTINUOUS
10
1.1601311023622047
20
-4.8084674409448818
11
1.1740825196850393
21
-4.8100393700787398
0
LINE
8
BLACK
6
CONTINUOUS
10
1.1740825196850393
20
-4.8100393700787398
11
1.1881222047244093
21
-4.8100393700787398
0
LINE
8
BLACK
6
CONTINUOUS
10
1.1881222047244093
20
-4.8100393700787398
11
1.2020736220472441
21
-4.8084674409448818
0
LINE
8
BLACK
6
CONTINUOUS
10
1.2020736220472441
20
-4.8084674409448818
11
1.2157613385826771
21
-4.8053433070866145
0
LINE
8
BLACK
6
CONTINUOUS
10
1.2157613385826771
20
-4.8053433070866145
11
1.2290131496062993
21
-4.8007062992125986
0
LINE
8
BLACK
6
CONTINUOUS
10
1.2290131496062993
20
-4.8007062992125986
11
1.2416625196850393
21
-4.7946146850393703
0
LINE
8
BLACK
6
CONTINUOUS
10
1.2416625196850393
20
-4.7946146850393703
11
1.2535502362204725
21
-4.787145118110236
0
LINE
8
BLACK
6
CONTINUOUS
10
1.2535502362204725
20
-4.787145118110236
11
1.2645269291338583
21
-4.7783914960629916
0
LINE
8
BLACK
6
CONTINUOUS
10
1.2645269291338583
20
-4.7783914960629916
11
1.2744544881889763
21
-4.7684639370078736
0
LINE
8
BLACK
6
CONTINUOUS
10
1.2744544881889763
20
-4.7684639370078736
11
1.2832081102362205
21
-4.757487244094488
0
LINE
8
BLACK
6
CONTINUOUS
10
1.2832081102362205
20
-4.757487244094488
11
1.2906776771653543
21
-4.7455995275590555
0
LINE
8
BLACK
6
CONTINUOUS
10
1.2906776771653543
20
-4.7455995275590555
11
1.2967692913385827
21
-4.7329501574803148
0
LINE
8
BLACK
6
CONTINUOUS
10
1.2967692913385827
20
-4.7329501574803148
11
1.3014062992125983
21
-4.7196983464566928
0
LINE
8
BLACK
6
CONTINUOUS
10
1.3014062992125983
20
-4.7196983464566928
11
1.304530433070866
21
-4.7060106299212601
0
LINE
8
BLACK
6
CONTINUOUS
10
1.304530433070866
20
-4.7060106299212601
11
1.3061023622047243
21
-4.6920592125984255
0
LINE
8
BLACK
6
CONTINUOUS
10
1.3061023622047243
20
-4.6920592125984255
11
1.3061023622047243
21
-4.678019527559055
0
LINE
8
BLACK
6
CONTINUOUS
10
1.3061023622047243
20
-4.678019527559055
11
1.304530433070866
21
-4.6640681102362205
0
LINE
8
BLACK
6
CONTINUOUS
10
1.304530433070866
20
-4.6640681102362205
11
1.3014062992125983
21
-4.6503803937007877
0
LINE
8
BLACK
6
CONTINUOUS
10
1.3014062992125983
20
-4.6503803937007877
11
1.2967692913385827
21
-4.6371285826771649
0
LINE
8
BLACK
6
CONTINUOUS
10
1.2967692913385827
20
-4.6371285826771649
11
1.2906776771653543
21
-4.6244792125984251
0
LINE
8
BLACK
6
CONTINUOUS
10
1.2906776771653543
20
-4.6244792125984251
11
1.2832081102362205
21
-4.6125914960629917
0
LINE
8
BLACK
6
CONTINUOUS
10
1.2832081102362205
20
-4.6125914960629917
11
1.2744544881889763
21
-4.601614803149606
0
LINE
8
BLACK
6
CONTINUOUS
10
1.2744544881889763
20
-4.601614803149606
11
1.2645269291338583
21
-4.591687244094488
0
LINE
8
BLACK
6
CONTINUOUS
10
1.2645269291338583
20
-4.591687244094488
11
1.2535502362204725
21
-4.5829336220472436
0
LINE
8
BLACK
6
CONTINUOUS
10
1.2535502362204725
20
-4.5829336220472436
11
1.2416625196850393
21
-4.5754640551181103
0
LINE
8
BLACK
6
CONTINUOUS
10
1.2416625196850393
20
-4.5754640551181103
11
1.2290131496062993
21
-4.5693724409448819
0
LINE
8
BLACK
6
CONTINUOUS
10
1.2290131496062993
20
-4.5693724409448819
11
1.2157613385826771
21
-4.564735433070866
0
LINE
8
BLACK
6
CONTINUOUS
10
1.2157613385826771
20
-4.564735433070866
11
1.2020736220472441
21
-4.5616112992125979
0
LINE
8
BLACK
6
CONTINUOUS
10
1.2020736220472441
20
-4.5616112992125979
11
1.1881222047244093
21
-4.5600393700787398
0
LINE
8
BLACK
6
CONTINUOUS
10
1.1881222047244093
20
-4.5600393700787398
11
1.1740825196850393
21
-4.5600393700787398
0
LINE
8
BLACK
6
CONTINUOUS
10
1.1740825196850393
20
-4.5600393700787398
11
1.1601311023622047
21
-4.5616112992125979
0
LINE
8
BLACK
6
CONTINUOUS
10
1.1601311023622047
20
-4.5616112992125979
11
1.1464433858267715
21
-4.564735433070866
0
LINE
8
BLACK
6
CONTINUOUS
10
1.1464433858267715
20
-4.564735433070866
11
1.1331915748031496
21
-4.5693724409448819
0
LINE
8
BLACK
6
CONTINUOUS
10
1.1331915748031496
20
-4.5693724409448819
11
1.1205422047244094
21
-4.5754640551181103
0
LINE
8
BLACK
6
CONTINUOUS
10
1.1205422047244094
20
-4.5754640551181103
11
1.1086544881889764
21
-4.5829336220472436
0
LINE
8
BLACK
6
CONTINUOUS
10
1.1086544881889764
20
-4.5829336220472436
11
1.0976777952755905
21
-4.591687244094488
0
LINE
8
BLACK
6
CONTINUOUS
10
1.0976777952755905
20
-4.591687244094488
11
1.0877502362204725
21
-4.601614803149606
0
LINE
8
BLACK
6
CONTINUOUS
10
1.0877502362204725
20
-4.601614803149606
11
1.0789966141732283
21
-4.6125914960629917
0
LINE
8
BLACK
6
CONTINUOUS
10
1.0789966141732283
20
-4.6125914960629917
11
1.0715270472440945
21
-4.6244792125984251
0
LINE
8
BLACK
6
CONTINUOUS
10
1.0715270472440945
20
-4.6244792125984251
11
1.0654354330708662
21
-4.6371285826771649
0
LINE
8
BLACK
6
CONTINUOUS
10
1.0654354330708662
20
-4.6371285826771649
11
1.0607984251968503
21
-4.6503803937007877
0
LINE
8
BLACK
6
CONTINUOUS
10
1.0607984251968503
20
-4.6503803937007877
11
1.0576742913385826
21
-4.6640681102362205
0
LINE
8
BLACK
6
CONTINUOUS
10
1.0576742913385826
20
-4.6640681102362205
11
1.0561023622047243
21
-4.678019527559055
0
LINE
8
BLACK
6
CONTINUOUS
10
1.0561023622047243
20
-4.678019527559055
11
1.0561023622047243
21
-4.6920592125984255
0
LINE
8
BLACK
6
CONTINUOUS
10
4.1551262992125979
20
-4.5598648031496065
11
4.1690076771653546
21
-4.5630331496062988
0
LINE
8
BLACK
6
CONTINUOUS
10
4.1690076771653546
20
-4.5630331496062988
11
4.1824470078740159
21
-4.5677357874015749
0
LINE
8
BLACK
6
CONTINUOUS
10
4.1824470078740159
20
-4.5677357874015749
11
4.1952753149606297
21
-4.5739135433070865
0
LINE
8
BLACK
6
CONTINUOUS
10
4.1952753149606297
20
-4.5739135433070865
11
4.2073312992125986
21
-4.5814888188976379
0
LINE
8
BLACK
6
CONTINUOUS
10
4.2073312992125986
20
-4.5814888188976379
11
4.2184633070866138
21
-4.5903662992125982
0
LINE
8
BLACK
6
CONTINUOUS
10
4.2184633070866138
20
-4.5903662992125982
11
4.2285313385826768
21
-4.6004343307086613
0
LINE
8
BLACK
6
CONTINUOUS
10
4.2285313385826768
20
-4.6004343307086613
11
4.237408818897638
21
-4.6115663385826773
0
LINE
8
BLACK
6
CONTINUOUS
10
4.237408818897638
20
-4.6115663385826773
11
4.2449840944881885
21
-4.6236223228346454
0
LINE
8
BLACK
6
CONTINUOUS
10
4.2449840944881885
20
-4.6236223228346454
11
4.251161850393701
21
-4.63645062992126
0
LINE
8
BLACK
6
CONTINUOUS
10
4.251161850393701
20
-4.63645062992126
11
4.2558644881889762
21
-4.6498899606299213
0
LINE
8
BLACK
6
CONTINUOUS
10
4.2558644881889762
20
-4.6498899606299213
11
4.2590328346456694
21
-4.6637713385826771
0
LINE
8
BLACK
6
CONTINUOUS
10
4.2590328346456694
20
-4.6637713385826771
11
4.2606270078740156
21
-4.6779201968503932
0
LINE
8
BLACK
6
CONTINUOUS
10
4.2606270078740156
20
-4.6779201968503932
11
4.2606270078740156
21
-4.6921585433070865
0
LINE
8
BLACK
6
CONTINUOUS
10
4.2606270078740156
20
-4.6921585433070865
11
4.2590328346456694
21
-4.7063074015748034
0
LINE
8
BLACK
6
CONTINUOUS
10
4.2590328346456694
20
-4.7063074015748034
11
4.2558644881889762
21
-4.7201887795275592
0
LINE
8
BLACK
6
CONTINUOUS
10
4.2558644881889762
20
-4.7201887795275592
11
4.251161850393701
21
-4.7336281102362205
0
LINE
8
BLACK
6
CONTINUOUS
10
4.251161850393701
20
-4.7336281102362205
11
4.2449840944881885
21
-4.7464564173228343
0
LINE
8
BLACK
6
CONTINUOUS
10
4.2449840944881885
20
-4.7464564173228343
11
4.237408818897638
21
-4.7585124015748033
0
LINE
8
BLACK
6
CONTINUOUS
10
4.237408818897638
20
-4.7585124015748033
11
4.2285313385826768
21
-4.7696444094488184
0
LINE
8
BLACK
6
CONTINUOUS
10
4.2285313385826768
20
-4.7696444094488184
11
4.2184633070866138
21
-4.7797124409448815
0
LINE
8
BLACK
6
CONTINUOUS
10
4.2184633070866138
20
-4.7797124409448815
11
4.2073312992125986
21
-4.7885899212598426
0
LINE
8
BLACK
6
CONTINUOUS
10
4.2073312992125986
20
-4.7885899212598426
11
4.1952753149606297
21
-4.796165196850394
0
LINE
8
BLACK
6
CONTINUOUS
10
4.1952753149606297
20
-4.796165196850394
11
4.1824470078740159
21
-4.8023429527559056
0
LINE
8
BLACK
6
CONTINUOUS
10
4.1824470078740159
20
-4.8023429527559056
11
4.1690076771653546
21
-4.8070455905511809
0
LINE
8
BLACK
6
CONTINUOUS
10
4.1690076771653546
20
-4.8070455905511809
11
4.1551262992125979
21
-4.810213937007874
0
LINE
8
BLACK
6
CONTINUOUS
10
4.1551262992125979
20
-4.810213937007874
11
4.1409774409448818
21
-4.8118081102362202
0
LINE
8
BLACK
6
CONTINUOUS
10
4.1409774409448818
20
-4.8118081102362202
11
4.1267390944881885
21
-4.8118081102362202
0
LINE
8
BLACK
6
CONTINUOUS
10
4.1267390944881885
20
-4.8118081102362202
11
4.1125902362204725
21
-4.810213937007874
0
LINE
8
BLACK
6
CONTINUOUS
10
4.1125902362204725
20
-4.810213937007874
11
4.0987088582677167
21
-4.8070455905511809
0
LINE
8
BLACK
6
CONTINUOUS
10
4.0987088582677167
20
-4.8070455905511809
11
4.0852695275590554
21
-4.8023429527559056
0
LINE
8
BLACK
6
CONTINUOUS
10
4.0852695275590554
20
-4.8023429527559056
11
4.0724412204724407
21
-4.796165196850394
0
LINE
8
BLACK
6
CONTINUOUS
10
4.0724412204724407
20
-4.796165196850394
11
4.0603852362204726
21
-4.7885899212598426
0
LINE
8
BLACK
6
CONTINUOUS
10
4.0603852362204726
20
-4.7885899212598426
11
4.0492532283464566
21
-4.7797124409448815
0
LINE
8
BLACK
6
CONTINUOUS
10
4.0492532283464566
20
-4.7797124409448815
11
4.0391851968503936
21
-4.7696444094488184
0
LINE
8
BLACK
6
CONTINUOUS
10
4.0391851968503936
20
-4.7696444094488184
11
4.0303077165354333
21
-4.7585124015748033
0
LINE
8
BLACK
6
CONTINUOUS
10
4.0303077165354333
20
-4.7585124015748033
11
4.0227324409448819
21
-4.7464564173228343
0
LINE
8
BLACK
6
CONTINUOUS
10
4.0227324409448819
20
-4.7464564173228343
11
4.0165546850393703
21
-4.7336281102362205
0
LINE
8
BLACK
6
CONTINUOUS
10
4.0165546850393703
20
-4.7336281102362205
11
4.0118520472440942
21
-4.7201887795275592
0
LINE
8
BLACK
6
CONTINUOUS
10
4.0118520472440942
20
-4.7201887795275592
11
4.0086837007874019
21
-4.7063074015748034
0
LINE
8
BLACK
6
CONTINUOUS
10
4.0086837007874019
20
-4.7063074015748034
11
4.0070895275590548
21
-4.6921585433070865
0
LINE
8
BLACK
6
CONTINUOUS
10
4.0070895275590548
20
-4.6921585433070865
11
4.0070895275590548
21
-4.678019527559055
0
LINE
8
BLACK
6
CONTINUOUS
10
4.0070895275590548
20
-4.678019527559055
11
4.0070895275590548
21
-4.6779201968503932
0
LINE
8
BLACK
6
CONTINUOUS
10
4.0070895275590548
20
-4.6779201968503932
11
4.0086837007874019
21
-4.6637713385826771
0
LINE
8
BLACK
6
CONTINUOUS
10
4.0086837007874019
20
-4.6637713385826771
11
4.0118520472440942
21
-4.6498899606299213
0
LINE
8
BLACK
6
CONTINUOUS
10
4.0118520472440942
20
-4.6498899606299213
11
4.0165546850393703
21
-4.63645062992126
0
LINE
8
BLACK
6
CONTINUOUS
10
4.0165546850393703
20
-4.63645062992126
11
4.0227324409448819
21
-4.6236223228346454
0
LINE
8
BLACK
6
CONTINUOUS
10
4.0227324409448819
20
-4.6236223228346454
11
4.0303077165354333
21
-4.6115663385826773
0
LINE
8
BLACK
6
CONTINUOUS
10
4.0303077165354333
20
-4.6115663385826773
11
4.0391851968503936
21
-4.6004343307086613
0
LINE
8
BLACK
6
CONTINUOUS
10
4.0391851968503936
20
-4.6004343307086613
11
4.0492532283464566
21
-4.5903662992125982
0
LINE
8
BLACK
6
CONTINUOUS
10
4.0492532283464566
20
-4.5903662992125982
11
4.0603852362204726
21
-4.5814888188976379
0
LINE
8
BLACK
6
CONTINUOUS
10
4.0603852362204726
20
-4.5814888188976379
11
4.0724412204724407
21
-4.5739135433070865
0
LINE
8
BLACK
6
CONTINUOUS
10
4.0724412204724407
20
-4.5739135433070865
11
4.0852695275590554
21
-4.5677357874015749
0
LINE
8
BLACK
6
CONTINUOUS
10
4.0852695275590554
20
-4.5677357874015749
11
4.0987088582677167
21
-4.5630331496062988
0
LINE
8
BLACK
6
CONTINUOUS
10
4.0987088582677167
20
-4.5630331496062988
11
4.1125902362204725
21
-4.5598648031496065
0
LINE
8
BLACK
6
CONTINUOUS
10
4.1125902362204725
20
-4.5598648031496065
11
4.1267390944881885
21
-4.5582706299212594
0
LINE
8
BLACK
6
CONTINUOUS
10
4.1267390944881885
20
-4.5582706299212594
11
4.1409774409448818
21
-4.5582706299212594
0
LINE
8
BLACK
6
CONTINUOUS
10
4.1409774409448818
20
-4.5582706299212594
11
4.1551262992125979
21
-4.5598648031496065
0
LINE
8
BLACK
6
CONTINUOUS
10
4.0088582677165352
20
-4.6920592125984255
11
4.0104301968503933
21
-4.7060106299212601
0
LINE
8
BLACK
6
CONTINUOUS
10
4.0104301968503933
20
-4.7060106299212601
11
4.0135543307086614
21
-4.7196983464566928
0
LINE
8
BLACK
6
CONTINUOUS
10
4.0135543307086614
20
-4.7196983464566928
11
4.0181913385826773
21
-4.7329501574803148
0
LINE
8
BLACK
6
CONTINUOUS
10
4.0181913385826773
20
-4.7329501574803148
11
4.0242829527559056
21
-4.7455995275590555
0
LINE
8
BLACK
6
CONTINUOUS
10
4.0242829527559056
20
-4.7455995275590555
11
4.031752519685039
21
-4.757487244094488
0
LINE
8
BLACK
6
CONTINUOUS
10
4.031752519685039
20
-4.757487244094488
11
4.0405061417322834
21
-4.7684639370078736
0
LINE
8
BLACK
6
CONTINUOUS
10
4.0405061417322834
20
-4.7684639370078736
11
4.0504337007874014
21
-4.7783914960629916
0
LINE
8
BLACK
6
CONTINUOUS
10
4.0504337007874014
20
-4.7783914960629916
11
4.061410393700787
21
-4.787145118110236
0
LINE
8
BLACK
6
CONTINUOUS
10
4.061410393700787
20
-4.787145118110236
11
4.0732981102362205
21
-4.7946146850393703
0
LINE
8
BLACK
6
CONTINUOUS
10
4.0732981102362205
20
-4.7946146850393703
11
4.0859474803149602
21
-4.8007062992125986
0
LINE
8
BLACK
6
CONTINUOUS
10
4.0859474803149602
20
-4.8007062992125986
11
4.0991992913385822
21
-4.8053433070866145
0
LINE
8
BLACK
6
CONTINUOUS
10
4.0991992913385822
20
-4.8053433070866145
11
4.1128870078740158
21
-4.8084674409448818
0
LINE
8
BLACK
6
CONTINUOUS
10
4.1128870078740158
20
-4.8084674409448818
11
4.1268384251968504
21
-4.8100393700787398
0
LINE
8
BLACK
6
CONTINUOUS
10
4.1268384251968504
20
-4.8100393700787398
11
4.14087811023622
21
-4.8100393700787398
0
LINE
8
BLACK
6
CONTINUOUS
10
4.14087811023622
20
-4.8100393700787398
11
4.1548295275590554
21
-4.8084674409448818
0
LINE
8
BLACK
6
CONTINUOUS
10
4.1548295275590554
20
-4.8084674409448818
11
4.1685172440944882
21
-4.8053433070866145
0
LINE
8
BLACK
6
CONTINUOUS
10
4.1685172440944882
20
-4.8053433070866145
11
4.1817690551181101
21
-4.8007062992125986
0
LINE
8
BLACK
6
CONTINUOUS
10
4.1817690551181101
20
-4.8007062992125986
11
4.1944184251968499
21
-4.7946146850393703
0
LINE
8
BLACK
6
CONTINUOUS
10
4.1944184251968499
20
-4.7946146850393703
11
4.2063061417322833
21
-4.787145118110236
0
LINE
8
BLACK
6
CONTINUOUS
10
4.2063061417322833
20
-4.787145118110236
11
4.217282834645669
21
-4.7783914960629916
0
LINE
8
BLACK
6
CONTINUOUS
10
4.217282834645669
20
-4.7783914960629916
11
4.227210393700787
21
-4.7684639370078736
0
LINE
8
BLACK
6
CONTINUOUS
10
4.227210393700787
20
-4.7684639370078736
11
4.2359640157480314
21
-4.757487244094488
0
LINE
8
BLACK
6
CONTINUOUS
10
4.2359640157480314
20
-4.757487244094488
11
4.2434335826771656
21
-4.7455995275590555
0
LINE
8
BLACK
6
CONTINUOUS
10
4.2434335826771656
20
-4.7455995275590555
11
4.249525196850394
21
-4.7329501574803148
0
LINE
8
BLACK
6
CONTINUOUS
10
4.249525196850394
20
-4.7329501574803148
11
4.254162204724409
21
-4.7196983464566928
0
LINE
8
BLACK
6
CONTINUOUS
10
4.254162204724409
20
-4.7196983464566928
11
4.2572863385826771
21
-4.7060106299212601
0
LINE
8
BLACK
6
CONTINUOUS
10
4.2572863385826771
20
-4.7060106299212601
11
4.2588582677165352
21
-4.6920592125984255
0
LINE
8
BLACK
6
CONTINUOUS
10
4.2588582677165352
20
-4.6920592125984255
11
4.2588582677165352
21
-4.678019527559055
0
LINE
8
BLACK
6
CONTINUOUS
10
4.2588582677165352
20
-4.678019527559055
11
4.2572863385826771
21
-4.6640681102362205
0
LINE
8
BLACK
6
CONTINUOUS
10
4.2572863385826771
20
-4.6640681102362205
11
4.254162204724409
21
-4.6503803937007877
0
LINE
8
BLACK
6
CONTINUOUS
10
4.254162204724409
20
-4.6503803937007877
11
4.249525196850394
21
-4.6371285826771649
0
LINE
8
BLACK
6
CONTINUOUS
10
4.249525196850394
20
-4.6371285826771649
11
4.2434335826771656
21
-4.6244792125984251
0
LINE
8
BLACK
6
CONTINUOUS
10
4.2434335826771656
20
-4.6244792125984251
11
4.2359640157480314
21
-4.6125914960629917
0
LINE
8
BLACK
6
CONTINUOUS
10
4.2359640157480314
20
-4.6125914960629917
11
4.227210393700787
21
-4.601614803149606
0
LINE
8
BLACK
6
CONTINUOUS
10
4.227210393700787
20
-4.601614803149606
11
4.217282834645669
21
-4.591687244094488
0
LINE
8
BLACK
6
CONTINUOUS
10
4.217282834645669
20
-4.591687244094488
11
4.2063061417322833
21
-4.5829336220472436
0
LINE
8
BLACK
6
CONTINUOUS
10
4.2063061417322833
20
-4.5829336220472436
11
4.1944184251968499
21
-4.5754640551181103
0
LINE
8
BLACK
6
CONTINUOUS
10
4.1944184251968499
20
-4.5754640551181103
11
4.1817690551181101
21
-4.5693724409448819
0
LINE
8
BLACK
6
CONTINUOUS
10
4.1817690551181101
20
-4.5693724409448819
11
4.1685172440944882
21
-4.564735433070866
0
LINE
8
BLACK
6
CONTINUOUS
10
4.1685172440944882
20
-4.564735433070866
11
4.1548295275590554
21
-4.5616112992125979
0
LINE
8
BLACK
6
CONTINUOUS
10
4.1548295275590554
20
-4.5616112992125979
11
4.14087811023622
21
-4.5600393700787398
0
LINE
8
BLACK
6
CONTINUOUS
10
4.14087811023622
20
-4.5600393700787398
11
4.1268384251968504
21
-4.5600393700787398
0
LINE
8
BLACK
6
CONTINUOUS
10
4.1268384251968504
20
-4.5600393700787398
11
4.1128870078740158
21
-4.5616112992125979
0
LINE
8
BLACK
6
CONTINUOUS
10
4.1128870078740158
20
-4.5616112992125979
11
4.0991992913385822
21
-4.564735433070866
0
LINE
8
BLACK
6
CONTINUOUS
10
4.0991992913385822
20
-4.564735433070866
11
4.0859474803149602
21
-4.5693724409448819
0
LINE
8
BLACK
6
CONTINUOUS
10
4.0859474803149602
20
-4.5693724409448819
11
4.0732981102362205
21
-4.5754640551181103
0
LINE
8
BLACK
6
CONTINUOUS
10
4.0732981102362205
20
-4.5754640551181103
11
4.061410393700787
21
-4.5829336220472436
0
LINE
8
BLACK
6
CONTINUOUS
10
4.061410393700787
20
-4.5829336220472436
11
4.0504337007874014
21
-4.591687244094488
0
LINE
8
BLACK
6
CONTINUOUS
10
4.0504337007874014
20
-4.591687244094488
11
4.0405061417322834
21
-4.601614803149606
0
LINE
8
BLACK
6
CONTINUOUS
10
4.0405061417322834
20
-4.601614803149606
11
4.031752519685039
21
-4.6125914960629917
0
LINE
8
BLACK
6
CONTINUOUS
10
4.031752519685039
20
-4.6125914960629917
11
4.0242829527559056
21
-4.6244792125984251
0
LINE
8
BLACK
6
CONTINUOUS
10
4.0242829527559056
20
-4.6244792125984251
11
4.0181913385826773
21
-4.6371285826771649
0
LINE
8
BLACK
6
CONTINUOUS
10
4.0181913385826773
20
-4.6371285826771649
11
4.0135543307086614
21
-4.6503803937007877
0
LINE
8
BLACK
6
CONTINUOUS
10
4.0135543307086614
20
-4.6503803937007877
11
4.0104301968503933
21
-4.6640681102362205
0
LINE
8
BLACK
6
CONTINUOUS
10
4.0104301968503933
20
-4.6640681102362205
11
4.0088582677165352
21
-4.678019527559055
0
LINE
8
BLACK
6
CONTINUOUS
10
4.0088582677165352
20
-4.678019527559055
11
4.0088582677165352
21
-4.6920592125984255
0
LINE
8
BLACK
6
CONTINUOUS
10
7.107882204724409
20
-4.5598648031496065
11
7.1217635826771648
21
-4.5630331496062988
0
LINE
8
BLACK
6
CONTINUOUS
10
7.1217635826771648
20
-4.5630331496062988
11
7.135202913385827
21
-4.5677357874015749
0
LINE
8
BLACK
6
CONTINUOUS
10
7.135202913385827
20
-4.5677357874015749
11
7.1480312204724408
21
-4.5739135433070865
0
LINE
8
BLACK
6
CONTINUOUS
10
7.1480312204724408
20
-4.5739135433070865
11
7.1600872047244088
21
-4.5814888188976379
0
LINE
8
BLACK
6
CONTINUOUS
10
7.1600872047244088
20
-4.5814888188976379
11
7.1712192125984249
21
-4.5903662992125982
0
LINE
8
BLACK
6
CONTINUOUS
10
7.1712192125984249
20
-4.5903662992125982
11
7.1812872440944879
21
-4.6004343307086613
0
LINE
8
BLACK
6
CONTINUOUS
10
7.1812872440944879
20
-4.6004343307086613
11
7.1901647244094491
21
-4.6115663385826773
0
LINE
8
BLACK
6
CONTINUOUS
10
7.1901647244094491
20
-4.6115663385826773
11
7.1977399999999996
21
-4.6236223228346454
0
LINE
8
BLACK
6
CONTINUOUS
10
7.1977399999999996
20
-4.6236223228346454
11
7.2039177559055121
21
-4.63645062992126
0
LINE
8
BLACK
6
CONTINUOUS
10
7.2039177559055121
20
-4.63645062992126
11
7.2086203937007873
21
-4.6498899606299213
0
LINE
8
BLACK
6
CONTINUOUS
10
7.2086203937007873
20
-4.6498899606299213
11
7.2117887401574805
21
-4.6637713385826771
0
LINE
8
BLACK
6
CONTINUOUS
10
7.2117887401574805
20
-4.6637713385826771
11
7.2133829133858267
21
-4.6779201968503932
0
LINE
8
BLACK
6
CONTINUOUS
10
7.2133829133858267
20
-4.6779201968503932
11
7.2133829133858267
21
-4.6921585433070865
0
LINE
8
BLACK
6
CONTINUOUS
10
7.2133829133858267
20
-4.6921585433070865
11
7.2117887401574805
21
-4.7063074015748034
0
LINE
8
BLACK
6
CONTINUOUS
10
7.2117887401574805
20
-4.7063074015748034
11
7.2086203937007873
21
-4.7201887795275592
0
LINE
8
BLACK
6
CONTINUOUS
10
7.2086203937007873
20
-4.7201887795275592
11
7.2039177559055121
21
-4.7336281102362205
0
LINE
8
BLACK
6
CONTINUOUS
10
7.2039177559055121
20
-4.7336281102362205
11
7.1977399999999996
21
-4.7464564173228343
0
LINE
8
BLACK
6
CONTINUOUS
10
7.1977399999999996
20
-4.7464564173228343
11
7.1901647244094491
21
-4.7585124015748033
0
LINE
8
BLACK
6
CONTINUOUS
10
7.1901647244094491
20
-4.7585124015748033
11
7.1812872440944879
21
-4.7696444094488184
0
LINE
8
BLACK
6
CONTINUOUS
10
7.1812872440944879
20
-4.7696444094488184
11
7.1712192125984249
21
-4.7797124409448815
0
LINE
8
BLACK
6
CONTINUOUS
10
7.1712192125984249
20
-4.7797124409448815
11
7.1600872047244088
21
-4.7885899212598426
0
LINE
8
BLACK
6
CONTINUOUS
10
7.1600872047244088
20
-4.7885899212598426
11
7.1480312204724408
21
-4.796165196850394
0
LINE
8
BLACK
6
CONTINUOUS
10
7.1480312204724408
20
-4.796165196850394
11
7.135202913385827
21
-4.8023429527559056
0
LINE
8
BLACK
6
CONTINUOUS
10
7.135202913385827
20
-4.8023429527559056
11
7.1217635826771648
21
-4.8070455905511809
0
LINE
8
BLACK
6
CONTINUOUS
10
7.1217635826771648
20
-4.8070455905511809
11
7.107882204724409
21
-4.810213937007874
0
LINE
8
BLACK
6
CONTINUOUS
10
7.107882204724409
20
-4.810213937007874
11
7.093733346456693
21
-4.8118081102362202
0
LINE
8
BLACK
6
CONTINUOUS
10
7.093733346456693
20
-4.8118081102362202
11
7.0794949999999996
21
-4.8118081102362202
0
LINE
8
BLACK
6
CONTINUOUS
10
7.0794949999999996
20
-4.8118081102362202
11
7.0653461417322836
21
-4.810213937007874
0
LINE
8
BLACK
6
CONTINUOUS
10
7.0653461417322836
20
-4.810213937007874
11
7.0514647637795278
21
-4.8070455905511809
0
LINE
8
BLACK
6
CONTINUOUS
10
7.0514647637795278
20
-4.8070455905511809
11
7.0380254330708656
21
-4.8023429527559056
0
LINE
8
BLACK
6
CONTINUOUS
10
7.0380254330708656
20
-4.8023429527559056
11
7.0251971259842518
21
-4.796165196850394
0
LINE
8
BLACK
6
CONTINUOUS
10
7.0251971259842518
20
-4.796165196850394
11
7.0131411417322829
21
-4.7885899212598426
0
LINE
8
BLACK
6
CONTINUOUS
10
7.0131411417322829
20
-4.7885899212598426
11
7.0020091338582677
21
-4.7797124409448815
0
LINE
8
BLACK
6
CONTINUOUS
10
7.0020091338582677
20
-4.7797124409448815
11
6.9919411023622047
21
-4.7696444094488184
0
LINE
8
BLACK
6
CONTINUOUS
10
6.9919411023622047
20
-4.7696444094488184
11
6.9830636220472435
21
-4.7585124015748033
0
LINE
8
BLACK
6
CONTINUOUS
10
6.9830636220472435
20
-4.7585124015748033
11
6.975488346456693
21
-4.7464564173228343
0
LINE
8
BLACK
6
CONTINUOUS
10
6.975488346456693
20
-4.7464564173228343
11
6.9693105905511805
21
-4.7336281102362205
0
LINE
8
BLACK
6
CONTINUOUS
10
6.9693105905511805
20
-4.7336281102362205
11
6.9646079527559053
21
-4.7201887795275592
0
LINE
8
BLACK
6
CONTINUOUS
10
6.9646079527559053
20
-4.7201887795275592
11
6.9614396062992121
21
-4.7063074015748034
0
LINE
8
BLACK
6
CONTINUOUS
10
6.9614396062992121
20
-4.7063074015748034
11
6.9598454330708659
21
-4.6921585433070865
0
LINE
8
BLACK
6
CONTINUOUS
10
6.9598454330708659
20
-4.6921585433070865
11
6.9598454330708659
21
-4.678019527559055
0
LINE
8
BLACK
6
CONTINUOUS
10
6.9598454330708659
20
-4.678019527559055
11
6.9598454330708659
21
-4.6779201968503932
0
LINE
8
BLACK
6
CONTINUOUS
10
6.9598454330708659
20
-4.6779201968503932
11
6.9614396062992121
21
-4.6637713385826771
0
LINE
8
BLACK
6
CONTINUOUS
10
6.9614396062992121
20
-4.6637713385826771
11
6.9646079527559053
21
-4.6498899606299213
0
LINE
8
BLACK
6
CONTINUOUS
10
6.9646079527559053
20
-4.6498899606299213
11
6.9693105905511805
21
-4.63645062992126
0
LINE
8
BLACK
6
CONTINUOUS
10
6.9693105905511805
20
-4.63645062992126
11
6.975488346456693
21
-4.6236223228346454
0
LINE
8
BLACK
6
CONTINUOUS
10
6.975488346456693
20
-4.6236223228346454
11
6.9830636220472435
21
-4.6115663385826773
0
LINE
8
BLACK
6
CONTINUOUS
10
6.9830636220472435
20
-4.6115663385826773
11
6.9919411023622047
21
-4.6004343307086613
0
LINE
8
BLACK
6
CONTINUOUS
10
6.9919411023622047
20
-4.6004343307086613
11
7.0020091338582677
21
-4.5903662992125982
0
LINE
8
BLACK
6
CONTINUOUS
10
7.0020091338582677
20
-4.5903662992125982
11
7.0131411417322829
21
-4.5814888188976379
0
LINE
8
BLACK
6
CONTINUOUS
10
7.0131411417322829
20
-4.5814888188976379
11
7.0251971259842518
21
-4.5739135433070865
0
LINE
8
BLACK
6
CONTINUOUS
10
7.0251971259842518
20
-4.5739135433070865
11
7.0380254330708656
21
-4.5677357874015749
0
LINE
8
BLACK
6
CONTINUOUS
10
7.0380254330708656
20
-4.5677357874015749
11
7.0514647637795278
21
-4.5630331496062988
0
LINE
8
BLACK
6
CONTINUOUS
10
7.0514647637795278
20
-4.5630331496062988
11
7.0653461417322836
21
-4.5598648031496065
0
LINE
8
BLACK
6
CONTINUOUS
10
7.0653461417322836
20
-4.5598648031496065
11
7.0794949999999996
21
-4.5582706299212594
0
LINE
8
BLACK
6
CONTINUOUS
10
7.0794949999999996
20
-4.5582706299212594
11
7.093733346456693
21
-4.5582706299212594
0
LINE
8
BLACK
6
CONTINUOUS
10
7.093733346456693
20
-4.5582706299212594
11
7.107882204724409
21
-4.5598648031496065
0
LINE
8
BLACK
6
CONTINUOUS
10
6.9616141732283463
20
-4.6920592125984255
11
6.9631861023622044
21
-4.7060106299212601
0
LINE
8
BLACK
6
CONTINUOUS
10
6.9631861023622044
20
-4.7060106299212601
11
6.9663102362204725
21
-4.7196983464566928
0
LINE
8
BLACK
6
CONTINUOUS
10
6.9663102362204725
20
-4.7196983464566928
11
6.9709472440944884
21
-4.7329501574803148
0
LINE
8
BLACK
6
CONTINUOUS
10
6.9709472440944884
20
-4.7329501574803148
11
6.9770388582677167
21
-4.7455995275590555
0
LINE
8
BLACK
6
CONTINUOUS
10
6.9770388582677167
20
-4.7455995275590555
11
6.9845084251968501
21
-4.757487244094488
0
LINE
8
BLACK
6
CONTINUOUS
10
6.9845084251968501
20
-4.757487244094488
11
6.9932620472440945
21
-4.7684639370078736
0
LINE
8
BLACK
6
CONTINUOUS
10
6.9932620472440945
20
-4.7684639370078736
11
7.0031896062992125
21
-4.7783914960629916
0
LINE
8
BLACK
6
CONTINUOUS
10
7.0031896062992125
20
-4.7783914960629916
11
7.0141662992125982
21
-4.787145118110236
0
LINE
8
BLACK
6
CONTINUOUS
10
7.0141662992125982
20
-4.787145118110236
11
7.0260540157480316
21
-4.7946146850393703
0
LINE
8
BLACK
6
CONTINUOUS
10
7.0260540157480316
20
-4.7946146850393703
11
7.0387033858267714
21
-4.8007062992125986
0
LINE
8
BLACK
6
CONTINUOUS
10
7.0387033858267714
20
-4.8007062992125986
11
7.0519551968503933
21
-4.8053433070866145
0
LINE
8
BLACK
6
CONTINUOUS
10
7.0519551968503933
20
-4.8053433070866145
11
7.065642913385827
21
-4.8084674409448818
0
LINE
8
BLACK
6
CONTINUOUS
10
7.065642913385827
20
-4.8084674409448818
11
7.0795943307086615
21
-4.8100393700787398
0
LINE
8
BLACK
6
CONTINUOUS
10
7.0795943307086615
20
-4.8100393700787398
11
7.0936340157480311
21
-4.8100393700787398
0
LINE
8
BLACK
6
CONTINUOUS
10
7.0936340157480311
20
-4.8100393700787398
11
7.1075854330708657
21
-4.8084674409448818
0
LINE
8
BLACK
6
CONTINUOUS
10
7.1075854330708657
20
-4.8084674409448818
11
7.1212731496062993
21
-4.8053433070866145
0
LINE
8
BLACK
6
CONTINUOUS
10
7.1212731496062993
20
-4.8053433070866145
11
7.1345249606299213
21
-4.8007062992125986
0
LINE
8
BLACK
6
CONTINUOUS
10
7.1345249606299213
20
-4.8007062992125986
11
7.147174330708661
21
-4.7946146850393703
0
LINE
8
BLACK
6
CONTINUOUS
10
7.147174330708661
20
-4.7946146850393703
11
7.1590620472440945
21
-4.787145118110236
0
LINE
8
BLACK
6
CONTINUOUS
10
7.1590620472440945
20
-4.787145118110236
11
7.1700387401574801
21
-4.7783914960629916
0
LINE
8
BLACK
6
CONTINUOUS
10
7.1700387401574801
20
-4.7783914960629916
11
7.1799662992125981
21
-4.7684639370078736
0
LINE
8
BLACK
6
CONTINUOUS
10
7.1799662992125981
20
-4.7684639370078736
11
7.1887199212598425
21
-4.757487244094488
0
LINE
8
BLACK
6
CONTINUOUS
10
7.1887199212598425
20
-4.757487244094488
11
7.1961894881889759
21
-4.7455995275590555
0
LINE
8
BLACK
6
CONTINUOUS
10
7.1961894881889759
20
-4.7455995275590555
11
7.2022811023622042
21
-4.7329501574803148
0
LINE
8
BLACK
6
CONTINUOUS
10
7.2022811023622042
20
-4.7329501574803148
11
7.2069181102362201
21
-4.7196983464566928
0
LINE
8
BLACK
6
CONTINUOUS
10
7.2069181102362201
20
-4.7196983464566928
11
7.2100422440944882
21
-4.7060106299212601
0
LINE
8
BLACK
6
CONTINUOUS
10
7.2100422440944882
20
-4.7060106299212601
11
7.2116141732283463
21
-4.6920592125984255
0
LINE
8
BLACK
6
CONTINUOUS
10
7.2116141732283463
20
-4.6920592125984255
11
7.2116141732283463
21
-4.678019527559055
0
LINE
8
BLACK
6
CONTINUOUS
10
7.2116141732283463
20
-4.678019527559055
11
7.2100422440944882
21
-4.6640681102362205
0
LINE
8
BLACK
6
CONTINUOUS
10
7.2100422440944882
20
-4.6640681102362205
11
7.2069181102362201
21
-4.6503803937007877
0
LINE
8
BLACK
6
CONTINUOUS
10
7.2069181102362201
20
-4.6503803937007877
11
7.2022811023622042
21
-4.6371285826771649
0
LINE
8
BLACK
6
CONTINUOUS
10
7.2022811023622042
20
-4.6371285826771649
11
7.1961894881889759
21
-4.6244792125984251
0
LINE
8
BLACK
6
CONTINUOUS
10
7.1961894881889759
20
-4.6244792125984251
11
7.1887199212598425
21
-4.6125914960629917
0
LINE
8
BLACK
6
CONTINUOUS
10
7.1887199212598425
20
-4.6125914960629917
11
7.1799662992125981
21
-4.601614803149606
0
LINE
8
BLACK
6
CONTINUOUS
10
7.1799662992125981
20
-4.601614803149606
11
7.1700387401574801
21
-4.591687244094488
0
LINE
8
BLACK
6
CONTINUOUS
10
7.1700387401574801
20
-4.591687244094488
11
7.1590620472440945
21
-4.5829336220472436
0
LINE
8
BLACK
6
CONTINUOUS
10
7.1590620472440945
20
-4.5829336220472436
11
7.147174330708661
21
-4.5754640551181103
0
LINE
8
BLACK
6
CONTINUOUS
10
7.147174330708661
20
-4.5754640551181103
11
7.1345249606299213
21
-4.5693724409448819
0
LINE
8
BLACK
6
CONTINUOUS
10
7.1345249606299213
20
-4.5693724409448819
11
7.1212731496062993
21
-4.564735433070866
0
LINE
8
BLACK
6
CONTINUOUS
10
7.1212731496062993
20
-4.564735433070866
11
7.1075854330708657
21
-4.5616112992125979
0
LINE
8
BLACK
6
CONTINUOUS
10
7.1075854330708657
20
-4.5616112992125979
11
7.0936340157480311
21
-4.5600393700787398
0
LINE
8
BLACK
6
CONTINUOUS
10
7.0936340157480311
20
-4.5600393700787398
11
7.0795943307086615
21
-4.5600393700787398
0
LINE
8
BLACK
6
CONTINUOUS
10
7.0795943307086615
20
-4.5600393700787398
11
7.065642913385827
21
-4.5616112992125979
0
LINE
8
BLACK
6
CONTINUOUS
10
7.065642913385827
20
-4.5616112992125979
11
7.0519551968503933
21
-4.564735433070866
0
LINE
8
BLACK
6
CONTINUOUS
10
7.0519551968503933
20
-4.564735433070866
11
7.0387033858267714
21
-4.5693724409448819
0
LINE
8
BLACK
6
CONTINUOUS
10
7.0387033858267714
20
-4.5693724409448819
11
7.0260540157480316
21
-4.5754640551181103
0
LINE
8
BLACK
6
CONTINUOUS
10
7.0260540157480316
20
-4.5754640551181103
11
7.0141662992125982
21
-4.5829336220472436
0
LINE
8
BLACK
6
CONTINUOUS
10
7.0141662992125982
20
-4.5829336220472436
11
7.0031896062992125
21
-4.591687244094488
0
LINE
8
BLACK
6
CONTINUOUS
10
7.0031896062992125
20
-4.591687244094488
11
6.9932620472440945
21
-4.601614803149606
0
LINE
8
BLACK
6
CONTINUOUS
10
6.9932620472440945
20
-4.601614803149606
11
6.9845084251968501
21
-4.6125914960629917
0
LINE
8
BLACK
6
CONTINUOUS
10
6.9845084251968501
20
-4.6125914960629917
11
6.9770388582677167
21
-4.6244792125984251
0
LINE
8
BLACK
6
CONTINUOUS
10
6.9770388582677167
20
-4.6244792125984251
11
6.9709472440944884
21
-4.6371285826771649
0
LINE
8
BLACK
6
CONTINUOUS
10
6.9709472440944884
20
-4.6371285826771649
11
6.9663102362204725
21
-4.6503803937007877
0
LINE
8
BLACK
6
CONTINUOUS
10
6.9663102362204725
20
-4.6503803937007877
11
6.9631861023622044
21
-4.6640681102362205
0
LINE
8
BLACK
6
CONTINUOUS
10
6.9631861023622044
20
-4.6640681102362205
11
6.9616141732283463
21
-4.678019527559055
0
LINE
8
BLACK
6
CONTINUOUS
10
6.9616141732283463
20
-4.678019527559055
11
6.9616141732283463
21
-4.6920592125984255
0
LINE
8
BLACK
6
CONTINUOUS
10
4.803919960629921
20
-2.6201772834645669
11
4.8044526377952756
21
-2.6207099606299211
0
LINE
8
BLACK
6
CONTINUOUS
10
4.8044526377952756
20
-2.6207099606299211
11
4.804527559055118
21
-2.6210866141732283
0
LINE
8
BLACK
6
CONTINUOUS
10
4.804527559055118
20
-2.6210866141732283
11
4.804527559055118
21
-4.6604566929133862
0
LINE
8
BLACK
6
CONTINUOUS
10
4.804527559055118
20
-4.6604566929133862
11
4.8044526377952756
21
-4.6608333464566929
0
LINE
8
BLACK
6
CONTINUOUS
10
4.8044526377952756
20
-4.6608333464566929
11
4.803919960629921
21
-4.6613660236220475
0
LINE
8
BLACK
6
CONTINUOUS
10
4.803919960629921
20
-4.6613660236220475
11
4.8035433070866143
21
-4.6614409448818899
0
LINE
8
BLACK
6
CONTINUOUS
10
4.8035433070866143
20
-4.6614409448818899
11
4.5633858267716532
21
-4.6614409448818899
0
LINE
8
BLACK
6
CONTINUOUS
10
4.5633858267716532
20
-4.6614409448818899
11
4.5630091732283464
21
-4.6613660236220475
0
LINE
8
BLACK
6
CONTINUOUS
10
4.5630091732283464
20
-4.6613660236220475
11
4.5624764960629918
21
-4.6608333464566929
0
LINE
8
BLACK
6
CONTINUOUS
10
4.5624764960629918
20
-4.6608333464566929
11
4.5624015748031495
21
-4.6604566929133862
0
LINE
8
BLACK
6
CONTINUOUS
10
4.5624015748031495
20
-4.6604566929133862
11
4.5624015748031495
21
-2.6210866141732283
0
LINE
8
BLACK
6
CONTINUOUS
10
4.5624015748031495
20
-2.6210866141732283
11
4.5624764960629918
21
-2.6207099606299211
0
LINE
8
BLACK
6
CONTINUOUS
10
4.5624764960629918
20
-2.6207099606299211
11
4.5630091732283464
21
-2.6201772834645669
0
LINE
8
BLACK
6
CONTINUOUS
10
4.5630091732283464
20
-2.6201772834645669
11
4.5633858267716532
21
-2.6201023622047241
0
LINE
8
BLACK
6
CONTINUOUS
10
4.5633858267716532
20
-2.6201023622047241
11
4.8035433070866143
21
-2.6201023622047241
0
LINE
8
BLACK
6
CONTINUOUS
10
4.8035433070866143
20
-2.6201023622047241
11
4.803919960629921
21
-2.6201772834645669
0
LINE
8
BLACK
6
CONTINUOUS
10
4.5643700787401578
20
-2.622070866141732
11
4.5643700787401578
21
-4.6594724409448816
0
LINE
8
BLACK
6
CONTINUOUS
10
4.5643700787401578
20
-4.6594724409448816
11
4.8025590551181105
21
-4.6594724409448816
0
LINE
8
BLACK
6
CONTINUOUS
10
4.8025590551181105
20
-4.6594724409448816
11
4.8025590551181105
21
-2.622070866141732
0
LINE
8
BLACK
6
CONTINUOUS
10
4.8025590551181105
20
-2.622070866141732
11
4.5643700787401578
21
-2.622070866141732
0
LINE
8
BLACK
6
CONTINUOUS
10
6.2332506692913388
20
-2.8749016929133857
11
6.2337833464566925
21
-2.8754343700787399
0
LINE
8
BLACK
6
CONTINUOUS
10
6.2337833464566925
20
-2.8754343700787399
11
6.2338582677165357
21
-2.8758110236220471
0
LINE
8
BLACK
6
CONTINUOUS
10
6.2338582677165357
20
-2.8758110236220471
11
6.2338582677165357
21
-3.2163622047244096
0
LINE
8
BLACK
6
CONTINUOUS
10
6.2338582677165357
20
-3.2163622047244096
11
6.2337833464566925
21
-3.2167388582677163
0
LINE
8
BLACK
6
CONTINUOUS
10
6.2337833464566925
20
-3.2167388582677163
11
6.2332506692913388
21
-3.217271535433071
0
LINE
8
BLACK
6
CONTINUOUS
10
6.2332506692913388
20
-3.217271535433071
11
6.2328740157480311
21
-3.2173464566929133
0
LINE
8
BLACK
6
CONTINUOUS
10
6.2328740157480311
20
-3.2173464566929133
11
5.9927165354330709
21
-3.2173464566929133
0
LINE
8
BLACK
6
CONTINUOUS
10
5.9927165354330709
20
-3.2173464566929133
11
5.9923398818897633
21
-3.217271535433071
0
LINE
8
BLACK
6
CONTINUOUS
10
5.9923398818897633
20
-3.217271535433071
11
5.9918072047244095
21
-3.2167388582677163
0
LINE
8
BLACK
6
CONTINUOUS
10
5.9918072047244095
20
-3.2167388582677163
11
5.9917322834645672
21
-3.2163622047244096
0
LINE
8
BLACK
6
CONTINUOUS
10
5.9917322834645672
20
-3.2163622047244096
11
5.9917322834645672
21
-2.8758110236220471
0
LINE
8
BLACK
6
CONTINUOUS
10
5.9917322834645672
20
-2.8758110236220471
11
5.9918072047244095
21
-2.8754343700787399
0
LINE
8
BLACK
6
CONTINUOUS
10
5.9918072047244095
20
-2.8754343700787399
11
5.9923398818897633
21
-2.8749016929133857
0
LINE
8
BLACK
6
CONTINUOUS
10
5.9923398818897633
20
-2.8749016929133857
11
5.9927165354330709
21
-2.8748267716535434
0
LINE
8
BLACK
6
CONTINUOUS
10
5.9927165354330709
20
-2.8748267716535434
11
6.2328740157480311
21
-2.8748267716535434
0
LINE
8
BLACK
6
CONTINUOUS
10
6.2328740157480311
20
-2.8748267716535434
11
6.2332506692913388
21
-2.8749016929133857
0
LINE
8
BLACK
6
CONTINUOUS
10
5.9937007874015746
20
-2.8767952755905513
11
5.9937007874015746
21
-3.2153779527559054
0
LINE
8
BLACK
6
CONTINUOUS
10
5.9937007874015746
20
-3.2153779527559054
11
6.2318897637795274
21
-3.2153779527559054
0
LINE
8
BLACK
6
CONTINUOUS
10
6.2318897637795274
20
-3.2153779527559054
11
6.2318897637795274
21
-2.8767952755905513
0
LINE
8
BLACK
6
CONTINUOUS
10
6.2318897637795274
20
-2.8767952755905513
11
5.9937007874015746
21
-2.8767952755905513
0
LINE
8
BLACK
6
CONTINUOUS
10
1.2023703937007875
20
-2.5126207086614172
11
1.2162517716535433
21
-2.5157890551181104
0
LINE
8
BLACK
6
CONTINUOUS
10
1.2162517716535433
20
-2.5157890551181104
11
1.2296911023622048
21
-2.5204916929133856
0
LINE
8
BLACK
6
CONTINUOUS
10
1.2296911023622048
20
-2.5204916929133856
11
1.2425194094488188
21
-2.5266694488188977
0
LINE
8
BLACK
6
CONTINUOUS
10
1.2425194094488188
20
-2.5266694488188977
11
1.2545753937007873
21
-2.5342447244094486
0
LINE
8
BLACK
6
CONTINUOUS
10
1.2545753937007873
20
-2.5342447244094486
11
1.2657074015748031
21
-2.5431222047244093
0
LINE
8
BLACK
6
CONTINUOUS
10
1.2657074015748031
20
-2.5431222047244093
11
1.2757754330708662
21
-2.5531902362204724
0
LINE
8
BLACK
6
CONTINUOUS
10
1.2757754330708662
20
-2.5531902362204724
11
1.2846529133858267
21
-2.5643222440944879
0
LINE
8
BLACK
6
CONTINUOUS
10
1.2846529133858267
20
-2.5643222440944879
11
1.292228188976378
21
-2.5763782283464565
0
LINE
8
BLACK
6
CONTINUOUS
10
1.292228188976378
20
-2.5763782283464565
11
1.2984059448818897
21
-2.5892065354330707
0
LINE
8
BLACK
6
CONTINUOUS
10
1.2984059448818897
20
-2.5892065354330707
11
1.3031085826771653
21
-2.6026458661417324
0
LINE
8
BLACK
6
CONTINUOUS
10
1.3031085826771653
20
-2.6026458661417324
11
1.3062769291338583
21
-2.6165272440944882
0
LINE
8
BLACK
6
CONTINUOUS
10
1.3062769291338583
20
-2.6165272440944882
11
1.3078711023622047
21
-2.6306761023622047
0
LINE
8
BLACK
6
CONTINUOUS
10
1.3078711023622047
20
-2.6306761023622047
11
1.3078711023622047
21
-2.6449144488188976
0
LINE
8
BLACK
6
CONTINUOUS
10
1.3078711023622047
20
-2.6449144488188976
11
1.3062769291338583
21
-2.6590633070866141
0
LINE
8
BLACK
6
CONTINUOUS
10
1.3062769291338583
20
-2.6590633070866141
11
1.3031085826771653
21
-2.6729446850393699
0
LINE
8
BLACK
6
CONTINUOUS
10
1.3031085826771653
20
-2.6729446850393699
11
1.2984059448818897
21
-2.6863840157480317
0
LINE
8
BLACK
6
CONTINUOUS
10
1.2984059448818897
20
-2.6863840157480317
11
1.292228188976378
21
-2.6992123228346454
0
LINE
8
BLACK
6
CONTINUOUS
10
1.292228188976378
20
-2.6992123228346454
11
1.2846529133858267
21
-2.7112683070866139
0
LINE
8
BLACK
6
CONTINUOUS
10
1.2846529133858267
20
-2.7112683070866139
11
1.2757754330708662
21
-2.72240031496063
0
LINE
8
BLACK
6
CONTINUOUS
10
1.2757754330708662
20
-2.72240031496063
11
1.2657074015748031
21
-2.732468346456693
0
LINE
8
BLACK
6
CONTINUOUS
10
1.2657074015748031
20
-2.732468346456693
11
1.2545753937007873
21
-2.7413458267716533
0
LINE
8
BLACK
6
CONTINUOUS
10
1.2545753937007873
20
-2.7413458267716533
11
1.2425194094488188
21
-2.7489211023622047
0
LINE
8
BLACK
6
CONTINUOUS
10
1.2425194094488188
20
-2.7489211023622047
11
1.2296911023622048
21
-2.7550988582677163
0
LINE
8
BLACK
6
CONTINUOUS
10
1.2296911023622048
20
-2.7550988582677163
11
1.2162517716535433
21
-2.759801496062992
0
LINE
8
BLACK
6
CONTINUOUS
10
1.2162517716535433
20
-2.759801496062992
11
1.2023703937007875
21
-2.7629698425196851
0
LINE
8
BLACK
6
CONTINUOUS
10
1.2023703937007875
20
-2.7629698425196851
11
1.1882215354330707
21
-2.7645640157480313
0
LINE
8
BLACK
6
CONTINUOUS
10
1.1882215354330707
20
-2.7645640157480313
11
1.1739831889763779
21
-2.7645640157480313
0
LINE
8
BLACK
6
CONTINUOUS
10
1.1739831889763779
20
-2.7645640157480313
11
1.1598343307086614
21
-2.7629698425196851
0
LINE
8
BLACK
6
CONTINUOUS
10
1.1598343307086614
20
-2.7629698425196851
11
1.1459529527559056
21
-2.759801496062992
0
LINE
8
BLACK
6
CONTINUOUS
10
1.1459529527559056
20
-2.759801496062992
11
1.132513622047244
21
-2.7550988582677163
0
LINE
8
BLACK
6
CONTINUOUS
10
1.132513622047244
20
-2.7550988582677163
11
1.1196853149606298
21
-2.7489211023622047
0
LINE
8
BLACK
6
CONTINUOUS
10
1.1196853149606298
20
-2.7489211023622047
11
1.1076293307086613
21
-2.7413458267716533
0
LINE
8
BLACK
6
CONTINUOUS
10
1.1076293307086613
20
-2.7413458267716533
11
1.0964973228346457
21
-2.732468346456693
0
LINE
8
BLACK
6
CONTINUOUS
10
1.0964973228346457
20
-2.732468346456693
11
1.0864292913385827
21
-2.72240031496063
0
LINE
8
BLACK
6
CONTINUOUS
10
1.0864292913385827
20
-2.72240031496063
11
1.077551811023622
21
-2.7112683070866139
0
LINE
8
BLACK
6
CONTINUOUS
10
1.077551811023622
20
-2.7112683070866139
11
1.0699765354330708
21
-2.6992123228346454
0
LINE
8
BLACK
6
CONTINUOUS
10
1.0699765354330708
20
-2.6992123228346454
11
1.063798779527559
21
-2.6863840157480317
0
LINE
8
BLACK
6
CONTINUOUS
10
1.063798779527559
20
-2.6863840157480317
11
1.0590961417322835
21
-2.6729446850393699
0
LINE
8
BLACK
6
CONTINUOUS
10
1.0590961417322835
20
-2.6729446850393699
11
1.0559277952755906
21
-2.6590633070866141
0
LINE
8
BLACK
6
CONTINUOUS
10
1.0559277952755906
20
-2.6590633070866141
11
1.0543336220472441
21
-2.6449144488188976
0
LINE
8
BLACK
6
CONTINUOUS
10
1.0543336220472441
20
-2.6449144488188976
11
1.0543336220472441
21
-2.6307754330708661
0
LINE
8
BLACK
6
CONTINUOUS
10
1.0543336220472441
20
-2.6307754330708661
11
1.0543336220472441
21
-2.6306761023622047
0
LINE
8
BLACK
6
CONTINUOUS
10
1.0543336220472441
20
-2.6306761023622047
11
1.0559277952755906
21
-2.6165272440944882
0
LINE
8
BLACK
6
CONTINUOUS
10
1.0559277952755906
20
-2.6165272440944882
11
1.0590961417322835
21
-2.6026458661417324
0
LINE
8
BLACK
6
CONTINUOUS
10
1.0590961417322835
20
-2.6026458661417324
11
1.063798779527559
21
-2.5892065354330707
0
LINE
8
BLACK
6
CONTINUOUS
10
1.063798779527559
20
-2.5892065354330707
11
1.0699765354330708
21
-2.5763782283464565
0
LINE
8
BLACK
6
CONTINUOUS
10
1.0699765354330708
20
-2.5763782283464565
11
1.077551811023622
21
-2.5643222440944879
0
LINE
8
BLACK
6
CONTINUOUS
10
1.077551811023622
20
-2.5643222440944879
11
1.0864292913385827
21
-2.5531902362204724
0
LINE
8
BLACK
6
CONTINUOUS
10
1.0864292913385827
20
-2.5531902362204724
11
1.0964973228346457
21
-2.5431222047244093
0
LINE
8
BLACK
6
CONTINUOUS
10
1.0964973228346457
20
-2.5431222047244093
11
1.1076293307086613
21
-2.5342447244094486
0
LINE
8
BLACK
6
CONTINUOUS
10
1.1076293307086613
20
-2.5342447244094486
11
1.1196853149606298
21
-2.5266694488188977
0
LINE
8
BLACK
6
CONTINUOUS
10
1.1196853149606298
20
-2.5266694488188977
11
1.132513622047244
21
-2.5204916929133856
0
LINE
8
BLACK
6
CONTINUOUS
10
1.132513622047244
20
-2.5204916929133856
11
1.1459529527559056
21
-2.5157890551181104
0
LINE
8
BLACK
6
CONTINUOUS
10
1.1459529527559056
20
-2.5157890551181104
11
1.1598343307086614
21
-2.5126207086614172
0
LINE
8
BLACK
6
CONTINUOUS
10
1.1598343307086614
20
-2.5126207086614172
11
1.1739831889763779
21
-2.511026535433071
0
LINE
8
BLACK
6
CONTINUOUS
10
1.1739831889763779
20
-2.511026535433071
11
1.1882215354330707
21
-2.511026535433071
0
LINE
8
BLACK
6
CONTINUOUS
10
1.1882215354330707
20
-2.511026535433071
11
1.2023703937007875
21
-2.5126207086614172
0
LINE
8
BLACK
6
CONTINUOUS
10
1.0561023622047243
20
-2.6448151181102362
11
1.0576742913385826
21
-2.6587665354330707
0
LINE
8
BLACK
6
CONTINUOUS
10
1.0576742913385826
20
-2.6587665354330707
11
1.0607984251968503
21
-2.6724542519685039
0
LINE
8
BLACK
6
CONTINUOUS
10
1.0607984251968503
20
-2.6724542519685039
11
1.0654354330708662
21
-2.6857060629921259
0
LINE
8
BLACK
6
CONTINUOUS
10
1.0654354330708662
20
-2.6857060629921259
11
1.0715270472440945
21
-2.6983554330708661
0
LINE
8
BLACK
6
CONTINUOUS
10
1.0715270472440945
20
-2.6983554330708661
11
1.0789966141732283
21
-2.7102431496062991
0
LINE
8
BLACK
6
CONTINUOUS
10
1.0789966141732283
20
-2.7102431496062991
11
1.0877502362204725
21
-2.7212198425196852
0
LINE
8
BLACK
6
CONTINUOUS
10
1.0877502362204725
20
-2.7212198425196852
11
1.0976777952755905
21
-2.7311474015748032
0
LINE
8
BLACK
6
CONTINUOUS
10
1.0976777952755905
20
-2.7311474015748032
11
1.1086544881889764
21
-2.7399010236220471
0
LINE
8
BLACK
6
CONTINUOUS
10
1.1086544881889764
20
-2.7399010236220471
11
1.1205422047244094
21
-2.7473705905511809
0
LINE
8
BLACK
6
CONTINUOUS
10
1.1205422047244094
20
-2.7473705905511809
11
1.1331915748031496
21
-2.7534622047244093
0
LINE
8
BLACK
6
CONTINUOUS
10
1.1331915748031496
20
-2.7534622047244093
11
1.1464433858267715
21
-2.7580992125984252
0
LINE
8
BLACK
6
CONTINUOUS
10
1.1464433858267715
20
-2.7580992125984252
11
1.1601311023622047
21
-2.7612233464566929
0
LINE
8
BLACK
6
CONTINUOUS
10
1.1601311023622047
20
-2.7612233464566929
11
1.1740825196850393
21
-2.7627952755905509
0
LINE
8
BLACK
6
CONTINUOUS
10
1.1740825196850393
20
-2.7627952755905509
11
1.1881222047244093
21
-2.7627952755905509
0
LINE
8
BLACK
6
CONTINUOUS
10
1.1881222047244093
20
-2.7627952755905509
11
1.2020736220472441
21
-2.7612233464566929
0
LINE
8
BLACK
6
CONTINUOUS
10
1.2020736220472441
20
-2.7612233464566929
11
1.2157613385826771
21
-2.7580992125984252
0
LINE
8
BLACK
6
CONTINUOUS
10
1.2157613385826771
20
-2.7580992125984252
11
1.2290131496062993
21
-2.7534622047244093
0
LINE
8
BLACK
6
CONTINUOUS
10
1.2290131496062993
20
-2.7534622047244093
11
1.2416625196850393
21
-2.7473705905511809
0
LINE
8
BLACK
6
CONTINUOUS
10
1.2416625196850393
20
-2.7473705905511809
11
1.2535502362204725
21
-2.7399010236220471
0
LINE
8
BLACK
6
CONTINUOUS
10
1.2535502362204725
20
-2.7399010236220471
11
1.2645269291338583
21
-2.7311474015748032
0
LINE
8
BLACK
6
CONTINUOUS
10
1.2645269291338583
20
-2.7311474015748032
11
1.2744544881889763
21
-2.7212198425196852
0
LINE
8
BLACK
6
CONTINUOUS
10
1.2744544881889763
20
-2.7212198425196852
11
1.2832081102362205
21
-2.7102431496062991
0
LINE
8
BLACK
6
CONTINUOUS
10
1.2832081102362205
20
-2.7102431496062991
11
1.2906776771653543
21
-2.6983554330708661
0
LINE
8
BLACK
6
CONTINUOUS
10
1.2906776771653543
20
-2.6983554330708661
11
1.2967692913385827
21
-2.6857060629921259
0
LINE
8
BLACK
6
CONTINUOUS
10
1.2967692913385827
20
-2.6857060629921259
11
1.3014062992125983
21
-2.6724542519685039
0
LINE
8
BLACK
6
CONTINUOUS
10
1.3014062992125983
20
-2.6724542519685039
11
1.304530433070866
21
-2.6587665354330707
0
LINE
8
BLACK
6
CONTINUOUS
10
1.304530433070866
20
-2.6587665354330707
11
1.3061023622047243
21
-2.6448151181102362
0
LINE
8
BLACK
6
CONTINUOUS
10
1.3061023622047243
20
-2.6448151181102362
11
1.3061023622047243
21
-2.6307754330708661
0
LINE
8
BLACK
6
CONTINUOUS
10
1.3061023622047243
20
-2.6307754330708661
11
1.304530433070866
21
-2.6168240157480316
0
LINE
8
BLACK
6
CONTINUOUS
10
1.304530433070866
20
-2.6168240157480316
11
1.3014062992125983
21
-2.6031362992125984
0
LINE
8
BLACK
6
CONTINUOUS
10
1.3014062992125983
20
-2.6031362992125984
11
1.2967692913385827
21
-2.5898844881889764
0
LINE
8
BLACK
6
CONTINUOUS
10
1.2967692913385827
20
-2.5898844881889764
11
1.2906776771653543
21
-2.5772351181102362
0
LINE
8
BLACK
6
CONTINUOUS
10
1.2906776771653543
20
-2.5772351181102362
11
1.2832081102362205
21
-2.5653474015748032
0
LINE
8
BLACK
6
CONTINUOUS
10
1.2832081102362205
20
-2.5653474015748032
11
1.2744544881889763
21
-2.5543707086614171
0
LINE
8
BLACK
6
CONTINUOUS
10
1.2744544881889763
20
-2.5543707086614171
11
1.2645269291338583
21
-2.5444431496062991
0
LINE
8
BLACK
6
CONTINUOUS
10
1.2645269291338583
20
-2.5444431496062991
11
1.2535502362204725
21
-2.5356895275590552
0
LINE
8
BLACK
6
CONTINUOUS
10
1.2535502362204725
20
-2.5356895275590552
11
1.2416625196850393
21
-2.5282199606299214
0
LINE
8
BLACK
6
CONTINUOUS
10
1.2416625196850393
20
-2.5282199606299214
11
1.2290131496062993
21
-2.522128346456693
0
LINE
8
BLACK
6
CONTINUOUS
10
1.2290131496062993
20
-2.522128346456693
11
1.2157613385826771
21
-2.5174913385826772
0
LINE
8
BLACK
6
CONTINUOUS
10
1.2157613385826771
20
-2.5174913385826772
11
1.2020736220472441
21
-2.5143672047244094
0
LINE
8
BLACK
6
CONTINUOUS
10
1.2020736220472441
20
-2.5143672047244094
11
1.1881222047244093
21
-2.5127952755905509
0
LINE
8
BLACK
6
CONTINUOUS
10
1.1881222047244093
20
-2.5127952755905509
11
1.1740825196850393
21
-2.5127952755905509
0
LINE
8
BLACK
6
CONTINUOUS
10
1.1740825196850393
20
-2.5127952755905509
11
1.1601311023622047
21
-2.5143672047244094
0
LINE
8
BLACK
6
CONTINUOUS
10
1.1601311023622047
20
-2.5143672047244094
11
1.1464433858267715
21
-2.5174913385826772
0
LINE
8
BLACK
6
CONTINUOUS
10
1.1464433858267715
20
-2.5174913385826772
11
1.1331915748031496
21
-2.522128346456693
0
LINE
8
BLACK
6
CONTINUOUS
10
1.1331915748031496
20
-2.522128346456693
11
1.1205422047244094
21
-2.5282199606299214
0
LINE
8
BLACK
6
CONTINUOUS
10
1.1205422047244094
20
-2.5282199606299214
11
1.1086544881889764
21
-2.5356895275590552
0
LINE
8
BLACK
6
CONTINUOUS
10
1.1086544881889764
20
-2.5356895275590552
11
1.0976777952755905
21
-2.5444431496062991
0
LINE
8
BLACK
6
CONTINUOUS
10
1.0976777952755905
20
-2.5444431496062991
11
1.0877502362204725
21
-2.5543707086614171
0
LINE
8
BLACK
6
CONTINUOUS
10
1.0877502362204725
20
-2.5543707086614171
11
1.0789966141732283
21
-2.5653474015748032
0
LINE
8
BLACK
6
CONTINUOUS
10
1.0789966141732283
20
-2.5653474015748032
11
1.0715270472440945
21
-2.5772351181102362
0
LINE
8
BLACK
6
CONTINUOUS
10
1.0715270472440945
20
-2.5772351181102362
11
1.0654354330708662
21
-2.5898844881889764
0
LINE
8
BLACK
6
CONTINUOUS
10
1.0654354330708662
20
-2.5898844881889764
11
1.0607984251968503
21
-2.6031362992125984
0
LINE
8
BLACK
6
CONTINUOUS
10
1.0607984251968503
20
-2.6031362992125984
11
1.0576742913385826
21
-2.6168240157480316
0
LINE
8
BLACK
6
CONTINUOUS
10
1.0576742913385826
20
-2.6168240157480316
11
1.0561023622047243
21
-2.6307754330708661
0
LINE
8
BLACK
6
CONTINUOUS
10
1.0561023622047243
20
-2.6307754330708661
11
1.0561023622047243
21
-2.6448151181102362
0
LINE
8
BLACK
6
CONTINUOUS
10
4.1551262992125979
20
-2.5126207086614172
11
4.1690076771653546
21
-2.5157890551181104
0
LINE
8
BLACK
6
CONTINUOUS
10
4.1690076771653546
20
-2.5157890551181104
11
4.1824470078740159
21
-2.5204916929133856
0
LINE
8
BLACK
6
CONTINUOUS
10
4.1824470078740159
20
-2.5204916929133856
11
4.1952753149606297
21
-2.5266694488188977
0
LINE
8
BLACK
6
CONTINUOUS
10
4.1952753149606297
20
-2.5266694488188977
11
4.2073312992125986
21
-2.5342447244094486
0
LINE
8
BLACK
6
CONTINUOUS
10
4.2073312992125986
20
-2.5342447244094486
11
4.2184633070866138
21
-2.5431222047244093
0
LINE
8
BLACK
6
CONTINUOUS
10
4.2184633070866138
20
-2.5431222047244093
11
4.2285313385826768
21
-2.5531902362204724
0
LINE
8
BLACK
6
CONTINUOUS
10
4.2285313385826768
20
-2.5531902362204724
11
4.237408818897638
21
-2.5643222440944879
0
LINE
8
BLACK
6
CONTINUOUS
10
4.237408818897638
20
-2.5643222440944879
11
4.2449840944881885
21
-2.5763782283464565
0
LINE
8
BLACK
6
CONTINUOUS
10
4.2449840944881885
20
-2.5763782283464565
11
4.251161850393701
21
-2.5892065354330707
0
LINE
8
BLACK
6
CONTINUOUS
10
4.251161850393701
20
-2.5892065354330707
11
4.2558644881889762
21
-2.6026458661417324
0
LINE
8
BLACK
6
CONTINUOUS
10
4.2558644881889762
20
-2.6026458661417324
11
4.2590328346456694
21
-2.6165272440944882
0
LINE
8
BLACK
6
CONTINUOUS
10
4.2590328346456694
20
-2.6165272440944882
11
4.2606270078740156
21
-2.6306761023622047
0
LINE
8
BLACK
6
CONTINUOUS
10
4.2606270078740156
20
-2.6306761023622047
11
4.2606270078740156
21
-2.6449144488188976
0
LINE
8
BLACK
6
CONTINUOUS
10
4.2606270078740156
20
-2.6449144488188976
11
4.2590328346456694
21
-2.6590633070866141
0
LINE
8
BLACK
6
CONTINUOUS
10
4.2590328346456694
20
-2.6590633070866141
11
4.2558644881889762
21
-2.6729446850393699
0
LINE
8
BLACK
6
CONTINUOUS
10
4.2558644881889762
20
-2.6729446850393699
11
4.251161850393701
21
-2.6863840157480317
0
LINE
8
BLACK
6
CONTINUOUS
10
4.251161850393701
20
-2.6863840157480317
11
4.2449840944881885
21
-2.6992123228346454
0
LINE
8
BLACK
6
CONTINUOUS
10
4.2449840944881885
20
-2.6992123228346454
11
4.237408818897638
21
-2.7112683070866139
0
LINE
8
BLACK
6
CONTINUOUS
10
4.237408818897638
20
-2.7112683070866139
11
4.2285313385826768
21
-2.72240031496063
0
LINE
8
BLACK
6
CONTINUOUS
10
4.2285313385826768
20
-2.72240031496063
11
4.2184633070866138
21
-2.732468346456693
0
LINE
8
BLACK
6
CONTINUOUS
10
4.2184633070866138
20
-2.732468346456693
11
4.2073312992125986
21
-2.7413458267716533
0
LINE
8
BLACK
6
CONTINUOUS
10
4.2073312992125986
20
-2.7413458267716533
11
4.1952753149606297
21
-2.7489211023622047
0
LINE
8
BLACK
6
CONTINUOUS
10
4.1952753149606297
20
-2.7489211023622047
11
4.1824470078740159
21
-2.7550988582677163
0
LINE
8
BLACK
6
CONTINUOUS
10
4.1824470078740159
20
-2.7550988582677163
11
4.1690076771653546
21
-2.759801496062992
0
LINE
8
BLACK
6
CONTINUOUS
10
4.1690076771653546
20
-2.759801496062992
11
4.1551262992125979
21
-2.7629698425196851
0
LINE
8
BLACK
6
CONTINUOUS
10
4.1551262992125979
20
-2.7629698425196851
11
4.1409774409448818
21
-2.7645640157480313
0
LINE
8
BLACK
6
CONTINUOUS
10
4.1409774409448818
20
-2.7645640157480313
11
4.1267390944881885
21
-2.7645640157480313
0
LINE
8
BLACK
6
CONTINUOUS
10
4.1267390944881885
20
-2.7645640157480313
11
4.1125902362204725
21
-2.7629698425196851
0
LINE
8
BLACK
6
CONTINUOUS
10
4.1125902362204725
20
-2.7629698425196851
11
4.0987088582677167
21
-2.759801496062992
0
LINE
8
BLACK
6
CONTINUOUS
10
4.0987088582677167
20
-2.759801496062992
11
4.0852695275590554
21
-2.7550988582677163
0
LINE
8
BLACK
6
CONTINUOUS
10
4.0852695275590554
20
-2.7550988582677163
11
4.0724412204724407
21
-2.7489211023622047
0
LINE
8
BLACK
6
CONTINUOUS
10
4.0724412204724407
20
-2.7489211023622047
11
4.0603852362204726
21
-2.7413458267716533
0
LINE
8
BLACK
6
CONTINUOUS
10
4.0603852362204726
20
-2.7413458267716533
11
4.0492532283464566
21
-2.732468346456693
0
LINE
8
BLACK
6
CONTINUOUS
10
4.0492532283464566
20
-2.732468346456693
11
4.0391851968503936
21
-2.72240031496063
0
LINE
8
BLACK
6
CONTINUOUS
10
4.0391851968503936
20
-2.72240031496063
11
4.0303077165354333
21
-2.7112683070866139
0
LINE
8
BLACK
6
CONTINUOUS
10
4.0303077165354333
20
-2.7112683070866139
11
4.0227324409448819
21
-2.6992123228346454
0
LINE
8
BLACK
6
CONTINUOUS
10
4.0227324409448819
20
-2.6992123228346454
11
4.0165546850393703
21
-2.6863840157480317
0
LINE
8
BLACK
6
CONTINUOUS
10
4.0165546850393703
20
-2.6863840157480317
11
4.0118520472440942
21
-2.6729446850393699
0
LINE
8
BLACK
6
CONTINUOUS
10
4.0118520472440942
20
-2.6729446850393699
11
4.0086837007874019
21
-2.6590633070866141
0
LINE
8
BLACK
6
CONTINUOUS
10
4.0086837007874019
20
-2.6590633070866141
11
4.0070895275590548
21
-2.6449144488188976
0
LINE
8
BLACK
6
CONTINUOUS
10
4.0070895275590548
20
-2.6449144488188976
11
4.0070895275590548
21
-2.6307754330708661
0
LINE
8
BLACK
6
CONTINUOUS
10
4.0070895275590548
20
-2.6307754330708661
11
4.0070895275590548
21
-2.6306761023622047
0
LINE
8
BLACK
6
CONTINUOUS
10
4.0070895275590548
20
-2.6306761023622047
11
4.0086837007874019
21
-2.6165272440944882
0
LINE
8
BLACK
6
CONTINUOUS
10
4.0086837007874019
20
-2.6165272440944882
11
4.0118520472440942
21
-2.6026458661417324
0
LINE
8
BLACK
6
CONTINUOUS
10
4.0118520472440942
20
-2.6026458661417324
11
4.0165546850393703
21
-2.5892065354330707
0
LINE
8
BLACK
6
CONTINUOUS
10
4.0165546850393703
20
-2.5892065354330707
11
4.0227324409448819
21
-2.5763782283464565
0
LINE
8
BLACK
6
CONTINUOUS
10
4.0227324409448819
20
-2.5763782283464565
11
4.0303077165354333
21
-2.5643222440944879
0
LINE
8
BLACK
6
CONTINUOUS
10
4.0303077165354333
20
-2.5643222440944879
11
4.0391851968503936
21
-2.5531902362204724
0
LINE
8
BLACK
6
CONTINUOUS
10
4.0391851968503936
20
-2.5531902362204724
11
4.0492532283464566
21
-2.5431222047244093
0
LINE
8
BLACK
6
CONTINUOUS
10
4.0492532283464566
20
-2.5431222047244093
11
4.0603852362204726
21
-2.5342447244094486
0
LINE
8
BLACK
6
CONTINUOUS
10
4.0603852362204726
20
-2.5342447244094486
11
4.0724412204724407
21
-2.5266694488188977
0
LINE
8
BLACK
6
CONTINUOUS
10
4.0724412204724407
20
-2.5266694488188977
11
4.0852695275590554
21
-2.5204916929133856
0
LINE
8
BLACK
6
CONTINUOUS
10
4.0852695275590554
20
-2.5204916929133856
11
4.0987088582677167
21
-2.5157890551181104
0
LINE
8
BLACK
6
CONTINUOUS
10
4.0987088582677167
20
-2.5157890551181104
11
4.1125902362204725
21
-2.5126207086614172
0
LINE
8
BLACK
6
CONTINUOUS
10
4.1125902362204725
20
-2.5126207086614172
11
4.1267390944881885
21
-2.511026535433071
0
LINE
8
BLACK
6
CONTINUOUS
10
4.1267390944881885
20
-2.511026535433071
11
4.1409774409448818
21
-2.511026535433071
0
LINE
8
BLACK
6
CONTINUOUS
10
4.1409774409448818
20
-2.511026535433071
11
4.1551262992125979
21
-2.5126207086614172
0
LINE
8
BLACK
6
CONTINUOUS
10
4.0088582677165352
20
-2.6448151181102362
11
4.0104301968503933
21
-2.6587665354330707
0
LINE
8
BLACK
6
CONTINUOUS
10
4.0104301968503933
20
-2.6587665354330707
11
4.0135543307086614
21
-2.6724542519685039
0
LINE
8
BLACK
6
CONTINUOUS
10
4.0135543307086614
20
-2.6724542519685039
11
4.0181913385826773
21
-2.6857060629921259
0
LINE
8
BLACK
6
CONTINUOUS
10
4.0181913385826773
20
-2.6857060629921259
11
4.0242829527559056
21
-2.6983554330708661
0
LINE
8
BLACK
6
CONTINUOUS
10
4.0242829527559056
20
-2.6983554330708661
11
4.031752519685039
21
-2.7102431496062991
0
LINE
8
BLACK
6
CONTINUOUS
10
4.031752519685039
20
-2.7102431496062991
11
4.0405061417322834
21
-2.7212198425196852
0
LINE
8
BLACK
6
CONTINUOUS
10
4.0405061417322834
20
-2.7212198425196852
11
4.0504337007874014
21
-2.7311474015748032
0
LINE
8
BLACK
6
CONTINUOUS
10
4.0504337007874014
20
-2.7311474015748032
11
4.061410393700787
21
-2.7399010236220471
0
LINE
8
BLACK
6
CONTINUOUS
10
4.061410393700787
20
-2.7399010236220471
11
4.0732981102362205
21
-2.7473705905511809
0
LINE
8
BLACK
6
CONTINUOUS
10
4.0732981102362205
20
-2.7473705905511809
11
4.0859474803149602
21
-2.7534622047244093
0
LINE
8
BLACK
6
CONTINUOUS
10
4.0859474803149602
20
-2.7534622047244093
11
4.0991992913385822
21
-2.7580992125984252
0
LINE
8
BLACK
6
CONTINUOUS
10
4.0991992913385822
20
-2.7580992125984252
11
4.1128870078740158
21
-2.7612233464566929
0
LINE
8
BLACK
6
CONTINUOUS
10
4.1128870078740158
20
-2.7612233464566929
11
4.1268384251968504
21
-2.7627952755905509
0
LINE
8
BLACK
6
CONTINUOUS
10
4.1268384251968504
20
-2.7627952755905509
11
4.14087811023622
21
-2.7627952755905509
0
LINE
8
BLACK
6
CONTINUOUS
10
4.14087811023622
20
-2.7627952755905509
11
4.1548295275590554
21
-2.7612233464566929
0
LINE
8
BLACK
6
CONTINUOUS
10
4.1548295275590554
20
-2.7612233464566929
11
4.1685172440944882
21
-2.7580992125984252
0
LINE
8
BLACK
6
CONTINUOUS
10
4.1685172440944882
20
-2.7580992125984252
11
4.1817690551181101
21
-2.7534622047244093
0
LINE
8
BLACK
6
CONTINUOUS
10
4.1817690551181101
20
-2.7534622047244093
11
4.1944184251968499
21
-2.7473705905511809
0
LINE
8
BLACK
6
CONTINUOUS
10
4.1944184251968499
20
-2.7473705905511809
11
4.2063061417322833
21
-2.7399010236220471
0
LINE
8
BLACK
6
CONTINUOUS
10
4.2063061417322833
20
-2.7399010236220471
11
4.217282834645669
21
-2.7311474015748032
0
LINE
8
BLACK
6
CONTINUOUS
10
4.217282834645669
20
-2.7311474015748032
11
4.227210393700787
21
-2.7212198425196852
0
LINE
8
BLACK
6
CONTINUOUS
10
4.227210393700787
20
-2.7212198425196852
11
4.2359640157480314
21
-2.7102431496062991
0
LINE
8
BLACK
6
CONTINUOUS
10
4.2359640157480314
20
-2.7102431496062991
11
4.2434335826771656
21
-2.6983554330708661
0
LINE
8
BLACK
6
CONTINUOUS
10
4.2434335826771656
20
-2.6983554330708661
11
4.249525196850394
21
-2.6857060629921259
0
LINE
8
BLACK
6
CONTINUOUS
10
4.249525196850394
20
-2.6857060629921259
11
4.254162204724409
21
-2.6724542519685039
0
LINE
8
BLACK
6
CONTINUOUS
10
4.254162204724409
20
-2.6724542519685039
11
4.2572863385826771
21
-2.6587665354330707
0
LINE
8
BLACK
6
CONTINUOUS
10
4.2572863385826771
20
-2.6587665354330707
11
4.2588582677165352
21
-2.6448151181102362
0
LINE
8
BLACK
6
CONTINUOUS
10
4.2588582677165352
20
-2.6448151181102362
11
4.2588582677165352
21
-2.6307754330708661
0
LINE
8
BLACK
6
CONTINUOUS
10
4.2588582677165352
20
-2.6307754330708661
11
4.2572863385826771
21
-2.6168240157480316
0
LINE
8
BLACK
6
CONTINUOUS
10
4.2572863385826771
20
-2.6168240157480316
11
4.254162204724409
21
-2.6031362992125984
0
LINE
8
BLACK
6
CONTINUOUS
10
4.254162204724409
20
-2.6031362992125984
11
4.249525196850394
21
-2.5898844881889764
0
LINE
8
BLACK
6
CONTINUOUS
10
4.249525196850394
20
-2.5898844881889764
11
4.2434335826771656
21
-2.5772351181102362
0
LINE
8
BLACK
6
CONTINUOUS
10
4.2434335826771656
20
-2.5772351181102362
11
4.2359640157480314
21
-2.5653474015748032
0
LINE
8
BLACK
6
CONTINUOUS
10
4.2359640157480314
20
-2.5653474015748032
11
4.227210393700787
21
-2.5543707086614171
0
LINE
8
BLACK
6
CONTINUOUS
10
4.227210393700787
20
-2.5543707086614171
11
4.217282834645669
21
-2.5444431496062991
0
LINE
8
BLACK
6
CONTINUOUS
10
4.217282834645669
20
-2.5444431496062991
11
4.2063061417322833
21
-2.5356895275590552
0
LINE
8
BLACK
6
CONTINUOUS
10
4.2063061417322833
20
-2.5356895275590552
11
4.1944184251968499
21
-2.5282199606299214
0
LINE
8
BLACK
6
CONTINUOUS
10
4.1944184251968499
20
-2.5282199606299214
11
4.1817690551181101
21
-2.522128346456693
0
LINE
8
BLACK
6
CONTINUOUS
10
4.1817690551181101
20
-2.522128346456693
11
4.1685172440944882
21
-2.5174913385826772
0
LINE
8
BLACK
6
CONTINUOUS
10
4.1685172440944882
20
-2.5174913385826772
11
4.1548295275590554
21
-2.5143672047244094
0
LINE
8
BLACK
6
CONTINUOUS
10
4.1548295275590554
20
-2.5143672047244094
11
4.14087811023622
21
-2.5127952755905509
0
LINE
8
BLACK
6
CONTINUOUS
10
4.14087811023622
20
-2.5127952755905509
11
4.1268384251968504
21
-2.5127952755905509
0
LINE
8
BLACK
6
CONTINUOUS
10
4.1268384251968504
20
-2.5127952755905509
11
4.1128870078740158
21
-2.5143672047244094
0
LINE
8
BLACK
6
CONTINUOUS
10
4.1128870078740158
20
-2.5143672047244094
11
4.0991992913385822
21
-2.5174913385826772
0
LINE
8
BLACK
6
CONTINUOUS
10
4.0991992913385822
20
-2.5174913385826772
11
4.0859474803149602
21
-2.522128346456693
0
LINE
8
BLACK
6
CONTINUOUS
10
4.0859474803149602
20
-2.522128346456693
11
4.0732981102362205
21
-2.5282199606299214
0
LINE
8
BLACK
6
CONTINUOUS
10
4.0732981102362205
20
-2.5282199606299214
11
4.061410393700787
21
-2.5356895275590552
0
LINE
8
BLACK
6
CONTINUOUS
10
4.061410393700787
20
-2.5356895275590552
11
4.0504337007874014
21
-2.5444431496062991
0
LINE
8
BLACK
6
CONTINUOUS
10
4.0504337007874014
20
-2.5444431496062991
11
4.0405061417322834
21
-2.5543707086614171
0
LINE
8
BLACK
6
CONTINUOUS
10
4.0405061417322834
20
-2.5543707086614171
11
4.031752519685039
21
-2.5653474015748032
0
LINE
8
BLACK
6
CONTINUOUS
10
4.031752519685039
20
-2.5653474015748032
11
4.0242829527559056
21
-2.5772351181102362
0
LINE
8
BLACK
6
CONTINUOUS
10
4.0242829527559056
20
-2.5772351181102362
11
4.0181913385826773
21
-2.5898844881889764
0
LINE
8
BLACK
6
CONTINUOUS
10
4.0181913385826773
20
-2.5898844881889764
11
4.0135543307086614
21
-2.6031362992125984
0
LINE
8
BLACK
6
CONTINUOUS
10
4.0135543307086614
20
-2.6031362992125984
11
4.0104301968503933
21
-2.6168240157480316
0
LINE
8
BLACK
6
CONTINUOUS
10
4.0104301968503933
20
-2.6168240157480316
11
4.0088582677165352
21
-2.6307754330708661
0
LINE
8
BLACK
6
CONTINUOUS
10
4.0088582677165352
20
-2.6307754330708661
11
4.0088582677165352
21
-2.6448151181102362
0
LINE
8
BLACK
6
CONTINUOUS
10
7.107882204724409
20
-2.5126207086614172
11
7.1217635826771648
21
-2.5157890551181104
0
LINE
8
BLACK
6
CONTINUOUS
10
7.1217635826771648
20
-2.5157890551181104
11
7.135202913385827
21
-2.5204916929133856
0
LINE
8
BLACK
6
CONTINUOUS
10
7.135202913385827
20
-2.5204916929133856
11
7.1480312204724408
21
-2.5266694488188977
0
LINE
8
BLACK
6
CONTINUOUS
10
7.1480312204724408
20
-2.5266694488188977
11
7.1600872047244088
21
-2.5342447244094486
0
LINE
8
BLACK
6
CONTINUOUS
10
7.1600872047244088
20
-2.5342447244094486
11
7.1712192125984249
21
-2.5431222047244093
0
LINE
8
BLACK
6
CONTINUOUS
10
7.1712192125984249
20
-2.5431222047244093
11
7.1812872440944879
21
-2.5531902362204724
0
LINE
8
BLACK
6
CONTINUOUS
10
7.1812872440944879
20
-2.5531902362204724
11
7.1901647244094491
21
-2.5643222440944879
0
LINE
8
BLACK
6
CONTINUOUS
10
7.1901647244094491
20
-2.5643222440944879
11
7.1977399999999996
21
-2.5763782283464565
0
LINE
8
BLACK
6
CONTINUOUS
10
7.1977399999999996
20
-2.5763782283464565
11
7.2039177559055121
21
-2.5892065354330707
0
LINE
8
BLACK
6
CONTINUOUS
10
7.2039177559055121
20
-2.5892065354330707
11
7.2086203937007873
21
-2.6026458661417324
0
LINE
8
BLACK
6
CONTINUOUS
10
7.2086203937007873
20
-2.6026458661417324
11
7.2117887401574805
21
-2.6165272440944882
0
LINE
8
BLACK
6
CONTINUOUS
10
7.2117887401574805
20
-2.6165272440944882
11
7.2133829133858267
21
-2.6306761023622047
0
LINE
8
BLACK
6
CONTINUOUS
10
7.2133829133858267
20
-2.6306761023622047
11
7.2133829133858267
21
-2.6449144488188976
0
LINE
8
BLACK
6
CONTINUOUS
10
7.2133829133858267
20
-2.6449144488188976
11
7.2117887401574805
21
-2.6590633070866141
0
LINE
8
BLACK
6
CONTINUOUS
10
7.2117887401574805
20
-2.6590633070866141
11
7.2086203937007873
21
-2.6729446850393699
0
LINE
8
BLACK
6
CONTINUOUS
10
7.2086203937007873
20
-2.6729446850393699
11
7.2039177559055121
21
-2.6863840157480317
0
LINE
8
BLACK
6
CONTINUOUS
10
7.2039177559055121
20
-2.6863840157480317
11
7.1977399999999996
21
-2.6992123228346454
0
LINE
8
BLACK
6
CONTINUOUS
10
7.1977399999999996
20
-2.6992123228346454
11
7.1901647244094491
21
-2.7112683070866139
0
LINE
8
BLACK
6
CONTINUOUS
10
7.1901647244094491
20
-2.7112683070866139
11
7.1812872440944879
21
-2.72240031496063
0
LINE
8
BLACK
6
CONTINUOUS
10
7.1812872440944879
20
-2.72240031496063
11
7.1712192125984249
21
-2.732468346456693
0
LINE
8
BLACK
6
CONTINUOUS
10
7.1712192125984249
20
-2.732468346456693
11
7.1600872047244088
21
-2.7413458267716533
0
LINE
8
BLACK
6
CONTINUOUS
10
7.1600872047244088
20
-2.7413458267716533
11
7.1480312204724408
21
-2.7489211023622047
0
LINE
8
BLACK
6
CONTINUOUS
10
7.1480312204724408
20
-2.7489211023622047
11
7.135202913385827
21
-2.7550988582677163
0
LINE
8
BLACK
6
CONTINUOUS
10
7.135202913385827
20
-2.7550988582677163
11
7.1217635826771648
21
-2.759801496062992
0
LINE
8
BLACK
6
CONTINUOUS
10
7.1217635826771648
20
-2.759801496062992
11
7.107882204724409
21
-2.7629698425196851
0
LINE
8
BLACK
6
CONTINUOUS
10
7.107882204724409
20
-2.7629698425196851
11
7.093733346456693
21
-2.7645640157480313
0
LINE
8
BLACK
6
CONTINUOUS
10
7.093733346456693
20
-2.7645640157480313
11
7.0794949999999996
21
-2.7645640157480313
0
LINE
8
BLACK
6
CONTINUOUS
10
7.0794949999999996
20
-2.7645640157480313
11
7.0653461417322836
21
-2.7629698425196851
0
LINE
8
BLACK
6
CONTINUOUS
10
7.0653461417322836
20
-2.7629698425196851
11
7.0514647637795278
21
-2.759801496062992
0
LINE
8
BLACK
6
CONTINUOUS
10
7.0514647637795278
20
-2.759801496062992
11
7.0380254330708656
21
-2.7550988582677163
0
LINE
8
BLACK
6
CONTINUOUS
10
7.0380254330708656
20
-2.7550988582677163
11
7.0251971259842518
21
-2.7489211023622047
0
LINE
8
BLACK
6
CONTINUOUS
10
7.0251971259842518
20
-2.7489211023622047
11
7.0131411417322829
21
-2.7413458267716533
0
LINE
8
BLACK
6
CONTINUOUS
10
7.0131411417322829
20
-2.7413458267716533
11
7.0020091338582677
21
-2.732468346456693
0
LINE
8
BLACK
6
CONTINUOUS
10
7.0020091338582677
20
-2.732468346456693
11
6.9919411023622047
21
-2.72240031496063
0
LINE
8
BLACK
6
CONTINUOUS
10
6.9919411023622047
20
-2.72240031496063
11
6.9830636220472435
21
-2.7112683070866139
0
LINE
8
BLACK
6
CONTINUOUS
10
6.9830636220472435
20
-2.7112683070866139
11
6.975488346456693
21
-2.6992123228346454
0
LINE
8
BLACK
6
CONTINUOUS
10
6.975488346456693
20
-2.6992123228346454
11
6.9693105905511805
21
-2.6863840157480317
0
LINE
8
BLACK
6
CONTINUOUS
10
6.9693105905511805
20
-2.6863840157480317
11
6.9646079527559053
21
-2.6729446850393699
0
LINE
8
BLACK
6
CONTINUOUS
10
6.9646079527559053
20
-2.6729446850393699
11
6.9614396062992121
21
-2.6590633070866141
0
LINE
8
BLACK
6
CONTINUOUS
10
6.9614396062992121
20
-2.6590633070866141
11
6.9598454330708659
21
-2.6449144488188976
0
LINE
8
BLACK
6
CONTINUOUS
10
6.9598454330708659
20
-2.6449144488188976
11
6.9598454330708659
21
-2.6307754330708661
0
LINE
8
BLACK
6
CONTINUOUS
10
6.9598454330708659
20
-2.6307754330708661
11
6.9598454330708659
21
-2.6306761023622047
0
LINE
8
BLACK
6
CONTINUOUS
10
6.9598454330708659
20
-2.6306761023622047
11
6.9614396062992121
21
-2.6165272440944882
0
LINE
8
BLACK
6
CONTINUOUS
10
6.9614396062992121
20
-2.6165272440944882
11
6.9646079527559053
21
-2.6026458661417324
0
LINE
8
BLACK
6
CONTINUOUS
10
6.9646079527559053
20
-2.6026458661417324
11
6.9693105905511805
21
-2.5892065354330707
0
LINE
8
BLACK
6
CONTINUOUS
10
6.9693105905511805
20
-2.5892065354330707
11
6.975488346456693
21
-2.5763782283464565
0
LINE
8
BLACK
6
CONTINUOUS
10
6.975488346456693
20
-2.5763782283464565
11
6.9830636220472435
21
-2.5643222440944879
0
LINE
8
BLACK
6
CONTINUOUS
10
6.9830636220472435
20
-2.5643222440944879
11
6.9919411023622047
21
-2.5531902362204724
0
LINE
8
BLACK
6
CONTINUOUS
10
6.9919411023622047
20
-2.5531902362204724
11
7.0020091338582677
21
-2.5431222047244093
0
LINE
8
BLACK
6
CONTINUOUS
10
7.0020091338582677
20
-2.5431222047244093
11
7.0131411417322829
21
-2.5342447244094486
0
LINE
8
BLACK
6
CONTINUOUS
10
7.0131411417322829
20
-2.5342447244094486
11
7.0251971259842518
21
-2.5266694488188977
0
LINE
8
BLACK
6
CONTINUOUS
10
7.0251971259842518
20
-2.5266694488188977
11
7.0380254330708656
21
-2.5204916929133856
0
LINE
8
BLACK
6
CONTINUOUS
10
7.0380254330708656
20
-2.5204916929133856
11
7.0514647637795278
21
-2.5157890551181104
0
LINE
8
BLACK
6
CONTINUOUS
10
7.0514647637795278
20
-2.5157890551181104
11
7.0653461417322836
21
-2.5126207086614172
0
LINE
8
BLACK
6
CONTINUOUS
10
7.0653461417322836
20
-2.5126207086614172
11
7.0794949999999996
21
-2.511026535433071
0
LINE
8
BLACK
6
CONTINUOUS
10
7.0794949999999996
20
-2.511026535433071
11
7.093733346456693
21
-2.511026535433071
0
LINE
8
BLACK
6
CONTINUOUS
10
7.093733346456693
20
-2.511026535433071
11
7.107882204724409
21
-2.5126207086614172
0
LINE
8
BLACK
6
CONTINUOUS
10
6.9616141732283463
20
-2.6448151181102362
11
6.9631861023622044
21
-2.6587665354330707
0
LINE
8
BLACK
6
CONTINUOUS
10
6.9631861023622044
20
-2.6587665354330707
11
6.9663102362204725
21
-2.6724542519685039
0
LINE
8
BLACK
6
CONTINUOUS
10
6.9663102362204725
20
-2.6724542519685039
11
6.9709472440944884
21
-2.6857060629921259
0
LINE
8
BLACK
6
CONTINUOUS
10
6.9709472440944884
20
-2.6857060629921259
11
6.9770388582677167
21
-2.6983554330708661
0
LINE
8
BLACK
6
CONTINUOUS
10
6.9770388582677167
20
-2.6983554330708661
11
6.9845084251968501
21
-2.7102431496062991
0
LINE
8
BLACK
6
CONTINUOUS
10
6.9845084251968501
20
-2.7102431496062991
11
6.9932620472440945
21
-2.7212198425196852
0
LINE
8
BLACK
6
CONTINUOUS
10
6.9932620472440945
20
-2.7212198425196852
11
7.0031896062992125
21
-2.7311474015748032
0
LINE
8
BLACK
6
CONTINUOUS
10
7.0031896062992125
20
-2.7311474015748032
11
7.0141662992125982
21
-2.7399010236220471
0
LINE
8
BLACK
6
CONTINUOUS
10
7.0141662992125982
20
-2.7399010236220471
11
7.0260540157480316
21
-2.7473705905511809
0
LINE
8
BLACK
6
CONTINUOUS
10
7.0260540157480316
20
-2.7473705905511809
11
7.0387033858267714
21
-2.7534622047244093
0
LINE
8
BLACK
6
CONTINUOUS
10
7.0387033858267714
20
-2.7534622047244093
11
7.0519551968503933
21
-2.7580992125984252
0
LINE
8
BLACK
6
CONTINUOUS
10
7.0519551968503933
20
-2.7580992125984252
11
7.065642913385827
21
-2.7612233464566929
0
LINE
8
BLACK
6
CONTINUOUS
10
7.065642913385827
20
-2.7612233464566929
11
7.0795943307086615
21
-2.7627952755905509
0
LINE
8
BLACK
6
CONTINUOUS
10
7.0795943307086615
20
-2.7627952755905509
11
7.0936340157480311
21
-2.7627952755905509
0
LINE
8
BLACK
6
CONTINUOUS
10
7.0936340157480311
20
-2.7627952755905509
11
7.1075854330708657
21
-2.7612233464566929
0
LINE
8
BLACK
6
CONTINUOUS
10
7.1075854330708657
20
-2.7612233464566929
11
7.1212731496062993
21
-2.7580992125984252
0
LINE
8
BLACK
6
CONTINUOUS
10
7.1212731496062993
20
-2.7580992125984252
11
7.1345249606299213
21
-2.7534622047244093
0
LINE
8
BLACK
6
CONTINUOUS
10
7.1345249606299213
20
-2.7534622047244093
11
7.147174330708661
21
-2.7473705905511809
0
LINE
8
BLACK
6
CONTINUOUS
10
7.147174330708661
20
-2.7473705905511809
11
7.1590620472440945
21
-2.7399010236220471
0
LINE
8
BLACK
6
CONTINUOUS
10
7.1590620472440945
20
-2.7399010236220471
11
7.1700387401574801
21
-2.7311474015748032
0
LINE
8
BLACK
6
CONTINUOUS
10
7.1700387401574801
20
-2.7311474015748032
11
7.1799662992125981
21
-2.7212198425196852
0
LINE
8
BLACK
6
CONTINUOUS
10
7.1799662992125981
20
-2.7212198425196852
11
7.1887199212598425
21
-2.7102431496062991
0
LINE
8
BLACK
6
CONTINUOUS
10
7.1887199212598425
20
-2.7102431496062991
11
7.1961894881889759
21
-2.6983554330708661
0
LINE
8
BLACK
6
CONTINUOUS
10
7.1961894881889759
20
-2.6983554330708661
11
7.2022811023622042
21
-2.6857060629921259
0
LINE
8
BLACK
6
CONTINUOUS
10
7.2022811023622042
20
-2.6857060629921259
11
7.2069181102362201
21
-2.6724542519685039
0
LINE
8
BLACK
6
CONTINUOUS
10
7.2069181102362201
20
-2.6724542519685039
11
7.2100422440944882
21
-2.6587665354330707
0
LINE
8
BLACK
6
CONTINUOUS
10
7.2100422440944882
20
-2.6587665354330707
11
7.2116141732283463
21
-2.6448151181102362
0
LINE
8
BLACK
6
CONTINUOUS
10
7.2116141732283463
20
-2.6448151181102362
11
7.2116141732283463
21
-2.6307754330708661
0
LINE
8
BLACK
6
CONTINUOUS
10
7.2116141732283463
20
-2.6307754330708661
11
7.2100422440944882
21
-2.6168240157480316
0
LINE
8
BLACK
6
CONTINUOUS
10
7.2100422440944882
20
-2.6168240157480316
11
7.2069181102362201
21
-2.6031362992125984
0
LINE
8
BLACK
6
CONTINUOUS
10
7.2069181102362201
20
-2.6031362992125984
11
7.2022811023622042
21
-2.5898844881889764
0
LINE
8
BLACK
6
CONTINUOUS
10
7.2022811023622042
20
-2.5898844881889764
11
7.1961894881889759
21
-2.5772351181102362
0
LINE
8
BLACK
6
CONTINUOUS
10
7.1961894881889759
20
-2.5772351181102362
11
7.1887199212598425
21
-2.5653474015748032
0
LINE
8
BLACK
6
CONTINUOUS
10
7.1887199212598425
20
-2.5653474015748032
11
7.1799662992125981
21
-2.5543707086614171
0
LINE
8
BLACK
6
CONTINUOUS
10
7.1799662992125981
20
-2.5543707086614171
11
7.1700387401574801
21
-2.5444431496062991
0
LINE
8
BLACK
6
CONTINUOUS
10
7.1700387401574801
20
-2.5444431496062991
11
7.1590620472440945
21
-2.5356895275590552
0
LINE
8
BLACK
6
CONTINUOUS
10
7.1590620472440945
20
-2.5356895275590552
11
7.147174330708661
21
-2.5282199606299214
0
LINE
8
BLACK
6
CONTINUOUS
10
7.147174330708661
20
-2.5282199606299214
11
7.1345249606299213
21
-2.522128346456693
0
LINE
8
BLACK
6
CONTINUOUS
10
7.1345249606299213
20
-2.522128346456693
11
7.1212731496062993
21
-2.5174913385826772
0
LINE
8
BLACK
6
CONTINUOUS
10
7.1212731496062993
20
-2.5174913385826772
11
7.1075854330708657
21
-2.5143672047244094
0
LINE
8
BLACK
6
CONTINUOUS
10
7.1075854330708657
20
-2.5143672047244094
11
7.0936340157480311
21
-2.5127952755905509
0
LINE
8
BLACK
6
CONTINUOUS
10
7.0936340157480311
20
-2.5127952755905509
11
7.0795943307086615
21
-2.5127952755905509
0
LINE
8
BLACK
6
CONTINUOUS
10
7.0795943307086615
20
-2.5127952755905509
11
7.065642913385827
21
-2.5143672047244094
0
LINE
8
BLACK
6
CONTINUOUS
10
7.065642913385827
20
-2.5143672047244094
11
7.0519551968503933
21
-2.5174913385826772
0
LINE
8
BLACK
6
CONTINUOUS
10
7.0519551968503933
20
-2.5174913385826772
11
7.0387033858267714
21
-2.522128346456693
0
LINE
8
BLACK
6
CONTINUOUS
10
7.0387033858267714
20
-2.522128346456693
11
7.0260540157480316
21
-2.5282199606299214
0
LINE
8
BLACK
6
CONTINUOUS
10
7.0260540157480316
20
-2.5282199606299214
11
7.0141662992125982
21
-2.5356895275590552
0
LINE
8
BLACK
6
CONTINUOUS
10
7.0141662992125982
20
-2.5356895275590552
11
7.0031896062992125
21
-2.5444431496062991
0
LINE
8
BLACK
6
CONTINUOUS
10
7.0031896062992125
20
-2.5444431496062991
11
6.9932620472440945
21
-2.5543707086614171
0
LINE
8
BLACK
6
CONTINUOUS
10
6.9932620472440945
20
-2.5543707086614171
11
6.9845084251968501
21
-2.5653474015748032
0
LINE
8
BLACK
6
CONTINUOUS
10
6.9845084251968501
20
-2.5653474015748032
11
6.9770388582677167
21
-2.5772351181102362
0
LINE
8
BLACK
6
CONTINUOUS
10
6.9770388582677167
20
-2.5772351181102362
11
6.9709472440944884
21
-2.5898844881889764
0
LINE
8
BLACK
6
CONTINUOUS
10
6.9709472440944884
20
-2.5898844881889764
11
6.9663102362204725
21
-2.6031362992125984
0
LINE
8
BLACK
6
CONTINUOUS
10
6.9663102362204725
20
-2.6031362992125984
11
6.9631861023622044
21
-2.6168240157480316
0
LINE
8
BLACK
6
CONTINUOUS
10
6.9631861023622044
20
-2.6168240157480316
11
6.9616141732283463
21
-2.6307754330708661
0
LINE
8
BLACK
6
CONTINUOUS
10
6.9616141732283463
20
-2.6307754330708661
11
6.9616141732283463
21
-2.6448151181102362
0
LINE
8
BLACK
6
CONTINUOUS
10
3.1267546062992126
20
-0.7939725590551181
11
3.1272872834645669
21
-0.7945052362204724
0
LINE
8
BLACK
6
CONTINUOUS
10
3.1272872834645669
20
-0.7945052362204724
11
3.1273622047244092
21
-0.7948818897637795
0
LINE
8
BLACK
6
CONTINUOUS
10
3.1273622047244092
20
-0.7948818897637795
11
3.1273622047244092
21
-1.0114173228346457
0
LINE
8
BLACK
6
CONTINUOUS
10
3.1273622047244092
20
-1.0114173228346457
11
3.1272872834645669
21
-1.0117939763779527
0
LINE
8
BLACK
6
CONTINUOUS
10
3.1272872834645669
20
-1.0117939763779527
11
3.1267546062992126
21
-1.0123266535433071
0
LINE
8
BLACK
6
CONTINUOUS
10
3.1267546062992126
20
-1.0123266535433071
11
3.1263779527559055
21
-1.0124015748031496
0
LINE
8
BLACK
6
CONTINUOUS
10
3.1263779527559055
20
-1.0124015748031496
11
2.7759842519685041
21
-1.0124015748031496
0
LINE
8
BLACK
6
CONTINUOUS
10
2.7759842519685041
20
-1.0124015748031496
11
2.7756075984251969
21
-1.0123266535433071
0
LINE
8
BLACK
6
CONTINUOUS
10
2.7756075984251969
20
-1.0123266535433071
11
2.7755905511811023
21
-1.0123096062992125
0
LINE
8
BLACK
6
CONTINUOUS
10
2.7755905511811023
20
-1.0123096062992125
11
2.7751798031496064
21
-1.0127203543307086
0
LINE
8
BLACK
6
CONTINUOUS
10
2.7751798031496064
20
-1.0127203543307086
11
2.7748031496062993
21
-1.0127952755905512
0
LINE
8
BLACK
6
CONTINUOUS
10
2.7748031496062993
20
-1.0127952755905512
11
2.4244094488188974
21
-1.0127952755905512
0
LINE
8
BLACK
6
CONTINUOUS
10
2.4244094488188974
20
-1.0127952755905512
11
2.4240327952755907
21
-1.0127203543307086
0
LINE
8
BLACK
6
CONTINUOUS
10
2.4240327952755907
20
-1.0127203543307086
11
2.423500118110236
21
-1.0121876771653544
0
LINE
8
BLACK
6
CONTINUOUS
10
2.423500118110236
20
-1.0121876771653544
11
2.4234251968503937
21
-1.0118110236220472
0
LINE
8
BLACK
6
CONTINUOUS
10
2.4234251968503937
20
-1.0118110236220472
11
2.4234251968503937
21
-0.7952755905511811
0
LINE
8
BLACK
6
CONTINUOUS
10
2.4234251968503937
20
-0.7952755905511811
11
2.423500118110236
21
-0.794898937007874
0
LINE
8
BLACK
6
CONTINUOUS
10
2.423500118110236
20
-0.794898937007874
11
2.4240327952755907
21
-0.7943662598425196
0
LINE
8
BLACK
6
CONTINUOUS
10
2.4240327952755907
20
-0.7943662598425196
11
2.4244094488188974
21
-0.7942913385826772
0
LINE
8
BLACK
6
CONTINUOUS
10
2.4244094488188974
20
-0.7942913385826772
11
2.7748031496062993
21
-0.7942913385826772
0
LINE
8
BLACK
6
CONTINUOUS
10
2.7748031496062993
20
-0.7942913385826772
11
2.7751798031496064
21
-0.7943662598425196
0
LINE
8
BLACK
6
CONTINUOUS
10
2.7751798031496064
20
-0.7943662598425196
11
2.7751968503937006
21
-0.7943833070866142
0
LINE
8
BLACK
6
CONTINUOUS
10
2.7751968503937006
20
-0.7943833070866142
11
2.7756075984251969
21
-0.7939725590551181
0
LINE
8
BLACK
6
CONTINUOUS
10
2.7756075984251969
20
-0.7939725590551181
11
2.7759842519685041
21
-0.7938976377952756
0
LINE
8
BLACK
6
CONTINUOUS
10
2.7759842519685041
20
-0.7938976377952756
11
3.1263779527559055
21
-0.7938976377952756
0
LINE
8
BLACK
6
CONTINUOUS
10
3.1263779527559055
20
-0.7938976377952756
11
3.1267546062992126
21
-0.7939725590551181
0
LINE
8
BLACK
6
CONTINUOUS
10
2.4253937007874016
20
-0.7962598425196851
11
2.4253937007874016
21
-1.0108267716535433
0
LINE
8
BLACK
6
CONTINUOUS
10
2.4253937007874016
20
-1.0108267716535433
11
2.7738188976377951
21
-1.0108267716535433
0
LINE
8
BLACK
6
CONTINUOUS
10
2.7738188976377951
20
-1.0108267716535433
11
2.7738188976377951
21
-0.7962598425196851
0
LINE
8
BLACK
6
CONTINUOUS
10
2.7738188976377951
20
-0.7962598425196851
11
2.4253937007874016
21
-0.7962598425196851
0
LINE
8
BLACK
6
CONTINUOUS
10
2.7769685039370078
20
-0.7958661417322834
11
2.7769685039370078
21
-1.0104330708661418
0
LINE
8
BLACK
6
CONTINUOUS
10
2.7769685039370078
20
-1.0104330708661418
11
3.1253937007874013
21
-1.0104330708661418
0
LINE
8
BLACK
6
CONTINUOUS
10
3.1253937007874013
20
-1.0104330708661418
11
3.1253937007874013
21
-0.7958661417322834
0
LINE
8
BLACK
6
CONTINUOUS
10
3.1253937007874013
20
-0.7958661417322834
11
2.7769685039370078
21
-0.7958661417322834
0
CIRCLE
8
BLACK
10
6.6141732283464565
20
-4.7834645669291334
40
0.0531496062992126
0
CIRCLE
8
BLACK
10
4.9212598425196852
20
-0.9645669291338582
40
0.0236220472440945
0
CIRCLE
8
BLACK
10
4.7244094488188972
20
-1.1614173228346456
40
0.0236220472440945
0
CIRCLE
8
BLACK
10
4.5275590551181102
20
-0.9645669291338582
40
0.0236220472440945
0
LINE
8
BLACK
6
CONTINUOUS
10
4.9448818897637796
20
-1.1811023622047243
11
4.9448818897637796
21
-1.1417322834645669
0
ARC
8
BLACK
10
4.9212598425196852
20
-1.1417322834645669
40
0.0236220472440945
50
0.00000000
51
180.00000000
0
LINE
8
BLACK
6
CONTINUOUS
10
4.8976377952755907
20
-1.1417322834645669
11
4.8976377952755907
21
-1.1811023622047243
0
ARC
8
BLACK
10
4.9212598425196852
20
-1.1811023622047243
40
0.0236220472440945
50
180.00000000
51
360.00000000
0
LINE
8
BLACK
6
CONTINUOUS
10
4.8464566929133861
20
-1.1811023622047243
11
4.8464566929133861
21
-1.1417322834645669
0
ARC
8
BLACK
10
4.8228346456692917
20
-1.1417322834645669
40
0.0236220472440945
50
0.00000000
51
180.00000000
0
LINE
8
BLACK
6
CONTINUOUS
10
4.7992125984251963
20
-1.1417322834645669
11
4.7992125984251963
21
-1.1811023622047243
0
ARC
8
BLACK
10
4.8228346456692917
20
-1.1811023622047243
40
0.0236220472440945
50
180.00000000
51
360.00000000
0
LINE
8
BLACK
6
CONTINUOUS
10
4.7440944881889759
20
-0.9409448818897638
11
4.7047244094488185
21
-0.9409448818897638
0
ARC
8
BLACK
10
4.7047244094488185
20
-0.9645669291338582
40
0.0236220472440945
50
90.00000000
51
270.00000000
0
LINE
8
BLACK
6
CONTINUOUS
10
4.7047244094488185
20
-0.9881889763779528
11
4.7440944881889759
21
-0.9881889763779528
0
ARC
8
BLACK
10
4.7440944881889759
20
-0.9645669291338582
40
0.0236220472440945
50
270.00000000
51
450.00000000
0
LINE
8
BLACK
6
CONTINUOUS
10
4.5039370078740157
20
-1.1417322834645669
11
4.5039370078740157
21
-1.1811023622047243
0
ARC
8
BLACK
10
4.5275590551181102
20
-1.1811023622047243
40
0.0236220472440945
50
-180.00000000
51
0.00000000
0
LINE
8
BLACK
6
CONTINUOUS
10
4.5511811023622046
20
-1.1811023622047243
11
4.5511811023622046
21
-1.1417322834645669
0
ARC
8
BLACK
10
4.5275590551181102
20
-1.1417322834645669
40
0.0236220472440945
50
0.00000000
51
180.00000000
0
LINE
8
BLACK
6
CONTINUOUS
10
4.6023622047244093
20
-1.1417322834645669
11
4.6023622047244093
21
-1.1811023622047243
0
ARC
8
BLACK
10
4.6259842519685037
20
-1.1811023622047243
40
0.0236220472440945
50
-180.00000000
51
0.00000000
0
LINE
8
BLACK
6
CONTINUOUS
10
4.6496062992125982
20
-1.1811023622047243
11
4.6496062992125982
21
-1.1417322834645669
0
ARC
8
BLACK
10
4.6259842519685037
20
-1.1417322834645669
40
0.0236220472440945
50
0.00000000
51
180.00000000
0
CIRCLE
8
BLACK
10
1.1043307086614174
20
-1.9685039370078741
40
0.0275590551181102
0
CIRCLE
8
BLACK
10
1.1043307086614174
20
-1.3295275590551181
40
0.0275590551181102
0
CIRCLE
8
BLACK
10
0.8543307086614172
20
-1.9685039370078741
40
0.0275590551181102
0
CIRCLE
8
BLACK
10
0.8543307086614172
20
-1.3295275590551181
40
0.0275590551181102
0
CIRCLE
8
BLACK
10
1.3543307086614174
20
-1.9685039370078741
40
0.0275590551181102
0
CIRCLE
8
BLACK
10
1.3543307086614174
20
-1.3295275590551181
40
0.0275590551181102
0
CIRCLE
8
BLACK
10
1.1043307086614174
20
-4.377952755905512
40
0.0275590551181102
0
CIRCLE
8
BLACK
10
1.1043307086614174
20
-3.7389763779527558
40
0.0275590551181102
0
CIRCLE
8
BLACK
10
0.8543307086614172
20
-4.377952755905512
40
0.0275590551181102
0
CIRCLE
8
BLACK
10
0.8543307086614172
20
-3.7389763779527558
40
0.0275590551181102
0
CIRCLE
8
BLACK
10
1.3543307086614174
20
-4.377952755905512
40
0.0275590551181102
0
CIRCLE
8
BLACK
10
1.3543307086614174
20
-3.7389763779527558
40
0.0275590551181102
0
LINE
8
BLACK
6
CONTINUOUS
10
7.0014645669291333
20
-1.1609685039370079
11
6.8991023622047241
21
-1.1609685039370079
0
ARC
8
BLACK
10
6.8991023622047241
20
-1.1964015748031496
40
0.0354330708661417
50
90.00000000
51
270.00000000
0
LINE
8
BLACK
6
CONTINUOUS
10
6.8991023622047241
20
-1.2318346456692912
11
7.0014645669291333
21
-1.2318346456692912
0
ARC
8
BLACK
10
7.0014645669291333
20
-1.1964015748031496
40
0.0354330708661417
50
270.00000000
51
450.00000000
0
LINE
8
BLACK
6
CONTINUOUS
10
6.9935905511811018
20
-0.9326220472440945
11
6.9069763779527555
21
-0.9326220472440945
0
ARC
8
BLACK
10
6.9069763779527555
20
-0.9680551181102361
40
0.0354330708661417
50
90.00000000
51
270.00000000
0
LINE
8
BLACK
6
CONTINUOUS
10
6.9069763779527555
20
-1.003488188976378
11
6.9935905511811018
21
-1.003488188976378
0
ARC
8
BLACK
10
6.9935905511811018
20
-0.9680551181102361
40
0.0354330708661417
50
270.00000000
51
450.00000000
0
LINE
8
BLACK
6
CONTINUOUS
10
6.7258740157480315
20
-1.034984251968504
11
6.7258740157480315
21
-1.1215984251968503
0
ARC
8
BLACK
10
6.7613070866141731
20
-1.1215984251968503
40
0.0354330708661417
50
180.00000000
51
360.00000000
0
LINE
8
BLACK
6
CONTINUOUS
10
6.7967401574803148
20
-1.1215984251968503
11
6.7967401574803148
21
-1.034984251968504
0
ARC
8
BLACK
10
6.7613070866141731
20
-1.034984251968504
40
0.0354330708661417
50
360.00000000
51
540.00000000
0
CIRCLE
8
BLACK
10
6.914850393700787
20
-1.1101811023622048
40
0.0255905511811024
0
CIRCLE
8
BLACK
10
6.914850393700787
20
-0.9133307086614173
40
0.0255905511811024
0
CIRCLE
8
BLACK
10
1.1043307086614174
20
-3.5826771653543306
40
0.0275590551181102
0
CIRCLE
8
BLACK
10
1.1043307086614174
20
-2.9437007874015748
40
0.0275590551181102
0
CIRCLE
8
BLACK
10
0.8543307086614172
20
-3.5826771653543306
40
0.0275590551181102
0
CIRCLE
8
BLACK
10
0.8543307086614172
20
-2.9437007874015748
40
0.0275590551181102
0
CIRCLE
8
BLACK
10
1.3543307086614174
20
-3.5826771653543306
40
0.0275590551181102
0
CIRCLE
8
BLACK
10
1.3543307086614174
20
-2.9437007874015748
40
0.0275590551181102
0
CIRCLE
8
BLACK
10
7.1633858267716537
20
-3.7399606299212595
40
0.0275590551181102
0
CIRCLE
8
BLACK
10
7.1633858267716537
20
-4.3789370078740157
40
0.0275590551181102
0
CIRCLE
8
BLACK
10
7.4133858267716537
20
-3.7399606299212595
40
0.0275590551181102
0
CIRCLE
8
BLACK
10
7.4133858267716537
20
-4.3789370078740157
40
0.0275590551181102
0
CIRCLE
8
BLACK
10
6.9133858267716537
20
-3.7399606299212595
40
0.0275590551181102
0
CIRCLE
8
BLACK
10
6.9133858267716537
20
-4.3789370078740157
40
0.0275590551181102
0
CIRCLE
8
BLACK
10
5.0911417322834644
20
-1.75
40
0.0196850393700787
0
CIRCLE
8
BLACK
10
5.1911417322834641
20
-1.75
40
0.0196850393700787
0
CIRCLE
8
BLACK
10
5.2911417322834646
20
-1.75
40
0.0196850393700787
0
CIRCLE
8
BLACK
10
4.6842519685039372
20
-4.7842519685039369
40
0.0531496062992126
0
CIRCLE
8
BLACK
10
3.1535433070866139
20
-0.8297244094488189
40
0.0098425196850394
0
CIRCLE
8
BLACK
10
3.1535433070866139
20
-0.8690944881889764
40
0.0098425196850394
0
CIRCLE
8
BLACK
10
3.1535433070866139
20
-0.9084645669291338
40
0.0098425196850394
0
CIRCLE
8
BLACK
10
3.1535433070866139
20
-0.9478346456692913
40
0.0098425196850394
0
CIRCLE
8
BLACK
10
3.1535433070866139
20
-0.9872047244094488
40
0.0098425196850394
0
CIRCLE
8
BLACK
10
3.1535433070866139
20
-1.0265748031496063
40
0.0098425196850394
0
CIRCLE
8
BLACK
10
3.1535433070866139
20
-1.1840551181102361
40
0.0098425196850394
0
CIRCLE
8
BLACK
10
3.1535433070866139
20
-1.2234251968503937
40
0.0098425196850394
0
CIRCLE
8
BLACK
10
3.1535433070866139
20
-1.2627952755905512
40
0.0098425196850394
0
CIRCLE
8
BLACK
10
3.1535433070866139
20
-1.3021653543307086
40
0.0098425196850394
0
CIRCLE
8
BLACK
10
3.1535433070866139
20
-1.3415354330708662
40
0.0098425196850394
0
CIRCLE
8
BLACK
10
3.1535433070866139
20
-1.3809055118110236
40
0.0098425196850394
0
CIRCLE
8
BLACK
10
3.1535433070866139
20
-1.420275590551181
40
0.0098425196850394
0
CIRCLE
8
BLACK
10
3.1929133858267718
20
-1.420275590551181
40
0.0098425196850394
0
CIRCLE
8
BLACK
10
3.2322834645669292
20
-1.420275590551181
40
0.0098425196850394
0
CIRCLE
8
BLACK
10
3.2716535433070866
20
-1.420275590551181
40
0.0098425196850394
0
CIRCLE
8
BLACK
10
3.311023622047244
20
-1.420275590551181
40
0.0098425196850394
0
CIRCLE
8
BLACK
10
3.3503937007874014
20
-1.420275590551181
40
0.0098425196850394
0
CIRCLE
8
BLACK
10
3.3897637795275588
20
-1.420275590551181
40
0.0098425196850394
0
CIRCLE
8
BLACK
10
3.4291338582677167
20
-1.420275590551181
40
0.0098425196850394
0
CIRCLE
8
BLACK
10
3.4685039370078741
20
-1.420275590551181
40
0.0098425196850394
0
CIRCLE
8
BLACK
10
3.5078740157480315
20
-1.420275590551181
40
0.0098425196850394
0
CIRCLE
8
BLACK
10
3.5472440944881889
20
-1.420275590551181
40
0.0098425196850394
0
CIRCLE
8
BLACK
10
3.5866141732283463
20
-1.420275590551181
40
0.0098425196850394
0
CIRCLE
8
BLACK
10
3.6259842519685037
20
-1.420275590551181
40
0.0098425196850394
0
CIRCLE
8
BLACK
10
3.6653543307086611
20
-1.420275590551181
40
0.0098425196850394
0
CIRCLE
8
BLACK
10
3.704724409448819
20
-1.420275590551181
40
0.0098425196850394
0
CIRCLE
8
BLACK
10
3.7440944881889764
20
-1.420275590551181
40
0.0098425196850394
0
CIRCLE
8
BLACK
10
3.7834645669291338
20
-1.420275590551181
40
0.0098425196850394
0
CIRCLE
8
BLACK
10
3.8228346456692912
20
-1.420275590551181
40
0.0098425196850394
0
CIRCLE
8
BLACK
10
3.8622047244094486
20
-1.420275590551181
40
0.0098425196850394
0
CIRCLE
8
BLACK
10
3.901574803149606
20
-1.420275590551181
40
0.0098425196850394
0
CIRCLE
8
BLACK
10
3.9409448818897639
20
-1.420275590551181
40
0.0098425196850394
0
CIRCLE
8
BLACK
10
3.9803149606299213
20
-1.420275590551181
40
0.0098425196850394
0
CIRCLE
8
BLACK
10
4.0196850393700787
20
-1.420275590551181
40
0.0098425196850394
0
CIRCLE
8
BLACK
10
4.0590551181102361
20
-1.420275590551181
40
0.0098425196850394
0
CIRCLE
8
BLACK
10
4.0984251968503935
20
-1.420275590551181
40
0.0098425196850394
0
CIRCLE
8
BLACK
10
4.1377952755905509
20
-1.420275590551181
40
0.0098425196850394
0
CIRCLE
8
BLACK
10
4.1771653543307083
20
-1.420275590551181
40
0.0098425196850394
0
CIRCLE
8
BLACK
10
4.2165354330708658
20
-1.420275590551181
40
0.0098425196850394
0
CIRCLE
8
BLACK
10
4.2559055118110232
20
-1.420275590551181
40
0.0098425196850394
0
CIRCLE
8
BLACK
10
4.2952755905511806
20
-1.420275590551181
40
0.0098425196850394
0
CIRCLE
8
BLACK
10
4.3346456692913389
20
-1.420275590551181
40
0.0098425196850394
0
CIRCLE
8
BLACK
10
4.3740157480314963
20
-1.420275590551181
40
0.0098425196850394
0
CIRCLE
8
BLACK
10
4.4133858267716537
20
-1.420275590551181
40
0.0098425196850394
0
CIRCLE
8
BLACK
10
4.4527559055118111
20
-1.420275590551181
40
0.0098425196850394
0
CIRCLE
8
BLACK
10
4.4921259842519685
20
-1.420275590551181
40
0.0098425196850394
0
CIRCLE
8
BLACK
10
4.5314960629921259
20
-1.420275590551181
40
0.0098425196850394
0
CIRCLE
8
BLACK
10
4.5708661417322833
20
-1.420275590551181
40
0.0098425196850394
0
CIRCLE
8
BLACK
10
4.6102362204724407
20
-1.420275590551181
40
0.0098425196850394
0
CIRCLE
8
BLACK
10
4.6496062992125982
20
-1.420275590551181
40
0.0098425196850394
0
CIRCLE
8
BLACK
10
4.6889763779527556
20
-1.420275590551181
40
0.0098425196850394
0
CIRCLE
8
BLACK
10
4.728346456692913
20
-1.420275590551181
40
0.0098425196850394
0
CIRCLE
8
BLACK
10
4.7677165354330704
20
-1.420275590551181
40
0.0098425196850394
0
CIRCLE
8
BLACK
10
4.8070866141732278
20
-1.420275590551181
40
0.0098425196850394
0
CIRCLE
8
BLACK
10
4.8464566929133861
20
-1.420275590551181
40
0.0098425196850394
0
CIRCLE
8
BLACK
10
4.8858267716535435
20
-1.420275590551181
40
0.0098425196850394
0
CIRCLE
8
BLACK
10
4.9251968503937009
20
-1.420275590551181
40
0.0098425196850394
0
CIRCLE
8
BLACK
10
4.9645669291338583
20
-1.420275590551181
40
0.0098425196850394
0
CIRCLE
8
BLACK
10
5.0039370078740157
20
-1.420275590551181
40
0.0098425196850394
0
CIRCLE
8
BLACK
10
5.0433070866141732
20
-1.420275590551181
40
0.0098425196850394
0
CIRCLE
8
BLACK
10
5.0826771653543306
20
-1.420275590551181
40
0.0098425196850394
0
CIRCLE
8
BLACK
10
5.122047244094488
20
-0.8297244094488189
40
0.0098425196850394
0
CIRCLE
8
BLACK
10
5.122047244094488
20
-0.8690944881889764
40
0.0098425196850394
0
CIRCLE
8
BLACK
10
5.122047244094488
20
-0.9084645669291338
40
0.0098425196850394
0
CIRCLE
8
BLACK
10
5.122047244094488
20
-0.9478346456692913
40
0.0098425196850394
0
CIRCLE
8
BLACK
10
5.122047244094488
20
-0.9872047244094488
40
0.0098425196850394
0
CIRCLE
8
BLACK
10
5.122047244094488
20
-1.0265748031496063
40
0.0098425196850394
0
CIRCLE
8
BLACK
10
5.122047244094488
20
-1.0659448818897637
40
0.0098425196850394
0
CIRCLE
8
BLACK
10
5.122047244094488
20
-1.1053149606299213
40
0.0098425196850394
0
CIRCLE
8
BLACK
10
5.122047244094488
20
-1.1446850393700787
40
0.0098425196850394
0
CIRCLE
8
BLACK
10
5.122047244094488
20
-1.1840551181102361
40
0.0098425196850394
0
CIRCLE
8
BLACK
10
5.122047244094488
20
-1.2234251968503937
40
0.0098425196850394
0
CIRCLE
8
BLACK
10
5.122047244094488
20
-1.2627952755905512
40
0.0098425196850394
0
CIRCLE
8
BLACK
10
5.122047244094488
20
-1.3021653543307086
40
0.0098425196850394
0
CIRCLE
8
BLACK
10
5.122047244094488
20
-1.3415354330708662
40
0.0098425196850394
0
CIRCLE
8
BLACK
10
5.122047244094488
20
-1.3809055118110236
40
0.0098425196850394
0
CIRCLE
8
BLACK
10
5.122047244094488
20
-1.420275590551181
40
0.0098425196850394
0
CIRCLE
8
BLACK
10
0.984251968503937
20
-0.905511811023622
40
0.0531496062992126
0
CIRCLE
8
BLACK
10
7.1639763779527561
20
-1.3307086614173229
40
0.0275590551181102
0
CIRCLE
8
BLACK
10
7.1639763779527561
20
-1.9696850393700787
40
0.0275590551181102
0
CIRCLE
8
BLACK
10
7.4139763779527561
20
-1.3307086614173229
40
0.0275590551181102
0
CIRCLE
8
BLACK
10
7.4139763779527561
20
-1.9696850393700787
40
0.0275590551181102
0
CIRCLE
8
BLACK
10
6.9139763779527561
20
-1.3307086614173229
40
0.0275590551181102
0
CIRCLE
8
BLACK
10
6.9139763779527561
20
-1.9696850393700787
40
0.0275590551181102
0
CIRCLE
8
BLACK
10
6.6141732283464565
20
-2.5
40
0.0531496062992126
0
CIRCLE
8
BLACK
10
4.4291338582677167
20
-1.2598425196850394
40
0.026
0
CIRCLE
8
BLACK
10
4.7244094488188972
20
-1.2598425196850394
40
0.026
0
CIRCLE
8
BLACK
10
5.0196850393700787
20
-1.2598425196850394
40
0.026
0
CIRCLE
8
BLACK
10
4.5275590551181102
20
-1.3582677165354331
40
0.026
0
CIRCLE
8
BLACK
10
4.9212598425196852
20
-1.3582677165354331
40
0.026
0
CIRCLE
8
BLACK
10
4.8228346456692917
20
-0.8661417322834646
40
0.026
0
CIRCLE
8
BLACK
10
4.9212598425196852
20
-0.8661417322834646
40
0.026
0
CIRCLE
8
BLACK
10
4.5275590551181102
20
-0.8661417322834646
40
0.026
0
CIRCLE
8
BLACK
10
4.6259842519685037
20
-0.8661417322834646
40
0.026
0
CIRCLE
8
BLACK
10
4.6850393700787398
20
-2.5
40
0.0531496062992126
0
CIRCLE
8
BLACK
10
2.372047244094488
20
-1.2401574803149606
40
0.0196850393700787
0
CIRCLE
8
BLACK
10
2.372047244094488
20
-1.4370078740157479
40
0.0196850393700787
0
CIRCLE
8
BLACK
10
2.372047244094488
20
-1.3385826771653544
40
0.0196850393700787
0
CIRCLE
8
BLACK
10
2.6673228346456694
20
-1.1181102362204725
40
0.0511811023622047
0
CIRCLE
8
BLACK
10
2.6673228346456694
20
-1.5590551181102361
40
0.0511811023622047
0
CIRCLE
8
BLACK
10
2.9429133858267718
20
-1.4370078740157479
40
0.0196850393700787
0
CIRCLE
8
BLACK
10
2.9429133858267718
20
-1.2401574803149606
40
0.0196850393700787
0
CIRCLE
8
BLACK
10
6.3570866141732285
20
-1.6437007874015748
40
0.0059055118110236
0
CIRCLE
8
BLACK
10
6.3059055118110239
20
-1.6437007874015748
40
0.0059055118110236
0
CIRCLE
8
BLACK
10
6.2547244094488184
20
-1.6437007874015748
40
0.0059055118110236
0
CIRCLE
8
BLACK
10
6.2035433070866137
20
-1.6437007874015748
40
0.0059055118110236
0
CIRCLE
8
BLACK
10
6.3570866141732285
20
-1.6948818897637794
40
0.0059055118110236
0
CIRCLE
8
BLACK
10
6.3059055118110239
20
-1.6948818897637794
40
0.0059055118110236
0
CIRCLE
8
BLACK
10
6.2547244094488184
20
-1.6948818897637794
40
0.0059055118110236
0
CIRCLE
8
BLACK
10
6.2035433070866137
20
-1.6948818897637794
40
0.0059055118110236
0
CIRCLE
8
BLACK
10
6.6141732283464565
20
-5.0393700787401574
40
0.0531496062992126
0
CIRCLE
8
BLACK
10
4.2214566929133861
20
-3.2007874015748032
40
0.0196850393700787
0
CIRCLE
8
BLACK
10
4.1214566929133856
20
-3.2007874015748032
40
0.0196850393700787
0
CIRCLE
8
BLACK
10
4.0214566929133859
20
-3.2007874015748032
40
0.0196850393700787
0
CIRCLE
8
BLACK
10
7.1633858267716537
20
-2.9440944881889761
40
0.0275590551181102
0
CIRCLE
8
BLACK
10
7.1633858267716537
20
-3.5830708661417323
40
0.0275590551181102
0
CIRCLE
8
BLACK
10
7.4133858267716537
20
-2.9440944881889761
40
0.0275590551181102
0
CIRCLE
8
BLACK
10
7.4133858267716537
20
-3.5830708661417323
40
0.0275590551181102
0
CIRCLE
8
BLACK
10
6.9133858267716537
20
-2.9440944881889761
40
0.0275590551181102
0
CIRCLE
8
BLACK
10
6.9133858267716537
20
-3.5830708661417323
40
0.0275590551181102
0
LINE
8
BLACK
6
CONTINUOUS
10
0.7629921259842519
20
-2.1425196850393702
11
0.776771653543307
21
-2.1425196850393702
0
ARC
8
BLACK
10
0.776771653543307
20
-2.1159448818897637
40
0.0265748031496063
50
-90.00000000
51
90.00000000
0
LINE
8
BLACK
6
CONTINUOUS
10
0.776771653543307
20
-2.0893700787401572
11
0.7629921259842519
21
-2.0893700787401572
0
ARC
8
BLACK
10
0.7629921259842519
20
-2.1159448818897637
40
0.0265748031496063
50
90.00000000
51
270.00000000
0
LINE
8
BLACK
6
CONTINUOUS
10
0.8801181102362204
20
-2.1498031496062993
11
0.8958661417322834
21
-2.1498031496062993
0
ARC
8
BLACK
10
0.8958661417322834
20
-2.1281496062992127
40
0.0216535433070866
50
-90.00000000
51
90.00000000
0
LINE
8
BLACK
6
CONTINUOUS
10
0.8958661417322834
20
-2.1064960629921261
11
0.8801181102362204
21
-2.1064960629921261
0
ARC
8
BLACK
10
0.8801181102362204
20
-2.1281496062992127
40
0.0216535433070866
50
90.00000000
51
270.00000000
0
LINE
8
BLACK
6
CONTINUOUS
10
0.8801181102362204
20
-2.3403543307086614
11
0.8958661417322834
21
-2.3403543307086614
0
ARC
8
BLACK
10
0.8958661417322834
20
-2.3187007874015748
40
0.0216535433070866
50
-90.00000000
51
90.00000000
0
LINE
8
BLACK
6
CONTINUOUS
10
0.8958661417322834
20
-2.2970472440944882
11
0.8801181102362204
21
-2.2970472440944882
0
ARC
8
BLACK
10
0.8801181102362204
20
-2.3187007874015748
40
0.0216535433070866
50
90.00000000
51
270.00000000
0
LINE
8
BLACK
6
CONTINUOUS
10
0.7629921259842519
20
-2.3574803149606298
11
0.776771653543307
21
-2.3574803149606298
0
ARC
8
BLACK
10
0.776771653543307
20
-2.3309055118110238
40
0.0265748031496063
50
-90.00000000
51
90.00000000
0
LINE
8
BLACK
6
CONTINUOUS
10
0.776771653543307
20
-2.3043307086614173
11
0.7629921259842519
21
-2.3043307086614173
0
ARC
8
BLACK
10
0.7629921259842519
20
-2.3309055118110238
40
0.0265748031496063
50
90.00000000
51
270.00000000
0
CIRCLE
8
BLACK
10
4.1781496062992121
20
-1.8454724409448819
40
0.0068897637795276
0
CIRCLE
8
BLACK
10
4.228346456692913
20
-1.8454724409448819
40
0.0068897637795276
0
CIRCLE
8
BLACK
10
4.2785433070866139
20
-1.8454724409448819
40
0.0068897637795276
0
CIRCLE
8
BLACK
10
4.1781496062992121
20
-1.795275590551181
40
0.0068897637795276
0
CIRCLE
8
BLACK
10
4.228346456692913
20
-1.795275590551181
40
0.0068897637795276
0
CIRCLE
8
BLACK
10
4.2785433070866139
20
-1.795275590551181
40
0.0068897637795276
0
CIRCLE
8
BLACK
10
4.1781496062992121
20
-1.7450787401574803
40
0.0068897637795276
0
CIRCLE
8
BLACK
10
4.228346456692913
20
-1.7450787401574803
40
0.0068897637795276
0
CIRCLE
8
BLACK
10
4.2785433070866139
20
-1.7450787401574803
40
0.0068897637795276
0
CIRCLE
8
BLACK
10
2.089763779527559
20
-1.25
40
0.0187007874015748
0
CIRCLE
8
BLACK
10
1.9913385826771652
20
-1.25
40
0.0187007874015748
0
CIRCLE
8
BLACK
10
1.9125984251968504
20
-1.25
40
0.0187007874015748
0
CIRCLE
8
BLACK
10
1.8141732283464567
20
-1.25
40
0.0187007874015748
0
CIRCLE
8
BLACK
10
2.2106299212598426
20
-1.1433070866141732
40
0.0452755905511811
0
CIRCLE
8
BLACK
10
1.6933070866141733
20
-1.1433070866141732
40
0.0452755905511811
0
CIRCLE
8
BLACK
10
3.5039370078740157
20
-4.3897637795275593
40
0.0531496062992126
0
CIRCLE
8
BLACK
10
3.5039370078740157
20
-2.5
40
0.0531496062992126
0
CIRCLE
8
BLACK
10
2.204724409448819
20
-4.3897637795275593
40
0.0531496062992126
0
CIRCLE
8
BLACK
10
2.204724409448819
20
-2.5
40
0.0531496062992126
0
CIRCLE
8
BLACK
10
1.6535433070866141
20
-5.0393700787401574
40
0.0531496062992126
0
CIRCLE
8
BLACK
10
7.2836856299212593
20
-0.905290748031496
40
0.0531496062992126
0
CIRCLE
8
BLACK
10
5.3248031496062991
20
-1.2401574803149606
40
0.0196850393700787
0
CIRCLE
8
BLACK
10
5.3248031496062991
20
-1.4370078740157479
40
0.0196850393700787
0
CIRCLE
8
BLACK
10
5.3248031496062991
20
-1.3385826771653544
40
0.0196850393700787
0
CIRCLE
8
BLACK
10
5.6200787401574805
20
-1.1181102362204725
40
0.0511811023622047
0
CIRCLE
8
BLACK
10
5.6200787401574805
20
-1.5590551181102361
40
0.0511811023622047
0
CIRCLE
8
BLACK
10
5.8956692913385824
20
-1.4370078740157479
40
0.0196850393700787
0
CIRCLE
8
BLACK
10
5.8956692913385824
20
-1.2401574803149606
40
0.0196850393700787
0
CIRCLE
8
BLACK
10
4.1338582677165352
20
-3.8582677165354329
40
0.0531496062992126
0
CIRCLE
8
BLACK
10
3.2480314960629921
20
-1.2598425196850394
40
0.026
0
CIRCLE
8
BLACK
10
3.5433070866141732
20
-1.2598425196850394
40
0.026
0
CIRCLE
8
BLACK
10
3.8385826771653542
20
-1.2598425196850394
40
0.026
0
CIRCLE
8
BLACK
10
3.3464566929133857
20
-1.3582677165354331
40
0.026
0
CIRCLE
8
BLACK
10
3.7401574803149606
20
-1.3582677165354331
40
0.026
0
CIRCLE
8
BLACK
10
3.6417322834645667
20
-0.8661417322834646
40
0.026
0
CIRCLE
8
BLACK
10
3.7401574803149606
20
-0.8661417322834646
40
0.026
0
CIRCLE
8
BLACK
10
3.3464566929133857
20
-0.8661417322834646
40
0.026
0
CIRCLE
8
BLACK
10
3.4448818897637796
20
-0.8661417322834646
40
0.026
0
CIRCLE
8
BLACK
10
3.7399409448818899
20
-0.9645669291338582
40
0.0236220472440945
0
CIRCLE
8
BLACK
10
3.5430905511811024
20
-1.1614173228346456
40
0.0236220472440945
0
CIRCLE
8
BLACK
10
3.3462401574803149
20
-0.9645669291338582
40
0.0236220472440945
0
LINE
8
BLACK
6
CONTINUOUS
10
3.7635629921259843
20
-1.1811023622047243
11
3.7635629921259843
21
-1.1417322834645669
0
ARC
8
BLACK
10
3.7399409448818899
20
-1.1417322834645669
40
0.0236220472440945
50
0.00000000
51
180.00000000
0
LINE
8
BLACK
6
CONTINUOUS
10
3.716318897637795
20
-1.1417322834645669
11
3.716318897637795
21
-1.1811023622047243
0
ARC
8
BLACK
10
3.7399409448818899
20
-1.1811023622047243
40
0.0236220472440945
50
180.00000000
51
360.00000000
0
LINE
8
BLACK
6
CONTINUOUS
10
3.6651377952755904
20
-1.1811023622047243
11
3.6651377952755904
21
-1.1417322834645669
0
ARC
8
BLACK
10
3.6415157480314959
20
-1.1417322834645669
40
0.0236220472440945
50
0.00000000
51
180.00000000
0
LINE
8
BLACK
6
CONTINUOUS
10
3.6178937007874015
20
-1.1417322834645669
11
3.6178937007874015
21
-1.1811023622047243
0
ARC
8
BLACK
10
3.6415157480314959
20
-1.1811023622047243
40
0.0236220472440945
50
180.00000000
51
360.00000000
0
LINE
8
BLACK
6
CONTINUOUS
10
3.5627755905511811
20
-0.9409448818897638
11
3.5234055118110237
21
-0.9409448818897638
0
ARC
8
BLACK
10
3.5234055118110237
20
-0.9645669291338582
40
0.0236220472440945
50
90.00000000
51
270.00000000
0
LINE
8
BLACK
6
CONTINUOUS
10
3.5234055118110237
20
-0.9881889763779528
11
3.5627755905511811
21
-0.9881889763779528
0
ARC
8
BLACK
10
3.5627755905511811
20
-0.9645669291338582
40
0.0236220472440945
50
270.00000000
51
450.00000000
0
LINE
8
BLACK
6
CONTINUOUS
10
3.3226181102362204
20
-1.1417322834645669
11
3.3226181102362204
21
-1.1811023622047243
0
ARC
8
BLACK
10
3.3462401574803149
20
-1.1811023622047243
40
0.0236220472440945
50
-180.00000000
51
0.00000000
0
LINE
8
BLACK
6
CONTINUOUS
10
3.3698622047244093
20
-1.1811023622047243
11
3.3698622047244093
21
-1.1417322834645669
0
ARC
8
BLACK
10
3.3462401574803149
20
-1.1417322834645669
40
0.0236220472440945
50
0.00000000
51
180.00000000
0
LINE
8
BLACK
6
CONTINUOUS
10
3.421043307086614
20
-1.1417322834645669
11
3.421043307086614
21
-1.1811023622047243
0
ARC
8
BLACK
10
3.4446653543307084
20
-1.1811023622047243
40
0.0236220472440945
50
-180.00000000
51
0.00000000
0
LINE
8
BLACK
6
CONTINUOUS
10
3.4682874015748029
20
-1.1811023622047243
11
3.4682874015748029
21
-1.1417322834645669
0
ARC
8
BLACK
10
3.4446653543307084
20
-1.1417322834645669
40
0.0236220472440945
50
0.00000000
51
180.00000000
0
CIRCLE
8
BLACK
10
1.1811023622047243
20
-4.6850393700787398
40
0.0728346456692913
0
CIRCLE
8
BLACK
10
4.1338582677165352
20
-2.6377952755905509
40
0.0728346456692913
0
CIRCLE
8
BLACK
10
1.1811023622047243
20
-2.6377952755905509
40
0.0728346456692913
0
CIRCLE
8
BLACK
10
7.0866141732283463
20
-2.6377952755905509
40
0.0728346456692913
0
CIRCLE
8
BLACK
10
4.1338582677165352
20
-4.6850393700787398
40
0.0728346456692913
0
CIRCLE
8
BLACK
10
2.8724409448818897
20
-0.9248031496062992
40
0.0147637795275591
0
CIRCLE
8
BLACK
10
2.9511811023622045
20
-0.9248031496062992
40
0.0147637795275591
0
CIRCLE
8
BLACK
10
3.0299212598425198
20
-0.9248031496062992
40
0.0147637795275591
0
CIRCLE
8
BLACK
10
7.0866141732283463
20
-4.6850393700787398
40
0.0728346456692913
0
CIRCLE
8
BLACK
10
4.734251968503937
20
-2.6919527559055116
40
0.0196850393700787
0
CIRCLE
8
BLACK
10
4.6342519685039365
20
-2.6919527559055116
40
0.0196850393700787
0
CIRCLE
8
BLACK
10
4.734251968503937
20
-2.7919527559055117
40
0.0196850393700787
0
CIRCLE
8
BLACK
10
4.6342519685039365
20
-2.7919527559055117
40
0.0196850393700787
0
CIRCLE
8
BLACK
10
4.734251968503937
20
-2.8919527559055118
40
0.0196850393700787
0
CIRCLE
8
BLACK
10
4.6342519685039365
20
-2.8919527559055118
40
0.0196850393700787
0
CIRCLE
8
BLACK
10
4.734251968503937
20
-2.9919527559055119
40
0.0196850393700787
0
CIRCLE
8
BLACK
10
4.6342519685039365
20
-2.9919527559055119
40
0.0196850393700787
0
CIRCLE
8
BLACK
10
4.734251968503937
20
-3.0919527559055116
40
0.0196850393700787
0
CIRCLE
8
BLACK
10
4.6342519685039365
20
-3.0919527559055116
40
0.0196850393700787
0
CIRCLE
8
BLACK
10
4.734251968503937
20
-3.1919527559055116
40
0.0196850393700787
0
CIRCLE
8
BLACK
10
4.6342519685039365
20
-3.1919527559055116
40
0.0196850393700787
0
CIRCLE
8
BLACK
10
4.734251968503937
20
-3.2919527559055117
40
0.0196850393700787
0
CIRCLE
8
BLACK
10
4.6342519685039365
20
-3.2919527559055117
40
0.0196850393700787
0
CIRCLE
8
BLACK
10
4.734251968503937
20
-3.3919527559055118
40
0.0196850393700787
0
CIRCLE
8
BLACK
10
4.6342519685039365
20
-3.3919527559055118
40
0.0196850393700787
0
CIRCLE
8
BLACK
10
4.734251968503937
20
-3.4919527559055119
40
0.0196850393700787
0
CIRCLE
8
BLACK
10
4.6342519685039365
20
-3.4919527559055119
40
0.0196850393700787
0
CIRCLE
8
BLACK
10
4.734251968503937
20
-3.5919527559055116
40
0.0196850393700787
0
CIRCLE
8
BLACK
10
4.6342519685039365
20
-3.5919527559055116
40
0.0196850393700787
0
CIRCLE
8
BLACK
10
4.734251968503937
20
-3.6919527559055116
40
0.0196850393700787
0
CIRCLE
8
BLACK
10
4.6342519685039365
20
-3.6919527559055116
40
0.0196850393700787
0
CIRCLE
8
BLACK
10
4.734251968503937
20
-3.7919527559055117
40
0.0196850393700787
0
CIRCLE
8
BLACK
10
4.6342519685039365
20
-3.7919527559055117
40
0.0196850393700787
0
CIRCLE
8
BLACK
10
4.734251968503937
20
-3.8919527559055118
40
0.0196850393700787
0
CIRCLE
8
BLACK
10
4.6342519685039365
20
-3.8919527559055118
40
0.0196850393700787
0
CIRCLE
8
BLACK
10
4.734251968503937
20
-3.9919527559055119
40
0.0196850393700787
0
CIRCLE
8
BLACK
10
4.6342519685039365
20
-3.9919527559055119
40
0.0196850393700787
0
CIRCLE
8
BLACK
10
4.734251968503937
20
-4.0919527559055116
40
0.0196850393700787
0
CIRCLE
8
BLACK
10
4.6342519685039365
20
-4.0919527559055116
40
0.0196850393700787
0
CIRCLE
8
BLACK
10
4.734251968503937
20
-4.1919527559055121
40
0.0196850393700787
0
CIRCLE
8
BLACK
10
4.6342519685039365
20
-4.1919527559055121
40
0.0196850393700787
0
CIRCLE
8
BLACK
10
4.734251968503937
20
-4.2919527559055117
40
0.0196850393700787
0
CIRCLE
8
BLACK
10
4.6342519685039365
20
-4.2919527559055117
40
0.0196850393700787
0
CIRCLE
8
BLACK
10
4.734251968503937
20
-4.3919527559055114
40
0.0196850393700787
0
CIRCLE
8
BLACK
10
4.6342519685039365
20
-4.3919527559055114
40
0.0196850393700787
0
CIRCLE
8
BLACK
10
4.734251968503937
20
-4.4919527559055119
40
0.0196850393700787
0
CIRCLE
8
BLACK
10
4.6342519685039365
20
-4.4919527559055119
40
0.0196850393700787
0
CIRCLE
8
BLACK
10
4.734251968503937
20
-4.5919527559055116
40
0.0196850393700787
0
CIRCLE
8
BLACK
10
4.6342519685039365
20
-4.5919527559055116
40
0.0196850393700787
0
CIRCLE
8
BLACK
10
6.1635826771653539
20
-2.9466771653543304
40
0.0196850393700787
0
CIRCLE
8
BLACK
10
6.0635826771653543
20
-2.9466771653543304
40
0.0196850393700787
0
CIRCLE
8
BLACK
10
6.1635826771653539
20
-3.0466771653543305
40
0.0196850393700787
0
CIRCLE
8
BLACK
10
6.0635826771653543
20
-3.0466771653543305
40
0.0196850393700787
0
CIRCLE
8
BLACK
10
6.1635826771653539
20
-3.1466771653543306
40
0.0196850393700787
0
CIRCLE
8
BLACK
10
6.0635826771653543
20
-3.1466771653543306
40
0.0196850393700787
0
CIRCLE
8
BLACK
10
5.9992125984251965
20
-4.6909685039370075
40
0.0196850393700787
0
CIRCLE
8
BLACK
10
5.9992125984251965
20
-4.790968503937008
40
0.0196850393700787
0
CIRCLE
8
BLACK
10
6.099212598425197
20
-4.6909685039370075
40
0.0196850393700787
0
CIRCLE
8
BLACK
10
6.099212598425197
20
-4.790968503937008
40
0.0196850393700787
0
CIRCLE
8
BLACK
10
6.1992125984251967
20
-4.6909685039370075
40
0.0196850393700787
0
CIRCLE
8
BLACK
10
6.1992125984251967
20
-4.790968503937008
40
0.0196850393700787
0
CIRCLE
8
BLACK
10
2.5208661417322835
20
-0.9251968503937008
40
0.0147637795275591
0
CIRCLE
8
BLACK
10
2.5996062992125983
20
-0.9251968503937008
40
0.0147637795275591
0
CIRCLE
8
BLACK
10
2.6783464566929132
20
-0.9251968503937008
40
0.0147637795275591
0
CIRCLE
8
BLACK
10
6.6141732283464565
20
-4.7834645669291334
40
0.0531495669291339
0
CIRCLE
8
BLACK
10
4.9212598425196852
20
-0.9645669291338582
40
0.0236220078740157
0
CIRCLE
8
BLACK
10
4.7244094488188972
20
-1.1614173228346456
40
0.0236220078740157
0
CIRCLE
8
BLACK
10
4.5275590551181102
20
-0.9645669291338582
40
0.0236220078740157
0
LINE
8
BLACK
6
CONTINUOUS
10
4.9301181102362204
20
-1.1801181102362204
11
4.9301181102362204
21
-1.1427165354330708
0
ARC
8
BLACK
10
4.9212598425196852
20
-1.1427165354330708
40
0.0088582677165354
50
0.00000000
51
180.00000000
0
LINE
8
BLACK
6
CONTINUOUS
10
4.9124015748031491
20
-1.1427165354330708
11
4.9124015748031491
21
-1.1801181102362204
0
ARC
8
BLACK
10
4.9212598425196852
20
-1.1801181102362204
40
0.0088582677165354
50
180.00000000
51
360.00000000
0
LINE
8
BLACK
6
CONTINUOUS
10
4.8316929133858268
20
-1.1801181102362204
11
4.8316929133858268
21
-1.1427165354330708
0
ARC
8
BLACK
10
4.8228346456692917
20
-1.1427165354330708
40
0.0088582677165354
50
0.00000000
51
180.00000000
0
LINE
8
BLACK
6
CONTINUOUS
10
4.8139763779527556
20
-1.1427165354330708
11
4.8139763779527556
21
-1.1801181102362204
0
ARC
8
BLACK
10
4.8228346456692917
20
-1.1801181102362204
40
0.0088582677165354
50
180.00000000
51
360.00000000
0
LINE
8
BLACK
6
CONTINUOUS
10
4.7431102362204722
20
-0.9557086614173228
11
4.7057086614173231
21
-0.9557086614173228
0
ARC
8
BLACK
10
4.7057086614173231
20
-0.9645669291338582
40
0.0088582677165354
50
90.00000000
51
270.00000000
0
LINE
8
BLACK
6
CONTINUOUS
10
4.7057086614173231
20
-0.9734251968503936
11
4.7431102362204722
21
-0.9734251968503936
0
ARC
8
BLACK
10
4.7431102362204722
20
-0.9645669291338582
40
0.0088582677165354
50
270.00000000
51
450.00000000
0
LINE
8
BLACK
6
CONTINUOUS
10
4.518700787401575
20
-1.1427165354330708
11
4.518700787401575
21
-1.1801181102362204
0
ARC
8
BLACK
10
4.5275590551181102
20
-1.1801181102362204
40
0.0088582677165354
50
-180.00000000
51
0.00000000
0
LINE
8
BLACK
6
CONTINUOUS
10
4.5364173228346454
20
-1.1801181102362204
11
4.5364173228346454
21
-1.1427165354330708
0
ARC
8
BLACK
10
4.5275590551181102
20
-1.1427165354330708
40
0.0088582677165354
50
0.00000000
51
180.00000000
0
LINE
8
BLACK
6
CONTINUOUS
10
4.6171259842519685
20
-1.1427165354330708
11
4.6171259842519685
21
-1.1801181102362204
0
ARC
8
BLACK
10
4.6259842519685037
20
-1.1801181102362204
40
0.0088582677165354
50
-180.00000000
51
0.00000000
0
LINE
8
BLACK
6
CONTINUOUS
10
4.6348425196850389
20
-1.1801181102362204
11
4.6348425196850389
21
-1.1427165354330708
0
ARC
8
BLACK
10
4.6259842519685037
20
-1.1427165354330708
40
0.0088582677165354
50
0.00000000
51
180.00000000
0
CIRCLE
8
BLACK
10
1.1043307086614174
20
-1.9685039370078741
40
0.0275590551181102
0
CIRCLE
8
BLACK
10
1.1043307086614174
20
-1.3295275590551181
40
0.0275590551181102
0
CIRCLE
8
BLACK
10
0.8543307086614172
20
-1.9685039370078741
40
0.0275590551181102
0
CIRCLE
8
BLACK
10
0.8543307086614172
20
-1.3295275590551181
40
0.0275590551181102
0
CIRCLE
8
BLACK
10
1.3543307086614174
20
-1.9685039370078741
40
0.0275590551181102
0
CIRCLE
8
BLACK
10
1.3543307086614174
20
-1.3295275590551181
40
0.0275590551181102
0
CIRCLE
8
BLACK
10
1.1043307086614174
20
-4.377952755905512
40
0.0275590551181102
0
CIRCLE
8
BLACK
10
1.1043307086614174
20
-3.7389763779527558
40
0.0275590551181102
0
CIRCLE
8
BLACK
10
0.8543307086614172
20
-4.377952755905512
40
0.0275590551181102
0
CIRCLE
8
BLACK
10
0.8543307086614172
20
-3.7389763779527558
40
0.0275590551181102
0
CIRCLE
8
BLACK
10
1.3543307086614174
20
-4.377952755905512
40
0.0275590551181102
0
CIRCLE
8
BLACK
10
1.3543307086614174
20
-3.7389763779527558
40
0.0275590551181102
0
LINE
8
BLACK
6
CONTINUOUS
10
7.0014645669291333
20
-1.1806535433070866
11
6.8991023622047241
21
-1.1806535433070866
0
ARC
8
BLACK
10
6.8991023622047241
20
-1.1964015748031496
40
0.015748031496063
50
90.00000000
51
270.00000000
0
LINE
8
BLACK
6
CONTINUOUS
10
6.8991023622047241
20
-1.2121496062992125
11
7.0014645669291333
21
-1.2121496062992125
0
ARC
8
BLACK
10
7.0014645669291333
20
-1.1964015748031496
40
0.015748031496063
50
270.00000000
51
450.00000000
0
LINE
8
BLACK
6
CONTINUOUS
10
6.9935905511811018
20
-0.9523070866141732
11
6.9069763779527555
21
-0.9523070866141732
0
ARC
8
BLACK
10
6.9069763779527555
20
-0.9680551181102361
40
0.015748031496063
50
90.00000000
51
270.00000000
0
LINE
8
BLACK
6
CONTINUOUS
10
6.9069763779527555
20
-0.9838031496062992
11
6.9935905511811018
21
-0.9838031496062992
0
ARC
8
BLACK
10
6.9935905511811018
20
-0.9680551181102361
40
0.015748031496063
50
270.00000000
51
450.00000000
0
LINE
8
BLACK
6
CONTINUOUS
10
6.7455590551181102
20
-1.034984251968504
11
6.7455590551181102
21
-1.1215984251968503
0
ARC
8
BLACK
10
6.7613070866141731
20
-1.1215984251968503
40
0.015748031496063
50
180.00000000
51
360.00000000
0
LINE
8
BLACK
6
CONTINUOUS
10
6.7770551181102361
20
-1.1215984251968503
11
6.7770551181102361
21
-1.034984251968504
0
ARC
8
BLACK
10
6.7613070866141731
20
-1.034984251968504
40
0.015748031496063
50
360.00000000
51
540.00000000
0
CIRCLE
8
BLACK
10
6.914850393700787
20
-1.1101811023622048
40
0.0255905511811024
0
CIRCLE
8
BLACK
10
6.914850393700787
20
-0.9133307086614173
40
0.0255905511811024
0
CIRCLE
8
BLACK
10
1.1043307086614174
20
-3.5826771653543306
40
0.0275590551181102
0
CIRCLE
8
BLACK
10
1.1043307086614174
20
-2.9437007874015748
40
0.0275590551181102
0
CIRCLE
8
BLACK
10
0.8543307086614172
20
-3.5826771653543306
40
0.0275590551181102
0
CIRCLE
8
BLACK
10
0.8543307086614172
20
-2.9437007874015748
40
0.0275590551181102
0
CIRCLE
8
BLACK
10
1.3543307086614174
20
-3.5826771653543306
40
0.0275590551181102
0
CIRCLE
8
BLACK
10
1.3543307086614174
20
-2.9437007874015748
40
0.0275590551181102
0
CIRCLE
8
BLACK
10
7.1633858267716537
20
-3.7399606299212595
40
0.0275590551181102
0
CIRCLE
8
BLACK
10
7.1633858267716537
20
-4.3789370078740157
40
0.0275590551181102
0
CIRCLE
8
BLACK
10
7.4133858267716537
20
-3.7399606299212595
40
0.0275590551181102
0
CIRCLE
8
BLACK
10
7.4133858267716537
20
-4.3789370078740157
40
0.0275590551181102
0
CIRCLE
8
BLACK
10
6.9133858267716537
20
-3.7399606299212595
40
0.0275590551181102
0
CIRCLE
8
BLACK
10
6.9133858267716537
20
-4.3789370078740157
40
0.0275590551181102
0
CIRCLE
8
BLACK
10
5.0911417322834644
20
-1.75
40
0.0196850393700787
0
CIRCLE
8
BLACK
10
5.1911417322834641
20
-1.75
40
0.0196850393700787
0
CIRCLE
8
BLACK
10
5.2911417322834646
20
-1.75
40
0.0196850393700787
0
CIRCLE
8
BLACK
10
4.6842519685039372
20
-4.7842519685039369
40
0.0531495669291339
0
CIRCLE
8
BLACK
10
3.1535433070866139
20
-0.8297244094488189
40
0.0098425196850394
0
CIRCLE
8
BLACK
10
3.1535433070866139
20
-0.8690944881889764
40
0.0098425196850394
0
CIRCLE
8
BLACK
10
3.1535433070866139
20
-0.9084645669291338
40
0.0098425196850394
0
CIRCLE
8
BLACK
10
3.1535433070866139
20
-0.9478346456692913
40
0.0098425196850394
0
CIRCLE
8
BLACK
10
3.1535433070866139
20
-0.9872047244094488
40
0.0098425196850394
0
CIRCLE
8
BLACK
10
3.1535433070866139
20
-1.0265748031496063
40
0.0098425196850394
0
CIRCLE
8
BLACK
10
3.1535433070866139
20
-1.1840551181102361
40
0.0098425196850394
0
CIRCLE
8
BLACK
10
3.1535433070866139
20
-1.2234251968503937
40
0.0098425196850394
0
CIRCLE
8
BLACK
10
3.1535433070866139
20
-1.2627952755905512
40
0.0098425196850394
0
CIRCLE
8
BLACK
10
3.1535433070866139
20
-1.3021653543307086
40
0.0098425196850394
0
CIRCLE
8
BLACK
10
3.1535433070866139
20
-1.3415354330708662
40
0.0098425196850394
0
CIRCLE
8
BLACK
10
3.1535433070866139
20
-1.3809055118110236
40
0.0098425196850394
0
CIRCLE
8
BLACK
10
3.1535433070866139
20
-1.420275590551181
40
0.0098425196850394
0
CIRCLE
8
BLACK
10
3.1929133858267718
20
-1.420275590551181
40
0.0098425196850394
0
CIRCLE
8
BLACK
10
3.2322834645669292
20
-1.420275590551181
40
0.0098425196850394
0
CIRCLE
8
BLACK
10
3.2716535433070866
20
-1.420275590551181
40
0.0098425196850394
0
CIRCLE
8
BLACK
10
3.311023622047244
20
-1.420275590551181
40
0.0098425196850394
0
CIRCLE
8
BLACK
10
3.3503937007874014
20
-1.420275590551181
40
0.0098425196850394
0
CIRCLE
8
BLACK
10
3.3897637795275588
20
-1.420275590551181
40
0.0098425196850394
0
CIRCLE
8
BLACK
10
3.4291338582677167
20
-1.420275590551181
40
0.0098425196850394
0
CIRCLE
8
BLACK
10
3.4685039370078741
20
-1.420275590551181
40
0.0098425196850394
0
CIRCLE
8
BLACK
10
3.5078740157480315
20
-1.420275590551181
40
0.0098425196850394
0
CIRCLE
8
BLACK
10
3.5472440944881889
20
-1.420275590551181
40
0.0098425196850394
0
CIRCLE
8
BLACK
10
3.5866141732283463
20
-1.420275590551181
40
0.0098425196850394
0
CIRCLE
8
BLACK
10
3.6259842519685037
20
-1.420275590551181
40
0.0098425196850394
0
CIRCLE
8
BLACK
10
3.6653543307086611
20
-1.420275590551181
40
0.0098425196850394
0
CIRCLE
8
BLACK
10
3.704724409448819
20
-1.420275590551181
40
0.0098425196850394
0
CIRCLE
8
BLACK
10
3.7440944881889764
20
-1.420275590551181
40
0.0098425196850394
0
CIRCLE
8
BLACK
10
3.7834645669291338
20
-1.420275590551181
40
0.0098425196850394
0
CIRCLE
8
BLACK
10
3.8228346456692912
20
-1.420275590551181
40
0.0098425196850394
0
CIRCLE
8
BLACK
10
3.8622047244094486
20
-1.420275590551181
40
0.0098425196850394
0
CIRCLE
8
BLACK
10
3.901574803149606
20
-1.420275590551181
40
0.0098425196850394
0
CIRCLE
8
BLACK
10
3.9409448818897639
20
-1.420275590551181
40
0.0098425196850394
0
CIRCLE
8
BLACK
10
3.9803149606299213
20
-1.420275590551181
40
0.0098425196850394
0
CIRCLE
8
BLACK
10
4.0196850393700787
20
-1.420275590551181
40
0.0098425196850394
0
CIRCLE
8
BLACK
10
4.0590551181102361
20
-1.420275590551181
40
0.0098425196850394
0
CIRCLE
8
BLACK
10
4.0984251968503935
20
-1.420275590551181
40
0.0098425196850394
0
CIRCLE
8
BLACK
10
4.1377952755905509
20
-1.420275590551181
40
0.0098425196850394
0
CIRCLE
8
BLACK
10
4.1771653543307083
20
-1.420275590551181
40
0.0098425196850394
0
CIRCLE
8
BLACK
10
4.2165354330708658
20
-1.420275590551181
40
0.0098425196850394
0
CIRCLE
8
BLACK
10
4.2559055118110232
20
-1.420275590551181
40
0.0098425196850394
0
CIRCLE
8
BLACK
10
4.2952755905511806
20
-1.420275590551181
40
0.0098425196850394
0
CIRCLE
8
BLACK
10
4.3346456692913389
20
-1.420275590551181
40
0.0098425196850394
0
CIRCLE
8
BLACK
10
4.3740157480314963
20
-1.420275590551181
40
0.0098425196850394
0
CIRCLE
8
BLACK
10
4.4133858267716537
20
-1.420275590551181
40
0.0098425196850394
0
CIRCLE
8
BLACK
10
4.4527559055118111
20
-1.420275590551181
40
0.0098425196850394
0
CIRCLE
8
BLACK
10
4.4921259842519685
20
-1.420275590551181
40
0.0098425196850394
0
CIRCLE
8
BLACK
10
4.5314960629921259
20
-1.420275590551181
40
0.0098425196850394
0
CIRCLE
8
BLACK
10
4.5708661417322833
20
-1.420275590551181
40
0.0098425196850394
0
CIRCLE
8
BLACK
10
4.6102362204724407
20
-1.420275590551181
40
0.0098425196850394
0
CIRCLE
8
BLACK
10
4.6496062992125982
20
-1.420275590551181
40
0.0098425196850394
0
CIRCLE
8
BLACK
10
4.6889763779527556
20
-1.420275590551181
40
0.0098425196850394
0
CIRCLE
8
BLACK
10
4.728346456692913
20
-1.420275590551181
40
0.0098425196850394
0
CIRCLE
8
BLACK
10
4.7677165354330704
20
-1.420275590551181
40
0.0098425196850394
0
CIRCLE
8
BLACK
10
4.8070866141732278
20
-1.420275590551181
40
0.0098425196850394
0
CIRCLE
8
BLACK
10
4.8464566929133861
20
-1.420275590551181
40
0.0098425196850394
0
CIRCLE
8
BLACK
10
4.8858267716535435
20
-1.420275590551181
40
0.0098425196850394
0
CIRCLE
8
BLACK
10
4.9251968503937009
20
-1.420275590551181
40
0.0098425196850394
0
CIRCLE
8
BLACK
10
4.9645669291338583
20
-1.420275590551181
40
0.0098425196850394
0
CIRCLE
8
BLACK
10
5.0039370078740157
20
-1.420275590551181
40
0.0098425196850394
0
CIRCLE
8
BLACK
10
5.0433070866141732
20
-1.420275590551181
40
0.0098425196850394
0
CIRCLE
8
BLACK
10
5.0826771653543306
20
-1.420275590551181
40
0.0098425196850394
0
CIRCLE
8
BLACK
10
5.122047244094488
20
-0.8297244094488189
40
0.0098425196850394
0
CIRCLE
8
BLACK
10
5.122047244094488
20
-0.8690944881889764
40
0.0098425196850394
0
CIRCLE
8
BLACK
10
5.122047244094488
20
-0.9084645669291338
40
0.0098425196850394
0
CIRCLE
8
BLACK
10
5.122047244094488
20
-0.9478346456692913
40
0.0098425196850394
0
CIRCLE
8
BLACK
10
5.122047244094488
20
-0.9872047244094488
40
0.0098425196850394
0
CIRCLE
8
BLACK
10
5.122047244094488
20
-1.0265748031496063
40
0.0098425196850394
0
CIRCLE
8
BLACK
10
5.122047244094488
20
-1.0659448818897637
40
0.0098425196850394
0
CIRCLE
8
BLACK
10
5.122047244094488
20
-1.1053149606299213
40
0.0098425196850394
0
CIRCLE
8
BLACK
10
5.122047244094488
20
-1.1446850393700787
40
0.0098425196850394
0
CIRCLE
8
BLACK
10
5.122047244094488
20
-1.1840551181102361
40
0.0098425196850394
0
CIRCLE
8
BLACK
10
5.122047244094488
20
-1.2234251968503937
40
0.0098425196850394
0
CIRCLE
8
BLACK
10
5.122047244094488
20
-1.2627952755905512
40
0.0098425196850394
0
CIRCLE
8
BLACK
10
5.122047244094488
20
-1.3021653543307086
40
0.0098425196850394
0
CIRCLE
8
BLACK
10
5.122047244094488
20
-1.3415354330708662
40
0.0098425196850394
0
CIRCLE
8
BLACK
10
5.122047244094488
20
-1.3809055118110236
40
0.0098425196850394
0
CIRCLE
8
BLACK
10
5.122047244094488
20
-1.420275590551181
40
0.0098425196850394
0
CIRCLE
8
BLACK
10
0.984251968503937
20
-0.905511811023622
40
0.0531495669291339
0
CIRCLE
8
BLACK
10
7.1639763779527561
20
-1.3307086614173229
40
0.0275590551181102
0
CIRCLE
8
BLACK
10
7.1639763779527561
20
-1.9696850393700787
40
0.0275590551181102
0
CIRCLE
8
BLACK
10
7.4139763779527561
20
-1.3307086614173229
40
0.0275590551181102
0
CIRCLE
8
BLACK
10
7.4139763779527561
20
-1.9696850393700787
40
0.0275590551181102
0
CIRCLE
8
BLACK
10
6.9139763779527561
20
-1.3307086614173229
40
0.0275590551181102
0
CIRCLE
8
BLACK
10
6.9139763779527561
20
-1.9696850393700787
40
0.0275590551181102
0
CIRCLE
8
BLACK
10
6.6141732283464565
20
-2.5
40
0.0531495669291339
0
CIRCLE
8
BLACK
10
4.4291338582677167
20
-1.2598425196850394
40
0.026
0
CIRCLE
8
BLACK
10
4.7244094488188972
20
-1.2598425196850394
40
0.026
0
CIRCLE
8
BLACK
10
5.0196850393700787
20
-1.2598425196850394
40
0.026
0
CIRCLE
8
BLACK
10
4.5275590551181102
20
-1.3582677165354331
40
0.026
0
CIRCLE
8
BLACK
10
4.9212598425196852
20
-1.3582677165354331
40
0.026
0
CIRCLE
8
BLACK
10
4.8228346456692917
20
-0.8661417322834646
40
0.026
0
CIRCLE
8
BLACK
10
4.9212598425196852
20
-0.8661417322834646
40
0.026
0
CIRCLE
8
BLACK
10
4.5275590551181102
20
-0.8661417322834646
40
0.026
0
CIRCLE
8
BLACK
10
4.6259842519685037
20
-0.8661417322834646
40
0.026
0
CIRCLE
8
BLACK
10
4.6850393700787398
20
-2.5
40
0.0531495669291339
0
CIRCLE
8
BLACK
10
2.372047244094488
20
-1.2401574803149606
40
0.0196850393700787
0
CIRCLE
8
BLACK
10
2.372047244094488
20
-1.4370078740157479
40
0.0196850393700787
0
CIRCLE
8
BLACK
10
2.372047244094488
20
-1.3385826771653544
40
0.0196850393700787
0
CIRCLE
8
BLACK
10
2.6673228346456694
20
-1.1181102362204725
40
0.0511811023622047
0
CIRCLE
8
BLACK
10
2.6673228346456694
20
-1.5590551181102361
40
0.0511811023622047
0
CIRCLE
8
BLACK
10
2.9429133858267718
20
-1.4370078740157479
40
0.0196850393700787
0
CIRCLE
8
BLACK
10
2.9429133858267718
20
-1.2401574803149606
40
0.0196850393700787
0
CIRCLE
8
BLACK
10
6.3570866141732285
20
-1.6437007874015748
40
0.0059055118110236
0
CIRCLE
8
BLACK
10
6.3059055118110239
20
-1.6437007874015748
40
0.0059055118110236
0
CIRCLE
8
BLACK
10
6.2547244094488184
20
-1.6437007874015748
40
0.0059055118110236
0
CIRCLE
8
BLACK
10
6.2035433070866137
20
-1.6437007874015748
40
0.0059055118110236
0
CIRCLE
8
BLACK
10
6.3570866141732285
20
-1.6948818897637794
40
0.0059055118110236
0
CIRCLE
8
BLACK
10
6.3059055118110239
20
-1.6948818897637794
40
0.0059055118110236
0
CIRCLE
8
BLACK
10
6.2547244094488184
20
-1.6948818897637794
40
0.0059055118110236
0
CIRCLE
8
BLACK
10
6.2035433070866137
20
-1.6948818897637794
40
0.0059055118110236
0
CIRCLE
8
BLACK
10
6.6141732283464565
20
-5.0393700787401574
40
0.0531495669291339
0
CIRCLE
8
BLACK
10
4.2214566929133861
20
-3.2007874015748032
40
0.0196850393700787
0
CIRCLE
8
BLACK
10
4.1214566929133856
20
-3.2007874015748032
40
0.0196850393700787
0
CIRCLE
8
BLACK
10
4.0214566929133859
20
-3.2007874015748032
40
0.0196850393700787
0
CIRCLE
8
BLACK
10
7.1633858267716537
20
-2.9440944881889761
40
0.0275590551181102
0
CIRCLE
8
BLACK
10
7.1633858267716537
20
-3.5830708661417323
40
0.0275590551181102
0
CIRCLE
8
BLACK
10
7.4133858267716537
20
-2.9440944881889761
40
0.0275590551181102
0
CIRCLE
8
BLACK
10
7.4133858267716537
20
-3.5830708661417323
40
0.0275590551181102
0
CIRCLE
8
BLACK
10
6.9133858267716537
20
-2.9440944881889761
40
0.0275590551181102
0
CIRCLE
8
BLACK
10
6.9133858267716537
20
-3.5830708661417323
40
0.0275590551181102
0
LINE
8
BLACK
6
CONTINUOUS
10
0.7600393700787401
20
-2.1297244094488188
11
0.7797244094488189
21
-2.1297244094488188
0
ARC
8
BLACK
10
0.7797244094488189
20
-2.1159448818897637
40
0.0137795275590551
50
-90.00000000
51
90.00000000
0
LINE
8
BLACK
6
CONTINUOUS
10
0.7797244094488189
20
-2.1021653543307086
11
0.7600393700787401
21
-2.1021653543307086
0
ARC
8
BLACK
10
0.7600393700787401
20
-2.1159448818897637
40
0.0137795275590551
50
90.00000000
51
270.00000000
0
LINE
8
BLACK
6
CONTINUOUS
10
0.8801181102362204
20
-2.1409448818897636
11
0.8958661417322834
21
-2.1409448818897636
0
ARC
8
BLACK
10
0.8958661417322834
20
-2.1281496062992127
40
0.0127952755905512
50
-90.00000000
51
90.00000000
0
LINE
8
BLACK
6
CONTINUOUS
10
0.8958661417322834
20
-2.1153543307086613
11
0.8801181102362204
21
-2.1153543307086613
0
ARC
8
BLACK
10
0.8801181102362204
20
-2.1281496062992127
40
0.0127952755905512
50
90.00000000
51
270.00000000
0
LINE
8
BLACK
6
CONTINUOUS
10
0.8801181102362204
20
-2.3314960629921258
11
0.8958661417322834
21
-2.3314960629921258
0
ARC
8
BLACK
10
0.8958661417322834
20
-2.3187007874015748
40
0.0127952755905512
50
-90.00000000
51
90.00000000
0
LINE
8
BLACK
6
CONTINUOUS
10
0.8958661417322834
20
-2.3059055118110234
11
0.8801181102362204
21
-2.3059055118110234
0
ARC
8
BLACK
10
0.8801181102362204
20
-2.3187007874015748
40
0.0127952755905512
50
90.00000000
51
270.00000000
0
LINE
8
BLACK
6
CONTINUOUS
10
0.7600393700787401
20
-2.3446850393700789
11
0.7797244094488189
21
-2.3446850393700789
0
ARC
8
BLACK
10
0.7797244094488189
20
-2.3309055118110238
40
0.0137795275590551
50
-90.00000000
51
90.00000000
0
LINE
8
BLACK
6
CONTINUOUS
10
0.7797244094488189
20
-2.3171259842519683
11
0.7600393700787401
21
-2.3171259842519683
0
ARC
8
BLACK
10
0.7600393700787401
20
-2.3309055118110238
40
0.0137795275590551
50
90.00000000
51
270.00000000
0
CIRCLE
8
BLACK
10
4.1781496062992121
20
-1.8454724409448819
40
0.0068897637795276
0
CIRCLE
8
BLACK
10
4.228346456692913
20
-1.8454724409448819
40
0.0068897637795276
0
CIRCLE
8
BLACK
10
4.2785433070866139
20
-1.8454724409448819
40
0.0068897637795276
0
CIRCLE
8
BLACK
10
4.1781496062992121
20
-1.795275590551181
40
0.0068897637795276
0
CIRCLE
8
BLACK
10
4.228346456692913
20
-1.795275590551181
40
0.0068897637795276
0
CIRCLE
8
BLACK
10
4.2785433070866139
20
-1.795275590551181
40
0.0068897637795276
0
CIRCLE
8
BLACK
10
4.1781496062992121
20
-1.7450787401574803
40
0.0068897637795276
0
CIRCLE
8
BLACK
10
4.228346456692913
20
-1.7450787401574803
40
0.0068897637795276
0
CIRCLE
8
BLACK
10
4.2785433070866139
20
-1.7450787401574803
40
0.0068897637795276
0
CIRCLE
8
BLACK
10
2.089763779527559
20
-1.25
40
0.0187007874015748
0
CIRCLE
8
BLACK
10
1.9913385826771652
20
-1.25
40
0.0187007874015748
0
CIRCLE
8
BLACK
10
1.9125984251968504
20
-1.25
40
0.0187007874015748
0
CIRCLE
8
BLACK
10
1.8141732283464567
20
-1.25
40
0.0187007874015748
0
CIRCLE
8
BLACK
10
2.2106299212598426
20
-1.1433070866141732
40
0.0452755905511811
0
CIRCLE
8
BLACK
10
1.6933070866141733
20
-1.1433070866141732
40
0.0452755905511811
0
CIRCLE
8
BLACK
10
3.5039370078740157
20
-4.3897637795275593
40
0.0531495669291339
0
CIRCLE
8
BLACK
10
3.5039370078740157
20
-2.5
40
0.0531495669291339
0
CIRCLE
8
BLACK
10
2.204724409448819
20
-4.3897637795275593
40
0.0531495669291339
0
CIRCLE
8
BLACK
10
2.204724409448819
20
-2.5
40
0.0531495669291339
0
CIRCLE
8
BLACK
10
1.6535433070866141
20
-5.0393700787401574
40
0.0531495669291339
0
CIRCLE
8
BLACK
10
7.2836856299212593
20
-0.905290748031496
40
0.0531495669291339
0
CIRCLE
8
BLACK
10
5.3248031496062991
20
-1.2401574803149606
40
0.0196850393700787
0
CIRCLE
8
BLACK
10
5.3248031496062991
20
-1.4370078740157479
40
0.0196850393700787
0
CIRCLE
8
BLACK
10
5.3248031496062991
20
-1.3385826771653544
40
0.0196850393700787
0
CIRCLE
8
BLACK
10
5.6200787401574805
20
-1.1181102362204725
40
0.0511811023622047
0
CIRCLE
8
BLACK
10
5.6200787401574805
20
-1.5590551181102361
40
0.0511811023622047
0
CIRCLE
8
BLACK
10
5.8956692913385824
20
-1.4370078740157479
40
0.0196850393700787
0
CIRCLE
8
BLACK
10
5.8956692913385824
20
-1.2401574803149606
40
0.0196850393700787
0
CIRCLE
8
BLACK
10
4.1338582677165352
20
-3.8582677165354329
40
0.0531495669291339
0
CIRCLE
8
BLACK
10
3.2480314960629921
20
-1.2598425196850394
40
0.026
0
CIRCLE
8
BLACK
10
3.5433070866141732
20
-1.2598425196850394
40
0.026
0
CIRCLE
8
BLACK
10
3.8385826771653542
20
-1.2598425196850394
40
0.026
0
CIRCLE
8
BLACK
10
3.3464566929133857
20
-1.3582677165354331
40
0.026
0
CIRCLE
8
BLACK
10
3.7401574803149606
20
-1.3582677165354331
40
0.026
0
CIRCLE
8
BLACK
10
3.6417322834645667
20
-0.8661417322834646
40
0.026
0
CIRCLE
8
BLACK
10
3.7401574803149606
20
-0.8661417322834646
40
0.026
0
CIRCLE
8
BLACK
10
3.3464566929133857
20
-0.8661417322834646
40
0.026
0
CIRCLE
8
BLACK
10
3.4448818897637796
20
-0.8661417322834646
40
0.026
0
CIRCLE
8
BLACK
10
3.7399409448818899
20
-0.9645669291338582
40
0.0236220078740157
0
CIRCLE
8
BLACK
10
3.5430905511811024
20
-1.1614173228346456
40
0.0236220078740157
0
CIRCLE
8
BLACK
10
3.3462401574803149
20
-0.9645669291338582
40
0.0236220078740157
0
LINE
8
BLACK
6
CONTINUOUS
10
3.7487992125984251
20
-1.1801181102362204
11
3.7487992125984251
21
-1.1427165354330708
0
ARC
8
BLACK
10
3.7399409448818899
20
-1.1427165354330708
40
0.0088582677165354
50
0.00000000
51
180.00000000
0
LINE
8
BLACK
6
CONTINUOUS
10
3.7310826771653542
20
-1.1427165354330708
11
3.7310826771653542
21
-1.1801181102362204
0
ARC
8
BLACK
10
3.7399409448818899
20
-1.1801181102362204
40
0.0088582677165354
50
180.00000000
51
360.00000000
0
LINE
8
BLACK
6
CONTINUOUS
10
3.6503740157480316
20
-1.1801181102362204
11
3.6503740157480316
21
-1.1427165354330708
0
ARC
8
BLACK
10
3.6415157480314959
20
-1.1427165354330708
40
0.0088582677165354
50
0.00000000
51
180.00000000
0
LINE
8
BLACK
6
CONTINUOUS
10
3.6326574803149607
20
-1.1427165354330708
11
3.6326574803149607
21
-1.1801181102362204
0
ARC
8
BLACK
10
3.6415157480314959
20
-1.1801181102362204
40
0.0088582677165354
50
180.00000000
51
360.00000000
0
LINE
8
BLACK
6
CONTINUOUS
10
3.5617913385826769
20
-0.9557086614173228
11
3.5243897637795274
21
-0.9557086614173228
0
ARC
8
BLACK
10
3.5243897637795274
20
-0.9645669291338582
40
0.0088582677165354
50
90.00000000
51
270.00000000
0
LINE
8
BLACK
6
CONTINUOUS
10
3.5243897637795274
20
-0.9734251968503936
11
3.5617913385826769
21
-0.9734251968503936
0
ARC
8
BLACK
10
3.5617913385826769
20
-0.9645669291338582
40
0.0088582677165354
50
270.00000000
51
450.00000000
0
LINE
8
BLACK
6
CONTINUOUS
10
3.3373818897637793
20
-1.1427165354330708
11
3.3373818897637793
21
-1.1801181102362204
0
ARC
8
BLACK
10
3.3462401574803149
20
-1.1801181102362204
40
0.0088582677165354
50
-180.00000000
51
0.00000000
0
LINE
8
BLACK
6
CONTINUOUS
10
3.3550984251968505
20
-1.1801181102362204
11
3.3550984251968505
21
-1.1427165354330708
0
ARC
8
BLACK
10
3.3462401574803149
20
-1.1427165354330708
40
0.0088582677165354
50
0.00000000
51
180.00000000
0
LINE
8
BLACK
6
CONTINUOUS
10
3.4358070866141732
20
-1.1427165354330708
11
3.4358070866141732
21
-1.1801181102362204
0
ARC
8
BLACK
10
3.4446653543307084
20
-1.1801181102362204
40
0.0088582677165354
50
-180.00000000
51
0.00000000
0
LINE
8
BLACK
6
CONTINUOUS
10
3.4535236220472441
20
-1.1801181102362204
11
3.4535236220472441
21
-1.1427165354330708
0
ARC
8
BLACK
10
3.4446653543307084
20
-1.1427165354330708
40
0.0088582677165354
50
0.00000000
51
180.00000000
0
CIRCLE
8
BLACK
10
1.1811023622047243
20
-4.6850393700787398
40
0.0728346456692913
0
CIRCLE
8
BLACK
10
4.1338582677165352
20
-2.6377952755905509
40
0.0728346456692913
0
CIRCLE
8
BLACK
10
1.1811023622047243
20
-2.6377952755905509
40
0.0728346456692913
0
CIRCLE
8
BLACK
10
7.0866141732283463
20
-2.6377952755905509
40
0.0728346456692913
0
CIRCLE
8
BLACK
10
4.1338582677165352
20
-4.6850393700787398
40
0.0728346456692913
0
CIRCLE
8
BLACK
10
2.8724409448818897
20
-0.9248031496062992
40
0.0147637795275591
0
CIRCLE
8
BLACK
10
2.9511811023622045
20
-0.9248031496062992
40
0.0147637795275591
0
CIRCLE
8
BLACK
10
3.0299212598425198
20
-0.9248031496062992
40
0.0147637795275591
0
CIRCLE
8
BLACK
10
7.0866141732283463
20
-4.6850393700787398
40
0.0728346456692913
0
CIRCLE
8
BLACK
10
4.734251968503937
20
-2.6919527559055116
40
0.0196850393700787
0
CIRCLE
8
BLACK
10
4.6342519685039365
20
-2.6919527559055116
40
0.0196850393700787
0
CIRCLE
8
BLACK
10
4.734251968503937
20
-2.7919527559055117
40
0.0196850393700787
0
CIRCLE
8
BLACK
10
4.6342519685039365
20
-2.7919527559055117
40
0.0196850393700787
0
CIRCLE
8
BLACK
10
4.734251968503937
20
-2.8919527559055118
40
0.0196850393700787
0
CIRCLE
8
BLACK
10
4.6342519685039365
20
-2.8919527559055118
40
0.0196850393700787
0
CIRCLE
8
BLACK
10
4.734251968503937
20
-2.9919527559055119
40
0.0196850393700787
0
CIRCLE
8
BLACK
10
4.6342519685039365
20
-2.9919527559055119
40
0.0196850393700787
0
CIRCLE
8
BLACK
10
4.734251968503937
20
-3.0919527559055116
40
0.0196850393700787
0
CIRCLE
8
BLACK
10
4.6342519685039365
20
-3.0919527559055116
40
0.0196850393700787
0
CIRCLE
8
BLACK
10
4.734251968503937
20
-3.1919527559055116
40
0.0196850393700787
0
CIRCLE
8
BLACK
10
4.6342519685039365
20
-3.1919527559055116
40
0.0196850393700787
0
CIRCLE
8
BLACK
10
4.734251968503937
20
-3.2919527559055117
40
0.0196850393700787
0
CIRCLE
8
BLACK
10
4.6342519685039365
20
-3.2919527559055117
40
0.0196850393700787
0
CIRCLE
8
BLACK
10
4.734251968503937
20
-3.3919527559055118
40
0.0196850393700787
0
CIRCLE
8
BLACK
10
4.6342519685039365
20
-3.3919527559055118
40
0.0196850393700787
0
CIRCLE
8
BLACK
10
4.734251968503937
20
-3.4919527559055119
40
0.0196850393700787
0
CIRCLE
8
BLACK
10
4.6342519685039365
20
-3.4919527559055119
40
0.0196850393700787
0
CIRCLE
8
BLACK
10
4.734251968503937
20
-3.5919527559055116
40
0.0196850393700787
0
CIRCLE
8
BLACK
10
4.6342519685039365
20
-3.5919527559055116
40
0.0196850393700787
0
CIRCLE
8
BLACK
10
4.734251968503937
20
-3.6919527559055116
40
0.0196850393700787
0
CIRCLE
8
BLACK
10
4.6342519685039365
20
-3.6919527559055116
40
0.0196850393700787
0
CIRCLE
8
BLACK
10
4.734251968503937
20
-3.7919527559055117
40
0.0196850393700787
0
CIRCLE
8
BLACK
10
4.6342519685039365
20
-3.7919527559055117
40
0.0196850393700787
0
CIRCLE
8
BLACK
10
4.734251968503937
20
-3.8919527559055118
40
0.0196850393700787
0
CIRCLE
8
BLACK
10
4.6342519685039365
20
-3.8919527559055118
40
0.0196850393700787
0
CIRCLE
8
BLACK
10
4.734251968503937
20
-3.9919527559055119
40
0.0196850393700787
0
CIRCLE
8
BLACK
10
4.6342519685039365
20
-3.9919527559055119
40
0.0196850393700787
0
CIRCLE
8
BLACK
10
4.734251968503937
20
-4.0919527559055116
40
0.0196850393700787
0
CIRCLE
8
BLACK
10
4.6342519685039365
20
-4.0919527559055116
40
0.0196850393700787
0
CIRCLE
8
BLACK
10
4.734251968503937
20
-4.1919527559055121
40
0.0196850393700787
0
CIRCLE
8
BLACK
10
4.6342519685039365
20
-4.1919527559055121
40
0.0196850393700787
0
CIRCLE
8
BLACK
10
4.734251968503937
20
-4.2919527559055117
40
0.0196850393700787
0
CIRCLE
8
BLACK
10
4.6342519685039365
20
-4.2919527559055117
40
0.0196850393700787
0
CIRCLE
8
BLACK
10
4.734251968503937
20
-4.3919527559055114
40
0.0196850393700787
0
CIRCLE
8
BLACK
10
4.6342519685039365
20
-4.3919527559055114
40
0.0196850393700787
0
CIRCLE
8
BLACK
10
4.734251968503937
20
-4.4919527559055119
40
0.0196850393700787
0
CIRCLE
8
BLACK
10
4.6342519685039365
20
-4.4919527559055119
40
0.0196850393700787
0
CIRCLE
8
BLACK
10
4.734251968503937
20
-4.5919527559055116
40
0.0196850393700787
0
CIRCLE
8
BLACK
10
4.6342519685039365
20
-4.5919527559055116
40
0.0196850393700787
0
CIRCLE
8
BLACK
10
6.1635826771653539
20
-2.9466771653543304
40
0.0196850393700787
0
CIRCLE
8
BLACK
10
6.0635826771653543
20
-2.9466771653543304
40
0.0196850393700787
0
CIRCLE
8
BLACK
10
6.1635826771653539
20
-3.0466771653543305
40
0.0196850393700787
0
CIRCLE
8
BLACK
10
6.0635826771653543
20
-3.0466771653543305
40
0.0196850393700787
0
CIRCLE
8
BLACK
10
6.1635826771653539
20
-3.1466771653543306
40
0.0196850393700787
0
CIRCLE
8
BLACK
10
6.0635826771653543
20
-3.1466771653543306
40
0.0196850393700787
0
CIRCLE
8
BLACK
10
5.9992125984251965
20
-4.6909685039370075
40
0.0196850393700787
0
CIRCLE
8
BLACK
10
5.9992125984251965
20
-4.790968503937008
40
0.0196850393700787
0
CIRCLE
8
BLACK
10
6.099212598425197
20
-4.6909685039370075
40
0.0196850393700787
0
CIRCLE
8
BLACK
10
6.099212598425197
20
-4.790968503937008
40
0.0196850393700787
0
CIRCLE
8
BLACK
10
6.1992125984251967
20
-4.6909685039370075
40
0.0196850393700787
0
CIRCLE
8
BLACK
10
6.1992125984251967
20
-4.790968503937008
40
0.0196850393700787
0
CIRCLE
8
BLACK
10
2.5208661417322835
20
-0.9251968503937008
40
0.0147637795275591
0
CIRCLE
8
BLACK
10
2.5996062992125983
20
-0.9251968503937008
40
0.0147637795275591
0
CIRCLE
8
BLACK
10
2.6783464566929132
20
-0.9251968503937008
40
0.0147637795275591
  0
ENDSEC
  0
EOF
