M48
; DRILL file KiCad 10.0.1-10.0.1~ubuntu25.10.1 date 2026-04-22T19:59:53
; FORMAT={-:-/ absolute / metric / decimal}
; #@! TF.CreationDate,2026-04-22T19:59:53+00:00
; #@! TF.GenerationSoftware,Kicad,Pcbnew,10.0.1-10.0.1~ubuntu25.10.1
; #@! TF.FileFunction,NonPlated,1,2,NPTH
FMAT,2
METRIC
; #@! TA.AperFunction,NonPlated,NPTH,ComponentDrill
T1C0.500
; #@! TA.AperFunction,NonPlated,NPTH,ComponentDrill
T2C1.200
; #@! TA.AperFunction,NonPlated,NPTH,ComponentDrill
T3C2.700
; #@! TA.AperFunction,NonPlated,NPTH,ComponentDrill
T4C3.700
%
G90
G05
T1
X80.1Y-21.075
X80.1Y-22.075
X80.1Y-23.075
X80.1Y-24.075
X80.1Y-25.075
X80.1Y-26.075
X80.1Y-30.075
X80.1Y-31.075
X80.1Y-32.075
X80.1Y-33.075
X80.1Y-34.075
X80.1Y-35.075
X80.1Y-36.075
X81.1Y-36.075
X82.1Y-36.075
X83.1Y-36.075
X84.1Y-36.075
X85.1Y-36.075
X86.1Y-36.075
X87.1Y-36.075
X88.1Y-36.075
X89.1Y-36.075
X90.1Y-36.075
X91.1Y-36.075
X92.1Y-36.075
X93.1Y-36.075
X94.1Y-36.075
X95.1Y-36.075
X96.1Y-36.075
X97.1Y-36.075
X98.1Y-36.075
X99.1Y-36.075
X100.1Y-36.075
X101.1Y-36.075
X102.1Y-36.075
X103.1Y-36.075
X104.1Y-36.075
X105.1Y-36.075
X106.1Y-36.075
X107.1Y-36.075
X108.1Y-36.075
X109.1Y-36.075
X110.1Y-36.075
X111.1Y-36.075
X112.1Y-36.075
X113.1Y-36.075
X114.1Y-36.075
X115.1Y-36.075
X116.1Y-36.075
X117.1Y-36.075
X118.1Y-36.075
X119.1Y-36.075
X120.1Y-36.075
X121.1Y-36.075
X122.1Y-36.075
X123.1Y-36.075
X124.1Y-36.075
X125.1Y-36.075
X126.1Y-36.075
X127.1Y-36.075
X128.1Y-36.075
X129.1Y-36.075
X130.1Y-21.075
X130.1Y-22.075
X130.1Y-23.075
X130.1Y-24.075
X130.1Y-25.075
X130.1Y-26.075
X130.1Y-27.075
X130.1Y-28.075
X130.1Y-29.075
X130.1Y-30.075
X130.1Y-31.075
X130.1Y-32.075
X130.1Y-33.075
X130.1Y-34.075
X130.1Y-35.075
X130.1Y-36.075
T2
X84.995Y-24.5
X89.995Y-29.5
X94.995Y-24.5
X115.0Y-24.5
X120.0Y-29.5
X125.0Y-24.5
T3
X25.0Y-23.0
X42.0Y-128.0
X56.0Y-63.5
X56.0Y-111.5
X89.0Y-63.5
X89.0Y-111.5
X105.0Y-98.0
X118.98Y-121.52
X119.0Y-63.5
X168.0Y-63.5
X168.0Y-121.5
X168.0Y-128.0
X185.006Y-22.994
T4
X30.0Y-67.0
X30.0Y-119.0
X105.0Y-67.0
X105.0Y-119.0
X180.0Y-67.0
X180.0Y-119.0
M30
