<?xml version="1.0" standalone="no"?>
 <!DOCTYPE svg PUBLIC "-//W3C//DTD SVG 1.1//EN" 
 "http://www.w3.org/Graphics/SVG/1.1/DTD/svg11.dtd"> 
<svg
  xmlns:svg="http://www.w3.org/2000/svg"
  xmlns="http://www.w3.org/2000/svg"
  xmlns:xlink="http://www.w3.org/1999/xlink"
  version="1.1"
  width="297.0022mm" height="210.0072mm" viewBox="0.0000 0.0000 297.0022 210.0072">
<title>SVG Image created as pedalboard-hw-B_Fab.svg date 2026/04/18 13:48:48 </title>
  <desc>Image generated by PCBNEW </desc>
<g style="fill:#000000; fill-opacity:1.0000;stroke:#000000; stroke-opacity:1.0000;
stroke-linecap:round; stroke-linejoin:round;"
 transform="translate(0 0) scale(1 1)">
</g>
<g style="fill:none; 
stroke:#000000; stroke-width:0.1500; stroke-opacity:1; 
stroke-linecap:round; stroke-linejoin:round;">
<text x="30.0000" y="123.2000"
transform="scale(-1 1) translate(-60.000000 0)"
textLength="5.3452" font-size="1.3333" lengthAdjust="spacingAndGlyphs"
text-anchor="middle" opacity="0" stroke-opacity="0">Spacer</text>
<g class="stroked-text"><desc>Spacer</desc>
<path d="M32.3571 123.1072
L32.2143 123.1548
" />
<path d="M32.2143 123.1548
L31.9762 123.1548
" />
<path d="M31.9762 123.1548
L31.8810 123.1072
" />
<path d="M31.8810 123.1072
L31.8333 123.0596
" />
<path d="M31.8333 123.0596
L31.7857 122.9643
" />
<path d="M31.7857 122.9643
L31.7857 122.8691
" />
<path d="M31.7857 122.8691
L31.8333 122.7739
" />
<path d="M31.8333 122.7739
L31.8810 122.7262
" />
<path d="M31.8810 122.7262
L31.9762 122.6786
" />
<path d="M31.9762 122.6786
L32.1667 122.6310
" />
<path d="M32.1667 122.6310
L32.2619 122.5834
" />
<path d="M32.2619 122.5834
L32.3095 122.5358
" />
<path d="M32.3095 122.5358
L32.3571 122.4405
" />
<path d="M32.3571 122.4405
L32.3571 122.3453
" />
<path d="M32.3571 122.3453
L32.3095 122.2501
" />
<path d="M32.3095 122.2501
L32.2619 122.2024
" />
<path d="M32.2619 122.2024
L32.1667 122.1548
" />
<path d="M32.1667 122.1548
L31.9286 122.1548
" />
<path d="M31.9286 122.1548
L31.7857 122.2024
" />
<path d="M31.3571 122.4882
L31.3571 123.4882
" />
<path d="M31.3571 122.5358
L31.2619 122.4882
" />
<path d="M31.2619 122.4882
L31.0714 122.4882
" />
<path d="M31.0714 122.4882
L30.9762 122.5358
" />
<path d="M30.9762 122.5358
L30.9286 122.5834
" />
<path d="M30.9286 122.5834
L30.8810 122.6786
" />
<path d="M30.8810 122.6786
L30.8810 122.9643
" />
<path d="M30.8810 122.9643
L30.9286 123.0596
" />
<path d="M30.9286 123.0596
L30.9762 123.1072
" />
<path d="M30.9762 123.1072
L31.0714 123.1548
" />
<path d="M31.0714 123.1548
L31.2619 123.1548
" />
<path d="M31.2619 123.1548
L31.3571 123.1072
" />
<path d="M30.0238 123.1548
L30.0238 122.6310
" />
<path d="M30.0238 122.6310
L30.0714 122.5358
" />
<path d="M30.0714 122.5358
L30.1667 122.4882
" />
<path d="M30.1667 122.4882
L30.3571 122.4882
" />
<path d="M30.3571 122.4882
L30.4524 122.5358
" />
<path d="M30.0238 123.1072
L30.1190 123.1548
" />
<path d="M30.1190 123.1548
L30.3571 123.1548
" />
<path d="M30.3571 123.1548
L30.4524 123.1072
" />
<path d="M30.4524 123.1072
L30.5000 123.0120
" />
<path d="M30.5000 123.0120
L30.5000 122.9167
" />
<path d="M30.5000 122.9167
L30.4524 122.8215
" />
<path d="M30.4524 122.8215
L30.3571 122.7739
" />
<path d="M30.3571 122.7739
L30.1190 122.7739
" />
<path d="M30.1190 122.7739
L30.0238 122.7262
" />
<path d="M29.1190 123.1072
L29.2143 123.1548
" />
<path d="M29.2143 123.1548
L29.4048 123.1548
" />
<path d="M29.4048 123.1548
L29.5000 123.1072
" />
<path d="M29.5000 123.1072
L29.5476 123.0596
" />
<path d="M29.5476 123.0596
L29.5952 122.9643
" />
<path d="M29.5952 122.9643
L29.5952 122.6786
" />
<path d="M29.5952 122.6786
L29.5476 122.5834
" />
<path d="M29.5476 122.5834
L29.5000 122.5358
" />
<path d="M29.5000 122.5358
L29.4048 122.4882
" />
<path d="M29.4048 122.4882
L29.2143 122.4882
" />
<path d="M29.2143 122.4882
L29.1190 122.5358
" />
<path d="M28.3095 123.1072
L28.4048 123.1548
" />
<path d="M28.4048 123.1548
L28.5952 123.1548
" />
<path d="M28.5952 123.1548
L28.6905 123.1072
" />
<path d="M28.6905 123.1072
L28.7381 123.0120
" />
<path d="M28.7381 123.0120
L28.7381 122.6310
" />
<path d="M28.7381 122.6310
L28.6905 122.5358
" />
<path d="M28.6905 122.5358
L28.5952 122.4882
" />
<path d="M28.5952 122.4882
L28.4048 122.4882
" />
<path d="M28.4048 122.4882
L28.3095 122.5358
" />
<path d="M28.3095 122.5358
L28.2619 122.6310
" />
<path d="M28.2619 122.6310
L28.2619 122.7262
" />
<path d="M28.2619 122.7262
L28.7381 122.8215
" />
<path d="M27.8333 123.1548
L27.8333 122.4882
" />
<path d="M27.8333 122.6786
L27.7857 122.5834
" />
<path d="M27.7857 122.5834
L27.7381 122.5358
" />
<path d="M27.7381 122.5358
L27.6429 122.4882
" />
<path d="M27.6429 122.4882
L27.5476 122.4882
" />
</g><text x="30.0000" y="119.5000"
transform="scale(-1 1) translate(-60.000000 0)"
textLength="3.2024" font-size="1.3333" lengthAdjust="spacingAndGlyphs"
text-anchor="middle" opacity="0" stroke-opacity="0">H13</text>
<g class="stroked-text"><desc>H13</desc>
<path d="M31.2381 119.4548
L31.2381 118.4548
" />
<path d="M31.2381 118.9310
L30.6667 118.9310
" />
<path d="M30.6667 119.4548
L30.6667 118.4548
" />
<path d="M29.6667 119.4548
L30.2381 119.4548
" />
<path d="M29.9524 119.4548
L29.9524 118.4548
" />
<path d="M29.9524 118.4548
L30.0476 118.5977
" />
<path d="M30.0476 118.5977
L30.1429 118.6929
" />
<path d="M30.1429 118.6929
L30.2381 118.7405
" />
<path d="M29.3333 118.4548
L28.7143 118.4548
" />
<path d="M28.7143 118.4548
L29.0476 118.8358
" />
<path d="M29.0476 118.8358
L28.9048 118.8358
" />
<path d="M28.9048 118.8358
L28.8095 118.8834
" />
<path d="M28.8095 118.8834
L28.7619 118.9310
" />
<path d="M28.7619 118.9310
L28.7143 119.0262
" />
<path d="M28.7143 119.0262
L28.7143 119.2643
" />
<path d="M28.7143 119.2643
L28.7619 119.3596
" />
<path d="M28.7619 119.3596
L28.8095 119.4072
" />
<path d="M28.8095 119.4072
L28.9048 119.4548
" />
<path d="M28.9048 119.4548
L29.1905 119.4548
" />
<path d="M29.1905 119.4548
L29.2857 119.4072
" />
<path d="M29.2857 119.4072
L29.3333 119.3596
" />
</g><text x="105.0000" y="71.2000"
transform="scale(-1 1) translate(-210.000000 0)"
textLength="5.3452" font-size="1.3333" lengthAdjust="spacingAndGlyphs"
text-anchor="middle" opacity="0" stroke-opacity="0">Spacer</text>
<g class="stroked-text"><desc>Spacer</desc>
<path d="M107.3571 71.1072
L107.2143 71.1548
" />
<path d="M107.2143 71.1548
L106.9762 71.1548
" />
<path d="M106.9762 71.1548
L106.8810 71.1072
" />
<path d="M106.8810 71.1072
L106.8333 71.0596
" />
<path d="M106.8333 71.0596
L106.7857 70.9643
" />
<path d="M106.7857 70.9643
L106.7857 70.8691
" />
<path d="M106.7857 70.8691
L106.8333 70.7739
" />
<path d="M106.8333 70.7739
L106.8810 70.7262
" />
<path d="M106.8810 70.7262
L106.9762 70.6786
" />
<path d="M106.9762 70.6786
L107.1667 70.6310
" />
<path d="M107.1667 70.6310
L107.2619 70.5834
" />
<path d="M107.2619 70.5834
L107.3095 70.5358
" />
<path d="M107.3095 70.5358
L107.3571 70.4405
" />
<path d="M107.3571 70.4405
L107.3571 70.3453
" />
<path d="M107.3571 70.3453
L107.3095 70.2501
" />
<path d="M107.3095 70.2501
L107.2619 70.2024
" />
<path d="M107.2619 70.2024
L107.1667 70.1548
" />
<path d="M107.1667 70.1548
L106.9286 70.1548
" />
<path d="M106.9286 70.1548
L106.7857 70.2024
" />
<path d="M106.3571 70.4882
L106.3571 71.4882
" />
<path d="M106.3571 70.5358
L106.2619 70.4882
" />
<path d="M106.2619 70.4882
L106.0714 70.4882
" />
<path d="M106.0714 70.4882
L105.9762 70.5358
" />
<path d="M105.9762 70.5358
L105.9286 70.5834
" />
<path d="M105.9286 70.5834
L105.8810 70.6786
" />
<path d="M105.8810 70.6786
L105.8810 70.9643
" />
<path d="M105.8810 70.9643
L105.9286 71.0596
" />
<path d="M105.9286 71.0596
L105.9762 71.1072
" />
<path d="M105.9762 71.1072
L106.0714 71.1548
" />
<path d="M106.0714 71.1548
L106.2619 71.1548
" />
<path d="M106.2619 71.1548
L106.3571 71.1072
" />
<path d="M105.0238 71.1548
L105.0238 70.6310
" />
<path d="M105.0238 70.6310
L105.0714 70.5358
" />
<path d="M105.0714 70.5358
L105.1667 70.4882
" />
<path d="M105.1667 70.4882
L105.3571 70.4882
" />
<path d="M105.3571 70.4882
L105.4524 70.5358
" />
<path d="M105.0238 71.1072
L105.1190 71.1548
" />
<path d="M105.1190 71.1548
L105.3571 71.1548
" />
<path d="M105.3571 71.1548
L105.4524 71.1072
" />
<path d="M105.4524 71.1072
L105.5000 71.0120
" />
<path d="M105.5000 71.0120
L105.5000 70.9167
" />
<path d="M105.5000 70.9167
L105.4524 70.8215
" />
<path d="M105.4524 70.8215
L105.3571 70.7739
" />
<path d="M105.3571 70.7739
L105.1190 70.7739
" />
<path d="M105.1190 70.7739
L105.0238 70.7262
" />
<path d="M104.1190 71.1072
L104.2143 71.1548
" />
<path d="M104.2143 71.1548
L104.4048 71.1548
" />
<path d="M104.4048 71.1548
L104.5000 71.1072
" />
<path d="M104.5000 71.1072
L104.5476 71.0596
" />
<path d="M104.5476 71.0596
L104.5952 70.9643
" />
<path d="M104.5952 70.9643
L104.5952 70.6786
" />
<path d="M104.5952 70.6786
L104.5476 70.5834
" />
<path d="M104.5476 70.5834
L104.5000 70.5358
" />
<path d="M104.5000 70.5358
L104.4048 70.4882
" />
<path d="M104.4048 70.4882
L104.2143 70.4882
" />
<path d="M104.2143 70.4882
L104.1190 70.5358
" />
<path d="M103.3095 71.1072
L103.4048 71.1548
" />
<path d="M103.4048 71.1548
L103.5952 71.1548
" />
<path d="M103.5952 71.1548
L103.6905 71.1072
" />
<path d="M103.6905 71.1072
L103.7381 71.0120
" />
<path d="M103.7381 71.0120
L103.7381 70.6310
" />
<path d="M103.7381 70.6310
L103.6905 70.5358
" />
<path d="M103.6905 70.5358
L103.5952 70.4882
" />
<path d="M103.5952 70.4882
L103.4048 70.4882
" />
<path d="M103.4048 70.4882
L103.3095 70.5358
" />
<path d="M103.3095 70.5358
L103.2619 70.6310
" />
<path d="M103.2619 70.6310
L103.2619 70.7262
" />
<path d="M103.2619 70.7262
L103.7381 70.8215
" />
<path d="M102.8333 71.1548
L102.8333 70.4882
" />
<path d="M102.8333 70.6786
L102.7857 70.5834
" />
<path d="M102.7857 70.5834
L102.7381 70.5358
" />
<path d="M102.7381 70.5358
L102.6429 70.4882
" />
<path d="M102.6429 70.4882
L102.5476 70.4882
" />
</g><text x="105.0000" y="67.5000"
transform="scale(-1 1) translate(-210.000000 0)"
textLength="2.2500" font-size="1.3333" lengthAdjust="spacingAndGlyphs"
text-anchor="middle" opacity="0" stroke-opacity="0">H9</text>
<g class="stroked-text"><desc>H9</desc>
<path d="M105.7619 67.4548
L105.7619 66.4548
" />
<path d="M105.7619 66.9310
L105.1905 66.9310
" />
<path d="M105.1905 67.4548
L105.1905 66.4548
" />
<path d="M104.6667 67.4548
L104.4762 67.4548
" />
<path d="M104.4762 67.4548
L104.3810 67.4072
" />
<path d="M104.3810 67.4072
L104.3333 67.3596
" />
<path d="M104.3333 67.3596
L104.2381 67.2167
" />
<path d="M104.2381 67.2167
L104.1905 67.0262
" />
<path d="M104.1905 67.0262
L104.1905 66.6453
" />
<path d="M104.1905 66.6453
L104.2381 66.5501
" />
<path d="M104.2381 66.5501
L104.2857 66.5024
" />
<path d="M104.2857 66.5024
L104.3810 66.4548
" />
<path d="M104.3810 66.4548
L104.5714 66.4548
" />
<path d="M104.5714 66.4548
L104.6667 66.5024
" />
<path d="M104.6667 66.5024
L104.7143 66.5501
" />
<path d="M104.7143 66.5501
L104.7619 66.6453
" />
<path d="M104.7619 66.6453
L104.7619 66.8834
" />
<path d="M104.7619 66.8834
L104.7143 66.9786
" />
<path d="M104.7143 66.9786
L104.6667 67.0262
" />
<path d="M104.6667 67.0262
L104.5714 67.0739
" />
<path d="M104.5714 67.0739
L104.3810 67.0739
" />
<path d="M104.3810 67.0739
L104.2857 67.0262
" />
<path d="M104.2857 67.0262
L104.2381 66.9786
" />
<path d="M104.2381 66.9786
L104.1905 66.8834
" />
</g><text x="30.0000" y="71.2000"
transform="scale(-1 1) translate(-60.000000 0)"
textLength="5.3452" font-size="1.3333" lengthAdjust="spacingAndGlyphs"
text-anchor="middle" opacity="0" stroke-opacity="0">Spacer</text>
<g class="stroked-text"><desc>Spacer</desc>
<path d="M32.3571 71.1072
L32.2143 71.1548
" />
<path d="M32.2143 71.1548
L31.9762 71.1548
" />
<path d="M31.9762 71.1548
L31.8810 71.1072
" />
<path d="M31.8810 71.1072
L31.8333 71.0596
" />
<path d="M31.8333 71.0596
L31.7857 70.9643
" />
<path d="M31.7857 70.9643
L31.7857 70.8691
" />
<path d="M31.7857 70.8691
L31.8333 70.7739
" />
<path d="M31.8333 70.7739
L31.8810 70.7262
" />
<path d="M31.8810 70.7262
L31.9762 70.6786
" />
<path d="M31.9762 70.6786
L32.1667 70.6310
" />
<path d="M32.1667 70.6310
L32.2619 70.5834
" />
<path d="M32.2619 70.5834
L32.3095 70.5358
" />
<path d="M32.3095 70.5358
L32.3571 70.4405
" />
<path d="M32.3571 70.4405
L32.3571 70.3453
" />
<path d="M32.3571 70.3453
L32.3095 70.2501
" />
<path d="M32.3095 70.2501
L32.2619 70.2024
" />
<path d="M32.2619 70.2024
L32.1667 70.1548
" />
<path d="M32.1667 70.1548
L31.9286 70.1548
" />
<path d="M31.9286 70.1548
L31.7857 70.2024
" />
<path d="M31.3571 70.4882
L31.3571 71.4882
" />
<path d="M31.3571 70.5358
L31.2619 70.4882
" />
<path d="M31.2619 70.4882
L31.0714 70.4882
" />
<path d="M31.0714 70.4882
L30.9762 70.5358
" />
<path d="M30.9762 70.5358
L30.9286 70.5834
" />
<path d="M30.9286 70.5834
L30.8810 70.6786
" />
<path d="M30.8810 70.6786
L30.8810 70.9643
" />
<path d="M30.8810 70.9643
L30.9286 71.0596
" />
<path d="M30.9286 71.0596
L30.9762 71.1072
" />
<path d="M30.9762 71.1072
L31.0714 71.1548
" />
<path d="M31.0714 71.1548
L31.2619 71.1548
" />
<path d="M31.2619 71.1548
L31.3571 71.1072
" />
<path d="M30.0238 71.1548
L30.0238 70.6310
" />
<path d="M30.0238 70.6310
L30.0714 70.5358
" />
<path d="M30.0714 70.5358
L30.1667 70.4882
" />
<path d="M30.1667 70.4882
L30.3571 70.4882
" />
<path d="M30.3571 70.4882
L30.4524 70.5358
" />
<path d="M30.0238 71.1072
L30.1190 71.1548
" />
<path d="M30.1190 71.1548
L30.3571 71.1548
" />
<path d="M30.3571 71.1548
L30.4524 71.1072
" />
<path d="M30.4524 71.1072
L30.5000 71.0120
" />
<path d="M30.5000 71.0120
L30.5000 70.9167
" />
<path d="M30.5000 70.9167
L30.4524 70.8215
" />
<path d="M30.4524 70.8215
L30.3571 70.7739
" />
<path d="M30.3571 70.7739
L30.1190 70.7739
" />
<path d="M30.1190 70.7739
L30.0238 70.7262
" />
<path d="M29.1190 71.1072
L29.2143 71.1548
" />
<path d="M29.2143 71.1548
L29.4048 71.1548
" />
<path d="M29.4048 71.1548
L29.5000 71.1072
" />
<path d="M29.5000 71.1072
L29.5476 71.0596
" />
<path d="M29.5476 71.0596
L29.5952 70.9643
" />
<path d="M29.5952 70.9643
L29.5952 70.6786
" />
<path d="M29.5952 70.6786
L29.5476 70.5834
" />
<path d="M29.5476 70.5834
L29.5000 70.5358
" />
<path d="M29.5000 70.5358
L29.4048 70.4882
" />
<path d="M29.4048 70.4882
L29.2143 70.4882
" />
<path d="M29.2143 70.4882
L29.1190 70.5358
" />
<path d="M28.3095 71.1072
L28.4048 71.1548
" />
<path d="M28.4048 71.1548
L28.5952 71.1548
" />
<path d="M28.5952 71.1548
L28.6905 71.1072
" />
<path d="M28.6905 71.1072
L28.7381 71.0120
" />
<path d="M28.7381 71.0120
L28.7381 70.6310
" />
<path d="M28.7381 70.6310
L28.6905 70.5358
" />
<path d="M28.6905 70.5358
L28.5952 70.4882
" />
<path d="M28.5952 70.4882
L28.4048 70.4882
" />
<path d="M28.4048 70.4882
L28.3095 70.5358
" />
<path d="M28.3095 70.5358
L28.2619 70.6310
" />
<path d="M28.2619 70.6310
L28.2619 70.7262
" />
<path d="M28.2619 70.7262
L28.7381 70.8215
" />
<path d="M27.8333 71.1548
L27.8333 70.4882
" />
<path d="M27.8333 70.6786
L27.7857 70.5834
" />
<path d="M27.7857 70.5834
L27.7381 70.5358
" />
<path d="M27.7381 70.5358
L27.6429 70.4882
" />
<path d="M27.6429 70.4882
L27.5476 70.4882
" />
</g><text x="30.0000" y="67.5000"
transform="scale(-1 1) translate(-60.000000 0)"
textLength="3.2024" font-size="1.3333" lengthAdjust="spacingAndGlyphs"
text-anchor="middle" opacity="0" stroke-opacity="0">H10</text>
<g class="stroked-text"><desc>H10</desc>
<path d="M31.2381 67.4548
L31.2381 66.4548
" />
<path d="M31.2381 66.9310
L30.6667 66.9310
" />
<path d="M30.6667 67.4548
L30.6667 66.4548
" />
<path d="M29.6667 67.4548
L30.2381 67.4548
" />
<path d="M29.9524 67.4548
L29.9524 66.4548
" />
<path d="M29.9524 66.4548
L30.0476 66.5977
" />
<path d="M30.0476 66.5977
L30.1429 66.6929
" />
<path d="M30.1429 66.6929
L30.2381 66.7405
" />
<path d="M29.0476 66.4548
L28.9524 66.4548
" />
<path d="M28.9524 66.4548
L28.8571 66.5024
" />
<path d="M28.8571 66.5024
L28.8095 66.5501
" />
<path d="M28.8095 66.5501
L28.7619 66.6453
" />
<path d="M28.7619 66.6453
L28.7143 66.8358
" />
<path d="M28.7143 66.8358
L28.7143 67.0739
" />
<path d="M28.7143 67.0739
L28.7619 67.2643
" />
<path d="M28.7619 67.2643
L28.8095 67.3596
" />
<path d="M28.8095 67.3596
L28.8571 67.4072
" />
<path d="M28.8571 67.4072
L28.9524 67.4548
" />
<path d="M28.9524 67.4548
L29.0476 67.4548
" />
<path d="M29.0476 67.4548
L29.1429 67.4072
" />
<path d="M29.1429 67.4072
L29.1905 67.3596
" />
<path d="M29.1905 67.3596
L29.2381 67.2643
" />
<path d="M29.2381 67.2643
L29.2857 67.0739
" />
<path d="M29.2857 67.0739
L29.2857 66.8358
" />
<path d="M29.2857 66.8358
L29.2381 66.6453
" />
<path d="M29.2381 66.6453
L29.1905 66.5501
" />
<path d="M29.1905 66.5501
L29.1429 66.5024
" />
<path d="M29.1429 66.5024
L29.0476 66.4548
" />
</g><text x="180.0000" y="71.2000"
transform="scale(-1 1) translate(-360.000000 0)"
textLength="5.3452" font-size="1.3333" lengthAdjust="spacingAndGlyphs"
text-anchor="middle" opacity="0" stroke-opacity="0">Spacer</text>
<g class="stroked-text"><desc>Spacer</desc>
<path d="M182.3571 71.1072
L182.2143 71.1548
" />
<path d="M182.2143 71.1548
L181.9762 71.1548
" />
<path d="M181.9762 71.1548
L181.8810 71.1072
" />
<path d="M181.8810 71.1072
L181.8333 71.0596
" />
<path d="M181.8333 71.0596
L181.7857 70.9643
" />
<path d="M181.7857 70.9643
L181.7857 70.8691
" />
<path d="M181.7857 70.8691
L181.8333 70.7739
" />
<path d="M181.8333 70.7739
L181.8810 70.7262
" />
<path d="M181.8810 70.7262
L181.9762 70.6786
" />
<path d="M181.9762 70.6786
L182.1667 70.6310
" />
<path d="M182.1667 70.6310
L182.2619 70.5834
" />
<path d="M182.2619 70.5834
L182.3095 70.5358
" />
<path d="M182.3095 70.5358
L182.3571 70.4405
" />
<path d="M182.3571 70.4405
L182.3571 70.3453
" />
<path d="M182.3571 70.3453
L182.3095 70.2501
" />
<path d="M182.3095 70.2501
L182.2619 70.2024
" />
<path d="M182.2619 70.2024
L182.1667 70.1548
" />
<path d="M182.1667 70.1548
L181.9286 70.1548
" />
<path d="M181.9286 70.1548
L181.7857 70.2024
" />
<path d="M181.3571 70.4882
L181.3571 71.4882
" />
<path d="M181.3571 70.5358
L181.2619 70.4882
" />
<path d="M181.2619 70.4882
L181.0714 70.4882
" />
<path d="M181.0714 70.4882
L180.9762 70.5358
" />
<path d="M180.9762 70.5358
L180.9286 70.5834
" />
<path d="M180.9286 70.5834
L180.8810 70.6786
" />
<path d="M180.8810 70.6786
L180.8810 70.9643
" />
<path d="M180.8810 70.9643
L180.9286 71.0596
" />
<path d="M180.9286 71.0596
L180.9762 71.1072
" />
<path d="M180.9762 71.1072
L181.0714 71.1548
" />
<path d="M181.0714 71.1548
L181.2619 71.1548
" />
<path d="M181.2619 71.1548
L181.3571 71.1072
" />
<path d="M180.0238 71.1548
L180.0238 70.6310
" />
<path d="M180.0238 70.6310
L180.0714 70.5358
" />
<path d="M180.0714 70.5358
L180.1667 70.4882
" />
<path d="M180.1667 70.4882
L180.3571 70.4882
" />
<path d="M180.3571 70.4882
L180.4524 70.5358
" />
<path d="M180.0238 71.1072
L180.1190 71.1548
" />
<path d="M180.1190 71.1548
L180.3571 71.1548
" />
<path d="M180.3571 71.1548
L180.4524 71.1072
" />
<path d="M180.4524 71.1072
L180.5000 71.0120
" />
<path d="M180.5000 71.0120
L180.5000 70.9167
" />
<path d="M180.5000 70.9167
L180.4524 70.8215
" />
<path d="M180.4524 70.8215
L180.3571 70.7739
" />
<path d="M180.3571 70.7739
L180.1190 70.7739
" />
<path d="M180.1190 70.7739
L180.0238 70.7262
" />
<path d="M179.1190 71.1072
L179.2143 71.1548
" />
<path d="M179.2143 71.1548
L179.4048 71.1548
" />
<path d="M179.4048 71.1548
L179.5000 71.1072
" />
<path d="M179.5000 71.1072
L179.5476 71.0596
" />
<path d="M179.5476 71.0596
L179.5952 70.9643
" />
<path d="M179.5952 70.9643
L179.5952 70.6786
" />
<path d="M179.5952 70.6786
L179.5476 70.5834
" />
<path d="M179.5476 70.5834
L179.5000 70.5358
" />
<path d="M179.5000 70.5358
L179.4048 70.4882
" />
<path d="M179.4048 70.4882
L179.2143 70.4882
" />
<path d="M179.2143 70.4882
L179.1190 70.5358
" />
<path d="M178.3095 71.1072
L178.4048 71.1548
" />
<path d="M178.4048 71.1548
L178.5952 71.1548
" />
<path d="M178.5952 71.1548
L178.6905 71.1072
" />
<path d="M178.6905 71.1072
L178.7381 71.0120
" />
<path d="M178.7381 71.0120
L178.7381 70.6310
" />
<path d="M178.7381 70.6310
L178.6905 70.5358
" />
<path d="M178.6905 70.5358
L178.5952 70.4882
" />
<path d="M178.5952 70.4882
L178.4048 70.4882
" />
<path d="M178.4048 70.4882
L178.3095 70.5358
" />
<path d="M178.3095 70.5358
L178.2619 70.6310
" />
<path d="M178.2619 70.6310
L178.2619 70.7262
" />
<path d="M178.2619 70.7262
L178.7381 70.8215
" />
<path d="M177.8333 71.1548
L177.8333 70.4882
" />
<path d="M177.8333 70.6786
L177.7857 70.5834
" />
<path d="M177.7857 70.5834
L177.7381 70.5358
" />
<path d="M177.7381 70.5358
L177.6429 70.4882
" />
<path d="M177.6429 70.4882
L177.5476 70.4882
" />
</g><text x="180.0000" y="67.5000"
transform="scale(-1 1) translate(-360.000000 0)"
textLength="2.2500" font-size="1.3333" lengthAdjust="spacingAndGlyphs"
text-anchor="middle" opacity="0" stroke-opacity="0">H8</text>
<g class="stroked-text"><desc>H8</desc>
<path d="M180.7619 67.4548
L180.7619 66.4548
" />
<path d="M180.7619 66.9310
L180.1905 66.9310
" />
<path d="M180.1905 67.4548
L180.1905 66.4548
" />
<path d="M179.5714 66.8834
L179.6667 66.8358
" />
<path d="M179.6667 66.8358
L179.7143 66.7882
" />
<path d="M179.7143 66.7882
L179.7619 66.6929
" />
<path d="M179.7619 66.6929
L179.7619 66.6453
" />
<path d="M179.7619 66.6453
L179.7143 66.5501
" />
<path d="M179.7143 66.5501
L179.6667 66.5024
" />
<path d="M179.6667 66.5024
L179.5714 66.4548
" />
<path d="M179.5714 66.4548
L179.3810 66.4548
" />
<path d="M179.3810 66.4548
L179.2857 66.5024
" />
<path d="M179.2857 66.5024
L179.2381 66.5501
" />
<path d="M179.2381 66.5501
L179.1905 66.6453
" />
<path d="M179.1905 66.6453
L179.1905 66.6929
" />
<path d="M179.1905 66.6929
L179.2381 66.7882
" />
<path d="M179.2381 66.7882
L179.2857 66.8358
" />
<path d="M179.2857 66.8358
L179.3810 66.8834
" />
<path d="M179.3810 66.8834
L179.5714 66.8834
" />
<path d="M179.5714 66.8834
L179.6667 66.9310
" />
<path d="M179.6667 66.9310
L179.7143 66.9786
" />
<path d="M179.7143 66.9786
L179.7619 67.0739
" />
<path d="M179.7619 67.0739
L179.7619 67.2643
" />
<path d="M179.7619 67.2643
L179.7143 67.3596
" />
<path d="M179.7143 67.3596
L179.6667 67.4072
" />
<path d="M179.6667 67.4072
L179.5714 67.4548
" />
<path d="M179.5714 67.4548
L179.3810 67.4548
" />
<path d="M179.3810 67.4548
L179.2857 67.4072
" />
<path d="M179.2857 67.4072
L179.2381 67.3596
" />
<path d="M179.2381 67.3596
L179.1905 67.2643
" />
<path d="M179.1905 67.2643
L179.1905 67.0739
" />
<path d="M179.1905 67.0739
L179.2381 66.9786
" />
<path d="M179.2381 66.9786
L179.2857 66.9310
" />
<path d="M179.2857 66.9310
L179.3810 66.8834
" />
</g><text x="105.0000" y="123.2000"
transform="scale(-1 1) translate(-210.000000 0)"
textLength="5.3452" font-size="1.3333" lengthAdjust="spacingAndGlyphs"
text-anchor="middle" opacity="0" stroke-opacity="0">Spacer</text>
<g class="stroked-text"><desc>Spacer</desc>
<path d="M107.3571 123.1072
L107.2143 123.1548
" />
<path d="M107.2143 123.1548
L106.9762 123.1548
" />
<path d="M106.9762 123.1548
L106.8810 123.1072
" />
<path d="M106.8810 123.1072
L106.8333 123.0596
" />
<path d="M106.8333 123.0596
L106.7857 122.9643
" />
<path d="M106.7857 122.9643
L106.7857 122.8691
" />
<path d="M106.7857 122.8691
L106.8333 122.7739
" />
<path d="M106.8333 122.7739
L106.8810 122.7262
" />
<path d="M106.8810 122.7262
L106.9762 122.6786
" />
<path d="M106.9762 122.6786
L107.1667 122.6310
" />
<path d="M107.1667 122.6310
L107.2619 122.5834
" />
<path d="M107.2619 122.5834
L107.3095 122.5358
" />
<path d="M107.3095 122.5358
L107.3571 122.4405
" />
<path d="M107.3571 122.4405
L107.3571 122.3453
" />
<path d="M107.3571 122.3453
L107.3095 122.2501
" />
<path d="M107.3095 122.2501
L107.2619 122.2024
" />
<path d="M107.2619 122.2024
L107.1667 122.1548
" />
<path d="M107.1667 122.1548
L106.9286 122.1548
" />
<path d="M106.9286 122.1548
L106.7857 122.2024
" />
<path d="M106.3571 122.4882
L106.3571 123.4882
" />
<path d="M106.3571 122.5358
L106.2619 122.4882
" />
<path d="M106.2619 122.4882
L106.0714 122.4882
" />
<path d="M106.0714 122.4882
L105.9762 122.5358
" />
<path d="M105.9762 122.5358
L105.9286 122.5834
" />
<path d="M105.9286 122.5834
L105.8810 122.6786
" />
<path d="M105.8810 122.6786
L105.8810 122.9643
" />
<path d="M105.8810 122.9643
L105.9286 123.0596
" />
<path d="M105.9286 123.0596
L105.9762 123.1072
" />
<path d="M105.9762 123.1072
L106.0714 123.1548
" />
<path d="M106.0714 123.1548
L106.2619 123.1548
" />
<path d="M106.2619 123.1548
L106.3571 123.1072
" />
<path d="M105.0238 123.1548
L105.0238 122.6310
" />
<path d="M105.0238 122.6310
L105.0714 122.5358
" />
<path d="M105.0714 122.5358
L105.1667 122.4882
" />
<path d="M105.1667 122.4882
L105.3571 122.4882
" />
<path d="M105.3571 122.4882
L105.4524 122.5358
" />
<path d="M105.0238 123.1072
L105.1190 123.1548
" />
<path d="M105.1190 123.1548
L105.3571 123.1548
" />
<path d="M105.3571 123.1548
L105.4524 123.1072
" />
<path d="M105.4524 123.1072
L105.5000 123.0120
" />
<path d="M105.5000 123.0120
L105.5000 122.9167
" />
<path d="M105.5000 122.9167
L105.4524 122.8215
" />
<path d="M105.4524 122.8215
L105.3571 122.7739
" />
<path d="M105.3571 122.7739
L105.1190 122.7739
" />
<path d="M105.1190 122.7739
L105.0238 122.7262
" />
<path d="M104.1190 123.1072
L104.2143 123.1548
" />
<path d="M104.2143 123.1548
L104.4048 123.1548
" />
<path d="M104.4048 123.1548
L104.5000 123.1072
" />
<path d="M104.5000 123.1072
L104.5476 123.0596
" />
<path d="M104.5476 123.0596
L104.5952 122.9643
" />
<path d="M104.5952 122.9643
L104.5952 122.6786
" />
<path d="M104.5952 122.6786
L104.5476 122.5834
" />
<path d="M104.5476 122.5834
L104.5000 122.5358
" />
<path d="M104.5000 122.5358
L104.4048 122.4882
" />
<path d="M104.4048 122.4882
L104.2143 122.4882
" />
<path d="M104.2143 122.4882
L104.1190 122.5358
" />
<path d="M103.3095 123.1072
L103.4048 123.1548
" />
<path d="M103.4048 123.1548
L103.5952 123.1548
" />
<path d="M103.5952 123.1548
L103.6905 123.1072
" />
<path d="M103.6905 123.1072
L103.7381 123.0120
" />
<path d="M103.7381 123.0120
L103.7381 122.6310
" />
<path d="M103.7381 122.6310
L103.6905 122.5358
" />
<path d="M103.6905 122.5358
L103.5952 122.4882
" />
<path d="M103.5952 122.4882
L103.4048 122.4882
" />
<path d="M103.4048 122.4882
L103.3095 122.5358
" />
<path d="M103.3095 122.5358
L103.2619 122.6310
" />
<path d="M103.2619 122.6310
L103.2619 122.7262
" />
<path d="M103.2619 122.7262
L103.7381 122.8215
" />
<path d="M102.8333 123.1548
L102.8333 122.4882
" />
<path d="M102.8333 122.6786
L102.7857 122.5834
" />
<path d="M102.7857 122.5834
L102.7381 122.5358
" />
<path d="M102.7381 122.5358
L102.6429 122.4882
" />
<path d="M102.6429 122.4882
L102.5476 122.4882
" />
</g><text x="105.0000" y="119.5000"
transform="scale(-1 1) translate(-210.000000 0)"
textLength="3.2024" font-size="1.3333" lengthAdjust="spacingAndGlyphs"
text-anchor="middle" opacity="0" stroke-opacity="0">H12</text>
<g class="stroked-text"><desc>H12</desc>
<path d="M106.2381 119.4548
L106.2381 118.4548
" />
<path d="M106.2381 118.9310
L105.6667 118.9310
" />
<path d="M105.6667 119.4548
L105.6667 118.4548
" />
<path d="M104.6667 119.4548
L105.2381 119.4548
" />
<path d="M104.9524 119.4548
L104.9524 118.4548
" />
<path d="M104.9524 118.4548
L105.0476 118.5977
" />
<path d="M105.0476 118.5977
L105.1429 118.6929
" />
<path d="M105.1429 118.6929
L105.2381 118.7405
" />
<path d="M104.2857 118.5501
L104.2381 118.5024
" />
<path d="M104.2381 118.5024
L104.1429 118.4548
" />
<path d="M104.1429 118.4548
L103.9048 118.4548
" />
<path d="M103.9048 118.4548
L103.8095 118.5024
" />
<path d="M103.8095 118.5024
L103.7619 118.5501
" />
<path d="M103.7619 118.5501
L103.7143 118.6453
" />
<path d="M103.7143 118.6453
L103.7143 118.7405
" />
<path d="M103.7143 118.7405
L103.7619 118.8834
" />
<path d="M103.7619 118.8834
L104.3333 119.4548
" />
<path d="M104.3333 119.4548
L103.7143 119.4548
" />
</g><text x="74.9600" y="19.9900"
transform="scale(-1 1) translate(-149.920000 0)"
textLength="7.2500" font-size="1.3333" lengthAdjust="spacingAndGlyphs"
text-anchor="middle" opacity="0" stroke-opacity="0">JST PH 3</text>
<g class="stroked-text"><desc>JST PH 3</desc>
<path d="M77.9362 18.9448
L77.9362 19.6591
" />
<path d="M77.9362 19.6591
L77.9838 19.8020
" />
<path d="M77.9838 19.8020
L78.0790 19.8972
" />
<path d="M78.0790 19.8972
L78.2219 19.9448
" />
<path d="M78.2219 19.9448
L78.3171 19.9448
" />
<path d="M77.5076 19.8972
L77.3648 19.9448
" />
<path d="M77.3648 19.9448
L77.1267 19.9448
" />
<path d="M77.1267 19.9448
L77.0314 19.8972
" />
<path d="M77.0314 19.8972
L76.9838 19.8496
" />
<path d="M76.9838 19.8496
L76.9362 19.7543
" />
<path d="M76.9362 19.7543
L76.9362 19.6591
" />
<path d="M76.9362 19.6591
L76.9838 19.5639
" />
<path d="M76.9838 19.5639
L77.0314 19.5162
" />
<path d="M77.0314 19.5162
L77.1267 19.4686
" />
<path d="M77.1267 19.4686
L77.3171 19.4210
" />
<path d="M77.3171 19.4210
L77.4124 19.3734
" />
<path d="M77.4124 19.3734
L77.4600 19.3258
" />
<path d="M77.4600 19.3258
L77.5076 19.2305
" />
<path d="M77.5076 19.2305
L77.5076 19.1353
" />
<path d="M77.5076 19.1353
L77.4600 19.0401
" />
<path d="M77.4600 19.0401
L77.4124 18.9924
" />
<path d="M77.4124 18.9924
L77.3171 18.9448
" />
<path d="M77.3171 18.9448
L77.0790 18.9448
" />
<path d="M77.0790 18.9448
L76.9362 18.9924
" />
<path d="M76.6505 18.9448
L76.0790 18.9448
" />
<path d="M76.3648 19.9448
L76.3648 18.9448
" />
<path d="M74.9838 19.9448
L74.9838 18.9448
" />
<path d="M74.9838 18.9448
L74.6029 18.9448
" />
<path d="M74.6029 18.9448
L74.5076 18.9924
" />
<path d="M74.5076 18.9924
L74.4600 19.0401
" />
<path d="M74.4600 19.0401
L74.4124 19.1353
" />
<path d="M74.4124 19.1353
L74.4124 19.2782
" />
<path d="M74.4124 19.2782
L74.4600 19.3734
" />
<path d="M74.4600 19.3734
L74.5076 19.4210
" />
<path d="M74.5076 19.4210
L74.6029 19.4686
" />
<path d="M74.6029 19.4686
L74.9838 19.4686
" />
<path d="M73.9838 19.9448
L73.9838 18.9448
" />
<path d="M73.9838 19.4210
L73.4124 19.4210
" />
<path d="M73.4124 19.9448
L73.4124 18.9448
" />
<path d="M72.2695 18.9448
L71.6505 18.9448
" />
<path d="M71.6505 18.9448
L71.9838 19.3258
" />
<path d="M71.9838 19.3258
L71.8410 19.3258
" />
<path d="M71.8410 19.3258
L71.7457 19.3734
" />
<path d="M71.7457 19.3734
L71.6981 19.4210
" />
<path d="M71.6981 19.4210
L71.6505 19.5162
" />
<path d="M71.6505 19.5162
L71.6505 19.7543
" />
<path d="M71.6505 19.7543
L71.6981 19.8496
" />
<path d="M71.6981 19.8496
L71.7457 19.8972
" />
<path d="M71.7457 19.8972
L71.8410 19.9448
" />
<path d="M71.8410 19.9448
L72.1267 19.9448
" />
<path d="M72.1267 19.9448
L72.2219 19.8972
" />
<path d="M72.2219 19.8972
L72.2695 19.8496
" />
</g><text x="74.9600" y="22.4900"
transform="scale(-1 1) translate(-149.920000 0)"
textLength="2.9167" font-size="1.3333" lengthAdjust="spacingAndGlyphs"
text-anchor="middle" opacity="0" stroke-opacity="0">J25</text>
<g class="stroked-text"><desc>J25</desc>
<path d="M75.7695 21.4448
L75.7695 22.1591
" />
<path d="M75.7695 22.1591
L75.8171 22.3020
" />
<path d="M75.8171 22.3020
L75.9124 22.3972
" />
<path d="M75.9124 22.3972
L76.0552 22.4448
" />
<path d="M76.0552 22.4448
L76.1505 22.4448
" />
<path d="M75.3410 21.5401
L75.2933 21.4924
" />
<path d="M75.2933 21.4924
L75.1981 21.4448
" />
<path d="M75.1981 21.4448
L74.9600 21.4448
" />
<path d="M74.9600 21.4448
L74.8648 21.4924
" />
<path d="M74.8648 21.4924
L74.8171 21.5401
" />
<path d="M74.8171 21.5401
L74.7695 21.6353
" />
<path d="M74.7695 21.6353
L74.7695 21.7305
" />
<path d="M74.7695 21.7305
L74.8171 21.8734
" />
<path d="M74.8171 21.8734
L75.3886 22.4448
" />
<path d="M75.3886 22.4448
L74.7695 22.4448
" />
<path d="M73.8648 21.4448
L74.3410 21.4448
" />
<path d="M74.3410 21.4448
L74.3886 21.9210
" />
<path d="M74.3886 21.9210
L74.3410 21.8734
" />
<path d="M74.3410 21.8734
L74.2457 21.8258
" />
<path d="M74.2457 21.8258
L74.0076 21.8258
" />
<path d="M74.0076 21.8258
L73.9124 21.8734
" />
<path d="M73.9124 21.8734
L73.8648 21.9210
" />
<path d="M73.8648 21.9210
L73.8171 22.0162
" />
<path d="M73.8171 22.0162
L73.8171 22.2543
" />
<path d="M73.8171 22.2543
L73.8648 22.3496
" />
<path d="M73.8648 22.3496
L73.9124 22.3972
" />
<path d="M73.9124 22.3972
L74.0076 22.4448
" />
<path d="M74.0076 22.4448
L74.2457 22.4448
" />
<path d="M74.2457 22.4448
L74.3410 22.3972
" />
<path d="M74.3410 22.3972
L74.3886 22.3496
" />
</g><text x="180.0000" y="123.2000"
transform="scale(-1 1) translate(-360.000000 0)"
textLength="5.3452" font-size="1.3333" lengthAdjust="spacingAndGlyphs"
text-anchor="middle" opacity="0" stroke-opacity="0">Spacer</text>
<g class="stroked-text"><desc>Spacer</desc>
<path d="M182.3571 123.1072
L182.2143 123.1548
" />
<path d="M182.2143 123.1548
L181.9762 123.1548
" />
<path d="M181.9762 123.1548
L181.8810 123.1072
" />
<path d="M181.8810 123.1072
L181.8333 123.0596
" />
<path d="M181.8333 123.0596
L181.7857 122.9643
" />
<path d="M181.7857 122.9643
L181.7857 122.8691
" />
<path d="M181.7857 122.8691
L181.8333 122.7739
" />
<path d="M181.8333 122.7739
L181.8810 122.7262
" />
<path d="M181.8810 122.7262
L181.9762 122.6786
" />
<path d="M181.9762 122.6786
L182.1667 122.6310
" />
<path d="M182.1667 122.6310
L182.2619 122.5834
" />
<path d="M182.2619 122.5834
L182.3095 122.5358
" />
<path d="M182.3095 122.5358
L182.3571 122.4405
" />
<path d="M182.3571 122.4405
L182.3571 122.3453
" />
<path d="M182.3571 122.3453
L182.3095 122.2501
" />
<path d="M182.3095 122.2501
L182.2619 122.2024
" />
<path d="M182.2619 122.2024
L182.1667 122.1548
" />
<path d="M182.1667 122.1548
L181.9286 122.1548
" />
<path d="M181.9286 122.1548
L181.7857 122.2024
" />
<path d="M181.3571 122.4882
L181.3571 123.4882
" />
<path d="M181.3571 122.5358
L181.2619 122.4882
" />
<path d="M181.2619 122.4882
L181.0714 122.4882
" />
<path d="M181.0714 122.4882
L180.9762 122.5358
" />
<path d="M180.9762 122.5358
L180.9286 122.5834
" />
<path d="M180.9286 122.5834
L180.8810 122.6786
" />
<path d="M180.8810 122.6786
L180.8810 122.9643
" />
<path d="M180.8810 122.9643
L180.9286 123.0596
" />
<path d="M180.9286 123.0596
L180.9762 123.1072
" />
<path d="M180.9762 123.1072
L181.0714 123.1548
" />
<path d="M181.0714 123.1548
L181.2619 123.1548
" />
<path d="M181.2619 123.1548
L181.3571 123.1072
" />
<path d="M180.0238 123.1548
L180.0238 122.6310
" />
<path d="M180.0238 122.6310
L180.0714 122.5358
" />
<path d="M180.0714 122.5358
L180.1667 122.4882
" />
<path d="M180.1667 122.4882
L180.3571 122.4882
" />
<path d="M180.3571 122.4882
L180.4524 122.5358
" />
<path d="M180.0238 123.1072
L180.1190 123.1548
" />
<path d="M180.1190 123.1548
L180.3571 123.1548
" />
<path d="M180.3571 123.1548
L180.4524 123.1072
" />
<path d="M180.4524 123.1072
L180.5000 123.0120
" />
<path d="M180.5000 123.0120
L180.5000 122.9167
" />
<path d="M180.5000 122.9167
L180.4524 122.8215
" />
<path d="M180.4524 122.8215
L180.3571 122.7739
" />
<path d="M180.3571 122.7739
L180.1190 122.7739
" />
<path d="M180.1190 122.7739
L180.0238 122.7262
" />
<path d="M179.1190 123.1072
L179.2143 123.1548
" />
<path d="M179.2143 123.1548
L179.4048 123.1548
" />
<path d="M179.4048 123.1548
L179.5000 123.1072
" />
<path d="M179.5000 123.1072
L179.5476 123.0596
" />
<path d="M179.5476 123.0596
L179.5952 122.9643
" />
<path d="M179.5952 122.9643
L179.5952 122.6786
" />
<path d="M179.5952 122.6786
L179.5476 122.5834
" />
<path d="M179.5476 122.5834
L179.5000 122.5358
" />
<path d="M179.5000 122.5358
L179.4048 122.4882
" />
<path d="M179.4048 122.4882
L179.2143 122.4882
" />
<path d="M179.2143 122.4882
L179.1190 122.5358
" />
<path d="M178.3095 123.1072
L178.4048 123.1548
" />
<path d="M178.4048 123.1548
L178.5952 123.1548
" />
<path d="M178.5952 123.1548
L178.6905 123.1072
" />
<path d="M178.6905 123.1072
L178.7381 123.0120
" />
<path d="M178.7381 123.0120
L178.7381 122.6310
" />
<path d="M178.7381 122.6310
L178.6905 122.5358
" />
<path d="M178.6905 122.5358
L178.5952 122.4882
" />
<path d="M178.5952 122.4882
L178.4048 122.4882
" />
<path d="M178.4048 122.4882
L178.3095 122.5358
" />
<path d="M178.3095 122.5358
L178.2619 122.6310
" />
<path d="M178.2619 122.6310
L178.2619 122.7262
" />
<path d="M178.2619 122.7262
L178.7381 122.8215
" />
<path d="M177.8333 123.1548
L177.8333 122.4882
" />
<path d="M177.8333 122.6786
L177.7857 122.5834
" />
<path d="M177.7857 122.5834
L177.7381 122.5358
" />
<path d="M177.7381 122.5358
L177.6429 122.4882
" />
<path d="M177.6429 122.4882
L177.5476 122.4882
" />
</g><text x="180.0000" y="119.5000"
transform="scale(-1 1) translate(-360.000000 0)"
textLength="3.2024" font-size="1.3333" lengthAdjust="spacingAndGlyphs"
text-anchor="middle" opacity="0" stroke-opacity="0">H11</text>
<g class="stroked-text"><desc>H11</desc>
<path d="M181.2381 119.4548
L181.2381 118.4548
" />
<path d="M181.2381 118.9310
L180.6667 118.9310
" />
<path d="M180.6667 119.4548
L180.6667 118.4548
" />
<path d="M179.6667 119.4548
L180.2381 119.4548
" />
<path d="M179.9524 119.4548
L179.9524 118.4548
" />
<path d="M179.9524 118.4548
L180.0476 118.5977
" />
<path d="M180.0476 118.5977
L180.1429 118.6929
" />
<path d="M180.1429 118.6929
L180.2381 118.7405
" />
<path d="M178.7143 119.4548
L179.2857 119.4548
" />
<path d="M179.0000 119.4548
L179.0000 118.4548
" />
<path d="M179.0000 118.4548
L179.0952 118.5977
" />
<path d="M179.0952 118.5977
L179.1905 118.6929
" />
<path d="M179.1905 118.6929
L179.2857 118.7405
" />
</g><g transform="rotate(-90.000000 123.7000 93.7756)">
<text x="123.7000" y="94.2756"
transform="scale(-1 1) translate(-247.400000 0)"
textLength="17.2976" font-size="1.3333" lengthAdjust="spacingAndGlyphs"
text-anchor="middle" opacity="0" stroke-opacity="0">Pedalboard Soundcard</text>
</g>
<g class="stroked-text"><desc>Pedalboard Soundcard</desc>
<path d="M124.1548 85.4899
L123.1548 85.4899
" />
<path d="M123.1548 85.4899
L123.1548 85.8708
" />
<path d="M123.1548 85.8708
L123.2024 85.9661
" />
<path d="M123.2024 85.9661
L123.2501 86.0137
" />
<path d="M123.2501 86.0137
L123.3453 86.0613
" />
<path d="M123.3453 86.0613
L123.4882 86.0613
" />
<path d="M123.4882 86.0613
L123.5834 86.0137
" />
<path d="M123.5834 86.0137
L123.6310 85.9661
" />
<path d="M123.6310 85.9661
L123.6786 85.8708
" />
<path d="M123.6786 85.8708
L123.6786 85.4899
" />
<path d="M124.1072 86.8708
L124.1548 86.7756
" />
<path d="M124.1548 86.7756
L124.1548 86.5851
" />
<path d="M124.1548 86.5851
L124.1072 86.4899
" />
<path d="M124.1072 86.4899
L124.0120 86.4423
" />
<path d="M124.0120 86.4423
L123.6310 86.4423
" />
<path d="M123.6310 86.4423
L123.5358 86.4899
" />
<path d="M123.5358 86.4899
L123.4882 86.5851
" />
<path d="M123.4882 86.5851
L123.4882 86.7756
" />
<path d="M123.4882 86.7756
L123.5358 86.8708
" />
<path d="M123.5358 86.8708
L123.6310 86.9185
" />
<path d="M123.6310 86.9185
L123.7262 86.9185
" />
<path d="M123.7262 86.9185
L123.8215 86.4423
" />
<path d="M124.1548 87.7756
L123.1548 87.7756
" />
<path d="M124.1072 87.7756
L124.1548 87.6804
" />
<path d="M124.1548 87.6804
L124.1548 87.4899
" />
<path d="M124.1548 87.4899
L124.1072 87.3946
" />
<path d="M124.1072 87.3946
L124.0596 87.3470
" />
<path d="M124.0596 87.3470
L123.9643 87.2994
" />
<path d="M123.9643 87.2994
L123.6786 87.2994
" />
<path d="M123.6786 87.2994
L123.5834 87.3470
" />
<path d="M123.5834 87.3470
L123.5358 87.3946
" />
<path d="M123.5358 87.3946
L123.4882 87.4899
" />
<path d="M123.4882 87.4899
L123.4882 87.6804
" />
<path d="M123.4882 87.6804
L123.5358 87.7756
" />
<path d="M124.1548 88.6804
L123.6310 88.6804
" />
<path d="M123.6310 88.6804
L123.5358 88.6327
" />
<path d="M123.5358 88.6327
L123.4882 88.5375
" />
<path d="M123.4882 88.5375
L123.4882 88.3470
" />
<path d="M123.4882 88.3470
L123.5358 88.2518
" />
<path d="M124.1072 88.6804
L124.1548 88.5851
" />
<path d="M124.1548 88.5851
L124.1548 88.3470
" />
<path d="M124.1548 88.3470
L124.1072 88.2518
" />
<path d="M124.1072 88.2518
L124.0120 88.2042
" />
<path d="M124.0120 88.2042
L123.9167 88.2042
" />
<path d="M123.9167 88.2042
L123.8215 88.2518
" />
<path d="M123.8215 88.2518
L123.7739 88.3470
" />
<path d="M123.7739 88.3470
L123.7739 88.5851
" />
<path d="M123.7739 88.5851
L123.7262 88.6804
" />
<path d="M124.1548 89.2994
L124.1072 89.2042
" />
<path d="M124.1072 89.2042
L124.0120 89.1566
" />
<path d="M124.0120 89.1566
L123.1548 89.1566
" />
<path d="M124.1548 89.6804
L123.1548 89.6804
" />
<path d="M123.5358 89.6804
L123.4882 89.7756
" />
<path d="M123.4882 89.7756
L123.4882 89.9661
" />
<path d="M123.4882 89.9661
L123.5358 90.0613
" />
<path d="M123.5358 90.0613
L123.5834 90.1089
" />
<path d="M123.5834 90.1089
L123.6786 90.1566
" />
<path d="M123.6786 90.1566
L123.9643 90.1566
" />
<path d="M123.9643 90.1566
L124.0596 90.1089
" />
<path d="M124.0596 90.1089
L124.1072 90.0613
" />
<path d="M124.1072 90.0613
L124.1548 89.9661
" />
<path d="M124.1548 89.9661
L124.1548 89.7756
" />
<path d="M124.1548 89.7756
L124.1072 89.6804
" />
<path d="M124.1548 90.7280
L124.1072 90.6327
" />
<path d="M124.1072 90.6327
L124.0596 90.5851
" />
<path d="M124.0596 90.5851
L123.9643 90.5375
" />
<path d="M123.9643 90.5375
L123.6786 90.5375
" />
<path d="M123.6786 90.5375
L123.5834 90.5851
" />
<path d="M123.5834 90.5851
L123.5358 90.6327
" />
<path d="M123.5358 90.6327
L123.4882 90.7280
" />
<path d="M123.4882 90.7280
L123.4882 90.8708
" />
<path d="M123.4882 90.8708
L123.5358 90.9661
" />
<path d="M123.5358 90.9661
L123.5834 91.0137
" />
<path d="M123.5834 91.0137
L123.6786 91.0613
" />
<path d="M123.6786 91.0613
L123.9643 91.0613
" />
<path d="M123.9643 91.0613
L124.0596 91.0137
" />
<path d="M124.0596 91.0137
L124.1072 90.9661
" />
<path d="M124.1072 90.9661
L124.1548 90.8708
" />
<path d="M124.1548 90.8708
L124.1548 90.7280
" />
<path d="M124.1548 91.9185
L123.6310 91.9185
" />
<path d="M123.6310 91.9185
L123.5358 91.8708
" />
<path d="M123.5358 91.8708
L123.4882 91.7756
" />
<path d="M123.4882 91.7756
L123.4882 91.5851
" />
<path d="M123.4882 91.5851
L123.5358 91.4899
" />
<path d="M124.1072 91.9185
L124.1548 91.8232
" />
<path d="M124.1548 91.8232
L124.1548 91.5851
" />
<path d="M124.1548 91.5851
L124.1072 91.4899
" />
<path d="M124.1072 91.4899
L124.0120 91.4423
" />
<path d="M124.0120 91.4423
L123.9167 91.4423
" />
<path d="M123.9167 91.4423
L123.8215 91.4899
" />
<path d="M123.8215 91.4899
L123.7739 91.5851
" />
<path d="M123.7739 91.5851
L123.7739 91.8232
" />
<path d="M123.7739 91.8232
L123.7262 91.9185
" />
<path d="M124.1548 92.3946
L123.4882 92.3946
" />
<path d="M123.6786 92.3946
L123.5834 92.4423
" />
<path d="M123.5834 92.4423
L123.5358 92.4899
" />
<path d="M123.5358 92.4899
L123.4882 92.5851
" />
<path d="M123.4882 92.5851
L123.4882 92.6804
" />
<path d="M124.1548 93.4423
L123.1548 93.4423
" />
<path d="M124.1072 93.4423
L124.1548 93.3470
" />
<path d="M124.1548 93.3470
L124.1548 93.1566
" />
<path d="M124.1548 93.1566
L124.1072 93.0613
" />
<path d="M124.1072 93.0613
L124.0596 93.0137
" />
<path d="M124.0596 93.0137
L123.9643 92.9661
" />
<path d="M123.9643 92.9661
L123.6786 92.9661
" />
<path d="M123.6786 92.9661
L123.5834 93.0137
" />
<path d="M123.5834 93.0137
L123.5358 93.0613
" />
<path d="M123.5358 93.0613
L123.4882 93.1566
" />
<path d="M123.4882 93.1566
L123.4882 93.3470
" />
<path d="M123.4882 93.3470
L123.5358 93.4423
" />
<path d="M124.1072 94.6327
L124.1548 94.7756
" />
<path d="M124.1548 94.7756
L124.1548 95.0137
" />
<path d="M124.1548 95.0137
L124.1072 95.1089
" />
<path d="M124.1072 95.1089
L124.0596 95.1566
" />
<path d="M124.0596 95.1566
L123.9643 95.2042
" />
<path d="M123.9643 95.2042
L123.8691 95.2042
" />
<path d="M123.8691 95.2042
L123.7739 95.1566
" />
<path d="M123.7739 95.1566
L123.7262 95.1089
" />
<path d="M123.7262 95.1089
L123.6786 95.0137
" />
<path d="M123.6786 95.0137
L123.6310 94.8232
" />
<path d="M123.6310 94.8232
L123.5834 94.7280
" />
<path d="M123.5834 94.7280
L123.5358 94.6804
" />
<path d="M123.5358 94.6804
L123.4405 94.6327
" />
<path d="M123.4405 94.6327
L123.3453 94.6327
" />
<path d="M123.3453 94.6327
L123.2501 94.6804
" />
<path d="M123.2501 94.6804
L123.2024 94.7280
" />
<path d="M123.2024 94.7280
L123.1548 94.8232
" />
<path d="M123.1548 94.8232
L123.1548 95.0613
" />
<path d="M123.1548 95.0613
L123.2024 95.2042
" />
<path d="M124.1548 95.7756
L124.1072 95.6804
" />
<path d="M124.1072 95.6804
L124.0596 95.6327
" />
<path d="M124.0596 95.6327
L123.9643 95.5851
" />
<path d="M123.9643 95.5851
L123.6786 95.5851
" />
<path d="M123.6786 95.5851
L123.5834 95.6327
" />
<path d="M123.5834 95.6327
L123.5358 95.6804
" />
<path d="M123.5358 95.6804
L123.4882 95.7756
" />
<path d="M123.4882 95.7756
L123.4882 95.9185
" />
<path d="M123.4882 95.9185
L123.5358 96.0137
" />
<path d="M123.5358 96.0137
L123.5834 96.0613
" />
<path d="M123.5834 96.0613
L123.6786 96.1089
" />
<path d="M123.6786 96.1089
L123.9643 96.1089
" />
<path d="M123.9643 96.1089
L124.0596 96.0613
" />
<path d="M124.0596 96.0613
L124.1072 96.0137
" />
<path d="M124.1072 96.0137
L124.1548 95.9185
" />
<path d="M124.1548 95.9185
L124.1548 95.7756
" />
<path d="M123.4882 96.9661
L124.1548 96.9661
" />
<path d="M123.4882 96.5375
L124.0120 96.5375
" />
<path d="M124.0120 96.5375
L124.1072 96.5851
" />
<path d="M124.1072 96.5851
L124.1548 96.6804
" />
<path d="M124.1548 96.6804
L124.1548 96.8232
" />
<path d="M124.1548 96.8232
L124.1072 96.9185
" />
<path d="M124.1072 96.9185
L124.0596 96.9661
" />
<path d="M123.4882 97.4423
L124.1548 97.4423
" />
<path d="M123.5834 97.4423
L123.5358 97.4899
" />
<path d="M123.5358 97.4899
L123.4882 97.5851
" />
<path d="M123.4882 97.5851
L123.4882 97.7280
" />
<path d="M123.4882 97.7280
L123.5358 97.8232
" />
<path d="M123.5358 97.8232
L123.6310 97.8708
" />
<path d="M123.6310 97.8708
L124.1548 97.8708
" />
<path d="M124.1548 98.7756
L123.1548 98.7756
" />
<path d="M124.1072 98.7756
L124.1548 98.6804
" />
<path d="M124.1548 98.6804
L124.1548 98.4899
" />
<path d="M124.1548 98.4899
L124.1072 98.3946
" />
<path d="M124.1072 98.3946
L124.0596 98.3470
" />
<path d="M124.0596 98.3470
L123.9643 98.2994
" />
<path d="M123.9643 98.2994
L123.6786 98.2994
" />
<path d="M123.6786 98.2994
L123.5834 98.3470
" />
<path d="M123.5834 98.3470
L123.5358 98.3946
" />
<path d="M123.5358 98.3946
L123.4882 98.4899
" />
<path d="M123.4882 98.4899
L123.4882 98.6804
" />
<path d="M123.4882 98.6804
L123.5358 98.7756
" />
<path d="M124.1072 99.6804
L124.1548 99.5851
" />
<path d="M124.1548 99.5851
L124.1548 99.3946
" />
<path d="M124.1548 99.3946
L124.1072 99.2994
" />
<path d="M124.1072 99.2994
L124.0596 99.2518
" />
<path d="M124.0596 99.2518
L123.9643 99.2042
" />
<path d="M123.9643 99.2042
L123.6786 99.2042
" />
<path d="M123.6786 99.2042
L123.5834 99.2518
" />
<path d="M123.5834 99.2518
L123.5358 99.2994
" />
<path d="M123.5358 99.2994
L123.4882 99.3946
" />
<path d="M123.4882 99.3946
L123.4882 99.5851
" />
<path d="M123.4882 99.5851
L123.5358 99.6804
" />
<path d="M124.1548 100.5375
L123.6310 100.5375
" />
<path d="M123.6310 100.5375
L123.5358 100.4899
" />
<path d="M123.5358 100.4899
L123.4882 100.3946
" />
<path d="M123.4882 100.3946
L123.4882 100.2042
" />
<path d="M123.4882 100.2042
L123.5358 100.1089
" />
<path d="M124.1072 100.5375
L124.1548 100.4423
" />
<path d="M124.1548 100.4423
L124.1548 100.2042
" />
<path d="M124.1548 100.2042
L124.1072 100.1089
" />
<path d="M124.1072 100.1089
L124.0120 100.0613
" />
<path d="M124.0120 100.0613
L123.9167 100.0613
" />
<path d="M123.9167 100.0613
L123.8215 100.1089
" />
<path d="M123.8215 100.1089
L123.7739 100.2042
" />
<path d="M123.7739 100.2042
L123.7739 100.4423
" />
<path d="M123.7739 100.4423
L123.7262 100.5375
" />
<path d="M124.1548 101.0137
L123.4882 101.0137
" />
<path d="M123.6786 101.0137
L123.5834 101.0613
" />
<path d="M123.5834 101.0613
L123.5358 101.1089
" />
<path d="M123.5358 101.1089
L123.4882 101.2042
" />
<path d="M123.4882 101.2042
L123.4882 101.2994
" />
<path d="M124.1548 102.0613
L123.1548 102.0613
" />
<path d="M124.1072 102.0613
L124.1548 101.9661
" />
<path d="M124.1548 101.9661
L124.1548 101.7756
" />
<path d="M124.1548 101.7756
L124.1072 101.6804
" />
<path d="M124.1072 101.6804
L124.0596 101.6327
" />
<path d="M124.0596 101.6327
L123.9643 101.5851
" />
<path d="M123.9643 101.5851
L123.6786 101.5851
" />
<path d="M123.6786 101.5851
L123.5834 101.6327
" />
<path d="M123.5834 101.6327
L123.5358 101.6804
" />
<path d="M123.5358 101.6804
L123.4882 101.7756
" />
<path d="M123.4882 101.7756
L123.4882 101.9661
" />
<path d="M123.4882 101.9661
L123.5358 102.0613
" />
</g><text x="66.0300" y="20.0000"
transform="scale(-1 1) translate(-132.060000 0)"
textLength="7.2500" font-size="1.3333" lengthAdjust="spacingAndGlyphs"
text-anchor="middle" opacity="0" stroke-opacity="0">JST PH 3</text>
<g class="stroked-text"><desc>JST PH 3</desc>
<path d="M69.0062 18.9548
L69.0062 19.6691
" />
<path d="M69.0062 19.6691
L69.0538 19.8120
" />
<path d="M69.0538 19.8120
L69.1490 19.9072
" />
<path d="M69.1490 19.9072
L69.2919 19.9548
" />
<path d="M69.2919 19.9548
L69.3871 19.9548
" />
<path d="M68.5776 19.9072
L68.4348 19.9548
" />
<path d="M68.4348 19.9548
L68.1967 19.9548
" />
<path d="M68.1967 19.9548
L68.1014 19.9072
" />
<path d="M68.1014 19.9072
L68.0538 19.8596
" />
<path d="M68.0538 19.8596
L68.0062 19.7643
" />
<path d="M68.0062 19.7643
L68.0062 19.6691
" />
<path d="M68.0062 19.6691
L68.0538 19.5739
" />
<path d="M68.0538 19.5739
L68.1014 19.5262
" />
<path d="M68.1014 19.5262
L68.1967 19.4786
" />
<path d="M68.1967 19.4786
L68.3871 19.4310
" />
<path d="M68.3871 19.4310
L68.4824 19.3834
" />
<path d="M68.4824 19.3834
L68.5300 19.3358
" />
<path d="M68.5300 19.3358
L68.5776 19.2405
" />
<path d="M68.5776 19.2405
L68.5776 19.1453
" />
<path d="M68.5776 19.1453
L68.5300 19.0501
" />
<path d="M68.5300 19.0501
L68.4824 19.0024
" />
<path d="M68.4824 19.0024
L68.3871 18.9548
" />
<path d="M68.3871 18.9548
L68.1490 18.9548
" />
<path d="M68.1490 18.9548
L68.0062 19.0024
" />
<path d="M67.7205 18.9548
L67.1490 18.9548
" />
<path d="M67.4348 19.9548
L67.4348 18.9548
" />
<path d="M66.0538 19.9548
L66.0538 18.9548
" />
<path d="M66.0538 18.9548
L65.6729 18.9548
" />
<path d="M65.6729 18.9548
L65.5776 19.0024
" />
<path d="M65.5776 19.0024
L65.5300 19.0501
" />
<path d="M65.5300 19.0501
L65.4824 19.1453
" />
<path d="M65.4824 19.1453
L65.4824 19.2882
" />
<path d="M65.4824 19.2882
L65.5300 19.3834
" />
<path d="M65.5300 19.3834
L65.5776 19.4310
" />
<path d="M65.5776 19.4310
L65.6729 19.4786
" />
<path d="M65.6729 19.4786
L66.0538 19.4786
" />
<path d="M65.0538 19.9548
L65.0538 18.9548
" />
<path d="M65.0538 19.4310
L64.4824 19.4310
" />
<path d="M64.4824 19.9548
L64.4824 18.9548
" />
<path d="M63.3395 18.9548
L62.7205 18.9548
" />
<path d="M62.7205 18.9548
L63.0538 19.3358
" />
<path d="M63.0538 19.3358
L62.9110 19.3358
" />
<path d="M62.9110 19.3358
L62.8157 19.3834
" />
<path d="M62.8157 19.3834
L62.7681 19.4310
" />
<path d="M62.7681 19.4310
L62.7205 19.5262
" />
<path d="M62.7205 19.5262
L62.7205 19.7643
" />
<path d="M62.7205 19.7643
L62.7681 19.8596
" />
<path d="M62.7681 19.8596
L62.8157 19.9072
" />
<path d="M62.8157 19.9072
L62.9110 19.9548
" />
<path d="M62.9110 19.9548
L63.1967 19.9548
" />
<path d="M63.1967 19.9548
L63.2919 19.9072
" />
<path d="M63.2919 19.9072
L63.3395 19.8596
" />
</g><text x="66.0300" y="22.5000"
transform="scale(-1 1) translate(-132.060000 0)"
textLength="2.9167" font-size="1.3333" lengthAdjust="spacingAndGlyphs"
text-anchor="middle" opacity="0" stroke-opacity="0">J26</text>
<g class="stroked-text"><desc>J26</desc>
<path d="M66.8395 21.4548
L66.8395 22.1691
" />
<path d="M66.8395 22.1691
L66.8871 22.3120
" />
<path d="M66.8871 22.3120
L66.9824 22.4072
" />
<path d="M66.9824 22.4072
L67.1252 22.4548
" />
<path d="M67.1252 22.4548
L67.2205 22.4548
" />
<path d="M66.4110 21.5501
L66.3633 21.5024
" />
<path d="M66.3633 21.5024
L66.2681 21.4548
" />
<path d="M66.2681 21.4548
L66.0300 21.4548
" />
<path d="M66.0300 21.4548
L65.9348 21.5024
" />
<path d="M65.9348 21.5024
L65.8871 21.5501
" />
<path d="M65.8871 21.5501
L65.8395 21.6453
" />
<path d="M65.8395 21.6453
L65.8395 21.7405
" />
<path d="M65.8395 21.7405
L65.8871 21.8834
" />
<path d="M65.8871 21.8834
L66.4586 22.4548
" />
<path d="M66.4586 22.4548
L65.8395 22.4548
" />
<path d="M64.9824 21.4548
L65.1729 21.4548
" />
<path d="M65.1729 21.4548
L65.2681 21.5024
" />
<path d="M65.2681 21.5024
L65.3157 21.5501
" />
<path d="M65.3157 21.5501
L65.4110 21.6929
" />
<path d="M65.4110 21.6929
L65.4586 21.8834
" />
<path d="M65.4586 21.8834
L65.4586 22.2643
" />
<path d="M65.4586 22.2643
L65.4110 22.3596
" />
<path d="M65.4110 22.3596
L65.3633 22.4072
" />
<path d="M65.3633 22.4072
L65.2681 22.4548
" />
<path d="M65.2681 22.4548
L65.0776 22.4548
" />
<path d="M65.0776 22.4548
L64.9824 22.4072
" />
<path d="M64.9824 22.4072
L64.9348 22.3596
" />
<path d="M64.9348 22.3596
L64.8871 22.2643
" />
<path d="M64.8871 22.2643
L64.8871 22.0262
" />
<path d="M64.8871 22.0262
L64.9348 21.9310
" />
<path d="M64.9348 21.9310
L64.9824 21.8834
" />
<path d="M64.9824 21.8834
L65.0776 21.8358
" />
<path d="M65.0776 21.8358
L65.2681 21.8358
" />
<path d="M65.2681 21.8358
L65.3633 21.8834
" />
<path d="M65.3633 21.8834
L65.4110 21.9310
" />
<path d="M65.4110 21.9310
L65.4586 22.0262
" />
</g></g>
<g style="fill:none; 
stroke:#000000; stroke-width:0.0212; stroke-opacity:1; 
stroke-linecap:round; stroke-linejoin:round;">
<path d="M70.5500 24.3500
L70.5500 25.6000
" />
<path d="M70.5500 25.6000 A0.0500 0.0500 0.0 0 0 70.6500 25.6000" />
<path d="M70.6500 25.6000
L70.6500 24.3500
" />
<path d="M70.6500 24.3500 A0.0500 0.0500 0.0 0 0 70.5500 24.3500" />
<path d="M70.6000 25.6500
L71.8500 25.6500
" />
<path d="M71.8500 25.6500 A0.0500 0.0500 0.0 0 0 71.8500 25.5500" />
<path d="M71.8500 25.5500
L70.6000 25.5500
" />
<path d="M70.6000 25.5500 A0.0500 0.0500 0.0 0 0 70.6000 25.6500" />
<path d="M70.9600 20.6900
L70.9600 25.1900
" />
<path d="M70.9600 25.1900 A0.0500 0.0500 0.0 0 0 71.0600 25.1900" />
<path d="M71.0600 25.1900
L71.0600 20.6900
" />
<path d="M71.0600 20.6900 A0.0500 0.0500 0.0 0 0 70.9600 20.6900" />
<path d="M71.0100 25.2400
L78.9100 25.2400
" />
<path d="M78.9100 25.2400 A0.0500 0.0500 0.0 0 0 78.9100 25.1400" />
<path d="M78.9100 25.1400
L71.0100 25.1400
" />
<path d="M71.0100 25.1400 A0.0500 0.0500 0.0 0 0 71.0100 25.2400" />
<path d="M78.9100 20.6400
L71.0100 20.6400
" />
<path d="M71.0100 20.6400 A0.0500 0.0500 0.0 0 0 71.0100 20.7400" />
<path d="M71.0100 20.7400
L78.9100 20.7400
" />
<path d="M78.9100 20.7400 A0.0500 0.0500 0.0 0 0 78.9100 20.6400" />
<path d="M78.9600 25.1900
L78.9600 20.6900
" />
<path d="M78.9600 20.6900 A0.0500 0.0500 0.0 0 0 78.8600 20.6900" />
<path d="M78.8600 20.6900
L78.8600 25.1900
" />
<path d="M78.8600 25.1900 A0.0500 0.0500 0.0 0 0 78.9600 25.1900" />
</g>
<g style="fill:none; 
stroke:#000000; stroke-width:0.1000; stroke-opacity:1; 
stroke-linecap:round; stroke-linejoin:round;">
<path d="M116.4400 67.1056
L116.4400 117.9056
" />
<path d="M116.4400 117.9056
L121.5200 117.9056
" />
<path d="M120.5200 67.1056
L116.4400 67.1056
" />
<path d="M121.5200 68.1056
L120.5200 67.1056
" />
<path d="M121.5200 117.9056
L121.5200 68.1056
" />
<path d="M151.1100 118.8806
L151.1100 122.9606
" />
<path d="M151.1100 122.9606
L158.7300 122.9606
" />
<path d="M152.1100 117.8806
L151.1100 118.8806
" />
<path d="M152.7450 73.5756
L152.7450 81.1956
" />
<path d="M152.7450 81.1956
L157.8250 81.1956
" />
<path d="M156.8250 73.5756
L152.7450 73.5756
" />
<path d="M157.8250 74.5756
L156.8250 73.5756
" />
<path d="M157.8250 81.1956
L157.8250 74.5756
" />
<path d="M158.7300 117.8806
L152.1100 117.8806
" />
<path d="M158.7300 122.9606
L158.7300 117.8806
" />
</g>
<g style="fill:none; 
stroke:#000000; stroke-width:0.0212; stroke-opacity:1; 
stroke-linecap:round; stroke-linejoin:round;">
<path d="M61.6200 24.3600
L61.6200 25.6100
" />
<path d="M61.6200 25.6100 A0.0500 0.0500 0.0 0 0 61.7200 25.6100" />
<path d="M61.7200 25.6100
L61.7200 24.3600
" />
<path d="M61.7200 24.3600 A0.0500 0.0500 0.0 0 0 61.6200 24.3600" />
<path d="M61.6700 25.6600
L62.9200 25.6600
" />
<path d="M62.9200 25.6600 A0.0500 0.0500 0.0 0 0 62.9200 25.5600" />
<path d="M62.9200 25.5600
L61.6700 25.5600
" />
<path d="M61.6700 25.5600 A0.0500 0.0500 0.0 0 0 61.6700 25.6600" />
<path d="M62.0300 20.7000
L62.0300 25.2000
" />
<path d="M62.0300 25.2000 A0.0500 0.0500 0.0 0 0 62.1300 25.2000" />
<path d="M62.1300 25.2000
L62.1300 20.7000
" />
<path d="M62.1300 20.7000 A0.0500 0.0500 0.0 0 0 62.0300 20.7000" />
<path d="M62.0800 25.2500
L69.9800 25.2500
" />
<path d="M69.9800 25.2500 A0.0500 0.0500 0.0 0 0 69.9800 25.1500" />
<path d="M69.9800 25.1500
L62.0800 25.1500
" />
<path d="M62.0800 25.1500 A0.0500 0.0500 0.0 0 0 62.0800 25.2500" />
<path d="M69.9800 20.6500
L62.0800 20.6500
" />
<path d="M62.0800 20.6500 A0.0500 0.0500 0.0 0 0 62.0800 20.7500" />
<path d="M62.0800 20.7500
L69.9800 20.7500
" />
<path d="M69.9800 20.7500 A0.0500 0.0500 0.0 0 0 69.9800 20.6500" />
<path d="M70.0300 25.2000
L70.0300 20.7000
" />
<path d="M70.0300 20.7000 A0.0500 0.0500 0.0 0 0 69.9300 20.7000" />
<path d="M69.9300 20.7000
L69.9300 25.2000
" />
<path d="M69.9300 25.2000 A0.0500 0.0500 0.0 0 0 70.0300 25.2000" />
</g>
<g style="fill:#000000; fill-opacity:1.0000; stroke:none;">
<circle cx="168.0000" cy="121.5000" r="1.3500" /> 
</g>
<g style="fill:#000000; fill-opacity:1.0000; stroke:none;">
<circle cx="125.0000" cy="24.5000" r="0.6000" /> 
</g>
<g style="fill:#000000; fill-opacity:1.0000; stroke:none;">
<circle cx="120.0000" cy="29.5000" r="0.6000" /> 
</g>
<g style="fill:#000000; fill-opacity:1.0000; stroke:none;">
<circle cx="115.0000" cy="24.5000" r="0.6000" /> 
</g>
<g style="fill:none; 
stroke:#000000; stroke-width:0.4500; stroke-opacity:1; 
stroke-linecap:round; stroke-linejoin:round;">
<path d="M125.0000 29.9750
L125.0000 29.0250
" />
<path d="M122.5000 29.9750
L122.5000 29.0250
" />
<path d="M120.4750 24.5000
L119.5250 24.5000
" />
<path d="M115.0000 29.0250
L115.0000 29.9750
" />
<path d="M117.5000 29.0250
L117.5000 29.9750
" />
</g>
<g style="fill:#000000; fill-opacity:1.0000; stroke:none;">
<circle cx="28.0500" cy="50.0000" r="0.7000" /> 
</g>
<g style="fill:#000000; fill-opacity:1.0000; stroke:none;">
<circle cx="28.0500" cy="33.7700" r="0.7000" /> 
</g>
<g style="fill:#000000; fill-opacity:1.0000; stroke:none;">
<circle cx="21.7000" cy="50.0000" r="0.7000" /> 
</g>
<g style="fill:#000000; fill-opacity:1.0000; stroke:none;">
<circle cx="21.7000" cy="33.7700" r="0.7000" /> 
</g>
<g style="fill:#000000; fill-opacity:1.0000; stroke:none;">
<circle cx="34.4000" cy="50.0000" r="0.7000" /> 
</g>
<g style="fill:#000000; fill-opacity:1.0000; stroke:none;">
<circle cx="34.4000" cy="33.7700" r="0.7000" /> 
</g>
<g style="fill:#000000; fill-opacity:1.0000; stroke:none;">
<circle cx="28.0500" cy="111.2000" r="0.7000" /> 
</g>
<g style="fill:#000000; fill-opacity:1.0000; stroke:none;">
<circle cx="28.0500" cy="94.9700" r="0.7000" /> 
</g>
<g style="fill:#000000; fill-opacity:1.0000; stroke:none;">
<circle cx="21.7000" cy="111.2000" r="0.7000" /> 
</g>
<g style="fill:#000000; fill-opacity:1.0000; stroke:none;">
<circle cx="21.7000" cy="94.9700" r="0.7000" /> 
</g>
<g style="fill:#000000; fill-opacity:1.0000; stroke:none;">
<circle cx="34.4000" cy="111.2000" r="0.7000" /> 
</g>
<g style="fill:#000000; fill-opacity:1.0000; stroke:none;">
<circle cx="34.4000" cy="94.9700" r="0.7000" /> 
</g>
<g style="fill:none; 
stroke:#000000; stroke-width:0.8000; stroke-opacity:1; 
stroke-linecap:round; stroke-linejoin:round;">
<path d="M177.8372 30.3886
L175.2372 30.3886
" />
<path d="M177.6372 24.5886
L175.4372 24.5886
" />
<path d="M171.7372 26.2886
L171.7372 28.4886
" />
</g>
<g style="fill:#000000; fill-opacity:1.0000; stroke:none;">
<circle cx="175.6372" cy="28.1986" r="0.6500" /> 
</g>
<g style="fill:#000000; fill-opacity:1.0000; stroke:none;">
<circle cx="175.6372" cy="23.1986" r="0.6500" /> 
</g>
<g style="fill:#000000; fill-opacity:1.0000; stroke:none;">
<circle cx="28.0500" cy="91.0000" r="0.7000" /> 
</g>
<g style="fill:#000000; fill-opacity:1.0000; stroke:none;">
<circle cx="28.0500" cy="74.7700" r="0.7000" /> 
</g>
<g style="fill:#000000; fill-opacity:1.0000; stroke:none;">
<circle cx="21.7000" cy="91.0000" r="0.7000" /> 
</g>
<g style="fill:#000000; fill-opacity:1.0000; stroke:none;">
<circle cx="21.7000" cy="74.7700" r="0.7000" /> 
</g>
<g style="fill:#000000; fill-opacity:1.0000; stroke:none;">
<circle cx="34.4000" cy="91.0000" r="0.7000" /> 
</g>
<g style="fill:#000000; fill-opacity:1.0000; stroke:none;">
<circle cx="34.4000" cy="74.7700" r="0.7000" /> 
</g>
<g style="fill:#000000; fill-opacity:1.0000; stroke:none;">
<circle cx="181.9500" cy="94.9950" r="0.7000" /> 
</g>
<g style="fill:#000000; fill-opacity:1.0000; stroke:none;">
<circle cx="181.9500" cy="111.2250" r="0.7000" /> 
</g>
<g style="fill:#000000; fill-opacity:1.0000; stroke:none;">
<circle cx="188.3000" cy="94.9950" r="0.7000" /> 
</g>
<g style="fill:#000000; fill-opacity:1.0000; stroke:none;">
<circle cx="188.3000" cy="111.2250" r="0.7000" /> 
</g>
<g style="fill:#000000; fill-opacity:1.0000; stroke:none;">
<circle cx="175.6000" cy="94.9950" r="0.7000" /> 
</g>
<g style="fill:#000000; fill-opacity:1.0000; stroke:none;">
<circle cx="175.6000" cy="111.2250" r="0.7000" /> 
</g>
<g style="fill:#000000; fill-opacity:1.0000; stroke:none;">
<circle cx="129.3150" cy="44.4500" r="0.5000" /> 
</g>
<g style="fill:#000000; fill-opacity:1.0000; stroke:none;">
<circle cx="131.8550" cy="44.4500" r="0.5000" /> 
</g>
<g style="fill:#000000; fill-opacity:1.0000; stroke:none;">
<circle cx="134.3950" cy="44.4500" r="0.5000" /> 
</g>
<g style="fill:#000000; fill-opacity:1.0000; stroke:none;">
<circle cx="118.9800" cy="121.5200" r="1.3500" /> 
</g>
<g style="fill:#000000; fill-opacity:1.0000; stroke:none;">
<circle cx="80.1000" cy="21.0750" r="0.2500" /> 
</g>
<g style="fill:#000000; fill-opacity:1.0000; stroke:none;">
<circle cx="80.1000" cy="22.0750" r="0.2500" /> 
</g>
<g style="fill:#000000; fill-opacity:1.0000; stroke:none;">
<circle cx="80.1000" cy="23.0750" r="0.2500" /> 
</g>
<g style="fill:#000000; fill-opacity:1.0000; stroke:none;">
<circle cx="80.1000" cy="24.0750" r="0.2500" /> 
</g>
<g style="fill:#000000; fill-opacity:1.0000; stroke:none;">
<circle cx="80.1000" cy="25.0750" r="0.2500" /> 
</g>
<g style="fill:#000000; fill-opacity:1.0000; stroke:none;">
<circle cx="80.1000" cy="26.0750" r="0.2500" /> 
</g>
<g style="fill:#000000; fill-opacity:1.0000; stroke:none;">
<circle cx="80.1000" cy="30.0750" r="0.2500" /> 
</g>
<g style="fill:#000000; fill-opacity:1.0000; stroke:none;">
<circle cx="80.1000" cy="31.0750" r="0.2500" /> 
</g>
<g style="fill:#000000; fill-opacity:1.0000; stroke:none;">
<circle cx="80.1000" cy="32.0750" r="0.2500" /> 
</g>
<g style="fill:#000000; fill-opacity:1.0000; stroke:none;">
<circle cx="80.1000" cy="33.0750" r="0.2500" /> 
</g>
<g style="fill:#000000; fill-opacity:1.0000; stroke:none;">
<circle cx="80.1000" cy="34.0750" r="0.2500" /> 
</g>
<g style="fill:#000000; fill-opacity:1.0000; stroke:none;">
<circle cx="80.1000" cy="35.0750" r="0.2500" /> 
</g>
<g style="fill:#000000; fill-opacity:1.0000; stroke:none;">
<circle cx="80.1000" cy="36.0750" r="0.2500" /> 
</g>
<g style="fill:#000000; fill-opacity:1.0000; stroke:none;">
<circle cx="81.1000" cy="36.0750" r="0.2500" /> 
</g>
<g style="fill:#000000; fill-opacity:1.0000; stroke:none;">
<circle cx="82.1000" cy="36.0750" r="0.2500" /> 
</g>
<g style="fill:#000000; fill-opacity:1.0000; stroke:none;">
<circle cx="83.1000" cy="36.0750" r="0.2500" /> 
</g>
<g style="fill:#000000; fill-opacity:1.0000; stroke:none;">
<circle cx="84.1000" cy="36.0750" r="0.2500" /> 
</g>
<g style="fill:#000000; fill-opacity:1.0000; stroke:none;">
<circle cx="85.1000" cy="36.0750" r="0.2500" /> 
</g>
<g style="fill:#000000; fill-opacity:1.0000; stroke:none;">
<circle cx="86.1000" cy="36.0750" r="0.2500" /> 
</g>
<g style="fill:#000000; fill-opacity:1.0000; stroke:none;">
<circle cx="87.1000" cy="36.0750" r="0.2500" /> 
</g>
<g style="fill:#000000; fill-opacity:1.0000; stroke:none;">
<circle cx="88.1000" cy="36.0750" r="0.2500" /> 
</g>
<g style="fill:#000000; fill-opacity:1.0000; stroke:none;">
<circle cx="89.1000" cy="36.0750" r="0.2500" /> 
</g>
<g style="fill:#000000; fill-opacity:1.0000; stroke:none;">
<circle cx="90.1000" cy="36.0750" r="0.2500" /> 
</g>
<g style="fill:#000000; fill-opacity:1.0000; stroke:none;">
<circle cx="91.1000" cy="36.0750" r="0.2500" /> 
</g>
<g style="fill:#000000; fill-opacity:1.0000; stroke:none;">
<circle cx="92.1000" cy="36.0750" r="0.2500" /> 
</g>
<g style="fill:#000000; fill-opacity:1.0000; stroke:none;">
<circle cx="93.1000" cy="36.0750" r="0.2500" /> 
</g>
<g style="fill:#000000; fill-opacity:1.0000; stroke:none;">
<circle cx="94.1000" cy="36.0750" r="0.2500" /> 
</g>
<g style="fill:#000000; fill-opacity:1.0000; stroke:none;">
<circle cx="95.1000" cy="36.0750" r="0.2500" /> 
</g>
<g style="fill:#000000; fill-opacity:1.0000; stroke:none;">
<circle cx="96.1000" cy="36.0750" r="0.2500" /> 
</g>
<g style="fill:#000000; fill-opacity:1.0000; stroke:none;">
<circle cx="97.1000" cy="36.0750" r="0.2500" /> 
</g>
<g style="fill:#000000; fill-opacity:1.0000; stroke:none;">
<circle cx="98.1000" cy="36.0750" r="0.2500" /> 
</g>
<g style="fill:#000000; fill-opacity:1.0000; stroke:none;">
<circle cx="99.1000" cy="36.0750" r="0.2500" /> 
</g>
<g style="fill:#000000; fill-opacity:1.0000; stroke:none;">
<circle cx="100.1000" cy="36.0750" r="0.2500" /> 
</g>
<g style="fill:#000000; fill-opacity:1.0000; stroke:none;">
<circle cx="101.1000" cy="36.0750" r="0.2500" /> 
</g>
<g style="fill:#000000; fill-opacity:1.0000; stroke:none;">
<circle cx="102.1000" cy="36.0750" r="0.2500" /> 
</g>
<g style="fill:#000000; fill-opacity:1.0000; stroke:none;">
<circle cx="103.1000" cy="36.0750" r="0.2500" /> 
</g>
<g style="fill:#000000; fill-opacity:1.0000; stroke:none;">
<circle cx="104.1000" cy="36.0750" r="0.2500" /> 
</g>
<g style="fill:#000000; fill-opacity:1.0000; stroke:none;">
<circle cx="105.1000" cy="36.0750" r="0.2500" /> 
</g>
<g style="fill:#000000; fill-opacity:1.0000; stroke:none;">
<circle cx="106.1000" cy="36.0750" r="0.2500" /> 
</g>
<g style="fill:#000000; fill-opacity:1.0000; stroke:none;">
<circle cx="107.1000" cy="36.0750" r="0.2500" /> 
</g>
<g style="fill:#000000; fill-opacity:1.0000; stroke:none;">
<circle cx="108.1000" cy="36.0750" r="0.2500" /> 
</g>
<g style="fill:#000000; fill-opacity:1.0000; stroke:none;">
<circle cx="109.1000" cy="36.0750" r="0.2500" /> 
</g>
<g style="fill:#000000; fill-opacity:1.0000; stroke:none;">
<circle cx="110.1000" cy="36.0750" r="0.2500" /> 
</g>
<g style="fill:#000000; fill-opacity:1.0000; stroke:none;">
<circle cx="111.1000" cy="36.0750" r="0.2500" /> 
</g>
<g style="fill:#000000; fill-opacity:1.0000; stroke:none;">
<circle cx="112.1000" cy="36.0750" r="0.2500" /> 
</g>
<g style="fill:#000000; fill-opacity:1.0000; stroke:none;">
<circle cx="113.1000" cy="36.0750" r="0.2500" /> 
</g>
<g style="fill:#000000; fill-opacity:1.0000; stroke:none;">
<circle cx="114.1000" cy="36.0750" r="0.2500" /> 
</g>
<g style="fill:#000000; fill-opacity:1.0000; stroke:none;">
<circle cx="115.1000" cy="36.0750" r="0.2500" /> 
</g>
<g style="fill:#000000; fill-opacity:1.0000; stroke:none;">
<circle cx="116.1000" cy="36.0750" r="0.2500" /> 
</g>
<g style="fill:#000000; fill-opacity:1.0000; stroke:none;">
<circle cx="117.1000" cy="36.0750" r="0.2500" /> 
</g>
<g style="fill:#000000; fill-opacity:1.0000; stroke:none;">
<circle cx="118.1000" cy="36.0750" r="0.2500" /> 
</g>
<g style="fill:#000000; fill-opacity:1.0000; stroke:none;">
<circle cx="119.1000" cy="36.0750" r="0.2500" /> 
</g>
<g style="fill:#000000; fill-opacity:1.0000; stroke:none;">
<circle cx="120.1000" cy="36.0750" r="0.2500" /> 
</g>
<g style="fill:#000000; fill-opacity:1.0000; stroke:none;">
<circle cx="121.1000" cy="36.0750" r="0.2500" /> 
</g>
<g style="fill:#000000; fill-opacity:1.0000; stroke:none;">
<circle cx="122.1000" cy="36.0750" r="0.2500" /> 
</g>
<g style="fill:#000000; fill-opacity:1.0000; stroke:none;">
<circle cx="123.1000" cy="36.0750" r="0.2500" /> 
</g>
<g style="fill:#000000; fill-opacity:1.0000; stroke:none;">
<circle cx="124.1000" cy="36.0750" r="0.2500" /> 
</g>
<g style="fill:#000000; fill-opacity:1.0000; stroke:none;">
<circle cx="125.1000" cy="36.0750" r="0.2500" /> 
</g>
<g style="fill:#000000; fill-opacity:1.0000; stroke:none;">
<circle cx="126.1000" cy="36.0750" r="0.2500" /> 
</g>
<g style="fill:#000000; fill-opacity:1.0000; stroke:none;">
<circle cx="127.1000" cy="36.0750" r="0.2500" /> 
</g>
<g style="fill:#000000; fill-opacity:1.0000; stroke:none;">
<circle cx="128.1000" cy="36.0750" r="0.2500" /> 
</g>
<g style="fill:#000000; fill-opacity:1.0000; stroke:none;">
<circle cx="129.1000" cy="36.0750" r="0.2500" /> 
</g>
<g style="fill:#000000; fill-opacity:1.0000; stroke:none;">
<circle cx="130.1000" cy="21.0750" r="0.2500" /> 
</g>
<g style="fill:#000000; fill-opacity:1.0000; stroke:none;">
<circle cx="130.1000" cy="22.0750" r="0.2500" /> 
</g>
<g style="fill:#000000; fill-opacity:1.0000; stroke:none;">
<circle cx="130.1000" cy="23.0750" r="0.2500" /> 
</g>
<g style="fill:#000000; fill-opacity:1.0000; stroke:none;">
<circle cx="130.1000" cy="24.0750" r="0.2500" /> 
</g>
<g style="fill:#000000; fill-opacity:1.0000; stroke:none;">
<circle cx="130.1000" cy="25.0750" r="0.2500" /> 
</g>
<g style="fill:#000000; fill-opacity:1.0000; stroke:none;">
<circle cx="130.1000" cy="26.0750" r="0.2500" /> 
</g>
<g style="fill:#000000; fill-opacity:1.0000; stroke:none;">
<circle cx="130.1000" cy="27.0750" r="0.2500" /> 
</g>
<g style="fill:#000000; fill-opacity:1.0000; stroke:none;">
<circle cx="130.1000" cy="28.0750" r="0.2500" /> 
</g>
<g style="fill:#000000; fill-opacity:1.0000; stroke:none;">
<circle cx="130.1000" cy="29.0750" r="0.2500" /> 
</g>
<g style="fill:#000000; fill-opacity:1.0000; stroke:none;">
<circle cx="130.1000" cy="30.0750" r="0.2500" /> 
</g>
<g style="fill:#000000; fill-opacity:1.0000; stroke:none;">
<circle cx="130.1000" cy="31.0750" r="0.2500" /> 
</g>
<g style="fill:#000000; fill-opacity:1.0000; stroke:none;">
<circle cx="130.1000" cy="32.0750" r="0.2500" /> 
</g>
<g style="fill:#000000; fill-opacity:1.0000; stroke:none;">
<circle cx="130.1000" cy="33.0750" r="0.2500" /> 
</g>
<g style="fill:#000000; fill-opacity:1.0000; stroke:none;">
<circle cx="130.1000" cy="34.0750" r="0.2500" /> 
</g>
<g style="fill:#000000; fill-opacity:1.0000; stroke:none;">
<circle cx="130.1000" cy="35.0750" r="0.2500" /> 
</g>
<g style="fill:#000000; fill-opacity:1.0000; stroke:none;">
<circle cx="130.1000" cy="36.0750" r="0.2500" /> 
</g>
<g style="fill:#000000; fill-opacity:1.0000; stroke:none;">
<circle cx="25.0000" cy="23.0000" r="1.3500" /> 
</g>
<g style="fill:#000000; fill-opacity:1.0000; stroke:none;">
<circle cx="181.9650" cy="33.8000" r="0.7000" /> 
</g>
<g style="fill:#000000; fill-opacity:1.0000; stroke:none;">
<circle cx="181.9650" cy="50.0300" r="0.7000" /> 
</g>
<g style="fill:#000000; fill-opacity:1.0000; stroke:none;">
<circle cx="188.3150" cy="33.8000" r="0.7000" /> 
</g>
<g style="fill:#000000; fill-opacity:1.0000; stroke:none;">
<circle cx="188.3150" cy="50.0300" r="0.7000" /> 
</g>
<g style="fill:#000000; fill-opacity:1.0000; stroke:none;">
<circle cx="175.6150" cy="33.8000" r="0.7000" /> 
</g>
<g style="fill:#000000; fill-opacity:1.0000; stroke:none;">
<circle cx="175.6150" cy="50.0300" r="0.7000" /> 
</g>
<g style="fill:#000000; fill-opacity:1.0000; stroke:none;">
<circle cx="168.0000" cy="63.5000" r="1.3500" /> 
</g>
<g style="fill:#000000; fill-opacity:1.0000; stroke:none;">
<circle cx="112.5000" cy="32.0000" r="0.6604" /> 
</g>
<g style="fill:#000000; fill-opacity:1.0000; stroke:none;">
<circle cx="120.0000" cy="32.0000" r="0.6604" /> 
</g>
<g style="fill:#000000; fill-opacity:1.0000; stroke:none;">
<circle cx="127.5000" cy="32.0000" r="0.6604" /> 
</g>
<g style="fill:#000000; fill-opacity:1.0000; stroke:none;">
<circle cx="115.0000" cy="34.5000" r="0.6604" /> 
</g>
<g style="fill:#000000; fill-opacity:1.0000; stroke:none;">
<circle cx="125.0000" cy="34.5000" r="0.6604" /> 
</g>
<g style="fill:#000000; fill-opacity:1.0000; stroke:none;">
<circle cx="122.5000" cy="22.0000" r="0.6604" /> 
</g>
<g style="fill:#000000; fill-opacity:1.0000; stroke:none;">
<circle cx="125.0000" cy="22.0000" r="0.6604" /> 
</g>
<g style="fill:#000000; fill-opacity:1.0000; stroke:none;">
<circle cx="115.0000" cy="22.0000" r="0.6604" /> 
</g>
<g style="fill:#000000; fill-opacity:1.0000; stroke:none;">
<circle cx="117.5000" cy="22.0000" r="0.6604" /> 
</g>
<g style="fill:#000000; fill-opacity:1.0000; stroke:none;">
<circle cx="119.0000" cy="63.5000" r="1.3500" /> 
</g>
<g style="fill:#000000; fill-opacity:1.0000; stroke:none;">
<circle cx="60.2500" cy="31.5000" r="0.5000" /> 
</g>
<g style="fill:#000000; fill-opacity:1.0000; stroke:none;">
<circle cx="60.2500" cy="36.5000" r="0.5000" /> 
</g>
<g style="fill:#000000; fill-opacity:1.0000; stroke:none;">
<circle cx="60.2500" cy="34.0000" r="0.5000" /> 
</g>
<g style="fill:#000000; fill-opacity:1.0000; stroke:none;">
<circle cx="67.7500" cy="28.4000" r="1.3000" /> 
</g>
<g style="fill:#000000; fill-opacity:1.0000; stroke:none;">
<circle cx="67.7500" cy="39.6000" r="1.3000" /> 
</g>
<g style="fill:#000000; fill-opacity:1.0000; stroke:none;">
<circle cx="74.7500" cy="36.5000" r="0.5000" /> 
</g>
<g style="fill:#000000; fill-opacity:1.0000; stroke:none;">
<circle cx="74.7500" cy="31.5000" r="0.5000" /> 
</g>
<g style="fill:#000000; fill-opacity:1.0000; stroke:none;">
<circle cx="161.4700" cy="41.7500" r="0.1500" /> 
</g>
<g style="fill:#000000; fill-opacity:1.0000; stroke:none;">
<circle cx="160.1700" cy="41.7500" r="0.1500" /> 
</g>
<g style="fill:#000000; fill-opacity:1.0000; stroke:none;">
<circle cx="158.8700" cy="41.7500" r="0.1500" /> 
</g>
<g style="fill:#000000; fill-opacity:1.0000; stroke:none;">
<circle cx="157.5700" cy="41.7500" r="0.1500" /> 
</g>
<g style="fill:#000000; fill-opacity:1.0000; stroke:none;">
<circle cx="161.4700" cy="43.0500" r="0.1500" /> 
</g>
<g style="fill:#000000; fill-opacity:1.0000; stroke:none;">
<circle cx="160.1700" cy="43.0500" r="0.1500" /> 
</g>
<g style="fill:#000000; fill-opacity:1.0000; stroke:none;">
<circle cx="158.8700" cy="43.0500" r="0.1500" /> 
</g>
<g style="fill:#000000; fill-opacity:1.0000; stroke:none;">
<circle cx="157.5700" cy="43.0500" r="0.1500" /> 
</g>
<g style="fill:#000000; fill-opacity:1.0000; stroke:none;">
<circle cx="168.0000" cy="128.0000" r="1.3500" /> 
</g>
<g style="fill:#000000; fill-opacity:1.0000; stroke:none;">
<circle cx="107.2250" cy="81.3000" r="0.5000" /> 
</g>
<g style="fill:#000000; fill-opacity:1.0000; stroke:none;">
<circle cx="104.6850" cy="81.3000" r="0.5000" /> 
</g>
<g style="fill:#000000; fill-opacity:1.0000; stroke:none;">
<circle cx="102.1450" cy="81.3000" r="0.5000" /> 
</g>
<g style="fill:#000000; fill-opacity:1.0000; stroke:none;">
<circle cx="181.9500" cy="74.7800" r="0.7000" /> 
</g>
<g style="fill:#000000; fill-opacity:1.0000; stroke:none;">
<circle cx="181.9500" cy="91.0100" r="0.7000" /> 
</g>
<g style="fill:#000000; fill-opacity:1.0000; stroke:none;">
<circle cx="188.3000" cy="74.7800" r="0.7000" /> 
</g>
<g style="fill:#000000; fill-opacity:1.0000; stroke:none;">
<circle cx="188.3000" cy="91.0100" r="0.7000" /> 
</g>
<g style="fill:#000000; fill-opacity:1.0000; stroke:none;">
<circle cx="175.6000" cy="74.7800" r="0.7000" /> 
</g>
<g style="fill:#000000; fill-opacity:1.0000; stroke:none;">
<circle cx="175.6000" cy="91.0100" r="0.7000" /> 
</g>
<g style="fill:none; 
stroke:#000000; stroke-width:0.7000; stroke-opacity:1; 
stroke-linecap:round; stroke-linejoin:round;">
<path d="M19.3050 53.7450
L19.8050 53.7450
" />
</g>
<g style="fill:none; 
stroke:#000000; stroke-width:0.6500; stroke-opacity:1; 
stroke-linecap:round; stroke-linejoin:round;">
<path d="M22.3550 54.0550
L22.7550 54.0550
" />
<path d="M22.3550 58.8950
L22.7550 58.8950
" />
</g>
<g style="fill:none; 
stroke:#000000; stroke-width:0.7000; stroke-opacity:1; 
stroke-linecap:round; stroke-linejoin:round;">
<path d="M19.3050 59.2050
L19.8050 59.2050
" />
</g>
<g style="fill:#000000; fill-opacity:1.0000; stroke:none;">
<circle cx="106.1250" cy="46.8750" r="0.1750" /> 
</g>
<g style="fill:#000000; fill-opacity:1.0000; stroke:none;">
<circle cx="107.4000" cy="46.8750" r="0.1750" /> 
</g>
<g style="fill:#000000; fill-opacity:1.0000; stroke:none;">
<circle cx="108.6750" cy="46.8750" r="0.1750" /> 
</g>
<g style="fill:#000000; fill-opacity:1.0000; stroke:none;">
<circle cx="106.1250" cy="45.6000" r="0.1750" /> 
</g>
<g style="fill:#000000; fill-opacity:1.0000; stroke:none;">
<circle cx="107.4000" cy="45.6000" r="0.1750" /> 
</g>
<g style="fill:#000000; fill-opacity:1.0000; stroke:none;">
<circle cx="108.6750" cy="45.6000" r="0.1750" /> 
</g>
<g style="fill:#000000; fill-opacity:1.0000; stroke:none;">
<circle cx="106.1250" cy="44.3250" r="0.1750" /> 
</g>
<g style="fill:#000000; fill-opacity:1.0000; stroke:none;">
<circle cx="107.4000" cy="44.3250" r="0.1750" /> 
</g>
<g style="fill:#000000; fill-opacity:1.0000; stroke:none;">
<circle cx="108.6750" cy="44.3250" r="0.1750" /> 
</g>
<g style="fill:#000000; fill-opacity:1.0000; stroke:none;">
<circle cx="53.0800" cy="31.7500" r="0.4750" /> 
</g>
<g style="fill:#000000; fill-opacity:1.0000; stroke:none;">
<circle cx="50.5800" cy="31.7500" r="0.4750" /> 
</g>
<g style="fill:#000000; fill-opacity:1.0000; stroke:none;">
<circle cx="48.5800" cy="31.7500" r="0.4750" /> 
</g>
<g style="fill:#000000; fill-opacity:1.0000; stroke:none;">
<circle cx="46.0800" cy="31.7500" r="0.4750" /> 
</g>
<g style="fill:#000000; fill-opacity:1.0000; stroke:none;">
<circle cx="56.1500" cy="29.0400" r="1.1500" /> 
</g>
<g style="fill:#000000; fill-opacity:1.0000; stroke:none;">
<circle cx="43.0100" cy="29.0400" r="1.1500" /> 
</g>
<g style="fill:#000000; fill-opacity:1.0000; stroke:none;">
<circle cx="89.0000" cy="111.5000" r="1.3500" /> 
</g>
<g style="fill:#000000; fill-opacity:1.0000; stroke:none;">
<circle cx="89.0000" cy="63.5000" r="1.3500" /> 
</g>
<g style="fill:#000000; fill-opacity:1.0000; stroke:none;">
<circle cx="56.0000" cy="111.5000" r="1.3500" /> 
</g>
<g style="fill:#000000; fill-opacity:1.0000; stroke:none;">
<circle cx="56.0000" cy="63.5000" r="1.3500" /> 
</g>
<g style="fill:#000000; fill-opacity:1.0000; stroke:none;">
<circle cx="42.0000" cy="128.0000" r="1.3500" /> 
</g>
<g style="fill:#000000; fill-opacity:1.0000; stroke:none;">
<circle cx="185.0056" cy="22.9944" r="1.3500" /> 
</g>
<g style="fill:#000000; fill-opacity:1.0000; stroke:none;">
<circle cx="135.2500" cy="31.5000" r="0.5000" /> 
</g>
<g style="fill:#000000; fill-opacity:1.0000; stroke:none;">
<circle cx="135.2500" cy="36.5000" r="0.5000" /> 
</g>
<g style="fill:#000000; fill-opacity:1.0000; stroke:none;">
<circle cx="135.2500" cy="34.0000" r="0.5000" /> 
</g>
<g style="fill:#000000; fill-opacity:1.0000; stroke:none;">
<circle cx="142.7500" cy="28.4000" r="1.3000" /> 
</g>
<g style="fill:#000000; fill-opacity:1.0000; stroke:none;">
<circle cx="142.7500" cy="39.6000" r="1.3000" /> 
</g>
<g style="fill:#000000; fill-opacity:1.0000; stroke:none;">
<circle cx="149.7500" cy="36.5000" r="0.5000" /> 
</g>
<g style="fill:#000000; fill-opacity:1.0000; stroke:none;">
<circle cx="149.7500" cy="31.5000" r="0.5000" /> 
</g>
<g style="fill:#000000; fill-opacity:1.0000; stroke:none;">
<circle cx="105.0000" cy="98.0000" r="1.3500" /> 
</g>
<g style="fill:#000000; fill-opacity:1.0000; stroke:none;">
<circle cx="82.5000" cy="32.0000" r="0.6604" /> 
</g>
<g style="fill:#000000; fill-opacity:1.0000; stroke:none;">
<circle cx="90.0000" cy="32.0000" r="0.6604" /> 
</g>
<g style="fill:#000000; fill-opacity:1.0000; stroke:none;">
<circle cx="97.5000" cy="32.0000" r="0.6604" /> 
</g>
<g style="fill:#000000; fill-opacity:1.0000; stroke:none;">
<circle cx="85.0000" cy="34.5000" r="0.6604" /> 
</g>
<g style="fill:#000000; fill-opacity:1.0000; stroke:none;">
<circle cx="95.0000" cy="34.5000" r="0.6604" /> 
</g>
<g style="fill:#000000; fill-opacity:1.0000; stroke:none;">
<circle cx="92.5000" cy="22.0000" r="0.6604" /> 
</g>
<g style="fill:#000000; fill-opacity:1.0000; stroke:none;">
<circle cx="95.0000" cy="22.0000" r="0.6604" /> 
</g>
<g style="fill:#000000; fill-opacity:1.0000; stroke:none;">
<circle cx="85.0000" cy="22.0000" r="0.6604" /> 
</g>
<g style="fill:#000000; fill-opacity:1.0000; stroke:none;">
<circle cx="87.5000" cy="22.0000" r="0.6604" /> 
</g>
<g style="fill:#000000; fill-opacity:1.0000; stroke:none;">
<circle cx="94.9945" cy="24.5000" r="0.6000" /> 
</g>
<g style="fill:#000000; fill-opacity:1.0000; stroke:none;">
<circle cx="89.9945" cy="29.5000" r="0.6000" /> 
</g>
<g style="fill:#000000; fill-opacity:1.0000; stroke:none;">
<circle cx="84.9945" cy="24.5000" r="0.6000" /> 
</g>
<g style="fill:none; 
stroke:#000000; stroke-width:0.4500; stroke-opacity:1; 
stroke-linecap:round; stroke-linejoin:round;">
<path d="M94.9945 29.9750
L94.9945 29.0250
" />
<path d="M92.4945 29.9750
L92.4945 29.0250
" />
<path d="M90.4695 24.5000
L89.5195 24.5000
" />
<path d="M84.9945 29.0250
L84.9945 29.9750
" />
<path d="M87.4945 29.0250
L87.4945 29.9750
" />
</g>
<g style="fill:#000000; fill-opacity:1.0000; stroke:none;">
<circle cx="30.0000" cy="119.0000" r="1.8500" /> 
</g>
<g style="fill:#000000; fill-opacity:1.0000; stroke:none;">
<circle cx="105.0000" cy="67.0000" r="1.8500" /> 
</g>
<g style="fill:#000000; fill-opacity:1.0000; stroke:none;">
<circle cx="30.0000" cy="67.0000" r="1.8500" /> 
</g>
<g style="fill:#000000; fill-opacity:1.0000; stroke:none;">
<circle cx="180.0000" cy="67.0000" r="1.8500" /> 
</g>
<g style="fill:#000000; fill-opacity:1.0000; stroke:none;">
<circle cx="105.0000" cy="119.0000" r="1.8500" /> 
</g>
<g style="fill:#000000; fill-opacity:1.0000; stroke:none;">
<circle cx="72.9600" cy="23.4900" r="0.3750" /> 
</g>
<g style="fill:#000000; fill-opacity:1.0000; stroke:none;">
<circle cx="74.9600" cy="23.4900" r="0.3750" /> 
</g>
<g style="fill:#000000; fill-opacity:1.0000; stroke:none;">
<circle cx="76.9600" cy="23.4900" r="0.3750" /> 
</g>
<g style="fill:#000000; fill-opacity:1.0000; stroke:none;">
<circle cx="180.0000" cy="119.0000" r="1.8500" /> 
</g>
<g style="fill:#000000; fill-opacity:1.0000; stroke:none;">
<circle cx="120.2500" cy="68.3756" r="0.5000" /> 
</g>
<g style="fill:#000000; fill-opacity:1.0000; stroke:none;">
<circle cx="117.7100" cy="68.3756" r="0.5000" /> 
</g>
<g style="fill:#000000; fill-opacity:1.0000; stroke:none;">
<circle cx="120.2500" cy="70.9156" r="0.5000" /> 
</g>
<g style="fill:#000000; fill-opacity:1.0000; stroke:none;">
<circle cx="117.7100" cy="70.9156" r="0.5000" /> 
</g>
<g style="fill:#000000; fill-opacity:1.0000; stroke:none;">
<circle cx="120.2500" cy="73.4556" r="0.5000" /> 
</g>
<g style="fill:#000000; fill-opacity:1.0000; stroke:none;">
<circle cx="117.7100" cy="73.4556" r="0.5000" /> 
</g>
<g style="fill:#000000; fill-opacity:1.0000; stroke:none;">
<circle cx="120.2500" cy="75.9956" r="0.5000" /> 
</g>
<g style="fill:#000000; fill-opacity:1.0000; stroke:none;">
<circle cx="117.7100" cy="75.9956" r="0.5000" /> 
</g>
<g style="fill:#000000; fill-opacity:1.0000; stroke:none;">
<circle cx="120.2500" cy="78.5356" r="0.5000" /> 
</g>
<g style="fill:#000000; fill-opacity:1.0000; stroke:none;">
<circle cx="117.7100" cy="78.5356" r="0.5000" /> 
</g>
<g style="fill:#000000; fill-opacity:1.0000; stroke:none;">
<circle cx="120.2500" cy="81.0756" r="0.5000" /> 
</g>
<g style="fill:#000000; fill-opacity:1.0000; stroke:none;">
<circle cx="117.7100" cy="81.0756" r="0.5000" /> 
</g>
<g style="fill:#000000; fill-opacity:1.0000; stroke:none;">
<circle cx="120.2500" cy="83.6156" r="0.5000" /> 
</g>
<g style="fill:#000000; fill-opacity:1.0000; stroke:none;">
<circle cx="117.7100" cy="83.6156" r="0.5000" /> 
</g>
<g style="fill:#000000; fill-opacity:1.0000; stroke:none;">
<circle cx="120.2500" cy="86.1556" r="0.5000" /> 
</g>
<g style="fill:#000000; fill-opacity:1.0000; stroke:none;">
<circle cx="117.7100" cy="86.1556" r="0.5000" /> 
</g>
<g style="fill:#000000; fill-opacity:1.0000; stroke:none;">
<circle cx="120.2500" cy="88.6956" r="0.5000" /> 
</g>
<g style="fill:#000000; fill-opacity:1.0000; stroke:none;">
<circle cx="117.7100" cy="88.6956" r="0.5000" /> 
</g>
<g style="fill:#000000; fill-opacity:1.0000; stroke:none;">
<circle cx="120.2500" cy="91.2356" r="0.5000" /> 
</g>
<g style="fill:#000000; fill-opacity:1.0000; stroke:none;">
<circle cx="117.7100" cy="91.2356" r="0.5000" /> 
</g>
<g style="fill:#000000; fill-opacity:1.0000; stroke:none;">
<circle cx="120.2500" cy="93.7756" r="0.5000" /> 
</g>
<g style="fill:#000000; fill-opacity:1.0000; stroke:none;">
<circle cx="117.7100" cy="93.7756" r="0.5000" /> 
</g>
<g style="fill:#000000; fill-opacity:1.0000; stroke:none;">
<circle cx="120.2500" cy="96.3156" r="0.5000" /> 
</g>
<g style="fill:#000000; fill-opacity:1.0000; stroke:none;">
<circle cx="117.7100" cy="96.3156" r="0.5000" /> 
</g>
<g style="fill:#000000; fill-opacity:1.0000; stroke:none;">
<circle cx="120.2500" cy="98.8556" r="0.5000" /> 
</g>
<g style="fill:#000000; fill-opacity:1.0000; stroke:none;">
<circle cx="117.7100" cy="98.8556" r="0.5000" /> 
</g>
<g style="fill:#000000; fill-opacity:1.0000; stroke:none;">
<circle cx="120.2500" cy="101.3956" r="0.5000" /> 
</g>
<g style="fill:#000000; fill-opacity:1.0000; stroke:none;">
<circle cx="117.7100" cy="101.3956" r="0.5000" /> 
</g>
<g style="fill:#000000; fill-opacity:1.0000; stroke:none;">
<circle cx="120.2500" cy="103.9356" r="0.5000" /> 
</g>
<g style="fill:#000000; fill-opacity:1.0000; stroke:none;">
<circle cx="117.7100" cy="103.9356" r="0.5000" /> 
</g>
<g style="fill:#000000; fill-opacity:1.0000; stroke:none;">
<circle cx="120.2500" cy="106.4756" r="0.5000" /> 
</g>
<g style="fill:#000000; fill-opacity:1.0000; stroke:none;">
<circle cx="117.7100" cy="106.4756" r="0.5000" /> 
</g>
<g style="fill:#000000; fill-opacity:1.0000; stroke:none;">
<circle cx="120.2500" cy="109.0156" r="0.5000" /> 
</g>
<g style="fill:#000000; fill-opacity:1.0000; stroke:none;">
<circle cx="117.7100" cy="109.0156" r="0.5000" /> 
</g>
<g style="fill:#000000; fill-opacity:1.0000; stroke:none;">
<circle cx="120.2500" cy="111.5556" r="0.5000" /> 
</g>
<g style="fill:#000000; fill-opacity:1.0000; stroke:none;">
<circle cx="117.7100" cy="111.5556" r="0.5000" /> 
</g>
<g style="fill:#000000; fill-opacity:1.0000; stroke:none;">
<circle cx="120.2500" cy="114.0956" r="0.5000" /> 
</g>
<g style="fill:#000000; fill-opacity:1.0000; stroke:none;">
<circle cx="117.7100" cy="114.0956" r="0.5000" /> 
</g>
<g style="fill:#000000; fill-opacity:1.0000; stroke:none;">
<circle cx="120.2500" cy="116.6356" r="0.5000" /> 
</g>
<g style="fill:#000000; fill-opacity:1.0000; stroke:none;">
<circle cx="117.7100" cy="116.6356" r="0.5000" /> 
</g>
<g style="fill:#000000; fill-opacity:1.0000; stroke:none;">
<circle cx="156.5550" cy="74.8456" r="0.5000" /> 
</g>
<g style="fill:#000000; fill-opacity:1.0000; stroke:none;">
<circle cx="154.0150" cy="74.8456" r="0.5000" /> 
</g>
<g style="fill:#000000; fill-opacity:1.0000; stroke:none;">
<circle cx="156.5550" cy="77.3856" r="0.5000" /> 
</g>
<g style="fill:#000000; fill-opacity:1.0000; stroke:none;">
<circle cx="154.0150" cy="77.3856" r="0.5000" /> 
</g>
<g style="fill:#000000; fill-opacity:1.0000; stroke:none;">
<circle cx="156.5550" cy="79.9256" r="0.5000" /> 
</g>
<g style="fill:#000000; fill-opacity:1.0000; stroke:none;">
<circle cx="154.0150" cy="79.9256" r="0.5000" /> 
</g>
<g style="fill:#000000; fill-opacity:1.0000; stroke:none;">
<circle cx="152.3800" cy="119.1506" r="0.5000" /> 
</g>
<g style="fill:#000000; fill-opacity:1.0000; stroke:none;">
<circle cx="152.3800" cy="121.6906" r="0.5000" /> 
</g>
<g style="fill:#000000; fill-opacity:1.0000; stroke:none;">
<circle cx="154.9200" cy="119.1506" r="0.5000" /> 
</g>
<g style="fill:#000000; fill-opacity:1.0000; stroke:none;">
<circle cx="154.9200" cy="121.6906" r="0.5000" /> 
</g>
<g style="fill:#000000; fill-opacity:1.0000; stroke:none;">
<circle cx="157.4600" cy="119.1506" r="0.5000" /> 
</g>
<g style="fill:#000000; fill-opacity:1.0000; stroke:none;">
<circle cx="157.4600" cy="121.6906" r="0.5000" /> 
</g>
<g style="fill:#000000; fill-opacity:1.0000; stroke:none;">
<circle cx="64.0300" cy="23.5000" r="0.3750" /> 
</g>
<g style="fill:#000000; fill-opacity:1.0000; stroke:none;">
<circle cx="66.0300" cy="23.5000" r="0.3750" /> 
</g>
<g style="fill:#000000; fill-opacity:1.0000; stroke:none;">
<circle cx="68.0300" cy="23.5000" r="0.3750" /> 
</g> 
</svg>
