<?xml version="1.0" standalone="no"?>
 <!DOCTYPE svg PUBLIC "-//W3C//DTD SVG 1.1//EN" 
 "http://www.w3.org/Graphics/SVG/1.1/DTD/svg11.dtd"> 
<svg
  xmlns:svg="http://www.w3.org/2000/svg"
  xmlns="http://www.w3.org/2000/svg"
  xmlns:xlink="http://www.w3.org/1999/xlink"
  xmlns:inkscape="http://www.inkscape.org/namespaces/inkscape"
  version="1.1"
  width="297.0022mm" height="210.0072mm" viewBox="0.0000 0.0000 297.0022 210.0072">
<title>SVG Image created as pedalboard-hw-F_Courtyard.svg date 2026-04-22T21:58:28 </title>
  <desc>Image generated by PCBNEW </desc>
<g style="fill:#000000; fill-opacity:1.0000;stroke:#000000; stroke-opacity:1.0000;
stroke-linecap:round; stroke-linejoin:round;"
 transform="translate(0 0) scale(1 1)">
</g>
<g style="fill:none; 
stroke:#000000; stroke-width:0.0500; stroke-opacity:1; 
stroke-linecap:round; stroke-linejoin:round;">
<path d="M163.2600 55.3600
L163.2600 58.3600
" />
<path d="M163.2600 55.3600
L166.2600 55.3600
" />
<path d="M166.2600 58.3600
L163.2600 58.3600
" />
<path d="M166.2600 58.3600
L166.2600 55.3600
" />
<path style="fill:none; 
stroke:#000000; stroke-width:0.0500; stroke-opacity:1; 
stroke-linecap:round; stroke-linejoin:round;fill:none"
d="M 148.1700,44.3000
151.5300,44.3000
151.5300,46.2000
148.1700,46.2000
Z" /> 
<path style="fill:none; 
stroke:#000000; stroke-width:0.0500; stroke-opacity:1; 
stroke-linecap:round; stroke-linejoin:round;fill:none"
d="M 110.2100,53.8600
113.5700,53.8600
113.5700,55.7600
110.2100,55.7600
Z" /> 
<path style="fill:none; 
stroke:#000000; stroke-width:0.0500; stroke-opacity:1; 
stroke-linecap:round; stroke-linejoin:round;fill:none"
d="M 114.0500,43.2900
117.4500,43.2900
117.4500,45.2500
114.0500,45.2500
Z" /> 
<path style="fill:none; 
stroke:#000000; stroke-width:0.0500; stroke-opacity:1; 
stroke-linecap:round; stroke-linejoin:round;fill:none"
d="M 46.0300,41.2600
47.9900,41.2600
47.9900,44.6600
46.0300,44.6600
Z" /> 
<circle cx="168.0000" cy="121.5000" r="2.6000" /> 
<circle cx="20.0000" cy="28.0000" r="1.7500" /> 
<path style="fill:none; 
stroke:#000000; stroke-width:0.0500; stroke-opacity:1; 
stroke-linecap:round; stroke-linejoin:round;fill:none"
d="M 97.7200,43.5100
101.0800,43.5100
101.0800,45.4100
97.7200,45.4100
Z" /> 
<path d="M113.7500 19.7500
L113.7500 20.0000
" />
<path d="M113.7500 20.0000
L113.7500 32.4500
" />
<path d="M113.7500 32.4500
L126.2500 32.4500
" />
<path d="M116.7500 17.9500
L116.7500 19.7500
" />
<path d="M116.7500 19.7500
L113.7500 19.7500
" />
<path d="M123.2500 17.9500
L116.7500 17.9500
" />
<path d="M123.2500 19.7500
L123.2500 17.9500
" />
<path d="M126.2500 19.7500
L123.2500 19.7500
" />
<path d="M126.2500 32.4500
L126.2500 19.7500
" />
<path style="fill:none; 
stroke:#000000; stroke-width:0.0500; stroke-opacity:1; 
stroke-linecap:round; stroke-linejoin:round;fill:none"
d="M 98.4600,38.1500
100.4200,38.1500
100.4200,41.5500
98.4600,41.5500
Z" /> 
<path style="fill:none; 
stroke:#000000; stroke-width:0.0500; stroke-opacity:1; 
stroke-linecap:round; stroke-linejoin:round;fill:none"
d="M 46.0300,46.0400
47.9900,46.0400
47.9900,49.4400
46.0300,49.4400
Z" /> 
<path style="fill:none; 
stroke:#000000; stroke-width:0.0500; stroke-opacity:1; 
stroke-linecap:round; stroke-linejoin:round;fill:none"
d="M 154.8600,45.4600
156.8200,45.4600
156.8200,48.8600
154.8600,48.8600
Z" /> 
<circle cx="190.0056" cy="27.9944" r="1.7500" /> 
<path d="M151.7200 31.4300
L151.7200 34.4300
" />
<path d="M151.7200 31.4300
L154.7200 31.4300
" />
<path d="M154.7200 34.4300
L151.7200 34.4300
" />
<path d="M154.7200 34.4300
L154.7200 31.4300
" />
<path style="fill:none; 
stroke:#000000; stroke-width:0.0500; stroke-opacity:1; 
stroke-linecap:round; stroke-linejoin:round;fill:none"
d="M 93.2575,54.9000
96.6175,54.9000
96.6175,56.8000
93.2575,56.8000
Z" /> 
<path d="M14.2000 31.7700
L14.2000 52.0000
" />
<path d="M14.2000 52.0000
L41.7300 52.0000
" />
<path d="M41.7300 31.7700
L14.2000 31.7700
" />
<path d="M41.7300 31.7700
L41.7300 52.0000
" />
<path d="M14.2000 92.9700
L14.2000 113.2000
" />
<path d="M14.2000 113.2000
L41.7300 113.2000
" />
<path d="M41.7300 92.9700
L14.2000 92.9700
" />
<path d="M41.7300 92.9700
L41.7300 113.2000
" />
<path style="fill:none; 
stroke:#000000; stroke-width:0.0500; stroke-opacity:1; 
stroke-linecap:round; stroke-linejoin:round;fill:none"
d="M 155.6700,51.5200
157.6300,51.5200
157.6300,54.9200
155.6700,54.9200
Z" /> 
<path d="M170.3372 24.8886
L171.5372 24.8886
" />
<path d="M170.3372 29.8886
L170.3372 24.8886
" />
<path d="M170.3372 29.8886
L171.5372 29.8886
" />
<path d="M171.5372 16.2886
L171.5372 24.8886
" />
<path d="M171.5372 29.8886
L171.5372 31.7886
" />
<path d="M171.5372 31.7886
L181.5372 31.7886
" />
<path d="M181.5372 16.2886
L171.5372 16.2886
" />
<path d="M181.5372 31.7886
L181.5372 16.2886
" />
<path d="M118.4900 50.4500
L118.4900 57.6500
" />
<path d="M118.4900 57.6500
L127.2900 57.6500
" />
<path d="M127.2900 50.4500
L118.4900 50.4500
" />
<path d="M127.2900 57.6500
L127.2900 50.4500
" />
<path style="fill:none; 
stroke:#000000; stroke-width:0.0500; stroke-opacity:1; 
stroke-linecap:round; stroke-linejoin:round;fill:none"
d="M 138.0876,45.1866
141.4476,45.1866
141.4476,47.0866
138.0876,47.0866
Z" /> 
<path style="fill:none; 
stroke:#000000; stroke-width:0.0500; stroke-opacity:1; 
stroke-linecap:round; stroke-linejoin:round;fill:none"
d="M 169.9272,20.1986
180.7372,20.1986
180.7372,31.1986
169.9272,31.1986
Z" /> 
<path style="fill:none; 
stroke:#000000; stroke-width:0.0500; stroke-opacity:1; 
stroke-linecap:round; stroke-linejoin:round;fill:none"
d="M 120.1100,48.4400
123.5100,48.4400
123.5100,50.4000
120.1100,50.4000
Z" /> 
<path style="fill:none; 
stroke:#000000; stroke-width:0.0500; stroke-opacity:1; 
stroke-linecap:round; stroke-linejoin:round;fill:none"
d="M 49.0000,38.5600
50.9600,38.5600
50.9600,41.9600
49.0000,41.9600
Z" /> 
<path style="fill:none; 
stroke:#000000; stroke-width:0.0500; stroke-opacity:1; 
stroke-linecap:round; stroke-linejoin:round;fill:none"
d="M 32.0050,26.6424
40.8250,26.6424
40.8250,31.4424
32.0050,31.4424
Z" /> 
<path d="M122.3600 42.4600
L122.3600 47.2600
" />
<path d="M122.3600 47.2600
L125.6600 47.2600
" />
<path d="M125.6600 42.4600
L122.3600 42.4600
" />
<path d="M125.6600 47.2600
L125.6600 42.4600
" />
<path style="fill:none; 
stroke:#000000; stroke-width:0.0500; stroke-opacity:1; 
stroke-linecap:round; stroke-linejoin:round;fill:none"
d="M 97.7200,45.4100
101.0800,45.4100
101.0800,47.3100
97.7200,47.3100
Z" /> 
<path style="fill:none; 
stroke:#000000; stroke-width:0.0500; stroke-opacity:1; 
stroke-linecap:round; stroke-linejoin:round;fill:none"
d="M 56.5400,43.0100
59.9400,43.0100
59.9400,44.9700
56.5400,44.9700
Z" /> 
<path style="fill:none; 
stroke:#000000; stroke-width:0.0500; stroke-opacity:1; 
stroke-linecap:round; stroke-linejoin:round;fill:none"
d="M 93.1875,52.8700
96.5875,52.8700
96.5875,54.8300
93.1875,54.8300
Z" /> 
<path style="fill:none; 
stroke:#000000; stroke-width:0.0500; stroke-opacity:1; 
stroke-linecap:round; stroke-linejoin:round;fill:none"
d="M 72.0410,46.4378
73.9410,46.4378
73.9410,49.7978
72.0410,49.7978
Z" /> 
<path d="M47.9000 101.4000
L47.9000 103.9000
" />
<path d="M47.9000 101.4000
L51.2000 101.4000
" />
<path d="M51.2000 103.9000
L47.9000 103.9000
" />
<path d="M51.2000 103.9000
L51.2000 101.4000
" />
<path style="fill:none; 
stroke:#000000; stroke-width:0.0500; stroke-opacity:1; 
stroke-linecap:round; stroke-linejoin:round;fill:none"
d="M 40.5446,23.2276
42.5046,23.2276
42.5046,26.6276
40.5446,26.6276
Z" /> 
<path style="fill:none; 
stroke:#000000; stroke-width:0.0500; stroke-opacity:1; 
stroke-linecap:round; stroke-linejoin:round;fill:none"
d="M 64.9400,45.0200
69.1400,45.0200
69.1400,51.2200
64.9400,51.2200
Z" /> 
<path style="fill:none; 
stroke:#000000; stroke-width:0.0500; stroke-opacity:1; 
stroke-linecap:round; stroke-linejoin:round;fill:none"
d="M 150.3690,55.0142
159.1890,55.0142
159.1890,59.8142
150.3690,59.8142
Z" /> 
<path style="fill:none; 
stroke:#000000; stroke-width:0.0500; stroke-opacity:1; 
stroke-linecap:round; stroke-linejoin:round;fill:none"
d="M 93.2575,50.9000
96.6175,50.9000
96.6175,52.8000
93.2575,52.8000
Z" /> 
<path d="M14.2000 72.7700
L14.2000 93.0000
" />
<path d="M14.2000 93.0000
L41.7300 93.0000
" />
<path d="M41.7300 72.7700
L14.2000 72.7700
" />
<path d="M41.7300 72.7700
L41.7300 93.0000
" />
<path d="M168.2700 113.2250
L168.2700 92.9950
" />
<path d="M168.2700 113.2250
L195.8000 113.2250
" />
<path d="M195.8000 92.9950
L168.2700 92.9950
" />
<path d="M195.8000 113.2250
L195.8000 92.9950
" />
<path style="fill:none; 
stroke:#000000; stroke-width:0.0500; stroke-opacity:1; 
stroke-linecap:round; stroke-linejoin:round;fill:none"
d="M 127.5450,42.6800
136.1650,42.6800
136.1650,46.2200
127.5450,46.2200
Z" /> 
<path style="fill:none; 
stroke:#000000; stroke-width:0.0500; stroke-opacity:1; 
stroke-linecap:round; stroke-linejoin:round;fill:none"
d="M 49.4300,50.9844
51.3300,50.9844
51.3300,54.3444
49.4300,54.3444
Z" /> 
<path style="fill:none; 
stroke:#000000; stroke-width:0.0500; stroke-opacity:1; 
stroke-linecap:round; stroke-linejoin:round;fill:none"
d="M 157.9400,46.1300
161.3400,46.1300
161.3400,48.0900
157.9400,48.0900
Z" /> 
<path style="fill:none; 
stroke:#000000; stroke-width:0.0500; stroke-opacity:1; 
stroke-linecap:round; stroke-linejoin:round;fill:none"
d="M 51.3300,50.9944
53.2300,50.9944
53.2300,54.3544
51.3300,54.3544
Z" /> 
<circle cx="118.9800" cy="121.5200" r="2.6000" /> 
<path style="fill:none; 
stroke:#000000; stroke-width:0.0500; stroke-opacity:1; 
stroke-linecap:round; stroke-linejoin:round;fill:none"
d="M 154.8800,42.0900
156.7800,42.0900
156.7800,45.4500
154.8800,45.4500
Z" /> 
<path style="fill:none; 
stroke:#000000; stroke-width:0.0500; stroke-opacity:1; 
stroke-linecap:round; stroke-linejoin:round;fill:none"
d="M 115.0200,56.7300
118.3800,56.7300
118.3800,58.6300
115.0200,58.6300
Z" /> 
<path d="M97.0000 60.7500
L97.0000 73.2500
" />
<path d="M97.0000 73.2500
L113.0000 73.2500
" />
<path d="M113.0000 60.7500
L97.0000 60.7500
" />
<path d="M113.0000 73.2500
L113.0000 60.7500
" />
<circle cx="190.0056" cy="122.9944" r="1.7500" /> 
<path style="fill:none; 
stroke:#000000; stroke-width:0.0500; stroke-opacity:1; 
stroke-linecap:round; stroke-linejoin:round;fill:none"
d="M 153.4400,27.9700
155.4000,27.9700
155.4000,31.3700
153.4400,31.3700
Z" /> 
<path style="fill:none; 
stroke:#000000; stroke-width:0.0500; stroke-opacity:1; 
stroke-linecap:round; stroke-linejoin:round;fill:none"
d="M 168.1500,52.0300
170.1100,52.0300
170.1100,55.4300
168.1500,55.4300
Z" /> 
<path style="fill:none; 
stroke:#000000; stroke-width:0.0500; stroke-opacity:1; 
stroke-linecap:round; stroke-linejoin:round;fill:none"
d="M 136.1700,42.1100
138.0700,42.1100
138.0700,45.4700
136.1700,45.4700
Z" /> 
<path d="M89.8600 51.2500
L89.8600 56.0500
" />
<path d="M89.8600 56.0500
L93.1600 56.0500
" />
<path d="M93.1600 51.2500
L89.8600 51.2500
" />
<path d="M93.1600 56.0500
L93.1600 51.2500
" />
<path style="fill:none; 
stroke:#000000; stroke-width:0.0500; stroke-opacity:1; 
stroke-linecap:round; stroke-linejoin:round;fill:none"
d="M 162.2600,42.4500
164.1600,42.4500
164.1600,45.8100
162.2600,45.8100
Z" /> 
<path d="M145.5500 125.8500
L145.5500 128.3500
" />
<path d="M145.5500 125.8500
L148.8500 125.8500
" />
<path d="M148.8500 128.3500
L145.5500 128.3500
" />
<path d="M148.8500 128.3500
L148.8500 125.8500
" />
<circle cx="25.0000" cy="23.0000" r="2.6000" /> 
<path style="fill:none; 
stroke:#000000; stroke-width:0.0500; stroke-opacity:1; 
stroke-linecap:round; stroke-linejoin:round;fill:none"
d="M 159.6400,51.5200
161.6000,51.5200
161.6000,54.9200
159.6400,54.9200
Z" /> 
<path d="M168.2850 52.0300
L168.2850 31.8000
" />
<path d="M168.2850 52.0300
L195.8150 52.0300
" />
<path d="M195.8150 31.8000
L168.2850 31.8000
" />
<path d="M195.8150 52.0300
L195.8150 31.8000
" />
<path style="fill:none; 
stroke:#000000; stroke-width:0.0500; stroke-opacity:1; 
stroke-linecap:round; stroke-linejoin:round;fill:none"
d="M 47.5300,50.9844
49.4300,50.9844
49.4300,54.3444
47.5300,54.3444
Z" /> 
<path style="fill:none; 
stroke:#000000; stroke-width:0.0500; stroke-opacity:1; 
stroke-linecap:round; stroke-linejoin:round;fill:none"
d="M 162.2300,39.0200
164.1900,39.0200
164.1900,42.4200
162.2300,42.4200
Z" /> 
<path d="M145.8500 121.7500
L145.8500 124.2500
" />
<path d="M145.8500 121.7500
L149.1500 121.7500
" />
<path d="M149.1500 124.2500
L145.8500 124.2500
" />
<path d="M149.1500 124.2500
L149.1500 121.7500
" />
<path style="fill:none; 
stroke:#000000; stroke-width:0.0500; stroke-opacity:1; 
stroke-linecap:round; stroke-linejoin:round;fill:none"
d="M 44.5582,58.4520
46.4582,58.4520
46.4582,61.8120
44.5582,61.8120
Z" /> 
<circle cx="168.0000" cy="63.5000" r="2.6000" /> 
<circle cx="119.0000" cy="63.5000" r="2.6000" /> 
<path style="fill:none; 
stroke:#000000; stroke-width:0.0500; stroke-opacity:1; 
stroke-linecap:round; stroke-linejoin:round;fill:none"
d="M 154.8600,38.6700
156.8200,38.6700
156.8200,42.0700
154.8600,42.0700
Z" /> 
<path d="M58.7500 26.3000
L58.7500 41.7000
" />
<path d="M58.7500 26.3000
L76.2500 26.3000
" />
<path d="M76.2500 41.7000
L58.7500 41.7000
" />
<path d="M76.2500 41.7000
L76.2500 26.3000
" />
<path style="fill:none; 
stroke:#000000; stroke-width:0.0500; stroke-opacity:1; 
stroke-linecap:round; stroke-linejoin:round;fill:none"
d="M 156.1000,34.7100
159.5000,34.7100
159.5000,36.6700
156.1000,36.6700
Z" /> 
<path d="M156.8200 38.7000
L156.8200 46.1000
" />
<path d="M156.8200 46.1000
L162.2200 46.1000
" />
<path d="M162.2200 38.7000
L156.8200 38.7000
" />
<path d="M162.2200 46.1000
L162.2200 38.7000
" />
<path style="fill:none; 
stroke:#000000; stroke-width:0.0500; stroke-opacity:1; 
stroke-linecap:round; stroke-linejoin:round;fill:none"
d="M 93.2112,48.9158
96.6112,48.9158
96.6112,50.8758
93.2112,50.8758
Z" /> 
<path style="fill:none; 
stroke:#000000; stroke-width:0.0500; stroke-opacity:1; 
stroke-linecap:round; stroke-linejoin:round;fill:none"
d="M 38.5846,23.2276
40.5446,23.2276
40.5446,26.6276
38.5846,26.6276
Z" /> 
<path style="fill:none; 
stroke:#000000; stroke-width:0.0500; stroke-opacity:1; 
stroke-linecap:round; stroke-linejoin:round;fill:none"
d="M 41.1866,58.2676
44.5466,58.2676
44.5466,60.1676
41.1866,60.1676
Z" /> 
<path style="fill:none; 
stroke:#000000; stroke-width:0.0500; stroke-opacity:1; 
stroke-linecap:round; stroke-linejoin:round;fill:none"
d="M 80.5966,39.3164
82.4966,39.3164
82.4966,42.6764
80.5966,42.6764
Z" /> 
<path style="fill:none; 
stroke:#000000; stroke-width:0.0500; stroke-opacity:1; 
stroke-linecap:round; stroke-linejoin:round;fill:none"
d="M 102.3700,51.0000
104.3300,51.0000
104.3300,54.4000
102.3700,54.4000
Z" /> 
<path d="M71.3926 50.8270
L71.5926 50.8270
" />
<path d="M71.3926 52.9270
L71.3926 50.8270
" />
<path d="M71.5926 49.8270
L74.5926 49.8270
" />
<path d="M71.5926 50.8270
L71.5926 49.8270
" />
<path d="M71.5926 52.9270
L71.3926 52.9270
" />
<path d="M71.5926 53.9270
L71.5926 52.9270
" />
<path d="M74.5926 49.8270
L74.5926 50.8270
" />
<path d="M74.5926 50.8270
L74.7926 50.8270
" />
<path d="M74.5926 52.9270
L74.5926 53.9270
" />
<path d="M74.5926 53.9270
L71.5926 53.9270
" />
<path d="M74.7926 50.8270
L74.7926 52.9270
" />
<path d="M74.7926 52.9270
L74.5926 52.9270
" />
<circle cx="168.0000" cy="128.0000" r="2.6000" /> 
<path style="fill:none; 
stroke:#000000; stroke-width:0.0500; stroke-opacity:1; 
stroke-linecap:round; stroke-linejoin:round;fill:none"
d="M 59.0200,47.0300
62.3800,47.0300
62.3800,48.9300
59.0200,48.9300
Z" /> 
<path style="fill:none; 
stroke:#000000; stroke-width:0.0500; stroke-opacity:1; 
stroke-linecap:round; stroke-linejoin:round;fill:none"
d="M 26.0500,58.6700
29.4500,58.6700
29.4500,60.6300
26.0500,60.6300
Z" /> 
<path style="fill:none; 
stroke:#000000; stroke-width:0.0500; stroke-opacity:1; 
stroke-linecap:round; stroke-linejoin:round;fill:none"
d="M 157.0600,24.3600
162.6600,24.3600
162.6600,31.9600
157.0600,31.9600
Z" /> 
<path style="fill:none; 
stroke:#000000; stroke-width:0.0500; stroke-opacity:1; 
stroke-linecap:round; stroke-linejoin:round;fill:none"
d="M 115.0200,50.4377
118.3800,50.4377
118.3800,52.3377
115.0200,52.3377
Z" /> 
<path style="fill:none; 
stroke:#000000; stroke-width:0.0500; stroke-opacity:1; 
stroke-linecap:round; stroke-linejoin:round;fill:none"
d="M 56.7200,31.0500
58.6800,31.0500
58.6800,34.4500
56.7200,34.4500
Z" /> 
<path style="fill:none; 
stroke:#000000; stroke-width:0.0500; stroke-opacity:1; 
stroke-linecap:round; stroke-linejoin:round;fill:none"
d="M 76.8200,30.5000
78.7800,30.5000
78.7800,33.9000
76.8200,33.9000
Z" /> 
<path style="fill:none; 
stroke:#000000; stroke-width:0.0500; stroke-opacity:1; 
stroke-linecap:round; stroke-linejoin:round;fill:none"
d="M 159.5300,32.7500
162.9300,32.7500
162.9300,34.7100
159.5300,34.7100
Z" /> 
<path style="fill:none; 
stroke:#000000; stroke-width:0.0500; stroke-opacity:1; 
stroke-linecap:round; stroke-linejoin:round;fill:none"
d="M 100.3750,79.5300
108.9950,79.5300
108.9950,83.0700
100.3750,83.0700
Z" /> 
<path style="fill:none; 
stroke:#000000; stroke-width:0.0500; stroke-opacity:1; 
stroke-linecap:round; stroke-linejoin:round;fill:none"
d="M 163.1300,29.7500
166.5300,29.7500
166.5300,31.7100
163.1300,31.7100
Z" /> 
<path d="M168.2700 93.0100
L168.2700 72.7800
" />
<path d="M168.2700 93.0100
L195.8000 93.0100
" />
<path d="M195.8000 72.7800
L168.2700 72.7800
" />
<path d="M195.8000 93.0100
L195.8000 72.7800
" />
<path style="fill:none; 
stroke:#000000; stroke-width:0.0500; stroke-opacity:1; 
stroke-linecap:round; stroke-linejoin:round;fill:none"
d="M 163.1900,22.3300
165.1500,22.3300
165.1500,25.7300
163.1900,25.7300
Z" /> 
<path d="M17.0900 60.6400
L17.0900 52.3700
" />
<path d="M17.0900 60.6400
L23.5500 60.6400
" />
<path d="M23.5500 52.3700
L17.0900 52.3700
" />
<path d="M23.5500 52.3700
L23.5500 60.6400
" />
<path style="fill:none; 
stroke:#000000; stroke-width:0.0500; stroke-opacity:1; 
stroke-linecap:round; stroke-linejoin:round;fill:none"
d="M 157.6500,51.5300
159.6100,51.5300
159.6100,54.9300
157.6500,54.9300
Z" /> 
<path style="fill:none; 
stroke:#000000; stroke-width:0.0500; stroke-opacity:1; 
stroke-linecap:round; stroke-linejoin:round;fill:none"
d="M 53.3700,34.5500
55.3300,34.5500
55.3300,37.9500
53.3700,37.9500
Z" /> 
<path d="M167.6500 116.6500
L167.6500 113.3500
" />
<path d="M167.6500 116.6500
L170.1500 116.6500
" />
<path d="M170.1500 113.3500
L167.6500 113.3500
" />
<path d="M170.1500 113.3500
L170.1500 116.6500
" />
<path d="M22.0000 60.7500
L22.0000 73.2500
" />
<path d="M22.0000 73.2500
L38.0000 73.2500
" />
<path d="M38.0000 60.7500
L22.0000 60.7500
" />
<path d="M38.0000 73.2500
L38.0000 60.7500
" />
<path d="M48.5900 43.5800
L48.9400 43.5800
" />
<path d="M48.5900 48.3400
L48.5900 43.5800
" />
<path d="M48.9400 42.7100
L49.8100 42.7100
" />
<path d="M48.9400 43.5800
L48.9400 42.7100
" />
<path d="M48.9400 48.3400
L48.5900 48.3400
" />
<path d="M48.9400 49.2100
L48.9400 48.3400
" />
<path d="M49.8100 42.3600
L54.5700 42.3600
" />
<path d="M49.8100 42.7100
L49.8100 42.3600
" />
<path d="M49.8100 49.2100
L48.9400 49.2100
" />
<path d="M49.8100 49.5600
L49.8100 49.2100
" />
<path d="M54.5700 42.3600
L54.5700 42.7100
" />
<path d="M54.5700 42.7100
L55.4400 42.7100
" />
<path d="M54.5700 49.2100
L54.5700 49.5600
" />
<path d="M54.5700 49.5600
L49.8100 49.5600
" />
<path d="M55.4400 42.7100
L55.4400 43.5800
" />
<path d="M55.4400 43.5800
L55.7900 43.5800
" />
<path d="M55.4400 48.3400
L55.4400 49.2100
" />
<path d="M55.4400 49.2100
L54.5700 49.2100
" />
<path d="M55.7900 43.5800
L55.7900 48.3400
" />
<path d="M55.7900 48.3400
L55.4400 48.3400
" />
<path d="M84.8116 37.1014
L84.8116 41.4414
" />
<path d="M84.8116 41.4414
L96.1116 41.4414
" />
<path d="M96.1116 37.1014
L84.8116 37.1014
" />
<path d="M96.1116 41.4414
L96.1116 37.1014
" />
<path d="M52.9900 55.7100
L54.3700 55.7100
" />
<path d="M52.9900 58.5100
L52.9900 55.7100
" />
<path d="M54.3700 55.3600
L57.8700 55.3600
" />
<path d="M54.3700 55.7100
L54.3700 55.3600
" />
<path d="M54.3700 58.5100
L52.9900 58.5100
" />
<path d="M54.3700 58.8600
L54.3700 58.5100
" />
<path d="M57.8700 55.3600
L57.8700 55.7100
" />
<path d="M57.8700 55.7100
L59.2500 55.7100
" />
<path d="M57.8700 58.5100
L57.8700 58.8600
" />
<path d="M57.8700 58.8600
L54.3700 58.8600
" />
<path d="M59.2500 55.7100
L59.2500 58.5100
" />
<path d="M59.2500 58.5100
L57.8700 58.5100
" />
<path style="fill:none; 
stroke:#000000; stroke-width:0.0500; stroke-opacity:1; 
stroke-linecap:round; stroke-linejoin:round;fill:none"
d="M 91.5290,41.4414
94.8890,41.4414
94.8890,43.3414
91.5290,43.3414
Z" /> 
<path style="fill:none; 
stroke:#000000; stroke-width:0.0500; stroke-opacity:1; 
stroke-linecap:round; stroke-linejoin:round;fill:none"
d="M 108.0900,76.0225
109.9900,76.0225
109.9900,79.3825
108.0900,79.3825
Z" /> 
<path d="M95.5500 77.1500
L95.5500 73.8500
" />
<path d="M95.5500 77.1500
L98.0500 77.1500
" />
<path d="M98.0500 73.8500
L95.5500 73.8500
" />
<path d="M98.0500 73.8500
L98.0500 77.1500
" />
<path d="M93.0500 77.1500
L93.0500 73.8500
" />
<path d="M93.0500 77.1500
L95.5500 77.1500
" />
<path d="M95.5500 73.8500
L93.0500 73.8500
" />
<path d="M95.5500 73.8500
L95.5500 77.1500
" />
<path style="fill:none; 
stroke:#000000; stroke-width:0.0500; stroke-opacity:1; 
stroke-linecap:round; stroke-linejoin:round;fill:none"
d="M 60.0200,42.9400
61.9200,42.9400
61.9200,46.3000
60.0200,46.3000
Z" /> 
<path d="M103.2800 41.4800
L103.2800 49.7200
" />
<path d="M103.2800 49.7200
L111.5200 49.7200
" />
<path d="M111.5200 41.4800
L103.2800 41.4800
" />
<path d="M111.5200 49.7200
L111.5200 41.4800
" />
<path style="fill:none; 
stroke:#000000; stroke-width:0.0500; stroke-opacity:1; 
stroke-linecap:round; stroke-linejoin:round;fill:none"
d="M 49.8200,59.3200
53.2200,59.3200
53.2200,61.2800
49.8200,61.2800
Z" /> 
<path style="fill:none; 
stroke:#000000; stroke-width:0.0500; stroke-opacity:1; 
stroke-linecap:round; stroke-linejoin:round;fill:none"
d="M 104.1400,76.0725
106.0400,76.0725
106.0400,79.4325
104.1400,79.4325
Z" /> 
<path style="fill:none; 
stroke:#000000; stroke-width:0.0500; stroke-opacity:1; 
stroke-linecap:round; stroke-linejoin:round;fill:none"
d="M 67.9382,51.9638
71.3382,51.9638
71.3382,53.9238
67.9382,53.9238
Z" /> 
<path style="fill:none; 
stroke:#000000; stroke-width:0.0500; stroke-opacity:1; 
stroke-linecap:round; stroke-linejoin:round;fill:none"
d="M 123.5300,48.4700
126.9300,48.4700
126.9300,50.4300
123.5300,50.4300
Z" /> 
<path style="fill:none; 
stroke:#000000; stroke-width:0.0500; stroke-opacity:1; 
stroke-linecap:round; stroke-linejoin:round;fill:none"
d="M 159.5100,34.7300
162.9100,34.7300
162.9100,36.6900
159.5100,36.6900
Z" /> 
<path style="fill:none; 
stroke:#000000; stroke-width:0.0500; stroke-opacity:1; 
stroke-linecap:round; stroke-linejoin:round;fill:none"
d="M 148.0700,42.0000
151.4300,42.0000
151.4300,43.9000
148.0700,43.9000
Z" /> 
<path style="fill:none; 
stroke:#000000; stroke-width:0.0500; stroke-opacity:1; 
stroke-linecap:round; stroke-linejoin:round;fill:none"
d="M 152.9600,45.4500
154.8600,45.4500
154.8600,48.8100
152.9600,48.8100
Z" /> 
<path style="fill:none; 
stroke:#000000; stroke-width:0.0500; stroke-opacity:1; 
stroke-linecap:round; stroke-linejoin:round;fill:none"
d="M 107.0400,38.4800
110.4400,38.4800
110.4400,40.4400
107.0400,40.4400
Z" /> 
<path style="fill:none; 
stroke:#000000; stroke-width:0.0500; stroke-opacity:1; 
stroke-linecap:round; stroke-linejoin:round;fill:none"
d="M 91.5290,43.3414
94.8890,43.3414
94.8890,45.2414
91.5290,45.2414
Z" /> 
<path style="fill:none; 
stroke:#000000; stroke-width:0.0500; stroke-opacity:1; 
stroke-linecap:round; stroke-linejoin:round;fill:none"
d="M 79.0916,39.7164
80.5516,39.7164
80.5516,42.6764
79.0916,42.6764
Z" /> 
<path d="M82.5116 44.1214
L82.5116 39.7214
" />
<path d="M84.8116 39.7214
L82.5116 39.7214
" />
<path d="M84.8116 39.7214
L84.8116 44.1214
" />
<path d="M84.8116 44.1214
L82.5116 44.1214
" />
<path d="M41.8800 18.2600
L41.8800 19.5600
" />
<path d="M41.8800 19.5600
L42.5300 19.5600
" />
<path d="M42.5300 19.5600
L42.5300 27.0900
" />
<path d="M42.5300 34.5200
L42.5300 30.9900
" />
<path d="M56.6300 19.5600
L56.6300 27.0900
" />
<path d="M56.6300 34.5200
L42.5300 34.5200
" />
<path d="M56.6300 34.5200
L56.6300 30.9900
" />
<path d="M57.2800 18.2600
L41.8800 18.2600
" />
<path d="M57.2800 18.2600
L57.2800 19.5600
" />
<path d="M57.2800 19.5600
L56.6300 19.5600
" />
<path d="M42.5300 27.0900 A2.0082 2.0082 0.0 0 0 42.5300 30.9900" />
<path d="M56.6300 30.9900 A2.0082 2.0082 0.0 0 0 56.6300 27.0900" />
<path style="fill:none; 
stroke:#000000; stroke-width:0.0500; stroke-opacity:1; 
stroke-linecap:round; stroke-linejoin:round;fill:none"
d="M 100.4900,37.5600
103.8900,37.5600
103.8900,39.5200
100.4900,39.5200
Z" /> 
<path style="fill:none; 
stroke:#000000; stroke-width:0.0500; stroke-opacity:1; 
stroke-linecap:round; stroke-linejoin:round;fill:none"
d="M 150.2476,22.0538
152.1476,22.0538
152.1476,25.4138
150.2476,25.4138
Z" /> 
<path style="fill:none; 
stroke:#000000; stroke-width:0.0500; stroke-opacity:1; 
stroke-linecap:round; stroke-linejoin:round;fill:none"
d="M 79.5416,42.6914
82.5016,42.6914
82.5016,44.1514
79.5416,44.1514
Z" /> 
<path style="fill:none; 
stroke:#000000; stroke-width:0.0500; stroke-opacity:1; 
stroke-linecap:round; stroke-linejoin:round;fill:none"
d="M 111.5000,50.4077
114.9000,50.4077
114.9000,52.3677
111.5000,52.3677
Z" /> 
<path style="fill:none; 
stroke:#000000; stroke-width:0.0500; stroke-opacity:1; 
stroke-linecap:round; stroke-linejoin:round;fill:none"
d="M 163.1200,25.7600
169.0200,25.7600
169.0200,29.6600
163.1200,29.6600
Z" /> 
<path d="M132.5500 47.1000
L132.5500 58.5000
" />
<path d="M132.5500 58.5000
L141.0500 58.5000
" />
<path d="M141.0500 47.1000
L132.5500 47.1000
" />
<path d="M141.0500 58.5000
L141.0500 47.1000
" />
<path d="M172.0000 112.7500
L172.0000 125.2500
" />
<path d="M172.0000 125.2500
L188.0000 125.2500
" />
<path d="M188.0000 112.7500
L172.0000 112.7500
" />
<path d="M188.0000 125.2500
L188.0000 112.7500
" />
<path d="M96.6400 47.8000
L96.6400 57.1000
" />
<path d="M96.6400 57.1000
L102.3600 57.1000
" />
<path d="M102.3600 47.8000
L96.6400 47.8000
" />
<path d="M102.3600 57.1000
L102.3600 47.8000
" />
<path style="fill:none; 
stroke:#000000; stroke-width:0.0500; stroke-opacity:1; 
stroke-linecap:round; stroke-linejoin:round;fill:none"
d="M 54.0500,49.7400
56.0100,49.7400
56.0100,53.1400
54.0500,53.1400
Z" /> 
</g>
<g style="fill:none; 
stroke:#000000; stroke-width:0.1200; stroke-opacity:1; 
stroke-linecap:round; stroke-linejoin:round;">
<path d="M53.6500 73.6000
L57.4300 73.6000
" />
<path d="M53.6500 96.4000
L53.6500 73.6000
" />
<path d="M57.4300 73.6000
L57.4300 96.4000
" />
<path d="M57.4300 96.4000
L53.6500 96.4000
" />
<path d="M87.5700 73.6000
L91.3500 73.6000
" />
<path d="M87.5700 96.4000
L87.5700 73.6000
" />
<path d="M91.3500 73.6000
L91.3500 96.4000
" />
<path d="M91.3500 96.4000
L87.5700 96.4000
" />
</g>
<g style="fill:none; 
stroke:#000000; stroke-width:0.0500; stroke-opacity:1; 
stroke-linecap:round; stroke-linejoin:round;">
<circle cx="20.0056" cy="122.9944" r="1.7500" /> 
<path d="M172.0000 60.7500
L172.0000 73.2500
" />
<path d="M172.0000 73.2500
L188.0000 73.2500
" />
<path d="M188.0000 60.7500
L172.0000 60.7500
" />
<path d="M188.0000 73.2500
L188.0000 60.7500
" />
<path style="fill:none; 
stroke:#000000; stroke-width:0.0500; stroke-opacity:1; 
stroke-linecap:round; stroke-linejoin:round;fill:none"
d="M 156.0900,36.6900
159.4900,36.6900
159.4900,38.6500
156.0900,38.6500
Z" /> 
<circle cx="42.0000" cy="128.0000" r="2.6000" /> 
<path style="fill:none; 
stroke:#000000; stroke-width:0.0500; stroke-opacity:1; 
stroke-linecap:round; stroke-linejoin:round;fill:none"
d="M 156.1200,32.7500
159.5200,32.7500
159.5200,34.7100
156.1200,34.7100
Z" /> 
<path d="M22.0000 112.7500
L22.0000 125.2500
" />
<path d="M22.0000 125.2500
L38.0000 125.2500
" />
<path d="M38.0000 112.7500
L22.0000 112.7500
" />
<path d="M38.0000 125.2500
L38.0000 112.7500
" />
<path style="fill:none; 
stroke:#000000; stroke-width:0.0500; stroke-opacity:1; 
stroke-linecap:round; stroke-linejoin:round;fill:none"
d="M 159.5000,36.7000
162.9000,36.7000
162.9000,38.6600
159.5000,38.6600
Z" /> 
<path style="fill:none; 
stroke:#000000; stroke-width:0.0500; stroke-opacity:1; 
stroke-linecap:round; stroke-linejoin:round;fill:none"
d="M 102.2400,76.0725
104.1400,76.0725
104.1400,79.4325
102.2400,79.4325
Z" /> 
<path style="fill:none; 
stroke:#000000; stroke-width:0.0500; stroke-opacity:1; 
stroke-linecap:round; stroke-linejoin:round;fill:none"
d="M 112.2200,46.0000
114.1800,46.0000
114.1800,49.4000
112.2200,49.4000
Z" /> 
<path style="fill:none; 
stroke:#000000; stroke-width:0.0500; stroke-opacity:1; 
stroke-linecap:round; stroke-linejoin:round;fill:none"
d="M 157.7200,48.1200
159.6200,48.1200
159.6200,51.4800
157.7200,51.4800
Z" /> 
<circle cx="185.0056" cy="22.9944" r="2.6000" /> 
<path style="fill:none; 
stroke:#000000; stroke-width:0.0500; stroke-opacity:1; 
stroke-linecap:round; stroke-linejoin:round;fill:none"
d="M 106.1400,76.0725
108.0400,76.0725
108.0400,79.4325
106.1400,79.4325
Z" /> 
<path style="fill:none; 
stroke:#000000; stroke-width:0.0500; stroke-opacity:1; 
stroke-linecap:round; stroke-linejoin:round;fill:none"
d="M 100.5000,39.5200
103.9000,39.5200
103.9000,41.4800
100.5000,41.4800
Z" /> 
<path style="fill:none; 
stroke:#000000; stroke-width:0.0500; stroke-opacity:1; 
stroke-linecap:round; stroke-linejoin:round;fill:none"
d="M 88.5290,42.9174
91.4890,42.9174
91.4890,44.3774
88.5290,44.3774
Z" /> 
<path d="M24.1400 55.4500
L25.9600 55.4500
" />
<path d="M24.1400 58.4500
L24.1400 55.4500
" />
<path d="M25.9600 55.4500
L25.9600 58.4500
" />
<path d="M25.9600 58.4500
L24.1400 58.4500
" />
<path d="M152.7300 24.4400
L152.7300 27.4400
" />
<path d="M152.7300 24.4400
L155.7300 24.4400
" />
<path d="M155.7300 27.4400
L152.7300 27.4400
" />
<path d="M155.7300 27.4400
L155.7300 24.4400
" />
<path d="M114.0032 52.5468
L114.0032 55.7468
" />
<path d="M114.0032 55.7468
L118.1032 55.7468
" />
<path d="M118.1032 52.5468
L114.0032 52.5468
" />
<path d="M118.1032 55.7468
L118.1032 52.5468
" />
<path style="fill:none; 
stroke:#000000; stroke-width:0.0500; stroke-opacity:1; 
stroke-linecap:round; stroke-linejoin:round;fill:none"
d="M 62.9800,44.6600
64.9400,44.6600
64.9400,48.0600
62.9800,48.0600
Z" /> 
<path style="fill:none; 
stroke:#000000; stroke-width:0.0500; stroke-opacity:1; 
stroke-linecap:round; stroke-linejoin:round;fill:none"
d="M 41.7500,45.7800
43.6500,45.7800
43.6500,49.1400
41.7500,49.1400
Z" /> 
<path d="M138.3000 42.5700
L139.0200 42.5700
" />
<path d="M138.3000 44.4300
L138.3000 42.5700
" />
<path d="M139.0200 42.4000
L140.4800 42.4000
" />
<path d="M139.0200 42.5700
L139.0200 42.4000
" />
<path d="M139.0200 44.4300
L138.3000 44.4300
" />
<path d="M139.0200 44.6000
L139.0200 44.4300
" />
<path d="M140.4800 42.4000
L140.4800 42.5700
" />
<path d="M140.4800 42.5700
L141.2000 42.5700
" />
<path d="M140.4800 43.1300
L140.4800 43.8700
" />
<path d="M140.4800 43.8700
L141.2000 43.8700
" />
<path d="M140.4800 44.4300
L140.4800 44.6000
" />
<path d="M140.4800 44.6000
L139.0200 44.6000
" />
<path d="M141.2000 42.5700
L141.2000 43.1300
" />
<path d="M141.2000 43.1300
L140.4800 43.1300
" />
<path d="M141.2000 43.8700
L141.2000 44.4300
" />
<path d="M141.2000 44.4300
L140.4800 44.4300
" />
<path d="M133.7500 26.3000
L133.7500 41.7000
" />
<path d="M133.7500 26.3000
L151.2500 26.3000
" />
<path d="M151.2500 41.7000
L133.7500 41.7000
" />
<path d="M151.2500 41.7000
L151.2500 26.3000
" />
<circle cx="105.0000" cy="98.0000" r="2.6000" /> 
<path d="M97.0000 112.7500
L97.0000 125.2500
" />
<path d="M97.0000 125.2500
L113.0000 125.2500
" />
<path d="M113.0000 112.7500
L97.0000 112.7500
" />
<path d="M113.0000 125.2500
L113.0000 112.7500
" />
<path d="M99.1406 76.9225
L99.8606 76.9225
" />
<path d="M99.1406 78.7825
L99.1406 76.9225
" />
<path d="M99.8606 76.7525
L101.3206 76.7525
" />
<path d="M99.8606 76.9225
L99.8606 76.7525
" />
<path d="M99.8606 78.7825
L99.1406 78.7825
" />
<path d="M99.8606 78.9525
L99.8606 78.7825
" />
<path d="M101.3206 76.7525
L101.3206 76.9225
" />
<path d="M101.3206 76.9225
L102.0406 76.9225
" />
<path d="M101.3206 77.4825
L101.3206 78.2225
" />
<path d="M101.3206 78.2225
L102.0406 78.2225
" />
<path d="M101.3206 78.7825
L101.3206 78.9525
" />
<path d="M101.3206 78.9525
L99.8606 78.9525
" />
<path d="M102.0406 76.9225
L102.0406 77.4825
" />
<path d="M102.0406 77.4825
L101.3206 77.4825
" />
<path d="M102.0406 78.2225
L102.0406 78.7825
" />
<path d="M102.0406 78.7825
L101.3206 78.7825
" />
<path style="fill:none; 
stroke:#000000; stroke-width:0.0500; stroke-opacity:1; 
stroke-linecap:round; stroke-linejoin:round;fill:none"
d="M 107.6600,51.1000
109.6200,51.1000
109.6200,54.5000
107.6600,54.5000
Z" /> 
<path style="fill:none; 
stroke:#000000; stroke-width:0.0500; stroke-opacity:1; 
stroke-linecap:round; stroke-linejoin:round;fill:none"
d="M 116.4200,47.0000
118.3800,47.0000
118.3800,50.4000
116.4200,50.4000
Z" /> 
<path style="fill:none; 
stroke:#000000; stroke-width:0.0500; stroke-opacity:1; 
stroke-linecap:round; stroke-linejoin:round;fill:none"
d="M 159.6900,48.1200
161.6500,48.1200
161.6500,51.5200
159.6900,51.5200
Z" /> 
<path d="M111.9900 56.1600
L111.9900 59.1600
" />
<path d="M111.9900 56.1600
L114.9900 56.1600
" />
<path d="M114.9900 59.1600
L111.9900 59.1600
" />
<path d="M114.9900 59.1600
L114.9900 56.1600
" />
<path d="M161.6500 46.6400
L161.6500 53.6400
" />
<path d="M161.6500 53.6400
L168.1500 53.6400
" />
<path d="M168.1500 46.6400
L161.6500 46.6400
" />
<path d="M168.1500 53.6400
L168.1500 46.6400
" />
<path d="M143.9500 43.0000
L144.9500 43.0000
" />
<path d="M143.9500 44.1100
L143.9500 43.0000
" />
<path d="M143.9500 44.8900
L144.9500 44.8900
" />
<path d="M143.9500 46.0000
L143.9500 44.8900
" />
<path d="M144.9500 42.8000
L147.0500 42.8000
" />
<path d="M144.9500 43.0000
L144.9500 42.8000
" />
<path d="M144.9500 44.1100
L143.9500 44.1100
" />
<path d="M144.9500 44.8900
L144.9500 44.1100
" />
<path d="M144.9500 46.0000
L143.9500 46.0000
" />
<path d="M144.9500 46.2000
L144.9500 46.0000
" />
<path d="M147.0500 42.8000
L147.0500 43.0000
" />
<path d="M147.0500 43.0000
L148.0500 43.0000
" />
<path d="M147.0500 46.0000
L147.0500 46.2000
" />
<path d="M147.0500 46.2000
L144.9500 46.2000
" />
<path d="M148.0500 43.0000
L148.0500 46.0000
" />
<path d="M148.0500 46.0000
L147.0500 46.0000
" />
<path style="fill:none; 
stroke:#000000; stroke-width:0.0500; stroke-opacity:1; 
stroke-linecap:round; stroke-linejoin:round;fill:none"
d="M 62.9800,48.0600
64.9400,48.0600
64.9400,51.4600
62.9800,51.4600
Z" /> 
<path style="fill:none; 
stroke:#000000; stroke-width:0.0500; stroke-opacity:1; 
stroke-linecap:round; stroke-linejoin:round;fill:none"
d="M 99.0300,41.5500
102.4300,41.5500
102.4300,43.5100
99.0300,43.5100
Z" /> 
<path style="fill:none; 
stroke:#000000; stroke-width:0.0500; stroke-opacity:1; 
stroke-linecap:round; stroke-linejoin:round;fill:none"
d="M 141.9200,42.8000
143.8800,42.8000
143.8800,46.2000
141.9200,46.2000
Z" /> 
<path d="M141.4866 46.2692
L141.4866 59.6692
" />
<path d="M141.4866 59.6692
L149.9866 59.6692
" />
<path d="M149.9866 46.2692
L141.4866 46.2692
" />
<path d="M149.9866 59.6692
L149.9866 46.2692
" />
<path style="fill:none; 
stroke:#000000; stroke-width:0.0500; stroke-opacity:1; 
stroke-linecap:round; stroke-linejoin:round;fill:none"
d="M 88.5290,41.4442
91.4890,41.4442
91.4890,42.9042
88.5290,42.9042
Z" /> 
<path d="M83.7445 19.7500
L83.7445 20.0000
" />
<path d="M83.7445 20.0000
L83.7445 32.4500
" />
<path d="M83.7445 32.4500
L96.2445 32.4500
" />
<path d="M86.7445 17.9500
L86.7445 19.7500
" />
<path d="M86.7445 19.7500
L83.7445 19.7500
" />
<path d="M93.2445 17.9500
L86.7445 17.9500
" />
<path d="M93.2445 19.7500
L93.2445 17.9500
" />
<path d="M96.2445 19.7500
L93.2445 19.7500
" />
<path d="M96.2445 32.4500
L96.2445 19.7500
" />
<path style="fill:none; 
stroke:#000000; stroke-width:0.0500; stroke-opacity:1; 
stroke-linecap:round; stroke-linejoin:round;fill:none"
d="M 55.3300,34.5500
57.2900,34.5500
57.2900,37.9500
55.3300,37.9500
Z" /> 
</g>
<g style="fill:#000000; fill-opacity:1.0000; stroke:none;">
<circle cx="168.0000" cy="121.5000" r="1.3500" /> 
<circle cx="125.0000" cy="24.5000" r="0.6000" /> 
<circle cx="120.0000" cy="29.5000" r="0.6000" /> 
<circle cx="115.0000" cy="24.5000" r="0.6000" /> 
</g>
<g style="fill:none; 
stroke:#000000; stroke-width:0.4500; stroke-opacity:1; 
stroke-linecap:round; stroke-linejoin:round;">
<path d="M125.0000 29.9750
L125.0000 29.0250
" />
<path d="M122.5000 29.9750
L122.5000 29.0250
" />
<path d="M120.4750 24.5000
L119.5250 24.5000
" />
<path d="M115.0000 29.0250
L115.0000 29.9750
" />
<path d="M117.5000 29.0250
L117.5000 29.9750
" />
</g>
<g style="fill:#000000; fill-opacity:1.0000; stroke:none;">
<circle cx="28.0500" cy="50.0000" r="0.7000" /> 
<circle cx="28.0500" cy="33.7700" r="0.7000" /> 
<circle cx="21.7000" cy="50.0000" r="0.7000" /> 
<circle cx="21.7000" cy="33.7700" r="0.7000" /> 
<circle cx="34.4000" cy="50.0000" r="0.7000" /> 
<circle cx="34.4000" cy="33.7700" r="0.7000" /> 
<circle cx="28.0500" cy="111.2000" r="0.7000" /> 
<circle cx="28.0500" cy="94.9700" r="0.7000" /> 
<circle cx="21.7000" cy="111.2000" r="0.7000" /> 
<circle cx="21.7000" cy="94.9700" r="0.7000" /> 
<circle cx="34.4000" cy="111.2000" r="0.7000" /> 
<circle cx="34.4000" cy="94.9700" r="0.7000" /> 
</g>
<g style="fill:none; 
stroke:#000000; stroke-width:0.8000; stroke-opacity:1; 
stroke-linecap:round; stroke-linejoin:round;">
<path d="M177.8372 30.3886
L175.2372 30.3886
" />
<path d="M177.6372 24.5886
L175.4372 24.5886
" />
<path d="M171.7372 26.2886
L171.7372 28.4886
" />
</g>
<g style="fill:#000000; fill-opacity:1.0000; stroke:none;">
<circle cx="175.6372" cy="28.1986" r="0.6500" /> 
<circle cx="175.6372" cy="23.1986" r="0.6500" /> 
<circle cx="28.0500" cy="91.0000" r="0.7000" /> 
<circle cx="28.0500" cy="74.7700" r="0.7000" /> 
<circle cx="21.7000" cy="91.0000" r="0.7000" /> 
<circle cx="21.7000" cy="74.7700" r="0.7000" /> 
<circle cx="34.4000" cy="91.0000" r="0.7000" /> 
<circle cx="34.4000" cy="74.7700" r="0.7000" /> 
<circle cx="181.9500" cy="94.9950" r="0.7000" /> 
<circle cx="181.9500" cy="111.2250" r="0.7000" /> 
<circle cx="188.3000" cy="94.9950" r="0.7000" /> 
<circle cx="188.3000" cy="111.2250" r="0.7000" /> 
<circle cx="175.6000" cy="94.9950" r="0.7000" /> 
<circle cx="175.6000" cy="111.2250" r="0.7000" /> 
<circle cx="129.3150" cy="44.4500" r="0.5000" /> 
<circle cx="131.8550" cy="44.4500" r="0.5000" /> 
<circle cx="134.3950" cy="44.4500" r="0.5000" /> 
<circle cx="118.9800" cy="121.5200" r="1.3500" /> 
<circle cx="80.1000" cy="21.0750" r="0.2500" /> 
<circle cx="80.1000" cy="22.0750" r="0.2500" /> 
<circle cx="80.1000" cy="23.0750" r="0.2500" /> 
<circle cx="80.1000" cy="24.0750" r="0.2500" /> 
<circle cx="80.1000" cy="25.0750" r="0.2500" /> 
<circle cx="80.1000" cy="26.0750" r="0.2500" /> 
<circle cx="80.1000" cy="30.0750" r="0.2500" /> 
<circle cx="80.1000" cy="31.0750" r="0.2500" /> 
<circle cx="80.1000" cy="32.0750" r="0.2500" /> 
<circle cx="80.1000" cy="33.0750" r="0.2500" /> 
<circle cx="80.1000" cy="34.0750" r="0.2500" /> 
<circle cx="80.1000" cy="35.0750" r="0.2500" /> 
<circle cx="80.1000" cy="36.0750" r="0.2500" /> 
<circle cx="81.1000" cy="36.0750" r="0.2500" /> 
<circle cx="82.1000" cy="36.0750" r="0.2500" /> 
<circle cx="83.1000" cy="36.0750" r="0.2500" /> 
<circle cx="84.1000" cy="36.0750" r="0.2500" /> 
<circle cx="85.1000" cy="36.0750" r="0.2500" /> 
<circle cx="86.1000" cy="36.0750" r="0.2500" /> 
<circle cx="87.1000" cy="36.0750" r="0.2500" /> 
<circle cx="88.1000" cy="36.0750" r="0.2500" /> 
<circle cx="89.1000" cy="36.0750" r="0.2500" /> 
<circle cx="90.1000" cy="36.0750" r="0.2500" /> 
<circle cx="91.1000" cy="36.0750" r="0.2500" /> 
<circle cx="92.1000" cy="36.0750" r="0.2500" /> 
<circle cx="93.1000" cy="36.0750" r="0.2500" /> 
<circle cx="94.1000" cy="36.0750" r="0.2500" /> 
<circle cx="95.1000" cy="36.0750" r="0.2500" /> 
<circle cx="96.1000" cy="36.0750" r="0.2500" /> 
<circle cx="97.1000" cy="36.0750" r="0.2500" /> 
<circle cx="98.1000" cy="36.0750" r="0.2500" /> 
<circle cx="99.1000" cy="36.0750" r="0.2500" /> 
<circle cx="100.1000" cy="36.0750" r="0.2500" /> 
<circle cx="101.1000" cy="36.0750" r="0.2500" /> 
<circle cx="102.1000" cy="36.0750" r="0.2500" /> 
<circle cx="103.1000" cy="36.0750" r="0.2500" /> 
<circle cx="104.1000" cy="36.0750" r="0.2500" /> 
<circle cx="105.1000" cy="36.0750" r="0.2500" /> 
<circle cx="106.1000" cy="36.0750" r="0.2500" /> 
<circle cx="107.1000" cy="36.0750" r="0.2500" /> 
<circle cx="108.1000" cy="36.0750" r="0.2500" /> 
<circle cx="109.1000" cy="36.0750" r="0.2500" /> 
<circle cx="110.1000" cy="36.0750" r="0.2500" /> 
<circle cx="111.1000" cy="36.0750" r="0.2500" /> 
<circle cx="112.1000" cy="36.0750" r="0.2500" /> 
<circle cx="113.1000" cy="36.0750" r="0.2500" /> 
<circle cx="114.1000" cy="36.0750" r="0.2500" /> 
<circle cx="115.1000" cy="36.0750" r="0.2500" /> 
<circle cx="116.1000" cy="36.0750" r="0.2500" /> 
<circle cx="117.1000" cy="36.0750" r="0.2500" /> 
<circle cx="118.1000" cy="36.0750" r="0.2500" /> 
<circle cx="119.1000" cy="36.0750" r="0.2500" /> 
<circle cx="120.1000" cy="36.0750" r="0.2500" /> 
<circle cx="121.1000" cy="36.0750" r="0.2500" /> 
<circle cx="122.1000" cy="36.0750" r="0.2500" /> 
<circle cx="123.1000" cy="36.0750" r="0.2500" /> 
<circle cx="124.1000" cy="36.0750" r="0.2500" /> 
<circle cx="125.1000" cy="36.0750" r="0.2500" /> 
<circle cx="126.1000" cy="36.0750" r="0.2500" /> 
<circle cx="127.1000" cy="36.0750" r="0.2500" /> 
<circle cx="128.1000" cy="36.0750" r="0.2500" /> 
<circle cx="129.1000" cy="36.0750" r="0.2500" /> 
<circle cx="130.1000" cy="21.0750" r="0.2500" /> 
<circle cx="130.1000" cy="22.0750" r="0.2500" /> 
<circle cx="130.1000" cy="23.0750" r="0.2500" /> 
<circle cx="130.1000" cy="24.0750" r="0.2500" /> 
<circle cx="130.1000" cy="25.0750" r="0.2500" /> 
<circle cx="130.1000" cy="26.0750" r="0.2500" /> 
<circle cx="130.1000" cy="27.0750" r="0.2500" /> 
<circle cx="130.1000" cy="28.0750" r="0.2500" /> 
<circle cx="130.1000" cy="29.0750" r="0.2500" /> 
<circle cx="130.1000" cy="30.0750" r="0.2500" /> 
<circle cx="130.1000" cy="31.0750" r="0.2500" /> 
<circle cx="130.1000" cy="32.0750" r="0.2500" /> 
<circle cx="130.1000" cy="33.0750" r="0.2500" /> 
<circle cx="130.1000" cy="34.0750" r="0.2500" /> 
<circle cx="130.1000" cy="35.0750" r="0.2500" /> 
<circle cx="130.1000" cy="36.0750" r="0.2500" /> 
<circle cx="25.0000" cy="23.0000" r="1.3500" /> 
<circle cx="181.9650" cy="33.8000" r="0.7000" /> 
<circle cx="181.9650" cy="50.0300" r="0.7000" /> 
<circle cx="188.3150" cy="33.8000" r="0.7000" /> 
<circle cx="188.3150" cy="50.0300" r="0.7000" /> 
<circle cx="175.6150" cy="33.8000" r="0.7000" /> 
<circle cx="175.6150" cy="50.0300" r="0.7000" /> 
<circle cx="168.0000" cy="63.5000" r="1.3500" /> 
<circle cx="112.5000" cy="32.0000" r="0.6604" /> 
<circle cx="120.0000" cy="32.0000" r="0.6604" /> 
<circle cx="127.5000" cy="32.0000" r="0.6604" /> 
<circle cx="115.0000" cy="34.5000" r="0.6604" /> 
<circle cx="125.0000" cy="34.5000" r="0.6604" /> 
<circle cx="122.5000" cy="22.0000" r="0.6604" /> 
<circle cx="125.0000" cy="22.0000" r="0.6604" /> 
<circle cx="115.0000" cy="22.0000" r="0.6604" /> 
<circle cx="117.5000" cy="22.0000" r="0.6604" /> 
<circle cx="119.0000" cy="63.5000" r="1.3500" /> 
<circle cx="60.2500" cy="31.5000" r="0.5000" /> 
<circle cx="60.2500" cy="36.5000" r="0.5000" /> 
<circle cx="60.2500" cy="34.0000" r="0.5000" /> 
<circle cx="67.7500" cy="28.4000" r="1.3000" /> 
<circle cx="67.7500" cy="39.6000" r="1.3000" /> 
<circle cx="74.7500" cy="36.5000" r="0.5000" /> 
<circle cx="74.7500" cy="31.5000" r="0.5000" /> 
<circle cx="161.4700" cy="41.7500" r="0.1500" /> 
<circle cx="160.1700" cy="41.7500" r="0.1500" /> 
<circle cx="158.8700" cy="41.7500" r="0.1500" /> 
<circle cx="157.5700" cy="41.7500" r="0.1500" /> 
<circle cx="161.4700" cy="43.0500" r="0.1500" /> 
<circle cx="160.1700" cy="43.0500" r="0.1500" /> 
<circle cx="158.8700" cy="43.0500" r="0.1500" /> 
<circle cx="157.5700" cy="43.0500" r="0.1500" /> 
<circle cx="168.0000" cy="128.0000" r="1.3500" /> 
<circle cx="107.2250" cy="81.3000" r="0.5000" /> 
<circle cx="104.6850" cy="81.3000" r="0.5000" /> 
<circle cx="102.1450" cy="81.3000" r="0.5000" /> 
<circle cx="181.9500" cy="74.7800" r="0.7000" /> 
<circle cx="181.9500" cy="91.0100" r="0.7000" /> 
<circle cx="188.3000" cy="74.7800" r="0.7000" /> 
<circle cx="188.3000" cy="91.0100" r="0.7000" /> 
<circle cx="175.6000" cy="74.7800" r="0.7000" /> 
<circle cx="175.6000" cy="91.0100" r="0.7000" /> 
</g>
<g style="fill:none; 
stroke:#000000; stroke-width:0.7000; stroke-opacity:1; 
stroke-linecap:round; stroke-linejoin:round;">
<path d="M19.3050 53.7450
L19.8050 53.7450
" />
</g>
<g style="fill:none; 
stroke:#000000; stroke-width:0.6500; stroke-opacity:1; 
stroke-linecap:round; stroke-linejoin:round;">
<path d="M22.3550 54.0550
L22.7550 54.0550
" />
<path d="M22.3550 58.8950
L22.7550 58.8950
" />
</g>
<g style="fill:none; 
stroke:#000000; stroke-width:0.7000; stroke-opacity:1; 
stroke-linecap:round; stroke-linejoin:round;">
<path d="M19.3050 59.2050
L19.8050 59.2050
" />
</g>
<g style="fill:#000000; fill-opacity:1.0000; stroke:none;">
<circle cx="106.1250" cy="46.8750" r="0.1750" /> 
<circle cx="107.4000" cy="46.8750" r="0.1750" /> 
<circle cx="108.6750" cy="46.8750" r="0.1750" /> 
<circle cx="106.1250" cy="45.6000" r="0.1750" /> 
<circle cx="107.4000" cy="45.6000" r="0.1750" /> 
<circle cx="108.6750" cy="45.6000" r="0.1750" /> 
<circle cx="106.1250" cy="44.3250" r="0.1750" /> 
<circle cx="107.4000" cy="44.3250" r="0.1750" /> 
<circle cx="108.6750" cy="44.3250" r="0.1750" /> 
<circle cx="53.0800" cy="31.7500" r="0.4750" /> 
<circle cx="50.5800" cy="31.7500" r="0.4750" /> 
<circle cx="48.5800" cy="31.7500" r="0.4750" /> 
<circle cx="46.0800" cy="31.7500" r="0.4750" /> 
<circle cx="56.1500" cy="29.0400" r="1.1500" /> 
<circle cx="43.0100" cy="29.0400" r="1.1500" /> 
<circle cx="89.0000" cy="111.5000" r="1.3500" /> 
<circle cx="89.0000" cy="63.5000" r="1.3500" /> 
<circle cx="56.0000" cy="111.5000" r="1.3500" /> 
<circle cx="56.0000" cy="63.5000" r="1.3500" /> 
<circle cx="42.0000" cy="128.0000" r="1.3500" /> 
<circle cx="185.0056" cy="22.9944" r="1.3500" /> 
<circle cx="135.2500" cy="31.5000" r="0.5000" /> 
<circle cx="135.2500" cy="36.5000" r="0.5000" /> 
<circle cx="135.2500" cy="34.0000" r="0.5000" /> 
<circle cx="142.7500" cy="28.4000" r="1.3000" /> 
<circle cx="142.7500" cy="39.6000" r="1.3000" /> 
<circle cx="149.7500" cy="36.5000" r="0.5000" /> 
<circle cx="149.7500" cy="31.5000" r="0.5000" /> 
<circle cx="105.0000" cy="98.0000" r="1.3500" /> 
<circle cx="82.5000" cy="32.0000" r="0.6604" /> 
<circle cx="90.0000" cy="32.0000" r="0.6604" /> 
<circle cx="97.5000" cy="32.0000" r="0.6604" /> 
<circle cx="85.0000" cy="34.5000" r="0.6604" /> 
<circle cx="95.0000" cy="34.5000" r="0.6604" /> 
<circle cx="92.5000" cy="22.0000" r="0.6604" /> 
<circle cx="95.0000" cy="22.0000" r="0.6604" /> 
<circle cx="85.0000" cy="22.0000" r="0.6604" /> 
<circle cx="87.5000" cy="22.0000" r="0.6604" /> 
<circle cx="94.9945" cy="24.5000" r="0.6000" /> 
<circle cx="89.9945" cy="29.5000" r="0.6000" /> 
<circle cx="84.9945" cy="24.5000" r="0.6000" /> 
</g>
<g style="fill:none; 
stroke:#000000; stroke-width:0.4500; stroke-opacity:1; 
stroke-linecap:round; stroke-linejoin:round;">
<path d="M94.9945 29.9750
L94.9945 29.0250
" />
<path d="M92.4945 29.9750
L92.4945 29.0250
" />
<path d="M90.4695 24.5000
L89.5195 24.5000
" />
<path d="M84.9945 29.0250
L84.9945 29.9750
" />
<path d="M87.4945 29.0250
L87.4945 29.9750
" />
</g>
<g style="fill:#000000; fill-opacity:1.0000; stroke:none;">
<circle cx="30.0000" cy="119.0000" r="1.8500" /> 
<circle cx="105.0000" cy="67.0000" r="1.8500" /> 
<circle cx="30.0000" cy="67.0000" r="1.8500" /> 
<circle cx="180.0000" cy="67.0000" r="1.8500" /> 
<circle cx="105.0000" cy="119.0000" r="1.8500" /> 
<circle cx="72.9600" cy="23.4900" r="0.3750" /> 
<circle cx="74.9600" cy="23.4900" r="0.3750" /> 
<circle cx="76.9600" cy="23.4900" r="0.3750" /> 
<circle cx="180.0000" cy="119.0000" r="1.8500" /> 
<circle cx="120.2500" cy="68.3756" r="0.5000" /> 
<circle cx="117.7100" cy="68.3756" r="0.5000" /> 
<circle cx="120.2500" cy="70.9156" r="0.5000" /> 
<circle cx="117.7100" cy="70.9156" r="0.5000" /> 
<circle cx="120.2500" cy="73.4556" r="0.5000" /> 
<circle cx="117.7100" cy="73.4556" r="0.5000" /> 
<circle cx="120.2500" cy="75.9956" r="0.5000" /> 
<circle cx="117.7100" cy="75.9956" r="0.5000" /> 
<circle cx="120.2500" cy="78.5356" r="0.5000" /> 
<circle cx="117.7100" cy="78.5356" r="0.5000" /> 
<circle cx="120.2500" cy="81.0756" r="0.5000" /> 
<circle cx="117.7100" cy="81.0756" r="0.5000" /> 
<circle cx="120.2500" cy="83.6156" r="0.5000" /> 
<circle cx="117.7100" cy="83.6156" r="0.5000" /> 
<circle cx="120.2500" cy="86.1556" r="0.5000" /> 
<circle cx="117.7100" cy="86.1556" r="0.5000" /> 
<circle cx="120.2500" cy="88.6956" r="0.5000" /> 
<circle cx="117.7100" cy="88.6956" r="0.5000" /> 
<circle cx="120.2500" cy="91.2356" r="0.5000" /> 
<circle cx="117.7100" cy="91.2356" r="0.5000" /> 
<circle cx="120.2500" cy="93.7756" r="0.5000" /> 
<circle cx="117.7100" cy="93.7756" r="0.5000" /> 
<circle cx="120.2500" cy="96.3156" r="0.5000" /> 
<circle cx="117.7100" cy="96.3156" r="0.5000" /> 
<circle cx="120.2500" cy="98.8556" r="0.5000" /> 
<circle cx="117.7100" cy="98.8556" r="0.5000" /> 
<circle cx="120.2500" cy="101.3956" r="0.5000" /> 
<circle cx="117.7100" cy="101.3956" r="0.5000" /> 
<circle cx="120.2500" cy="103.9356" r="0.5000" /> 
<circle cx="117.7100" cy="103.9356" r="0.5000" /> 
<circle cx="120.2500" cy="106.4756" r="0.5000" /> 
<circle cx="117.7100" cy="106.4756" r="0.5000" /> 
<circle cx="120.2500" cy="109.0156" r="0.5000" /> 
<circle cx="117.7100" cy="109.0156" r="0.5000" /> 
<circle cx="120.2500" cy="111.5556" r="0.5000" /> 
<circle cx="117.7100" cy="111.5556" r="0.5000" /> 
<circle cx="120.2500" cy="114.0956" r="0.5000" /> 
<circle cx="117.7100" cy="114.0956" r="0.5000" /> 
<circle cx="120.2500" cy="116.6356" r="0.5000" /> 
<circle cx="117.7100" cy="116.6356" r="0.5000" /> 
<circle cx="156.5550" cy="74.8456" r="0.5000" /> 
<circle cx="154.0150" cy="74.8456" r="0.5000" /> 
<circle cx="156.5550" cy="77.3856" r="0.5000" /> 
<circle cx="154.0150" cy="77.3856" r="0.5000" /> 
<circle cx="156.5550" cy="79.9256" r="0.5000" /> 
<circle cx="154.0150" cy="79.9256" r="0.5000" /> 
<circle cx="152.3800" cy="119.1506" r="0.5000" /> 
<circle cx="152.3800" cy="121.6906" r="0.5000" /> 
<circle cx="154.9200" cy="119.1506" r="0.5000" /> 
<circle cx="154.9200" cy="121.6906" r="0.5000" /> 
<circle cx="157.4600" cy="119.1506" r="0.5000" /> 
<circle cx="157.4600" cy="121.6906" r="0.5000" /> 
<circle cx="64.0300" cy="23.5000" r="0.3750" /> 
<circle cx="66.0300" cy="23.5000" r="0.3750" /> 
<circle cx="68.0300" cy="23.5000" r="0.3750" /> 
</g> 
</svg>
