<?xml version="1.0" standalone="no"?>
 <!DOCTYPE svg PUBLIC "-//W3C//DTD SVG 1.1//EN" 
 "http://www.w3.org/Graphics/SVG/1.1/DTD/svg11.dtd"> 
<svg
  xmlns:svg="http://www.w3.org/2000/svg"
  xmlns="http://www.w3.org/2000/svg"
  xmlns:xlink="http://www.w3.org/1999/xlink"
  version="1.1"
  width="297.0022mm" height="210.0072mm" viewBox="0.0000 0.0000 297.0022 210.0072">
<title>SVG Image created as pedalboard-hw-B_Silkscreen2.svg date 2026/04/18 10:56:36 </title>
  <desc>Image generated by PCBNEW </desc>
<g style="fill:#000000; fill-opacity:1.0000;stroke:#000000; stroke-opacity:1.0000;
stroke-linecap:round; stroke-linejoin:round;"
 transform="translate(0 0) scale(1 1)">
<path style="fill:#000000; fill-opacity:1.0000; stroke:none;fill-rule:evenodd;"
d="M 274.8374,46.8803
274.8756,46.9948
274.9497,47.0689
275.0267,47.1074
275.2002,47.1508
275.3246,47.1508
275.4981,47.1074
275.5751,47.0689
275.6492,46.9948
275.6874,46.8803
275.6874,46.7294
274.8374,46.7294
Z" /> 
<path style="fill:#000000; fill-opacity:1.0000; stroke:none;fill-rule:evenodd;"
d="M 274.5763,47.4119
275.9485,47.4119
275.9485,46.6544
275.8374,46.6544
275.8374,46.8925
275.8367,46.8999
275.8368,46.9019
275.8362,46.9045
275.8359,46.9071
275.8352,46.9090
275.8335,46.9162
275.7859,47.0591
275.7799,47.0725
275.7782,47.0745
275.7771,47.0770
275.7678,47.0884
275.6726,47.1836
275.6668,47.1883
275.6655,47.1898
275.6633,47.1913
275.6612,47.1929
275.6594,47.1937
275.6531,47.1977
275.5578,47.2453
275.5568,47.2457
275.5563,47.2460
275.5502,47.2482
275.5441,47.2505
275.5436,47.2506
275.5425,47.2510
275.3520,47.2986
275.3495,47.2990
275.3484,47.2994
275.3429,47.2999
275.3375,47.3007
275.3364,47.3006
275.3338,47.3008
275.1910,47.3008
275.1884,47.3006
275.1873,47.3007
275.1818,47.2999
275.1763,47.2994
275.1753,47.2990
275.1728,47.2986
274.9823,47.2510
274.9812,47.2506
274.9807,47.2505
274.9746,47.2482
274.9684,47.2460
274.9680,47.2457
274.9669,47.2453
274.8717,47.1977
274.8654,47.1937
274.8636,47.1929
274.8615,47.1913
274.8593,47.1898
274.8580,47.1883
274.8522,47.1836
274.7570,47.0884
274.7476,47.0770
274.7466,47.0745
274.7448,47.0725
274.7388,47.0591
274.6912,46.9162
274.6896,46.9090
274.6888,46.9071
274.6886,46.9045
274.6880,46.9019
274.6881,46.8999
274.6874,46.8925
274.6874,46.6544
274.6888,46.6398
274.7000,46.6127
274.7207,46.5920
274.7477,46.5808
274.7624,46.5794
275.7624,46.5794
275.7770,46.5808
275.8040,46.5920
275.8247,46.6127
275.8359,46.6398
275.8374,46.6544
275.9485,46.6544
275.9485,45.6120
275.8372,45.6120
275.8359,45.6166
275.8359,45.6214
275.8321,45.6306
275.8295,45.6402
275.8266,45.6440
275.8247,45.6484
275.8177,45.6555
275.8116,45.6634
275.8054,45.6677
275.8040,45.6691
275.8027,45.6697
275.7996,45.6719
275.0448,46.1032
275.7624,46.1032
275.7770,46.1046
275.8040,46.1158
275.8247,46.1365
275.8359,46.1636
275.8359,46.1928
275.8247,46.2199
275.8040,46.2406
275.7770,46.2518
275.7624,46.2532
274.7624,46.2532
274.7586,46.2528
274.7571,46.2530
274.7552,46.2525
274.7477,46.2518
274.7385,46.2479
274.7289,46.2453
274.7251,46.2424
274.7207,46.2406
274.7137,46.2335
274.7058,46.2274
274.7034,46.2233
274.7000,46.2199
274.6962,46.2107
274.6913,46.2020
274.6907,46.1973
274.6888,46.1928
274.6888,46.1829
274.6876,46.1730
274.6888,46.1684
274.6888,46.1636
274.6926,46.1544
274.6953,46.1447
274.6982,46.1410
274.7000,46.1365
274.7071,46.1295
274.7132,46.1216
274.7193,46.1172
274.7207,46.1158
274.7221,46.1153
274.7252,46.1131
275.4800,45.6818
274.7624,45.6818
274.7477,45.6803
274.7207,45.6691
274.7000,45.6484
274.6888,45.6214
274.6888,45.5921
274.7000,45.5651
274.7207,45.5444
274.7477,45.5332
274.7624,45.5318
275.7624,45.5318
275.7661,45.5321
275.7676,45.5320
275.7695,45.5325
275.7770,45.5332
275.7862,45.5370
275.7959,45.5397
275.7996,45.5426
275.8040,45.5444
275.8111,45.5515
275.8190,45.5576
275.8214,45.5617
275.8247,45.5651
275.8286,45.5743
275.8335,45.5830
275.8341,45.5877
275.8359,45.5921
275.8359,45.6021
275.8372,45.6120
275.9485,45.6120
275.9485,44.8925
275.8374,44.8925
275.8374,45.0354
275.8359,45.0500
275.8349,45.0525
275.8347,45.0552
275.8295,45.0689
275.7818,45.1641
275.7740,45.1766
275.7519,45.1957
275.7241,45.2050
275.6950,45.2029
275.6688,45.1898
275.6496,45.1677
275.6404,45.1400
275.6424,45.1108
275.6477,45.0970
275.6874,45.0176
275.6874,44.9047
275.6492,44.7901
275.5751,44.7160
275.4981,44.6775
275.3246,44.6342
275.2002,44.6342
275.0267,44.6775
274.9497,44.7160
274.8756,44.7901
274.8374,44.9047
274.8374,44.9756
274.8756,45.0901
274.8887,45.1032
275.1160,45.1032
275.1160,44.9877
275.1174,44.9731
275.1286,44.9461
275.1493,44.9254
275.1763,44.9142
275.2056,44.9142
275.2326,44.9254
275.2533,44.9461
275.2645,44.9731
275.2660,44.9877
275.2660,45.1782
275.2645,45.1928
275.2645,45.1928
275.2533,45.2199
275.2326,45.2406
275.2056,45.2518
275.1910,45.2532
274.8576,45.2532
274.8430,45.2518
274.8318,45.2471
274.8160,45.2406
274.8046,45.2312
274.7570,45.1836
274.7476,45.1723
274.7466,45.1698
274.7448,45.1677
274.7388,45.1543
274.6912,45.0114
274.6896,45.0042
274.6888,45.0024
274.6886,44.9997
274.6880,44.9971
274.6881,44.9951
274.6874,44.9877
274.6874,44.8925
274.6881,44.8851
274.6880,44.8831
274.6886,44.8805
274.6888,44.8779
274.6896,44.8760
274.6912,44.8688
274.7388,44.7259
274.7448,44.7125
274.7466,44.7105
274.7476,44.7080
274.7570,44.6966
274.8522,44.6014
274.8580,44.5966
274.8593,44.5951
274.8615,44.5937
274.8636,44.5920
274.8654,44.5913
274.8717,44.5873
274.9669,44.5397
274.9680,44.5393
274.9684,44.5390
274.9746,44.5368
274.9807,44.5344
274.9812,44.5344
274.9823,44.5340
275.1728,44.4864
275.1753,44.4860
275.1763,44.4856
275.1818,44.4851
275.1873,44.4842
275.1884,44.4844
275.1910,44.4842
275.3338,44.4842
275.3364,44.4844
275.3375,44.4842
275.3429,44.4851
275.3484,44.4856
275.3495,44.4860
275.3520,44.4864
275.5425,44.5340
275.5436,44.5344
275.5441,44.5344
275.5502,44.5368
275.5563,44.5390
275.5568,44.5393
275.5578,44.5397
275.6531,44.5873
275.6594,44.5913
275.6612,44.5920
275.6633,44.5937
275.6655,44.5951
275.6668,44.5966
275.6726,44.6014
275.7678,44.6966
275.7771,44.7080
275.7782,44.7105
275.7799,44.7125
275.7859,44.7259
275.8335,44.8688
275.8352,44.8760
275.8359,44.8779
275.8362,44.8805
275.8368,44.8831
275.8367,44.8851
275.8374,44.8925
275.9485,44.8925
275.9485,44.3730
274.5763,44.3730
Z" /> 
<path style="fill:#000000; fill-opacity:1.0000; stroke:none;fill-rule:evenodd;"
d="M 218.1329,27.1357
219.5527,27.1357
219.5527,25.9498
219.4416,25.9498
219.4416,26.9498
219.4412,26.9536
219.4414,26.9551
219.4409,26.9570
219.4402,26.9645
219.4363,26.9737
219.4337,26.9833
219.4308,26.9871
219.4290,26.9915
219.4219,26.9985
219.4158,27.0064
219.4116,27.0088
219.4083,27.0122
219.3991,27.0160
219.3904,27.0209
219.3856,27.0215
219.3812,27.0234
219.3713,27.0234
219.3614,27.0246
219.3567,27.0234
219.3520,27.0234
219.3428,27.0196
219.3331,27.0169
219.3293,27.0140
219.3249,27.0122
219.3179,27.0051
219.3100,26.9990
219.3056,26.9929
219.3042,26.9915
219.3037,26.9901
219.3015,26.9870
218.8702,26.2322
218.8702,26.9498
218.8687,26.9645
218.8575,26.9915
218.8368,27.0122
218.8098,27.0234
218.7805,27.0234
218.7535,27.0122
218.7328,26.9915
218.7216,26.9645
218.7202,26.9498
218.7202,25.9498
218.3940,25.9498
218.3940,26.9498
218.3925,26.9645
218.3813,26.9915
218.3606,27.0122
218.3336,27.0234
218.3043,27.0234
218.2773,27.0122
218.2566,26.9915
218.2454,26.9645
218.2440,26.9498
218.2440,25.9498
218.2454,25.9352
218.2566,25.9082
218.2773,25.8875
218.3043,25.8763
218.3336,25.8763
218.3606,25.8875
218.3813,25.9082
218.3925,25.9352
218.3940,25.9498
218.7202,25.9498
218.7205,25.9461
218.7204,25.9446
218.7209,25.9427
218.7216,25.9352
218.7254,25.9260
218.7281,25.9163
218.7310,25.9126
218.7328,25.9082
218.7399,25.9011
218.7460,25.8932
218.7501,25.8908
218.7535,25.8875
218.7627,25.8836
218.7714,25.8787
218.7761,25.8781
218.7805,25.8763
218.7905,25.8763
218.8004,25.8750
218.8050,25.8763
218.8098,25.8763
218.8190,25.8801
218.8286,25.8827
218.8324,25.8856
218.8368,25.8875
218.8439,25.8945
218.8518,25.9006
218.8561,25.9068
218.8575,25.9082
218.8581,25.9095
218.8603,25.9126
219.2916,26.6674
219.2916,25.9498
219.2930,25.9352
219.3042,25.9082
219.3249,25.8875
219.3520,25.8763
219.3812,25.8763
219.4083,25.8875
219.4290,25.9082
219.4402,25.9352
219.4416,25.9498
219.5527,25.9498
219.5527,25.7639
218.1329,25.7639
Z" /> 
<path style="fill:#000000; fill-opacity:1.0000; stroke:none;fill-rule:evenodd;"
d="M 108.2174,38.9003
108.2556,39.0148
108.3297,39.0889
108.4067,39.1274
108.5802,39.1708
108.7046,39.1708
108.8781,39.1274
108.9551,39.0889
109.0292,39.0148
109.0674,38.9003
109.0674,38.7494
108.2174,38.7494
Z" /> 
<path style="fill:#000000; fill-opacity:1.0000; stroke:none;fill-rule:evenodd;"
d="M 107.9563,39.4319
109.3285,39.4319
109.3285,38.6744
109.2174,38.6744
109.2174,38.9125
109.2167,38.9199
109.2168,38.9219
109.2162,38.9245
109.2159,38.9271
109.2152,38.9290
109.2135,38.9362
109.1659,39.0791
109.1599,39.0925
109.1582,39.0945
109.1571,39.0970
109.1478,39.1084
109.0526,39.2036
109.0468,39.2083
109.0455,39.2098
109.0433,39.2113
109.0412,39.2129
109.0394,39.2137
109.0331,39.2177
108.9378,39.2653
108.9368,39.2657
108.9363,39.2660
108.9302,39.2682
108.9241,39.2705
108.9236,39.2706
108.9225,39.2710
108.7320,39.3186
108.7295,39.3190
108.7284,39.3194
108.7229,39.3199
108.7175,39.3207
108.7164,39.3206
108.7138,39.3208
108.5710,39.3208
108.5684,39.3206
108.5673,39.3207
108.5618,39.3199
108.5563,39.3194
108.5553,39.3190
108.5528,39.3186
108.3623,39.2710
108.3612,39.2706
108.3607,39.2705
108.3546,39.2682
108.3484,39.2660
108.3480,39.2657
108.3469,39.2653
108.2517,39.2177
108.2454,39.2137
108.2436,39.2129
108.2415,39.2113
108.2393,39.2098
108.2380,39.2083
108.2322,39.2036
108.1370,39.1084
108.1276,39.0970
108.1266,39.0945
108.1248,39.0925
108.1188,39.0791
108.0712,38.9362
108.0696,38.9290
108.0688,38.9271
108.0686,38.9245
108.0680,38.9219
108.0681,38.9199
108.0674,38.9125
108.0674,38.6744
108.0688,38.6598
108.0800,38.6327
108.1007,38.6120
108.1277,38.6008
108.1424,38.5994
109.1424,38.5994
109.1570,38.6008
109.1840,38.6120
109.2047,38.6327
109.2159,38.6598
109.2174,38.6744
109.3285,38.6744
109.3285,37.6320
109.2172,37.6320
109.2159,37.6366
109.2159,37.6414
109.2121,37.6506
109.2095,37.6602
109.2066,37.6640
109.2047,37.6684
109.1977,37.6755
109.1916,37.6834
109.1854,37.6877
109.1840,37.6891
109.1827,37.6897
109.1796,37.6919
108.4248,38.1232
109.1424,38.1232
109.1570,38.1246
109.1840,38.1358
109.2047,38.1565
109.2159,38.1836
109.2159,38.2128
109.2047,38.2399
109.1840,38.2606
109.1570,38.2718
109.1424,38.2732
108.1424,38.2732
108.1386,38.2728
108.1371,38.2730
108.1352,38.2725
108.1277,38.2718
108.1185,38.2679
108.1089,38.2653
108.1051,38.2624
108.1007,38.2606
108.0937,38.2535
108.0858,38.2474
108.0834,38.2433
108.0800,38.2399
108.0762,38.2307
108.0713,38.2220
108.0707,38.2173
108.0688,38.2128
108.0688,38.2029
108.0676,38.1930
108.0688,38.1884
108.0688,38.1836
108.0726,38.1744
108.0753,38.1647
108.0782,38.1610
108.0800,38.1565
108.0871,38.1495
108.0932,38.1416
108.0993,38.1372
108.1007,38.1358
108.1021,38.1353
108.1052,38.1331
108.8600,37.7018
108.1424,37.7018
108.1277,37.7003
108.1007,37.6891
108.0800,37.6684
108.0688,37.6414
108.0688,37.6121
108.0800,37.5851
108.1007,37.5644
108.1277,37.5532
108.1424,37.5518
109.1424,37.5518
109.1461,37.5521
109.1476,37.5520
109.1495,37.5525
109.1570,37.5532
109.1662,37.5570
109.1759,37.5597
109.1796,37.5626
109.1840,37.5644
109.1911,37.5715
109.1990,37.5776
109.2014,37.5817
109.2047,37.5851
109.2086,37.5943
109.2135,37.6030
109.2141,37.6077
109.2159,37.6121
109.2159,37.6221
109.2172,37.6320
109.3285,37.6320
109.3285,36.9125
109.2174,36.9125
109.2174,37.0553
109.2159,37.0700
109.2149,37.0725
109.2147,37.0752
109.2095,37.0889
109.1618,37.1841
109.1540,37.1966
109.1319,37.2157
109.1041,37.2250
109.0750,37.2229
109.0488,37.2098
109.0296,37.1877
109.0204,37.1600
109.0224,37.1308
109.0277,37.1170
109.0674,37.0376
109.0674,36.9247
109.0292,36.8101
108.9551,36.7360
108.8781,36.6975
108.7046,36.6542
108.5802,36.6542
108.4067,36.6975
108.3297,36.7360
108.2556,36.8102
108.2174,36.9247
108.2174,36.9956
108.2556,37.1101
108.2687,37.1232
108.4960,37.1232
108.4960,37.0077
108.4974,36.9931
108.5086,36.9661
108.5293,36.9454
108.5563,36.9342
108.5856,36.9342
108.6126,36.9454
108.6333,36.9661
108.6445,36.9931
108.6460,37.0077
108.6460,37.1982
108.6445,37.2128
108.6445,37.2128
108.6333,37.2399
108.6126,37.2606
108.5856,37.2718
108.5710,37.2732
108.2376,37.2732
108.2230,37.2718
108.2118,37.2671
108.1960,37.2606
108.1846,37.2512
108.1370,37.2036
108.1276,37.1923
108.1266,37.1898
108.1248,37.1877
108.1188,37.1743
108.0712,37.0314
108.0696,37.0242
108.0688,37.0224
108.0686,37.0197
108.0680,37.0171
108.0681,37.0151
108.0674,37.0077
108.0674,36.9125
108.0681,36.9051
108.0680,36.9031
108.0686,36.9005
108.0688,36.8979
108.0696,36.8960
108.0712,36.8888
108.1188,36.7459
108.1248,36.7325
108.1266,36.7305
108.1276,36.7280
108.1370,36.7166
108.2322,36.6214
108.2380,36.6166
108.2393,36.6151
108.2415,36.6137
108.2436,36.6120
108.2454,36.6113
108.2517,36.6073
108.3469,36.5597
108.3480,36.5593
108.3484,36.5590
108.3546,36.5568
108.3607,36.5544
108.3612,36.5544
108.3623,36.5540
108.5528,36.5064
108.5553,36.5060
108.5563,36.5056
108.5618,36.5051
108.5673,36.5042
108.5684,36.5044
108.5710,36.5042
108.7138,36.5042
108.7164,36.5044
108.7175,36.5042
108.7229,36.5051
108.7284,36.5056
108.7295,36.5060
108.7320,36.5064
108.9225,36.5540
108.9236,36.5544
108.9241,36.5544
108.9302,36.5568
108.9363,36.5590
108.9368,36.5593
108.9378,36.5597
109.0331,36.6073
109.0394,36.6113
109.0412,36.6120
109.0433,36.6137
109.0455,36.6151
109.0468,36.6166
109.0526,36.6214
109.1478,36.7166
109.1571,36.7280
109.1582,36.7305
109.1599,36.7325
109.1659,36.7459
109.2135,36.8888
109.2152,36.8960
109.2159,36.8979
109.2162,36.9005
109.2168,36.9031
109.2167,36.9051
109.2174,36.9125
109.3285,36.9125
109.3285,36.3930
107.9563,36.3930
Z" /> 
</g>
<g style="fill:none; 
stroke:#000000; stroke-width:0.1500; stroke-opacity:1; 
stroke-linecap:round; stroke-linejoin:round;">
<text x="206.5022" y="119.9801"
textLength="21.5833" font-size="1.3333" lengthAdjust="spacingAndGlyphs"
text-anchor="start" opacity="0" stroke-opacity="0">Open Pedalboard Mainboard</text>
<g class="stroked-text"><desc>Open Pedalboard Mainboard</desc>
<path d="M207.0295 118.8499
L207.2199 118.8499
" />
<path d="M207.2199 118.8499
L207.3152 118.8975
" />
<path d="M207.3152 118.8975
L207.4104 118.9928
" />
<path d="M207.4104 118.9928
L207.4580 119.1833
" />
<path d="M207.4580 119.1833
L207.4580 119.5166
" />
<path d="M207.4580 119.5166
L207.4104 119.7071
" />
<path d="M207.4104 119.7071
L207.3152 119.8023
" />
<path d="M207.3152 119.8023
L207.2199 119.8499
" />
<path d="M207.2199 119.8499
L207.0295 119.8499
" />
<path d="M207.0295 119.8499
L206.9342 119.8023
" />
<path d="M206.9342 119.8023
L206.8390 119.7071
" />
<path d="M206.8390 119.7071
L206.7914 119.5166
" />
<path d="M206.7914 119.5166
L206.7914 119.1833
" />
<path d="M206.7914 119.1833
L206.8390 118.9928
" />
<path d="M206.8390 118.9928
L206.9342 118.8975
" />
<path d="M206.9342 118.8975
L207.0295 118.8499
" />
<path d="M207.8866 119.1833
L207.8866 120.1833
" />
<path d="M207.8866 119.2309
L207.9818 119.1833
" />
<path d="M207.9818 119.1833
L208.1723 119.1833
" />
<path d="M208.1723 119.1833
L208.2676 119.2309
" />
<path d="M208.2676 119.2309
L208.3152 119.2785
" />
<path d="M208.3152 119.2785
L208.3628 119.3737
" />
<path d="M208.3628 119.3737
L208.3628 119.6595
" />
<path d="M208.3628 119.6595
L208.3152 119.7547
" />
<path d="M208.3152 119.7547
L208.2676 119.8023
" />
<path d="M208.2676 119.8023
L208.1723 119.8499
" />
<path d="M208.1723 119.8499
L207.9818 119.8499
" />
<path d="M207.9818 119.8499
L207.8866 119.8023
" />
<path d="M209.1723 119.8023
L209.0771 119.8499
" />
<path d="M209.0771 119.8499
L208.8866 119.8499
" />
<path d="M208.8866 119.8499
L208.7914 119.8023
" />
<path d="M208.7914 119.8023
L208.7437 119.7071
" />
<path d="M208.7437 119.7071
L208.7437 119.3261
" />
<path d="M208.7437 119.3261
L208.7914 119.2309
" />
<path d="M208.7914 119.2309
L208.8866 119.1833
" />
<path d="M208.8866 119.1833
L209.0771 119.1833
" />
<path d="M209.0771 119.1833
L209.1723 119.2309
" />
<path d="M209.1723 119.2309
L209.2199 119.3261
" />
<path d="M209.2199 119.3261
L209.2199 119.4214
" />
<path d="M209.2199 119.4214
L208.7437 119.5166
" />
<path d="M209.6485 119.1833
L209.6485 119.8499
" />
<path d="M209.6485 119.2785
L209.6961 119.2309
" />
<path d="M209.6961 119.2309
L209.7914 119.1833
" />
<path d="M209.7914 119.1833
L209.9342 119.1833
" />
<path d="M209.9342 119.1833
L210.0295 119.2309
" />
<path d="M210.0295 119.2309
L210.0771 119.3261
" />
<path d="M210.0771 119.3261
L210.0771 119.8499
" />
<path d="M211.3152 119.8499
L211.3152 118.8499
" />
<path d="M211.3152 118.8499
L211.6961 118.8499
" />
<path d="M211.6961 118.8499
L211.7914 118.8975
" />
<path d="M211.7914 118.8975
L211.8390 118.9452
" />
<path d="M211.8390 118.9452
L211.8866 119.0404
" />
<path d="M211.8866 119.0404
L211.8866 119.1833
" />
<path d="M211.8866 119.1833
L211.8390 119.2785
" />
<path d="M211.8390 119.2785
L211.7914 119.3261
" />
<path d="M211.7914 119.3261
L211.6961 119.3737
" />
<path d="M211.6961 119.3737
L211.3152 119.3737
" />
<path d="M212.6961 119.8023
L212.6009 119.8499
" />
<path d="M212.6009 119.8499
L212.4104 119.8499
" />
<path d="M212.4104 119.8499
L212.3152 119.8023
" />
<path d="M212.3152 119.8023
L212.2676 119.7071
" />
<path d="M212.2676 119.7071
L212.2676 119.3261
" />
<path d="M212.2676 119.3261
L212.3152 119.2309
" />
<path d="M212.3152 119.2309
L212.4104 119.1833
" />
<path d="M212.4104 119.1833
L212.6009 119.1833
" />
<path d="M212.6009 119.1833
L212.6961 119.2309
" />
<path d="M212.6961 119.2309
L212.7437 119.3261
" />
<path d="M212.7437 119.3261
L212.7437 119.4214
" />
<path d="M212.7437 119.4214
L212.2676 119.5166
" />
<path d="M213.6009 119.8499
L213.6009 118.8499
" />
<path d="M213.6009 119.8023
L213.5056 119.8499
" />
<path d="M213.5056 119.8499
L213.3152 119.8499
" />
<path d="M213.3152 119.8499
L213.2199 119.8023
" />
<path d="M213.2199 119.8023
L213.1723 119.7547
" />
<path d="M213.1723 119.7547
L213.1247 119.6595
" />
<path d="M213.1247 119.6595
L213.1247 119.3737
" />
<path d="M213.1247 119.3737
L213.1723 119.2785
" />
<path d="M213.1723 119.2785
L213.2199 119.2309
" />
<path d="M213.2199 119.2309
L213.3152 119.1833
" />
<path d="M213.3152 119.1833
L213.5056 119.1833
" />
<path d="M213.5056 119.1833
L213.6009 119.2309
" />
<path d="M214.5056 119.8499
L214.5056 119.3261
" />
<path d="M214.5056 119.3261
L214.4580 119.2309
" />
<path d="M214.4580 119.2309
L214.3628 119.1833
" />
<path d="M214.3628 119.1833
L214.1723 119.1833
" />
<path d="M214.1723 119.1833
L214.0771 119.2309
" />
<path d="M214.5056 119.8023
L214.4104 119.8499
" />
<path d="M214.4104 119.8499
L214.1723 119.8499
" />
<path d="M214.1723 119.8499
L214.0771 119.8023
" />
<path d="M214.0771 119.8023
L214.0295 119.7071
" />
<path d="M214.0295 119.7071
L214.0295 119.6118
" />
<path d="M214.0295 119.6118
L214.0771 119.5166
" />
<path d="M214.0771 119.5166
L214.1723 119.4690
" />
<path d="M214.1723 119.4690
L214.4104 119.4690
" />
<path d="M214.4104 119.4690
L214.5056 119.4214
" />
<path d="M215.1247 119.8499
L215.0295 119.8023
" />
<path d="M215.0295 119.8023
L214.9818 119.7071
" />
<path d="M214.9818 119.7071
L214.9818 118.8499
" />
<path d="M215.5056 119.8499
L215.5056 118.8499
" />
<path d="M215.5056 119.2309
L215.6009 119.1833
" />
<path d="M215.6009 119.1833
L215.7914 119.1833
" />
<path d="M215.7914 119.1833
L215.8866 119.2309
" />
<path d="M215.8866 119.2309
L215.9342 119.2785
" />
<path d="M215.9342 119.2785
L215.9818 119.3737
" />
<path d="M215.9818 119.3737
L215.9818 119.6595
" />
<path d="M215.9818 119.6595
L215.9342 119.7547
" />
<path d="M215.9342 119.7547
L215.8866 119.8023
" />
<path d="M215.8866 119.8023
L215.7914 119.8499
" />
<path d="M215.7914 119.8499
L215.6009 119.8499
" />
<path d="M215.6009 119.8499
L215.5056 119.8023
" />
<path d="M216.5533 119.8499
L216.4580 119.8023
" />
<path d="M216.4580 119.8023
L216.4104 119.7547
" />
<path d="M216.4104 119.7547
L216.3628 119.6595
" />
<path d="M216.3628 119.6595
L216.3628 119.3737
" />
<path d="M216.3628 119.3737
L216.4104 119.2785
" />
<path d="M216.4104 119.2785
L216.4580 119.2309
" />
<path d="M216.4580 119.2309
L216.5533 119.1833
" />
<path d="M216.5533 119.1833
L216.6961 119.1833
" />
<path d="M216.6961 119.1833
L216.7914 119.2309
" />
<path d="M216.7914 119.2309
L216.8390 119.2785
" />
<path d="M216.8390 119.2785
L216.8866 119.3737
" />
<path d="M216.8866 119.3737
L216.8866 119.6595
" />
<path d="M216.8866 119.6595
L216.8390 119.7547
" />
<path d="M216.8390 119.7547
L216.7914 119.8023
" />
<path d="M216.7914 119.8023
L216.6961 119.8499
" />
<path d="M216.6961 119.8499
L216.5533 119.8499
" />
<path d="M217.7437 119.8499
L217.7437 119.3261
" />
<path d="M217.7437 119.3261
L217.6961 119.2309
" />
<path d="M217.6961 119.2309
L217.6009 119.1833
" />
<path d="M217.6009 119.1833
L217.4104 119.1833
" />
<path d="M217.4104 119.1833
L217.3152 119.2309
" />
<path d="M217.7437 119.8023
L217.6485 119.8499
" />
<path d="M217.6485 119.8499
L217.4104 119.8499
" />
<path d="M217.4104 119.8499
L217.3152 119.8023
" />
<path d="M217.3152 119.8023
L217.2676 119.7071
" />
<path d="M217.2676 119.7071
L217.2676 119.6118
" />
<path d="M217.2676 119.6118
L217.3152 119.5166
" />
<path d="M217.3152 119.5166
L217.4104 119.4690
" />
<path d="M217.4104 119.4690
L217.6485 119.4690
" />
<path d="M217.6485 119.4690
L217.7437 119.4214
" />
<path d="M218.2199 119.8499
L218.2199 119.1833
" />
<path d="M218.2199 119.3737
L218.2676 119.2785
" />
<path d="M218.2676 119.2785
L218.3152 119.2309
" />
<path d="M218.3152 119.2309
L218.4104 119.1833
" />
<path d="M218.4104 119.1833
L218.5056 119.1833
" />
<path d="M219.2676 119.8499
L219.2676 118.8499
" />
<path d="M219.2676 119.8023
L219.1723 119.8499
" />
<path d="M219.1723 119.8499
L218.9818 119.8499
" />
<path d="M218.9818 119.8499
L218.8866 119.8023
" />
<path d="M218.8866 119.8023
L218.8390 119.7547
" />
<path d="M218.8390 119.7547
L218.7914 119.6595
" />
<path d="M218.7914 119.6595
L218.7914 119.3737
" />
<path d="M218.7914 119.3737
L218.8390 119.2785
" />
<path d="M218.8390 119.2785
L218.8866 119.2309
" />
<path d="M218.8866 119.2309
L218.9818 119.1833
" />
<path d="M218.9818 119.1833
L219.1723 119.1833
" />
<path d="M219.1723 119.1833
L219.2676 119.2309
" />
<path d="M220.5056 119.8499
L220.5056 118.8499
" />
<path d="M220.5056 118.8499
L220.8390 119.5642
" />
<path d="M220.8390 119.5642
L221.1723 118.8499
" />
<path d="M221.1723 118.8499
L221.1723 119.8499
" />
<path d="M222.0771 119.8499
L222.0771 119.3261
" />
<path d="M222.0771 119.3261
L222.0295 119.2309
" />
<path d="M222.0295 119.2309
L221.9342 119.1833
" />
<path d="M221.9342 119.1833
L221.7437 119.1833
" />
<path d="M221.7437 119.1833
L221.6485 119.2309
" />
<path d="M222.0771 119.8023
L221.9818 119.8499
" />
<path d="M221.9818 119.8499
L221.7437 119.8499
" />
<path d="M221.7437 119.8499
L221.6485 119.8023
" />
<path d="M221.6485 119.8023
L221.6009 119.7071
" />
<path d="M221.6009 119.7071
L221.6009 119.6118
" />
<path d="M221.6009 119.6118
L221.6485 119.5166
" />
<path d="M221.6485 119.5166
L221.7437 119.4690
" />
<path d="M221.7437 119.4690
L221.9818 119.4690
" />
<path d="M221.9818 119.4690
L222.0771 119.4214
" />
<path d="M222.5533 119.8499
L222.5533 119.1833
" />
<path d="M222.5533 118.8499
L222.5056 118.8975
" />
<path d="M222.5056 118.8975
L222.5533 118.9452
" />
<path d="M222.5533 118.9452
L222.6009 118.8975
" />
<path d="M222.6009 118.8975
L222.5533 118.8499
" />
<path d="M222.5533 118.8499
L222.5533 118.9452
" />
<path d="M223.0295 119.1833
L223.0295 119.8499
" />
<path d="M223.0295 119.2785
L223.0771 119.2309
" />
<path d="M223.0771 119.2309
L223.1723 119.1833
" />
<path d="M223.1723 119.1833
L223.3152 119.1833
" />
<path d="M223.3152 119.1833
L223.4104 119.2309
" />
<path d="M223.4104 119.2309
L223.4580 119.3261
" />
<path d="M223.4580 119.3261
L223.4580 119.8499
" />
<path d="M223.9342 119.8499
L223.9342 118.8499
" />
<path d="M223.9342 119.2309
L224.0295 119.1833
" />
<path d="M224.0295 119.1833
L224.2199 119.1833
" />
<path d="M224.2199 119.1833
L224.3152 119.2309
" />
<path d="M224.3152 119.2309
L224.3628 119.2785
" />
<path d="M224.3628 119.2785
L224.4104 119.3737
" />
<path d="M224.4104 119.3737
L224.4104 119.6595
" />
<path d="M224.4104 119.6595
L224.3628 119.7547
" />
<path d="M224.3628 119.7547
L224.3152 119.8023
" />
<path d="M224.3152 119.8023
L224.2199 119.8499
" />
<path d="M224.2199 119.8499
L224.0295 119.8499
" />
<path d="M224.0295 119.8499
L223.9342 119.8023
" />
<path d="M224.9818 119.8499
L224.8866 119.8023
" />
<path d="M224.8866 119.8023
L224.8390 119.7547
" />
<path d="M224.8390 119.7547
L224.7914 119.6595
" />
<path d="M224.7914 119.6595
L224.7914 119.3737
" />
<path d="M224.7914 119.3737
L224.8390 119.2785
" />
<path d="M224.8390 119.2785
L224.8866 119.2309
" />
<path d="M224.8866 119.2309
L224.9818 119.1833
" />
<path d="M224.9818 119.1833
L225.1247 119.1833
" />
<path d="M225.1247 119.1833
L225.2199 119.2309
" />
<path d="M225.2199 119.2309
L225.2676 119.2785
" />
<path d="M225.2676 119.2785
L225.3152 119.3737
" />
<path d="M225.3152 119.3737
L225.3152 119.6595
" />
<path d="M225.3152 119.6595
L225.2676 119.7547
" />
<path d="M225.2676 119.7547
L225.2199 119.8023
" />
<path d="M225.2199 119.8023
L225.1247 119.8499
" />
<path d="M225.1247 119.8499
L224.9818 119.8499
" />
<path d="M226.1723 119.8499
L226.1723 119.3261
" />
<path d="M226.1723 119.3261
L226.1247 119.2309
" />
<path d="M226.1247 119.2309
L226.0295 119.1833
" />
<path d="M226.0295 119.1833
L225.8390 119.1833
" />
<path d="M225.8390 119.1833
L225.7437 119.2309
" />
<path d="M226.1723 119.8023
L226.0771 119.8499
" />
<path d="M226.0771 119.8499
L225.8390 119.8499
" />
<path d="M225.8390 119.8499
L225.7437 119.8023
" />
<path d="M225.7437 119.8023
L225.6961 119.7071
" />
<path d="M225.6961 119.7071
L225.6961 119.6118
" />
<path d="M225.6961 119.6118
L225.7437 119.5166
" />
<path d="M225.7437 119.5166
L225.8390 119.4690
" />
<path d="M225.8390 119.4690
L226.0771 119.4690
" />
<path d="M226.0771 119.4690
L226.1723 119.4214
" />
<path d="M226.6485 119.8499
L226.6485 119.1833
" />
<path d="M226.6485 119.3737
L226.6961 119.2785
" />
<path d="M226.6961 119.2785
L226.7437 119.2309
" />
<path d="M226.7437 119.2309
L226.8390 119.1833
" />
<path d="M226.8390 119.1833
L226.9342 119.1833
" />
<path d="M227.6961 119.8499
L227.6961 118.8499
" />
<path d="M227.6961 119.8023
L227.6009 119.8499
" />
<path d="M227.6009 119.8499
L227.4104 119.8499
" />
<path d="M227.4104 119.8499
L227.3152 119.8023
" />
<path d="M227.3152 119.8023
L227.2676 119.7547
" />
<path d="M227.2676 119.7547
L227.2199 119.6595
" />
<path d="M227.2199 119.6595
L227.2199 119.3737
" />
<path d="M227.2199 119.3737
L227.2676 119.2785
" />
<path d="M227.2676 119.2785
L227.3152 119.2309
" />
<path d="M227.3152 119.2309
L227.4104 119.1833
" />
<path d="M227.4104 119.1833
L227.6009 119.1833
" />
<path d="M227.6009 119.1833
L227.6961 119.2309
" />
</g><text x="206.5022" y="121.5901"
textLength="24.2024" font-size="1.3333" lengthAdjust="spacingAndGlyphs"
text-anchor="start" opacity="0" stroke-opacity="0">https://github.com/pedalboard</text>
<g class="stroked-text"><desc>https://github.com/pedalboard</desc>
<path d="M206.8390 121.4599
L206.8390 120.4599
" />
<path d="M207.2676 121.4599
L207.2676 120.9361
" />
<path d="M207.2676 120.9361
L207.2199 120.8408
" />
<path d="M207.2199 120.8408
L207.1247 120.7932
" />
<path d="M207.1247 120.7932
L206.9818 120.7932
" />
<path d="M206.9818 120.7932
L206.8866 120.8408
" />
<path d="M206.8866 120.8408
L206.8390 120.8884
" />
<path d="M207.6009 120.7932
L207.9818 120.7932
" />
<path d="M207.7437 120.4599
L207.7437 121.3170
" />
<path d="M207.7437 121.3170
L207.7914 121.4123
" />
<path d="M207.7914 121.4123
L207.8866 121.4599
" />
<path d="M207.8866 121.4599
L207.9818 121.4599
" />
<path d="M208.1723 120.7932
L208.5533 120.7932
" />
<path d="M208.3152 120.4599
L208.3152 121.3170
" />
<path d="M208.3152 121.3170
L208.3628 121.4123
" />
<path d="M208.3628 121.4123
L208.4580 121.4599
" />
<path d="M208.4580 121.4599
L208.5533 121.4599
" />
<path d="M208.8866 120.7932
L208.8866 121.7932
" />
<path d="M208.8866 120.8408
L208.9818 120.7932
" />
<path d="M208.9818 120.7932
L209.1723 120.7932
" />
<path d="M209.1723 120.7932
L209.2676 120.8408
" />
<path d="M209.2676 120.8408
L209.3152 120.8884
" />
<path d="M209.3152 120.8884
L209.3628 120.9837
" />
<path d="M209.3628 120.9837
L209.3628 121.2694
" />
<path d="M209.3628 121.2694
L209.3152 121.3646
" />
<path d="M209.3152 121.3646
L209.2676 121.4123
" />
<path d="M209.2676 121.4123
L209.1723 121.4599
" />
<path d="M209.1723 121.4599
L208.9818 121.4599
" />
<path d="M208.9818 121.4599
L208.8866 121.4123
" />
<path d="M209.7437 121.4123
L209.8390 121.4599
" />
<path d="M209.8390 121.4599
L210.0295 121.4599
" />
<path d="M210.0295 121.4599
L210.1247 121.4123
" />
<path d="M210.1247 121.4123
L210.1723 121.3170
" />
<path d="M210.1723 121.3170
L210.1723 121.2694
" />
<path d="M210.1723 121.2694
L210.1247 121.1742
" />
<path d="M210.1247 121.1742
L210.0295 121.1265
" />
<path d="M210.0295 121.1265
L209.8866 121.1265
" />
<path d="M209.8866 121.1265
L209.7914 121.0789
" />
<path d="M209.7914 121.0789
L209.7437 120.9837
" />
<path d="M209.7437 120.9837
L209.7437 120.9361
" />
<path d="M209.7437 120.9361
L209.7914 120.8408
" />
<path d="M209.7914 120.8408
L209.8866 120.7932
" />
<path d="M209.8866 120.7932
L210.0295 120.7932
" />
<path d="M210.0295 120.7932
L210.1247 120.8408
" />
<path d="M210.6009 121.3646
L210.6485 121.4123
" />
<path d="M210.6485 121.4123
L210.6009 121.4599
" />
<path d="M210.6009 121.4599
L210.5533 121.4123
" />
<path d="M210.5533 121.4123
L210.6009 121.3646
" />
<path d="M210.6009 121.3646
L210.6009 121.4599
" />
<path d="M210.6009 120.8408
L210.6485 120.8884
" />
<path d="M210.6485 120.8884
L210.6009 120.9361
" />
<path d="M210.6009 120.9361
L210.5533 120.8884
" />
<path d="M210.5533 120.8884
L210.6009 120.8408
" />
<path d="M210.6009 120.8408
L210.6009 120.9361
" />
<path d="M211.7914 120.4123
L210.9342 121.6980
" />
<path d="M212.8390 120.4123
L211.9818 121.6980
" />
<path d="M213.6009 120.7932
L213.6009 121.6027
" />
<path d="M213.6009 121.6027
L213.5533 121.6980
" />
<path d="M213.5533 121.6980
L213.5056 121.7456
" />
<path d="M213.5056 121.7456
L213.4104 121.7932
" />
<path d="M213.4104 121.7932
L213.2676 121.7932
" />
<path d="M213.2676 121.7932
L213.1723 121.7456
" />
<path d="M213.6009 121.4123
L213.5056 121.4599
" />
<path d="M213.5056 121.4599
L213.3152 121.4599
" />
<path d="M213.3152 121.4599
L213.2199 121.4123
" />
<path d="M213.2199 121.4123
L213.1723 121.3646
" />
<path d="M213.1723 121.3646
L213.1247 121.2694
" />
<path d="M213.1247 121.2694
L213.1247 120.9837
" />
<path d="M213.1247 120.9837
L213.1723 120.8884
" />
<path d="M213.1723 120.8884
L213.2199 120.8408
" />
<path d="M213.2199 120.8408
L213.3152 120.7932
" />
<path d="M213.3152 120.7932
L213.5056 120.7932
" />
<path d="M213.5056 120.7932
L213.6009 120.8408
" />
<path d="M214.0771 121.4599
L214.0771 120.7932
" />
<path d="M214.0771 120.4599
L214.0295 120.5075
" />
<path d="M214.0295 120.5075
L214.0771 120.5551
" />
<path d="M214.0771 120.5551
L214.1247 120.5075
" />
<path d="M214.1247 120.5075
L214.0771 120.4599
" />
<path d="M214.0771 120.4599
L214.0771 120.5551
" />
<path d="M214.4104 120.7932
L214.7914 120.7932
" />
<path d="M214.5533 120.4599
L214.5533 121.3170
" />
<path d="M214.5533 121.3170
L214.6009 121.4123
" />
<path d="M214.6009 121.4123
L214.6961 121.4599
" />
<path d="M214.6961 121.4599
L214.7914 121.4599
" />
<path d="M215.1247 121.4599
L215.1247 120.4599
" />
<path d="M215.5533 121.4599
L215.5533 120.9361
" />
<path d="M215.5533 120.9361
L215.5056 120.8408
" />
<path d="M215.5056 120.8408
L215.4104 120.7932
" />
<path d="M215.4104 120.7932
L215.2676 120.7932
" />
<path d="M215.2676 120.7932
L215.1723 120.8408
" />
<path d="M215.1723 120.8408
L215.1247 120.8884
" />
<path d="M216.4580 120.7932
L216.4580 121.4599
" />
<path d="M216.0295 120.7932
L216.0295 121.3170
" />
<path d="M216.0295 121.3170
L216.0771 121.4123
" />
<path d="M216.0771 121.4123
L216.1723 121.4599
" />
<path d="M216.1723 121.4599
L216.3152 121.4599
" />
<path d="M216.3152 121.4599
L216.4104 121.4123
" />
<path d="M216.4104 121.4123
L216.4580 121.3646
" />
<path d="M216.9342 121.4599
L216.9342 120.4599
" />
<path d="M216.9342 120.8408
L217.0295 120.7932
" />
<path d="M217.0295 120.7932
L217.2199 120.7932
" />
<path d="M217.2199 120.7932
L217.3152 120.8408
" />
<path d="M217.3152 120.8408
L217.3628 120.8884
" />
<path d="M217.3628 120.8884
L217.4104 120.9837
" />
<path d="M217.4104 120.9837
L217.4104 121.2694
" />
<path d="M217.4104 121.2694
L217.3628 121.3646
" />
<path d="M217.3628 121.3646
L217.3152 121.4123
" />
<path d="M217.3152 121.4123
L217.2199 121.4599
" />
<path d="M217.2199 121.4599
L217.0295 121.4599
" />
<path d="M217.0295 121.4599
L216.9342 121.4123
" />
<path d="M217.8390 121.3646
L217.8866 121.4123
" />
<path d="M217.8866 121.4123
L217.8390 121.4599
" />
<path d="M217.8390 121.4599
L217.7914 121.4123
" />
<path d="M217.7914 121.4123
L217.8390 121.3646
" />
<path d="M217.8390 121.3646
L217.8390 121.4599
" />
<path d="M218.7437 121.4123
L218.6485 121.4599
" />
<path d="M218.6485 121.4599
L218.4580 121.4599
" />
<path d="M218.4580 121.4599
L218.3628 121.4123
" />
<path d="M218.3628 121.4123
L218.3152 121.3646
" />
<path d="M218.3152 121.3646
L218.2676 121.2694
" />
<path d="M218.2676 121.2694
L218.2676 120.9837
" />
<path d="M218.2676 120.9837
L218.3152 120.8884
" />
<path d="M218.3152 120.8884
L218.3628 120.8408
" />
<path d="M218.3628 120.8408
L218.4580 120.7932
" />
<path d="M218.4580 120.7932
L218.6485 120.7932
" />
<path d="M218.6485 120.7932
L218.7437 120.8408
" />
<path d="M219.3152 121.4599
L219.2199 121.4123
" />
<path d="M219.2199 121.4123
L219.1723 121.3646
" />
<path d="M219.1723 121.3646
L219.1247 121.2694
" />
<path d="M219.1247 121.2694
L219.1247 120.9837
" />
<path d="M219.1247 120.9837
L219.1723 120.8884
" />
<path d="M219.1723 120.8884
L219.2199 120.8408
" />
<path d="M219.2199 120.8408
L219.3152 120.7932
" />
<path d="M219.3152 120.7932
L219.4580 120.7932
" />
<path d="M219.4580 120.7932
L219.5533 120.8408
" />
<path d="M219.5533 120.8408
L219.6009 120.8884
" />
<path d="M219.6009 120.8884
L219.6485 120.9837
" />
<path d="M219.6485 120.9837
L219.6485 121.2694
" />
<path d="M219.6485 121.2694
L219.6009 121.3646
" />
<path d="M219.6009 121.3646
L219.5533 121.4123
" />
<path d="M219.5533 121.4123
L219.4580 121.4599
" />
<path d="M219.4580 121.4599
L219.3152 121.4599
" />
<path d="M220.0771 121.4599
L220.0771 120.7932
" />
<path d="M220.0771 120.8884
L220.1247 120.8408
" />
<path d="M220.1247 120.8408
L220.2199 120.7932
" />
<path d="M220.2199 120.7932
L220.3628 120.7932
" />
<path d="M220.3628 120.7932
L220.4580 120.8408
" />
<path d="M220.4580 120.8408
L220.5056 120.9361
" />
<path d="M220.5056 120.9361
L220.5056 121.4599
" />
<path d="M220.5056 120.9361
L220.5533 120.8408
" />
<path d="M220.5533 120.8408
L220.6485 120.7932
" />
<path d="M220.6485 120.7932
L220.7914 120.7932
" />
<path d="M220.7914 120.7932
L220.8866 120.8408
" />
<path d="M220.8866 120.8408
L220.9342 120.9361
" />
<path d="M220.9342 120.9361
L220.9342 121.4599
" />
<path d="M222.1247 120.4123
L221.2676 121.6980
" />
<path d="M222.4580 120.7932
L222.4580 121.7932
" />
<path d="M222.4580 120.8408
L222.5533 120.7932
" />
<path d="M222.5533 120.7932
L222.7437 120.7932
" />
<path d="M222.7437 120.7932
L222.8390 120.8408
" />
<path d="M222.8390 120.8408
L222.8866 120.8884
" />
<path d="M222.8866 120.8884
L222.9342 120.9837
" />
<path d="M222.9342 120.9837
L222.9342 121.2694
" />
<path d="M222.9342 121.2694
L222.8866 121.3646
" />
<path d="M222.8866 121.3646
L222.8390 121.4123
" />
<path d="M222.8390 121.4123
L222.7437 121.4599
" />
<path d="M222.7437 121.4599
L222.5533 121.4599
" />
<path d="M222.5533 121.4599
L222.4580 121.4123
" />
<path d="M223.7437 121.4123
L223.6485 121.4599
" />
<path d="M223.6485 121.4599
L223.4580 121.4599
" />
<path d="M223.4580 121.4599
L223.3628 121.4123
" />
<path d="M223.3628 121.4123
L223.3152 121.3170
" />
<path d="M223.3152 121.3170
L223.3152 120.9361
" />
<path d="M223.3152 120.9361
L223.3628 120.8408
" />
<path d="M223.3628 120.8408
L223.4580 120.7932
" />
<path d="M223.4580 120.7932
L223.6485 120.7932
" />
<path d="M223.6485 120.7932
L223.7437 120.8408
" />
<path d="M223.7437 120.8408
L223.7914 120.9361
" />
<path d="M223.7914 120.9361
L223.7914 121.0313
" />
<path d="M223.7914 121.0313
L223.3152 121.1265
" />
<path d="M224.6485 121.4599
L224.6485 120.4599
" />
<path d="M224.6485 121.4123
L224.5533 121.4599
" />
<path d="M224.5533 121.4599
L224.3628 121.4599
" />
<path d="M224.3628 121.4599
L224.2676 121.4123
" />
<path d="M224.2676 121.4123
L224.2199 121.3646
" />
<path d="M224.2199 121.3646
L224.1723 121.2694
" />
<path d="M224.1723 121.2694
L224.1723 120.9837
" />
<path d="M224.1723 120.9837
L224.2199 120.8884
" />
<path d="M224.2199 120.8884
L224.2676 120.8408
" />
<path d="M224.2676 120.8408
L224.3628 120.7932
" />
<path d="M224.3628 120.7932
L224.5533 120.7932
" />
<path d="M224.5533 120.7932
L224.6485 120.8408
" />
<path d="M225.5533 121.4599
L225.5533 120.9361
" />
<path d="M225.5533 120.9361
L225.5056 120.8408
" />
<path d="M225.5056 120.8408
L225.4104 120.7932
" />
<path d="M225.4104 120.7932
L225.2199 120.7932
" />
<path d="M225.2199 120.7932
L225.1247 120.8408
" />
<path d="M225.5533 121.4123
L225.4580 121.4599
" />
<path d="M225.4580 121.4599
L225.2199 121.4599
" />
<path d="M225.2199 121.4599
L225.1247 121.4123
" />
<path d="M225.1247 121.4123
L225.0771 121.3170
" />
<path d="M225.0771 121.3170
L225.0771 121.2218
" />
<path d="M225.0771 121.2218
L225.1247 121.1265
" />
<path d="M225.1247 121.1265
L225.2199 121.0789
" />
<path d="M225.2199 121.0789
L225.4580 121.0789
" />
<path d="M225.4580 121.0789
L225.5533 121.0313
" />
<path d="M226.1723 121.4599
L226.0771 121.4123
" />
<path d="M226.0771 121.4123
L226.0295 121.3170
" />
<path d="M226.0295 121.3170
L226.0295 120.4599
" />
<path d="M226.5533 121.4599
L226.5533 120.4599
" />
<path d="M226.5533 120.8408
L226.6485 120.7932
" />
<path d="M226.6485 120.7932
L226.8390 120.7932
" />
<path d="M226.8390 120.7932
L226.9342 120.8408
" />
<path d="M226.9342 120.8408
L226.9818 120.8884
" />
<path d="M226.9818 120.8884
L227.0295 120.9837
" />
<path d="M227.0295 120.9837
L227.0295 121.2694
" />
<path d="M227.0295 121.2694
L226.9818 121.3646
" />
<path d="M226.9818 121.3646
L226.9342 121.4123
" />
<path d="M226.9342 121.4123
L226.8390 121.4599
" />
<path d="M226.8390 121.4599
L226.6485 121.4599
" />
<path d="M226.6485 121.4599
L226.5533 121.4123
" />
<path d="M227.6009 121.4599
L227.5056 121.4123
" />
<path d="M227.5056 121.4123
L227.4580 121.3646
" />
<path d="M227.4580 121.3646
L227.4104 121.2694
" />
<path d="M227.4104 121.2694
L227.4104 120.9837
" />
<path d="M227.4104 120.9837
L227.4580 120.8884
" />
<path d="M227.4580 120.8884
L227.5056 120.8408
" />
<path d="M227.5056 120.8408
L227.6009 120.7932
" />
<path d="M227.6009 120.7932
L227.7437 120.7932
" />
<path d="M227.7437 120.7932
L227.8390 120.8408
" />
<path d="M227.8390 120.8408
L227.8866 120.8884
" />
<path d="M227.8866 120.8884
L227.9342 120.9837
" />
<path d="M227.9342 120.9837
L227.9342 121.2694
" />
<path d="M227.9342 121.2694
L227.8866 121.3646
" />
<path d="M227.8866 121.3646
L227.8390 121.4123
" />
<path d="M227.8390 121.4123
L227.7437 121.4599
" />
<path d="M227.7437 121.4599
L227.6009 121.4599
" />
<path d="M228.7914 121.4599
L228.7914 120.9361
" />
<path d="M228.7914 120.9361
L228.7437 120.8408
" />
<path d="M228.7437 120.8408
L228.6485 120.7932
" />
<path d="M228.6485 120.7932
L228.4580 120.7932
" />
<path d="M228.4580 120.7932
L228.3628 120.8408
" />
<path d="M228.7914 121.4123
L228.6961 121.4599
" />
<path d="M228.6961 121.4599
L228.4580 121.4599
" />
<path d="M228.4580 121.4599
L228.3628 121.4123
" />
<path d="M228.3628 121.4123
L228.3152 121.3170
" />
<path d="M228.3152 121.3170
L228.3152 121.2218
" />
<path d="M228.3152 121.2218
L228.3628 121.1265
" />
<path d="M228.3628 121.1265
L228.4580 121.0789
" />
<path d="M228.4580 121.0789
L228.6961 121.0789
" />
<path d="M228.6961 121.0789
L228.7914 121.0313
" />
<path d="M229.2676 121.4599
L229.2676 120.7932
" />
<path d="M229.2676 120.9837
L229.3152 120.8884
" />
<path d="M229.3152 120.8884
L229.3628 120.8408
" />
<path d="M229.3628 120.8408
L229.4580 120.7932
" />
<path d="M229.4580 120.7932
L229.5533 120.7932
" />
<path d="M230.3152 121.4599
L230.3152 120.4599
" />
<path d="M230.3152 121.4123
L230.2199 121.4599
" />
<path d="M230.2199 121.4599
L230.0295 121.4599
" />
<path d="M230.0295 121.4599
L229.9342 121.4123
" />
<path d="M229.9342 121.4123
L229.8866 121.3646
" />
<path d="M229.8866 121.3646
L229.8390 121.2694
" />
<path d="M229.8390 121.2694
L229.8390 120.9837
" />
<path d="M229.8390 120.9837
L229.8866 120.8884
" />
<path d="M229.8866 120.8884
L229.9342 120.8408
" />
<path d="M229.9342 120.8408
L230.0295 120.7932
" />
<path d="M230.0295 120.7932
L230.2199 120.7932
" />
<path d="M230.2199 120.7932
L230.3152 120.8408
" />
</g><text x="206.5022" y="123.2000"
textLength="18.7262" font-size="1.3333" lengthAdjust="spacingAndGlyphs"
text-anchor="start" opacity="0" stroke-opacity="0">PCB: 4.0.1-RC 7cca403</text>
<g class="stroked-text"><desc>PCB: 4.0.1-RC 7cca403</desc>
<path d="M206.8390 123.0698
L206.8390 122.0698
" />
<path d="M206.8390 122.0698
L207.2199 122.0698
" />
<path d="M207.2199 122.0698
L207.3152 122.1174
" />
<path d="M207.3152 122.1174
L207.3628 122.1651
" />
<path d="M207.3628 122.1651
L207.4104 122.2603
" />
<path d="M207.4104 122.2603
L207.4104 122.4032
" />
<path d="M207.4104 122.4032
L207.3628 122.4984
" />
<path d="M207.3628 122.4984
L207.3152 122.5460
" />
<path d="M207.3152 122.5460
L207.2199 122.5936
" />
<path d="M207.2199 122.5936
L206.8390 122.5936
" />
<path d="M208.4104 122.9746
L208.3628 123.0222
" />
<path d="M208.3628 123.0222
L208.2199 123.0698
" />
<path d="M208.2199 123.0698
L208.1247 123.0698
" />
<path d="M208.1247 123.0698
L207.9818 123.0222
" />
<path d="M207.9818 123.0222
L207.8866 122.9270
" />
<path d="M207.8866 122.9270
L207.8390 122.8317
" />
<path d="M207.8390 122.8317
L207.7914 122.6412
" />
<path d="M207.7914 122.6412
L207.7914 122.4984
" />
<path d="M207.7914 122.4984
L207.8390 122.3079
" />
<path d="M207.8390 122.3079
L207.8866 122.2127
" />
<path d="M207.8866 122.2127
L207.9818 122.1174
" />
<path d="M207.9818 122.1174
L208.1247 122.0698
" />
<path d="M208.1247 122.0698
L208.2199 122.0698
" />
<path d="M208.2199 122.0698
L208.3628 122.1174
" />
<path d="M208.3628 122.1174
L208.4104 122.1651
" />
<path d="M209.1723 122.5460
L209.3152 122.5936
" />
<path d="M209.3152 122.5936
L209.3628 122.6412
" />
<path d="M209.3628 122.6412
L209.4104 122.7365
" />
<path d="M209.4104 122.7365
L209.4104 122.8793
" />
<path d="M209.4104 122.8793
L209.3628 122.9746
" />
<path d="M209.3628 122.9746
L209.3152 123.0222
" />
<path d="M209.3152 123.0222
L209.2199 123.0698
" />
<path d="M209.2199 123.0698
L208.8390 123.0698
" />
<path d="M208.8390 123.0698
L208.8390 122.0698
" />
<path d="M208.8390 122.0698
L209.1723 122.0698
" />
<path d="M209.1723 122.0698
L209.2676 122.1174
" />
<path d="M209.2676 122.1174
L209.3152 122.1651
" />
<path d="M209.3152 122.1651
L209.3628 122.2603
" />
<path d="M209.3628 122.2603
L209.3628 122.3555
" />
<path d="M209.3628 122.3555
L209.3152 122.4508
" />
<path d="M209.3152 122.4508
L209.2676 122.4984
" />
<path d="M209.2676 122.4984
L209.1723 122.5460
" />
<path d="M209.1723 122.5460
L208.8390 122.5460
" />
<path d="M209.8390 122.9746
L209.8866 123.0222
" />
<path d="M209.8866 123.0222
L209.8390 123.0698
" />
<path d="M209.8390 123.0698
L209.7914 123.0222
" />
<path d="M209.7914 123.0222
L209.8390 122.9746
" />
<path d="M209.8390 122.9746
L209.8390 123.0698
" />
<path d="M209.8390 122.4508
L209.8866 122.4984
" />
<path d="M209.8866 122.4984
L209.8390 122.5460
" />
<path d="M209.8390 122.5460
L209.7914 122.4984
" />
<path d="M209.7914 122.4984
L209.8390 122.4508
" />
<path d="M209.8390 122.4508
L209.8390 122.5460
" />
<path d="M211.5056 122.4032
L211.5056 123.0698
" />
<path d="M211.2676 122.0222
L211.0295 122.7365
" />
<path d="M211.0295 122.7365
L211.6485 122.7365
" />
<path d="M212.0295 122.9746
L212.0771 123.0222
" />
<path d="M212.0771 123.0222
L212.0295 123.0698
" />
<path d="M212.0295 123.0698
L211.9818 123.0222
" />
<path d="M211.9818 123.0222
L212.0295 122.9746
" />
<path d="M212.0295 122.9746
L212.0295 123.0698
" />
<path d="M212.6961 122.0698
L212.7914 122.0698
" />
<path d="M212.7914 122.0698
L212.8866 122.1174
" />
<path d="M212.8866 122.1174
L212.9342 122.1651
" />
<path d="M212.9342 122.1651
L212.9818 122.2603
" />
<path d="M212.9818 122.2603
L213.0295 122.4508
" />
<path d="M213.0295 122.4508
L213.0295 122.6889
" />
<path d="M213.0295 122.6889
L212.9818 122.8793
" />
<path d="M212.9818 122.8793
L212.9342 122.9746
" />
<path d="M212.9342 122.9746
L212.8866 123.0222
" />
<path d="M212.8866 123.0222
L212.7914 123.0698
" />
<path d="M212.7914 123.0698
L212.6961 123.0698
" />
<path d="M212.6961 123.0698
L212.6009 123.0222
" />
<path d="M212.6009 123.0222
L212.5533 122.9746
" />
<path d="M212.5533 122.9746
L212.5056 122.8793
" />
<path d="M212.5056 122.8793
L212.4580 122.6889
" />
<path d="M212.4580 122.6889
L212.4580 122.4508
" />
<path d="M212.4580 122.4508
L212.5056 122.2603
" />
<path d="M212.5056 122.2603
L212.5533 122.1651
" />
<path d="M212.5533 122.1651
L212.6009 122.1174
" />
<path d="M212.6009 122.1174
L212.6961 122.0698
" />
<path d="M213.4580 122.9746
L213.5056 123.0222
" />
<path d="M213.5056 123.0222
L213.4580 123.0698
" />
<path d="M213.4580 123.0698
L213.4104 123.0222
" />
<path d="M213.4104 123.0222
L213.4580 122.9746
" />
<path d="M213.4580 122.9746
L213.4580 123.0698
" />
<path d="M214.4580 123.0698
L213.8866 123.0698
" />
<path d="M214.1723 123.0698
L214.1723 122.0698
" />
<path d="M214.1723 122.0698
L214.0771 122.2127
" />
<path d="M214.0771 122.2127
L213.9818 122.3079
" />
<path d="M213.9818 122.3079
L213.8866 122.3555
" />
<path d="M214.8866 122.6889
L215.6485 122.6889
" />
<path d="M216.6961 123.0698
L216.3628 122.5936
" />
<path d="M216.1247 123.0698
L216.1247 122.0698
" />
<path d="M216.1247 122.0698
L216.5056 122.0698
" />
<path d="M216.5056 122.0698
L216.6009 122.1174
" />
<path d="M216.6009 122.1174
L216.6485 122.1651
" />
<path d="M216.6485 122.1651
L216.6961 122.2603
" />
<path d="M216.6961 122.2603
L216.6961 122.4032
" />
<path d="M216.6961 122.4032
L216.6485 122.4984
" />
<path d="M216.6485 122.4984
L216.6009 122.5460
" />
<path d="M216.6009 122.5460
L216.5056 122.5936
" />
<path d="M216.5056 122.5936
L216.1247 122.5936
" />
<path d="M217.6961 122.9746
L217.6485 123.0222
" />
<path d="M217.6485 123.0222
L217.5056 123.0698
" />
<path d="M217.5056 123.0698
L217.4104 123.0698
" />
<path d="M217.4104 123.0698
L217.2675 123.0222
" />
<path d="M217.2675 123.0222
L217.1723 122.9270
" />
<path d="M217.1723 122.9270
L217.1247 122.8317
" />
<path d="M217.1247 122.8317
L217.0771 122.6412
" />
<path d="M217.0771 122.6412
L217.0771 122.4984
" />
<path d="M217.0771 122.4984
L217.1247 122.3079
" />
<path d="M217.1247 122.3079
L217.1723 122.2127
" />
<path d="M217.1723 122.2127
L217.2675 122.1174
" />
<path d="M217.2675 122.1174
L217.4104 122.0698
" />
<path d="M217.4104 122.0698
L217.5056 122.0698
" />
<path d="M217.5056 122.0698
L217.6485 122.1174
" />
<path d="M217.6485 122.1174
L217.6961 122.1651
" />
<path d="M218.7914 122.0698
L219.4580 122.0698
" />
<path d="M219.4580 122.0698
L219.0295 123.0698
" />
<path d="M220.2675 123.0222
L220.1723 123.0698
" />
<path d="M220.1723 123.0698
L219.9818 123.0698
" />
<path d="M219.9818 123.0698
L219.8866 123.0222
" />
<path d="M219.8866 123.0222
L219.8390 122.9746
" />
<path d="M219.8390 122.9746
L219.7914 122.8793
" />
<path d="M219.7914 122.8793
L219.7914 122.5936
" />
<path d="M219.7914 122.5936
L219.8390 122.4984
" />
<path d="M219.8390 122.4984
L219.8866 122.4508
" />
<path d="M219.8866 122.4508
L219.9818 122.4032
" />
<path d="M219.9818 122.4032
L220.1723 122.4032
" />
<path d="M220.1723 122.4032
L220.2675 122.4508
" />
<path d="M221.1247 123.0222
L221.0295 123.0698
" />
<path d="M221.0295 123.0698
L220.8390 123.0698
" />
<path d="M220.8390 123.0698
L220.7437 123.0222
" />
<path d="M220.7437 123.0222
L220.6961 122.9746
" />
<path d="M220.6961 122.9746
L220.6485 122.8793
" />
<path d="M220.6485 122.8793
L220.6485 122.5936
" />
<path d="M220.6485 122.5936
L220.6961 122.4984
" />
<path d="M220.6961 122.4984
L220.7437 122.4508
" />
<path d="M220.7437 122.4508
L220.8390 122.4032
" />
<path d="M220.8390 122.4032
L221.0295 122.4032
" />
<path d="M221.0295 122.4032
L221.1247 122.4508
" />
<path d="M221.9818 123.0698
L221.9818 122.5460
" />
<path d="M221.9818 122.5460
L221.9342 122.4508
" />
<path d="M221.9342 122.4508
L221.8390 122.4032
" />
<path d="M221.8390 122.4032
L221.6485 122.4032
" />
<path d="M221.6485 122.4032
L221.5533 122.4508
" />
<path d="M221.9818 123.0222
L221.8866 123.0698
" />
<path d="M221.8866 123.0698
L221.6485 123.0698
" />
<path d="M221.6485 123.0698
L221.5533 123.0222
" />
<path d="M221.5533 123.0222
L221.5056 122.9270
" />
<path d="M221.5056 122.9270
L221.5056 122.8317
" />
<path d="M221.5056 122.8317
L221.5533 122.7365
" />
<path d="M221.5533 122.7365
L221.6485 122.6889
" />
<path d="M221.6485 122.6889
L221.8866 122.6889
" />
<path d="M221.8866 122.6889
L221.9818 122.6412
" />
<path d="M222.8866 122.4032
L222.8866 123.0698
" />
<path d="M222.6485 122.0222
L222.4104 122.7365
" />
<path d="M222.4104 122.7365
L223.0295 122.7365
" />
<path d="M223.6009 122.0698
L223.6961 122.0698
" />
<path d="M223.6961 122.0698
L223.7914 122.1174
" />
<path d="M223.7914 122.1174
L223.8390 122.1651
" />
<path d="M223.8390 122.1651
L223.8866 122.2603
" />
<path d="M223.8866 122.2603
L223.9342 122.4508
" />
<path d="M223.9342 122.4508
L223.9342 122.6889
" />
<path d="M223.9342 122.6889
L223.8866 122.8793
" />
<path d="M223.8866 122.8793
L223.8390 122.9746
" />
<path d="M223.8390 122.9746
L223.7914 123.0222
" />
<path d="M223.7914 123.0222
L223.6961 123.0698
" />
<path d="M223.6961 123.0698
L223.6009 123.0698
" />
<path d="M223.6009 123.0698
L223.5056 123.0222
" />
<path d="M223.5056 123.0222
L223.4580 122.9746
" />
<path d="M223.4580 122.9746
L223.4104 122.8793
" />
<path d="M223.4104 122.8793
L223.3628 122.6889
" />
<path d="M223.3628 122.6889
L223.3628 122.4508
" />
<path d="M223.3628 122.4508
L223.4104 122.2603
" />
<path d="M223.4104 122.2603
L223.4580 122.1651
" />
<path d="M223.4580 122.1651
L223.5056 122.1174
" />
<path d="M223.5056 122.1174
L223.6009 122.0698
" />
<path d="M224.2676 122.0698
L224.8866 122.0698
" />
<path d="M224.8866 122.0698
L224.5533 122.4508
" />
<path d="M224.5533 122.4508
L224.6961 122.4508
" />
<path d="M224.6961 122.4508
L224.7914 122.4984
" />
<path d="M224.7914 122.4984
L224.8390 122.5460
" />
<path d="M224.8390 122.5460
L224.8866 122.6412
" />
<path d="M224.8866 122.6412
L224.8866 122.8793
" />
<path d="M224.8866 122.8793
L224.8390 122.9746
" />
<path d="M224.8390 122.9746
L224.7914 123.0222
" />
<path d="M224.7914 123.0222
L224.6961 123.0698
" />
<path d="M224.6961 123.0698
L224.4104 123.0698
" />
<path d="M224.4104 123.0698
L224.3152 123.0222
" />
<path d="M224.3152 123.0222
L224.2676 122.9746
" />
</g><path style="fill:#000000; fill-opacity:1.0000; stroke:none;fill-rule:evenodd;"
d="M 262.5636,45.3972
262.5978,45.4657
262.6282,45.4961
262.6968,45.5303
262.8042,45.5303
262.8727,45.4961
262.9031,45.4657
262.9374,45.3972
262.9374,45.1089
262.5636,45.1089
Z" /> 
<path style="fill:#000000; fill-opacity:1.0000; stroke:none;fill-rule:evenodd;"
d="M 261.8263,47.5995
263.1985,47.5995
263.1985,46.9387
263.0874,46.9387
263.0874,47.4149
263.0859,47.4295
263.0747,47.4565
263.0540,47.4772
263.0270,47.4884
262.9977,47.4884
262.9707,47.4772
262.9500,47.4565
262.9388,47.4295
262.9374,47.4149
262.9374,47.0137
262.6112,47.0137
262.6112,47.2720
262.6097,47.2866
262.5986,47.3137
262.5779,47.3344
262.5508,47.3456
262.5216,47.3456
262.4945,47.3344
262.4738,47.3137
262.4626,47.2866
262.4612,47.2720
262.4612,47.0137
262.0124,47.0137
261.9977,47.0122
261.9707,47.0010
261.9500,46.9804
261.9388,46.9533
261.9388,46.9241
261.9500,46.8970
261.9707,46.8763
261.9977,46.8651
262.0124,46.8637
263.0124,46.8637
263.0270,46.8651
263.0540,46.8763
263.0747,46.8970
263.0859,46.9241
263.0874,46.9387
263.1985,46.9387
263.1985,46.0339
263.0874,46.0339
263.0874,46.5101
263.0859,46.5247
263.0747,46.5518
263.0540,46.5725
263.0270,46.5837
262.9977,46.5837
262.9707,46.5725
262.9500,46.5518
262.9388,46.5247
262.9374,46.5101
262.9374,46.1089
262.6112,46.1089
262.6112,46.3673
262.6097,46.3819
262.5986,46.4089
262.5779,46.4296
262.5508,46.4408
262.5216,46.4408
262.4945,46.4296
262.4738,46.4089
262.4626,46.3819
262.4612,46.3673
262.4612,46.1089
262.0874,46.1089
262.0874,46.5101
262.0859,46.5247
262.0747,46.5518
262.0540,46.5725
262.0270,46.5837
261.9977,46.5837
261.9707,46.5725
261.9500,46.5518
261.9388,46.5247
261.9374,46.5101
261.9374,46.0339
261.9388,46.0193
261.9500,45.9923
261.9707,45.9716
261.9977,45.9604
262.0124,45.9589
263.0124,45.9589
263.0270,45.9604
263.0540,45.9716
263.0747,45.9923
263.0859,46.0193
263.0874,46.0339
263.1985,46.0339
263.1985,45.0339
263.0874,45.0339
263.0874,45.4149
263.0859,45.4295
263.0849,45.4320
263.0847,45.4347
263.0795,45.4484
263.0318,45.5437
263.0279,45.5500
263.0271,45.5518
263.0254,45.5538
263.0240,45.5561
263.0225,45.5574
263.0178,45.5631
262.9702,45.6108
262.9644,45.6155
262.9631,45.6170
262.9609,45.6184
262.9588,45.6201
262.9570,45.6208
262.9507,45.6248
262.8554,45.6724
262.8417,45.6777
262.8390,45.6779
262.8365,45.6789
262.8219,45.6803
262.6790,45.6803
262.6644,45.6789
262.6619,45.6779
262.6592,45.6777
262.6455,45.6724
262.5503,45.6248
262.5440,45.6208
262.5421,45.6201
262.5401,45.6184
262.5378,45.6170
262.5365,45.6155
262.5308,45.6108
262.4832,45.5631
262.4784,45.5574
262.4769,45.5561
262.4755,45.5538
262.4738,45.5518
262.4731,45.5500
262.4691,45.5437
262.4215,45.4484
262.4162,45.4347
262.4160,45.4320
262.4150,45.4295
262.4137,45.4160
262.0554,45.6668
262.0426,45.6740
262.0140,45.6803
261.9852,45.6752
261.9605,45.6595
261.9437,45.6355
261.9374,45.6070
261.9425,45.5782
261.9582,45.5535
261.9694,45.5439
262.4136,45.2330
262.4136,45.1089
262.0124,45.1089
261.9977,45.1075
261.9707,45.0963
261.9500,45.0756
261.9388,45.0486
261.9388,45.0193
261.9500,44.9923
261.9707,44.9716
261.9977,44.9604
262.0124,44.9589
263.0124,44.9589
263.0270,44.9604
263.0540,44.9716
263.0747,44.9923
263.0859,45.0193
263.0874,45.0339
263.1985,45.0339
263.1985,44.0245
263.0868,44.0245
263.0847,44.0537
263.0716,44.0799
263.0495,44.0991
263.0361,44.1051
262.2496,44.3673
263.0361,44.6294
263.0495,44.6354
263.0716,44.6546
263.0847,44.6808
263.0868,44.7100
263.0775,44.7377
263.0584,44.7598
263.0322,44.7729
263.0030,44.7750
262.9887,44.7717
261.9887,44.4384
261.9752,44.4324
261.9712,44.4289
261.9664,44.4265
261.9602,44.4194
261.9531,44.4132
261.9507,44.4084
261.9472,44.4044
261.9443,44.3955
261.9400,44.3871
261.9397,44.3817
261.9380,44.3766
261.9386,44.3673
261.9380,44.3579
261.9397,44.3528
261.9400,44.3474
261.9443,44.3390
261.9472,44.3301
261.9507,44.3261
261.9531,44.3213
261.9602,44.3151
261.9664,44.3080
261.9712,44.3056
261.9752,44.3021
261.9887,44.2961
262.9887,43.9628
263.0030,43.9595
263.0322,43.9616
263.0584,43.9747
263.0775,43.9968
263.0868,44.0245
263.1985,44.0245
263.1985,43.8484
261.8263,43.8484
Z" /> 
<path style="fill:#000000; fill-opacity:1.0000; stroke:none;fill-rule:evenodd;"
d="M 239.0816,23.0336
239.3516,23.0336
239.5375,22.9716
239.6592,22.8499
239.7215,22.7253
239.7887,22.4565
239.7887,22.2607
239.7215,21.9919
239.6592,21.8673
239.5375,21.7456
239.3516,21.6836
239.0816,21.6836
Z" /> 
<path style="fill:#000000; fill-opacity:1.0000; stroke:none;fill-rule:evenodd;"
d="M 236.3364,23.3503
240.7483,23.3503
240.7483,21.6086
240.5816,21.6086
240.5816,23.1086
240.5802,23.1233
240.5690,23.1503
240.5483,23.1710
240.5212,23.1822
240.4920,23.1822
240.4649,23.1710
240.4442,23.1503
240.4330,23.1233
240.4316,23.1086
240.4316,22.2515
239.9387,22.2515
239.9387,22.4658
239.9385,22.4683
239.9387,22.4694
239.9378,22.4749
239.9373,22.4804
239.9369,22.4814
239.9365,22.4840
239.8651,22.7697
239.8647,22.7708
239.8647,22.7713
239.8623,22.7774
239.8601,22.7835
239.8598,22.7840
239.8594,22.7850
239.7880,22.9279
239.7840,22.9342
239.7832,22.9360
239.7816,22.9381
239.7801,22.9403
239.7786,22.9416
239.7739,22.9474
239.6311,23.0902
239.6197,23.0996
239.6172,23.1006
239.6152,23.1024
239.6017,23.1084
239.3875,23.1798
239.3802,23.1814
239.3784,23.1822
239.3757,23.1824
239.3731,23.1830
239.3711,23.1829
239.3637,23.1836
239.0066,23.1836
238.9920,23.1822
238.9649,23.1710
238.9442,23.1503
238.9330,23.1233
238.9316,23.1086
238.9316,21.6086
238.3673,21.6086
238.3673,23.1086
238.3659,23.1233
238.3547,23.1503
238.3340,23.1710
238.3069,23.1822
238.2777,23.1822
238.2506,23.1710
238.2300,23.1503
238.2188,23.1233
238.2173,23.1086
238.2173,21.6086
237.6530,21.6086
237.6530,23.1086
237.6516,23.1233
237.6404,23.1503
237.6197,23.1710
237.5927,23.1822
237.5634,23.1822
237.5364,23.1710
237.5157,23.1503
237.5045,23.1233
237.5030,23.1086
237.5030,21.9467
237.1460,22.7118
237.1428,22.7171
237.1422,22.7189
237.1410,22.7202
237.1385,22.7244
237.1301,22.7321
237.1224,22.7405
237.1194,22.7419
237.1169,22.7442
237.1062,22.7481
237.0959,22.7529
237.0925,22.7530
237.0894,22.7542
237.0780,22.7537
237.0666,22.7542
237.0635,22.7530
237.0602,22.7529
237.0498,22.7481
237.0391,22.7442
237.0367,22.7419
237.0337,22.7405
237.0260,22.7321
237.0176,22.7244
237.0151,22.7202
237.0139,22.7189
237.0132,22.7171
237.0101,22.7118
236.6530,21.9467
236.6530,23.1086
236.6516,23.1233
236.6404,23.1503
236.6197,23.1710
236.5927,23.1822
236.5634,23.1822
236.5364,23.1710
236.5157,23.1503
236.5045,23.1233
236.5030,23.1086
236.5030,21.6086
236.5040,21.5990
236.5039,21.5972
236.5042,21.5963
236.5045,21.5940
236.5094,21.5820
236.5139,21.5697
236.5150,21.5685
236.5157,21.5670
236.5249,21.5578
236.5337,21.5482
236.5352,21.5474
236.5364,21.5463
236.5484,21.5413
236.5602,21.5358
236.5619,21.5357
236.5634,21.5351
236.5764,21.5351
236.5894,21.5345
236.5910,21.5351
236.5927,21.5351
236.6047,21.5400
236.6169,21.5445
236.6181,21.5456
236.6197,21.5463
236.6289,21.5555
236.6385,21.5643
236.6397,21.5662
236.6404,21.5670
236.6411,21.5686
236.6460,21.5769
237.0780,22.5027
237.5101,21.5769
237.5150,21.5686
237.5157,21.5670
237.5164,21.5662
237.5176,21.5643
237.5272,21.5555
237.5364,21.5463
237.5379,21.5456
237.5391,21.5445
237.5514,21.5400
237.5634,21.5351
237.5651,21.5351
237.5666,21.5345
237.5796,21.5351
237.5927,21.5351
237.5942,21.5357
237.5959,21.5358
237.6077,21.5413
237.6197,21.5463
237.6209,21.5474
237.6224,21.5482
237.6312,21.5578
237.6404,21.5670
237.6410,21.5685
237.6422,21.5697
237.6466,21.5820
237.6516,21.5940
237.6518,21.5963
237.6522,21.5972
237.6521,21.5990
237.6530,21.6086
238.2173,21.6086
238.2188,21.5940
238.2300,21.5670
238.2506,21.5463
238.2777,21.5351
238.3069,21.5351
238.3340,21.5463
238.3547,21.5670
238.3659,21.5940
238.3673,21.6086
238.9316,21.6086
238.9330,21.5940
238.9442,21.5670
238.9649,21.5463
238.9920,21.5351
239.0066,21.5336
239.3637,21.5336
239.3711,21.5344
239.3731,21.5342
239.3757,21.5348
239.3784,21.5351
239.3802,21.5358
239.3875,21.5375
239.6017,21.6089
239.6152,21.6149
239.6172,21.6167
239.6197,21.6177
239.6311,21.6270
239.7739,21.7699
239.7786,21.7756
239.7801,21.7769
239.7816,21.7792
239.7832,21.7812
239.7840,21.7831
239.7880,21.7894
239.8594,21.9322
239.8598,21.9333
239.8601,21.9337
239.8623,21.9399
239.8647,21.9460
239.8647,21.9465
239.8651,21.9476
239.9365,22.2333
239.9369,22.2358
239.9373,22.2369
239.9378,22.2424
239.9387,22.2478
239.9385,22.2489
239.9387,22.2515
240.4316,22.2515
240.4316,21.6086
240.4330,21.5940
240.4442,21.5670
240.4649,21.5463
240.4920,21.5351
240.5212,21.5351
240.5483,21.5463
240.5690,21.5670
240.5802,21.5940
240.5816,21.6086
240.7483,21.6086
240.7483,21.3670
236.3364,21.3670
Z" /> 
</g>
<g style="fill:none; 
stroke:#000000; stroke-width:0.1500; stroke-opacity:1; 
stroke-linecap:round; stroke-linejoin:round;">
<g transform="rotate(90.000000 162.5614 56.8516)">
<text x="162.5614" y="56.8516"
textLength="1.6310" font-size="1.3333" lengthAdjust="spacingAndGlyphs"
text-anchor="start" opacity="0" stroke-opacity="0">in</text>
</g>
<g class="stroked-text"><desc>in</desc>
<path d="M162.6916 57.1884
L163.3582 57.1884
" />
<path d="M163.6916 57.1884
L163.6440 57.1408
" />
<path d="M163.6440 57.1408
L163.5963 57.1884
" />
<path d="M163.5963 57.1884
L163.6440 57.2360
" />
<path d="M163.6440 57.2360
L163.6916 57.1884
" />
<path d="M163.6916 57.1884
L163.5963 57.1884
" />
<path d="M163.3582 57.6646
L162.6916 57.6646
" />
<path d="M163.2630 57.6646
L163.3106 57.7122
" />
<path d="M163.3106 57.7122
L163.3582 57.8074
" />
<path d="M163.3582 57.8074
L163.3582 57.9503
" />
<path d="M163.3582 57.9503
L163.3106 58.0455
" />
<path d="M163.3106 58.0455
L163.2154 58.0931
" />
<path d="M163.2154 58.0931
L162.6916 58.0931
" />
</g><path style="fill:#000000; fill-opacity:1.0000; stroke:none;fill-rule:evenodd;"
d="M 114.3965,37.6605
115.7683,37.6605
115.7683,36.9082
115.6572,36.9082
115.6559,36.9128
115.6559,36.9176
115.6521,36.9268
115.6495,36.9364
115.6466,36.9402
115.6447,36.9446
115.6377,36.9517
115.6316,36.9596
115.6254,36.9639
115.6240,36.9653
115.6227,36.9659
115.6196,36.9681
114.8648,37.3994
115.5824,37.3994
115.5970,37.4008
115.6240,37.4120
115.6447,37.4327
115.6559,37.4598
115.6559,37.4890
115.6447,37.5161
115.6240,37.5368
115.5970,37.5480
115.5824,37.5494
114.5824,37.5494
114.5786,37.5490
114.5771,37.5492
114.5752,37.5487
114.5677,37.5480
114.5585,37.5441
114.5489,37.5415
114.5451,37.5386
114.5407,37.5368
114.5337,37.5297
114.5258,37.5236
114.5234,37.5194
114.5200,37.5161
114.5162,37.5069
114.5113,37.4982
114.5107,37.4934
114.5088,37.4890
114.5088,37.4791
114.5076,37.4692
114.5088,37.4645
114.5088,37.4598
114.5126,37.4505
114.5153,37.4409
114.5182,37.4371
114.5200,37.4327
114.5271,37.4257
114.5332,37.4178
114.5393,37.4134
114.5407,37.4120
114.5421,37.4115
114.5452,37.4093
115.3000,36.9780
114.5824,36.9780
114.5677,36.9765
114.5407,36.9653
114.5200,36.9446
114.5088,36.9176
114.5088,36.8883
114.5200,36.8613
114.5407,36.8406
114.5677,36.8294
114.5824,36.8280
115.5824,36.8280
115.5861,36.8283
115.5876,36.8282
115.5895,36.8287
115.5970,36.8294
115.6062,36.8332
115.6159,36.8359
115.6196,36.8388
115.6240,36.8406
115.6311,36.8477
115.6390,36.8538
115.6414,36.8579
115.6447,36.8613
115.6486,36.8705
115.6535,36.8792
115.6541,36.8839
115.6559,36.8883
115.6559,36.8983
115.6572,36.9082
115.7683,36.9082
115.7683,36.4121
115.6559,36.4121
115.6559,36.4414
115.6447,36.4684
115.6240,36.4891
115.5970,36.5003
115.5824,36.5018
114.5824,36.5018
114.5677,36.5003
114.5407,36.4891
114.5200,36.4684
114.5088,36.4414
114.5088,36.4121
114.5200,36.3851
114.5407,36.3644
114.5677,36.3532
114.5824,36.3518
115.5824,36.3518
115.5970,36.3532
115.6240,36.3644
115.6447,36.3851
115.6559,36.4121
115.7683,36.4121
115.7683,36.2407
114.3965,36.2407
Z" /> 
<path style="fill:#000000; fill-opacity:1.0000; stroke:none;fill-rule:evenodd;"
d="M 232.8886,26.2991
232.8167,26.3710
232.7764,26.5324
232.7764,26.8473
232.8167,27.0086
232.8886,27.0806
232.9572,27.1148
233.1122,27.1148
233.1807,27.0806
233.2527,27.0086
233.2930,26.8473
233.2930,26.5324
233.2527,26.3710
233.1807,26.2991
233.1122,26.2648
232.9572,26.2648
Z" /> 
<path style="fill:#000000; fill-opacity:1.0000; stroke:none;fill-rule:evenodd;"
d="M 232.5152,27.3759
235.4575,27.3759
235.4575,26.1752
235.3463,26.1752
235.3463,26.2045
235.3351,26.2315
235.3145,26.2522
235.2874,26.2634
235.2728,26.2648
235.0621,26.2648
235.0621,27.1898
235.0606,27.2045
235.0494,27.2315
235.0287,27.2522
235.0017,27.2634
234.9724,27.2634
234.9454,27.2522
234.9247,27.2315
234.9135,27.2045
234.9121,27.1898
234.9121,26.2648
234.7014,26.2648
234.6867,26.2634
234.6597,26.2522
234.6390,26.2315
234.6278,26.2045
234.6278,26.1898
234.4430,26.1898
234.4430,26.9993
234.4416,27.0140
234.4406,27.0165
234.4404,27.0192
234.4351,27.0329
234.3875,27.1281
234.3835,27.1344
234.3828,27.1362
234.3811,27.1383
234.3797,27.1406
234.3782,27.1419
234.3734,27.1476
234.3258,27.1952
234.3201,27.1999
234.3188,27.2014
234.3165,27.2029
234.3145,27.2046
234.3126,27.2053
234.3063,27.2093
234.2111,27.2569
234.1974,27.2622
234.1947,27.2623
234.1922,27.2634
234.1776,27.2648
233.9871,27.2648
233.9724,27.2634
233.9700,27.2623
233.9673,27.2622
233.9535,27.2569
233.8583,27.2093
233.8520,27.2053
233.8502,27.2046
233.8481,27.2029
233.8459,27.2014
233.8446,27.1999
233.8388,27.1952
233.7912,27.1476
233.7865,27.1419
233.7850,27.1406
233.7835,27.1383
233.7819,27.1362
233.7811,27.1344
233.7771,27.1281
233.7295,27.0329
233.7243,27.0192
233.7241,27.0165
233.7230,27.0140
233.7216,26.9993
233.7216,26.5232
233.4430,26.5232
233.4430,26.8565
233.4428,26.8590
233.4429,26.8601
233.4421,26.8656
233.4416,26.8711
233.4412,26.8721
233.4408,26.8747
233.3932,27.0652
233.3882,27.0790
233.3849,27.0835
233.3828,27.0886
233.3734,27.1000
233.2782,27.1952
233.2725,27.2000
233.2712,27.2014
233.2689,27.2029
233.2668,27.2046
233.2650,27.2053
233.2587,27.2093
233.1635,27.2569
233.1497,27.2622
233.1471,27.2623
233.1446,27.2634
233.1299,27.2648
232.9395,27.2648
232.9248,27.2634
232.9223,27.2623
232.9196,27.2622
232.9059,27.2569
232.8107,27.2093
232.8044,27.2053
232.8025,27.2046
232.8005,27.2029
232.7982,27.2014
232.7969,27.2000
232.7912,27.1952
232.6959,27.1000
232.6866,27.0886
232.6845,27.0835
232.6812,27.0790
232.6762,27.0652
232.6286,26.8747
232.6282,26.8721
232.6278,26.8711
232.6273,26.8656
232.6264,26.8601
232.6266,26.8590
232.6264,26.8565
232.6264,26.5232
232.6266,26.5206
232.6264,26.5195
232.6273,26.5140
232.6278,26.5085
232.6282,26.5075
232.6286,26.5050
232.6762,26.3145
232.6812,26.3006
232.6845,26.2962
232.6866,26.2910
232.6959,26.2796
232.7912,26.1844
232.7969,26.1797
232.7982,26.1782
232.8005,26.1768
232.8025,26.1751
232.8044,26.1743
232.8107,26.1704
232.9059,26.1227
232.9196,26.1175
232.9223,26.1173
232.9248,26.1163
232.9395,26.1148
233.1299,26.1148
233.1446,26.1163
233.1471,26.1173
233.1497,26.1175
233.1635,26.1227
233.2587,26.1704
233.2650,26.1743
233.2668,26.1751
233.2689,26.1768
233.2712,26.1782
233.2725,26.1797
233.2782,26.1844
233.3734,26.2796
233.3828,26.2910
233.3849,26.2962
233.3882,26.3006
233.3932,26.3145
233.4408,26.5050
233.4412,26.5075
233.4416,26.5085
233.4421,26.5140
233.4429,26.5195
233.4428,26.5206
233.4430,26.5232
233.7216,26.5232
233.7216,26.1898
233.7230,26.1752
233.7342,26.1482
233.7549,26.1275
233.7820,26.1163
233.8112,26.1163
233.8383,26.1275
233.8590,26.1482
233.8702,26.1752
233.8716,26.1898
233.8716,26.9816
233.9059,27.0502
233.9363,27.0806
234.0048,27.1148
234.1598,27.1148
234.2284,27.0806
234.2588,27.0502
234.2930,26.9816
234.2930,26.1898
234.2945,26.1752
234.3057,26.1482
234.3264,26.1275
234.3534,26.1163
234.3827,26.1163
234.4097,26.1275
234.4304,26.1482
234.4416,26.1752
234.4430,26.1898
234.6278,26.1898
234.6278,26.1752
234.6390,26.1482
234.6597,26.1275
234.6867,26.1163
234.7014,26.1148
235.2728,26.1148
235.2874,26.1163
235.3145,26.1275
235.3351,26.1482
235.3463,26.1752
235.4575,26.1752
235.4575,26.0037
232.5152,26.0037
Z" /> 
<path style="fill:#000000; fill-opacity:1.0000; stroke:none;fill-rule:evenodd;"
d="M 268.2565,47.4205
269.6283,47.4205
269.6283,46.6682
269.5172,46.6682
269.5159,46.6728
269.5159,46.6776
269.5121,46.6868
269.5095,46.6964
269.5066,46.7002
269.5047,46.7046
269.4977,46.7117
269.4916,46.7196
269.4854,46.7239
269.4840,46.7253
269.4827,46.7259
269.4796,46.7281
268.7248,47.1594
269.4424,47.1594
269.4570,47.1608
269.4840,47.1720
269.5047,47.1927
269.5159,47.2198
269.5159,47.2490
269.5047,47.2761
269.4840,47.2968
269.4570,47.3080
269.4424,47.3094
268.4424,47.3094
268.4386,47.3090
268.4371,47.3092
268.4352,47.3087
268.4277,47.3080
268.4185,47.3041
268.4089,47.3015
268.4051,47.2986
268.4007,47.2968
268.3937,47.2897
268.3858,47.2836
268.3834,47.2794
268.3800,47.2761
268.3762,47.2669
268.3713,47.2582
268.3707,47.2534
268.3688,47.2490
268.3688,47.2391
268.3676,47.2292
268.3688,47.2245
268.3688,47.2198
268.3726,47.2105
268.3753,47.2009
268.3782,47.1971
268.3800,47.1927
268.3871,47.1857
268.3932,47.1778
268.3993,47.1734
268.4007,47.1720
268.4021,47.1715
268.4052,47.1693
269.1600,46.7380
268.4424,46.7380
268.4277,46.7365
268.4007,46.7253
268.3800,46.7046
268.3688,46.6776
268.3688,46.6483
268.3800,46.6213
268.4007,46.6006
268.4277,46.5894
268.4424,46.5880
269.4424,46.5880
269.4461,46.5883
269.4476,46.5882
269.4495,46.5887
269.4570,46.5894
269.4662,46.5932
269.4759,46.5959
269.4796,46.5988
269.4840,46.6006
269.4911,46.6077
269.4990,46.6138
269.5014,46.6179
269.5047,46.6213
269.5086,46.6305
269.5135,46.6392
269.5141,46.6439
269.5159,46.6483
269.5159,46.6583
269.5172,46.6682
269.6283,46.6682
269.6283,46.1721
269.5159,46.1721
269.5159,46.2014
269.5047,46.2284
269.4840,46.2491
269.4570,46.2603
269.4424,46.2618
268.4424,46.2618
268.4277,46.2603
268.4007,46.2491
268.3800,46.2284
268.3688,46.2014
268.3688,46.1721
268.3800,46.1451
268.4007,46.1244
268.4277,46.1132
268.4424,46.1118
269.4424,46.1118
269.4570,46.1132
269.4840,46.1244
269.5047,46.1451
269.5159,46.1721
269.6283,46.1721
269.6283,46.0007
268.2565,46.0007
Z" /> 
<path style="fill:#000000; fill-opacity:1.0000; stroke:none;fill-rule:evenodd;"
d="M 121.5836,37.6472
121.6178,37.7157
121.6482,37.7461
121.7168,37.7803
121.8242,37.7803
121.8927,37.7461
121.9231,37.7157
121.9574,37.6472
121.9574,37.3589
121.5836,37.3589
Z" /> 
<path style="fill:#000000; fill-opacity:1.0000; stroke:none;fill-rule:evenodd;"
d="M 120.8463,39.8495
122.2185,39.8495
122.2185,39.1887
122.1074,39.1887
122.1074,39.6649
122.1059,39.6795
122.0947,39.7065
122.0740,39.7272
122.0470,39.7384
122.0177,39.7384
121.9907,39.7272
121.9700,39.7065
121.9588,39.6795
121.9574,39.6649
121.9574,39.2637
121.6312,39.2637
121.6312,39.5220
121.6298,39.5366
121.6186,39.5637
121.5979,39.5844
121.5708,39.5956
121.5416,39.5956
121.5145,39.5844
121.4938,39.5637
121.4826,39.5366
121.4812,39.5220
121.4812,39.2637
121.0324,39.2637
121.0177,39.2622
120.9907,39.2510
120.9700,39.2304
120.9588,39.2033
120.9588,39.1741
120.9700,39.1470
120.9907,39.1263
121.0177,39.1151
121.0324,39.1137
122.0324,39.1137
122.0470,39.1151
122.0740,39.1263
122.0947,39.1470
122.1059,39.1741
122.1074,39.1887
122.2185,39.1887
122.2185,38.2839
122.1074,38.2839
122.1074,38.7601
122.1059,38.7747
122.0947,38.8018
122.0740,38.8225
122.0470,38.8337
122.0177,38.8337
121.9907,38.8225
121.9700,38.8018
121.9588,38.7747
121.9574,38.7601
121.9574,38.3589
121.6312,38.3589
121.6312,38.6173
121.6298,38.6319
121.6186,38.6589
121.5979,38.6796
121.5708,38.6908
121.5416,38.6908
121.5145,38.6796
121.4938,38.6589
121.4826,38.6319
121.4812,38.6173
121.4812,38.3589
121.1074,38.3589
121.1074,38.7601
121.1059,38.7747
121.0947,38.8018
121.0740,38.8225
121.0470,38.8337
121.0177,38.8337
120.9907,38.8225
120.9700,38.8018
120.9588,38.7747
120.9574,38.7601
120.9574,38.2839
120.9588,38.2693
120.9700,38.2423
120.9907,38.2216
121.0177,38.2104
121.0324,38.2089
122.0324,38.2089
122.0470,38.2104
122.0740,38.2216
122.0947,38.2423
122.1059,38.2693
122.1074,38.2839
122.2185,38.2839
122.2185,37.2839
122.1074,37.2839
122.1074,37.6649
122.1059,37.6795
122.1049,37.6820
122.1047,37.6847
122.0995,37.6984
122.0518,37.7937
122.0479,37.8000
122.0471,37.8018
122.0454,37.8038
122.0440,37.8061
122.0425,37.8074
122.0378,37.8131
121.9902,37.8608
121.9844,37.8655
121.9831,37.8670
121.9809,37.8684
121.9788,37.8701
121.9770,37.8708
121.9707,37.8748
121.8754,37.9224
121.8617,37.9277
121.8590,37.9279
121.8565,37.9289
121.8419,37.9303
121.6990,37.9303
121.6844,37.9289
121.6819,37.9279
121.6792,37.9277
121.6655,37.9224
121.5703,37.8748
121.5640,37.8708
121.5621,37.8701
121.5601,37.8684
121.5578,37.8670
121.5565,37.8655
121.5508,37.8608
121.5032,37.8131
121.4984,37.8074
121.4969,37.8061
121.4955,37.8038
121.4938,37.8018
121.4931,37.8000
121.4891,37.7937
121.4415,37.6984
121.4362,37.6847
121.4360,37.6820
121.4350,37.6795
121.4337,37.6660
121.0754,37.9168
121.0626,37.9240
121.0340,37.9303
121.0052,37.9252
120.9805,37.9095
120.9637,37.8855
120.9574,37.8570
120.9625,37.8282
120.9782,37.8035
120.9894,37.7939
121.4336,37.4830
121.4336,37.3589
121.0324,37.3589
121.0177,37.3575
120.9907,37.3463
120.9700,37.3256
120.9588,37.2986
120.9588,37.2693
120.9700,37.2423
120.9907,37.2216
121.0177,37.2104
121.0324,37.2089
122.0324,37.2089
122.0470,37.2104
122.0740,37.2216
122.0947,37.2423
122.1059,37.2693
122.1074,37.2839
122.2185,37.2839
122.2185,36.2745
122.1068,36.2745
122.1047,36.3037
122.0916,36.3299
122.0695,36.3491
122.0561,36.3551
121.2696,36.6173
122.0561,36.8794
122.0695,36.8854
122.0916,36.9046
122.1047,36.9308
122.1068,36.9600
122.0975,36.9877
122.0784,37.0098
122.0522,37.0229
122.0230,37.0250
122.0087,37.0217
121.0087,36.6884
120.9952,36.6824
120.9912,36.6789
120.9864,36.6765
120.9802,36.6694
120.9731,36.6632
120.9707,36.6584
120.9672,36.6544
120.9642,36.6455
120.9600,36.6371
120.9597,36.6317
120.9580,36.6266
120.9586,36.6173
120.9580,36.6079
120.9597,36.6028
120.9600,36.5974
120.9642,36.5890
120.9672,36.5801
120.9707,36.5761
120.9731,36.5713
120.9802,36.5651
120.9864,36.5580
120.9912,36.5556
120.9952,36.5521
121.0087,36.5461
122.0087,36.2128
122.0230,36.2095
122.0522,36.2116
122.0784,36.2247
122.0975,36.2468
122.1068,36.2745
122.2185,36.2745
122.2185,36.0984
120.8463,36.0984
Z" /> 
</g>
<g style="fill:none; 
stroke:#000000; stroke-width:0.1500; stroke-opacity:1; 
stroke-linecap:round; stroke-linejoin:round;">
<text x="266.9922" y="122.8600"
textLength="3.2024" font-size="1.3333" lengthAdjust="spacingAndGlyphs"
text-anchor="middle" opacity="0" stroke-opacity="0">H13</text>
<g class="stroked-text"><desc>H13</desc>
<path d="M265.7541 122.8148
L265.7541 121.8148
" />
<path d="M265.7541 122.2910
L266.3255 122.2910
" />
<path d="M266.3255 122.8148
L266.3255 121.8148
" />
<path d="M267.3255 122.8148
L266.7541 122.8148
" />
<path d="M267.0398 122.8148
L267.0398 121.8148
" />
<path d="M267.0398 121.8148
L266.9446 121.9577
" />
<path d="M266.9446 121.9577
L266.8493 122.0529
" />
<path d="M266.8493 122.0529
L266.7541 122.1005
" />
<path d="M267.6589 121.8148
L268.2779 121.8148
" />
<path d="M268.2779 121.8148
L267.9446 122.1958
" />
<path d="M267.9446 122.1958
L268.0874 122.1958
" />
<path d="M268.0874 122.1958
L268.1827 122.2434
" />
<path d="M268.1827 122.2434
L268.2303 122.2910
" />
<path d="M268.2303 122.2910
L268.2779 122.3862
" />
<path d="M268.2779 122.3862
L268.2779 122.6243
" />
<path d="M268.2779 122.6243
L268.2303 122.7196
" />
<path d="M268.2303 122.7196
L268.1827 122.7672
" />
<path d="M268.1827 122.7672
L268.0874 122.8148
" />
<path d="M268.0874 122.8148
L267.8017 122.8148
" />
<path d="M267.8017 122.8148
L267.7065 122.7672
" />
<path d="M267.7065 122.7672
L267.6589 122.7196
" />
</g><text x="192.0822" y="70.4800"
textLength="2.2500" font-size="1.3333" lengthAdjust="spacingAndGlyphs"
text-anchor="middle" opacity="0" stroke-opacity="0">H9</text>
<g class="stroked-text"><desc>H9</desc>
<path d="M191.3203 70.4348
L191.3203 69.4348
" />
<path d="M191.3203 69.9110
L191.8917 69.9110
" />
<path d="M191.8917 70.4348
L191.8917 69.4348
" />
<path d="M192.4155 70.4348
L192.6060 70.4348
" />
<path d="M192.6060 70.4348
L192.7012 70.3872
" />
<path d="M192.7012 70.3872
L192.7489 70.3396
" />
<path d="M192.7489 70.3396
L192.8441 70.1967
" />
<path d="M192.8441 70.1967
L192.8917 70.0062
" />
<path d="M192.8917 70.0062
L192.8917 69.6253
" />
<path d="M192.8917 69.6253
L192.8441 69.5301
" />
<path d="M192.8441 69.5301
L192.7965 69.4824
" />
<path d="M192.7965 69.4824
L192.7012 69.4348
" />
<path d="M192.7012 69.4348
L192.5108 69.4348
" />
<path d="M192.5108 69.4348
L192.4155 69.4824
" />
<path d="M192.4155 69.4824
L192.3679 69.5301
" />
<path d="M192.3679 69.5301
L192.3203 69.6253
" />
<path d="M192.3203 69.6253
L192.3203 69.8634
" />
<path d="M192.3203 69.8634
L192.3679 69.9586
" />
<path d="M192.3679 69.9586
L192.4155 70.0062
" />
<path d="M192.4155 70.0062
L192.5108 70.0539
" />
<path d="M192.5108 70.0539
L192.7012 70.0539
" />
<path d="M192.7012 70.0539
L192.7965 70.0062
" />
<path d="M192.7965 70.0062
L192.8441 69.9586
" />
<path d="M192.8441 69.9586
L192.8917 69.8634
" />
</g><text x="266.9622" y="70.9000"
textLength="3.2024" font-size="1.3333" lengthAdjust="spacingAndGlyphs"
text-anchor="middle" opacity="0" stroke-opacity="0">H10</text>
<g class="stroked-text"><desc>H10</desc>
<path d="M265.7241 70.8548
L265.7241 69.8548
" />
<path d="M265.7241 70.3310
L266.2955 70.3310
" />
<path d="M266.2955 70.8548
L266.2955 69.8548
" />
<path d="M267.2955 70.8548
L266.7241 70.8548
" />
<path d="M267.0098 70.8548
L267.0098 69.8548
" />
<path d="M267.0098 69.8548
L266.9146 69.9977
" />
<path d="M266.9146 69.9977
L266.8193 70.0929
" />
<path d="M266.8193 70.0929
L266.7241 70.1405
" />
<path d="M267.9146 69.8548
L268.0098 69.8548
" />
<path d="M268.0098 69.8548
L268.1051 69.9024
" />
<path d="M268.1051 69.9024
L268.1527 69.9501
" />
<path d="M268.1527 69.9501
L268.2003 70.0453
" />
<path d="M268.2003 70.0453
L268.2479 70.2358
" />
<path d="M268.2479 70.2358
L268.2479 70.4739
" />
<path d="M268.2479 70.4739
L268.2003 70.6643
" />
<path d="M268.2003 70.6643
L268.1527 70.7596
" />
<path d="M268.1527 70.7596
L268.1051 70.8072
" />
<path d="M268.1051 70.8072
L268.0098 70.8548
" />
<path d="M268.0098 70.8548
L267.9146 70.8548
" />
<path d="M267.9146 70.8548
L267.8193 70.8072
" />
<path d="M267.8193 70.8072
L267.7717 70.7596
" />
<path d="M267.7717 70.7596
L267.7241 70.6643
" />
<path d="M267.7241 70.6643
L267.6765 70.4739
" />
<path d="M267.6765 70.4739
L267.6765 70.2358
" />
<path d="M267.6765 70.2358
L267.7241 70.0453
" />
<path d="M267.7241 70.0453
L267.7717 69.9501
" />
<path d="M267.7717 69.9501
L267.8193 69.9024
" />
<path d="M267.8193 69.9024
L267.9146 69.8548
" />
</g><text x="117.1622" y="70.5900"
textLength="2.2500" font-size="1.3333" lengthAdjust="spacingAndGlyphs"
text-anchor="middle" opacity="0" stroke-opacity="0">H8</text>
<g class="stroked-text"><desc>H8</desc>
<path d="M116.4003 70.5448
L116.4003 69.5448
" />
<path d="M116.4003 70.0210
L116.9717 70.0210
" />
<path d="M116.9717 70.5448
L116.9717 69.5448
" />
<path d="M117.5908 69.9734
L117.4955 69.9258
" />
<path d="M117.4955 69.9258
L117.4479 69.8782
" />
<path d="M117.4479 69.8782
L117.4003 69.7829
" />
<path d="M117.4003 69.7829
L117.4003 69.7353
" />
<path d="M117.4003 69.7353
L117.4479 69.6401
" />
<path d="M117.4479 69.6401
L117.4955 69.5924
" />
<path d="M117.4955 69.5924
L117.5908 69.5448
" />
<path d="M117.5908 69.5448
L117.7812 69.5448
" />
<path d="M117.7812 69.5448
L117.8765 69.5924
" />
<path d="M117.8765 69.5924
L117.9241 69.6401
" />
<path d="M117.9241 69.6401
L117.9717 69.7353
" />
<path d="M117.9717 69.7353
L117.9717 69.7829
" />
<path d="M117.9717 69.7829
L117.9241 69.8782
" />
<path d="M117.9241 69.8782
L117.8765 69.9258
" />
<path d="M117.8765 69.9258
L117.7812 69.9734
" />
<path d="M117.7812 69.9734
L117.5908 69.9734
" />
<path d="M117.5908 69.9734
L117.4955 70.0210
" />
<path d="M117.4955 70.0210
L117.4479 70.0686
" />
<path d="M117.4479 70.0686
L117.4003 70.1639
" />
<path d="M117.4003 70.1639
L117.4003 70.3543
" />
<path d="M117.4003 70.3543
L117.4479 70.4496
" />
<path d="M117.4479 70.4496
L117.4955 70.4972
" />
<path d="M117.4955 70.4972
L117.5908 70.5448
" />
<path d="M117.5908 70.5448
L117.7812 70.5448
" />
<path d="M117.7812 70.5448
L117.8765 70.4972
" />
<path d="M117.8765 70.4972
L117.9241 70.4496
" />
<path d="M117.9241 70.4496
L117.9717 70.3543
" />
<path d="M117.9717 70.3543
L117.9717 70.1639
" />
<path d="M117.9717 70.1639
L117.9241 70.0686
" />
<path d="M117.9241 70.0686
L117.8765 70.0210
" />
<path d="M117.8765 70.0210
L117.7812 69.9734
" />
</g><text x="192.0322" y="122.4500"
textLength="3.2024" font-size="1.3333" lengthAdjust="spacingAndGlyphs"
text-anchor="middle" opacity="0" stroke-opacity="0">H12</text>
<g class="stroked-text"><desc>H12</desc>
<path d="M190.7941 122.4048
L190.7941 121.4048
" />
<path d="M190.7941 121.8810
L191.3655 121.8810
" />
<path d="M191.3655 122.4048
L191.3655 121.4048
" />
<path d="M192.3655 122.4048
L191.7941 122.4048
" />
<path d="M192.0798 122.4048
L192.0798 121.4048
" />
<path d="M192.0798 121.4048
L191.9846 121.5477
" />
<path d="M191.9846 121.5477
L191.8893 121.6429
" />
<path d="M191.8893 121.6429
L191.7941 121.6905
" />
<path d="M192.7465 121.5001
L192.7941 121.4524
" />
<path d="M192.7941 121.4524
L192.8893 121.4048
" />
<path d="M192.8893 121.4048
L193.1274 121.4048
" />
<path d="M193.1274 121.4048
L193.2227 121.4524
" />
<path d="M193.2227 121.4524
L193.2703 121.5001
" />
<path d="M193.2703 121.5001
L193.3179 121.5953
" />
<path d="M193.3179 121.5953
L193.3179 121.6905
" />
<path d="M193.3179 121.6905
L193.2703 121.8334
" />
<path d="M193.2703 121.8334
L192.6989 122.4048
" />
<path d="M192.6989 122.4048
L193.3179 122.4048
" />
</g><text x="223.9022" y="26.8500"
textLength="2.9167" font-size="1.3333" lengthAdjust="spacingAndGlyphs"
text-anchor="middle" opacity="0" stroke-opacity="0">J25</text>
<g class="stroked-text"><desc>J25</desc>
<path d="M223.0927 25.8048
L223.0927 26.5191
" />
<path d="M223.0927 26.5191
L223.0451 26.6620
" />
<path d="M223.0451 26.6620
L222.9498 26.7572
" />
<path d="M222.9498 26.7572
L222.8070 26.8048
" />
<path d="M222.8070 26.8048
L222.7117 26.8048
" />
<path d="M223.5212 25.9001
L223.5689 25.8524
" />
<path d="M223.5689 25.8524
L223.6641 25.8048
" />
<path d="M223.6641 25.8048
L223.9022 25.8048
" />
<path d="M223.9022 25.8048
L223.9974 25.8524
" />
<path d="M223.9974 25.8524
L224.0451 25.9001
" />
<path d="M224.0451 25.9001
L224.0927 25.9953
" />
<path d="M224.0927 25.9953
L224.0927 26.0905
" />
<path d="M224.0927 26.0905
L224.0451 26.2334
" />
<path d="M224.0451 26.2334
L223.4736 26.8048
" />
<path d="M223.4736 26.8048
L224.0927 26.8048
" />
<path d="M224.9974 25.8048
L224.5212 25.8048
" />
<path d="M224.5212 25.8048
L224.4736 26.2810
" />
<path d="M224.4736 26.2810
L224.5212 26.2334
" />
<path d="M224.5212 26.2334
L224.6165 26.1858
" />
<path d="M224.6165 26.1858
L224.8546 26.1858
" />
<path d="M224.8546 26.1858
L224.9498 26.2334
" />
<path d="M224.9498 26.2334
L224.9974 26.2810
" />
<path d="M224.9974 26.2810
L225.0451 26.3762
" />
<path d="M225.0451 26.3762
L225.0451 26.6143
" />
<path d="M225.0451 26.6143
L224.9974 26.7096
" />
<path d="M224.9974 26.7096
L224.9498 26.7572
" />
<path d="M224.9498 26.7572
L224.8546 26.8048
" />
<path d="M224.8546 26.8048
L224.6165 26.8048
" />
<path d="M224.6165 26.8048
L224.5212 26.7572
" />
<path d="M224.5212 26.7572
L224.4736 26.7096
" />
</g><text x="116.9622" y="122.5600"
textLength="3.2024" font-size="1.3333" lengthAdjust="spacingAndGlyphs"
text-anchor="middle" opacity="0" stroke-opacity="0">H11</text>
<g class="stroked-text"><desc>H11</desc>
<path d="M115.7241 122.5148
L115.7241 121.5148
" />
<path d="M115.7241 121.9910
L116.2955 121.9910
" />
<path d="M116.2955 122.5148
L116.2955 121.5148
" />
<path d="M117.2955 122.5148
L116.7241 122.5148
" />
<path d="M117.0098 122.5148
L117.0098 121.5148
" />
<path d="M117.0098 121.5148
L116.9146 121.6577
" />
<path d="M116.9146 121.6577
L116.8193 121.7529
" />
<path d="M116.8193 121.7529
L116.7241 121.8005
" />
<path d="M118.2479 122.5148
L117.6765 122.5148
" />
<path d="M117.9622 122.5148
L117.9622 121.5148
" />
<path d="M117.9622 121.5148
L117.8670 121.6577
" />
<path d="M117.8670 121.6577
L117.7717 121.7529
" />
<path d="M117.7717 121.7529
L117.6765 121.8005
" />
</g><text x="176.6426" y="116.4568"
textLength="2.9167" font-size="1.3333" lengthAdjust="spacingAndGlyphs"
text-anchor="middle" opacity="0" stroke-opacity="0">J27</text>
<g class="stroked-text"><desc>J27</desc>
<path d="M175.8331 115.4117
L175.8331 116.1259
" />
<path d="M175.8331 116.1259
L175.7855 116.2688
" />
<path d="M175.7855 116.2688
L175.6902 116.3640
" />
<path d="M175.6902 116.3640
L175.5474 116.4117
" />
<path d="M175.5474 116.4117
L175.4521 116.4117
" />
<path d="M176.2616 115.5069
L176.3093 115.4593
" />
<path d="M176.3093 115.4593
L176.4045 115.4117
" />
<path d="M176.4045 115.4117
L176.6426 115.4117
" />
<path d="M176.6426 115.4117
L176.7378 115.4593
" />
<path d="M176.7378 115.4593
L176.7855 115.5069
" />
<path d="M176.7855 115.5069
L176.8331 115.6021
" />
<path d="M176.8331 115.6021
L176.8331 115.6974
" />
<path d="M176.8331 115.6974
L176.7855 115.8402
" />
<path d="M176.7855 115.8402
L176.2140 116.4117
" />
<path d="M176.2140 116.4117
L176.8331 116.4117
" />
<path d="M177.1664 115.4117
L177.8331 115.4117
" />
<path d="M177.8331 115.4117
L177.4045 116.4117
" />
</g><text x="237.0272" y="25.6000"
textLength="2.9167" font-size="1.3333" lengthAdjust="spacingAndGlyphs"
text-anchor="middle" opacity="0" stroke-opacity="0">J26</text>
<g class="stroked-text"><desc>J26</desc>
<path d="M236.2177 24.5548
L236.2177 25.2691
" />
<path d="M236.2177 25.2691
L236.1701 25.4120
" />
<path d="M236.1701 25.4120
L236.0748 25.5072
" />
<path d="M236.0748 25.5072
L235.9320 25.5548
" />
<path d="M235.9320 25.5548
L235.8367 25.5548
" />
<path d="M236.6462 24.6501
L236.6939 24.6024
" />
<path d="M236.6939 24.6024
L236.7891 24.5548
" />
<path d="M236.7891 24.5548
L237.0272 24.5548
" />
<path d="M237.0272 24.5548
L237.1224 24.6024
" />
<path d="M237.1224 24.6024
L237.1701 24.6501
" />
<path d="M237.1701 24.6501
L237.2177 24.7453
" />
<path d="M237.2177 24.7453
L237.2177 24.8405
" />
<path d="M237.2177 24.8405
L237.1701 24.9834
" />
<path d="M237.1701 24.9834
L236.5986 25.5548
" />
<path d="M236.5986 25.5548
L237.2177 25.5548
" />
<path d="M238.0748 24.5548
L237.8843 24.5548
" />
<path d="M237.8843 24.5548
L237.7891 24.6024
" />
<path d="M237.7891 24.6024
L237.7415 24.6501
" />
<path d="M237.7415 24.6501
L237.6462 24.7929
" />
<path d="M237.6462 24.7929
L237.5986 24.9834
" />
<path d="M237.5986 24.9834
L237.5986 25.3643
" />
<path d="M237.5986 25.3643
L237.6462 25.4596
" />
<path d="M237.6462 25.4596
L237.6939 25.5072
" />
<path d="M237.6939 25.5072
L237.7891 25.5548
" />
<path d="M237.7891 25.5548
L237.9796 25.5548
" />
<path d="M237.9796 25.5548
L238.0748 25.5072
" />
<path d="M238.0748 25.5072
L238.1224 25.4596
" />
<path d="M238.1224 25.4596
L238.1701 25.3643
" />
<path d="M238.1701 25.3643
L238.1701 25.1262
" />
<path d="M238.1701 25.1262
L238.1224 25.0310
" />
<path d="M238.1224 25.0310
L238.0748 24.9834
" />
<path d="M238.0748 24.9834
L237.9796 24.9358
" />
<path d="M237.9796 24.9358
L237.7891 24.9358
" />
<path d="M237.7891 24.9358
L237.6939 24.9834
" />
<path d="M237.6939 24.9834
L237.6462 25.0310
" />
<path d="M237.6462 25.0310
L237.5986 25.1262
" />
</g></g>
<g style="fill:none; 
stroke:#000000; stroke-width:0.1200; stroke-opacity:1; 
stroke-linecap:round; stroke-linejoin:round;">
<path d="M226.4022 24.3500
L226.4022 25.6000
" />
<path d="M226.4022 25.6000
L225.1522 25.6000
" />
<path d="M226.1022 20.5800
L226.1022 25.3000
" />
<path d="M226.1022 25.3000
L217.9822 25.3000
" />
<path d="M225.4922 21.1900
L225.4922 24.6900
" />
<path d="M225.4922 22.6900
L226.1022 22.6900
" />
<path d="M225.4922 23.9900
L226.1022 23.9900
" />
<path d="M225.4922 24.6900
L223.5422 24.6900
" />
<path d="M224.6422 25.3000
L224.6422 25.5000
" />
<path d="M224.6422 25.4000
L224.3422 25.4000
" />
<path d="M224.6422 25.5000
L224.3422 25.5000
" />
<path d="M224.3422 25.5000
L224.3422 25.3000
" />
<path d="M223.5422 24.6900
L223.5422 25.3000
" />
<path d="M223.1422 21.6900
L223.1422 21.1900
" />
<path d="M223.0422 21.6900
L223.0422 21.1900
" />
<path d="M222.9422 21.1900
L222.9422 21.6900
" />
<path d="M222.9422 21.6900
L223.1422 21.6900
" />
<path d="M221.1422 21.6900
L221.1422 21.1900
" />
<path d="M221.0422 21.6900
L221.0422 21.1900
" />
<path d="M220.9422 21.1900
L220.9422 21.6900
" />
<path d="M220.9422 21.6900
L221.1422 21.6900
" />
<path d="M220.5422 24.6900
L218.5922 24.6900
" />
<path d="M220.5422 25.3000
L220.5422 24.6900
" />
<path d="M218.5922 21.1900
L225.4922 21.1900
" />
<path d="M218.5922 22.6900
L217.9822 22.6900
" />
<path d="M218.5922 23.9900
L217.9822 23.9900
" />
<path d="M218.5922 24.6900
L218.5922 21.1900
" />
<path d="M217.9822 20.5800
L226.1022 20.5800
" />
<path d="M217.9822 25.3000
L217.9822 20.5800
" />
</g>
<g style="fill:none; 
stroke:#000000; stroke-width:0.1000; stroke-opacity:1; 
stroke-linecap:round; stroke-linejoin:round;">
<path d="M182.0222 63.5556
L182.0222 121.5056
" />
</g>
<g style="fill:none; 
stroke:#000000; stroke-width:0.1200; stroke-opacity:1; 
stroke-linecap:round; stroke-linejoin:round;">
<path d="M180.6222 117.9656
L180.6222 67.0456
" />
</g>
<g style="fill:none; 
stroke:#000000; stroke-width:0.1000; stroke-opacity:1; 
stroke-linecap:round; stroke-linejoin:round;">
<path d="M178.5222 60.0052
L178.0222 60.0056
" />
</g>
<g style="fill:none; 
stroke:#000000; stroke-width:0.1200; stroke-opacity:1; 
stroke-linecap:round; stroke-linejoin:round;">
<path d="M178.0222 67.0456
L180.6222 67.0456
" />
<path d="M178.0222 69.6456
L178.0222 67.0456
" />
<path d="M175.4222 67.0456
L176.7522 67.0456
" />
<path d="M175.4222 68.3756
L175.4222 67.0456
" />
<path d="M175.4222 69.6456
L178.0222 69.6456
" />
<path d="M175.4222 117.9656
L180.6222 117.9656
" />
<path d="M175.4222 117.9656
L175.4222 69.6456
" />
<path d="M145.9522 117.8206
L145.9522 119.1506
" />
<path d="M145.9522 120.4206
L145.9522 123.0206
" />
<path d="M144.6222 117.8206
L145.9522 117.8206
" />
<path d="M144.3172 81.2556
L144.3172 73.5156
" />
<path d="M143.3522 117.8206
L143.3522 120.4206
" />
<path d="M143.3522 120.4206
L145.9522 120.4206
" />
<path d="M141.7172 73.5156
L144.3172 73.5156
" />
<path d="M141.7172 76.1156
L141.7172 73.5156
" />
<path d="M139.1172 73.5156
L140.4472 73.5156
" />
<path d="M139.1172 74.8456
L139.1172 73.5156
" />
<path d="M139.1172 76.1156
L141.7172 76.1156
" />
<path d="M139.1172 81.2556
L144.3172 81.2556
" />
<path d="M139.1172 81.2556
L139.1172 76.1156
" />
<path d="M138.2122 117.8206
L143.3522 117.8206
" />
<path d="M138.2122 117.8206
L138.2122 123.0206
" />
<path d="M138.2122 123.0206
L145.9522 123.0206
" />
</g>
<g style="fill:none; 
stroke:#000000; stroke-width:0.1000; stroke-opacity:1; 
stroke-linecap:round; stroke-linejoin:round;">
<path d="M129.2722 125.0056
L178.7722 125.0056
" />
<path d="M129.0222 60.0056
L178.0222 60.0056
" />
<path d="M129.0222 125.0056
L129.2722 125.0056
" />
<path d="M125.5222 121.5056
L125.5222 63.5056
" />
<path d="M182.0222 63.5556 A3.5004 3.5004 0.0 0 0 178.5222 60.0052" />
<path d="M178.5222 125.0056 A3.5000 3.5000 0.0 0 0 182.0222 121.5056" />
<path d="M129.0222 60.0056 A3.5000 3.5000 0.0 0 0 125.5222 63.5056" />
<path d="M125.5222 121.5056 A3.5000 3.5000 0.0 0 0 129.0222 125.0056" />
<circle cx="178.0222" cy="63.5056" r="1.6510" /> 
<circle cx="178.0222" cy="121.5056" r="1.6510" /> 
<circle cx="129.0222" cy="63.5056" r="1.6510" /> 
<circle cx="129.0222" cy="121.5056" r="1.6510" /> 
</g>
<g style="fill:none; 
stroke:#000000; stroke-width:0.1200; stroke-opacity:1; 
stroke-linecap:round; stroke-linejoin:round;">
<path d="M235.3322 24.3600
L235.3322 25.6100
" />
<path d="M235.3322 25.6100
L234.0822 25.6100
" />
<path d="M235.0322 20.5900
L235.0322 25.3100
" />
<path d="M235.0322 25.3100
L226.9122 25.3100
" />
<path d="M234.4222 21.2000
L234.4222 24.7000
" />
<path d="M234.4222 22.7000
L235.0322 22.7000
" />
<path d="M234.4222 24.0000
L235.0322 24.0000
" />
<path d="M234.4222 24.7000
L232.4722 24.7000
" />
<path d="M233.5722 25.3100
L233.5722 25.5100
" />
<path d="M233.5722 25.4100
L233.2722 25.4100
" />
<path d="M233.5722 25.5100
L233.2722 25.5100
" />
<path d="M233.2722 25.5100
L233.2722 25.3100
" />
<path d="M232.4722 24.7000
L232.4722 25.3100
" />
<path d="M232.0722 21.7000
L232.0722 21.2000
" />
<path d="M231.9722 21.7000
L231.9722 21.2000
" />
<path d="M231.8722 21.2000
L231.8722 21.7000
" />
<path d="M231.8722 21.7000
L232.0722 21.7000
" />
<path d="M230.0722 21.7000
L230.0722 21.2000
" />
<path d="M229.9722 21.7000
L229.9722 21.2000
" />
<path d="M229.8722 21.2000
L229.8722 21.7000
" />
<path d="M229.8722 21.7000
L230.0722 21.7000
" />
<path d="M229.4722 24.7000
L227.5222 24.7000
" />
<path d="M229.4722 25.3100
L229.4722 24.7000
" />
<path d="M227.5222 21.2000
L234.4222 21.2000
" />
<path d="M227.5222 22.7000
L226.9122 22.7000
" />
<path d="M227.5222 24.0000
L226.9122 24.0000
" />
<path d="M227.5222 24.7000
L227.5222 21.2000
" />
<path d="M226.9122 20.5900
L235.0322 20.5900
" />
<path d="M226.9122 25.3100
L226.9122 20.5900
" />
</g> 
</svg>
