<?xml version="1.0" standalone="no"?>
 <!DOCTYPE svg PUBLIC "-//W3C//DTD SVG 1.1//EN" 
 "http://www.w3.org/Graphics/SVG/1.1/DTD/svg11.dtd"> 
<svg
  xmlns:svg="http://www.w3.org/2000/svg"
  xmlns="http://www.w3.org/2000/svg"
  xmlns:xlink="http://www.w3.org/1999/xlink"
  xmlns:inkscape="http://www.inkscape.org/namespaces/inkscape"
  version="1.1"
  width="297.0022mm" height="210.0072mm" viewBox="0.0000 0.0000 297.0022 210.0072">
<title>SVG Image created as pedalboard-hw-F_Cu_vias_3.svg date 2026-04-23T06:49:00 </title>
  <desc>Image generated by PCBNEW </desc>
<g style="fill:#000000; fill-opacity:1.0000;stroke:#000000; stroke-opacity:1.0000;
stroke-linecap:round; stroke-linejoin:round;"
 transform="translate(0 0) scale(1 1)">
<path style="fill:#000000; fill-opacity:1.0000; stroke:none;fill-rule:evenodd;"
d="M 49.4000,103.4000
48.9000,103.4000
48.9000,103.3957
48.8347,103.3957
48.7087,103.3619
48.5956,103.2967
48.5033,103.2044
48.4381,103.0913
48.4043,102.9653
48.4043,102.8347
48.4381,102.7087
48.4719,102.6500
48.4381,102.5913
48.4043,102.4653
48.4043,102.3347
48.4381,102.2087
48.5033,102.0956
48.5956,102.0033
48.7087,101.9381
48.8347,101.9043
48.9000,101.9043
48.9000,101.9000
49.4000,101.9000
Z" /> 
<path style="fill:#000000; fill-opacity:1.0000; stroke:none;fill-rule:evenodd;"
d="M 50.2000,101.9043
50.2653,101.9043
50.3913,101.9381
50.5044,102.0033
50.5967,102.0956
50.6619,102.2087
50.6957,102.3347
50.6957,102.4653
50.6619,102.5913
50.6281,102.6500
50.6619,102.7087
50.6957,102.8347
50.6957,102.9653
50.6619,103.0913
50.5967,103.2044
50.5044,103.2967
50.3913,103.3619
50.2653,103.3957
50.2000,103.3957
50.2000,103.4000
49.7000,103.4000
49.7000,101.9000
50.2000,101.9000
Z" /> 
<path style="fill:#000000; fill-opacity:1.0000; stroke:none;fill-rule:evenodd;"
d="M 147.3500,126.3500
147.8500,126.3500
147.8500,126.3543
147.9153,126.3543
148.0413,126.3881
148.1544,126.4533
148.2467,126.5456
148.3119,126.6587
148.3457,126.7847
148.3457,126.9153
148.3119,127.0413
148.2781,127.1000
148.3119,127.1587
148.3457,127.2847
148.3457,127.4153
148.3119,127.5413
148.2467,127.6544
148.1544,127.7467
148.0413,127.8119
147.9153,127.8457
147.8500,127.8457
147.8500,127.8500
147.3500,127.8500
Z" /> 
<path style="fill:#000000; fill-opacity:1.0000; stroke:none;fill-rule:evenodd;"
d="M 146.5500,127.8457
146.4847,127.8457
146.3587,127.8119
146.2456,127.7467
146.1533,127.6544
146.0881,127.5413
146.0543,127.4153
146.0543,127.2847
146.0881,127.1587
146.1219,127.1000
146.0881,127.0413
146.0543,126.9153
146.0543,126.7847
146.0881,126.6587
146.1533,126.5456
146.2456,126.4533
146.3587,126.3881
146.4847,126.3543
146.5500,126.3543
146.5500,126.3500
147.0500,126.3500
147.0500,127.8500
146.5500,127.8500
Z" /> 
<path style="fill:#000000; fill-opacity:1.0000; stroke:none;fill-rule:evenodd;"
d="M 147.6500,122.2500
148.1500,122.2500
148.1500,122.2543
148.2153,122.2543
148.3413,122.2881
148.4544,122.3533
148.5467,122.4456
148.6119,122.5587
148.6457,122.6847
148.6457,122.8153
148.6119,122.9413
148.5781,123.0000
148.6119,123.0587
148.6457,123.1847
148.6457,123.3153
148.6119,123.4413
148.5467,123.5544
148.4544,123.6467
148.3413,123.7119
148.2153,123.7457
148.1500,123.7457
148.1500,123.7500
147.6500,123.7500
Z" /> 
<path style="fill:#000000; fill-opacity:1.0000; stroke:none;fill-rule:evenodd;"
d="M 146.8500,123.7457
146.7847,123.7457
146.6587,123.7119
146.5456,123.6467
146.4533,123.5544
146.3881,123.4413
146.3543,123.3153
146.3543,123.1847
146.3881,123.0587
146.4219,123.0000
146.3881,122.9413
146.3543,122.8153
146.3543,122.6847
146.3881,122.5587
146.4533,122.4456
146.5456,122.3533
146.6587,122.2881
146.7847,122.2543
146.8500,122.2543
146.8500,122.2500
147.3500,122.2500
147.3500,123.7500
146.8500,123.7500
Z" /> 
<path style="fill:#000000; fill-opacity:1.0000; stroke:none;fill-rule:evenodd;"
d="M 169.6500,115.1500
169.6500,115.6500
169.6457,115.6500
169.6457,115.7153
169.6119,115.8413
169.5467,115.9544
169.4544,116.0467
169.3413,116.1119
169.2153,116.1457
169.0847,116.1457
168.9587,116.1119
168.9000,116.0781
168.8413,116.1119
168.7153,116.1457
168.5847,116.1457
168.4587,116.1119
168.3456,116.0467
168.2533,115.9544
168.1881,115.8413
168.1543,115.7153
168.1543,115.6500
168.1500,115.6500
168.1500,115.1500
Z" /> 
<path style="fill:#000000; fill-opacity:1.0000; stroke:none;fill-rule:evenodd;"
d="M 168.1543,114.3500
168.1543,114.2847
168.1881,114.1587
168.2533,114.0456
168.3456,113.9533
168.4587,113.8881
168.5847,113.8543
168.7153,113.8543
168.8413,113.8881
168.9000,113.9219
168.9587,113.8881
169.0847,113.8543
169.2153,113.8543
169.3413,113.8881
169.4544,113.9533
169.5467,114.0456
169.6119,114.1587
169.6457,114.2847
169.6457,114.3500
169.6500,114.3500
169.6500,114.8500
168.1500,114.8500
168.1500,114.3500
Z" /> 
<path style="fill:#000000; fill-opacity:1.0000; stroke:none;fill-rule:evenodd;"
d="M 97.5500,75.6500
97.5500,76.1500
97.5457,76.1500
97.5457,76.2153
97.5119,76.3413
97.4467,76.4544
97.3544,76.5467
97.2413,76.6119
97.1153,76.6457
96.9847,76.6457
96.8587,76.6119
96.8000,76.5781
96.7413,76.6119
96.6153,76.6457
96.4847,76.6457
96.3587,76.6119
96.2456,76.5467
96.1533,76.4544
96.0881,76.3413
96.0543,76.2153
96.0543,76.1500
96.0500,76.1500
96.0500,75.6500
Z" /> 
<path style="fill:#000000; fill-opacity:1.0000; stroke:none;fill-rule:evenodd;"
d="M 96.0543,74.8500
96.0543,74.7847
96.0881,74.6587
96.1533,74.5456
96.2456,74.4533
96.3587,74.3881
96.4847,74.3543
96.6153,74.3543
96.7413,74.3881
96.8000,74.4219
96.8587,74.3881
96.9847,74.3543
97.1153,74.3543
97.2413,74.3881
97.3544,74.4533
97.4467,74.5456
97.5119,74.6587
97.5457,74.7847
97.5457,74.8500
97.5500,74.8500
97.5500,75.3500
96.0500,75.3500
96.0500,74.8500
Z" /> 
<path style="fill:#000000; fill-opacity:1.0000; stroke:none;fill-rule:evenodd;"
d="M 95.0500,75.6500
95.0500,76.1500
95.0457,76.1500
95.0457,76.2153
95.0119,76.3413
94.9467,76.4544
94.8544,76.5467
94.7413,76.6119
94.6153,76.6457
94.4847,76.6457
94.3587,76.6119
94.3000,76.5781
94.2413,76.6119
94.1153,76.6457
93.9847,76.6457
93.8587,76.6119
93.7456,76.5467
93.6533,76.4544
93.5881,76.3413
93.5543,76.2153
93.5543,76.1500
93.5500,76.1500
93.5500,75.6500
Z" /> 
<path style="fill:#000000; fill-opacity:1.0000; stroke:none;fill-rule:evenodd;"
d="M 93.5543,74.8500
93.5543,74.7847
93.5881,74.6587
93.6533,74.5456
93.7456,74.4533
93.8587,74.3881
93.9847,74.3543
94.1153,74.3543
94.2413,74.3881
94.3000,74.4219
94.3587,74.3881
94.4847,74.3543
94.6153,74.3543
94.7413,74.3881
94.8544,74.4533
94.9467,74.5456
95.0119,74.6587
95.0457,74.7847
95.0457,74.8500
95.0500,74.8500
95.0500,75.3500
93.5500,75.3500
93.5500,74.8500
Z" /> 
</g>
<g style="fill:#000000; fill-opacity:1.0000; stroke:none;">
<circle cx="203.3179" cy="148.4364" r="0.0000" /> 
<circle cx="14.1750" cy="12.4989" r="0.0000" /> 
</g>
<g style="fill:#FFFFFF; fill-opacity:1.0000; stroke:none;">
<circle cx="92.2696" cy="73.7210" r="-0.0000" /> 
<circle cx="71.6702" cy="54.7726" r="-0.0000" /> 
<circle cx="130.2700" cy="58.8620" r="-0.0000" /> 
<circle cx="91.4822" cy="73.7210" r="-0.0000" /> 
<circle cx="70.8828" cy="54.7726" r="-0.0000" /> 
<circle cx="157.0650" cy="55.4838" r="-0.0000" /> 
<circle cx="89.9074" cy="73.7000" r="-0.0000" /> 
<circle cx="155.3124" cy="54.9504" r="-0.0000" /> 
<circle cx="90.6948" cy="73.6956" r="-0.0000" /> 
<circle cx="156.4554" cy="55.9918" r="-0.0000" /> 
<circle cx="155.8966" cy="55.4584" r="-0.0000" /> 
<circle cx="97.2000" cy="40.0500" r="-0.0000" /> 
<circle cx="103.6750" cy="51.2000" r="-0.0000" /> 
<circle cx="112.7928" cy="45.4336" r="-0.0000" /> 
<circle cx="108.6604" cy="51.1822" r="-0.0000" /> 
<circle cx="100.8040" cy="50.5562" r="-0.0000" /> 
<circle cx="144.2049" cy="51.2851" r="-0.0000" /> 
<circle cx="151.1500" cy="44.3000" r="-0.0000" /> 
<circle cx="103.9250" cy="41.1750" r="-0.0000" /> 
<circle cx="121.1748" cy="52.9184" r="-0.0000" /> 
<circle cx="109.9549" cy="45.4866" r="-0.0000" /> 
<circle cx="108.1213" cy="41.1280" r="-0.0000" /> 
<circle cx="143.6588" cy="51.8312" r="-0.0000" /> 
<circle cx="47.4000" cy="38.3000" r="-0.0000" /> 
<circle cx="148.8000" cy="44.3500" r="-0.0000" /> 
<circle cx="147.1000" cy="46.0500" r="-0.0000" /> 
<circle cx="153.5000" cy="44.5000" r="-0.0000" /> 
<circle cx="165.5000" cy="43.5000" r="-0.0000" /> 
<circle cx="52.1900" cy="45.9500" r="-0.0000" /> 
<circle cx="159.6400" cy="52.2900" r="-0.0000" /> 
<circle cx="89.5000" cy="81.5000" r="-0.0000" /> 
<circle cx="91.5000" cy="54.4000" r="-0.0000" /> 
<circle cx="153.5000" cy="43.0000" r="-0.0000" /> 
<circle cx="77.7800" cy="33.8500" r="-0.0000" /> 
<circle cx="157.5000" cy="23.0000" r="-0.0000" /> 
<circle cx="102.0826" cy="41.2187" r="-0.0000" /> 
<circle cx="63.9800" cy="51.5700" r="-0.0000" /> 
<circle cx="124.8000" cy="56.7000" r="-0.0000" /> 
<circle cx="143.2728" cy="49.9212" r="-0.0000" /> 
<circle cx="55.5000" cy="78.0000" r="-0.0000" /> 
<circle cx="154.3000" cy="24.0000" r="-0.0000" /> 
<circle cx="154.3400" cy="27.7000" r="-0.0000" /> 
<circle cx="134.4000" cy="54.8000" r="-0.0000" /> 
<circle cx="167.0000" cy="32.0000" r="-0.0000" /> 
<circle cx="157.0000" cy="32.0000" r="-0.0000" /> 
<circle cx="99.6000" cy="121.2000" r="-0.0000" /> 
<circle cx="155.4800" cy="52.2600" r="-0.0000" /> 
<circle cx="169.1000" cy="51.8000" r="-0.0000" /> 
<circle cx="168.5000" cy="30.5000" r="-0.0000" /> 
<circle cx="110.4277" cy="39.4522" r="-0.0000" /> 
<circle cx="92.8000" cy="53.9000" r="-0.0000" /> 
<circle cx="54.1000" cy="51.9300" r="-0.0000" /> 
<circle cx="26.9500" cy="58.0500" r="-0.0000" /> 
<circle cx="47.0000" cy="49.6500" r="-0.0000" /> 
<circle cx="116.7000" cy="45.6000" r="-0.0000" /> 
<circle cx="157.6000" cy="52.2500" r="-0.0000" /> 
<circle cx="68.6984" cy="53.9090" r="-0.0000" /> 
<circle cx="37.0000" cy="123.1000" r="-0.0000" /> 
<circle cx="31.6652" cy="29.0678" r="-0.0000" /> 
<circle cx="165.5000" cy="35.5000" r="-0.0000" /> 
<circle cx="92.8000" cy="50.3000" r="-0.0000" /> 
<circle cx="165.5000" cy="37.5000" r="-0.0000" /> 
<circle cx="55.5500" cy="39.2500" r="-0.0000" /> 
<circle cx="164.0000" cy="32.0000" r="-0.0000" /> 
<circle cx="141.2000" cy="54.8000" r="-0.0000" /> 
<circle cx="99.6254" cy="79.2000" r="-0.0000" /> 
<circle cx="35.5000" cy="69.4000" r="-0.0000" /> 
<circle cx="142.5000" cy="46.4000" r="-0.0000" /> 
<circle cx="161.5200" cy="52.2900" r="-0.0000" /> 
<circle cx="149.0866" cy="50.7000" r="-0.0000" /> 
<circle cx="185.4000" cy="69.5000" r="-0.0000" /> 
<circle cx="124.0000" cy="47.5000" r="-0.0000" /> 
<circle cx="127.3000" cy="56.7000" r="-0.0000" /> 
<circle cx="167.0000" cy="35.5000" r="-0.0000" /> 
<circle cx="151.7056" cy="55.6000" r="-0.0000" /> 
<circle cx="137.8000" cy="55.8000" r="-0.0000" /> 
<circle cx="39.6154" cy="22.7940" r="-0.0000" /> 
<circle cx="55.5000" cy="85.5000" r="-0.0000" /> 
<circle cx="50.8000" cy="45.9500" r="-0.0000" /> 
<circle cx="52.2000" cy="47.3500" r="-0.0000" /> 
<circle cx="167.0000" cy="30.5000" r="-0.0000" /> 
<circle cx="89.5000" cy="87.6000" r="-0.0000" /> 
<circle cx="52.2900" cy="54.4678" r="-0.0000" /> 
<circle cx="166.1328" cy="23.0988" r="-0.0000" /> 
<circle cx="55.5000" cy="75.0000" r="-0.0000" /> 
<circle cx="55.5000" cy="90.5000" r="-0.0000" /> 
<circle cx="165.5000" cy="39.5000" r="-0.0000" /> 
<circle cx="55.5000" cy="80.5000" r="-0.0000" /> 
<circle cx="89.5000" cy="96.0000" r="-0.0000" /> 
<circle cx="155.5000" cy="32.0000" r="-0.0000" /> 
<circle cx="53.6000" cy="44.6000" r="-0.0000" /> 
<circle cx="117.4000" cy="46.6000" r="-0.0000" /> 
<circle cx="86.6000" cy="80.3000" r="-0.0000" /> 
<circle cx="112.2000" cy="52.6000" r="-0.0000" /> 
<circle cx="50.3596" cy="54.4678" r="-0.0000" /> 
<circle cx="24.6000" cy="69.5000" r="-0.0000" /> 
<circle cx="161.5000" cy="47.0000" r="-0.0000" /> 
<circle cx="153.5000" cy="41.5000" r="-0.0000" /> 
<circle cx="24.6000" cy="121.5000" r="-0.0000" /> 
<circle cx="167.0000" cy="37.5000" r="-0.0000" /> 
<circle cx="98.6000" cy="42.5500" r="-0.0000" /> 
<circle cx="174.6000" cy="69.5000" r="-0.0000" /> 
<circle cx="47.0200" cy="40.8500" r="-0.0000" /> 
<circle cx="52.1500" cy="44.6000" r="-0.0000" /> 
<circle cx="103.3000" cy="54.6000" r="-0.0000" /> 
<circle cx="153.5000" cy="40.0000" r="-0.0000" /> 
<circle cx="167.0000" cy="45.5000" r="-0.0000" /> 
<circle cx="159.5000" cy="23.0000" r="-0.0000" /> 
<circle cx="53.6000" cy="46.0000" r="-0.0000" /> 
<circle cx="50.8000" cy="47.3500" r="-0.0000" /> 
<circle cx="185.4000" cy="121.5000" r="-0.0000" /> 
<circle cx="55.5000" cy="93.0000" r="-0.0000" /> 
<circle cx="153.5000" cy="38.5000" r="-0.0000" /> 
<circle cx="124.2700" cy="50.7000" r="-0.0000" /> 
<circle cx="50.8000" cy="44.6000" r="-0.0000" /> 
<circle cx="145.9500" cy="42.7500" r="-0.0000" /> 
<circle cx="153.5000" cy="35.5000" r="-0.0000" /> 
<circle cx="53.1380" cy="58.4900" r="-0.0000" /> 
<circle cx="165.5000" cy="45.5000" r="-0.0000" /> 
<circle cx="108.5751" cy="54.4536" r="-0.0000" /> 
<circle cx="150.0000" cy="57.4000" r="-0.0000" /> 
<circle cx="62.0100" cy="44.0200" r="-0.0000" /> 
<circle cx="48.7000" cy="39.3000" r="-0.0000" /> 
<circle cx="63.9200" cy="44.6400" r="-0.0000" /> 
<circle cx="169.0000" cy="50.0000" r="-0.0000" /> 
<circle cx="174.7000" cy="121.5000" r="-0.0000" /> 
<circle cx="155.0000" cy="35.5000" r="-0.0000" /> 
<circle cx="156.2000" cy="25.9000" r="-0.0000" /> 
<circle cx="167.0000" cy="41.5000" r="-0.0000" /> 
<circle cx="59.0500" cy="55.7000" r="-0.0000" /> 
<circle cx="164.0000" cy="35.5000" r="-0.0000" /> 
<circle cx="53.6000" cy="47.3500" r="-0.0000" /> 
<circle cx="161.6000" cy="49.3000" r="-0.0000" /> 
<circle cx="153.5000" cy="37.0000" r="-0.0000" /> 
<circle cx="55.5000" cy="83.0000" r="-0.0000" /> 
<circle cx="48.4800" cy="54.4678" r="-0.0000" /> 
<circle cx="164.0000" cy="37.5000" r="-0.0000" /> 
<circle cx="148.2000" cy="49.2354" r="-0.0000" /> 
<circle cx="155.0000" cy="37.0000" r="-0.0000" /> 
<circle cx="98.1150" cy="40.7500" r="-0.0000" /> 
<circle cx="110.3000" cy="121.0000" r="-0.0000" /> 
<circle cx="55.5000" cy="88.0000" r="-0.0000" /> 
<circle cx="59.4500" cy="44.8325" r="-0.0000" /> 
<circle cx="155.5000" cy="23.0000" r="-0.0000" /> 
<circle cx="94.1000" cy="40.8500" r="-0.0000" /> 
<circle cx="161.5000" cy="23.0000" r="-0.0000" /> 
<circle cx="165.5000" cy="41.5000" r="-0.0000" /> 
<circle cx="167.0000" cy="39.5000" r="-0.0000" /> 
<circle cx="61.6700" cy="48.9100" r="-0.0000" /> 
<circle cx="89.5000" cy="93.5000" r="-0.0000" /> 
<circle cx="73.1180" cy="54.2392" r="-0.0000" /> 
<circle cx="117.1500" cy="56.0500" r="-0.0000" /> 
<circle cx="101.4595" cy="54.9100" r="-0.0000" /> 
<circle cx="167.0000" cy="43.5000" r="-0.0000" /> 
<circle cx="99.6000" cy="69.5000" r="-0.0000" /> 
<circle cx="41.5712" cy="22.7432" r="-0.0000" /> 
<circle cx="120.9000" cy="50.6500" r="-0.0000" /> 
<circle cx="139.5000" cy="44.6000" r="-0.0000" /> 
<circle cx="114.1849" cy="49.2000" r="-0.0000" /> 
<circle cx="55.5000" cy="95.5000" r="-0.0000" /> 
<circle cx="50.5500" cy="61.2900" r="-0.0000" /> 
<circle cx="110.5000" cy="69.5000" r="-0.0000" /> 
<circle cx="85.3000" cy="78.5000" r="-0.0000" /> 
<circle cx="47.0100" cy="46.1400" r="-0.0000" /> 
<circle cx="59.9900" cy="50.7600" r="-0.0000" /> 
<circle cx="54.2458" cy="50.7600" r="-0.0000" /> 
<circle cx="96.4000" cy="80.7000" r="-0.0000" /> 
<circle cx="57.5538" cy="58.9138" r="-0.0000" /> 
<circle cx="98.9174" cy="87.7995" r="-0.0000" /> 
<circle cx="63.7559" cy="58.7441" r="-0.0000" /> 
<circle cx="85.3000" cy="77.5000" r="-0.0000" /> 
<circle cx="47.8650" cy="43.6400" r="-0.0000" /> 
<circle cx="49.3250" cy="41.8650" r="-0.0000" /> 
<circle cx="77.0445" cy="27.7145" r="-0.0000" /> 
<circle cx="101.8000" cy="45.5600" r="-0.0000" /> 
<circle cx="101.6600" cy="43.4100" r="-0.0000" /> 
<circle cx="48.3000" cy="37.5000" r="-0.0000" /> 
<circle cx="105.8900" cy="39.6495" r="-0.0000" /> 
<circle cx="144.5000" cy="125.4000" r="-0.0000" /> 
<circle cx="150.4000" cy="125.5000" r="-0.0000" /> 
<circle cx="94.4000" cy="125.4000" r="-0.0000" /> 
<circle cx="58.0000" cy="123.9000" r="-0.0000" /> 
<circle cx="111.1000" cy="125.5000" r="-0.0000" /> 
<circle cx="71.1876" cy="40.5232" r="-0.0000" /> 
<circle cx="71.2130" cy="45.4254" r="-0.0000" /> 
<circle cx="54.3220" cy="41.9710" r="-0.0000" /> 
<circle cx="56.1797" cy="41.7564" r="-0.0000" /> 
<circle cx="178.8000" cy="93.8000" r="-0.0000" /> 
<circle cx="112.8521" cy="42.4116" r="-0.0000" /> 
<circle cx="111.8813" cy="42.6495" r="-0.0000" /> 
<circle cx="113.6485" cy="41.8064" r="-0.0000" /> 
<circle cx="40.1500" cy="54.4900" r="-0.0000" /> 
<circle cx="40.1900" cy="58.1200" r="-0.0000" /> 
<circle cx="62.1297" cy="53.6400" r="-0.0000" /> 
<circle cx="46.9000" cy="52.7000" r="-0.0000" /> 
<circle cx="47.0000" cy="51.7000" r="-0.0000" /> 
<circle cx="61.2643" cy="52.6400" r="-0.0000" /> 
<circle cx="55.5800" cy="48.7700" r="-0.0000" /> 
<circle cx="58.7000" cy="48.7700" r="-0.0000" /> 
<circle cx="77.4945" cy="28.6465" r="-0.0000" /> 
<circle cx="94.3000" cy="77.3000" r="-0.0000" /> 
<circle cx="94.8100" cy="80.3700" r="-0.0000" /> 
<circle cx="98.4487" cy="82.2412" r="-0.0000" /> 
<circle cx="114.2600" cy="78.5500" r="-0.0000" /> 
<circle cx="84.1338" cy="86.0871" r="-0.0000" /> 
<circle cx="95.5379" cy="85.8937" r="-0.0000" /> 
<circle cx="42.2302" cy="116.8845" r="-0.0000" /> 
<circle cx="50.1900" cy="108.5200" r="-0.0000" /> 
<circle cx="110.2000" cy="96.4347" r="-0.0000" /> 
<circle cx="112.6600" cy="82.1995" r="-0.0000" /> 
<circle cx="61.2132" cy="54.0400" r="-0.0000" /> 
<circle cx="53.7886" cy="54.0614" r="-0.0000" /> 
<circle cx="95.2889" cy="44.9062" r="-0.0000" /> 
<circle cx="95.2922" cy="48.0917" r="-0.0000" /> 
<circle cx="108.7005" cy="59.5736" r="-0.0000" /> 
<circle cx="106.1005" cy="59.4315" r="-0.0000" /> 
<circle cx="109.1731" cy="58.6923" r="-0.0000" /> 
<circle cx="105.9700" cy="58.4400" r="-0.0000" /> 
<circle cx="106.1005" cy="57.4486" r="-0.0000" /> 
<circle cx="109.5005" cy="57.6933" r="-0.0000" /> 
<circle cx="106.1005" cy="56.4485" r="-0.0000" /> 
<circle cx="109.5005" cy="56.6933" r="-0.0000" /> 
<circle cx="108.4697" cy="96.3995" r="-0.0000" /> 
<circle cx="111.1500" cy="82.1000" r="-0.0000" /> 
<circle cx="109.6500" cy="95.5995" r="-0.0000" /> 
<circle cx="111.9480" cy="81.4973" r="-0.0000" /> 
<circle cx="41.6500" cy="116.0700" r="-0.0000" /> 
<circle cx="50.2206" cy="107.5204" r="-0.0000" /> 
<circle cx="146.6622" cy="36.2306" r="-0.0000" /> 
<circle cx="79.4367" cy="29.1215" r="-0.0000" /> 
<circle cx="78.6555" cy="29.7914" r="-0.0000" /> 
<circle cx="106.7500" cy="75.8900" r="-0.0000" /> 
<circle cx="93.7009" cy="95.5222" r="-0.0000" /> 
<circle cx="83.5257" cy="92.7137" r="-0.0000" /> 
<circle cx="95.3024" cy="93.6628" r="-0.0000" /> 
<circle cx="95.8163" cy="92.8055" r="-0.0000" /> 
<circle cx="83.0000" cy="91.7000" r="-0.0000" /> 
<circle cx="82.7000" cy="90.4000" r="-0.0000" /> 
<circle cx="97.5114" cy="92.3823" r="-0.0000" /> 
<circle cx="83.7990" cy="90.3875" r="-0.0000" /> 
<circle cx="98.5570" cy="92.1995" r="-0.0000" /> 
<circle cx="83.3500" cy="89.2500" r="-0.0000" /> 
<circle cx="99.8000" cy="91.2000" r="-0.0000" /> 
<circle cx="83.4000" cy="88.1000" r="-0.0000" /> 
<circle cx="97.6839" cy="90.3990" r="-0.0000" /> 
<circle cx="96.3000" cy="89.5990" r="-0.0000" /> 
<circle cx="84.5000" cy="87.5995" r="-0.0000" /> 
<circle cx="85.9000" cy="86.6995" r="-0.0000" /> 
<circle cx="94.0247" cy="86.9254" r="-0.0000" /> 
<circle cx="97.1000" cy="87.1000" r="-0.0000" /> 
<circle cx="83.3000" cy="86.7871" r="-0.0000" /> 
<circle cx="97.5000" cy="84.8000" r="-0.0000" /> 
<circle cx="83.2000" cy="85.4000" r="-0.0000" /> 
<circle cx="84.0746" cy="84.6876" r="-0.0000" /> 
<circle cx="97.4000" cy="83.0005" r="-0.0000" /> 
<circle cx="96.0589" cy="83.5995" r="-0.0000" /> 
<circle cx="84.7004" cy="83.8996" r="-0.0000" /> 
<circle cx="95.9000" cy="82.3000" r="-0.0000" /> 
<circle cx="84.0000" cy="83.1000" r="-0.0000" /> 
<circle cx="93.2100" cy="77.1000" r="-0.0000" /> 
<circle cx="96.5220" cy="77.7680" r="-0.0000" /> 
</g>
<g style="fill:#000000; fill-opacity:1.0000; stroke:none;">
<circle cx="168.0000" cy="121.5000" r="-0.0000" /> 
<circle cx="125.0000" cy="24.5000" r="-0.0000" /> 
<circle cx="120.0000" cy="29.5000" r="-0.0000" /> 
<circle cx="115.0000" cy="24.5000" r="-0.0000" /> 
<circle cx="125.0000" cy="29.5000" r="-0.0000" /> 
<circle cx="122.5000" cy="29.5000" r="-0.0000" /> 
<circle cx="120.0000" cy="24.5000" r="-0.0000" /> 
<circle cx="115.0000" cy="29.5000" r="-0.0000" /> 
<circle cx="117.5000" cy="29.5000" r="-0.0000" /> 
<circle cx="28.0500" cy="50.0000" r="-0.0000" /> 
<circle cx="28.0500" cy="33.7700" r="-0.0000" /> 
<circle cx="21.7000" cy="50.0000" r="-0.0000" /> 
<circle cx="21.7000" cy="33.7700" r="-0.0000" /> 
<circle cx="34.4000" cy="50.0000" r="-0.0000" /> 
<circle cx="34.4000" cy="33.7700" r="-0.0000" /> 
<circle cx="28.0500" cy="111.2000" r="-0.0000" /> 
<circle cx="28.0500" cy="94.9700" r="-0.0000" /> 
<circle cx="21.7000" cy="111.2000" r="-0.0000" /> 
<circle cx="21.7000" cy="94.9700" r="-0.0000" /> 
<circle cx="34.4000" cy="111.2000" r="-0.0000" /> 
<circle cx="34.4000" cy="94.9700" r="-0.0000" /> 
<circle cx="176.5372" cy="30.3886" r="-0.0000" /> 
<circle cx="176.5372" cy="24.5886" r="-0.0000" /> 
<circle cx="171.7372" cy="27.3886" r="-0.0000" /> 
<circle cx="175.6372" cy="28.1986" r="-0.0000" /> 
<circle cx="175.6372" cy="23.1986" r="-0.0000" /> 
<circle cx="28.0500" cy="91.0000" r="-0.0000" /> 
<circle cx="28.0500" cy="74.7700" r="-0.0000" /> 
<circle cx="21.7000" cy="91.0000" r="-0.0000" /> 
<circle cx="21.7000" cy="74.7700" r="-0.0000" /> 
<circle cx="34.4000" cy="91.0000" r="-0.0000" /> 
<circle cx="34.4000" cy="74.7700" r="-0.0000" /> 
<circle cx="181.9500" cy="94.9950" r="-0.0000" /> 
<circle cx="181.9500" cy="111.2250" r="-0.0000" /> 
<circle cx="188.3000" cy="94.9950" r="-0.0000" /> 
<circle cx="188.3000" cy="111.2250" r="-0.0000" /> 
<circle cx="175.6000" cy="94.9950" r="-0.0000" /> 
<circle cx="175.6000" cy="111.2250" r="-0.0000" /> 
<circle cx="129.3150" cy="44.4500" r="-0.0000" /> 
<circle cx="131.8550" cy="44.4500" r="-0.0000" /> 
<circle cx="134.3950" cy="44.4500" r="-0.0000" /> 
<circle cx="118.9800" cy="121.5200" r="-0.0000" /> 
<circle cx="80.1000" cy="21.0750" r="0.2500" /> 
<circle cx="80.1000" cy="22.0750" r="0.2500" /> 
<circle cx="80.1000" cy="23.0750" r="0.2500" /> 
<circle cx="80.1000" cy="24.0750" r="0.2500" /> 
<circle cx="80.1000" cy="25.0750" r="0.2500" /> 
<circle cx="80.1000" cy="26.0750" r="0.2500" /> 
<circle cx="80.1000" cy="30.0750" r="0.2500" /> 
<circle cx="80.1000" cy="31.0750" r="0.2500" /> 
<circle cx="80.1000" cy="32.0750" r="0.2500" /> 
<circle cx="80.1000" cy="33.0750" r="0.2500" /> 
<circle cx="80.1000" cy="34.0750" r="0.2500" /> 
<circle cx="80.1000" cy="35.0750" r="0.2500" /> 
<circle cx="80.1000" cy="36.0750" r="0.2500" /> 
<circle cx="81.1000" cy="36.0750" r="0.2500" /> 
<circle cx="82.1000" cy="36.0750" r="0.2500" /> 
<circle cx="83.1000" cy="36.0750" r="0.2500" /> 
<circle cx="84.1000" cy="36.0750" r="0.2500" /> 
<circle cx="85.1000" cy="36.0750" r="0.2500" /> 
<circle cx="86.1000" cy="36.0750" r="0.2500" /> 
<circle cx="87.1000" cy="36.0750" r="0.2500" /> 
<circle cx="88.1000" cy="36.0750" r="0.2500" /> 
<circle cx="89.1000" cy="36.0750" r="0.2500" /> 
<circle cx="90.1000" cy="36.0750" r="0.2500" /> 
<circle cx="91.1000" cy="36.0750" r="0.2500" /> 
<circle cx="92.1000" cy="36.0750" r="0.2500" /> 
<circle cx="93.1000" cy="36.0750" r="0.2500" /> 
<circle cx="94.1000" cy="36.0750" r="0.2500" /> 
<circle cx="95.1000" cy="36.0750" r="0.2500" /> 
<circle cx="96.1000" cy="36.0750" r="0.2500" /> 
<circle cx="97.1000" cy="36.0750" r="0.2500" /> 
<circle cx="98.1000" cy="36.0750" r="0.2500" /> 
<circle cx="99.1000" cy="36.0750" r="0.2500" /> 
<circle cx="100.1000" cy="36.0750" r="0.2500" /> 
<circle cx="101.1000" cy="36.0750" r="0.2500" /> 
<circle cx="102.1000" cy="36.0750" r="0.2500" /> 
<circle cx="103.1000" cy="36.0750" r="0.2500" /> 
<circle cx="104.1000" cy="36.0750" r="0.2500" /> 
<circle cx="105.1000" cy="36.0750" r="0.2500" /> 
<circle cx="106.1000" cy="36.0750" r="0.2500" /> 
<circle cx="107.1000" cy="36.0750" r="0.2500" /> 
<circle cx="108.1000" cy="36.0750" r="0.2500" /> 
<circle cx="109.1000" cy="36.0750" r="0.2500" /> 
<circle cx="110.1000" cy="36.0750" r="0.2500" /> 
<circle cx="111.1000" cy="36.0750" r="0.2500" /> 
<circle cx="112.1000" cy="36.0750" r="0.2500" /> 
<circle cx="113.1000" cy="36.0750" r="0.2500" /> 
<circle cx="114.1000" cy="36.0750" r="0.2500" /> 
<circle cx="115.1000" cy="36.0750" r="0.2500" /> 
<circle cx="116.1000" cy="36.0750" r="0.2500" /> 
<circle cx="117.1000" cy="36.0750" r="0.2500" /> 
<circle cx="118.1000" cy="36.0750" r="0.2500" /> 
<circle cx="119.1000" cy="36.0750" r="0.2500" /> 
<circle cx="120.1000" cy="36.0750" r="0.2500" /> 
<circle cx="121.1000" cy="36.0750" r="0.2500" /> 
<circle cx="122.1000" cy="36.0750" r="0.2500" /> 
<circle cx="123.1000" cy="36.0750" r="0.2500" /> 
<circle cx="124.1000" cy="36.0750" r="0.2500" /> 
<circle cx="125.1000" cy="36.0750" r="0.2500" /> 
<circle cx="126.1000" cy="36.0750" r="0.2500" /> 
<circle cx="127.1000" cy="36.0750" r="0.2500" /> 
<circle cx="128.1000" cy="36.0750" r="0.2500" /> 
<circle cx="129.1000" cy="36.0750" r="0.2500" /> 
<circle cx="130.1000" cy="21.0750" r="0.2500" /> 
<circle cx="130.1000" cy="22.0750" r="0.2500" /> 
<circle cx="130.1000" cy="23.0750" r="0.2500" /> 
<circle cx="130.1000" cy="24.0750" r="0.2500" /> 
<circle cx="130.1000" cy="25.0750" r="0.2500" /> 
<circle cx="130.1000" cy="26.0750" r="0.2500" /> 
<circle cx="130.1000" cy="27.0750" r="0.2500" /> 
<circle cx="130.1000" cy="28.0750" r="0.2500" /> 
<circle cx="130.1000" cy="29.0750" r="0.2500" /> 
<circle cx="130.1000" cy="30.0750" r="0.2500" /> 
<circle cx="130.1000" cy="31.0750" r="0.2500" /> 
<circle cx="130.1000" cy="32.0750" r="0.2500" /> 
<circle cx="130.1000" cy="33.0750" r="0.2500" /> 
<circle cx="130.1000" cy="34.0750" r="0.2500" /> 
<circle cx="130.1000" cy="35.0750" r="0.2500" /> 
<circle cx="130.1000" cy="36.0750" r="0.2500" /> 
<circle cx="25.0000" cy="23.0000" r="-0.0000" /> 
<circle cx="181.9650" cy="33.8000" r="-0.0000" /> 
<circle cx="181.9650" cy="50.0300" r="-0.0000" /> 
<circle cx="188.3150" cy="33.8000" r="-0.0000" /> 
<circle cx="188.3150" cy="50.0300" r="-0.0000" /> 
<circle cx="175.6150" cy="33.8000" r="-0.0000" /> 
<circle cx="175.6150" cy="50.0300" r="-0.0000" /> 
<circle cx="168.0000" cy="63.5000" r="-0.0000" /> 
<circle cx="112.5000" cy="32.0000" r="-0.0000" /> 
<circle cx="120.0000" cy="32.0000" r="-0.0000" /> 
<circle cx="127.5000" cy="32.0000" r="-0.0000" /> 
<circle cx="115.0000" cy="34.5000" r="-0.0000" /> 
<circle cx="125.0000" cy="34.5000" r="-0.0000" /> 
<circle cx="122.5000" cy="22.0000" r="-0.0000" /> 
<circle cx="125.0000" cy="22.0000" r="-0.0000" /> 
<circle cx="115.0000" cy="22.0000" r="-0.0000" /> 
<circle cx="117.5000" cy="22.0000" r="-0.0000" /> 
<circle cx="119.0000" cy="63.5000" r="-0.0000" /> 
<circle cx="60.2500" cy="31.5000" r="-0.0000" /> 
<circle cx="60.2500" cy="36.5000" r="-0.0000" /> 
<circle cx="60.2500" cy="34.0000" r="-0.0000" /> 
<circle cx="67.7500" cy="28.4000" r="-0.0000" /> 
<circle cx="67.7500" cy="39.6000" r="-0.0000" /> 
<circle cx="74.7500" cy="36.5000" r="-0.0000" /> 
<circle cx="74.7500" cy="31.5000" r="-0.0000" /> 
<circle cx="161.4700" cy="41.7500" r="-0.0000" /> 
<circle cx="160.1700" cy="41.7500" r="-0.0000" /> 
<circle cx="158.8700" cy="41.7500" r="-0.0000" /> 
<circle cx="157.5700" cy="41.7500" r="-0.0000" /> 
<circle cx="161.4700" cy="43.0500" r="-0.0000" /> 
<circle cx="160.1700" cy="43.0500" r="-0.0000" /> 
<circle cx="158.8700" cy="43.0500" r="-0.0000" /> 
<circle cx="157.5700" cy="43.0500" r="-0.0000" /> 
<circle cx="168.0000" cy="128.0000" r="-0.0000" /> 
<circle cx="107.2250" cy="81.3000" r="-0.0000" /> 
<circle cx="104.6850" cy="81.3000" r="-0.0000" /> 
<circle cx="102.1450" cy="81.3000" r="-0.0000" /> 
<circle cx="181.9500" cy="74.7800" r="-0.0000" /> 
<circle cx="181.9500" cy="91.0100" r="-0.0000" /> 
<circle cx="188.3000" cy="74.7800" r="-0.0000" /> 
<circle cx="188.3000" cy="91.0100" r="-0.0000" /> 
<circle cx="175.6000" cy="74.7800" r="-0.0000" /> 
<circle cx="175.6000" cy="91.0100" r="-0.0000" /> 
<circle cx="19.5550" cy="53.7450" r="-0.0000" /> 
<circle cx="22.5550" cy="54.0550" r="-0.0000" /> 
<circle cx="22.5550" cy="58.8950" r="-0.0000" /> 
<circle cx="19.5550" cy="59.2050" r="-0.0000" /> 
<circle cx="106.1250" cy="46.8750" r="-0.0000" /> 
<circle cx="107.4000" cy="46.8750" r="-0.0000" /> 
<circle cx="108.6750" cy="46.8750" r="-0.0000" /> 
<circle cx="106.1250" cy="45.6000" r="-0.0000" /> 
<circle cx="107.4000" cy="45.6000" r="-0.0000" /> 
<circle cx="108.6750" cy="45.6000" r="-0.0000" /> 
<circle cx="106.1250" cy="44.3250" r="-0.0000" /> 
<circle cx="107.4000" cy="44.3250" r="-0.0000" /> 
<circle cx="108.6750" cy="44.3250" r="-0.0000" /> 
<circle cx="53.0800" cy="31.7500" r="-0.0000" /> 
<circle cx="50.5800" cy="31.7500" r="-0.0000" /> 
<circle cx="48.5800" cy="31.7500" r="-0.0000" /> 
<circle cx="46.0800" cy="31.7500" r="-0.0000" /> 
<circle cx="56.1500" cy="29.0400" r="-0.0000" /> 
<circle cx="43.0100" cy="29.0400" r="-0.0000" /> 
<circle cx="89.0000" cy="111.5000" r="-0.0000" /> 
<circle cx="89.0000" cy="63.5000" r="-0.0000" /> 
<circle cx="56.0000" cy="111.5000" r="-0.0000" /> 
<circle cx="56.0000" cy="63.5000" r="-0.0000" /> 
<circle cx="42.0000" cy="128.0000" r="-0.0000" /> 
<circle cx="185.0056" cy="22.9944" r="-0.0000" /> 
<circle cx="135.2500" cy="31.5000" r="-0.0000" /> 
<circle cx="135.2500" cy="36.5000" r="-0.0000" /> 
<circle cx="135.2500" cy="34.0000" r="-0.0000" /> 
<circle cx="142.7500" cy="28.4000" r="-0.0000" /> 
<circle cx="142.7500" cy="39.6000" r="-0.0000" /> 
<circle cx="149.7500" cy="36.5000" r="-0.0000" /> 
<circle cx="149.7500" cy="31.5000" r="-0.0000" /> 
<circle cx="105.0000" cy="98.0000" r="-0.0000" /> 
<circle cx="82.5000" cy="32.0000" r="-0.0000" /> 
<circle cx="90.0000" cy="32.0000" r="-0.0000" /> 
<circle cx="97.5000" cy="32.0000" r="-0.0000" /> 
<circle cx="85.0000" cy="34.5000" r="-0.0000" /> 
<circle cx="95.0000" cy="34.5000" r="-0.0000" /> 
<circle cx="92.5000" cy="22.0000" r="-0.0000" /> 
<circle cx="95.0000" cy="22.0000" r="-0.0000" /> 
<circle cx="85.0000" cy="22.0000" r="-0.0000" /> 
<circle cx="87.5000" cy="22.0000" r="-0.0000" /> 
<circle cx="94.9945" cy="24.5000" r="-0.0000" /> 
<circle cx="89.9945" cy="29.5000" r="-0.0000" /> 
<circle cx="84.9945" cy="24.5000" r="-0.0000" /> 
<circle cx="94.9945" cy="29.5000" r="-0.0000" /> 
<circle cx="92.4945" cy="29.5000" r="-0.0000" /> 
<circle cx="89.9945" cy="24.5000" r="-0.0000" /> 
<circle cx="84.9945" cy="29.5000" r="-0.0000" /> 
<circle cx="87.4945" cy="29.5000" r="-0.0000" /> 
<circle cx="30.0000" cy="119.0000" r="-0.0000" /> 
<circle cx="105.0000" cy="67.0000" r="-0.0000" /> 
<circle cx="30.0000" cy="67.0000" r="-0.0000" /> 
<circle cx="180.0000" cy="67.0000" r="-0.0000" /> 
<circle cx="105.0000" cy="119.0000" r="-0.0000" /> 
<circle cx="72.9600" cy="23.4900" r="-0.0000" /> 
<circle cx="74.9600" cy="23.4900" r="-0.0000" /> 
<circle cx="76.9600" cy="23.4900" r="-0.0000" /> 
<circle cx="180.0000" cy="119.0000" r="-0.0000" /> 
<circle cx="120.2500" cy="68.3756" r="-0.0000" /> 
<circle cx="117.7100" cy="68.3756" r="-0.0000" /> 
<circle cx="120.2500" cy="70.9156" r="-0.0000" /> 
<circle cx="117.7100" cy="70.9156" r="-0.0000" /> 
<circle cx="120.2500" cy="73.4556" r="-0.0000" /> 
<circle cx="117.7100" cy="73.4556" r="-0.0000" /> 
<circle cx="120.2500" cy="75.9956" r="-0.0000" /> 
<circle cx="117.7100" cy="75.9956" r="-0.0000" /> 
<circle cx="120.2500" cy="78.5356" r="-0.0000" /> 
<circle cx="117.7100" cy="78.5356" r="-0.0000" /> 
<circle cx="120.2500" cy="81.0756" r="-0.0000" /> 
<circle cx="117.7100" cy="81.0756" r="-0.0000" /> 
<circle cx="120.2500" cy="83.6156" r="-0.0000" /> 
<circle cx="117.7100" cy="83.6156" r="-0.0000" /> 
<circle cx="120.2500" cy="86.1556" r="-0.0000" /> 
<circle cx="117.7100" cy="86.1556" r="-0.0000" /> 
<circle cx="120.2500" cy="88.6956" r="-0.0000" /> 
<circle cx="117.7100" cy="88.6956" r="-0.0000" /> 
<circle cx="120.2500" cy="91.2356" r="-0.0000" /> 
<circle cx="117.7100" cy="91.2356" r="-0.0000" /> 
<circle cx="120.2500" cy="93.7756" r="-0.0000" /> 
<circle cx="117.7100" cy="93.7756" r="-0.0000" /> 
<circle cx="120.2500" cy="96.3156" r="-0.0000" /> 
<circle cx="117.7100" cy="96.3156" r="-0.0000" /> 
<circle cx="120.2500" cy="98.8556" r="-0.0000" /> 
<circle cx="117.7100" cy="98.8556" r="-0.0000" /> 
<circle cx="120.2500" cy="101.3956" r="-0.0000" /> 
<circle cx="117.7100" cy="101.3956" r="-0.0000" /> 
<circle cx="120.2500" cy="103.9356" r="-0.0000" /> 
<circle cx="117.7100" cy="103.9356" r="-0.0000" /> 
<circle cx="120.2500" cy="106.4756" r="-0.0000" /> 
<circle cx="117.7100" cy="106.4756" r="-0.0000" /> 
<circle cx="120.2500" cy="109.0156" r="-0.0000" /> 
<circle cx="117.7100" cy="109.0156" r="-0.0000" /> 
<circle cx="120.2500" cy="111.5556" r="-0.0000" /> 
<circle cx="117.7100" cy="111.5556" r="-0.0000" /> 
<circle cx="120.2500" cy="114.0956" r="-0.0000" /> 
<circle cx="117.7100" cy="114.0956" r="-0.0000" /> 
<circle cx="120.2500" cy="116.6356" r="-0.0000" /> 
<circle cx="117.7100" cy="116.6356" r="-0.0000" /> 
<circle cx="156.5550" cy="74.8456" r="-0.0000" /> 
<circle cx="154.0150" cy="74.8456" r="-0.0000" /> 
<circle cx="156.5550" cy="77.3856" r="-0.0000" /> 
<circle cx="154.0150" cy="77.3856" r="-0.0000" /> 
<circle cx="156.5550" cy="79.9256" r="-0.0000" /> 
<circle cx="154.0150" cy="79.9256" r="-0.0000" /> 
<circle cx="152.3800" cy="119.1506" r="-0.0000" /> 
<circle cx="152.3800" cy="121.6906" r="-0.0000" /> 
<circle cx="154.9200" cy="119.1506" r="-0.0000" /> 
<circle cx="154.9200" cy="121.6906" r="-0.0000" /> 
<circle cx="157.4600" cy="119.1506" r="-0.0000" /> 
<circle cx="157.4600" cy="121.6906" r="-0.0000" /> 
<circle cx="64.0300" cy="23.5000" r="-0.0000" /> 
<circle cx="66.0300" cy="23.5000" r="-0.0000" /> 
<circle cx="68.0300" cy="23.5000" r="-0.0000" /> 
</g> 
</svg>
