<?xml version="1.0" standalone="no"?>
 <!DOCTYPE svg PUBLIC "-//W3C//DTD SVG 1.1//EN" 
 "http://www.w3.org/Graphics/SVG/1.1/DTD/svg11.dtd"> 
<svg
  xmlns:svg="http://www.w3.org/2000/svg"
  xmlns="http://www.w3.org/2000/svg"
  xmlns:xlink="http://www.w3.org/1999/xlink"
  xmlns:inkscape="http://www.inkscape.org/namespaces/inkscape"
  version="1.1"
  width="297.0022mm" height="210.0072mm" viewBox="0.0000 0.0000 297.0022 210.0072">
<title>SVG Image created as pedalboard-hw-B_Courtyard0.svg date 2026-04-22T21:56:05 </title>
  <desc>Image generated by PCBNEW </desc>
<g style="fill:#000000; fill-opacity:1.0000;stroke:#000000; stroke-opacity:1.0000;
stroke-linecap:round; stroke-linejoin:round;"
 transform="translate(0 0) scale(1 1)">
</g>
<g style="fill:none; 
stroke:#000000; stroke-width:0.0500; stroke-opacity:1; 
stroke-linecap:round; stroke-linejoin:round;">
<circle cx="267.0022" cy="119.0000" r="3.2000" /> 
<circle cx="192.0022" cy="67.0000" r="3.2000" /> 
<circle cx="267.0022" cy="67.0000" r="3.2000" /> 
<circle cx="117.0022" cy="67.0000" r="3.2000" /> 
<circle cx="192.0022" cy="119.0000" r="3.2000" /> 
<path style="fill:none; 
stroke:#000000; stroke-width:0.0500; stroke-opacity:1; 
stroke-linecap:round; stroke-linejoin:round;fill:none"
d="M 226.4922,20.1900
217.5922,20.1900
217.5922,25.6900
226.4922,25.6900
Z" /> 
<circle cx="117.0022" cy="119.0000" r="3.2000" /> 
<path d="M181.0922 66.5756
L181.0922 118.3756
" />
<path d="M181.0922 118.3756
L174.9922 118.3756
" />
<path d="M174.9922 66.5756
L181.0922 66.5756
" />
<path d="M174.9922 118.3756
L174.9922 66.5756
" />
<path d="M146.4222 117.3906
L146.4222 123.4906
" />
<path d="M146.4222 123.4906
L137.7722 123.4906
" />
<path d="M144.7872 73.0456
L144.7872 81.6956
" />
<path d="M144.7872 81.6956
L138.6872 81.6956
" />
<path d="M138.6872 73.0456
L144.7872 73.0456
" />
<path d="M138.6872 81.6956
L138.6872 73.0456
" />
<path d="M137.7722 117.3906
L146.4222 117.3906
" />
<path d="M137.7722 123.4906
L137.7722 117.3906
" />
<path style="fill:none; 
stroke:#000000; stroke-width:0.0500; stroke-opacity:1; 
stroke-linecap:round; stroke-linejoin:round;fill:none"
d="M 235.4222,20.2000
226.5222,20.2000
226.5222,25.7000
235.4222,25.7000
Z" /> 
</g> 
</svg>
