<?xml version="1.0" standalone="no"?>
 <!DOCTYPE svg PUBLIC "-//W3C//DTD SVG 1.1//EN" 
 "http://www.w3.org/Graphics/SVG/1.1/DTD/svg11.dtd"> 
<svg
  xmlns:svg="http://www.w3.org/2000/svg"
  xmlns="http://www.w3.org/2000/svg"
  xmlns:xlink="http://www.w3.org/1999/xlink"
  version="1.1"
  width="297.0022mm" height="210.0072mm" viewBox="0.0000 0.0000 297.0022 210.0072">
<title>SVG Image created as pedalboard-hw-User_Drawings4.svg date 2026/04/18 10:01:58 </title>
  <desc>Image generated by PCBNEW </desc>
<g style="fill:#000000; fill-opacity:1.0000;stroke:#000000; stroke-opacity:1.0000;
stroke-linecap:round; stroke-linejoin:round;"
 transform="translate(0 0) scale(1 1)">
<path style="fill:none; 
stroke:#000000; stroke-width:0.0500; stroke-opacity:1; 
stroke-linecap:round; stroke-linejoin:round;fill:none"
d="M 15.3700,19.5000
194.6300,19.5000
194.6300,131.7600
15.3700,131.7600
Z" /> 
</g>
<g style="fill:none; 
stroke:#000000; stroke-width:0.1500; stroke-opacity:1; 
stroke-linecap:round; stroke-linejoin:round;">
<text x="67.5000" y="141.3500"
textLength="9.8690" font-size="1.3333" lengthAdjust="spacingAndGlyphs"
text-anchor="middle" opacity="0" stroke-opacity="0">75.0000 mm</text>
<g class="stroked-text"><desc>75.0000 mm</desc>
<path d="M62.8333 140.3048
L63.5000 140.3048
" />
<path d="M63.5000 140.3048
L63.0714 141.3048
" />
<path d="M64.3571 140.3048
L63.8810 140.3048
" />
<path d="M63.8810 140.3048
L63.8333 140.7810
" />
<path d="M63.8333 140.7810
L63.8810 140.7334
" />
<path d="M63.8810 140.7334
L63.9762 140.6858
" />
<path d="M63.9762 140.6858
L64.2143 140.6858
" />
<path d="M64.2143 140.6858
L64.3095 140.7334
" />
<path d="M64.3095 140.7334
L64.3571 140.7810
" />
<path d="M64.3571 140.7810
L64.4048 140.8762
" />
<path d="M64.4048 140.8762
L64.4048 141.1143
" />
<path d="M64.4048 141.1143
L64.3571 141.2096
" />
<path d="M64.3571 141.2096
L64.3095 141.2572
" />
<path d="M64.3095 141.2572
L64.2143 141.3048
" />
<path d="M64.2143 141.3048
L63.9762 141.3048
" />
<path d="M63.9762 141.3048
L63.8810 141.2572
" />
<path d="M63.8810 141.2572
L63.8333 141.2096
" />
<path d="M64.8333 141.2096
L64.8810 141.2572
" />
<path d="M64.8810 141.2572
L64.8333 141.3048
" />
<path d="M64.8333 141.3048
L64.7857 141.2572
" />
<path d="M64.7857 141.2572
L64.8333 141.2096
" />
<path d="M64.8333 141.2096
L64.8333 141.3048
" />
<path d="M65.5000 140.3048
L65.5952 140.3048
" />
<path d="M65.5952 140.3048
L65.6905 140.3524
" />
<path d="M65.6905 140.3524
L65.7381 140.4001
" />
<path d="M65.7381 140.4001
L65.7857 140.4953
" />
<path d="M65.7857 140.4953
L65.8333 140.6858
" />
<path d="M65.8333 140.6858
L65.8333 140.9239
" />
<path d="M65.8333 140.9239
L65.7857 141.1143
" />
<path d="M65.7857 141.1143
L65.7381 141.2096
" />
<path d="M65.7381 141.2096
L65.6905 141.2572
" />
<path d="M65.6905 141.2572
L65.5952 141.3048
" />
<path d="M65.5952 141.3048
L65.5000 141.3048
" />
<path d="M65.5000 141.3048
L65.4048 141.2572
" />
<path d="M65.4048 141.2572
L65.3571 141.2096
" />
<path d="M65.3571 141.2096
L65.3095 141.1143
" />
<path d="M65.3095 141.1143
L65.2619 140.9239
" />
<path d="M65.2619 140.9239
L65.2619 140.6858
" />
<path d="M65.2619 140.6858
L65.3095 140.4953
" />
<path d="M65.3095 140.4953
L65.3571 140.4001
" />
<path d="M65.3571 140.4001
L65.4048 140.3524
" />
<path d="M65.4048 140.3524
L65.5000 140.3048
" />
<path d="M66.4524 140.3048
L66.5476 140.3048
" />
<path d="M66.5476 140.3048
L66.6429 140.3524
" />
<path d="M66.6429 140.3524
L66.6905 140.4001
" />
<path d="M66.6905 140.4001
L66.7381 140.4953
" />
<path d="M66.7381 140.4953
L66.7857 140.6858
" />
<path d="M66.7857 140.6858
L66.7857 140.9239
" />
<path d="M66.7857 140.9239
L66.7381 141.1143
" />
<path d="M66.7381 141.1143
L66.6905 141.2096
" />
<path d="M66.6905 141.2096
L66.6429 141.2572
" />
<path d="M66.6429 141.2572
L66.5476 141.3048
" />
<path d="M66.5476 141.3048
L66.4524 141.3048
" />
<path d="M66.4524 141.3048
L66.3571 141.2572
" />
<path d="M66.3571 141.2572
L66.3095 141.2096
" />
<path d="M66.3095 141.2096
L66.2619 141.1143
" />
<path d="M66.2619 141.1143
L66.2143 140.9239
" />
<path d="M66.2143 140.9239
L66.2143 140.6858
" />
<path d="M66.2143 140.6858
L66.2619 140.4953
" />
<path d="M66.2619 140.4953
L66.3095 140.4001
" />
<path d="M66.3095 140.4001
L66.3571 140.3524
" />
<path d="M66.3571 140.3524
L66.4524 140.3048
" />
<path d="M67.4048 140.3048
L67.5000 140.3048
" />
<path d="M67.5000 140.3048
L67.5952 140.3524
" />
<path d="M67.5952 140.3524
L67.6429 140.4001
" />
<path d="M67.6429 140.4001
L67.6905 140.4953
" />
<path d="M67.6905 140.4953
L67.7381 140.6858
" />
<path d="M67.7381 140.6858
L67.7381 140.9239
" />
<path d="M67.7381 140.9239
L67.6905 141.1143
" />
<path d="M67.6905 141.1143
L67.6429 141.2096
" />
<path d="M67.6429 141.2096
L67.5952 141.2572
" />
<path d="M67.5952 141.2572
L67.5000 141.3048
" />
<path d="M67.5000 141.3048
L67.4048 141.3048
" />
<path d="M67.4048 141.3048
L67.3095 141.2572
" />
<path d="M67.3095 141.2572
L67.2619 141.2096
" />
<path d="M67.2619 141.2096
L67.2143 141.1143
" />
<path d="M67.2143 141.1143
L67.1667 140.9239
" />
<path d="M67.1667 140.9239
L67.1667 140.6858
" />
<path d="M67.1667 140.6858
L67.2143 140.4953
" />
<path d="M67.2143 140.4953
L67.2619 140.4001
" />
<path d="M67.2619 140.4001
L67.3095 140.3524
" />
<path d="M67.3095 140.3524
L67.4048 140.3048
" />
<path d="M68.3571 140.3048
L68.4524 140.3048
" />
<path d="M68.4524 140.3048
L68.5476 140.3524
" />
<path d="M68.5476 140.3524
L68.5952 140.4001
" />
<path d="M68.5952 140.4001
L68.6429 140.4953
" />
<path d="M68.6429 140.4953
L68.6905 140.6858
" />
<path d="M68.6905 140.6858
L68.6905 140.9239
" />
<path d="M68.6905 140.9239
L68.6429 141.1143
" />
<path d="M68.6429 141.1143
L68.5952 141.2096
" />
<path d="M68.5952 141.2096
L68.5476 141.2572
" />
<path d="M68.5476 141.2572
L68.4524 141.3048
" />
<path d="M68.4524 141.3048
L68.3571 141.3048
" />
<path d="M68.3571 141.3048
L68.2619 141.2572
" />
<path d="M68.2619 141.2572
L68.2143 141.2096
" />
<path d="M68.2143 141.2096
L68.1667 141.1143
" />
<path d="M68.1667 141.1143
L68.1190 140.9239
" />
<path d="M68.1190 140.9239
L68.1190 140.6858
" />
<path d="M68.1190 140.6858
L68.1667 140.4953
" />
<path d="M68.1667 140.4953
L68.2143 140.4001
" />
<path d="M68.2143 140.4001
L68.2619 140.3524
" />
<path d="M68.2619 140.3524
L68.3571 140.3048
" />
<path d="M69.8810 141.3048
L69.8810 140.6382
" />
<path d="M69.8810 140.7334
L69.9286 140.6858
" />
<path d="M69.9286 140.6858
L70.0238 140.6382
" />
<path d="M70.0238 140.6382
L70.1667 140.6382
" />
<path d="M70.1667 140.6382
L70.2619 140.6858
" />
<path d="M70.2619 140.6858
L70.3095 140.7810
" />
<path d="M70.3095 140.7810
L70.3095 141.3048
" />
<path d="M70.3095 140.7810
L70.3571 140.6858
" />
<path d="M70.3571 140.6858
L70.4524 140.6382
" />
<path d="M70.4524 140.6382
L70.5952 140.6382
" />
<path d="M70.5952 140.6382
L70.6905 140.6858
" />
<path d="M70.6905 140.6858
L70.7381 140.7810
" />
<path d="M70.7381 140.7810
L70.7381 141.3048
" />
<path d="M71.2143 141.3048
L71.2143 140.6382
" />
<path d="M71.2143 140.7334
L71.2619 140.6858
" />
<path d="M71.2619 140.6858
L71.3571 140.6382
" />
<path d="M71.3571 140.6382
L71.5000 140.6382
" />
<path d="M71.5000 140.6382
L71.5952 140.6858
" />
<path d="M71.5952 140.6858
L71.6429 140.7810
" />
<path d="M71.6429 140.7810
L71.6429 141.3048
" />
<path d="M71.6429 140.7810
L71.6905 140.6858
" />
<path d="M71.6905 140.6858
L71.7857 140.6382
" />
<path d="M71.7857 140.6382
L71.9286 140.6382
" />
<path d="M71.9286 140.6382
L72.0238 140.6858
" />
<path d="M72.0238 140.6858
L72.0714 140.7810
" />
<path d="M72.0714 140.7810
L72.0714 141.3048
" />
</g><path d="M30.0000 119.5000
L30.0000 142.5864
" />
<path d="M105.0000 119.5000
L105.0000 142.5864
" />
<path d="M30.0000 142.0000
L105.0000 142.0000
" />
<path d="M30.0000 142.0000
L31.1265 141.4136
" />
<path d="M30.0000 142.0000
L31.1265 142.5864
" />
<path d="M105.0000 142.0000
L103.8735 142.5864
" />
<path d="M105.0000 142.0000
L103.8735 141.4136
" />
<g transform="rotate(-359.953996 188.5105 13.4472)">
<text x="188.5105" y="13.9472"
textLength="4.6310" font-size="1.3333" lengthAdjust="spacingAndGlyphs"
text-anchor="middle" opacity="0" stroke-opacity="0">7 mm</text>
</g>
<g class="stroked-text"><desc>7 mm</desc>
<path d="M186.4633 12.9004
L187.1300 12.9009
" />
<path d="M187.1300 12.9009
L186.7006 13.9006
" />
<path d="M188.2720 13.9018
L188.2725 13.2352
" />
<path d="M188.2725 13.3304
L188.3201 13.2828
" />
<path d="M188.3201 13.2828
L188.4154 13.2353
" />
<path d="M188.4154 13.2353
L188.5583 13.2354
" />
<path d="M188.5583 13.2354
L188.6535 13.2831
" />
<path d="M188.6535 13.2831
L188.7010 13.3784
" />
<path d="M188.7010 13.3784
L188.7006 13.9022
" />
<path d="M188.7010 13.3784
L188.7487 13.2832
" />
<path d="M188.7487 13.2832
L188.8440 13.2356
" />
<path d="M188.8440 13.2356
L188.9868 13.2357
" />
<path d="M188.9868 13.2357
L189.0820 13.2834
" />
<path d="M189.0820 13.2834
L189.1296 13.3787
" />
<path d="M189.1296 13.3787
L189.1292 13.9025
" />
<path d="M189.6053 13.9029
L189.6059 13.2362
" />
<path d="M189.6058 13.3315
L189.6535 13.2839
" />
<path d="M189.6535 13.2839
L189.7487 13.2363
" />
<path d="M189.7487 13.2363
L189.8916 13.2365
" />
<path d="M189.8916 13.2365
L189.9868 13.2842
" />
<path d="M189.9868 13.2842
L190.0343 13.3794
" />
<path d="M190.0343 13.3794
L190.0339 13.9032
" />
<path d="M190.0343 13.3794
L190.0820 13.2842
" />
<path d="M190.0820 13.2842
L190.1773 13.2367
" />
<path d="M190.1773 13.2367
L190.3202 13.2368
" />
<path d="M190.3202 13.2368
L190.4154 13.2845
" />
<path d="M190.4154 13.2845
L190.4629 13.3798
" />
<path d="M190.4629 13.3798
L190.4625 13.9036
" />
</g><path d="M185.0060 22.4944
L185.0128 14.0080
" />
<path d="M192.0004 22.5000
L192.0072 14.0136
" />
<path d="M185.0124 14.5944
L192.0067 14.6000
" />
<path d="M185.0124 14.5944
L186.1393 14.0089
" />
<path d="M185.0124 14.5944
L186.1384 15.1817
" />
<path d="M192.0067 14.6000
L190.8798 15.1855
" />
<path d="M192.0067 14.6000
L190.8807 14.0127
" />
<g transform="rotate(-90.000000 197.8500 50.5000)">
<text x="197.8500" y="51.0000"
textLength="5.5833" font-size="1.3333" lengthAdjust="spacingAndGlyphs"
text-anchor="middle" opacity="0" stroke-opacity="0">33 mm</text>
</g>
<g class="stroked-text"><desc>33 mm</desc>
<path d="M197.3048 53.0238
L197.3048 52.4048
" />
<path d="M197.3048 52.4048
L197.6858 52.7381
" />
<path d="M197.6858 52.7381
L197.6858 52.5952
" />
<path d="M197.6858 52.5952
L197.7334 52.5000
" />
<path d="M197.7334 52.5000
L197.7810 52.4524
" />
<path d="M197.7810 52.4524
L197.8762 52.4048
" />
<path d="M197.8762 52.4048
L198.1143 52.4048
" />
<path d="M198.1143 52.4048
L198.2096 52.4524
" />
<path d="M198.2096 52.4524
L198.2572 52.5000
" />
<path d="M198.2572 52.5000
L198.3048 52.5952
" />
<path d="M198.3048 52.5952
L198.3048 52.8810
" />
<path d="M198.3048 52.8810
L198.2572 52.9762
" />
<path d="M198.2572 52.9762
L198.2096 53.0238
" />
<path d="M197.3048 52.0714
L197.3048 51.4524
" />
<path d="M197.3048 51.4524
L197.6858 51.7857
" />
<path d="M197.6858 51.7857
L197.6858 51.6429
" />
<path d="M197.6858 51.6429
L197.7334 51.5476
" />
<path d="M197.7334 51.5476
L197.7810 51.5000
" />
<path d="M197.7810 51.5000
L197.8762 51.4524
" />
<path d="M197.8762 51.4524
L198.1143 51.4524
" />
<path d="M198.1143 51.4524
L198.2096 51.5000
" />
<path d="M198.2096 51.5000
L198.2572 51.5476
" />
<path d="M198.2572 51.5476
L198.3048 51.6429
" />
<path d="M198.3048 51.6429
L198.3048 51.9286
" />
<path d="M198.3048 51.9286
L198.2572 52.0238
" />
<path d="M198.2572 52.0238
L198.2096 52.0714
" />
<path d="M198.3048 50.2619
L197.6382 50.2619
" />
<path d="M197.7334 50.2619
L197.6858 50.2143
" />
<path d="M197.6858 50.2143
L197.6382 50.1190
" />
<path d="M197.6382 50.1190
L197.6382 49.9762
" />
<path d="M197.6382 49.9762
L197.6858 49.8810
" />
<path d="M197.6858 49.8810
L197.7810 49.8333
" />
<path d="M197.7810 49.8333
L198.3048 49.8333
" />
<path d="M197.7810 49.8333
L197.6858 49.7857
" />
<path d="M197.6858 49.7857
L197.6382 49.6905
" />
<path d="M197.6382 49.6905
L197.6382 49.5476
" />
<path d="M197.6382 49.5476
L197.6858 49.4524
" />
<path d="M197.6858 49.4524
L197.7810 49.4048
" />
<path d="M197.7810 49.4048
L198.3048 49.4048
" />
<path d="M198.3048 48.9286
L197.6382 48.9286
" />
<path d="M197.7334 48.9286
L197.6858 48.8810
" />
<path d="M197.6858 48.8810
L197.6382 48.7857
" />
<path d="M197.6382 48.7857
L197.6382 48.6429
" />
<path d="M197.6382 48.6429
L197.6858 48.5476
" />
<path d="M197.6858 48.5476
L197.7810 48.5000
" />
<path d="M197.7810 48.5000
L198.3048 48.5000
" />
<path d="M197.7810 48.5000
L197.6858 48.4524
" />
<path d="M197.6858 48.4524
L197.6382 48.3571
" />
<path d="M197.6382 48.3571
L197.6382 48.2143
" />
<path d="M197.6382 48.2143
L197.6858 48.1190
" />
<path d="M197.6858 48.1190
L197.7810 48.0714
" />
<path d="M197.7810 48.0714
L198.3048 48.0714
" />
</g><path d="M143.0000 34.0000
L199.5864 34.0000
" />
<path d="M143.0000 67.0000
L199.5864 67.0000
" />
<path d="M199.0000 34.0000
L199.0000 67.0000
" />
<path d="M199.0000 34.0000
L199.5864 35.1265
" />
<path d="M199.0000 34.0000
L198.4136 35.1265
" />
<path d="M199.0000 67.0000
L198.4136 65.8735
" />
<path d="M199.0000 67.0000
L199.5864 65.8735
" />
<g transform="rotate(-90.000000 198.0000 124.1000)">
<text x="198.0000" y="124.6000"
textLength="5.5833" font-size="1.3333" lengthAdjust="spacingAndGlyphs"
text-anchor="middle" opacity="0" stroke-opacity="0">12 mm</text>
</g>
<g class="stroked-text"><desc>12 mm</desc>
<path d="M198.4548 126.0048
L198.4548 126.5762
" />
<path d="M198.4548 126.2905
L197.4548 126.2905
" />
<path d="M197.4548 126.2905
L197.5977 126.3857
" />
<path d="M197.5977 126.3857
L197.6929 126.4810
" />
<path d="M197.6929 126.4810
L197.7405 126.5762
" />
<path d="M197.5501 125.6238
L197.5024 125.5762
" />
<path d="M197.5024 125.5762
L197.4548 125.4810
" />
<path d="M197.4548 125.4810
L197.4548 125.2429
" />
<path d="M197.4548 125.2429
L197.5024 125.1476
" />
<path d="M197.5024 125.1476
L197.5501 125.1000
" />
<path d="M197.5501 125.1000
L197.6453 125.0524
" />
<path d="M197.6453 125.0524
L197.7405 125.0524
" />
<path d="M197.7405 125.0524
L197.8834 125.1000
" />
<path d="M197.8834 125.1000
L198.4548 125.6714
" />
<path d="M198.4548 125.6714
L198.4548 125.0524
" />
<path d="M198.4548 123.8619
L197.7882 123.8619
" />
<path d="M197.8834 123.8619
L197.8358 123.8143
" />
<path d="M197.8358 123.8143
L197.7882 123.7190
" />
<path d="M197.7882 123.7190
L197.7882 123.5762
" />
<path d="M197.7882 123.5762
L197.8358 123.4810
" />
<path d="M197.8358 123.4810
L197.9310 123.4333
" />
<path d="M197.9310 123.4333
L198.4548 123.4333
" />
<path d="M197.9310 123.4333
L197.8358 123.3857
" />
<path d="M197.8358 123.3857
L197.7882 123.2905
" />
<path d="M197.7882 123.2905
L197.7882 123.1476
" />
<path d="M197.7882 123.1476
L197.8358 123.0524
" />
<path d="M197.8358 123.0524
L197.9310 123.0048
" />
<path d="M197.9310 123.0048
L198.4548 123.0048
" />
<path d="M198.4548 122.5286
L197.7882 122.5286
" />
<path d="M197.8834 122.5286
L197.8358 122.4810
" />
<path d="M197.8358 122.4810
L197.7882 122.3857
" />
<path d="M197.7882 122.3857
L197.7882 122.2429
" />
<path d="M197.7882 122.2429
L197.8358 122.1476
" />
<path d="M197.8358 122.1476
L197.9310 122.1000
" />
<path d="M197.9310 122.1000
L198.4548 122.1000
" />
<path d="M197.9310 122.1000
L197.8358 122.0524
" />
<path d="M197.8358 122.0524
L197.7882 121.9571
" />
<path d="M197.7882 121.9571
L197.7882 121.8143
" />
<path d="M197.7882 121.8143
L197.8358 121.7190
" />
<path d="M197.8358 121.7190
L197.9310 121.6714
" />
<path d="M197.9310 121.6714
L198.4548 121.6714
" />
</g><path d="M180.1600 119.0000
L199.5864 119.0000
" />
<path d="M180.1600 131.0000
L199.5864 131.0000
" />
<path d="M199.0000 119.0000
L199.0000 131.0000
" />
<path d="M199.0000 119.0000
L199.5864 120.1265
" />
<path d="M199.0000 119.0000
L198.4136 120.1265
" />
<path d="M199.0000 131.0000
L198.4136 129.8735
" />
<path d="M199.0000 131.0000
L199.5864 129.8735
" />
<g transform="rotate(-90.000000 33.6180 22.4972)">
<text x="33.6180" y="22.9972"
textLength="4.6310" font-size="1.3333" lengthAdjust="spacingAndGlyphs"
text-anchor="middle" opacity="0" stroke-opacity="0">3 mm</text>
</g>
<g class="stroked-text"><desc>3 mm</desc>
<path d="M33.0728 24.5448
L33.0728 23.9258
" />
<path d="M33.0728 23.9258
L33.4538 24.2591
" />
<path d="M33.4538 24.2591
L33.4538 24.1162
" />
<path d="M33.4538 24.1162
L33.5014 24.0210
" />
<path d="M33.5014 24.0210
L33.5490 23.9734
" />
<path d="M33.5490 23.9734
L33.6443 23.9258
" />
<path d="M33.6443 23.9258
L33.8824 23.9258
" />
<path d="M33.8824 23.9258
L33.9776 23.9734
" />
<path d="M33.9776 23.9734
L34.0252 24.0210
" />
<path d="M34.0252 24.0210
L34.0728 24.1162
" />
<path d="M34.0728 24.1162
L34.0728 24.4020
" />
<path d="M34.0728 24.4020
L34.0252 24.4972
" />
<path d="M34.0252 24.4972
L33.9776 24.5448
" />
<path d="M34.0728 22.7353
L33.4062 22.7353
" />
<path d="M33.5014 22.7353
L33.4538 22.6877
" />
<path d="M33.4538 22.6877
L33.4062 22.5924
" />
<path d="M33.4062 22.5924
L33.4062 22.4496
" />
<path d="M33.4062 22.4496
L33.4538 22.3543
" />
<path d="M33.4538 22.3543
L33.5490 22.3067
" />
<path d="M33.5490 22.3067
L34.0728 22.3067
" />
<path d="M33.5490 22.3067
L33.4538 22.2591
" />
<path d="M33.4538 22.2591
L33.4062 22.1639
" />
<path d="M33.4062 22.1639
L33.4062 22.0210
" />
<path d="M33.4062 22.0210
L33.4538 21.9258
" />
<path d="M33.4538 21.9258
L33.5490 21.8782
" />
<path d="M33.5490 21.8782
L34.0728 21.8782
" />
<path d="M34.0728 21.4020
L33.4062 21.4020
" />
<path d="M33.5014 21.4020
L33.4538 21.3543
" />
<path d="M33.4538 21.3543
L33.4062 21.2591
" />
<path d="M33.4062 21.2591
L33.4062 21.1162
" />
<path d="M33.4062 21.1162
L33.4538 21.0210
" />
<path d="M33.4538 21.0210
L33.5490 20.9734
" />
<path d="M33.5490 20.9734
L34.0728 20.9734
" />
<path d="M33.5490 20.9734
L33.4538 20.9258
" />
<path d="M33.4538 20.9258
L33.4062 20.8305
" />
<path d="M33.4062 20.8305
L33.4062 20.6877
" />
<path d="M33.4062 20.6877
L33.4538 20.5924
" />
<path d="M33.4538 20.5924
L33.5490 20.5448
" />
<path d="M33.5490 20.5448
L34.0728 20.5448
" />
</g></g>
<g style="fill:none; 
stroke:#000000; stroke-width:0.1000; stroke-opacity:1; 
stroke-linecap:round; stroke-linejoin:round;">
<path d="M24.9874 22.9972
L32.0738 22.9972
" />
<path d="M24.9874 19.9972
L32.0738 19.9972
" />
<path d="M31.4874 22.9972
L31.4874 19.9972
" />
<path d="M31.4874 22.9972
L30.9010 21.8707
" />
<path d="M31.4874 22.9972
L32.0738 21.8707
" />
<path d="M31.4874 19.9972
L32.0738 21.1237
" />
<path d="M31.4874 19.9972
L30.9010 21.1237
" />
</g>
<g style="fill:none; 
stroke:#000000; stroke-width:0.1500; stroke-opacity:1; 
stroke-linecap:round; stroke-linejoin:round;">
<text x="80.0000" y="51.3500"
textLength="9.8690" font-size="1.3333" lengthAdjust="spacingAndGlyphs"
text-anchor="middle" opacity="0" stroke-opacity="0">25.0000 mm</text>
<g class="stroked-text"><desc>25.0000 mm</desc>
<path d="M75.3810 50.4001
L75.4286 50.3524
" />
<path d="M75.4286 50.3524
L75.5238 50.3048
" />
<path d="M75.5238 50.3048
L75.7619 50.3048
" />
<path d="M75.7619 50.3048
L75.8571 50.3524
" />
<path d="M75.8571 50.3524
L75.9048 50.4001
" />
<path d="M75.9048 50.4001
L75.9524 50.4953
" />
<path d="M75.9524 50.4953
L75.9524 50.5905
" />
<path d="M75.9524 50.5905
L75.9048 50.7334
" />
<path d="M75.9048 50.7334
L75.3333 51.3048
" />
<path d="M75.3333 51.3048
L75.9524 51.3048
" />
<path d="M76.8571 50.3048
L76.3810 50.3048
" />
<path d="M76.3810 50.3048
L76.3333 50.7810
" />
<path d="M76.3333 50.7810
L76.3810 50.7334
" />
<path d="M76.3810 50.7334
L76.4762 50.6858
" />
<path d="M76.4762 50.6858
L76.7143 50.6858
" />
<path d="M76.7143 50.6858
L76.8095 50.7334
" />
<path d="M76.8095 50.7334
L76.8571 50.7810
" />
<path d="M76.8571 50.7810
L76.9048 50.8762
" />
<path d="M76.9048 50.8762
L76.9048 51.1143
" />
<path d="M76.9048 51.1143
L76.8571 51.2096
" />
<path d="M76.8571 51.2096
L76.8095 51.2572
" />
<path d="M76.8095 51.2572
L76.7143 51.3048
" />
<path d="M76.7143 51.3048
L76.4762 51.3048
" />
<path d="M76.4762 51.3048
L76.3810 51.2572
" />
<path d="M76.3810 51.2572
L76.3333 51.2096
" />
<path d="M77.3333 51.2096
L77.3810 51.2572
" />
<path d="M77.3810 51.2572
L77.3333 51.3048
" />
<path d="M77.3333 51.3048
L77.2857 51.2572
" />
<path d="M77.2857 51.2572
L77.3333 51.2096
" />
<path d="M77.3333 51.2096
L77.3333 51.3048
" />
<path d="M78.0000 50.3048
L78.0952 50.3048
" />
<path d="M78.0952 50.3048
L78.1905 50.3524
" />
<path d="M78.1905 50.3524
L78.2381 50.4001
" />
<path d="M78.2381 50.4001
L78.2857 50.4953
" />
<path d="M78.2857 50.4953
L78.3333 50.6858
" />
<path d="M78.3333 50.6858
L78.3333 50.9239
" />
<path d="M78.3333 50.9239
L78.2857 51.1143
" />
<path d="M78.2857 51.1143
L78.2381 51.2096
" />
<path d="M78.2381 51.2096
L78.1905 51.2572
" />
<path d="M78.1905 51.2572
L78.0952 51.3048
" />
<path d="M78.0952 51.3048
L78.0000 51.3048
" />
<path d="M78.0000 51.3048
L77.9048 51.2572
" />
<path d="M77.9048 51.2572
L77.8571 51.2096
" />
<path d="M77.8571 51.2096
L77.8095 51.1143
" />
<path d="M77.8095 51.1143
L77.7619 50.9239
" />
<path d="M77.7619 50.9239
L77.7619 50.6858
" />
<path d="M77.7619 50.6858
L77.8095 50.4953
" />
<path d="M77.8095 50.4953
L77.8571 50.4001
" />
<path d="M77.8571 50.4001
L77.9048 50.3524
" />
<path d="M77.9048 50.3524
L78.0000 50.3048
" />
<path d="M78.9524 50.3048
L79.0476 50.3048
" />
<path d="M79.0476 50.3048
L79.1429 50.3524
" />
<path d="M79.1429 50.3524
L79.1905 50.4001
" />
<path d="M79.1905 50.4001
L79.2381 50.4953
" />
<path d="M79.2381 50.4953
L79.2857 50.6858
" />
<path d="M79.2857 50.6858
L79.2857 50.9239
" />
<path d="M79.2857 50.9239
L79.2381 51.1143
" />
<path d="M79.2381 51.1143
L79.1905 51.2096
" />
<path d="M79.1905 51.2096
L79.1429 51.2572
" />
<path d="M79.1429 51.2572
L79.0476 51.3048
" />
<path d="M79.0476 51.3048
L78.9524 51.3048
" />
<path d="M78.9524 51.3048
L78.8571 51.2572
" />
<path d="M78.8571 51.2572
L78.8095 51.2096
" />
<path d="M78.8095 51.2096
L78.7619 51.1143
" />
<path d="M78.7619 51.1143
L78.7143 50.9239
" />
<path d="M78.7143 50.9239
L78.7143 50.6858
" />
<path d="M78.7143 50.6858
L78.7619 50.4953
" />
<path d="M78.7619 50.4953
L78.8095 50.4001
" />
<path d="M78.8095 50.4001
L78.8571 50.3524
" />
<path d="M78.8571 50.3524
L78.9524 50.3048
" />
<path d="M79.9048 50.3048
L80.0000 50.3048
" />
<path d="M80.0000 50.3048
L80.0952 50.3524
" />
<path d="M80.0952 50.3524
L80.1429 50.4001
" />
<path d="M80.1429 50.4001
L80.1905 50.4953
" />
<path d="M80.1905 50.4953
L80.2381 50.6858
" />
<path d="M80.2381 50.6858
L80.2381 50.9239
" />
<path d="M80.2381 50.9239
L80.1905 51.1143
" />
<path d="M80.1905 51.1143
L80.1429 51.2096
" />
<path d="M80.1429 51.2096
L80.0952 51.2572
" />
<path d="M80.0952 51.2572
L80.0000 51.3048
" />
<path d="M80.0000 51.3048
L79.9048 51.3048
" />
<path d="M79.9048 51.3048
L79.8095 51.2572
" />
<path d="M79.8095 51.2572
L79.7619 51.2096
" />
<path d="M79.7619 51.2096
L79.7143 51.1143
" />
<path d="M79.7143 51.1143
L79.6667 50.9239
" />
<path d="M79.6667 50.9239
L79.6667 50.6858
" />
<path d="M79.6667 50.6858
L79.7143 50.4953
" />
<path d="M79.7143 50.4953
L79.7619 50.4001
" />
<path d="M79.7619 50.4001
L79.8095 50.3524
" />
<path d="M79.8095 50.3524
L79.9048 50.3048
" />
<path d="M80.8571 50.3048
L80.9524 50.3048
" />
<path d="M80.9524 50.3048
L81.0476 50.3524
" />
<path d="M81.0476 50.3524
L81.0952 50.4001
" />
<path d="M81.0952 50.4001
L81.1429 50.4953
" />
<path d="M81.1429 50.4953
L81.1905 50.6858
" />
<path d="M81.1905 50.6858
L81.1905 50.9239
" />
<path d="M81.1905 50.9239
L81.1429 51.1143
" />
<path d="M81.1429 51.1143
L81.0952 51.2096
" />
<path d="M81.0952 51.2096
L81.0476 51.2572
" />
<path d="M81.0476 51.2572
L80.9524 51.3048
" />
<path d="M80.9524 51.3048
L80.8571 51.3048
" />
<path d="M80.8571 51.3048
L80.7619 51.2572
" />
<path d="M80.7619 51.2572
L80.7143 51.2096
" />
<path d="M80.7143 51.2096
L80.6667 51.1143
" />
<path d="M80.6667 51.1143
L80.6190 50.9239
" />
<path d="M80.6190 50.9239
L80.6190 50.6858
" />
<path d="M80.6190 50.6858
L80.6667 50.4953
" />
<path d="M80.6667 50.4953
L80.7143 50.4001
" />
<path d="M80.7143 50.4001
L80.7619 50.3524
" />
<path d="M80.7619 50.3524
L80.8571 50.3048
" />
<path d="M82.3810 51.3048
L82.3810 50.6382
" />
<path d="M82.3810 50.7334
L82.4286 50.6858
" />
<path d="M82.4286 50.6858
L82.5238 50.6382
" />
<path d="M82.5238 50.6382
L82.6667 50.6382
" />
<path d="M82.6667 50.6382
L82.7619 50.6858
" />
<path d="M82.7619 50.6858
L82.8095 50.7810
" />
<path d="M82.8095 50.7810
L82.8095 51.3048
" />
<path d="M82.8095 50.7810
L82.8571 50.6858
" />
<path d="M82.8571 50.6858
L82.9524 50.6382
" />
<path d="M82.9524 50.6382
L83.0952 50.6382
" />
<path d="M83.0952 50.6382
L83.1905 50.6858
" />
<path d="M83.1905 50.6858
L83.2381 50.7810
" />
<path d="M83.2381 50.7810
L83.2381 51.3048
" />
<path d="M83.7143 51.3048
L83.7143 50.6382
" />
<path d="M83.7143 50.7334
L83.7619 50.6858
" />
<path d="M83.7619 50.6858
L83.8571 50.6382
" />
<path d="M83.8571 50.6382
L84.0000 50.6382
" />
<path d="M84.0000 50.6382
L84.0952 50.6858
" />
<path d="M84.0952 50.6858
L84.1429 50.7810
" />
<path d="M84.1429 50.7810
L84.1429 51.3048
" />
<path d="M84.1429 50.7810
L84.1905 50.6858
" />
<path d="M84.1905 50.6858
L84.2857 50.6382
" />
<path d="M84.2857 50.6382
L84.4286 50.6382
" />
<path d="M84.4286 50.6382
L84.5238 50.6858
" />
<path d="M84.5238 50.6858
L84.5714 50.7810
" />
<path d="M84.5714 50.7810
L84.5714 51.3048
" />
</g><path d="M67.5000 48.5000
L67.5000 52.5864
" />
<path d="M92.5000 48.5000
L92.5000 52.5864
" />
<path d="M67.5000 52.0000
L92.5000 52.0000
" />
<path d="M67.5000 52.0000
L68.6265 51.4136
" />
<path d="M67.5000 52.0000
L68.6265 52.5864
" />
<path d="M92.5000 52.0000
L91.3735 52.5864
" />
<path d="M92.5000 52.0000
L91.3735 51.4136
" />
<text x="105.0000" y="16.8500"
textLength="5.5833" font-size="1.3333" lengthAdjust="spacingAndGlyphs"
text-anchor="middle" opacity="0" stroke-opacity="0">50 mm</text>
<g class="stroked-text"><desc>50 mm</desc>
<path d="M103.0476 15.8048
L102.5714 15.8048
" />
<path d="M102.5714 15.8048
L102.5238 16.2810
" />
<path d="M102.5238 16.2810
L102.5714 16.2334
" />
<path d="M102.5714 16.2334
L102.6667 16.1858
" />
<path d="M102.6667 16.1858
L102.9048 16.1858
" />
<path d="M102.9048 16.1858
L103.0000 16.2334
" />
<path d="M103.0000 16.2334
L103.0476 16.2810
" />
<path d="M103.0476 16.2810
L103.0952 16.3762
" />
<path d="M103.0952 16.3762
L103.0952 16.6143
" />
<path d="M103.0952 16.6143
L103.0476 16.7096
" />
<path d="M103.0476 16.7096
L103.0000 16.7572
" />
<path d="M103.0000 16.7572
L102.9048 16.8048
" />
<path d="M102.9048 16.8048
L102.6667 16.8048
" />
<path d="M102.6667 16.8048
L102.5714 16.7572
" />
<path d="M102.5714 16.7572
L102.5238 16.7096
" />
<path d="M103.7143 15.8048
L103.8095 15.8048
" />
<path d="M103.8095 15.8048
L103.9048 15.8524
" />
<path d="M103.9048 15.8524
L103.9524 15.9001
" />
<path d="M103.9524 15.9001
L104.0000 15.9953
" />
<path d="M104.0000 15.9953
L104.0476 16.1858
" />
<path d="M104.0476 16.1858
L104.0476 16.4239
" />
<path d="M104.0476 16.4239
L104.0000 16.6143
" />
<path d="M104.0000 16.6143
L103.9524 16.7096
" />
<path d="M103.9524 16.7096
L103.9048 16.7572
" />
<path d="M103.9048 16.7572
L103.8095 16.8048
" />
<path d="M103.8095 16.8048
L103.7143 16.8048
" />
<path d="M103.7143 16.8048
L103.6190 16.7572
" />
<path d="M103.6190 16.7572
L103.5714 16.7096
" />
<path d="M103.5714 16.7096
L103.5238 16.6143
" />
<path d="M103.5238 16.6143
L103.4762 16.4239
" />
<path d="M103.4762 16.4239
L103.4762 16.1858
" />
<path d="M103.4762 16.1858
L103.5238 15.9953
" />
<path d="M103.5238 15.9953
L103.5714 15.9001
" />
<path d="M103.5714 15.9001
L103.6190 15.8524
" />
<path d="M103.6190 15.8524
L103.7143 15.8048
" />
<path d="M105.2381 16.8048
L105.2381 16.1382
" />
<path d="M105.2381 16.2334
L105.2857 16.1858
" />
<path d="M105.2857 16.1858
L105.3810 16.1382
" />
<path d="M105.3810 16.1382
L105.5238 16.1382
" />
<path d="M105.5238 16.1382
L105.6190 16.1858
" />
<path d="M105.6190 16.1858
L105.6667 16.2810
" />
<path d="M105.6667 16.2810
L105.6667 16.8048
" />
<path d="M105.6667 16.2810
L105.7143 16.1858
" />
<path d="M105.7143 16.1858
L105.8095 16.1382
" />
<path d="M105.8095 16.1382
L105.9524 16.1382
" />
<path d="M105.9524 16.1382
L106.0476 16.1858
" />
<path d="M106.0476 16.1858
L106.0952 16.2810
" />
<path d="M106.0952 16.2810
L106.0952 16.8048
" />
<path d="M106.5714 16.8048
L106.5714 16.1382
" />
<path d="M106.5714 16.2334
L106.6190 16.1858
" />
<path d="M106.6190 16.1858
L106.7143 16.1382
" />
<path d="M106.7143 16.1382
L106.8571 16.1382
" />
<path d="M106.8571 16.1382
L106.9524 16.1858
" />
<path d="M106.9524 16.1858
L107.0000 16.2810
" />
<path d="M107.0000 16.2810
L107.0000 16.8048
" />
<path d="M107.0000 16.2810
L107.0476 16.1858
" />
<path d="M107.0476 16.1858
L107.1429 16.1382
" />
<path d="M107.1429 16.1382
L107.2857 16.1382
" />
<path d="M107.2857 16.1382
L107.3810 16.1858
" />
<path d="M107.3810 16.1858
L107.4286 16.2810
" />
<path d="M107.4286 16.2810
L107.4286 16.8048
" />
</g><path d="M80.0000 19.4944
L80.0000 16.9136
" />
<path d="M130.0000 19.4944
L130.0000 16.9136
" />
<path d="M80.0000 17.5000
L130.0000 17.5000
" />
<path d="M80.0000 17.5000
L81.1265 16.9136
" />
<path d="M80.0000 17.5000
L81.1265 18.0864
" />
<path d="M130.0000 17.5000
L128.8735 18.0864
" />
<path d="M130.0000 17.5000
L128.8735 16.9136
" />
<text x="105.0000" y="147.1500"
textLength="8.9167" font-size="1.3333" lengthAdjust="spacingAndGlyphs"
text-anchor="middle" opacity="0" stroke-opacity="0">180.84 mm</text>
<g class="stroked-text"><desc>180.84 mm</desc>
<path d="M101.4286 147.1048
L100.8571 147.1048
" />
<path d="M101.1429 147.1048
L101.1429 146.1048
" />
<path d="M101.1429 146.1048
L101.0476 146.2477
" />
<path d="M101.0476 146.2477
L100.9524 146.3429
" />
<path d="M100.9524 146.3429
L100.8571 146.3905
" />
<path d="M102.0000 146.5334
L101.9048 146.4858
" />
<path d="M101.9048 146.4858
L101.8571 146.4382
" />
<path d="M101.8571 146.4382
L101.8095 146.3429
" />
<path d="M101.8095 146.3429
L101.8095 146.2953
" />
<path d="M101.8095 146.2953
L101.8571 146.2001
" />
<path d="M101.8571 146.2001
L101.9048 146.1524
" />
<path d="M101.9048 146.1524
L102.0000 146.1048
" />
<path d="M102.0000 146.1048
L102.1905 146.1048
" />
<path d="M102.1905 146.1048
L102.2857 146.1524
" />
<path d="M102.2857 146.1524
L102.3333 146.2001
" />
<path d="M102.3333 146.2001
L102.3810 146.2953
" />
<path d="M102.3810 146.2953
L102.3810 146.3429
" />
<path d="M102.3810 146.3429
L102.3333 146.4382
" />
<path d="M102.3333 146.4382
L102.2857 146.4858
" />
<path d="M102.2857 146.4858
L102.1905 146.5334
" />
<path d="M102.1905 146.5334
L102.0000 146.5334
" />
<path d="M102.0000 146.5334
L101.9048 146.5810
" />
<path d="M101.9048 146.5810
L101.8571 146.6286
" />
<path d="M101.8571 146.6286
L101.8095 146.7239
" />
<path d="M101.8095 146.7239
L101.8095 146.9143
" />
<path d="M101.8095 146.9143
L101.8571 147.0096
" />
<path d="M101.8571 147.0096
L101.9048 147.0572
" />
<path d="M101.9048 147.0572
L102.0000 147.1048
" />
<path d="M102.0000 147.1048
L102.1905 147.1048
" />
<path d="M102.1905 147.1048
L102.2857 147.0572
" />
<path d="M102.2857 147.0572
L102.3333 147.0096
" />
<path d="M102.3333 147.0096
L102.3810 146.9143
" />
<path d="M102.3810 146.9143
L102.3810 146.7239
" />
<path d="M102.3810 146.7239
L102.3333 146.6286
" />
<path d="M102.3333 146.6286
L102.2857 146.5810
" />
<path d="M102.2857 146.5810
L102.1905 146.5334
" />
<path d="M103.0000 146.1048
L103.0952 146.1048
" />
<path d="M103.0952 146.1048
L103.1905 146.1524
" />
<path d="M103.1905 146.1524
L103.2381 146.2001
" />
<path d="M103.2381 146.2001
L103.2857 146.2953
" />
<path d="M103.2857 146.2953
L103.3333 146.4858
" />
<path d="M103.3333 146.4858
L103.3333 146.7239
" />
<path d="M103.3333 146.7239
L103.2857 146.9143
" />
<path d="M103.2857 146.9143
L103.2381 147.0096
" />
<path d="M103.2381 147.0096
L103.1905 147.0572
" />
<path d="M103.1905 147.0572
L103.0952 147.1048
" />
<path d="M103.0952 147.1048
L103.0000 147.1048
" />
<path d="M103.0000 147.1048
L102.9048 147.0572
" />
<path d="M102.9048 147.0572
L102.8571 147.0096
" />
<path d="M102.8571 147.0096
L102.8095 146.9143
" />
<path d="M102.8095 146.9143
L102.7619 146.7239
" />
<path d="M102.7619 146.7239
L102.7619 146.4858
" />
<path d="M102.7619 146.4858
L102.8095 146.2953
" />
<path d="M102.8095 146.2953
L102.8571 146.2001
" />
<path d="M102.8571 146.2001
L102.9048 146.1524
" />
<path d="M102.9048 146.1524
L103.0000 146.1048
" />
<path d="M103.7619 147.0096
L103.8095 147.0572
" />
<path d="M103.8095 147.0572
L103.7619 147.1048
" />
<path d="M103.7619 147.1048
L103.7143 147.0572
" />
<path d="M103.7143 147.0572
L103.7619 147.0096
" />
<path d="M103.7619 147.0096
L103.7619 147.1048
" />
<path d="M104.3810 146.5334
L104.2857 146.4858
" />
<path d="M104.2857 146.4858
L104.2381 146.4382
" />
<path d="M104.2381 146.4382
L104.1905 146.3429
" />
<path d="M104.1905 146.3429
L104.1905 146.2953
" />
<path d="M104.1905 146.2953
L104.2381 146.2001
" />
<path d="M104.2381 146.2001
L104.2857 146.1524
" />
<path d="M104.2857 146.1524
L104.3810 146.1048
" />
<path d="M104.3810 146.1048
L104.5714 146.1048
" />
<path d="M104.5714 146.1048
L104.6667 146.1524
" />
<path d="M104.6667 146.1524
L104.7143 146.2001
" />
<path d="M104.7143 146.2001
L104.7619 146.2953
" />
<path d="M104.7619 146.2953
L104.7619 146.3429
" />
<path d="M104.7619 146.3429
L104.7143 146.4382
" />
<path d="M104.7143 146.4382
L104.6667 146.4858
" />
<path d="M104.6667 146.4858
L104.5714 146.5334
" />
<path d="M104.5714 146.5334
L104.3810 146.5334
" />
<path d="M104.3810 146.5334
L104.2857 146.5810
" />
<path d="M104.2857 146.5810
L104.2381 146.6286
" />
<path d="M104.2381 146.6286
L104.1905 146.7239
" />
<path d="M104.1905 146.7239
L104.1905 146.9143
" />
<path d="M104.1905 146.9143
L104.2381 147.0096
" />
<path d="M104.2381 147.0096
L104.2857 147.0572
" />
<path d="M104.2857 147.0572
L104.3810 147.1048
" />
<path d="M104.3810 147.1048
L104.5714 147.1048
" />
<path d="M104.5714 147.1048
L104.6667 147.0572
" />
<path d="M104.6667 147.0572
L104.7143 147.0096
" />
<path d="M104.7143 147.0096
L104.7619 146.9143
" />
<path d="M104.7619 146.9143
L104.7619 146.7239
" />
<path d="M104.7619 146.7239
L104.7143 146.6286
" />
<path d="M104.7143 146.6286
L104.6667 146.5810
" />
<path d="M104.6667 146.5810
L104.5714 146.5334
" />
<path d="M105.6190 146.4382
L105.6190 147.1048
" />
<path d="M105.3810 146.0572
L105.1429 146.7715
" />
<path d="M105.1429 146.7715
L105.7619 146.7715
" />
<path d="M106.9048 147.1048
L106.9048 146.4382
" />
<path d="M106.9048 146.5334
L106.9524 146.4858
" />
<path d="M106.9524 146.4858
L107.0476 146.4382
" />
<path d="M107.0476 146.4382
L107.1905 146.4382
" />
<path d="M107.1905 146.4382
L107.2857 146.4858
" />
<path d="M107.2857 146.4858
L107.3333 146.5810
" />
<path d="M107.3333 146.5810
L107.3333 147.1048
" />
<path d="M107.3333 146.5810
L107.3810 146.4858
" />
<path d="M107.3810 146.4858
L107.4762 146.4382
" />
<path d="M107.4762 146.4382
L107.6190 146.4382
" />
<path d="M107.6190 146.4382
L107.7143 146.4858
" />
<path d="M107.7143 146.4858
L107.7619 146.5810
" />
<path d="M107.7619 146.5810
L107.7619 147.1048
" />
<path d="M108.2381 147.1048
L108.2381 146.4382
" />
<path d="M108.2381 146.5334
L108.2857 146.4858
" />
<path d="M108.2857 146.4858
L108.3810 146.4382
" />
<path d="M108.3810 146.4382
L108.5238 146.4382
" />
<path d="M108.5238 146.4382
L108.6190 146.4858
" />
<path d="M108.6190 146.4858
L108.6667 146.5810
" />
<path d="M108.6667 146.5810
L108.6667 147.1048
" />
<path d="M108.6667 146.5810
L108.7143 146.4858
" />
<path d="M108.7143 146.4858
L108.8095 146.4382
" />
<path d="M108.8095 146.4382
L108.9524 146.4382
" />
<path d="M108.9524 146.4382
L109.0476 146.4858
" />
<path d="M109.0476 146.4858
L109.0952 146.5810
" />
<path d="M109.0952 146.5810
L109.0952 147.1048
" />
</g></g>
<g style="fill:none; 
stroke:#000000; stroke-width:0.1000; stroke-opacity:1; 
stroke-linecap:round; stroke-linejoin:round;">
<path d="M195.4200 106.1100
L195.4200 148.3864
" />
<path d="M14.5800 106.1100
L14.5800 148.3864
" />
<path d="M195.4200 147.8000
L14.5800 147.8000
" />
<path d="M195.4200 147.8000
L194.2935 148.3864
" />
<path d="M195.4200 147.8000
L194.2935 147.2136
" />
<path d="M14.5800 147.8000
L15.7065 147.2136
" />
<path d="M14.5800 147.8000
L15.7065 148.3864
" />
</g>
<g style="fill:none; 
stroke:#000000; stroke-width:0.1500; stroke-opacity:1; 
stroke-linecap:round; stroke-linejoin:round;">
<g transform="rotate(-90.000000 197.8500 93.0000)">
<text x="197.8500" y="93.5000"
textLength="5.5833" font-size="1.3333" lengthAdjust="spacingAndGlyphs"
text-anchor="middle" opacity="0" stroke-opacity="0">52 mm</text>
</g>
<g class="stroked-text"><desc>52 mm</desc>
<path d="M197.3048 94.9524
L197.3048 95.4286
" />
<path d="M197.3048 95.4286
L197.7810 95.4762
" />
<path d="M197.7810 95.4762
L197.7334 95.4286
" />
<path d="M197.7334 95.4286
L197.6858 95.3333
" />
<path d="M197.6858 95.3333
L197.6858 95.0952
" />
<path d="M197.6858 95.0952
L197.7334 95.0000
" />
<path d="M197.7334 95.0000
L197.7810 94.9524
" />
<path d="M197.7810 94.9524
L197.8762 94.9048
" />
<path d="M197.8762 94.9048
L198.1143 94.9048
" />
<path d="M198.1143 94.9048
L198.2096 94.9524
" />
<path d="M198.2096 94.9524
L198.2572 95.0000
" />
<path d="M198.2572 95.0000
L198.3048 95.0952
" />
<path d="M198.3048 95.0952
L198.3048 95.3333
" />
<path d="M198.3048 95.3333
L198.2572 95.4286
" />
<path d="M198.2572 95.4286
L198.2096 95.4762
" />
<path d="M197.4001 94.5238
L197.3524 94.4762
" />
<path d="M197.3524 94.4762
L197.3048 94.3810
" />
<path d="M197.3048 94.3810
L197.3048 94.1429
" />
<path d="M197.3048 94.1429
L197.3524 94.0476
" />
<path d="M197.3524 94.0476
L197.4001 94.0000
" />
<path d="M197.4001 94.0000
L197.4953 93.9524
" />
<path d="M197.4953 93.9524
L197.5905 93.9524
" />
<path d="M197.5905 93.9524
L197.7334 94.0000
" />
<path d="M197.7334 94.0000
L198.3048 94.5714
" />
<path d="M198.3048 94.5714
L198.3048 93.9524
" />
<path d="M198.3048 92.7619
L197.6382 92.7619
" />
<path d="M197.7334 92.7619
L197.6858 92.7143
" />
<path d="M197.6858 92.7143
L197.6382 92.6190
" />
<path d="M197.6382 92.6190
L197.6382 92.4762
" />
<path d="M197.6382 92.4762
L197.6858 92.3810
" />
<path d="M197.6858 92.3810
L197.7810 92.3333
" />
<path d="M197.7810 92.3333
L198.3048 92.3333
" />
<path d="M197.7810 92.3333
L197.6858 92.2857
" />
<path d="M197.6858 92.2857
L197.6382 92.1905
" />
<path d="M197.6382 92.1905
L197.6382 92.0476
" />
<path d="M197.6382 92.0476
L197.6858 91.9524
" />
<path d="M197.6858 91.9524
L197.7810 91.9048
" />
<path d="M197.7810 91.9048
L198.3048 91.9048
" />
<path d="M198.3048 91.4286
L197.6382 91.4286
" />
<path d="M197.7334 91.4286
L197.6858 91.3810
" />
<path d="M197.6858 91.3810
L197.6382 91.2857
" />
<path d="M197.6382 91.2857
L197.6382 91.1429
" />
<path d="M197.6382 91.1429
L197.6858 91.0476
" />
<path d="M197.6858 91.0476
L197.7810 91.0000
" />
<path d="M197.7810 91.0000
L198.3048 91.0000
" />
<path d="M197.7810 91.0000
L197.6858 90.9524
" />
<path d="M197.6858 90.9524
L197.6382 90.8571
" />
<path d="M197.6382 90.8571
L197.6382 90.7143
" />
<path d="M197.6382 90.7143
L197.6858 90.6190
" />
<path d="M197.6858 90.6190
L197.7810 90.5714
" />
<path d="M197.7810 90.5714
L198.3048 90.5714
" />
</g><path d="M180.5000 67.0000
L199.5864 67.0000
" />
<path d="M180.5000 119.0000
L199.5864 119.0000
" />
<path d="M199.0000 67.0000
L199.0000 119.0000
" />
<path d="M199.0000 67.0000
L199.5864 68.1265
" />
<path d="M199.0000 67.0000
L198.4136 68.1265
" />
<path d="M199.0000 119.0000
L198.4136 117.8735
" />
<path d="M199.0000 119.0000
L199.5864 117.8735
" />
<g transform="rotate(-90.000000 200.0500 75.5000)">
<text x="200.0500" y="76.0000"
textLength="6.5357" font-size="1.3333" lengthAdjust="spacingAndGlyphs"
text-anchor="middle" opacity="0" stroke-opacity="0">111 mm</text>
</g>
<g class="stroked-text"><desc>111 mm</desc>
<path d="M200.5048 77.8810
L200.5048 78.4524
" />
<path d="M200.5048 78.1667
L199.5048 78.1667
" />
<path d="M199.5048 78.1667
L199.6477 78.2619
" />
<path d="M199.6477 78.2619
L199.7429 78.3571
" />
<path d="M199.7429 78.3571
L199.7905 78.4524
" />
<path d="M200.5048 76.9286
L200.5048 77.5000
" />
<path d="M200.5048 77.2143
L199.5048 77.2143
" />
<path d="M199.5048 77.2143
L199.6477 77.3095
" />
<path d="M199.6477 77.3095
L199.7429 77.4048
" />
<path d="M199.7429 77.4048
L199.7905 77.5000
" />
<path d="M200.5048 75.9762
L200.5048 76.5476
" />
<path d="M200.5048 76.2619
L199.5048 76.2619
" />
<path d="M199.5048 76.2619
L199.6477 76.3571
" />
<path d="M199.6477 76.3571
L199.7429 76.4524
" />
<path d="M199.7429 76.4524
L199.7905 76.5476
" />
<path d="M200.5048 74.7857
L199.8382 74.7857
" />
<path d="M199.9334 74.7857
L199.8858 74.7381
" />
<path d="M199.8858 74.7381
L199.8382 74.6429
" />
<path d="M199.8382 74.6429
L199.8382 74.5000
" />
<path d="M199.8382 74.5000
L199.8858 74.4048
" />
<path d="M199.8858 74.4048
L199.9810 74.3571
" />
<path d="M199.9810 74.3571
L200.5048 74.3571
" />
<path d="M199.9810 74.3571
L199.8858 74.3095
" />
<path d="M199.8858 74.3095
L199.8382 74.2143
" />
<path d="M199.8382 74.2143
L199.8382 74.0714
" />
<path d="M199.8382 74.0714
L199.8858 73.9762
" />
<path d="M199.8858 73.9762
L199.9810 73.9286
" />
<path d="M199.9810 73.9286
L200.5048 73.9286
" />
<path d="M200.5048 73.4524
L199.8382 73.4524
" />
<path d="M199.9334 73.4524
L199.8858 73.4048
" />
<path d="M199.8858 73.4048
L199.8382 73.3095
" />
<path d="M199.8382 73.3095
L199.8382 73.1667
" />
<path d="M199.8382 73.1667
L199.8858 73.0714
" />
<path d="M199.8858 73.0714
L199.9810 73.0238
" />
<path d="M199.9810 73.0238
L200.5048 73.0238
" />
<path d="M199.9810 73.0238
L199.8858 72.9762
" />
<path d="M199.8858 72.9762
L199.8382 72.8810
" />
<path d="M199.8382 72.8810
L199.8382 72.7381
" />
<path d="M199.8382 72.7381
L199.8858 72.6429
" />
<path d="M199.8858 72.6429
L199.9810 72.5952
" />
<path d="M199.9810 72.5952
L200.5048 72.5952
" />
</g><path d="M187.5000 20.0000
L201.7864 20.0000
" />
<path d="M187.5000 131.0000
L201.7864 131.0000
" />
<path d="M201.2000 20.0000
L201.2000 131.0000
" />
<path d="M201.2000 20.0000
L201.7864 21.1265
" />
<path d="M201.2000 20.0000
L200.6136 21.1265
" />
<path d="M201.2000 131.0000
L200.6136 129.8735
" />
<path d="M201.2000 131.0000
L201.7864 129.8735
" />
<text x="105.0000" y="144.4000"
textLength="6.5357" font-size="1.3333" lengthAdjust="spacingAndGlyphs"
text-anchor="middle" opacity="0" stroke-opacity="0">174 mm</text>
<g class="stroked-text"><desc>174 mm</desc>
<path d="M102.6190 144.3548
L102.0476 144.3548
" />
<path d="M102.3333 144.3548
L102.3333 143.3548
" />
<path d="M102.3333 143.3548
L102.2381 143.4977
" />
<path d="M102.2381 143.4977
L102.1429 143.5929
" />
<path d="M102.1429 143.5929
L102.0476 143.6405
" />
<path d="M102.9524 143.3548
L103.6190 143.3548
" />
<path d="M103.6190 143.3548
L103.1905 144.3548
" />
<path d="M104.4286 143.6882
L104.4286 144.3548
" />
<path d="M104.1905 143.3072
L103.9524 144.0215
" />
<path d="M103.9524 144.0215
L104.5714 144.0215
" />
<path d="M105.7143 144.3548
L105.7143 143.6882
" />
<path d="M105.7143 143.7834
L105.7619 143.7358
" />
<path d="M105.7619 143.7358
L105.8571 143.6882
" />
<path d="M105.8571 143.6882
L106.0000 143.6882
" />
<path d="M106.0000 143.6882
L106.0952 143.7358
" />
<path d="M106.0952 143.7358
L106.1429 143.8310
" />
<path d="M106.1429 143.8310
L106.1429 144.3548
" />
<path d="M106.1429 143.8310
L106.1905 143.7358
" />
<path d="M106.1905 143.7358
L106.2857 143.6882
" />
<path d="M106.2857 143.6882
L106.4286 143.6882
" />
<path d="M106.4286 143.6882
L106.5238 143.7358
" />
<path d="M106.5238 143.7358
L106.5714 143.8310
" />
<path d="M106.5714 143.8310
L106.5714 144.3548
" />
<path d="M107.0476 144.3548
L107.0476 143.6882
" />
<path d="M107.0476 143.7834
L107.0952 143.7358
" />
<path d="M107.0952 143.7358
L107.1905 143.6882
" />
<path d="M107.1905 143.6882
L107.3333 143.6882
" />
<path d="M107.3333 143.6882
L107.4286 143.7358
" />
<path d="M107.4286 143.7358
L107.4762 143.8310
" />
<path d="M107.4762 143.8310
L107.4762 144.3548
" />
<path d="M107.4762 143.8310
L107.5238 143.7358
" />
<path d="M107.5238 143.7358
L107.6190 143.6882
" />
<path d="M107.6190 143.6882
L107.7619 143.6882
" />
<path d="M107.7619 143.6882
L107.8571 143.7358
" />
<path d="M107.8571 143.7358
L107.9048 143.8310
" />
<path d="M107.9048 143.8310
L107.9048 144.3548
" />
</g><path d="M18.0000 125.5000
L18.0000 145.6364
" />
<path d="M192.0000 125.5000
L192.0000 145.6364
" />
<path d="M18.0000 145.0500
L192.0000 145.0500
" />
<path d="M18.0000 145.0500
L19.1265 144.4636
" />
<path d="M18.0000 145.0500
L19.1265 145.6364
" />
<path d="M192.0000 145.0500
L190.8735 145.6364
" />
<path d="M192.0000 145.0500
L190.8735 144.4636
" />
<g transform="rotate(-0.002011 105.0025 13.3472)">
<text x="105.0025" y="13.8472"
textLength="6.5357" font-size="1.3333" lengthAdjust="spacingAndGlyphs"
text-anchor="middle" opacity="0" stroke-opacity="0">160 mm</text>
</g>
<g class="stroked-text"><desc>160 mm</desc>
<path d="M102.6215 13.8021
L102.0501 13.8021
" />
<path d="M102.3358 13.8021
L102.3358 12.8021
" />
<path d="M102.3358 12.8021
L102.2406 12.9450
" />
<path d="M102.2406 12.9450
L102.1453 13.0402
" />
<path d="M102.1453 13.0402
L102.0501 13.0878
" />
<path d="M103.4786 12.8021
L103.2882 12.8021
" />
<path d="M103.2882 12.8021
L103.1929 12.8497
" />
<path d="M103.1929 12.8497
L103.1453 12.8973
" />
<path d="M103.1453 12.8973
L103.0501 13.0402
" />
<path d="M103.0501 13.0402
L103.0025 13.2307
" />
<path d="M103.0025 13.2307
L103.0025 13.6116
" />
<path d="M103.0025 13.6116
L103.0501 13.7068
" />
<path d="M103.0501 13.7068
L103.0977 13.7545
" />
<path d="M103.0977 13.7545
L103.1930 13.8021
" />
<path d="M103.1930 13.8021
L103.3834 13.8021
" />
<path d="M103.3834 13.8021
L103.4787 13.7544
" />
<path d="M103.4787 13.7544
L103.5263 13.7068
" />
<path d="M103.5263 13.7068
L103.5739 13.6116
" />
<path d="M103.5739 13.6116
L103.5739 13.3735
" />
<path d="M103.5739 13.3735
L103.5263 13.2783
" />
<path d="M103.5263 13.2783
L103.4787 13.2306
" />
<path d="M103.4787 13.2306
L103.3834 13.1830
" />
<path d="M103.3834 13.1830
L103.1929 13.1830
" />
<path d="M103.1929 13.1830
L103.0977 13.2306
" />
<path d="M103.0977 13.2306
L103.0501 13.2783
" />
<path d="M103.0501 13.2783
L103.0025 13.3735
" />
<path d="M104.1929 12.8020
L104.2882 12.8020
" />
<path d="M104.2882 12.8020
L104.3834 12.8497
" />
<path d="M104.3834 12.8497
L104.4310 12.8973
" />
<path d="M104.4310 12.8973
L104.4786 12.9925
" />
<path d="M104.4786 12.9925
L104.5263 13.1830
" />
<path d="M104.5263 13.1830
L104.5263 13.4211
" />
<path d="M104.5263 13.4211
L104.4787 13.6116
" />
<path d="M104.4787 13.6116
L104.4311 13.7068
" />
<path d="M104.4311 13.7068
L104.3834 13.7544
" />
<path d="M104.3834 13.7544
L104.2882 13.8020
" />
<path d="M104.2882 13.8020
L104.1930 13.8020
" />
<path d="M104.1930 13.8020
L104.0977 13.7544
" />
<path d="M104.0977 13.7544
L104.0501 13.7068
" />
<path d="M104.0501 13.7068
L104.0025 13.6116
" />
<path d="M104.0025 13.6116
L103.9549 13.4211
" />
<path d="M103.9549 13.4211
L103.9548 13.1830
" />
<path d="M103.9548 13.1830
L104.0025 12.9925
" />
<path d="M104.0025 12.9925
L104.0501 12.8973
" />
<path d="M104.0501 12.8973
L104.0977 12.8497
" />
<path d="M104.0977 12.8497
L104.1929 12.8020
" />
<path d="M105.7168 13.8020
L105.7167 13.1353
" />
<path d="M105.7168 13.2306
L105.7644 13.1829
" />
<path d="M105.7644 13.1829
L105.8596 13.1353
" />
<path d="M105.8596 13.1353
L106.0025 13.1353
" />
<path d="M106.0025 13.1353
L106.0977 13.1829
" />
<path d="M106.0977 13.1829
L106.1453 13.2782
" />
<path d="M106.1453 13.2782
L106.1453 13.8020
" />
<path d="M106.1453 13.2782
L106.1929 13.1829
" />
<path d="M106.1929 13.1829
L106.2882 13.1353
" />
<path d="M106.2882 13.1353
L106.4310 13.1353
" />
<path d="M106.4310 13.1353
L106.5263 13.1829
" />
<path d="M106.5263 13.1829
L106.5739 13.2781
" />
<path d="M106.5739 13.2781
L106.5739 13.8020
" />
<path d="M107.0501 13.8019
L107.0501 13.1353
" />
<path d="M107.0501 13.2305
L107.0977 13.1829
" />
<path d="M107.0977 13.1829
L107.1929 13.1353
" />
<path d="M107.1929 13.1353
L107.3358 13.1353
" />
<path d="M107.3358 13.1353
L107.4310 13.1829
" />
<path d="M107.4310 13.1829
L107.4787 13.2781
" />
<path d="M107.4787 13.2781
L107.4787 13.8019
" />
<path d="M107.4787 13.2781
L107.5263 13.1829
" />
<path d="M107.5263 13.1829
L107.6215 13.1353
" />
<path d="M107.6215 13.1353
L107.7644 13.1352
" />
<path d="M107.7644 13.1352
L107.8596 13.1829
" />
<path d="M107.8596 13.1829
L107.9072 13.2781
" />
<path d="M107.9072 13.2781
L107.9072 13.8019
" />
</g><path d="M25.0000 22.5000
L24.9997 13.9136
" />
<path d="M185.0056 22.4944
L185.0053 13.9080
" />
<path d="M24.9997 14.5000
L185.0053 14.4944
" />
<path d="M24.9997 14.5000
L26.1262 13.9135
" />
<path d="M24.9997 14.5000
L26.1262 15.0864
" />
<path d="M185.0053 14.4944
L183.8788 15.0808
" />
<path d="M185.0053 14.4944
L183.8788 13.9080
" />
<g transform="rotate(-180.000000 120.0000 20.8500)">
<text x="120.0000" y="21.3500"
textLength="7.5357" font-size="1.3333" lengthAdjust="spacingAndGlyphs"
text-anchor="middle" opacity="0" stroke-opacity="0">PCB edge</text>
</g>
<g class="stroked-text"><desc>PCB edge</desc>
<path d="M123.4048 20.3952
L123.4048 21.3952
" />
<path d="M123.4048 21.3952
L123.0238 21.3952
" />
<path d="M123.0238 21.3952
L122.9286 21.3476
" />
<path d="M122.9286 21.3476
L122.8810 21.2999
" />
<path d="M122.8810 21.2999
L122.8333 21.2047
" />
<path d="M122.8333 21.2047
L122.8333 21.0618
" />
<path d="M122.8333 21.0618
L122.8810 20.9666
" />
<path d="M122.8810 20.9666
L122.9286 20.9190
" />
<path d="M122.9286 20.9190
L123.0238 20.8714
" />
<path d="M123.0238 20.8714
L123.4048 20.8714
" />
<path d="M121.8333 20.4904
L121.8810 20.4428
" />
<path d="M121.8810 20.4428
L122.0238 20.3952
" />
<path d="M122.0238 20.3952
L122.1190 20.3952
" />
<path d="M122.1190 20.3952
L122.2619 20.4428
" />
<path d="M122.2619 20.4428
L122.3571 20.5380
" />
<path d="M122.3571 20.5380
L122.4048 20.6333
" />
<path d="M122.4048 20.6333
L122.4524 20.8238
" />
<path d="M122.4524 20.8238
L122.4524 20.9666
" />
<path d="M122.4524 20.9666
L122.4048 21.1571
" />
<path d="M122.4048 21.1571
L122.3571 21.2523
" />
<path d="M122.3571 21.2523
L122.2619 21.3476
" />
<path d="M122.2619 21.3476
L122.1190 21.3952
" />
<path d="M122.1190 21.3952
L122.0238 21.3952
" />
<path d="M122.0238 21.3952
L121.8810 21.3476
" />
<path d="M121.8810 21.3476
L121.8333 21.2999
" />
<path d="M121.0714 20.9190
L120.9286 20.8714
" />
<path d="M120.9286 20.8714
L120.8810 20.8238
" />
<path d="M120.8810 20.8238
L120.8333 20.7285
" />
<path d="M120.8333 20.7285
L120.8333 20.5857
" />
<path d="M120.8333 20.5857
L120.8810 20.4904
" />
<path d="M120.8810 20.4904
L120.9286 20.4428
" />
<path d="M120.9286 20.4428
L121.0238 20.3952
" />
<path d="M121.0238 20.3952
L121.4048 20.3952
" />
<path d="M121.4048 20.3952
L121.4048 21.3952
" />
<path d="M121.4048 21.3952
L121.0714 21.3952
" />
<path d="M121.0714 21.3952
L120.9762 21.3476
" />
<path d="M120.9762 21.3476
L120.9286 21.2999
" />
<path d="M120.9286 21.2999
L120.8810 21.2047
" />
<path d="M120.8810 21.2047
L120.8810 21.1095
" />
<path d="M120.8810 21.1095
L120.9286 21.0142
" />
<path d="M120.9286 21.0142
L120.9762 20.9666
" />
<path d="M120.9762 20.9666
L121.0714 20.9190
" />
<path d="M121.0714 20.9190
L121.4048 20.9190
" />
<path d="M119.2619 20.4428
L119.3571 20.3952
" />
<path d="M119.3571 20.3952
L119.5476 20.3952
" />
<path d="M119.5476 20.3952
L119.6429 20.4428
" />
<path d="M119.6429 20.4428
L119.6905 20.5380
" />
<path d="M119.6905 20.5380
L119.6905 20.9190
" />
<path d="M119.6905 20.9190
L119.6429 21.0142
" />
<path d="M119.6429 21.0142
L119.5476 21.0618
" />
<path d="M119.5476 21.0618
L119.3571 21.0618
" />
<path d="M119.3571 21.0618
L119.2619 21.0142
" />
<path d="M119.2619 21.0142
L119.2143 20.9190
" />
<path d="M119.2143 20.9190
L119.2143 20.8238
" />
<path d="M119.2143 20.8238
L119.6905 20.7285
" />
<path d="M118.3571 20.3952
L118.3571 21.3952
" />
<path d="M118.3571 20.4428
L118.4524 20.3952
" />
<path d="M118.4524 20.3952
L118.6429 20.3952
" />
<path d="M118.6429 20.3952
L118.7381 20.4428
" />
<path d="M118.7381 20.4428
L118.7857 20.4904
" />
<path d="M118.7857 20.4904
L118.8333 20.5857
" />
<path d="M118.8333 20.5857
L118.8333 20.8714
" />
<path d="M118.8333 20.8714
L118.7857 20.9666
" />
<path d="M118.7857 20.9666
L118.7381 21.0142
" />
<path d="M118.7381 21.0142
L118.6429 21.0618
" />
<path d="M118.6429 21.0618
L118.4524 21.0618
" />
<path d="M118.4524 21.0618
L118.3571 21.0142
" />
<path d="M117.4524 21.0618
L117.4524 20.2523
" />
<path d="M117.4524 20.2523
L117.5000 20.1571
" />
<path d="M117.5000 20.1571
L117.5476 20.1095
" />
<path d="M117.5476 20.1095
L117.6429 20.0618
" />
<path d="M117.6429 20.0618
L117.7857 20.0618
" />
<path d="M117.7857 20.0618
L117.8810 20.1095
" />
<path d="M117.4524 20.4428
L117.5476 20.3952
" />
<path d="M117.5476 20.3952
L117.7381 20.3952
" />
<path d="M117.7381 20.3952
L117.8333 20.4428
" />
<path d="M117.8333 20.4428
L117.8810 20.4904
" />
<path d="M117.8810 20.4904
L117.9286 20.5857
" />
<path d="M117.9286 20.5857
L117.9286 20.8714
" />
<path d="M117.9286 20.8714
L117.8810 20.9666
" />
<path d="M117.8810 20.9666
L117.8333 21.0142
" />
<path d="M117.8333 21.0142
L117.7381 21.0618
" />
<path d="M117.7381 21.0618
L117.5476 21.0618
" />
<path d="M117.5476 21.0618
L117.4524 21.0142
" />
<path d="M116.5952 20.4428
L116.6905 20.3952
" />
<path d="M116.6905 20.3952
L116.8810 20.3952
" />
<path d="M116.8810 20.3952
L116.9762 20.4428
" />
<path d="M116.9762 20.4428
L117.0238 20.5380
" />
<path d="M117.0238 20.5380
L117.0238 20.9190
" />
<path d="M117.0238 20.9190
L116.9762 21.0142
" />
<path d="M116.9762 21.0142
L116.8810 21.0618
" />
<path d="M116.8810 21.0618
L116.6905 21.0618
" />
<path d="M116.6905 21.0618
L116.5952 21.0142
" />
<path d="M116.5952 21.0142
L116.5476 20.9190
" />
<path d="M116.5476 20.9190
L116.5476 20.8238
" />
<path d="M116.5476 20.8238
L117.0238 20.7285
" />
</g></g>
<g style="fill:none; 
stroke:#000000; stroke-width:0.0750; stroke-opacity:1; 
stroke-linecap:round; stroke-linejoin:round;">
<g transform="rotate(-90.000000 18.4350 56.4750)">
<text x="18.4350" y="56.7250"
textLength="3.7679" font-size="0.6667" lengthAdjust="spacingAndGlyphs"
text-anchor="middle" opacity="0" stroke-opacity="0">PCB edge</text>
</g>
<g class="stroked-text"><desc>PCB edge</desc>
<path d="M18.6624 58.1774
L18.1624 58.1774
" />
<path d="M18.1624 58.1774
L18.1624 57.9869
" />
<path d="M18.1624 57.9869
L18.1862 57.9393
" />
<path d="M18.1862 57.9393
L18.2100 57.9155
" />
<path d="M18.2100 57.9155
L18.2576 57.8917
" />
<path d="M18.2576 57.8917
L18.3291 57.8917
" />
<path d="M18.3291 57.8917
L18.3767 57.9155
" />
<path d="M18.3767 57.9155
L18.4005 57.9393
" />
<path d="M18.4005 57.9393
L18.4243 57.9869
" />
<path d="M18.4243 57.9869
L18.4243 58.1774
" />
<path d="M18.6148 57.3917
L18.6386 57.4155
" />
<path d="M18.6386 57.4155
L18.6624 57.4869
" />
<path d="M18.6624 57.4869
L18.6624 57.5345
" />
<path d="M18.6624 57.5345
L18.6386 57.6060
" />
<path d="M18.6386 57.6060
L18.5910 57.6536
" />
<path d="M18.5910 57.6536
L18.5434 57.6774
" />
<path d="M18.5434 57.6774
L18.4481 57.7012
" />
<path d="M18.4481 57.7012
L18.3767 57.7012
" />
<path d="M18.3767 57.7012
L18.2815 57.6774
" />
<path d="M18.2815 57.6774
L18.2338 57.6536
" />
<path d="M18.2338 57.6536
L18.1862 57.6060
" />
<path d="M18.1862 57.6060
L18.1624 57.5345
" />
<path d="M18.1624 57.5345
L18.1624 57.4869
" />
<path d="M18.1624 57.4869
L18.1862 57.4155
" />
<path d="M18.1862 57.4155
L18.2100 57.3917
" />
<path d="M18.4005 57.0107
L18.4243 56.9393
" />
<path d="M18.4243 56.9393
L18.4481 56.9155
" />
<path d="M18.4481 56.9155
L18.4957 56.8917
" />
<path d="M18.4957 56.8917
L18.5672 56.8917
" />
<path d="M18.5672 56.8917
L18.6148 56.9155
" />
<path d="M18.6148 56.9155
L18.6386 56.9393
" />
<path d="M18.6386 56.9393
L18.6624 56.9869
" />
<path d="M18.6624 56.9869
L18.6624 57.1774
" />
<path d="M18.6624 57.1774
L18.1624 57.1774
" />
<path d="M18.1624 57.1774
L18.1624 57.0107
" />
<path d="M18.1624 57.0107
L18.1862 56.9631
" />
<path d="M18.1862 56.9631
L18.2100 56.9393
" />
<path d="M18.2100 56.9393
L18.2576 56.9155
" />
<path d="M18.2576 56.9155
L18.3053 56.9155
" />
<path d="M18.3053 56.9155
L18.3529 56.9393
" />
<path d="M18.3529 56.9393
L18.3767 56.9631
" />
<path d="M18.3767 56.9631
L18.4005 57.0107
" />
<path d="M18.4005 57.0107
L18.4005 57.1774
" />
<path d="M18.6386 56.1060
L18.6624 56.1536
" />
<path d="M18.6624 56.1536
L18.6624 56.2488
" />
<path d="M18.6624 56.2488
L18.6386 56.2964
" />
<path d="M18.6386 56.2964
L18.5910 56.3202
" />
<path d="M18.5910 56.3202
L18.4005 56.3202
" />
<path d="M18.4005 56.3202
L18.3529 56.2964
" />
<path d="M18.3529 56.2964
L18.3291 56.2488
" />
<path d="M18.3291 56.2488
L18.3291 56.1536
" />
<path d="M18.3291 56.1536
L18.3529 56.1060
" />
<path d="M18.3529 56.1060
L18.4005 56.0821
" />
<path d="M18.4005 56.0821
L18.4481 56.0821
" />
<path d="M18.4481 56.0821
L18.4957 56.3202
" />
<path d="M18.6624 55.6536
L18.1624 55.6536
" />
<path d="M18.6386 55.6536
L18.6624 55.7012
" />
<path d="M18.6624 55.7012
L18.6624 55.7964
" />
<path d="M18.6624 55.7964
L18.6386 55.8440
" />
<path d="M18.6386 55.8440
L18.6148 55.8679
" />
<path d="M18.6148 55.8679
L18.5672 55.8917
" />
<path d="M18.5672 55.8917
L18.4243 55.8917
" />
<path d="M18.4243 55.8917
L18.3767 55.8679
" />
<path d="M18.3767 55.8679
L18.3529 55.8440
" />
<path d="M18.3529 55.8440
L18.3291 55.7964
" />
<path d="M18.3291 55.7964
L18.3291 55.7012
" />
<path d="M18.3291 55.7012
L18.3529 55.6536
" />
<path d="M18.3291 55.2012
L18.7338 55.2012
" />
<path d="M18.7338 55.2012
L18.7815 55.2250
" />
<path d="M18.7815 55.2250
L18.8053 55.2488
" />
<path d="M18.8053 55.2488
L18.8291 55.2964
" />
<path d="M18.8291 55.2964
L18.8291 55.3679
" />
<path d="M18.8291 55.3679
L18.8053 55.4155
" />
<path d="M18.6386 55.2012
L18.6624 55.2488
" />
<path d="M18.6624 55.2488
L18.6624 55.3440
" />
<path d="M18.6624 55.3440
L18.6386 55.3917
" />
<path d="M18.6386 55.3917
L18.6148 55.4155
" />
<path d="M18.6148 55.4155
L18.5672 55.4393
" />
<path d="M18.5672 55.4393
L18.4243 55.4393
" />
<path d="M18.4243 55.4393
L18.3767 55.4155
" />
<path d="M18.3767 55.4155
L18.3529 55.3917
" />
<path d="M18.3529 55.3917
L18.3291 55.3440
" />
<path d="M18.3291 55.3440
L18.3291 55.2488
" />
<path d="M18.3291 55.2488
L18.3529 55.2012
" />
<path d="M18.6386 54.7726
L18.6624 54.8202
" />
<path d="M18.6624 54.8202
L18.6624 54.9155
" />
<path d="M18.6624 54.9155
L18.6386 54.9631
" />
<path d="M18.6386 54.9631
L18.5910 54.9869
" />
<path d="M18.5910 54.9869
L18.4005 54.9869
" />
<path d="M18.4005 54.9869
L18.3529 54.9631
" />
<path d="M18.3529 54.9631
L18.3291 54.9155
" />
<path d="M18.3291 54.9155
L18.3291 54.8202
" />
<path d="M18.3291 54.8202
L18.3529 54.7726
" />
<path d="M18.3529 54.7726
L18.4005 54.7488
" />
<path d="M18.4005 54.7488
L18.4481 54.7488
" />
<path d="M18.4481 54.7488
L18.4957 54.9869
" />
</g></g>
<g style="fill:none; 
stroke:#000000; stroke-width:0.1500; stroke-opacity:1; 
stroke-linecap:round; stroke-linejoin:round;">
<g transform="rotate(-180.000000 89.9945 20.8500)">
<text x="89.9945" y="21.3500"
textLength="7.5357" font-size="1.3333" lengthAdjust="spacingAndGlyphs"
text-anchor="middle" opacity="0" stroke-opacity="0">PCB edge</text>
</g>
<g class="stroked-text"><desc>PCB edge</desc>
<path d="M93.3993 20.3952
L93.3993 21.3952
" />
<path d="M93.3993 21.3952
L93.0183 21.3952
" />
<path d="M93.0183 21.3952
L92.9231 21.3476
" />
<path d="M92.9231 21.3476
L92.8755 21.2999
" />
<path d="M92.8755 21.2999
L92.8278 21.2047
" />
<path d="M92.8278 21.2047
L92.8278 21.0618
" />
<path d="M92.8278 21.0618
L92.8755 20.9666
" />
<path d="M92.8755 20.9666
L92.9231 20.9190
" />
<path d="M92.9231 20.9190
L93.0183 20.8714
" />
<path d="M93.0183 20.8714
L93.3993 20.8714
" />
<path d="M91.8278 20.4904
L91.8755 20.4428
" />
<path d="M91.8755 20.4428
L92.0183 20.3952
" />
<path d="M92.0183 20.3952
L92.1135 20.3952
" />
<path d="M92.1135 20.3952
L92.2564 20.4428
" />
<path d="M92.2564 20.4428
L92.3516 20.5380
" />
<path d="M92.3516 20.5380
L92.3993 20.6333
" />
<path d="M92.3993 20.6333
L92.4469 20.8238
" />
<path d="M92.4469 20.8238
L92.4469 20.9666
" />
<path d="M92.4469 20.9666
L92.3993 21.1571
" />
<path d="M92.3993 21.1571
L92.3516 21.2523
" />
<path d="M92.3516 21.2523
L92.2564 21.3476
" />
<path d="M92.2564 21.3476
L92.1135 21.3952
" />
<path d="M92.1135 21.3952
L92.0183 21.3952
" />
<path d="M92.0183 21.3952
L91.8755 21.3476
" />
<path d="M91.8755 21.3476
L91.8278 21.2999
" />
<path d="M91.0659 20.9190
L90.9231 20.8714
" />
<path d="M90.9231 20.8714
L90.8755 20.8238
" />
<path d="M90.8755 20.8238
L90.8278 20.7285
" />
<path d="M90.8278 20.7285
L90.8278 20.5857
" />
<path d="M90.8278 20.5857
L90.8755 20.4904
" />
<path d="M90.8755 20.4904
L90.9231 20.4428
" />
<path d="M90.9231 20.4428
L91.0183 20.3952
" />
<path d="M91.0183 20.3952
L91.3993 20.3952
" />
<path d="M91.3993 20.3952
L91.3993 21.3952
" />
<path d="M91.3993 21.3952
L91.0659 21.3952
" />
<path d="M91.0659 21.3952
L90.9707 21.3476
" />
<path d="M90.9707 21.3476
L90.9231 21.2999
" />
<path d="M90.9231 21.2999
L90.8755 21.2047
" />
<path d="M90.8755 21.2047
L90.8755 21.1095
" />
<path d="M90.8755 21.1095
L90.9231 21.0142
" />
<path d="M90.9231 21.0142
L90.9707 20.9666
" />
<path d="M90.9707 20.9666
L91.0659 20.9190
" />
<path d="M91.0659 20.9190
L91.3993 20.9190
" />
<path d="M89.2564 20.4428
L89.3516 20.3952
" />
<path d="M89.3516 20.3952
L89.5421 20.3952
" />
<path d="M89.5421 20.3952
L89.6374 20.4428
" />
<path d="M89.6374 20.4428
L89.6850 20.5380
" />
<path d="M89.6850 20.5380
L89.6850 20.9190
" />
<path d="M89.6850 20.9190
L89.6374 21.0142
" />
<path d="M89.6374 21.0142
L89.5421 21.0618
" />
<path d="M89.5421 21.0618
L89.3516 21.0618
" />
<path d="M89.3516 21.0618
L89.2564 21.0142
" />
<path d="M89.2564 21.0142
L89.2088 20.9190
" />
<path d="M89.2088 20.9190
L89.2088 20.8238
" />
<path d="M89.2088 20.8238
L89.6850 20.7285
" />
<path d="M88.3516 20.3952
L88.3516 21.3952
" />
<path d="M88.3516 20.4428
L88.4469 20.3952
" />
<path d="M88.4469 20.3952
L88.6374 20.3952
" />
<path d="M88.6374 20.3952
L88.7326 20.4428
" />
<path d="M88.7326 20.4428
L88.7802 20.4904
" />
<path d="M88.7802 20.4904
L88.8278 20.5857
" />
<path d="M88.8278 20.5857
L88.8278 20.8714
" />
<path d="M88.8278 20.8714
L88.7802 20.9666
" />
<path d="M88.7802 20.9666
L88.7326 21.0142
" />
<path d="M88.7326 21.0142
L88.6374 21.0618
" />
<path d="M88.6374 21.0618
L88.4469 21.0618
" />
<path d="M88.4469 21.0618
L88.3516 21.0142
" />
<path d="M87.4469 21.0618
L87.4469 20.2523
" />
<path d="M87.4469 20.2523
L87.4945 20.1571
" />
<path d="M87.4945 20.1571
L87.5421 20.1095
" />
<path d="M87.5421 20.1095
L87.6374 20.0618
" />
<path d="M87.6374 20.0618
L87.7802 20.0618
" />
<path d="M87.7802 20.0618
L87.8755 20.1095
" />
<path d="M87.4469 20.4428
L87.5421 20.3952
" />
<path d="M87.5421 20.3952
L87.7326 20.3952
" />
<path d="M87.7326 20.3952
L87.8278 20.4428
" />
<path d="M87.8278 20.4428
L87.8755 20.4904
" />
<path d="M87.8755 20.4904
L87.9231 20.5857
" />
<path d="M87.9231 20.5857
L87.9231 20.8714
" />
<path d="M87.9231 20.8714
L87.8755 20.9666
" />
<path d="M87.8755 20.9666
L87.8278 21.0142
" />
<path d="M87.8278 21.0142
L87.7326 21.0618
" />
<path d="M87.7326 21.0618
L87.5421 21.0618
" />
<path d="M87.5421 21.0618
L87.4469 21.0142
" />
<path d="M86.5897 20.4428
L86.6850 20.3952
" />
<path d="M86.6850 20.3952
L86.8755 20.3952
" />
<path d="M86.8755 20.3952
L86.9707 20.4428
" />
<path d="M86.9707 20.4428
L87.0183 20.5380
" />
<path d="M87.0183 20.5380
L87.0183 20.9190
" />
<path d="M87.0183 20.9190
L86.9707 21.0142
" />
<path d="M86.9707 21.0142
L86.8755 21.0618
" />
<path d="M86.8755 21.0618
L86.6850 21.0618
" />
<path d="M86.6850 21.0618
L86.5897 21.0142
" />
<path d="M86.5897 21.0142
L86.5421 20.9190
" />
<path d="M86.5421 20.9190
L86.5421 20.8238
" />
<path d="M86.5421 20.8238
L87.0183 20.7285
" />
</g><text x="143.4800" y="55.8556"
textLength="5.5833" font-size="1.3333" lengthAdjust="spacingAndGlyphs"
text-anchor="middle" opacity="0" stroke-opacity="0">49 mm</text>
<g class="stroked-text"><desc>49 mm</desc>
<path d="M141.4800 55.1438
L141.4800 55.8104
" />
<path d="M141.2419 54.7628
L141.0038 55.4771
" />
<path d="M141.0038 55.4771
L141.6229 55.4771
" />
<path d="M142.0514 55.8104
L142.2419 55.8104
" />
<path d="M142.2419 55.8104
L142.3371 55.7628
" />
<path d="M142.3371 55.7628
L142.3848 55.7152
" />
<path d="M142.3848 55.7152
L142.4800 55.5723
" />
<path d="M142.4800 55.5723
L142.5276 55.3818
" />
<path d="M142.5276 55.3818
L142.5276 55.0009
" />
<path d="M142.5276 55.0009
L142.4800 54.9057
" />
<path d="M142.4800 54.9057
L142.4324 54.8580
" />
<path d="M142.4324 54.8580
L142.3371 54.8104
" />
<path d="M142.3371 54.8104
L142.1467 54.8104
" />
<path d="M142.1467 54.8104
L142.0514 54.8580
" />
<path d="M142.0514 54.8580
L142.0038 54.9057
" />
<path d="M142.0038 54.9057
L141.9562 55.0009
" />
<path d="M141.9562 55.0009
L141.9562 55.2390
" />
<path d="M141.9562 55.2390
L142.0038 55.3342
" />
<path d="M142.0038 55.3342
L142.0514 55.3818
" />
<path d="M142.0514 55.3818
L142.1467 55.4295
" />
<path d="M142.1467 55.4295
L142.3371 55.4295
" />
<path d="M142.3371 55.4295
L142.4324 55.3818
" />
<path d="M142.4324 55.3818
L142.4800 55.3342
" />
<path d="M142.4800 55.3342
L142.5276 55.2390
" />
<path d="M143.7181 55.8104
L143.7181 55.1438
" />
<path d="M143.7181 55.2390
L143.7657 55.1914
" />
<path d="M143.7657 55.1914
L143.8610 55.1438
" />
<path d="M143.8610 55.1438
L144.0038 55.1438
" />
<path d="M144.0038 55.1438
L144.0990 55.1914
" />
<path d="M144.0990 55.1914
L144.1467 55.2866
" />
<path d="M144.1467 55.2866
L144.1467 55.8104
" />
<path d="M144.1467 55.2866
L144.1943 55.1914
" />
<path d="M144.1943 55.1914
L144.2895 55.1438
" />
<path d="M144.2895 55.1438
L144.4324 55.1438
" />
<path d="M144.4324 55.1438
L144.5276 55.1914
" />
<path d="M144.5276 55.1914
L144.5752 55.2866
" />
<path d="M144.5752 55.2866
L144.5752 55.8104
" />
<path d="M145.0514 55.8104
L145.0514 55.1438
" />
<path d="M145.0514 55.2390
L145.0990 55.1914
" />
<path d="M145.0990 55.1914
L145.1943 55.1438
" />
<path d="M145.1943 55.1438
L145.3371 55.1438
" />
<path d="M145.3371 55.1438
L145.4324 55.1914
" />
<path d="M145.4324 55.1914
L145.4800 55.2866
" />
<path d="M145.4800 55.2866
L145.4800 55.8104
" />
<path d="M145.4800 55.2866
L145.5276 55.1914
" />
<path d="M145.5276 55.1914
L145.6229 55.1438
" />
<path d="M145.6229 55.1438
L145.7657 55.1438
" />
<path d="M145.7657 55.1438
L145.8610 55.1914
" />
<path d="M145.8610 55.1914
L145.9086 55.2866
" />
<path d="M145.9086 55.2866
L145.9086 55.8104
" />
</g><g transform="rotate(-90.000000 106.3300 92.5056)">
<text x="106.3300" y="93.0056"
textLength="5.5833" font-size="1.3333" lengthAdjust="spacingAndGlyphs"
text-anchor="middle" opacity="0" stroke-opacity="0">58 mm</text>
</g>
<g class="stroked-text"><desc>58 mm</desc>
<path d="M105.7848 94.4580
L105.7848 94.9342
" />
<path d="M105.7848 94.9342
L106.2610 94.9818
" />
<path d="M106.2610 94.9818
L106.2134 94.9342
" />
<path d="M106.2134 94.9342
L106.1658 94.8389
" />
<path d="M106.1658 94.8389
L106.1658 94.6008
" />
<path d="M106.1658 94.6008
L106.2134 94.5056
" />
<path d="M106.2134 94.5056
L106.2610 94.4580
" />
<path d="M106.2610 94.4580
L106.3562 94.4104
" />
<path d="M106.3562 94.4104
L106.5943 94.4104
" />
<path d="M106.5943 94.4104
L106.6896 94.4580
" />
<path d="M106.6896 94.4580
L106.7372 94.5056
" />
<path d="M106.7372 94.5056
L106.7848 94.6008
" />
<path d="M106.7848 94.6008
L106.7848 94.8389
" />
<path d="M106.7848 94.8389
L106.7372 94.9342
" />
<path d="M106.7372 94.9342
L106.6896 94.9818
" />
<path d="M106.2134 93.8389
L106.1658 93.9342
" />
<path d="M106.1658 93.9342
L106.1182 93.9818
" />
<path d="M106.1182 93.9818
L106.0229 94.0294
" />
<path d="M106.0229 94.0294
L105.9753 94.0294
" />
<path d="M105.9753 94.0294
L105.8801 93.9818
" />
<path d="M105.8801 93.9818
L105.8324 93.9342
" />
<path d="M105.8324 93.9342
L105.7848 93.8389
" />
<path d="M105.7848 93.8389
L105.7848 93.6485
" />
<path d="M105.7848 93.6485
L105.8324 93.5532
" />
<path d="M105.8324 93.5532
L105.8801 93.5056
" />
<path d="M105.8801 93.5056
L105.9753 93.4580
" />
<path d="M105.9753 93.4580
L106.0229 93.4580
" />
<path d="M106.0229 93.4580
L106.1182 93.5056
" />
<path d="M106.1182 93.5056
L106.1658 93.5532
" />
<path d="M106.1658 93.5532
L106.2134 93.6485
" />
<path d="M106.2134 93.6485
L106.2134 93.8389
" />
<path d="M106.2134 93.8389
L106.2610 93.9342
" />
<path d="M106.2610 93.9342
L106.3086 93.9818
" />
<path d="M106.3086 93.9818
L106.4039 94.0294
" />
<path d="M106.4039 94.0294
L106.5943 94.0294
" />
<path d="M106.5943 94.0294
L106.6896 93.9818
" />
<path d="M106.6896 93.9818
L106.7372 93.9342
" />
<path d="M106.7372 93.9342
L106.7848 93.8389
" />
<path d="M106.7848 93.8389
L106.7848 93.6485
" />
<path d="M106.7848 93.6485
L106.7372 93.5532
" />
<path d="M106.7372 93.5532
L106.6896 93.5056
" />
<path d="M106.6896 93.5056
L106.5943 93.4580
" />
<path d="M106.5943 93.4580
L106.4039 93.4580
" />
<path d="M106.4039 93.4580
L106.3086 93.5056
" />
<path d="M106.3086 93.5056
L106.2610 93.5532
" />
<path d="M106.2610 93.5532
L106.2134 93.6485
" />
<path d="M106.7848 92.2675
L106.1182 92.2675
" />
<path d="M106.2134 92.2675
L106.1658 92.2199
" />
<path d="M106.1658 92.2199
L106.1182 92.1246
" />
<path d="M106.1182 92.1246
L106.1182 91.9818
" />
<path d="M106.1182 91.9818
L106.1658 91.8866
" />
<path d="M106.1658 91.8866
L106.2610 91.8389
" />
<path d="M106.2610 91.8389
L106.7848 91.8389
" />
<path d="M106.2610 91.8389
L106.1658 91.7913
" />
<path d="M106.1658 91.7913
L106.1182 91.6961
" />
<path d="M106.1182 91.6961
L106.1182 91.5532
" />
<path d="M106.1182 91.5532
L106.1658 91.4580
" />
<path d="M106.1658 91.4580
L106.2610 91.4104
" />
<path d="M106.2610 91.4104
L106.7848 91.4104
" />
<path d="M106.7848 90.9342
L106.1182 90.9342
" />
<path d="M106.2134 90.9342
L106.1658 90.8866
" />
<path d="M106.1658 90.8866
L106.1182 90.7913
" />
<path d="M106.1182 90.7913
L106.1182 90.6485
" />
<path d="M106.1182 90.6485
L106.1658 90.5532
" />
<path d="M106.1658 90.5532
L106.2610 90.5056
" />
<path d="M106.2610 90.5056
L106.7848 90.5056
" />
<path d="M106.2610 90.5056
L106.1658 90.4580
" />
<path d="M106.1658 90.4580
L106.1182 90.3627
" />
<path d="M106.1182 90.3627
L106.1182 90.2199
" />
<path d="M106.1182 90.2199
L106.1658 90.1246
" />
<path d="M106.1658 90.1246
L106.2610 90.0770
" />
<path d="M106.2610 90.0770
L106.7848 90.0770
" />
</g><g transform="rotate(-90.000000 101.8300 92.5056)">
<text x="101.8300" y="93.0056"
textLength="5.5833" font-size="1.3333" lengthAdjust="spacingAndGlyphs"
text-anchor="middle" opacity="0" stroke-opacity="0">65 mm</text>
</g>
<g class="stroked-text"><desc>65 mm</desc>
<path d="M101.2848 94.5056
L101.2848 94.6961
" />
<path d="M101.2848 94.6961
L101.3324 94.7913
" />
<path d="M101.3324 94.7913
L101.3801 94.8389
" />
<path d="M101.3801 94.8389
L101.5229 94.9342
" />
<path d="M101.5229 94.9342
L101.7134 94.9818
" />
<path d="M101.7134 94.9818
L102.0943 94.9818
" />
<path d="M102.0943 94.9818
L102.1896 94.9342
" />
<path d="M102.1896 94.9342
L102.2372 94.8866
" />
<path d="M102.2372 94.8866
L102.2848 94.7913
" />
<path d="M102.2848 94.7913
L102.2848 94.6008
" />
<path d="M102.2848 94.6008
L102.2372 94.5056
" />
<path d="M102.2372 94.5056
L102.1896 94.4580
" />
<path d="M102.1896 94.4580
L102.0943 94.4104
" />
<path d="M102.0943 94.4104
L101.8562 94.4104
" />
<path d="M101.8562 94.4104
L101.7610 94.4580
" />
<path d="M101.7610 94.4580
L101.7134 94.5056
" />
<path d="M101.7134 94.5056
L101.6658 94.6008
" />
<path d="M101.6658 94.6008
L101.6658 94.7913
" />
<path d="M101.6658 94.7913
L101.7134 94.8866
" />
<path d="M101.7134 94.8866
L101.7610 94.9342
" />
<path d="M101.7610 94.9342
L101.8562 94.9818
" />
<path d="M101.2848 93.5056
L101.2848 93.9818
" />
<path d="M101.2848 93.9818
L101.7610 94.0294
" />
<path d="M101.7610 94.0294
L101.7134 93.9818
" />
<path d="M101.7134 93.9818
L101.6658 93.8866
" />
<path d="M101.6658 93.8866
L101.6658 93.6485
" />
<path d="M101.6658 93.6485
L101.7134 93.5532
" />
<path d="M101.7134 93.5532
L101.7610 93.5056
" />
<path d="M101.7610 93.5056
L101.8562 93.4580
" />
<path d="M101.8562 93.4580
L102.0943 93.4580
" />
<path d="M102.0943 93.4580
L102.1896 93.5056
" />
<path d="M102.1896 93.5056
L102.2372 93.5532
" />
<path d="M102.2372 93.5532
L102.2848 93.6485
" />
<path d="M102.2848 93.6485
L102.2848 93.8866
" />
<path d="M102.2848 93.8866
L102.2372 93.9818
" />
<path d="M102.2372 93.9818
L102.1896 94.0294
" />
<path d="M102.2848 92.2675
L101.6182 92.2675
" />
<path d="M101.7134 92.2675
L101.6658 92.2199
" />
<path d="M101.6658 92.2199
L101.6182 92.1246
" />
<path d="M101.6182 92.1246
L101.6182 91.9818
" />
<path d="M101.6182 91.9818
L101.6658 91.8866
" />
<path d="M101.6658 91.8866
L101.7610 91.8389
" />
<path d="M101.7610 91.8389
L102.2848 91.8389
" />
<path d="M101.7610 91.8389
L101.6658 91.7913
" />
<path d="M101.6658 91.7913
L101.6182 91.6961
" />
<path d="M101.6182 91.6961
L101.6182 91.5532
" />
<path d="M101.6182 91.5532
L101.6658 91.4580
" />
<path d="M101.6658 91.4580
L101.7610 91.4104
" />
<path d="M101.7610 91.4104
L102.2848 91.4104
" />
<path d="M102.2848 90.9342
L101.6182 90.9342
" />
<path d="M101.7134 90.9342
L101.6658 90.8866
" />
<path d="M101.6658 90.8866
L101.6182 90.7913
" />
<path d="M101.6182 90.7913
L101.6182 90.6485
" />
<path d="M101.6182 90.6485
L101.6658 90.5532
" />
<path d="M101.6658 90.5532
L101.7610 90.5056
" />
<path d="M101.7610 90.5056
L102.2848 90.5056
" />
<path d="M101.7610 90.5056
L101.6658 90.4580
" />
<path d="M101.6658 90.4580
L101.6182 90.3627
" />
<path d="M101.6182 90.3627
L101.6182 90.2199
" />
<path d="M101.6182 90.2199
L101.6658 90.1246
" />
<path d="M101.6658 90.1246
L101.7610 90.0770
" />
<path d="M101.7610 90.0770
L102.2848 90.0770
" />
</g><g transform="rotate(-90.000000 110.3300 78.0056)">
<text x="110.3300" y="78.5056"
textLength="5.5833" font-size="1.3333" lengthAdjust="spacingAndGlyphs"
text-anchor="middle" opacity="0" stroke-opacity="0">29 mm</text>
</g>
<g class="stroked-text"><desc>29 mm</desc>
<path d="M109.8801 80.4818
L109.8324 80.4342
" />
<path d="M109.8324 80.4342
L109.7848 80.3389
" />
<path d="M109.7848 80.3389
L109.7848 80.1008
" />
<path d="M109.7848 80.1008
L109.8324 80.0056
" />
<path d="M109.8324 80.0056
L109.8801 79.9580
" />
<path d="M109.8801 79.9580
L109.9753 79.9104
" />
<path d="M109.9753 79.9104
L110.0705 79.9104
" />
<path d="M110.0705 79.9104
L110.2134 79.9580
" />
<path d="M110.2134 79.9580
L110.7848 80.5294
" />
<path d="M110.7848 80.5294
L110.7848 79.9104
" />
<path d="M110.7848 79.4342
L110.7848 79.2437
" />
<path d="M110.7848 79.2437
L110.7372 79.1485
" />
<path d="M110.7372 79.1485
L110.6896 79.1008
" />
<path d="M110.6896 79.1008
L110.5467 79.0056
" />
<path d="M110.5467 79.0056
L110.3562 78.9580
" />
<path d="M110.3562 78.9580
L109.9753 78.9580
" />
<path d="M109.9753 78.9580
L109.8801 79.0056
" />
<path d="M109.8801 79.0056
L109.8324 79.0532
" />
<path d="M109.8324 79.0532
L109.7848 79.1485
" />
<path d="M109.7848 79.1485
L109.7848 79.3389
" />
<path d="M109.7848 79.3389
L109.8324 79.4342
" />
<path d="M109.8324 79.4342
L109.8801 79.4818
" />
<path d="M109.8801 79.4818
L109.9753 79.5294
" />
<path d="M109.9753 79.5294
L110.2134 79.5294
" />
<path d="M110.2134 79.5294
L110.3086 79.4818
" />
<path d="M110.3086 79.4818
L110.3562 79.4342
" />
<path d="M110.3562 79.4342
L110.4039 79.3389
" />
<path d="M110.4039 79.3389
L110.4039 79.1485
" />
<path d="M110.4039 79.1485
L110.3562 79.0532
" />
<path d="M110.3562 79.0532
L110.3086 79.0056
" />
<path d="M110.3086 79.0056
L110.2134 78.9580
" />
<path d="M110.7848 77.7675
L110.1182 77.7675
" />
<path d="M110.2134 77.7675
L110.1658 77.7199
" />
<path d="M110.1658 77.7199
L110.1182 77.6246
" />
<path d="M110.1182 77.6246
L110.1182 77.4818
" />
<path d="M110.1182 77.4818
L110.1658 77.3866
" />
<path d="M110.1658 77.3866
L110.2610 77.3389
" />
<path d="M110.2610 77.3389
L110.7848 77.3389
" />
<path d="M110.2610 77.3389
L110.1658 77.2913
" />
<path d="M110.1658 77.2913
L110.1182 77.1961
" />
<path d="M110.1182 77.1961
L110.1182 77.0532
" />
<path d="M110.1182 77.0532
L110.1658 76.9580
" />
<path d="M110.1658 76.9580
L110.2610 76.9104
" />
<path d="M110.2610 76.9104
L110.7848 76.9104
" />
<path d="M110.7848 76.4342
L110.1182 76.4342
" />
<path d="M110.2134 76.4342
L110.1658 76.3866
" />
<path d="M110.1658 76.3866
L110.1182 76.2913
" />
<path d="M110.1182 76.2913
L110.1182 76.1485
" />
<path d="M110.1182 76.1485
L110.1658 76.0532
" />
<path d="M110.1658 76.0532
L110.2610 76.0056
" />
<path d="M110.2610 76.0056
L110.7848 76.0056
" />
<path d="M110.2610 76.0056
L110.1658 75.9580
" />
<path d="M110.1658 75.9580
L110.1182 75.8627
" />
<path d="M110.1182 75.8627
L110.1182 75.7199
" />
<path d="M110.1182 75.7199
L110.1658 75.6246
" />
<path d="M110.1658 75.6246
L110.2610 75.5770
" />
<path d="M110.2610 75.5770
L110.7848 75.5770
" />
</g><text x="170.9800" y="55.0056"
textLength="6.0595" font-size="1.3333" lengthAdjust="spacingAndGlyphs"
text-anchor="middle" opacity="0" stroke-opacity="0">3.5 mm</text>
<g class="stroked-text"><desc>3.5 mm</desc>
<path d="M168.2181 53.9604
L168.8371 53.9604
" />
<path d="M168.8371 53.9604
L168.5038 54.3414
" />
<path d="M168.5038 54.3414
L168.6467 54.3414
" />
<path d="M168.6467 54.3414
L168.7419 54.3890
" />
<path d="M168.7419 54.3890
L168.7895 54.4366
" />
<path d="M168.7895 54.4366
L168.8371 54.5318
" />
<path d="M168.8371 54.5318
L168.8371 54.7699
" />
<path d="M168.8371 54.7699
L168.7895 54.8652
" />
<path d="M168.7895 54.8652
L168.7419 54.9128
" />
<path d="M168.7419 54.9128
L168.6467 54.9604
" />
<path d="M168.6467 54.9604
L168.3610 54.9604
" />
<path d="M168.3610 54.9604
L168.2657 54.9128
" />
<path d="M168.2657 54.9128
L168.2181 54.8652
" />
<path d="M169.2657 54.8652
L169.3133 54.9128
" />
<path d="M169.3133 54.9128
L169.2657 54.9604
" />
<path d="M169.2657 54.9604
L169.2181 54.9128
" />
<path d="M169.2181 54.9128
L169.2657 54.8652
" />
<path d="M169.2657 54.8652
L169.2657 54.9604
" />
<path d="M170.2181 53.9604
L169.7419 53.9604
" />
<path d="M169.7419 53.9604
L169.6943 54.4366
" />
<path d="M169.6943 54.4366
L169.7419 54.3890
" />
<path d="M169.7419 54.3890
L169.8371 54.3414
" />
<path d="M169.8371 54.3414
L170.0752 54.3414
" />
<path d="M170.0752 54.3414
L170.1705 54.3890
" />
<path d="M170.1705 54.3890
L170.2181 54.4366
" />
<path d="M170.2181 54.4366
L170.2657 54.5318
" />
<path d="M170.2657 54.5318
L170.2657 54.7699
" />
<path d="M170.2657 54.7699
L170.2181 54.8652
" />
<path d="M170.2181 54.8652
L170.1705 54.9128
" />
<path d="M170.1705 54.9128
L170.0752 54.9604
" />
<path d="M170.0752 54.9604
L169.8371 54.9604
" />
<path d="M169.8371 54.9604
L169.7419 54.9128
" />
<path d="M169.7419 54.9128
L169.6943 54.8652
" />
<path d="M171.4562 54.9604
L171.4562 54.2938
" />
<path d="M171.4562 54.3890
L171.5038 54.3414
" />
<path d="M171.5038 54.3414
L171.5990 54.2938
" />
<path d="M171.5990 54.2938
L171.7419 54.2938
" />
<path d="M171.7419 54.2938
L171.8371 54.3414
" />
<path d="M171.8371 54.3414
L171.8848 54.4366
" />
<path d="M171.8848 54.4366
L171.8848 54.9604
" />
<path d="M171.8848 54.4366
L171.9324 54.3414
" />
<path d="M171.9324 54.3414
L172.0276 54.2938
" />
<path d="M172.0276 54.2938
L172.1705 54.2938
" />
<path d="M172.1705 54.2938
L172.2657 54.3414
" />
<path d="M172.2657 54.3414
L172.3133 54.4366
" />
<path d="M172.3133 54.4366
L172.3133 54.9604
" />
<path d="M172.7895 54.9604
L172.7895 54.2938
" />
<path d="M172.7895 54.3890
L172.8371 54.3414
" />
<path d="M172.8371 54.3414
L172.9324 54.2938
" />
<path d="M172.9324 54.2938
L173.0752 54.2938
" />
<path d="M173.0752 54.2938
L173.1705 54.3414
" />
<path d="M173.1705 54.3414
L173.2181 54.4366
" />
<path d="M173.2181 54.4366
L173.2181 54.9604
" />
<path d="M173.2181 54.4366
L173.2657 54.3414
" />
<path d="M173.2657 54.3414
L173.3610 54.2938
" />
<path d="M173.3610 54.2938
L173.5038 54.2938
" />
<path d="M173.5038 54.2938
L173.5990 54.3414
" />
<path d="M173.5990 54.3414
L173.6467 54.4366
" />
<path d="M173.6467 54.4366
L173.6467 54.9604
" />
</g></g>
<g style="fill:none; 
stroke:#000000; stroke-width:0.1000; stroke-opacity:1; 
stroke-linecap:round; stroke-linejoin:round;">
<path d="M17.8350 52.4750
L17.8350 60.4750
" />
<circle cx="118.9800" cy="92.5056" r="0.2540" /> 
</g>
<g style="fill:none; 
stroke:#000000; stroke-width:0.1500; stroke-opacity:1; 
stroke-linecap:round; stroke-linejoin:round;">
<text x="143.4800" y="55.8556"
textLength="5.5833" font-size="1.3333" lengthAdjust="spacingAndGlyphs"
text-anchor="middle" opacity="0" stroke-opacity="0">49 mm</text>
<g class="stroked-text"><desc>49 mm</desc>
<path d="M141.4800 55.1438
L141.4800 55.8104
" />
<path d="M141.2419 54.7628
L141.0038 55.4771
" />
<path d="M141.0038 55.4771
L141.6229 55.4771
" />
<path d="M142.0514 55.8104
L142.2419 55.8104
" />
<path d="M142.2419 55.8104
L142.3371 55.7628
" />
<path d="M142.3371 55.7628
L142.3848 55.7152
" />
<path d="M142.3848 55.7152
L142.4800 55.5723
" />
<path d="M142.4800 55.5723
L142.5276 55.3818
" />
<path d="M142.5276 55.3818
L142.5276 55.0009
" />
<path d="M142.5276 55.0009
L142.4800 54.9057
" />
<path d="M142.4800 54.9057
L142.4324 54.8580
" />
<path d="M142.4324 54.8580
L142.3371 54.8104
" />
<path d="M142.3371 54.8104
L142.1467 54.8104
" />
<path d="M142.1467 54.8104
L142.0514 54.8580
" />
<path d="M142.0514 54.8580
L142.0038 54.9057
" />
<path d="M142.0038 54.9057
L141.9562 55.0009
" />
<path d="M141.9562 55.0009
L141.9562 55.2390
" />
<path d="M141.9562 55.2390
L142.0038 55.3342
" />
<path d="M142.0038 55.3342
L142.0514 55.3818
" />
<path d="M142.0514 55.3818
L142.1467 55.4295
" />
<path d="M142.1467 55.4295
L142.3371 55.4295
" />
<path d="M142.3371 55.4295
L142.4324 55.3818
" />
<path d="M142.4324 55.3818
L142.4800 55.3342
" />
<path d="M142.4800 55.3342
L142.5276 55.2390
" />
<path d="M143.7181 55.8104
L143.7181 55.1438
" />
<path d="M143.7181 55.2390
L143.7657 55.1914
" />
<path d="M143.7657 55.1914
L143.8610 55.1438
" />
<path d="M143.8610 55.1438
L144.0038 55.1438
" />
<path d="M144.0038 55.1438
L144.0990 55.1914
" />
<path d="M144.0990 55.1914
L144.1467 55.2866
" />
<path d="M144.1467 55.2866
L144.1467 55.8104
" />
<path d="M144.1467 55.2866
L144.1943 55.1914
" />
<path d="M144.1943 55.1914
L144.2895 55.1438
" />
<path d="M144.2895 55.1438
L144.4324 55.1438
" />
<path d="M144.4324 55.1438
L144.5276 55.1914
" />
<path d="M144.5276 55.1914
L144.5752 55.2866
" />
<path d="M144.5752 55.2866
L144.5752 55.8104
" />
<path d="M145.0514 55.8104
L145.0514 55.1438
" />
<path d="M145.0514 55.2390
L145.0990 55.1914
" />
<path d="M145.0990 55.1914
L145.1943 55.1438
" />
<path d="M145.1943 55.1438
L145.3371 55.1438
" />
<path d="M145.3371 55.1438
L145.4324 55.1914
" />
<path d="M145.4324 55.1914
L145.4800 55.2866
" />
<path d="M145.4800 55.2866
L145.4800 55.8104
" />
<path d="M145.4800 55.2866
L145.5276 55.1914
" />
<path d="M145.5276 55.1914
L145.6229 55.1438
" />
<path d="M145.6229 55.1438
L145.7657 55.1438
" />
<path d="M145.7657 55.1438
L145.8610 55.1914
" />
<path d="M145.8610 55.1914
L145.9086 55.2866
" />
<path d="M145.9086 55.2866
L145.9086 55.8104
" />
</g></g>
<g style="fill:none; 
stroke:#000000; stroke-width:0.1000; stroke-opacity:1; 
stroke-linecap:round; stroke-linejoin:round;">
<path d="M118.9800 63.0056
L118.9800 55.9192
" />
<path d="M167.9800 63.0056
L167.9800 55.9192
" />
<path d="M118.9800 56.5056
L167.9800 56.5056
" />
<path d="M118.9800 56.5056
L120.1065 55.9192
" />
<path d="M118.9800 56.5056
L120.1065 57.0920
" />
<path d="M167.9800 56.5056
L166.8535 57.0920
" />
<path d="M167.9800 56.5056
L166.8535 55.9192
" />
</g>
<g style="fill:none; 
stroke:#000000; stroke-width:0.1500; stroke-opacity:1; 
stroke-linecap:round; stroke-linejoin:round;">
<g transform="rotate(-90.000000 106.3300 92.5056)">
<text x="106.3300" y="93.0056"
textLength="5.5833" font-size="1.3333" lengthAdjust="spacingAndGlyphs"
text-anchor="middle" opacity="0" stroke-opacity="0">58 mm</text>
</g>
<g class="stroked-text"><desc>58 mm</desc>
<path d="M105.7848 94.4580
L105.7848 94.9342
" />
<path d="M105.7848 94.9342
L106.2610 94.9818
" />
<path d="M106.2610 94.9818
L106.2134 94.9342
" />
<path d="M106.2134 94.9342
L106.1658 94.8389
" />
<path d="M106.1658 94.8389
L106.1658 94.6008
" />
<path d="M106.1658 94.6008
L106.2134 94.5056
" />
<path d="M106.2134 94.5056
L106.2610 94.4580
" />
<path d="M106.2610 94.4580
L106.3562 94.4104
" />
<path d="M106.3562 94.4104
L106.5943 94.4104
" />
<path d="M106.5943 94.4104
L106.6896 94.4580
" />
<path d="M106.6896 94.4580
L106.7372 94.5056
" />
<path d="M106.7372 94.5056
L106.7848 94.6008
" />
<path d="M106.7848 94.6008
L106.7848 94.8389
" />
<path d="M106.7848 94.8389
L106.7372 94.9342
" />
<path d="M106.7372 94.9342
L106.6896 94.9818
" />
<path d="M106.2134 93.8389
L106.1658 93.9342
" />
<path d="M106.1658 93.9342
L106.1182 93.9818
" />
<path d="M106.1182 93.9818
L106.0229 94.0294
" />
<path d="M106.0229 94.0294
L105.9753 94.0294
" />
<path d="M105.9753 94.0294
L105.8801 93.9818
" />
<path d="M105.8801 93.9818
L105.8324 93.9342
" />
<path d="M105.8324 93.9342
L105.7848 93.8389
" />
<path d="M105.7848 93.8389
L105.7848 93.6485
" />
<path d="M105.7848 93.6485
L105.8324 93.5532
" />
<path d="M105.8324 93.5532
L105.8801 93.5056
" />
<path d="M105.8801 93.5056
L105.9753 93.4580
" />
<path d="M105.9753 93.4580
L106.0229 93.4580
" />
<path d="M106.0229 93.4580
L106.1182 93.5056
" />
<path d="M106.1182 93.5056
L106.1658 93.5532
" />
<path d="M106.1658 93.5532
L106.2134 93.6485
" />
<path d="M106.2134 93.6485
L106.2134 93.8389
" />
<path d="M106.2134 93.8389
L106.2610 93.9342
" />
<path d="M106.2610 93.9342
L106.3086 93.9818
" />
<path d="M106.3086 93.9818
L106.4039 94.0294
" />
<path d="M106.4039 94.0294
L106.5943 94.0294
" />
<path d="M106.5943 94.0294
L106.6896 93.9818
" />
<path d="M106.6896 93.9818
L106.7372 93.9342
" />
<path d="M106.7372 93.9342
L106.7848 93.8389
" />
<path d="M106.7848 93.8389
L106.7848 93.6485
" />
<path d="M106.7848 93.6485
L106.7372 93.5532
" />
<path d="M106.7372 93.5532
L106.6896 93.5056
" />
<path d="M106.6896 93.5056
L106.5943 93.4580
" />
<path d="M106.5943 93.4580
L106.4039 93.4580
" />
<path d="M106.4039 93.4580
L106.3086 93.5056
" />
<path d="M106.3086 93.5056
L106.2610 93.5532
" />
<path d="M106.2610 93.5532
L106.2134 93.6485
" />
<path d="M106.7848 92.2675
L106.1182 92.2675
" />
<path d="M106.2134 92.2675
L106.1658 92.2199
" />
<path d="M106.1658 92.2199
L106.1182 92.1246
" />
<path d="M106.1182 92.1246
L106.1182 91.9818
" />
<path d="M106.1182 91.9818
L106.1658 91.8866
" />
<path d="M106.1658 91.8866
L106.2610 91.8389
" />
<path d="M106.2610 91.8389
L106.7848 91.8389
" />
<path d="M106.2610 91.8389
L106.1658 91.7913
" />
<path d="M106.1658 91.7913
L106.1182 91.6961
" />
<path d="M106.1182 91.6961
L106.1182 91.5532
" />
<path d="M106.1182 91.5532
L106.1658 91.4580
" />
<path d="M106.1658 91.4580
L106.2610 91.4104
" />
<path d="M106.2610 91.4104
L106.7848 91.4104
" />
<path d="M106.7848 90.9342
L106.1182 90.9342
" />
<path d="M106.2134 90.9342
L106.1658 90.8866
" />
<path d="M106.1658 90.8866
L106.1182 90.7913
" />
<path d="M106.1182 90.7913
L106.1182 90.6485
" />
<path d="M106.1182 90.6485
L106.1658 90.5532
" />
<path d="M106.1658 90.5532
L106.2610 90.5056
" />
<path d="M106.2610 90.5056
L106.7848 90.5056
" />
<path d="M106.2610 90.5056
L106.1658 90.4580
" />
<path d="M106.1658 90.4580
L106.1182 90.3627
" />
<path d="M106.1182 90.3627
L106.1182 90.2199
" />
<path d="M106.1182 90.2199
L106.1658 90.1246
" />
<path d="M106.1658 90.1246
L106.2610 90.0770
" />
<path d="M106.2610 90.0770
L106.7848 90.0770
" />
</g></g>
<g style="fill:none; 
stroke:#000000; stroke-width:0.1000; stroke-opacity:1; 
stroke-linecap:round; stroke-linejoin:round;">
<path d="M118.4800 63.5056
L106.8936 63.5056
" />
<path d="M118.4800 121.5056
L106.8936 121.5056
" />
<path d="M107.4800 63.5056
L107.4800 121.5056
" />
<path d="M107.4800 63.5056
L108.0664 64.6321
" />
<path d="M107.4800 63.5056
L106.8936 64.6321
" />
<path d="M107.4800 121.5056
L106.8936 120.3791
" />
<path d="M107.4800 121.5056
L108.0664 120.3791
" />
</g>
<g style="fill:none; 
stroke:#000000; stroke-width:0.1500; stroke-opacity:1; 
stroke-linecap:round; stroke-linejoin:round;">
<g transform="rotate(-90.000000 101.8300 92.5056)">
<text x="101.8300" y="93.0056"
textLength="5.5833" font-size="1.3333" lengthAdjust="spacingAndGlyphs"
text-anchor="middle" opacity="0" stroke-opacity="0">65 mm</text>
</g>
<g class="stroked-text"><desc>65 mm</desc>
<path d="M101.2848 94.5056
L101.2848 94.6961
" />
<path d="M101.2848 94.6961
L101.3324 94.7913
" />
<path d="M101.3324 94.7913
L101.3801 94.8389
" />
<path d="M101.3801 94.8389
L101.5229 94.9342
" />
<path d="M101.5229 94.9342
L101.7134 94.9818
" />
<path d="M101.7134 94.9818
L102.0943 94.9818
" />
<path d="M102.0943 94.9818
L102.1896 94.9342
" />
<path d="M102.1896 94.9342
L102.2372 94.8866
" />
<path d="M102.2372 94.8866
L102.2848 94.7913
" />
<path d="M102.2848 94.7913
L102.2848 94.6008
" />
<path d="M102.2848 94.6008
L102.2372 94.5056
" />
<path d="M102.2372 94.5056
L102.1896 94.4580
" />
<path d="M102.1896 94.4580
L102.0943 94.4104
" />
<path d="M102.0943 94.4104
L101.8562 94.4104
" />
<path d="M101.8562 94.4104
L101.7610 94.4580
" />
<path d="M101.7610 94.4580
L101.7134 94.5056
" />
<path d="M101.7134 94.5056
L101.6658 94.6008
" />
<path d="M101.6658 94.6008
L101.6658 94.7913
" />
<path d="M101.6658 94.7913
L101.7134 94.8866
" />
<path d="M101.7134 94.8866
L101.7610 94.9342
" />
<path d="M101.7610 94.9342
L101.8562 94.9818
" />
<path d="M101.2848 93.5056
L101.2848 93.9818
" />
<path d="M101.2848 93.9818
L101.7610 94.0294
" />
<path d="M101.7610 94.0294
L101.7134 93.9818
" />
<path d="M101.7134 93.9818
L101.6658 93.8866
" />
<path d="M101.6658 93.8866
L101.6658 93.6485
" />
<path d="M101.6658 93.6485
L101.7134 93.5532
" />
<path d="M101.7134 93.5532
L101.7610 93.5056
" />
<path d="M101.7610 93.5056
L101.8562 93.4580
" />
<path d="M101.8562 93.4580
L102.0943 93.4580
" />
<path d="M102.0943 93.4580
L102.1896 93.5056
" />
<path d="M102.1896 93.5056
L102.2372 93.5532
" />
<path d="M102.2372 93.5532
L102.2848 93.6485
" />
<path d="M102.2848 93.6485
L102.2848 93.8866
" />
<path d="M102.2848 93.8866
L102.2372 93.9818
" />
<path d="M102.2372 93.9818
L102.1896 94.0294
" />
<path d="M102.2848 92.2675
L101.6182 92.2675
" />
<path d="M101.7134 92.2675
L101.6658 92.2199
" />
<path d="M101.6658 92.2199
L101.6182 92.1246
" />
<path d="M101.6182 92.1246
L101.6182 91.9818
" />
<path d="M101.6182 91.9818
L101.6658 91.8866
" />
<path d="M101.6658 91.8866
L101.7610 91.8389
" />
<path d="M101.7610 91.8389
L102.2848 91.8389
" />
<path d="M101.7610 91.8389
L101.6658 91.7913
" />
<path d="M101.6658 91.7913
L101.6182 91.6961
" />
<path d="M101.6182 91.6961
L101.6182 91.5532
" />
<path d="M101.6182 91.5532
L101.6658 91.4580
" />
<path d="M101.6658 91.4580
L101.7610 91.4104
" />
<path d="M101.7610 91.4104
L102.2848 91.4104
" />
<path d="M102.2848 90.9342
L101.6182 90.9342
" />
<path d="M101.7134 90.9342
L101.6658 90.8866
" />
<path d="M101.6658 90.8866
L101.6182 90.7913
" />
<path d="M101.6182 90.7913
L101.6182 90.6485
" />
<path d="M101.6182 90.6485
L101.6658 90.5532
" />
<path d="M101.6658 90.5532
L101.7610 90.5056
" />
<path d="M101.7610 90.5056
L102.2848 90.5056
" />
<path d="M101.7610 90.5056
L101.6658 90.4580
" />
<path d="M101.6658 90.4580
L101.6182 90.3627
" />
<path d="M101.6182 90.3627
L101.6182 90.2199
" />
<path d="M101.6182 90.2199
L101.6658 90.1246
" />
<path d="M101.6658 90.1246
L101.7610 90.0770
" />
<path d="M101.7610 90.0770
L102.2848 90.0770
" />
</g></g>
<g style="fill:none; 
stroke:#000000; stroke-width:0.1000; stroke-opacity:1; 
stroke-linecap:round; stroke-linejoin:round;">
<path d="M118.4800 125.0056
L102.3936 125.0056
" />
<path d="M118.4800 60.0056
L102.3936 60.0056
" />
<path d="M102.9800 125.0056
L102.9800 60.0056
" />
<path d="M102.9800 125.0056
L102.3936 123.8791
" />
<path d="M102.9800 125.0056
L103.5664 123.8791
" />
<path d="M102.9800 60.0056
L103.5664 61.1321
" />
<path d="M102.9800 60.0056
L102.3936 61.1321
" />
</g>
<g style="fill:none; 
stroke:#000000; stroke-width:0.1500; stroke-opacity:1; 
stroke-linecap:round; stroke-linejoin:round;">
<g transform="rotate(-90.000000 110.3300 78.0056)">
<text x="110.3300" y="78.5056"
textLength="5.5833" font-size="1.3333" lengthAdjust="spacingAndGlyphs"
text-anchor="middle" opacity="0" stroke-opacity="0">29 mm</text>
</g>
<g class="stroked-text"><desc>29 mm</desc>
<path d="M109.8801 80.4818
L109.8324 80.4342
" />
<path d="M109.8324 80.4342
L109.7848 80.3389
" />
<path d="M109.7848 80.3389
L109.7848 80.1008
" />
<path d="M109.7848 80.1008
L109.8324 80.0056
" />
<path d="M109.8324 80.0056
L109.8801 79.9580
" />
<path d="M109.8801 79.9580
L109.9753 79.9104
" />
<path d="M109.9753 79.9104
L110.0705 79.9104
" />
<path d="M110.0705 79.9104
L110.2134 79.9580
" />
<path d="M110.2134 79.9580
L110.7848 80.5294
" />
<path d="M110.7848 80.5294
L110.7848 79.9104
" />
<path d="M110.7848 79.4342
L110.7848 79.2437
" />
<path d="M110.7848 79.2437
L110.7372 79.1485
" />
<path d="M110.7372 79.1485
L110.6896 79.1008
" />
<path d="M110.6896 79.1008
L110.5467 79.0056
" />
<path d="M110.5467 79.0056
L110.3562 78.9580
" />
<path d="M110.3562 78.9580
L109.9753 78.9580
" />
<path d="M109.9753 78.9580
L109.8801 79.0056
" />
<path d="M109.8801 79.0056
L109.8324 79.0532
" />
<path d="M109.8324 79.0532
L109.7848 79.1485
" />
<path d="M109.7848 79.1485
L109.7848 79.3389
" />
<path d="M109.7848 79.3389
L109.8324 79.4342
" />
<path d="M109.8324 79.4342
L109.8801 79.4818
" />
<path d="M109.8801 79.4818
L109.9753 79.5294
" />
<path d="M109.9753 79.5294
L110.2134 79.5294
" />
<path d="M110.2134 79.5294
L110.3086 79.4818
" />
<path d="M110.3086 79.4818
L110.3562 79.4342
" />
<path d="M110.3562 79.4342
L110.4039 79.3389
" />
<path d="M110.4039 79.3389
L110.4039 79.1485
" />
<path d="M110.4039 79.1485
L110.3562 79.0532
" />
<path d="M110.3562 79.0532
L110.3086 79.0056
" />
<path d="M110.3086 79.0056
L110.2134 78.9580
" />
<path d="M110.7848 77.7675
L110.1182 77.7675
" />
<path d="M110.2134 77.7675
L110.1658 77.7199
" />
<path d="M110.1658 77.7199
L110.1182 77.6246
" />
<path d="M110.1182 77.6246
L110.1182 77.4818
" />
<path d="M110.1182 77.4818
L110.1658 77.3866
" />
<path d="M110.1658 77.3866
L110.2610 77.3389
" />
<path d="M110.2610 77.3389
L110.7848 77.3389
" />
<path d="M110.2610 77.3389
L110.1658 77.2913
" />
<path d="M110.1658 77.2913
L110.1182 77.1961
" />
<path d="M110.1182 77.1961
L110.1182 77.0532
" />
<path d="M110.1182 77.0532
L110.1658 76.9580
" />
<path d="M110.1658 76.9580
L110.2610 76.9104
" />
<path d="M110.2610 76.9104
L110.7848 76.9104
" />
<path d="M110.7848 76.4342
L110.1182 76.4342
" />
<path d="M110.2134 76.4342
L110.1658 76.3866
" />
<path d="M110.1658 76.3866
L110.1182 76.2913
" />
<path d="M110.1182 76.2913
L110.1182 76.1485
" />
<path d="M110.1182 76.1485
L110.1658 76.0532
" />
<path d="M110.1658 76.0532
L110.2610 76.0056
" />
<path d="M110.2610 76.0056
L110.7848 76.0056
" />
<path d="M110.2610 76.0056
L110.1658 75.9580
" />
<path d="M110.1658 75.9580
L110.1182 75.8627
" />
<path d="M110.1182 75.8627
L110.1182 75.7199
" />
<path d="M110.1182 75.7199
L110.1658 75.6246
" />
<path d="M110.1658 75.6246
L110.2610 75.5770
" />
<path d="M110.2610 75.5770
L110.7848 75.5770
" />
</g></g>
<g style="fill:none; 
stroke:#000000; stroke-width:0.1000; stroke-opacity:1; 
stroke-linecap:round; stroke-linejoin:round;">
<path d="M118.4800 92.5056
L110.8936 92.5056
" />
<path d="M118.4800 63.5056
L110.8936 63.5056
" />
<path d="M111.4800 92.5056
L111.4800 63.5056
" />
<path d="M111.4800 92.5056
L110.8936 91.3791
" />
<path d="M111.4800 92.5056
L112.0664 91.3791
" />
<path d="M111.4800 63.5056
L112.0664 64.6321
" />
<path d="M111.4800 63.5056
L110.8936 64.6321
" />
</g>
<g style="fill:none; 
stroke:#000000; stroke-width:0.1500; stroke-opacity:1; 
stroke-linecap:round; stroke-linejoin:round;">
<text x="170.9800" y="55.0056"
textLength="6.0595" font-size="1.3333" lengthAdjust="spacingAndGlyphs"
text-anchor="middle" opacity="0" stroke-opacity="0">3.5 mm</text>
<g class="stroked-text"><desc>3.5 mm</desc>
<path d="M168.2181 53.9604
L168.8371 53.9604
" />
<path d="M168.8371 53.9604
L168.5038 54.3414
" />
<path d="M168.5038 54.3414
L168.6467 54.3414
" />
<path d="M168.6467 54.3414
L168.7419 54.3890
" />
<path d="M168.7419 54.3890
L168.7895 54.4366
" />
<path d="M168.7895 54.4366
L168.8371 54.5318
" />
<path d="M168.8371 54.5318
L168.8371 54.7699
" />
<path d="M168.8371 54.7699
L168.7895 54.8652
" />
<path d="M168.7895 54.8652
L168.7419 54.9128
" />
<path d="M168.7419 54.9128
L168.6467 54.9604
" />
<path d="M168.6467 54.9604
L168.3610 54.9604
" />
<path d="M168.3610 54.9604
L168.2657 54.9128
" />
<path d="M168.2657 54.9128
L168.2181 54.8652
" />
<path d="M169.2657 54.8652
L169.3133 54.9128
" />
<path d="M169.3133 54.9128
L169.2657 54.9604
" />
<path d="M169.2657 54.9604
L169.2181 54.9128
" />
<path d="M169.2181 54.9128
L169.2657 54.8652
" />
<path d="M169.2657 54.8652
L169.2657 54.9604
" />
<path d="M170.2181 53.9604
L169.7419 53.9604
" />
<path d="M169.7419 53.9604
L169.6943 54.4366
" />
<path d="M169.6943 54.4366
L169.7419 54.3890
" />
<path d="M169.7419 54.3890
L169.8371 54.3414
" />
<path d="M169.8371 54.3414
L170.0752 54.3414
" />
<path d="M170.0752 54.3414
L170.1705 54.3890
" />
<path d="M170.1705 54.3890
L170.2181 54.4366
" />
<path d="M170.2181 54.4366
L170.2657 54.5318
" />
<path d="M170.2657 54.5318
L170.2657 54.7699
" />
<path d="M170.2657 54.7699
L170.2181 54.8652
" />
<path d="M170.2181 54.8652
L170.1705 54.9128
" />
<path d="M170.1705 54.9128
L170.0752 54.9604
" />
<path d="M170.0752 54.9604
L169.8371 54.9604
" />
<path d="M169.8371 54.9604
L169.7419 54.9128
" />
<path d="M169.7419 54.9128
L169.6943 54.8652
" />
<path d="M171.4562 54.9604
L171.4562 54.2938
" />
<path d="M171.4562 54.3890
L171.5038 54.3414
" />
<path d="M171.5038 54.3414
L171.5990 54.2938
" />
<path d="M171.5990 54.2938
L171.7419 54.2938
" />
<path d="M171.7419 54.2938
L171.8371 54.3414
" />
<path d="M171.8371 54.3414
L171.8848 54.4366
" />
<path d="M171.8848 54.4366
L171.8848 54.9604
" />
<path d="M171.8848 54.4366
L171.9324 54.3414
" />
<path d="M171.9324 54.3414
L172.0276 54.2938
" />
<path d="M172.0276 54.2938
L172.1705 54.2938
" />
<path d="M172.1705 54.2938
L172.2657 54.3414
" />
<path d="M172.2657 54.3414
L172.3133 54.4366
" />
<path d="M172.3133 54.4366
L172.3133 54.9604
" />
<path d="M172.7895 54.9604
L172.7895 54.2938
" />
<path d="M172.7895 54.3890
L172.8371 54.3414
" />
<path d="M172.8371 54.3414
L172.9324 54.2938
" />
<path d="M172.9324 54.2938
L173.0752 54.2938
" />
<path d="M173.0752 54.2938
L173.1705 54.3414
" />
<path d="M173.1705 54.3414
L173.2181 54.4366
" />
<path d="M173.2181 54.4366
L173.2181 54.9604
" />
<path d="M173.2181 54.4366
L173.2657 54.3414
" />
<path d="M173.2657 54.3414
L173.3610 54.2938
" />
<path d="M173.3610 54.2938
L173.5038 54.2938
" />
<path d="M173.5038 54.2938
L173.5990 54.3414
" />
<path d="M173.5990 54.3414
L173.6467 54.4366
" />
<path d="M173.6467 54.4366
L173.6467 54.9604
" />
</g></g>
<g style="fill:none; 
stroke:#000000; stroke-width:0.1000; stroke-opacity:1; 
stroke-linecap:round; stroke-linejoin:round;">
<path d="M167.9800 63.0056
L167.9800 55.9192
" />
<path d="M171.4800 63.0056
L171.4800 55.9192
" />
<path d="M167.9800 56.5056
L171.4800 56.5056
" />
<path d="M167.9800 56.5056
L169.1065 55.9192
" />
<path d="M167.9800 56.5056
L169.1065 57.0920
" />
<path d="M171.4800 56.5056
L170.3535 57.0920
" />
<path d="M171.4800 56.5056
L170.3535 55.9192
" />
</g> 
</svg>
