M48
INCH,TZ
T1C0.0118
T2C0.0118
T3C0.0138
T4C0.0157
T5C0.0177
T6C0.0256
T7C0.0276
T8C0.0295
T9C0.0315
T10C0.0315
T11C0.0374
T12C0.0394
T13C0.0512
T14C0.0520
T15C0.0551
T16C0.0906
T17C0.1024
%
G90
G05
T1
X21387Y-16524
X22118Y-16440
X39687Y-19904
X40024Y-17091
X40079Y-17937
X43289Y-17908
T2
X62035Y-16437
X62035Y-16949
X62547Y-16437
X62547Y-16949
X63059Y-16437
X63059Y-16949
X63571Y-16437
X63571Y-16949
T3
X41781Y-17451
X41781Y-17953
X41781Y-18455
X42283Y-17451
X42283Y-17953
X42283Y-18455
X42785Y-17451
X42785Y-17953
X42785Y-18455
T4
X9685Y-27362
X9685Y-47835
X10610Y-22854
X12467Y-11444
X13976Y-27323
X14567Y-48465
X15597Y-8974
X15807Y-21453
X15823Y-22882
X16367Y-8954
X16398Y-45697
X16626Y-46018
X18465Y-20748
X18504Y-19547
X18504Y-20354
X18508Y-18165
X18512Y-16083
X18661Y-15079
X18844Y-17181
X19016Y-14764
X19087Y-21444
X19173Y-15472
X19419Y-16482
X19760Y-42724
X19772Y-42331
X19827Y-21444
X19902Y-24130
X20000Y-17559
X20000Y-18091
X20000Y-18642
X20531Y-17559
X20547Y-18091
X20551Y-18642
X20587Y-21444
X20920Y-23028
X21102Y-17559
X21102Y-18110
X21102Y-18642
X21177Y-21284
X21299Y-20445
X21357Y-19984
X21850Y-29528
X21850Y-30709
X21850Y-31693
X21850Y-32677
X21850Y-33661
X21850Y-34646
X21850Y-35630
X21850Y-36614
X21850Y-37598
X21870Y-15453
X21882Y-19201
X22659Y-23194
X22835Y-48780
X23110Y-19201
X23248Y-21929
X23406Y-17651
X23618Y-19984
X24100Y-21276
X24120Y-20724
X24280Y-19256
X24413Y-17331
X24461Y-21118
X25101Y-23128
X25165Y-17575
X25189Y-20303
X27047Y-21224
X27907Y-21564
X28217Y-21564
X28787Y-21354
X30332Y-10911
X30510Y-11278
X30622Y-13327
X30967Y-11729
X31274Y-11465
X32559Y-35591
X32677Y-36102
X32756Y-33622
X32795Y-34168
X32815Y-35138
X32835Y-34685
X32884Y-36501
X32992Y-35586
X33071Y-32717
X33100Y-33342
X33124Y-33893
X33268Y-34488
X33347Y-33031
X33583Y-30512
X33583Y-30906
X33819Y-34134
X34094Y-31614
X35236Y-32087
X35236Y-34488
X35236Y-36811
X35236Y-37795
X35397Y-29016
X35707Y-29014
X36017Y-29024
X36024Y-21417
X36327Y-29024
X36535Y-19803
X36535Y-21220
X36697Y-30354
X36890Y-37607
X37018Y-34223
X37047Y-16083
X37126Y-30433
X37165Y-49370
X37327Y-31642
X37515Y-17680
X37517Y-18934
X37521Y-36875
X37613Y-33816
X37723Y-36538
X37756Y-32402
X37818Y-32913
X37913Y-35275
X37953Y-31772
X38001Y-30617
X38228Y-34291
X38268Y-15768
X38346Y-32677
X38386Y-33386
X38390Y-36371
X38458Y-35590
X38628Y-16043
X38759Y-32378
X38802Y-36299
X38819Y-16752
X38944Y-34567
X39213Y-27362
X39213Y-47717
X39223Y-31181
X39291Y-35906
X39945Y-21618
X40190Y-16228
X40669Y-21496
X40817Y-20157
X41689Y-15610
X41720Y-23008
X41772Y-22224
X41772Y-22618
X41772Y-23398
X42028Y-29878
X42567Y-16192
X42705Y-37953
X42746Y-21438
X42780Y-20150
X42795Y-23454
X42982Y-23107
X43110Y-22320
X43110Y-22714
X43169Y-37638
X43386Y-37966
X43425Y-47638
X43475Y-15532
X43504Y-27362
X43740Y-49409
X43760Y-32323
X44048Y-16791
X44074Y-32086
X44173Y-20709
X44354Y-32362
X44407Y-17887
X44430Y-16697
X44744Y-16459
X44955Y-19370
X44984Y-30925
X45945Y-17953
X46122Y-22067
X46220Y-18346
X47598Y-19941
X48819Y-18701
X48925Y-19961
X49134Y-22323
X50118Y-22323
X52913Y-21575
X54252Y-21969
X55000Y-17559
X55591Y-21575
X56102Y-18268
X56407Y-19654
X56559Y-20406
X56774Y-20191
X56890Y-49370
X57461Y-16831
X57741Y-14264
X57913Y-18130
X58346Y-19384
X58583Y-17461
X58696Y-19961
X59055Y-22598
X59213Y-49409
X59508Y-17441
X59727Y-21890
X60433Y-13976
X60433Y-14567
X60433Y-15157
X60433Y-15748
X60433Y-16339
X60433Y-16929
X60433Y-17520
X60748Y-9449
X60764Y-10906
X61024Y-13976
X61024Y-14567
X61147Y-21634
X61213Y-20575
X61220Y-9055
X61220Y-12598
X61377Y-21834
X61496Y-10197
X61597Y-22044
X61811Y-12598
X61837Y-21844
X62008Y-9055
X62047Y-20571
X62795Y-9055
X62850Y-20587
X63583Y-9055
X63583Y-18504
X63591Y-20587
X63622Y-19409
X64567Y-12598
X64567Y-13976
X64567Y-14764
X65157Y-13976
X65157Y-14764
X65157Y-15551
X65157Y-16339
X65157Y-17126
X65157Y-17913
X65407Y-9094
X65748Y-12008
X65748Y-12598
X65748Y-13976
X65748Y-14764
X65748Y-15551
X65748Y-16339
X65748Y-17126
X65748Y-17913
X66339Y-12008
X66535Y-19685
X66575Y-20394
X68740Y-27362
X68780Y-47835
X70394Y-36929
X72992Y-27362
X72992Y-47835
T8
X25209Y-9252
X25996Y-9252
X26783Y-9252
X28724Y-9248
X29512Y-9248
X30299Y-9248
T9
X28027Y-15954
X28037Y-17884
X40915Y-16211
X47707Y-20834
X51287Y-23174
T11
X18142Y-12500
X19126Y-12500
X19913Y-12500
X20898Y-12500
T12
X23720Y-12402
X23720Y-13386
X23720Y-14370
X29429Y-12402
X29429Y-14370
X40215Y-32008
X41215Y-32008
X42215Y-32008
X46343Y-26920
X46343Y-27920
X46343Y-28920
X46343Y-29920
X46343Y-30920
X46343Y-31920
X46343Y-32920
X46343Y-33920
X46343Y-34920
X46343Y-35920
X46343Y-36920
X46343Y-37920
X46343Y-38920
X46343Y-39920
X46343Y-40920
X46343Y-41920
X46343Y-42920
X46343Y-43920
X46343Y-44920
X46343Y-45920
X47343Y-26920
X47343Y-27920
X47343Y-28920
X47343Y-29920
X47343Y-30920
X47343Y-31920
X47343Y-32920
X47343Y-33920
X47343Y-34920
X47343Y-35920
X47343Y-36920
X47343Y-37920
X47343Y-38920
X47343Y-39920
X47343Y-40920
X47343Y-41920
X47343Y-42920
X47343Y-43920
X47343Y-44920
X47343Y-45920
X50911Y-17500
X51911Y-17500
X52911Y-17500
X53248Y-12402
X53248Y-13386
X53248Y-14370
X58957Y-12402
X58957Y-14370
X59992Y-46910
X59992Y-47910
X60636Y-29467
X60636Y-30467
X60636Y-31467
X60992Y-46910
X60992Y-47910
X61636Y-29467
X61636Y-30467
X61636Y-31467
X61992Y-46910
X61992Y-47910
T13
X69149Y-9133
X69149Y-11102
T14
X32480Y-12598
X33465Y-8661
X33465Y-13583
X34449Y-8661
X35433Y-12598
X36417Y-8661
X37402Y-8661
X37402Y-13583
X38386Y-12598
X44291Y-12598
X45276Y-8661
X45276Y-13583
X46260Y-8661
X47244Y-12598
X48228Y-8661
X49213Y-8661
X49213Y-13583
X50197Y-12598
T15
X8543Y-13295
X8543Y-19685
X8543Y-29437
X8543Y-35827
X8543Y-37390
X8543Y-43780
X11043Y-13295
X11043Y-19685
X11043Y-29437
X11043Y-35827
X11043Y-37390
X11043Y-43780
X13543Y-13295
X13543Y-19685
X13543Y-29437
X13543Y-35827
X13543Y-37390
X13543Y-43780
X69134Y-29441
X69134Y-35831
X69134Y-37400
X69134Y-43789
X69140Y-13307
X69140Y-19697
X71634Y-29441
X71634Y-35831
X71634Y-37400
X71634Y-43789
X71640Y-13307
X71640Y-19697
X74134Y-29441
X74134Y-35831
X74134Y-37400
X74134Y-43789
X74140Y-13307
X74140Y-19697
T16
X16933Y-11433
X22106Y-11433
T17
X26673Y-11181
X26673Y-15591
X56201Y-11181
X56201Y-15591
T5
G00X33462Y-11427
M15
G01X33462Y-11801
M16
G05
G00X34447Y-11427
M15
G01X34447Y-11801
M16
G05
G00X35618Y-9646
M15
G01X35244Y-9646
M16
G05
G00X36415Y-11801
M15
G01X36415Y-11427
M16
G05
G00X37399Y-11801
M15
G01X37399Y-11427
M16
G05
G00X45276Y-11427
M15
G01X45276Y-11801
M16
G05
G00X46260Y-11427
M15
G01X46260Y-11801
M16
G05
G00X47431Y-9646
M15
G01X47057Y-9646
M16
G05
G00X48228Y-11801
M15
G01X48228Y-11427
M16
G05
G00X49213Y-11801
M15
G01X49213Y-11427
M16
G05
T6
G00X8801Y-21281
M15
G01X8959Y-21281
M16
G05
G00X8801Y-23187
M15
G01X8959Y-23187
M16
G05
T7
G00X7600Y-21159
M15
G01X7797Y-21159
M16
G05
G00X7600Y-23309
M15
G01X7797Y-23309
M16
G05
T10
G00X67613Y-10350
M15
G01X67613Y-11216
M16
G05
G00X69936Y-9681
M15
G01X69070Y-9681
M16
G05
G00X70015Y-11964
M15
G01X68991Y-11964
M16
G05
M30
