M48
INCH,TZ
T1C0.0197
T2C0.0472
T3C0.1063
T4C0.1457
%
G90
G05
T1
X31535Y-8297
X31535Y-8691
X31535Y-9085
X31535Y-9478
X31535Y-9872
X31535Y-10266
X31535Y-11841
X31535Y-12234
X31535Y-12628
X31535Y-13022
X31535Y-13415
X31535Y-13809
X31535Y-14203
X31929Y-14203
X32323Y-14203
X32717Y-14203
X33110Y-14203
X33504Y-14203
X33898Y-14203
X34291Y-14203
X34685Y-14203
X35079Y-14203
X35472Y-14203
X35866Y-14203
X36260Y-14203
X36654Y-14203
X37047Y-14203
X37441Y-14203
X37835Y-14203
X38228Y-14203
X38622Y-14203
X39016Y-14203
X39409Y-14203
X39803Y-14203
X40197Y-14203
X40591Y-14203
X40984Y-14203
X41378Y-14203
X41772Y-14203
X42165Y-14203
X42559Y-14203
X42953Y-14203
X43346Y-14203
X43740Y-14203
X44134Y-14203
X44528Y-14203
X44921Y-14203
X45315Y-14203
X45709Y-14203
X46102Y-14203
X46496Y-14203
X46890Y-14203
X47283Y-14203
X47677Y-14203
X48071Y-14203
X48465Y-14203
X48858Y-14203
X49252Y-14203
X49646Y-14203
X50039Y-14203
X50433Y-14203
X50827Y-14203
X51220Y-8297
X51220Y-8691
X51220Y-9085
X51220Y-9478
X51220Y-9872
X51220Y-10266
X51220Y-10659
X51220Y-11053
X51220Y-11447
X51220Y-11841
X51220Y-12234
X51220Y-12628
X51220Y-13022
X51220Y-13415
X51220Y-13809
X51220Y-14203
T2
X33462Y-9646
X35431Y-11614
X37399Y-9646
X45276Y-9646
X47244Y-11614
X49213Y-9646
T3
X9843Y-9055
X16535Y-50394
X22047Y-25000
X22047Y-43898
X35039Y-25000
X35039Y-43898
X41339Y-38583
X46843Y-47843
X46850Y-25000
X66142Y-25000
X66142Y-47835
X66142Y-50394
X72837Y-9053
T4
X11811Y-26378
X11811Y-46850
X41339Y-26378
X41339Y-46850
X70866Y-26378
X70866Y-46850
M30
