<?xml version="1.0" standalone="no"?>
 <!DOCTYPE svg PUBLIC "-//W3C//DTD SVG 1.1//EN" 
 "http://www.w3.org/Graphics/SVG/1.1/DTD/svg11.dtd"> 
<svg
  xmlns:svg="http://www.w3.org/2000/svg"
  xmlns="http://www.w3.org/2000/svg"
  xmlns:xlink="http://www.w3.org/1999/xlink"
  version="1.1"
  width="297.0022mm" height="210.0072mm" viewBox="0.0000 0.0000 297.0022 210.0072">
<title>SVG Image created as pedalboard-hw-Edge_Cuts3.svg date 2026/04/18 12:35:51 </title>
  <desc>Image generated by PCBNEW </desc>
<g style="fill:#000000; fill-opacity:1.0000;stroke:#000000; stroke-opacity:1.0000;
stroke-linecap:round; stroke-linejoin:round;"
 transform="translate(0 0) scale(1 1)">
</g>
<g style="fill:none; 
stroke:#000000; stroke-width:0.1000; stroke-opacity:1; 
stroke-linecap:round; stroke-linejoin:round;">
<path d="M122.2000 20.0000
L187.0000 20.0000
" />
<path d="M18.0000 124.0000
L18.0000 27.0000
" />
<path d="M22.0000 130.0000 A1.0000 1.0000 0.0 0 0 23.0000 131.0000" />
<path d="M110.0000 131.0000 A5.0000 5.0000 0.0 0 0 100.0000 131.0000" />
<path d="M23.0000 131.0000
L100.0000 131.0000
" />
<path d="M117.8000 21.0000 A0.4000 0.4000 0.0 0 0 118.2000 21.4000" />
<path d="M100.0000 20.0000 A5.0000 5.0000 0.0 0 0 110.0000 20.0000" />
<path d="M87.8000 21.0000 A0.4000 0.4000 0.0 0 0 88.2000 21.4000" />
<path d="M187.0000 131.0000 A1.0000 1.0000 0.0 0 0 188.0000 130.0000" />
<path d="M118.2000 21.4000
L121.8000 21.4000
" />
<path d="M188.0000 23.0000 A3.0000 3.0000 0.0 0 0 191.0000 26.0000" />
<path d="M18.0000 124.0000 A1.0000 1.0000 0.0 0 0 19.0000 125.0000" />
<path d="M19.0000 26.0000 A1.0000 1.0000 0.0 0 0 18.0000 27.0000" />
<path d="M192.0000 27.0000 A1.0000 1.0000 0.0 0 0 191.0000 26.0000" />
<path d="M110.0000 20.0000
L117.8000 20.0000
" />
<path d="M192.0000 27.0000
L192.0000 124.0000
" />
<path d="M22.0000 128.0000 A3.0000 3.0000 0.0 0 0 19.0000 125.0000" />
<path d="M188.0000 128.0000
L188.0000 130.0000
" />
<path d="M117.8000 20.0000
L117.8000 21.0000
" />
<path d="M92.2000 21.0000
L92.2000 20.0000
" />
<path d="M188.0000 21.0000
L188.0000 23.0000
" />
<path d="M92.2000 20.0000
L100.0000 20.0000
" />
<path d="M91.8000 21.4000 A0.4000 0.4000 0.0 0 0 92.2000 21.0000" />
<path d="M87.8000 20.0000
L87.8000 21.0000
" />
<path d="M19.0000 26.0000 A3.0000 3.0000 0.0 0 0 22.0000 23.0000" />
<path d="M88.2000 21.4000
L91.8000 21.4000
" />
<path d="M23.0000 20.0000 A1.0000 1.0000 0.0 0 0 22.0000 21.0000" />
<path d="M87.8000 20.0000
L23.0000 20.0000
" />
<path d="M22.0000 21.0000
L22.0000 23.0000
" />
<path d="M121.8000 21.4000 A0.4000 0.4000 0.0 0 0 122.2000 21.0000" />
<path d="M191.0000 125.0000 A1.0000 1.0000 0.0 0 0 192.0000 124.0000" />
<path d="M122.2000 21.0000
L122.2000 20.0000
" />
<path d="M110.0000 131.0000
L187.0000 131.0000
" />
<path d="M22.0000 128.0000
L22.0000 130.0000
" />
<path d="M191.0000 125.0000 A3.0000 3.0000 0.0 0 0 188.0000 128.0000" />
<path d="M188.0000 21.0000 A1.0000 1.0000 0.0 0 0 187.0000 20.0000" />
</g> 
</svg>
