<?xml version="1.0" standalone="no"?>
 <!DOCTYPE svg PUBLIC "-//W3C//DTD SVG 1.1//EN" 
 "http://www.w3.org/Graphics/SVG/1.1/DTD/svg11.dtd"> 
<svg
  xmlns:svg="http://www.w3.org/2000/svg"
  xmlns="http://www.w3.org/2000/svg"
  xmlns:xlink="http://www.w3.org/1999/xlink"
  version="1.1"
  width="17.61cm" height="11.31cm" viewBox="16.95 18.95 176.1 113.1">
<title>SVG Image created as pedalboard-hw-B_Mask.svg date 2026/04/14 19:48:53 </title>
  <desc>Image generated by PCBNEW </desc>
<g style="fill:#000000; fill-opacity:1.000000;stroke:#000000; stroke-opacity:1.000000;
stroke-linecap:round; stroke-linejoin:round;"
 transform="translate(0 0) scale(1 1)">
</g>
<g style="fill:#000000; fill-opacity:1.000000; stroke:none;">
<circle cx="168.000000" cy="121.500000" r="1.350000" /> 
</g>
<g style="fill:none; 
stroke:#000000; stroke-width:1.200000; stroke-opacity:1; 
stroke-linecap:round; stroke-linejoin:round;">
<path d="M125.000000 30.000000
L125.000000 29.000000
" />
<path d="M122.500000 30.000000
L122.500000 29.000000
" />
<path d="M120.500000 24.500000
L119.500000 24.500000
" />
<path d="M115.000000 29.000000
L115.000000 30.000000
" />
<path d="M117.500000 29.000000
L117.500000 30.000000
" />
</g>
<g style="fill:#000000; fill-opacity:1.000000; stroke:none;">
<circle cx="28.050000" cy="50.000000" r="1.500000" /> 
</g>
<g style="fill:#000000; fill-opacity:1.000000; stroke:none;">
<circle cx="28.050000" cy="33.770000" r="1.500000" /> 
</g>
<g style="fill:#000000; fill-opacity:1.000000; stroke:none;">
<circle cx="21.700000" cy="50.000000" r="1.500000" /> 
</g>
<g style="fill:#000000; fill-opacity:1.000000; stroke:none;">
<circle cx="21.700000" cy="33.770000" r="1.500000" /> 
</g>
<g style="fill:#000000; fill-opacity:1.000000; stroke:none;">
<circle cx="34.400000" cy="50.000000" r="1.500000" /> 
</g>
<g style="fill:#000000; fill-opacity:1.000000; stroke:none;">
<circle cx="34.400000" cy="33.770000" r="1.500000" /> 
</g>
<g style="fill:#000000; fill-opacity:1.000000; stroke:none;">
<circle cx="28.050000" cy="111.200000" r="1.500000" /> 
</g>
<g style="fill:#000000; fill-opacity:1.000000; stroke:none;">
<circle cx="28.050000" cy="94.970000" r="1.500000" /> 
</g>
<g style="fill:#000000; fill-opacity:1.000000; stroke:none;">
<circle cx="21.700000" cy="111.200000" r="1.500000" /> 
</g>
<g style="fill:#000000; fill-opacity:1.000000; stroke:none;">
<circle cx="21.700000" cy="94.970000" r="1.500000" /> 
</g>
<g style="fill:#000000; fill-opacity:1.000000; stroke:none;">
<circle cx="34.400000" cy="111.200000" r="1.500000" /> 
</g>
<g style="fill:#000000; fill-opacity:1.000000; stroke:none;">
<circle cx="34.400000" cy="94.970000" r="1.500000" /> 
<path style="fill:#000000; fill-opacity:1.000000; stroke:none;fill-rule:evenodd;"
d="M 178.737200,29.488600
178.737200,31.288600
174.337200,31.288600
174.337200,29.488600
Z" /> 
</g>
<g style="fill:none; 
stroke:#000000; stroke-width:1.800000; stroke-opacity:1; 
stroke-linecap:round; stroke-linejoin:round;">
<path d="M177.637200 24.588600
L175.437200 24.588600
" />
<path d="M171.737200 26.288600
L171.737200 28.488600
" />
<path style="fill:#000000; fill-opacity:1.000000; stroke:none;fill-rule:evenodd;"
d="M 174.587200,29.498600
174.491529,29.479570
174.410423,29.425377
174.356230,29.344271
174.337200,29.248600
174.337200,27.148600
174.356230,27.052929
174.410423,26.971823
174.491529,26.917630
174.587200,26.898600
176.687200,26.898600
176.782871,26.917630
176.863977,26.971823
176.918170,27.052929
176.937200,27.148600
176.937200,29.248600
176.918170,29.344271
176.863977,29.425377
176.782871,29.479570
176.687200,29.498600
Z" /> 
</g>
<g style="fill:#000000; fill-opacity:1.000000; stroke:none;">
<circle cx="175.637200" cy="23.198600" r="1.300000" /> 
</g>
<g style="fill:#000000; fill-opacity:1.000000; stroke:none;">
<circle cx="28.050000" cy="91.000000" r="1.500000" /> 
</g>
<g style="fill:#000000; fill-opacity:1.000000; stroke:none;">
<circle cx="28.050000" cy="74.770000" r="1.500000" /> 
</g>
<g style="fill:#000000; fill-opacity:1.000000; stroke:none;">
<circle cx="21.700000" cy="91.000000" r="1.500000" /> 
</g>
<g style="fill:#000000; fill-opacity:1.000000; stroke:none;">
<circle cx="21.700000" cy="74.770000" r="1.500000" /> 
</g>
<g style="fill:#000000; fill-opacity:1.000000; stroke:none;">
<circle cx="34.400000" cy="91.000000" r="1.500000" /> 
</g>
<g style="fill:#000000; fill-opacity:1.000000; stroke:none;">
<circle cx="34.400000" cy="74.770000" r="1.500000" /> 
</g>
<g style="fill:#000000; fill-opacity:1.000000; stroke:none;">
<circle cx="181.950000" cy="94.995000" r="1.500000" /> 
</g>
<g style="fill:#000000; fill-opacity:1.000000; stroke:none;">
<circle cx="181.950000" cy="111.225000" r="1.500000" /> 
</g>
<g style="fill:#000000; fill-opacity:1.000000; stroke:none;">
<circle cx="188.300000" cy="94.995000" r="1.500000" /> 
</g>
<g style="fill:#000000; fill-opacity:1.000000; stroke:none;">
<circle cx="188.300000" cy="111.225000" r="1.500000" /> 
</g>
<g style="fill:#000000; fill-opacity:1.000000; stroke:none;">
<circle cx="175.600000" cy="94.995000" r="1.500000" /> 
</g>
<g style="fill:#000000; fill-opacity:1.000000; stroke:none;">
<circle cx="175.600000" cy="111.225000" r="1.500000" /> 
<path style="fill:#000000; fill-opacity:1.000000; stroke:none;fill-rule:evenodd;"
d="M 130.165000,45.300000
128.465000,45.300000
128.465000,43.600000
130.165000,43.600000
Z" /> 
</g>
<g style="fill:#000000; fill-opacity:1.000000; stroke:none;">
<circle cx="131.855000" cy="44.450000" r="0.850000" /> 
</g>
<g style="fill:#000000; fill-opacity:1.000000; stroke:none;">
<circle cx="134.395000" cy="44.450000" r="0.850000" /> 
</g>
<g style="fill:#000000; fill-opacity:1.000000; stroke:none;">
<circle cx="118.980000" cy="121.520000" r="1.350000" /> 
</g>
<g style="fill:#000000; fill-opacity:1.000000; stroke:none;">
<circle cx="80.100000" cy="21.075000" r="0.300000" /> 
</g>
<g style="fill:#000000; fill-opacity:1.000000; stroke:none;">
<circle cx="80.100000" cy="22.075000" r="0.300000" /> 
</g>
<g style="fill:#000000; fill-opacity:1.000000; stroke:none;">
<circle cx="80.100000" cy="23.075000" r="0.300000" /> 
</g>
<g style="fill:#000000; fill-opacity:1.000000; stroke:none;">
<circle cx="80.100000" cy="24.075000" r="0.300000" /> 
</g>
<g style="fill:#000000; fill-opacity:1.000000; stroke:none;">
<circle cx="80.100000" cy="25.075000" r="0.300000" /> 
</g>
<g style="fill:#000000; fill-opacity:1.000000; stroke:none;">
<circle cx="80.100000" cy="26.075000" r="0.300000" /> 
</g>
<g style="fill:#000000; fill-opacity:1.000000; stroke:none;">
<circle cx="80.100000" cy="30.075000" r="0.300000" /> 
</g>
<g style="fill:#000000; fill-opacity:1.000000; stroke:none;">
<circle cx="80.100000" cy="31.075000" r="0.300000" /> 
</g>
<g style="fill:#000000; fill-opacity:1.000000; stroke:none;">
<circle cx="80.100000" cy="32.075000" r="0.300000" /> 
</g>
<g style="fill:#000000; fill-opacity:1.000000; stroke:none;">
<circle cx="80.100000" cy="33.075000" r="0.300000" /> 
</g>
<g style="fill:#000000; fill-opacity:1.000000; stroke:none;">
<circle cx="80.100000" cy="34.075000" r="0.300000" /> 
</g>
<g style="fill:#000000; fill-opacity:1.000000; stroke:none;">
<circle cx="80.100000" cy="35.075000" r="0.300000" /> 
</g>
<g style="fill:#000000; fill-opacity:1.000000; stroke:none;">
<circle cx="80.100000" cy="36.075000" r="0.300000" /> 
</g>
<g style="fill:#000000; fill-opacity:1.000000; stroke:none;">
<circle cx="81.100000" cy="36.075000" r="0.300000" /> 
</g>
<g style="fill:#000000; fill-opacity:1.000000; stroke:none;">
<circle cx="82.100000" cy="36.075000" r="0.300000" /> 
</g>
<g style="fill:#000000; fill-opacity:1.000000; stroke:none;">
<circle cx="83.100000" cy="36.075000" r="0.300000" /> 
</g>
<g style="fill:#000000; fill-opacity:1.000000; stroke:none;">
<circle cx="84.100000" cy="36.075000" r="0.300000" /> 
</g>
<g style="fill:#000000; fill-opacity:1.000000; stroke:none;">
<circle cx="85.100000" cy="36.075000" r="0.300000" /> 
</g>
<g style="fill:#000000; fill-opacity:1.000000; stroke:none;">
<circle cx="86.100000" cy="36.075000" r="0.300000" /> 
</g>
<g style="fill:#000000; fill-opacity:1.000000; stroke:none;">
<circle cx="87.100000" cy="36.075000" r="0.300000" /> 
</g>
<g style="fill:#000000; fill-opacity:1.000000; stroke:none;">
<circle cx="88.100000" cy="36.075000" r="0.300000" /> 
</g>
<g style="fill:#000000; fill-opacity:1.000000; stroke:none;">
<circle cx="89.100000" cy="36.075000" r="0.300000" /> 
</g>
<g style="fill:#000000; fill-opacity:1.000000; stroke:none;">
<circle cx="90.100000" cy="36.075000" r="0.300000" /> 
</g>
<g style="fill:#000000; fill-opacity:1.000000; stroke:none;">
<circle cx="91.100000" cy="36.075000" r="0.300000" /> 
</g>
<g style="fill:#000000; fill-opacity:1.000000; stroke:none;">
<circle cx="92.100000" cy="36.075000" r="0.300000" /> 
</g>
<g style="fill:#000000; fill-opacity:1.000000; stroke:none;">
<circle cx="93.100000" cy="36.075000" r="0.300000" /> 
</g>
<g style="fill:#000000; fill-opacity:1.000000; stroke:none;">
<circle cx="94.100000" cy="36.075000" r="0.300000" /> 
</g>
<g style="fill:#000000; fill-opacity:1.000000; stroke:none;">
<circle cx="95.100000" cy="36.075000" r="0.300000" /> 
</g>
<g style="fill:#000000; fill-opacity:1.000000; stroke:none;">
<circle cx="96.100000" cy="36.075000" r="0.300000" /> 
</g>
<g style="fill:#000000; fill-opacity:1.000000; stroke:none;">
<circle cx="97.100000" cy="36.075000" r="0.300000" /> 
</g>
<g style="fill:#000000; fill-opacity:1.000000; stroke:none;">
<circle cx="98.100000" cy="36.075000" r="0.300000" /> 
</g>
<g style="fill:#000000; fill-opacity:1.000000; stroke:none;">
<circle cx="99.100000" cy="36.075000" r="0.300000" /> 
</g>
<g style="fill:#000000; fill-opacity:1.000000; stroke:none;">
<circle cx="100.100000" cy="36.075000" r="0.300000" /> 
</g>
<g style="fill:#000000; fill-opacity:1.000000; stroke:none;">
<circle cx="101.100000" cy="36.075000" r="0.300000" /> 
</g>
<g style="fill:#000000; fill-opacity:1.000000; stroke:none;">
<circle cx="102.100000" cy="36.075000" r="0.300000" /> 
</g>
<g style="fill:#000000; fill-opacity:1.000000; stroke:none;">
<circle cx="103.100000" cy="36.075000" r="0.300000" /> 
</g>
<g style="fill:#000000; fill-opacity:1.000000; stroke:none;">
<circle cx="104.100000" cy="36.075000" r="0.300000" /> 
</g>
<g style="fill:#000000; fill-opacity:1.000000; stroke:none;">
<circle cx="105.100000" cy="36.075000" r="0.300000" /> 
</g>
<g style="fill:#000000; fill-opacity:1.000000; stroke:none;">
<circle cx="106.100000" cy="36.075000" r="0.300000" /> 
</g>
<g style="fill:#000000; fill-opacity:1.000000; stroke:none;">
<circle cx="107.100000" cy="36.075000" r="0.300000" /> 
</g>
<g style="fill:#000000; fill-opacity:1.000000; stroke:none;">
<circle cx="108.100000" cy="36.075000" r="0.300000" /> 
</g>
<g style="fill:#000000; fill-opacity:1.000000; stroke:none;">
<circle cx="109.100000" cy="36.075000" r="0.300000" /> 
</g>
<g style="fill:#000000; fill-opacity:1.000000; stroke:none;">
<circle cx="110.100000" cy="36.075000" r="0.300000" /> 
</g>
<g style="fill:#000000; fill-opacity:1.000000; stroke:none;">
<circle cx="111.100000" cy="36.075000" r="0.300000" /> 
</g>
<g style="fill:#000000; fill-opacity:1.000000; stroke:none;">
<circle cx="112.100000" cy="36.075000" r="0.300000" /> 
</g>
<g style="fill:#000000; fill-opacity:1.000000; stroke:none;">
<circle cx="113.100000" cy="36.075000" r="0.300000" /> 
</g>
<g style="fill:#000000; fill-opacity:1.000000; stroke:none;">
<circle cx="114.100000" cy="36.075000" r="0.300000" /> 
</g>
<g style="fill:#000000; fill-opacity:1.000000; stroke:none;">
<circle cx="115.100000" cy="36.075000" r="0.300000" /> 
</g>
<g style="fill:#000000; fill-opacity:1.000000; stroke:none;">
<circle cx="116.100000" cy="36.075000" r="0.300000" /> 
</g>
<g style="fill:#000000; fill-opacity:1.000000; stroke:none;">
<circle cx="117.100000" cy="36.075000" r="0.300000" /> 
</g>
<g style="fill:#000000; fill-opacity:1.000000; stroke:none;">
<circle cx="118.100000" cy="36.075000" r="0.300000" /> 
</g>
<g style="fill:#000000; fill-opacity:1.000000; stroke:none;">
<circle cx="119.100000" cy="36.075000" r="0.300000" /> 
</g>
<g style="fill:#000000; fill-opacity:1.000000; stroke:none;">
<circle cx="120.100000" cy="36.075000" r="0.300000" /> 
</g>
<g style="fill:#000000; fill-opacity:1.000000; stroke:none;">
<circle cx="121.100000" cy="36.075000" r="0.300000" /> 
</g>
<g style="fill:#000000; fill-opacity:1.000000; stroke:none;">
<circle cx="122.100000" cy="36.075000" r="0.300000" /> 
</g>
<g style="fill:#000000; fill-opacity:1.000000; stroke:none;">
<circle cx="123.100000" cy="36.075000" r="0.300000" /> 
</g>
<g style="fill:#000000; fill-opacity:1.000000; stroke:none;">
<circle cx="124.100000" cy="36.075000" r="0.300000" /> 
</g>
<g style="fill:#000000; fill-opacity:1.000000; stroke:none;">
<circle cx="125.100000" cy="36.075000" r="0.300000" /> 
</g>
<g style="fill:#000000; fill-opacity:1.000000; stroke:none;">
<circle cx="126.100000" cy="36.075000" r="0.300000" /> 
</g>
<g style="fill:#000000; fill-opacity:1.000000; stroke:none;">
<circle cx="127.100000" cy="36.075000" r="0.300000" /> 
</g>
<g style="fill:#000000; fill-opacity:1.000000; stroke:none;">
<circle cx="128.100000" cy="36.075000" r="0.300000" /> 
</g>
<g style="fill:#000000; fill-opacity:1.000000; stroke:none;">
<circle cx="129.100000" cy="36.075000" r="0.300000" /> 
</g>
<g style="fill:#000000; fill-opacity:1.000000; stroke:none;">
<circle cx="130.100000" cy="21.075000" r="0.300000" /> 
</g>
<g style="fill:#000000; fill-opacity:1.000000; stroke:none;">
<circle cx="130.100000" cy="22.075000" r="0.300000" /> 
</g>
<g style="fill:#000000; fill-opacity:1.000000; stroke:none;">
<circle cx="130.100000" cy="23.075000" r="0.300000" /> 
</g>
<g style="fill:#000000; fill-opacity:1.000000; stroke:none;">
<circle cx="130.100000" cy="24.075000" r="0.300000" /> 
</g>
<g style="fill:#000000; fill-opacity:1.000000; stroke:none;">
<circle cx="130.100000" cy="25.075000" r="0.300000" /> 
</g>
<g style="fill:#000000; fill-opacity:1.000000; stroke:none;">
<circle cx="130.100000" cy="26.075000" r="0.300000" /> 
</g>
<g style="fill:#000000; fill-opacity:1.000000; stroke:none;">
<circle cx="130.100000" cy="27.075000" r="0.300000" /> 
</g>
<g style="fill:#000000; fill-opacity:1.000000; stroke:none;">
<circle cx="130.100000" cy="28.075000" r="0.300000" /> 
</g>
<g style="fill:#000000; fill-opacity:1.000000; stroke:none;">
<circle cx="130.100000" cy="29.075000" r="0.300000" /> 
</g>
<g style="fill:#000000; fill-opacity:1.000000; stroke:none;">
<circle cx="130.100000" cy="30.075000" r="0.300000" /> 
</g>
<g style="fill:#000000; fill-opacity:1.000000; stroke:none;">
<circle cx="130.100000" cy="31.075000" r="0.300000" /> 
</g>
<g style="fill:#000000; fill-opacity:1.000000; stroke:none;">
<circle cx="130.100000" cy="32.075000" r="0.300000" /> 
</g>
<g style="fill:#000000; fill-opacity:1.000000; stroke:none;">
<circle cx="130.100000" cy="33.075000" r="0.300000" /> 
</g>
<g style="fill:#000000; fill-opacity:1.000000; stroke:none;">
<circle cx="130.100000" cy="34.075000" r="0.300000" /> 
</g>
<g style="fill:#000000; fill-opacity:1.000000; stroke:none;">
<circle cx="130.100000" cy="35.075000" r="0.300000" /> 
</g>
<g style="fill:#000000; fill-opacity:1.000000; stroke:none;">
<circle cx="130.100000" cy="36.075000" r="0.300000" /> 
</g>
<g style="fill:#000000; fill-opacity:1.000000; stroke:none;">
<circle cx="25.000000" cy="23.000000" r="1.350000" /> 
</g>
<g style="fill:#000000; fill-opacity:1.000000; stroke:none;">
<circle cx="181.965000" cy="33.800000" r="1.500000" /> 
</g>
<g style="fill:#000000; fill-opacity:1.000000; stroke:none;">
<circle cx="181.965000" cy="50.030000" r="1.500000" /> 
</g>
<g style="fill:#000000; fill-opacity:1.000000; stroke:none;">
<circle cx="188.315000" cy="33.800000" r="1.500000" /> 
</g>
<g style="fill:#000000; fill-opacity:1.000000; stroke:none;">
<circle cx="188.315000" cy="50.030000" r="1.500000" /> 
</g>
<g style="fill:#000000; fill-opacity:1.000000; stroke:none;">
<circle cx="175.615000" cy="33.800000" r="1.500000" /> 
</g>
<g style="fill:#000000; fill-opacity:1.000000; stroke:none;">
<circle cx="175.615000" cy="50.030000" r="1.500000" /> 
</g>
<g style="fill:#000000; fill-opacity:1.000000; stroke:none;">
<circle cx="168.000000" cy="63.500000" r="1.350000" /> 
<path style="fill:#000000; fill-opacity:1.000000; stroke:none;fill-rule:evenodd;"
d="M 111.946312,33.285921
111.214079,32.553688
111.199200,32.517767
111.199200,31.482233
111.214079,31.446312
111.946312,30.714079
111.982233,30.699200
113.017767,30.699200
113.053688,30.714079
113.785921,31.446312
113.800800,31.482233
113.800800,32.517767
113.785921,32.553688
113.053688,33.285921
113.017767,33.300800
111.982233,33.300800
Z" /> 
<path style="fill:#000000; fill-opacity:1.000000; stroke:none;fill-rule:evenodd;"
d="M 121.285921,32.553688
120.553688,33.285921
120.517767,33.300800
119.482233,33.300800
119.446312,33.285921
118.714079,32.553688
118.699200,32.517767
118.699200,31.482233
118.714079,31.446312
119.446312,30.714079
119.482233,30.699200
120.517767,30.699200
120.553688,30.714079
121.285921,31.446312
121.300800,31.482233
121.300800,32.517767
Z" /> 
<path style="fill:#000000; fill-opacity:1.000000; stroke:none;fill-rule:evenodd;"
d="M 126.946312,33.285921
126.214079,32.553688
126.199200,32.517767
126.199200,31.482233
126.214079,31.446312
126.946312,30.714079
126.982233,30.699200
128.017767,30.699200
128.053688,30.714079
128.785921,31.446312
128.800800,31.482233
128.800800,32.517767
128.785921,32.553688
128.053688,33.285921
128.017767,33.300800
126.982233,33.300800
Z" /> 
<path style="fill:#000000; fill-opacity:1.000000; stroke:none;fill-rule:evenodd;"
d="M 114.446312,35.785921
113.714079,35.053688
113.699200,35.017767
113.699200,33.982233
113.714079,33.946312
114.446312,33.214079
114.482233,33.199200
115.517767,33.199200
115.553688,33.214079
116.285921,33.946312
116.300800,33.982233
116.300800,35.017767
116.285921,35.053688
115.553688,35.785921
115.517767,35.800800
114.482233,35.800800
Z" /> 
<path style="fill:#000000; fill-opacity:1.000000; stroke:none;fill-rule:evenodd;"
d="M 124.446312,35.785921
123.714079,35.053688
123.699200,35.017767
123.699200,33.982233
123.714079,33.946312
124.446312,33.214079
124.482233,33.199200
125.517767,33.199200
125.553688,33.214079
126.285921,33.946312
126.300800,33.982233
126.300800,35.017767
126.285921,35.053688
125.553688,35.785921
125.517767,35.800800
124.482233,35.800800
Z" /> 
<path style="fill:#000000; fill-opacity:1.000000; stroke:none;fill-rule:evenodd;"
d="M 121.564079,23.035921
121.549200,23.000000
121.549200,21.900000
121.564079,21.864079
122.464079,20.964079
122.500000,20.949200
123.400000,20.949200
123.435921,20.964079
123.450800,21.000000
123.450800,23.000000
123.435921,23.035921
123.400000,23.050800
121.600000,23.050800
Z" /> 
<path style="fill:#000000; fill-opacity:1.000000; stroke:none;fill-rule:evenodd;"
d="M 125.950800,23.000000
125.946933,23.019440
125.935921,23.035921
125.919440,23.046933
125.900000,23.050800
124.100000,23.050800
124.080560,23.046933
124.064079,23.035921
124.053067,23.019440
124.049200,23.000000
124.049200,21.000000
124.053067,20.980560
124.064079,20.964079
124.080560,20.953067
124.100000,20.949200
125.900000,20.949200
125.919440,20.953067
125.935921,20.964079
125.946933,20.980560
125.950800,21.000000
Z" /> 
<path style="fill:#000000; fill-opacity:1.000000; stroke:none;fill-rule:evenodd;"
d="M 115.950800,23.000000
115.946933,23.019440
115.935921,23.035921
115.919440,23.046933
115.900000,23.050800
114.100000,23.050800
114.080560,23.046933
114.064079,23.035921
114.053067,23.019440
114.049200,23.000000
114.049200,21.000000
114.053067,20.980560
114.064079,20.964079
114.080560,20.953067
114.100000,20.949200
115.900000,20.949200
115.919440,20.953067
115.935921,20.964079
115.946933,20.980560
115.950800,21.000000
Z" /> 
<path style="fill:#000000; fill-opacity:1.000000; stroke:none;fill-rule:evenodd;"
d="M 116.564079,23.035921
116.549200,23.000000
116.549200,21.000000
116.564079,20.964079
116.600000,20.949200
117.500000,20.949200
117.535921,20.964079
118.435921,21.864079
118.450800,21.900000
118.450800,23.000000
118.435921,23.035921
118.400000,23.050800
116.600000,23.050800
Z" /> 
</g>
<g style="fill:#000000; fill-opacity:1.000000; stroke:none;">
<circle cx="119.000000" cy="63.500000" r="1.350000" /> 
<path style="fill:#000000; fill-opacity:1.000000; stroke:none;fill-rule:evenodd;"
d="M 59.250000,32.500000
59.250000,30.500000
61.250000,30.500000
61.250000,32.500000
Z" /> 
</g>
<g style="fill:#000000; fill-opacity:1.000000; stroke:none;">
<circle cx="60.250000" cy="36.500000" r="1.000000" /> 
</g>
<g style="fill:#000000; fill-opacity:1.000000; stroke:none;">
<circle cx="60.250000" cy="34.000000" r="1.000000" /> 
</g>
<g style="fill:#000000; fill-opacity:1.000000; stroke:none;">
<circle cx="67.750000" cy="28.400000" r="1.600000" /> 
</g>
<g style="fill:#000000; fill-opacity:1.000000; stroke:none;">
<circle cx="67.750000" cy="39.600000" r="1.600000" /> 
</g>
<g style="fill:#000000; fill-opacity:1.000000; stroke:none;">
<circle cx="74.750000" cy="36.500000" r="1.000000" /> 
</g>
<g style="fill:#000000; fill-opacity:1.000000; stroke:none;">
<circle cx="74.750000" cy="31.500000" r="1.000000" /> 
</g>
<g style="fill:#000000; fill-opacity:1.000000; stroke:none;">
<circle cx="168.000000" cy="128.000000" r="1.350000" /> 
<path style="fill:#000000; fill-opacity:1.000000; stroke:none;fill-rule:evenodd;"
d="M 106.375000,80.450000
108.075000,80.450000
108.075000,82.150000
106.375000,82.150000
Z" /> 
</g>
<g style="fill:#000000; fill-opacity:1.000000; stroke:none;">
<circle cx="104.685000" cy="81.300000" r="0.850000" /> 
</g>
<g style="fill:#000000; fill-opacity:1.000000; stroke:none;">
<circle cx="102.145000" cy="81.300000" r="0.850000" /> 
</g>
<g style="fill:#000000; fill-opacity:1.000000; stroke:none;">
<circle cx="181.950000" cy="74.780000" r="1.500000" /> 
</g>
<g style="fill:#000000; fill-opacity:1.000000; stroke:none;">
<circle cx="181.950000" cy="91.010000" r="1.500000" /> 
</g>
<g style="fill:#000000; fill-opacity:1.000000; stroke:none;">
<circle cx="188.300000" cy="74.780000" r="1.500000" /> 
</g>
<g style="fill:#000000; fill-opacity:1.000000; stroke:none;">
<circle cx="188.300000" cy="91.010000" r="1.500000" /> 
</g>
<g style="fill:#000000; fill-opacity:1.000000; stroke:none;">
<circle cx="175.600000" cy="74.780000" r="1.500000" /> 
</g>
<g style="fill:#000000; fill-opacity:1.000000; stroke:none;">
<circle cx="175.600000" cy="91.010000" r="1.500000" /> 
</g>
<g style="fill:none; 
stroke:#000000; stroke-width:1.350000; stroke-opacity:1; 
stroke-linecap:round; stroke-linejoin:round;">
<path d="M19.380000 53.745000
L19.730000 53.745000
" />
</g>
<g style="fill:none; 
stroke:#000000; stroke-width:1.100000; stroke-opacity:1; 
stroke-linecap:round; stroke-linejoin:round;">
<path d="M22.355000 54.055000
L22.755000 54.055000
" />
<path d="M22.355000 58.895000
L22.755000 58.895000
" />
</g>
<g style="fill:none; 
stroke:#000000; stroke-width:1.350000; stroke-opacity:1; 
stroke-linecap:round; stroke-linejoin:round;">
<path d="M19.380000 59.205000
L19.730000 59.205000
" />
<path style="fill:#000000; fill-opacity:1.000000; stroke:none;fill-rule:evenodd;"
d="M 53.880000,31.000000
53.880000,32.500000
52.280000,32.500000
52.280000,31.000000
Z" /> 
</g>
<g style="fill:#000000; fill-opacity:1.000000; stroke:none;">
<circle cx="50.580000" cy="31.750000" r="0.800000" /> 
</g>
<g style="fill:#000000; fill-opacity:1.000000; stroke:none;">
<circle cx="48.580000" cy="31.750000" r="0.800000" /> 
</g>
<g style="fill:#000000; fill-opacity:1.000000; stroke:none;">
<circle cx="46.080000" cy="31.750000" r="0.800000" /> 
</g>
<g style="fill:#000000; fill-opacity:1.000000; stroke:none;">
<circle cx="56.150000" cy="29.040000" r="1.500000" /> 
</g>
<g style="fill:#000000; fill-opacity:1.000000; stroke:none;">
<circle cx="43.010000" cy="29.040000" r="1.500000" /> 
</g>
<g style="fill:#000000; fill-opacity:1.000000; stroke:none;">
<circle cx="89.000000" cy="111.500000" r="3.050000" /> 
</g>
<g style="fill:#000000; fill-opacity:1.000000; stroke:none;">
<circle cx="89.000000" cy="63.500000" r="3.050000" /> 
</g>
<g style="fill:#000000; fill-opacity:1.000000; stroke:none;">
<circle cx="56.000000" cy="111.500000" r="3.050000" /> 
</g>
<g style="fill:#000000; fill-opacity:1.000000; stroke:none;">
<circle cx="56.000000" cy="63.500000" r="3.050000" /> 
</g>
<g style="fill:#000000; fill-opacity:1.000000; stroke:none;">
<circle cx="42.000000" cy="128.000000" r="1.350000" /> 
</g>
<g style="fill:#000000; fill-opacity:1.000000; stroke:none;">
<circle cx="185.005615" cy="22.994385" r="1.350000" /> 
<path style="fill:#000000; fill-opacity:1.000000; stroke:none;fill-rule:evenodd;"
d="M 134.250000,32.500000
134.250000,30.500000
136.250000,30.500000
136.250000,32.500000
Z" /> 
</g>
<g style="fill:#000000; fill-opacity:1.000000; stroke:none;">
<circle cx="135.250000" cy="36.500000" r="1.000000" /> 
</g>
<g style="fill:#000000; fill-opacity:1.000000; stroke:none;">
<circle cx="135.250000" cy="34.000000" r="1.000000" /> 
</g>
<g style="fill:#000000; fill-opacity:1.000000; stroke:none;">
<circle cx="142.750000" cy="28.400000" r="1.600000" /> 
</g>
<g style="fill:#000000; fill-opacity:1.000000; stroke:none;">
<circle cx="142.750000" cy="39.600000" r="1.600000" /> 
</g>
<g style="fill:#000000; fill-opacity:1.000000; stroke:none;">
<circle cx="149.750000" cy="36.500000" r="1.000000" /> 
</g>
<g style="fill:#000000; fill-opacity:1.000000; stroke:none;">
<circle cx="149.750000" cy="31.500000" r="1.000000" /> 
</g>
<g style="fill:#000000; fill-opacity:1.000000; stroke:none;">
<circle cx="105.000000" cy="98.000000" r="1.350000" /> 
<path style="fill:#000000; fill-opacity:1.000000; stroke:none;fill-rule:evenodd;"
d="M 81.946312,33.285921
81.214079,32.553688
81.199200,32.517767
81.199200,31.482233
81.214079,31.446312
81.946312,30.714079
81.982233,30.699200
83.017767,30.699200
83.053688,30.714079
83.785921,31.446312
83.800800,31.482233
83.800800,32.517767
83.785921,32.553688
83.053688,33.285921
83.017767,33.300800
81.982233,33.300800
Z" /> 
<path style="fill:#000000; fill-opacity:1.000000; stroke:none;fill-rule:evenodd;"
d="M 91.285921,32.553688
90.553688,33.285921
90.517767,33.300800
89.482233,33.300800
89.446312,33.285921
88.714079,32.553688
88.699200,32.517767
88.699200,31.482233
88.714079,31.446312
89.446312,30.714079
89.482233,30.699200
90.517767,30.699200
90.553688,30.714079
91.285921,31.446312
91.300800,31.482233
91.300800,32.517767
Z" /> 
<path style="fill:#000000; fill-opacity:1.000000; stroke:none;fill-rule:evenodd;"
d="M 96.946312,33.285921
96.214079,32.553688
96.199200,32.517767
96.199200,31.482233
96.214079,31.446312
96.946312,30.714079
96.982233,30.699200
98.017767,30.699200
98.053688,30.714079
98.785921,31.446312
98.800800,31.482233
98.800800,32.517767
98.785921,32.553688
98.053688,33.285921
98.017767,33.300800
96.982233,33.300800
Z" /> 
<path style="fill:#000000; fill-opacity:1.000000; stroke:none;fill-rule:evenodd;"
d="M 84.446312,35.785921
83.714079,35.053688
83.699200,35.017767
83.699200,33.982233
83.714079,33.946312
84.446312,33.214079
84.482233,33.199200
85.517767,33.199200
85.553688,33.214079
86.285921,33.946312
86.300800,33.982233
86.300800,35.017767
86.285921,35.053688
85.553688,35.785921
85.517767,35.800800
84.482233,35.800800
Z" /> 
<path style="fill:#000000; fill-opacity:1.000000; stroke:none;fill-rule:evenodd;"
d="M 94.446312,35.785921
93.714079,35.053688
93.699200,35.017767
93.699200,33.982233
93.714079,33.946312
94.446312,33.214079
94.482233,33.199200
95.517767,33.199200
95.553688,33.214079
96.285921,33.946312
96.300800,33.982233
96.300800,35.017767
96.285921,35.053688
95.553688,35.785921
95.517767,35.800800
94.482233,35.800800
Z" /> 
<path style="fill:#000000; fill-opacity:1.000000; stroke:none;fill-rule:evenodd;"
d="M 91.564079,23.035921
91.549200,23.000000
91.549200,21.900000
91.564079,21.864079
92.464079,20.964079
92.500000,20.949200
93.400000,20.949200
93.435921,20.964079
93.450800,21.000000
93.450800,23.000000
93.435921,23.035921
93.400000,23.050800
91.600000,23.050800
Z" /> 
<path style="fill:#000000; fill-opacity:1.000000; stroke:none;fill-rule:evenodd;"
d="M 95.950800,23.000000
95.946933,23.019440
95.935921,23.035921
95.919440,23.046933
95.900000,23.050800
94.100000,23.050800
94.080560,23.046933
94.064079,23.035921
94.053067,23.019440
94.049200,23.000000
94.049200,21.000000
94.053067,20.980560
94.064079,20.964079
94.080560,20.953067
94.100000,20.949200
95.900000,20.949200
95.919440,20.953067
95.935921,20.964079
95.946933,20.980560
95.950800,21.000000
Z" /> 
<path style="fill:#000000; fill-opacity:1.000000; stroke:none;fill-rule:evenodd;"
d="M 85.950800,23.000000
85.946933,23.019440
85.935921,23.035921
85.919440,23.046933
85.900000,23.050800
84.100000,23.050800
84.080560,23.046933
84.064079,23.035921
84.053067,23.019440
84.049200,23.000000
84.049200,21.000000
84.053067,20.980560
84.064079,20.964079
84.080560,20.953067
84.100000,20.949200
85.900000,20.949200
85.919440,20.953067
85.935921,20.964079
85.946933,20.980560
85.950800,21.000000
Z" /> 
<path style="fill:#000000; fill-opacity:1.000000; stroke:none;fill-rule:evenodd;"
d="M 86.564079,23.035921
86.549200,23.000000
86.549200,21.000000
86.564079,20.964079
86.600000,20.949200
87.500000,20.949200
87.535921,20.964079
88.435921,21.864079
88.450800,21.900000
88.450800,23.000000
88.435921,23.035921
88.400000,23.050800
86.600000,23.050800
Z" /> 
</g>
<g style="fill:none; 
stroke:#000000; stroke-width:1.200000; stroke-opacity:1; 
stroke-linecap:round; stroke-linejoin:round;">
<path d="M94.994500 30.000000
L94.994500 29.000000
" />
<path d="M92.494500 30.000000
L92.494500 29.000000
" />
<path d="M90.494500 24.500000
L89.494500 24.500000
" />
<path d="M84.994500 29.000000
L84.994500 30.000000
" />
<path d="M87.494500 29.000000
L87.494500 30.000000
" />
</g>
<g style="fill:#000000; fill-opacity:1.000000; stroke:none;">
<circle cx="30.000000" cy="119.000000" r="3.000000" /> 
</g>
<g style="fill:#000000; fill-opacity:1.000000; stroke:none;">
<circle cx="105.000000" cy="67.000000" r="3.000000" /> 
</g>
<g style="fill:#000000; fill-opacity:1.000000; stroke:none;">
<circle cx="30.000000" cy="67.000000" r="3.000000" /> 
</g>
<g style="fill:#000000; fill-opacity:1.000000; stroke:none;">
<circle cx="180.000000" cy="67.000000" r="3.000000" /> 
</g>
<g style="fill:#000000; fill-opacity:1.000000; stroke:none;">
<circle cx="105.000000" cy="119.000000" r="3.000000" /> 
<path style="fill:#000000; fill-opacity:1.000000; stroke:none;fill-rule:evenodd;"
d="M 72.360000,22.865000
72.379030,22.769329
72.433223,22.688223
72.514329,22.634030
72.610000,22.615000
73.310000,22.615000
73.405671,22.634030
73.486777,22.688223
73.540970,22.769329
73.560000,22.865000
73.560000,24.115000
73.540970,24.210671
73.486777,24.291777
73.405671,24.345970
73.310000,24.365000
72.610000,24.365000
72.514329,24.345970
72.433223,24.291777
72.379030,24.210671
72.360000,24.115000
Z" /> 
</g>
<g style="fill:none; 
stroke:#000000; stroke-width:1.200000; stroke-opacity:1; 
stroke-linecap:round; stroke-linejoin:round;">
<path d="M74.960000 23.215000
L74.960000 23.765000
" />
<path d="M76.960000 23.215000
L76.960000 23.765000
" />
</g>
<g style="fill:#000000; fill-opacity:1.000000; stroke:none;">
<circle cx="180.000000" cy="119.000000" r="3.000000" /> 
<path style="fill:#000000; fill-opacity:1.000000; stroke:none;fill-rule:evenodd;"
d="M 121.100000,67.525600
121.100000,69.225600
119.400000,69.225600
119.400000,67.525600
Z" /> 
</g>
<g style="fill:#000000; fill-opacity:1.000000; stroke:none;">
<circle cx="117.710000" cy="68.375600" r="0.850000" /> 
<circle cx="120.250000" cy="70.915600" r="0.850000" /> 
<circle cx="117.710000" cy="70.915600" r="0.850000" /> 
<circle cx="120.250000" cy="73.455600" r="0.850000" /> 
<circle cx="117.710000" cy="73.455600" r="0.850000" /> 
<circle cx="120.250000" cy="75.995600" r="0.850000" /> 
<circle cx="117.710000" cy="75.995600" r="0.850000" /> 
<circle cx="120.250000" cy="78.535600" r="0.850000" /> 
<circle cx="117.710000" cy="78.535600" r="0.850000" /> 
<circle cx="120.250000" cy="81.075600" r="0.850000" /> 
<circle cx="117.710000" cy="81.075600" r="0.850000" /> 
<circle cx="120.250000" cy="83.615600" r="0.850000" /> 
<circle cx="117.710000" cy="83.615600" r="0.850000" /> 
<circle cx="120.250000" cy="86.155600" r="0.850000" /> 
<circle cx="117.710000" cy="86.155600" r="0.850000" /> 
<circle cx="120.250000" cy="88.695600" r="0.850000" /> 
<circle cx="117.710000" cy="88.695600" r="0.850000" /> 
<circle cx="120.250000" cy="91.235600" r="0.850000" /> 
<circle cx="117.710000" cy="91.235600" r="0.850000" /> 
<circle cx="120.250000" cy="93.775600" r="0.850000" /> 
<circle cx="117.710000" cy="93.775600" r="0.850000" /> 
<circle cx="120.250000" cy="96.315600" r="0.850000" /> 
<circle cx="117.710000" cy="96.315600" r="0.850000" /> 
<circle cx="120.250000" cy="98.855600" r="0.850000" /> 
<circle cx="117.710000" cy="98.855600" r="0.850000" /> 
<circle cx="120.250000" cy="101.395600" r="0.850000" /> 
<circle cx="117.710000" cy="101.395600" r="0.850000" /> 
<circle cx="120.250000" cy="103.935600" r="0.850000" /> 
<circle cx="117.710000" cy="103.935600" r="0.850000" /> 
<circle cx="120.250000" cy="106.475600" r="0.850000" /> 
<circle cx="117.710000" cy="106.475600" r="0.850000" /> 
<circle cx="120.250000" cy="109.015600" r="0.850000" /> 
<circle cx="117.710000" cy="109.015600" r="0.850000" /> 
<circle cx="120.250000" cy="111.555600" r="0.850000" /> 
<circle cx="117.710000" cy="111.555600" r="0.850000" /> 
<circle cx="120.250000" cy="114.095600" r="0.850000" /> 
<circle cx="117.710000" cy="114.095600" r="0.850000" /> 
<circle cx="120.250000" cy="116.635600" r="0.850000" /> 
<circle cx="117.710000" cy="116.635600" r="0.850000" /> 
<path style="fill:#000000; fill-opacity:1.000000; stroke:none;fill-rule:evenodd;"
d="M 157.405000,73.995600
157.405000,75.695600
155.705000,75.695600
155.705000,73.995600
Z" /> 
<circle cx="154.015000" cy="74.845600" r="0.850000" /> 
<circle cx="156.555000" cy="77.385600" r="0.850000" /> 
<circle cx="154.015000" cy="77.385600" r="0.850000" /> 
<circle cx="156.555000" cy="79.925600" r="0.850000" /> 
<circle cx="154.015000" cy="79.925600" r="0.850000" /> 
<path style="fill:#000000; fill-opacity:1.000000; stroke:none;fill-rule:evenodd;"
d="M 151.530000,118.300600
153.230000,118.300600
153.230000,120.000600
151.530000,120.000600
Z" /> 
<circle cx="152.380000" cy="121.690600" r="0.850000" /> 
<circle cx="154.920000" cy="119.150600" r="0.850000" /> 
<circle cx="154.920000" cy="121.690600" r="0.850000" /> 
<circle cx="157.460000" cy="119.150600" r="0.850000" /> 
<circle cx="157.460000" cy="121.690600" r="0.850000" /> 
<path style="fill:#000000; fill-opacity:1.000000; stroke:none;fill-rule:evenodd;"
d="M 63.430000,22.875000
63.449030,22.779329
63.503223,22.698223
63.584329,22.644030
63.680000,22.625000
64.380000,22.625000
64.475671,22.644030
64.556777,22.698223
64.610970,22.779329
64.630000,22.875000
64.630000,24.125000
64.610970,24.220671
64.556777,24.301777
64.475671,24.355970
64.380000,24.375000
63.680000,24.375000
63.584329,24.355970
63.503223,24.301777
63.449030,24.220671
63.430000,24.125000
Z" /> 
</g>
<g style="fill:none; 
stroke:#000000; stroke-width:1.200000; stroke-opacity:1; 
stroke-linecap:round; stroke-linejoin:round;">
<path d="M66.030000 23.225000
L66.030000 23.775000
" />
<path d="M68.030000 23.225000
L68.030000 23.775000
" />
</g> 
</svg>
