G04 #@! TF.GenerationSoftware,KiCad,Pcbnew,9.0.7+1*
G04 #@! TF.CreationDate,2026-04-18T10:00:41+00:00*
G04 #@! TF.ProjectId,pedalboard-hw,70656461-6c62-46f6-9172-642d68772e6b,4.0.1-RC*
G04 #@! TF.SameCoordinates,Original*
G04 #@! TF.FileFunction,Profile,NP*
%FSLAX46Y46*%
G04 Gerber Fmt 4.6, Leading zero omitted, Abs format (unit mm)*
G04 Created by KiCad (PCBNEW 9.0.7+1) date 2026-04-18 10:00:41*
%MOMM*%
%LPD*%
G01*
G04 APERTURE LIST*
G04 #@! TA.AperFunction,Profile*
%ADD10C,0.100000*%
G04 #@! TD*
G04 APERTURE END LIST*
D10*
X104194385Y110994385D02*
X168994385Y110994385D01*
X-5615Y6994385D02*
X-5615Y103994385D01*
X4994385Y-5615D02*
G75*
G02*
X3994385Y994385I0J1000000D01*
G01*
X81994385Y-5615D02*
G75*
G02*
X91994385Y-5615I5000000J0D01*
G01*
X4994385Y-5615D02*
X81994385Y-5615D01*
X100194385Y109594385D02*
G75*
G02*
X99794385Y109994385I0J400000D01*
G01*
X91994385Y110994385D02*
G75*
G02*
X81994385Y110994385I-5000000J0D01*
G01*
X70194385Y109594385D02*
G75*
G02*
X69794385Y109994385I0J400000D01*
G01*
X169994385Y994385D02*
G75*
G02*
X168994385Y-5615I-1000000J0D01*
G01*
X100194385Y109594385D02*
X103794383Y109594383D01*
X172994385Y104994385D02*
G75*
G02*
X169994385Y107994385I0J3000000D01*
G01*
X994385Y5994385D02*
G75*
G02*
X-5615Y6994385I0J1000000D01*
G01*
X-5615Y103994385D02*
G75*
G02*
X994385Y104994385I1000000J0D01*
G01*
X172994385Y104994385D02*
G75*
G02*
X173994385Y103994385I0J-1000000D01*
G01*
X91994385Y110994385D02*
X99794385Y110994385D01*
X173994385Y103994385D02*
X173994385Y6994385D01*
X994385Y5994385D02*
G75*
G02*
X3994385Y2994385I0J-3000000D01*
G01*
X169994385Y2994385D02*
X169994385Y994385D01*
X99794385Y110994385D02*
X99794385Y109994385D01*
X74194385Y109994385D02*
X74194385Y110994385D01*
X169994385Y109994385D02*
X169994385Y107994385D01*
X74194385Y110994385D02*
X81994385Y110994385D01*
X74194385Y109994385D02*
G75*
G02*
X73794385Y109594385I-400000J0D01*
G01*
X69794385Y110994385D02*
X69794385Y109994385D01*
X3994385Y107994385D02*
G75*
G02*
X994385Y104994385I-3000000J0D01*
G01*
X70194385Y109594385D02*
X73794385Y109594385D01*
X3994385Y109994385D02*
G75*
G02*
X4994385Y110994385I1000000J0D01*
G01*
X69794385Y110994385D02*
X4994385Y110994385D01*
X3994385Y109994385D02*
X3994385Y107994385D01*
X104194385Y109994385D02*
G75*
G02*
X103794383Y109594385I-400000J0D01*
G01*
X173994385Y6994385D02*
G75*
G02*
X172994385Y5994385I-1000000J0D01*
G01*
X104194385Y109994385D02*
X104194385Y110994385D01*
X91994385Y-5615D02*
X168994385Y-5615D01*
X3994385Y2994385D02*
X3994385Y994385D01*
X169994385Y2994385D02*
G75*
G02*
X172994385Y5994385I3000000J0D01*
G01*
X168994385Y110994385D02*
G75*
G02*
X169994385Y109994385I0J-1000000D01*
G01*
M02*
