M48
; DRILL file {KiCad 9.0.7+1} date 2026-04-14T19:55:46+0000
; FORMAT={-:-/ absolute / metric / decimal}
; #@! TF.CreationDate,2026-04-14T19:55:46+00:00
; #@! TF.GenerationSoftware,Kicad,Pcbnew,9.0.7+1
; #@! TF.FileFunction,MixedPlating,1,2
FMAT,2
METRIC
; #@! TA.AperFunction,Plated,PTH,ViaDrill
T1C0.300
; #@! TA.AperFunction,Plated,PTH,ComponentDrill
T2C0.300
; #@! TA.AperFunction,Plated,PTH,ComponentDrill
T3C0.350
; #@! TA.AperFunction,Plated,PTH,ViaDrill
T4C0.400
; #@! TA.AperFunction,Plated,PTH,ComponentDrill
T5C0.450
; #@! TA.AperFunction,Plated,PTH,ComponentDrill
T6C0.650
; #@! TA.AperFunction,Plated,PTH,ComponentDrill
T7C0.700
; #@! TA.AperFunction,Plated,PTH,ComponentDrill
T8C0.750
; #@! TA.AperFunction,Plated,PTH,ViaDrill
T9C0.800
; #@! TA.AperFunction,Plated,PTH,ComponentDrill
T10C0.800
; #@! TA.AperFunction,Plated,PTH,ComponentDrill
T11C0.950
; #@! TA.AperFunction,Plated,PTH,ComponentDrill
T12C1.000
; #@! TA.AperFunction,Plated,PTH,ComponentDrill
T13C1.300
; #@! TA.AperFunction,Plated,PTH,ComponentDrill
T14C1.321
; #@! TA.AperFunction,Plated,PTH,ComponentDrill
T15C1.400
; #@! TA.AperFunction,Plated,PTH,ComponentDrill
T16C2.300
; #@! TA.AperFunction,Plated,PTH,ComponentDrill
T17C2.600
; #@! TA.AperFunction,NonPlated,NPTH,ComponentDrill
T18C0.500
; #@! TA.AperFunction,NonPlated,NPTH,ComponentDrill
T19C1.200
; #@! TA.AperFunction,NonPlated,NPTH,ComponentDrill
T20C2.700
; #@! TA.AperFunction,NonPlated,NPTH,ComponentDrill
T21C3.700
%
G90
G05
T1
X36.316Y89.023
X38.174Y89.238
X82.798Y80.438
X83.654Y87.584
X83.794Y85.434
X91.949Y85.508
T2
X139.564Y89.244
X139.564Y87.944
X140.864Y89.244
X140.864Y87.944
X142.164Y89.244
X142.164Y87.944
X143.464Y89.244
X143.464Y87.944
T3
X88.119Y86.669
X88.119Y85.394
X88.119Y84.119
X89.394Y86.669
X89.394Y85.394
X89.394Y84.119
X90.669Y86.669
X90.669Y85.394
X90.669Y84.119
T4
X6.594Y61.494
X6.594Y9.494
X8.944Y72.944
X13.66Y101.927
X17.494Y61.594
X18.994Y7.894
X21.61Y108.2
X22.144Y76.504
X22.184Y72.874
X23.566Y108.251
X23.644Y14.924
X24.225Y14.11
X28.894Y78.294
X28.994Y81.344
X28.994Y79.294
X29.004Y84.854
X29.014Y90.144
X29.394Y92.694
X29.859Y87.354
X30.294Y93.494
X30.474Y76.527
X30.694Y91.694
X31.319Y89.129
X32.184Y22.474
X32.215Y23.474
X32.354Y76.527
X32.544Y69.704
X32.794Y86.394
X32.794Y85.044
X32.794Y83.644
X34.144Y86.394
X34.184Y85.044
X34.194Y83.644
X34.284Y76.527
X35.132Y72.504
X35.594Y86.394
X35.594Y84.994
X35.594Y83.644
X35.783Y76.933
X36.094Y79.064
X36.24Y80.234
X37.494Y55.994
X37.494Y52.994
X37.494Y50.494
X37.494Y47.994
X37.494Y45.494
X37.494Y42.994
X37.494Y40.494
X37.494Y37.994
X37.494Y35.494
X37.544Y91.744
X37.574Y82.224
X39.548Y72.081
X39.994Y7.094
X40.694Y82.224
X41.044Y75.294
X41.444Y86.162
X41.984Y80.234
X43.208Y76.954
X43.259Y78.354
X43.664Y82.084
X44.004Y86.974
X44.124Y77.354
X45.75Y72.25
X45.914Y86.354
X45.974Y79.424
X50.693Y77.085
X52.877Y76.222
X53.665Y76.222
X55.112Y76.755
X59.039Y103.28
X59.489Y102.348
X59.774Y97.144
X60.65Y101.203
X61.431Y101.873
X64.694Y40.594
X64.994Y39.294
X65.194Y45.594
X65.294Y44.207
X65.344Y41.744
X65.394Y42.894
X65.52Y38.281
X65.793Y40.607
X65.994Y47.894
X66.069Y46.307
X66.128Y44.907
X66.494Y43.395
X66.695Y47.095
X67.294Y53.494
X67.294Y52.494
X67.894Y44.295
X68.594Y50.694
X71.494Y49.494
X71.494Y43.394
X71.494Y37.494
X71.494Y34.994
X71.902Y57.294
X72.689Y57.299
X73.477Y57.273
X73.494Y76.594
X74.264Y57.273
X74.794Y80.694
X74.794Y77.094
X75.204Y53.894
X75.695Y35.472
X76.019Y44.069
X76.094Y90.144
X76.294Y53.694
X76.394Y5.594
X76.804Y50.624
X77.283Y86.088
X77.287Y82.903
X77.297Y37.332
X77.532Y45.101
X77.811Y38.189
X77.894Y48.694
X78.053Y47.395
X78.294Y41.395
X78.394Y50.294
X78.516Y53.226
X79.094Y43.894
X79.194Y90.944
X79.394Y47.994
X79.494Y46.194
X79.506Y38.612
X79.678Y40.595
X80.109Y90.244
X80.443Y48.753
X80.551Y38.795
X80.594Y88.444
X80.912Y43.195
X81.594Y61.494
X81.594Y9.794
X81.62Y51.794
X81.794Y39.794
X83.454Y76.084
X84.077Y89.776
X85.294Y76.394
X85.669Y79.794
X87.884Y91.345
X87.964Y72.554
X88.095Y74.546
X88.095Y73.546
X88.095Y71.563
X88.744Y55.104
X90.116Y89.866
X90.464Y34.595
X90.569Y76.541
X90.655Y79.812
X90.695Y71.421
X91.167Y72.302
X91.495Y74.301
X91.495Y73.301
X91.644Y35.395
X92.194Y34.56
X92.294Y9.994
X92.422Y91.542
X92.494Y61.494
X93.094Y5.494
X93.144Y48.894
X93.876Y88.345
X93.942Y49.497
X94.194Y78.394
X94.654Y48.795
X94.787Y85.561
X94.846Y88.583
X95.643Y89.188
X96.179Y81.794
X96.254Y52.444
X98.694Y85.394
X99.144Y74.944
X99.394Y84.394
X102.894Y80.344
X105.994Y83.494
X106.264Y80.294
X106.794Y74.294
X109.294Y74.294
X116.394Y76.194
X119.794Y75.194
X121.694Y86.394
X123.194Y76.194
X124.494Y84.594
X125.267Y81.073
X125.653Y79.163
X126.199Y79.709
X126.494Y5.594
X127.944Y88.244
X128.657Y94.764
X129.094Y84.944
X130.194Y81.759
X130.794Y86.644
X131.081Y80.294
X131.994Y73.594
X132.394Y5.494
X133.144Y86.694
X133.7Y75.394
X135.494Y95.494
X135.494Y93.994
X135.494Y92.494
X135.494Y90.994
X135.494Y89.494
X135.494Y87.994
X135.494Y86.494
X136.294Y106.994
X136.334Y103.294
X136.994Y95.494
X136.994Y93.994
X137.307Y76.044
X137.474Y78.734
X137.494Y107.994
X137.494Y98.994
X137.891Y75.536
X138.194Y105.094
X138.45Y75.003
X138.994Y98.994
X139.059Y75.511
X139.494Y107.994
X139.594Y78.744
X141.494Y107.994
X141.634Y78.704
X143.494Y107.994
X143.494Y83.994
X143.514Y78.704
X143.594Y81.694
X145.994Y98.994
X145.994Y95.494
X145.994Y93.494
X147.494Y95.494
X147.494Y93.494
X147.494Y91.494
X147.494Y89.494
X147.494Y87.494
X147.494Y85.494
X148.127Y107.896
X148.994Y100.494
X148.994Y98.994
X148.994Y95.494
X148.994Y93.494
X148.994Y91.494
X148.994Y89.494
X148.994Y87.494
X148.994Y85.494
X150.494Y100.494
X150.994Y80.994
X151.094Y79.194
X156.594Y61.494
X156.694Y9.494
X160.794Y37.194
X167.394Y61.494
X167.394Y9.494
T8
X46.024Y107.494
X48.024Y107.494
X50.024Y107.494
X54.954Y107.504
X56.954Y107.504
X58.954Y107.504
T9
X53.182Y90.471
X53.207Y85.569
X85.919Y89.819
X103.169Y78.076
X112.264Y72.132
T11
X28.074Y99.244
X30.574Y99.244
X32.574Y99.244
X35.074Y99.244
T12
X42.244Y99.494
X42.244Y96.994
X42.244Y94.494
X56.744Y99.494
X56.744Y94.494
X84.139Y49.694
X86.679Y49.694
X89.219Y49.694
X99.704Y62.619
X99.704Y60.079
X99.704Y57.539
X99.704Y54.999
X99.704Y52.459
X99.704Y49.919
X99.704Y47.379
X99.704Y44.839
X99.704Y42.299
X99.704Y39.759
X99.704Y37.219
X99.704Y34.679
X99.704Y32.139
X99.704Y29.599
X99.704Y27.059
X99.704Y24.519
X99.704Y21.979
X99.704Y19.439
X99.704Y16.899
X99.704Y14.359
X102.244Y62.619
X102.244Y60.079
X102.244Y57.539
X102.244Y54.999
X102.244Y52.459
X102.244Y49.919
X102.244Y47.379
X102.244Y44.839
X102.244Y42.299
X102.244Y39.759
X102.244Y37.219
X102.244Y34.679
X102.244Y32.139
X102.244Y29.599
X102.244Y27.059
X102.244Y24.519
X102.244Y21.979
X102.244Y19.439
X102.244Y16.899
X102.244Y14.359
X111.309Y86.544
X113.849Y86.544
X116.389Y86.544
X117.244Y99.494
X117.244Y96.994
X117.244Y94.494
X131.744Y99.494
X131.744Y94.494
X134.374Y11.844
X134.374Y9.304
X136.009Y56.149
X136.009Y53.609
X136.009Y51.069
X136.914Y11.844
X136.914Y9.304
X138.549Y56.149
X138.549Y53.609
X138.549Y51.069
X139.454Y11.844
X139.454Y9.304
T13
X157.632Y107.796
X157.632Y102.796
T14
X64.494Y98.994
X66.994Y108.994
X66.994Y96.494
X69.494Y108.994
X71.994Y98.994
X74.494Y108.994
X76.994Y108.994
X76.994Y96.494
X79.494Y98.994
X94.494Y98.994
X96.994Y108.994
X96.994Y96.494
X99.494Y108.994
X101.994Y98.994
X104.494Y108.994
X106.994Y108.994
X106.994Y96.494
X109.494Y98.994
T15
X3.694Y97.224
X3.694Y80.994
X3.694Y56.224
X3.694Y39.994
X3.694Y36.024
X3.694Y19.794
X10.044Y97.224
X10.044Y80.994
X10.044Y56.224
X10.044Y39.994
X10.044Y36.024
X10.044Y19.794
X16.394Y97.224
X16.394Y80.994
X16.394Y56.224
X16.394Y39.994
X16.394Y36.024
X16.394Y19.794
X157.594Y56.214
X157.594Y39.984
X157.594Y35.999
X157.594Y19.769
X157.609Y97.194
X157.609Y80.964
X163.944Y56.214
X163.944Y39.984
X163.944Y35.999
X163.944Y19.769
X163.959Y97.194
X163.959Y80.964
X170.294Y56.214
X170.294Y39.984
X170.294Y35.999
X170.294Y19.769
X170.309Y97.194
X170.309Y80.964
T16
X25.004Y101.954
X38.144Y101.954
T17
X49.744Y102.594
X49.744Y91.394
X124.744Y102.594
X124.744Y91.394
T18
X62.094Y109.919
X62.094Y108.919
X62.094Y107.919
X62.094Y106.919
X62.094Y105.919
X62.094Y104.919
X62.094Y100.919
X62.094Y99.919
X62.094Y98.919
X62.094Y97.919
X62.094Y96.919
X62.094Y95.919
X62.094Y94.919
X63.094Y94.919
X64.094Y94.919
X65.094Y94.919
X66.094Y94.919
X67.094Y94.919
X68.094Y94.919
X69.094Y94.919
X70.094Y94.919
X71.094Y94.919
X72.094Y94.919
X73.094Y94.919
X74.094Y94.919
X75.094Y94.919
X76.094Y94.919
X77.094Y94.919
X78.094Y94.919
X79.094Y94.919
X80.094Y94.919
X81.094Y94.919
X82.094Y94.919
X83.094Y94.919
X84.094Y94.919
X85.094Y94.919
X86.094Y94.919
X87.094Y94.919
X88.094Y94.919
X89.094Y94.919
X90.094Y94.919
X91.094Y94.919
X92.094Y94.919
X93.094Y94.919
X94.094Y94.919
X95.094Y94.919
X96.094Y94.919
X97.094Y94.919
X98.094Y94.919
X99.094Y94.919
X100.094Y94.919
X101.094Y94.919
X102.094Y94.919
X103.094Y94.919
X104.094Y94.919
X105.094Y94.919
X106.094Y94.919
X107.094Y94.919
X108.094Y94.919
X109.094Y94.919
X110.094Y94.919
X111.094Y94.919
X112.094Y109.919
X112.094Y108.919
X112.094Y107.919
X112.094Y106.919
X112.094Y105.919
X112.094Y104.919
X112.094Y103.919
X112.094Y102.919
X112.094Y101.919
X112.094Y100.919
X112.094Y99.919
X112.094Y98.919
X112.094Y97.919
X112.094Y96.919
X112.094Y95.919
X112.094Y94.919
T19
X66.989Y106.494
X71.989Y101.494
X76.989Y106.494
X96.994Y106.494
X101.994Y101.494
X106.994Y106.494
T20
X6.994Y107.994
X23.994Y2.994
X37.994Y67.494
X37.994Y19.494
X70.994Y67.494
X70.994Y19.494
X86.994Y32.994
X100.974Y9.474
X100.994Y67.494
X149.994Y67.494
X149.994Y9.494
X149.994Y2.994
X167.0Y108.0
T21
X11.994Y63.994
X11.994Y11.994
X86.994Y63.994
X86.994Y11.994
X161.994Y63.994
X161.994Y11.994
T5
G00X66.989Y101.969
M15
G01X66.989Y101.019
M16
G05
G00X69.489Y101.969
M15
G01X69.489Y101.019
M16
G05
G00X72.464Y106.494
M15
G01X71.514Y106.494
M16
G05
G00X74.489Y101.019
M15
G01X74.489Y101.969
M16
G05
G00X76.989Y101.019
M15
G01X76.989Y101.969
M16
G05
G00X96.994Y101.969
M15
G01X96.994Y101.019
M16
G05
G00X99.494Y101.969
M15
G01X99.494Y101.019
M16
G05
G00X102.469Y106.494
M15
G01X101.519Y106.494
M16
G05
G00X104.494Y101.019
M15
G01X104.494Y101.969
M16
G05
G00X106.994Y101.019
M15
G01X106.994Y101.969
M16
G05
T6
G00X4.349Y76.939
M15
G01X4.749Y76.939
M16
G05
G00X4.349Y72.099
M15
G01X4.749Y72.099
M16
G05
T7
G00X1.299Y77.249
M15
G01X1.799Y77.249
M16
G05
G00X1.299Y71.789
M15
G01X1.799Y71.789
M16
G05
T10
G00X153.732Y104.706
M15
G01X153.732Y102.506
M16
G05
G00X159.632Y106.406
M15
G01X157.432Y106.406
M16
G05
G00X159.832Y100.606
M15
G01X157.232Y100.606
M16
G05
M30
