G04 #@! TF.GenerationSoftware,KiCad,Pcbnew,10.0.1-10.0.1~ubuntu25.10.1*
G04 #@! TF.CreationDate,2026-04-22T21:54:19+00:00*
G04 #@! TF.ProjectId,pedalboard-hw,70656461-6c62-46f6-9172-642d68772e6b,4.0.1-RC*
G04 #@! TF.SameCoordinates,Original*
G04 #@! TF.FileFunction,Soldermask,Top*
G04 #@! TF.FilePolarity,Negative*
%FSLAX46Y46*%
G04 Gerber Fmt 4.6, Leading zero omitted, Abs format (unit mm)*
G04 Created by KiCad (PCBNEW 10.0.1-10.0.1~ubuntu25.10.1) date 2026-04-22 21:54:19*
%MOMM*%
%LPD*%
G01*
G04 APERTURE LIST*
%ADD10C,0.010000*%
%ADD11R,2.000000X2.000000*%
%ADD12C,2.700000*%
%ADD13C,3.000000*%
%ADD14O,1.200000X2.200000*%
%ADD15O,2.200000X1.200000*%
%ADD16R,4.400000X1.800000*%
%ADD17O,4.000000X1.800000*%
%ADD18O,1.800000X4.000000*%
%ADD19C,2.600000*%
%ADD20R,1.700000X0.900000*%
%ADD21R,1.700000X1.700000*%
%ADD22C,1.700000*%
%ADD23C,0.600000*%
%ADD24R,2.000000X1.800000*%
%ADD25C,2.000000*%
%ADD26C,3.200000*%
%ADD27R,3.400000X2.710000*%
%ADD28R,1.650000X0.400000*%
%ADD29R,0.700000X1.825000*%
%ADD30R,1.500000X2.000000*%
%ADD31R,2.000000X1.350000*%
%ADD32O,1.700000X1.350000*%
%ADD33O,1.500000X1.100000*%
%ADD34R,2.500000X1.430000*%
%ADD35R,3.700000X3.700000*%
%ADD36R,1.300000X0.800000*%
%ADD37C,1.600000*%
%ADD38C,6.100000*%
%ADD39R,0.700000X0.200000*%
%ADD40R,1.400000X1.100000*%
%ADD41R,5.100000X2.350000*%
%ADD42C,6.000000*%
%ADD43O,1.200000X1.750000*%
%ADD44O,1.700000X1.700000*%
G04 APERTURE END LIST*
G36*
X31394383Y29094385D02*
G01*
X31694383Y29094385D01*
X31694383Y27594385D01*
X31394383Y27594385D01*
X31394383Y29094385D01*
G37*
G36*
X129044385Y4644385D02*
G01*
X129344385Y4644385D01*
X129344385Y3144385D01*
X129044385Y3144385D01*
X129044385Y4644385D01*
G37*
G36*
X129344385Y8744385D02*
G01*
X129644385Y8744385D01*
X129644385Y7244385D01*
X129344385Y7244385D01*
X129344385Y8744385D01*
G37*
D10*
X140354385Y104236015D02*
X139551705Y104236015D01*
X139551705Y106634385D01*
X140354385Y106634385D01*
X140354385Y104236015D01*
G36*
X140354385Y104236015D02*
G01*
X139551705Y104236015D01*
X139551705Y106634385D01*
X140354385Y106634385D01*
X140354385Y104236015D01*
G37*
X140354385Y99032945D02*
X139553515Y99032945D01*
X139553515Y101434385D01*
X140354385Y101434385D01*
X140354385Y99032945D01*
G36*
X140354385Y99032945D02*
G01*
X139553515Y99032945D01*
X139553515Y101434385D01*
X140354385Y101434385D01*
X140354385Y99032945D01*
G37*
X141604385Y104236945D02*
X140802465Y104236945D01*
X140802465Y106634385D01*
X141604385Y106634385D01*
X141604385Y104236945D01*
G36*
X141604385Y104236945D02*
G01*
X140802465Y104236945D01*
X140802465Y106634385D01*
X141604385Y106634385D01*
X141604385Y104236945D01*
G37*
X141604385Y99031595D02*
X140803615Y99031595D01*
X140803615Y101434385D01*
X141604385Y101434385D01*
X141604385Y99031595D01*
G36*
X141604385Y99031595D02*
G01*
X140803615Y99031595D01*
X140803615Y101434385D01*
X141604385Y101434385D01*
X141604385Y99031595D01*
G37*
X142904385Y104236385D02*
X142104742Y104236385D01*
X142104742Y106634385D01*
X142904385Y106634385D01*
X142904385Y104236385D01*
G36*
X142904385Y104236385D02*
G01*
X142104742Y104236385D01*
X142104742Y106634385D01*
X142904385Y106634385D01*
X142904385Y104236385D01*
G37*
X142904385Y99026925D02*
X142104875Y99026925D01*
X142104875Y101434385D01*
X142904385Y101434385D01*
X142904385Y99026925D01*
G36*
X142904385Y99026925D02*
G01*
X142104875Y99026925D01*
X142104875Y101434385D01*
X142904385Y101434385D01*
X142904385Y99026925D01*
G37*
X144154385Y104236105D02*
X143356225Y104236105D01*
X143356225Y106634385D01*
X144154385Y106634385D01*
X144154385Y104236105D01*
G36*
X144154385Y104236105D02*
G01*
X143356225Y104236105D01*
X143356225Y106634385D01*
X144154385Y106634385D01*
X144154385Y104236105D01*
G37*
G36*
X150144385Y16144385D02*
G01*
X151644385Y16144385D01*
X151644385Y15844385D01*
X150144385Y15844385D01*
X150144385Y16144385D01*
G37*
G36*
X78044385Y55644385D02*
G01*
X79544385Y55644385D01*
X79544385Y55344385D01*
X78044385Y55344385D01*
X78044385Y55644385D01*
G37*
G36*
X75544385Y55644385D02*
G01*
X77044385Y55644385D01*
X77044385Y55344385D01*
X75544385Y55344385D01*
X75544385Y55644385D01*
G37*
D11*
X146754385Y74134385D03*
G36*
G01*
X133269385Y86194385D02*
X133269385Y85294385D01*
G75*
G02*
X133019385Y85044385I-250000J0D01*
G01*
X132494385Y85044385D01*
G75*
G02*
X132244385Y85294385I0J250000D01*
G01*
X132244385Y86194385D01*
G75*
G02*
X132494385Y86444385I250000J0D01*
G01*
X133019385Y86444385D01*
G75*
G02*
X133269385Y86194385I0J-250000D01*
G01*
G37*
G36*
G01*
X131444385Y86194385D02*
X131444385Y85294385D01*
G75*
G02*
X131194385Y85044385I-250000J0D01*
G01*
X130669385Y85044385D01*
G75*
G02*
X130419385Y85294385I0J250000D01*
G01*
X130419385Y86194385D01*
G75*
G02*
X130669385Y86444385I250000J0D01*
G01*
X131194385Y86444385D01*
G75*
G02*
X131444385Y86194385I0J-250000D01*
G01*
G37*
G36*
G01*
X92459385Y75734385D02*
X92459385Y76634385D01*
G75*
G02*
X92709385Y76884385I250000J0D01*
G01*
X93234385Y76884385D01*
G75*
G02*
X93484385Y76634385I0J-250000D01*
G01*
X93484385Y75734385D01*
G75*
G02*
X93234385Y75484385I-250000J0D01*
G01*
X92709385Y75484385D01*
G75*
G02*
X92459385Y75734385I0J250000D01*
G01*
G37*
G36*
G01*
X94284385Y75734385D02*
X94284385Y76634385D01*
G75*
G02*
X94534385Y76884385I250000J0D01*
G01*
X95059385Y76884385D01*
G75*
G02*
X95309385Y76634385I0J-250000D01*
G01*
X95309385Y75734385D01*
G75*
G02*
X95059385Y75484385I-250000J0D01*
G01*
X94534385Y75484385D01*
G75*
G02*
X94284385Y75734385I0J250000D01*
G01*
G37*
G36*
G01*
X96294385Y86249385D02*
X96294385Y87199385D01*
G75*
G02*
X96544385Y87449385I250000J0D01*
G01*
X97044385Y87449385D01*
G75*
G02*
X97294385Y87199385I0J-250000D01*
G01*
X97294385Y86249385D01*
G75*
G02*
X97044385Y85999385I-250000J0D01*
G01*
X96544385Y85999385D01*
G75*
G02*
X96294385Y86249385I0J250000D01*
G01*
G37*
G36*
G01*
X98194385Y86249385D02*
X98194385Y87199385D01*
G75*
G02*
X98444385Y87449385I250000J0D01*
G01*
X98944385Y87449385D01*
G75*
G02*
X99194385Y87199385I0J-250000D01*
G01*
X99194385Y86249385D01*
G75*
G02*
X98944385Y85999385I-250000J0D01*
G01*
X98444385Y85999385D01*
G75*
G02*
X98194385Y86249385I0J250000D01*
G01*
G37*
G36*
G01*
X29479385Y86584385D02*
X28529385Y86584385D01*
G75*
G02*
X28279385Y86834385I0J250000D01*
G01*
X28279385Y87334385D01*
G75*
G02*
X28529385Y87584385I250000J0D01*
G01*
X29479385Y87584385D01*
G75*
G02*
X29729385Y87334385I0J-250000D01*
G01*
X29729385Y86834385D01*
G75*
G02*
X29479385Y86584385I-250000J0D01*
G01*
G37*
G36*
G01*
X29479385Y88484385D02*
X28529385Y88484385D01*
G75*
G02*
X28279385Y88734385I0J250000D01*
G01*
X28279385Y89234385D01*
G75*
G02*
X28529385Y89484385I250000J0D01*
G01*
X29479385Y89484385D01*
G75*
G02*
X29729385Y89234385I0J-250000D01*
G01*
X29729385Y88734385D01*
G75*
G02*
X29479385Y88484385I-250000J0D01*
G01*
G37*
D12*
X149994385Y9494385D03*
D13*
X1994385Y102994385D03*
G36*
G01*
X79969385Y86084385D02*
X79969385Y86984385D01*
G75*
G02*
X80219385Y87234385I250000J0D01*
G01*
X80744385Y87234385D01*
G75*
G02*
X80994385Y86984385I0J-250000D01*
G01*
X80994385Y86084385D01*
G75*
G02*
X80744385Y85834385I-250000J0D01*
G01*
X80219385Y85834385D01*
G75*
G02*
X79969385Y86084385I0J250000D01*
G01*
G37*
G36*
G01*
X81794385Y86084385D02*
X81794385Y86984385D01*
G75*
G02*
X82044385Y87234385I250000J0D01*
G01*
X82569385Y87234385D01*
G75*
G02*
X82819385Y86984385I0J-250000D01*
G01*
X82819385Y86084385D01*
G75*
G02*
X82569385Y85834385I-250000J0D01*
G01*
X82044385Y85834385D01*
G75*
G02*
X81794385Y86084385I0J250000D01*
G01*
G37*
D14*
X106994385Y101494385D03*
X104494385Y101494385D03*
D15*
X101994385Y106494385D03*
D14*
X96994385Y101494385D03*
X99494385Y101494385D03*
G36*
G01*
X81909385Y89694385D02*
X80959385Y89694385D01*
G75*
G02*
X80709385Y89944385I0J250000D01*
G01*
X80709385Y90444385D01*
G75*
G02*
X80959385Y90694385I250000J0D01*
G01*
X81909385Y90694385D01*
G75*
G02*
X82159385Y90444385I0J-250000D01*
G01*
X82159385Y89944385D01*
G75*
G02*
X81909385Y89694385I-250000J0D01*
G01*
G37*
G36*
G01*
X81909385Y91594385D02*
X80959385Y91594385D01*
G75*
G02*
X80709385Y91844385I0J250000D01*
G01*
X80709385Y92344385D01*
G75*
G02*
X80959385Y92594385I250000J0D01*
G01*
X81909385Y92594385D01*
G75*
G02*
X82159385Y92344385I0J-250000D01*
G01*
X82159385Y91844385D01*
G75*
G02*
X81909385Y91594385I-250000J0D01*
G01*
G37*
G36*
G01*
X28529385Y84704385D02*
X29479385Y84704385D01*
G75*
G02*
X29729385Y84454385I0J-250000D01*
G01*
X29729385Y83954385D01*
G75*
G02*
X29479385Y83704385I-250000J0D01*
G01*
X28529385Y83704385D01*
G75*
G02*
X28279385Y83954385I0J250000D01*
G01*
X28279385Y84454385D01*
G75*
G02*
X28529385Y84704385I250000J0D01*
G01*
G37*
G36*
G01*
X28529385Y82804385D02*
X29479385Y82804385D01*
G75*
G02*
X29729385Y82554385I0J-250000D01*
G01*
X29729385Y82054385D01*
G75*
G02*
X29479385Y81804385I-250000J0D01*
G01*
X28529385Y81804385D01*
G75*
G02*
X28279385Y82054385I0J250000D01*
G01*
X28279385Y82554385D01*
G75*
G02*
X28529385Y82804385I250000J0D01*
G01*
G37*
G36*
G01*
X138309385Y82384385D02*
X137359385Y82384385D01*
G75*
G02*
X137109385Y82634385I0J250000D01*
G01*
X137109385Y83134385D01*
G75*
G02*
X137359385Y83384385I250000J0D01*
G01*
X138309385Y83384385D01*
G75*
G02*
X138559385Y83134385I0J-250000D01*
G01*
X138559385Y82634385D01*
G75*
G02*
X138309385Y82384385I-250000J0D01*
G01*
G37*
G36*
G01*
X138309385Y84284385D02*
X137359385Y84284385D01*
G75*
G02*
X137109385Y84534385I0J250000D01*
G01*
X137109385Y85034385D01*
G75*
G02*
X137359385Y85284385I250000J0D01*
G01*
X138309385Y85284385D01*
G75*
G02*
X138559385Y85034385I0J-250000D01*
G01*
X138559385Y84534385D01*
G75*
G02*
X138309385Y84284385I-250000J0D01*
G01*
G37*
D13*
X172000000Y103000000D03*
D11*
X135214385Y98064385D03*
G36*
G01*
X75506885Y74694385D02*
X75506885Y75594385D01*
G75*
G02*
X75756885Y75844385I250000J0D01*
G01*
X76281885Y75844385D01*
G75*
G02*
X76531885Y75594385I0J-250000D01*
G01*
X76531885Y74694385D01*
G75*
G02*
X76281885Y74444385I-250000J0D01*
G01*
X75756885Y74444385D01*
G75*
G02*
X75506885Y74694385I0J250000D01*
G01*
G37*
G36*
G01*
X77331885Y74694385D02*
X77331885Y75594385D01*
G75*
G02*
X77581885Y75844385I250000J0D01*
G01*
X78106885Y75844385D01*
G75*
G02*
X78356885Y75594385I0J-250000D01*
G01*
X78356885Y74694385D01*
G75*
G02*
X78106885Y74444385I-250000J0D01*
G01*
X77581885Y74444385D01*
G75*
G02*
X77331885Y74694385I0J250000D01*
G01*
G37*
D13*
X10044385Y80994385D03*
X10044385Y97224385D03*
X3694385Y80994385D03*
X3694385Y97224385D03*
X16394385Y80994385D03*
X16394385Y97224385D03*
X10044385Y19794385D03*
X10044385Y36024385D03*
X3694385Y19794385D03*
X3694385Y36024385D03*
X16394385Y19794385D03*
X16394385Y36024385D03*
G36*
G01*
X139119385Y76324385D02*
X138169385Y76324385D01*
G75*
G02*
X137919385Y76574385I0J250000D01*
G01*
X137919385Y77074385D01*
G75*
G02*
X138169385Y77324385I250000J0D01*
G01*
X139119385Y77324385D01*
G75*
G02*
X139369385Y77074385I0J-250000D01*
G01*
X139369385Y76574385D01*
G75*
G02*
X139119385Y76324385I-250000J0D01*
G01*
G37*
G36*
G01*
X139119385Y78224385D02*
X138169385Y78224385D01*
G75*
G02*
X137919385Y78474385I0J250000D01*
G01*
X137919385Y78974385D01*
G75*
G02*
X138169385Y79224385I250000J0D01*
G01*
X139119385Y79224385D01*
G75*
G02*
X139369385Y78974385I0J-250000D01*
G01*
X139369385Y78474385D01*
G75*
G02*
X139119385Y78224385I-250000J0D01*
G01*
G37*
D16*
X158531585Y100605785D03*
D17*
X158531585Y106405785D03*
D18*
X153731585Y103605785D03*
G36*
G01*
X109034385Y75019385D02*
X109034385Y74269385D01*
G75*
G02*
X108659385Y73894385I-375000J0D01*
G01*
X107409385Y73894385D01*
G75*
G02*
X107034385Y74269385I0J375000D01*
G01*
X107034385Y75019385D01*
G75*
G02*
X107409385Y75394385I375000J0D01*
G01*
X108659385Y75394385D01*
G75*
G02*
X109034385Y75019385I0J-375000D01*
G01*
G37*
G36*
G01*
X109034385Y77319385D02*
X109034385Y76569385D01*
G75*
G02*
X108659385Y76194385I-375000J0D01*
G01*
X107409385Y76194385D01*
G75*
G02*
X107034385Y76569385I0J375000D01*
G01*
X107034385Y77319385D01*
G75*
G02*
X107409385Y77694385I375000J0D01*
G01*
X108659385Y77694385D01*
G75*
G02*
X109034385Y77319385I0J-375000D01*
G01*
G37*
G36*
G01*
X102734385Y78344385D02*
X102734385Y75544385D01*
G75*
G02*
X102234385Y75044385I-500000J0D01*
G01*
X101234385Y75044385D01*
G75*
G02*
X100734385Y75544385I0J500000D01*
G01*
X100734385Y78344385D01*
G75*
G02*
X101234385Y78844385I500000J0D01*
G01*
X102234385Y78844385D01*
G75*
G02*
X102734385Y78344385I0J-500000D01*
G01*
G37*
G36*
G01*
X109034385Y79619385D02*
X109034385Y78869385D01*
G75*
G02*
X108659385Y78494385I-375000J0D01*
G01*
X107409385Y78494385D01*
G75*
G02*
X107034385Y78869385I0J375000D01*
G01*
X107034385Y79619385D01*
G75*
G02*
X107409385Y79994385I375000J0D01*
G01*
X108659385Y79994385D01*
G75*
G02*
X109034385Y79619385I0J-375000D01*
G01*
G37*
G36*
G01*
X123186985Y85307785D02*
X123186985Y84407785D01*
G75*
G02*
X122936985Y84157785I-250000J0D01*
G01*
X122411985Y84157785D01*
G75*
G02*
X122161985Y84407785I0J250000D01*
G01*
X122161985Y85307785D01*
G75*
G02*
X122411985Y85557785I250000J0D01*
G01*
X122936985Y85557785D01*
G75*
G02*
X123186985Y85307785I0J-250000D01*
G01*
G37*
G36*
G01*
X121361985Y85307785D02*
X121361985Y84407785D01*
G75*
G02*
X121111985Y84157785I-250000J0D01*
G01*
X120586985Y84157785D01*
G75*
G02*
X120336985Y84407785I0J250000D01*
G01*
X120336985Y85307785D01*
G75*
G02*
X120586985Y85557785I250000J0D01*
G01*
X121111985Y85557785D01*
G75*
G02*
X121361985Y85307785I0J-250000D01*
G01*
G37*
G36*
G01*
X158681585Y101495785D02*
X156581585Y101495785D01*
G75*
G02*
X156331585Y101745785I0J250000D01*
G01*
X156331585Y103845785D01*
G75*
G02*
X156581585Y104095785I250000J0D01*
G01*
X158681585Y104095785D01*
G75*
G02*
X158931585Y103845785I0J-250000D01*
G01*
X158931585Y101745785D01*
G75*
G02*
X158681585Y101495785I-250000J0D01*
G01*
G37*
D19*
X157631585Y107795785D03*
G36*
G01*
X105254385Y82049385D02*
X105254385Y81099385D01*
G75*
G02*
X105004385Y80849385I-250000J0D01*
G01*
X104504385Y80849385D01*
G75*
G02*
X104254385Y81099385I0J250000D01*
G01*
X104254385Y82049385D01*
G75*
G02*
X104504385Y82299385I250000J0D01*
G01*
X105004385Y82299385D01*
G75*
G02*
X105254385Y82049385I0J-250000D01*
G01*
G37*
G36*
G01*
X103354385Y82049385D02*
X103354385Y81099385D01*
G75*
G02*
X103104385Y80849385I-250000J0D01*
G01*
X102604385Y80849385D01*
G75*
G02*
X102354385Y81099385I0J250000D01*
G01*
X102354385Y82049385D01*
G75*
G02*
X102604385Y82299385I250000J0D01*
G01*
X103104385Y82299385D01*
G75*
G02*
X103354385Y82049385I0J-250000D01*
G01*
G37*
G36*
G01*
X32449385Y89284385D02*
X31499385Y89284385D01*
G75*
G02*
X31249385Y89534385I0J250000D01*
G01*
X31249385Y90034385D01*
G75*
G02*
X31499385Y90284385I250000J0D01*
G01*
X32449385Y90284385D01*
G75*
G02*
X32699385Y90034385I0J-250000D01*
G01*
X32699385Y89534385D01*
G75*
G02*
X32449385Y89284385I-250000J0D01*
G01*
G37*
G36*
G01*
X32449385Y91184385D02*
X31499385Y91184385D01*
G75*
G02*
X31249385Y91434385I0J250000D01*
G01*
X31249385Y91934385D01*
G75*
G02*
X31499385Y92184385I250000J0D01*
G01*
X32449385Y92184385D01*
G75*
G02*
X32699385Y91934385I0J-250000D01*
G01*
X32699385Y91434385D01*
G75*
G02*
X32449385Y91184385I-250000J0D01*
G01*
G37*
G36*
G01*
X22564385Y102996985D02*
X22564385Y100906985D01*
G75*
G02*
X22314385Y100656985I-250000J0D01*
G01*
X20744385Y100656985D01*
G75*
G02*
X20494385Y100906985I0J250000D01*
G01*
X20494385Y102996985D01*
G75*
G02*
X20744385Y103246985I250000J0D01*
G01*
X22314385Y103246985D01*
G75*
G02*
X22564385Y102996985I0J-250000D01*
G01*
G37*
G36*
G01*
X16324385Y102996985D02*
X16324385Y100906985D01*
G75*
G02*
X16074385Y100656985I-250000J0D01*
G01*
X14504385Y100656985D01*
G75*
G02*
X14254385Y100906985I0J250000D01*
G01*
X14254385Y102996985D01*
G75*
G02*
X14504385Y103246985I250000J0D01*
G01*
X16074385Y103246985D01*
G75*
G02*
X16324385Y102996985I0J-250000D01*
G01*
G37*
D20*
X106004385Y84434385D03*
X106004385Y87834385D03*
G36*
G01*
X79969385Y84184385D02*
X79969385Y85084385D01*
G75*
G02*
X80219385Y85334385I250000J0D01*
G01*
X80744385Y85334385D01*
G75*
G02*
X80994385Y85084385I0J-250000D01*
G01*
X80994385Y84184385D01*
G75*
G02*
X80744385Y83934385I-250000J0D01*
G01*
X80219385Y83934385D01*
G75*
G02*
X79969385Y84184385I0J250000D01*
G01*
G37*
G36*
G01*
X81794385Y84184385D02*
X81794385Y85084385D01*
G75*
G02*
X82044385Y85334385I250000J0D01*
G01*
X82569385Y85334385D01*
G75*
G02*
X82819385Y85084385I0J-250000D01*
G01*
X82819385Y84184385D01*
G75*
G02*
X82569385Y83934385I-250000J0D01*
G01*
X82044385Y83934385D01*
G75*
G02*
X81794385Y84184385I0J250000D01*
G01*
G37*
G36*
G01*
X38784385Y86529385D02*
X38784385Y87479385D01*
G75*
G02*
X39034385Y87729385I250000J0D01*
G01*
X39534385Y87729385D01*
G75*
G02*
X39784385Y87479385I0J-250000D01*
G01*
X39784385Y86529385D01*
G75*
G02*
X39534385Y86279385I-250000J0D01*
G01*
X39034385Y86279385D01*
G75*
G02*
X38784385Y86529385I0J250000D01*
G01*
G37*
G36*
G01*
X40684385Y86529385D02*
X40684385Y87479385D01*
G75*
G02*
X40934385Y87729385I250000J0D01*
G01*
X41434385Y87729385D01*
G75*
G02*
X41684385Y87479385I0J-250000D01*
G01*
X41684385Y86529385D01*
G75*
G02*
X41434385Y86279385I-250000J0D01*
G01*
X40934385Y86279385D01*
G75*
G02*
X40684385Y86529385I0J250000D01*
G01*
G37*
G36*
G01*
X78331885Y77619385D02*
X78331885Y76669385D01*
G75*
G02*
X78081885Y76419385I-250000J0D01*
G01*
X77581885Y76419385D01*
G75*
G02*
X77331885Y76669385I0J250000D01*
G01*
X77331885Y77619385D01*
G75*
G02*
X77581885Y77869385I250000J0D01*
G01*
X78081885Y77869385D01*
G75*
G02*
X78331885Y77619385I0J-250000D01*
G01*
G37*
G36*
G01*
X76431885Y77619385D02*
X76431885Y76669385D01*
G75*
G02*
X76181885Y76419385I-250000J0D01*
G01*
X75681885Y76419385D01*
G75*
G02*
X75431885Y76669385I0J250000D01*
G01*
X75431885Y77619385D01*
G75*
G02*
X75681885Y77869385I250000J0D01*
G01*
X76181885Y77869385D01*
G75*
G02*
X76431885Y77619385I0J-250000D01*
G01*
G37*
G36*
G01*
X54535385Y84301585D02*
X55435385Y84301585D01*
G75*
G02*
X55685385Y84051585I0J-250000D01*
G01*
X55685385Y83526585D01*
G75*
G02*
X55435385Y83276585I-250000J0D01*
G01*
X54535385Y83276585D01*
G75*
G02*
X54285385Y83526585I0J250000D01*
G01*
X54285385Y84051585D01*
G75*
G02*
X54535385Y84301585I250000J0D01*
G01*
G37*
G36*
G01*
X54535385Y82476585D02*
X55435385Y82476585D01*
G75*
G02*
X55685385Y82226585I0J-250000D01*
G01*
X55685385Y81701585D01*
G75*
G02*
X55435385Y81451585I-250000J0D01*
G01*
X54535385Y81451585D01*
G75*
G02*
X54285385Y81701585I0J250000D01*
G01*
X54285385Y82226585D01*
G75*
G02*
X54535385Y82476585I250000J0D01*
G01*
G37*
G36*
X31394383Y27594385D02*
G01*
X30894383Y27594385D01*
X30894383Y27598663D01*
X30829120Y27598663D01*
X30703041Y27632445D01*
X30590002Y27697708D01*
X30497706Y27790004D01*
X30432443Y27903043D01*
X30398661Y28029122D01*
X30398661Y28094385D01*
X30394383Y28094385D01*
X30394383Y28594385D01*
X30398661Y28594385D01*
X30398661Y28659648D01*
X30432443Y28785727D01*
X30497706Y28898766D01*
X30590002Y28991062D01*
X30703041Y29056325D01*
X30829120Y29090107D01*
X30894383Y29090107D01*
X30894383Y29094385D01*
X31394383Y29094385D01*
X31394383Y27594385D01*
G37*
G36*
X32194383Y29090107D02*
G01*
X32259646Y29090107D01*
X32385725Y29056325D01*
X32498764Y28991062D01*
X32591060Y28898766D01*
X32656323Y28785727D01*
X32690105Y28659648D01*
X32690105Y28594385D01*
X32694383Y28594385D01*
X32694383Y28094385D01*
X32690105Y28094385D01*
X32690105Y28029122D01*
X32656323Y27903043D01*
X32591060Y27790004D01*
X32498764Y27697708D01*
X32385725Y27632445D01*
X32259646Y27598663D01*
X32194383Y27598663D01*
X32194383Y27594385D01*
X31694383Y27594385D01*
X31694383Y29094385D01*
X32194383Y29094385D01*
X32194383Y29090107D01*
G37*
G36*
G01*
X23993985Y104616785D02*
X23043985Y104616785D01*
G75*
G02*
X22793985Y104866785I0J250000D01*
G01*
X22793985Y105366785D01*
G75*
G02*
X23043985Y105616785I250000J0D01*
G01*
X23993985Y105616785D01*
G75*
G02*
X24243985Y105366785I0J-250000D01*
G01*
X24243985Y104866785D01*
G75*
G02*
X23993985Y104616785I-250000J0D01*
G01*
G37*
G36*
G01*
X23993985Y106516785D02*
X23043985Y106516785D01*
G75*
G02*
X22793985Y106766785I0J250000D01*
G01*
X22793985Y107266785D01*
G75*
G02*
X23043985Y107516785I250000J0D01*
G01*
X23993985Y107516785D01*
G75*
G02*
X24243985Y107266785I0J-250000D01*
G01*
X24243985Y106766785D01*
G75*
G02*
X23993985Y106516785I-250000J0D01*
G01*
G37*
G36*
G01*
X48084385Y85724385D02*
X49984385Y85724385D01*
G75*
G02*
X50234385Y85474385I0J-250000D01*
G01*
X50234385Y83974385D01*
G75*
G02*
X49984385Y83724385I-250000J0D01*
G01*
X48084385Y83724385D01*
G75*
G02*
X47834385Y83974385I0J250000D01*
G01*
X47834385Y85474385D01*
G75*
G02*
X48084385Y85724385I250000J0D01*
G01*
G37*
G36*
G01*
X48084385Y82024385D02*
X49984385Y82024385D01*
G75*
G02*
X50234385Y81774385I0J-250000D01*
G01*
X50234385Y80274385D01*
G75*
G02*
X49984385Y80024385I-250000J0D01*
G01*
X48084385Y80024385D01*
G75*
G02*
X47834385Y80274385I0J250000D01*
G01*
X47834385Y81774385D01*
G75*
G02*
X48084385Y82024385I250000J0D01*
G01*
G37*
G36*
G01*
X140928385Y74625185D02*
X140928385Y72535185D01*
G75*
G02*
X140678385Y72285185I-250000J0D01*
G01*
X139108385Y72285185D01*
G75*
G02*
X138858385Y72535185I0J250000D01*
G01*
X138858385Y74625185D01*
G75*
G02*
X139108385Y74875185I250000J0D01*
G01*
X140678385Y74875185D01*
G75*
G02*
X140928385Y74625185I0J-250000D01*
G01*
G37*
G36*
G01*
X134688385Y74625185D02*
X134688385Y72535185D01*
G75*
G02*
X134438385Y72285185I-250000J0D01*
G01*
X132868385Y72285185D01*
G75*
G02*
X132618385Y72535185I0J250000D01*
G01*
X132618385Y74625185D01*
G75*
G02*
X132868385Y74875185I250000J0D01*
G01*
X134438385Y74875185D01*
G75*
G02*
X134688385Y74625185I0J-250000D01*
G01*
G37*
G36*
G01*
X75506885Y78694385D02*
X75506885Y79594385D01*
G75*
G02*
X75756885Y79844385I250000J0D01*
G01*
X76281885Y79844385D01*
G75*
G02*
X76531885Y79594385I0J-250000D01*
G01*
X76531885Y78694385D01*
G75*
G02*
X76281885Y78444385I-250000J0D01*
G01*
X75756885Y78444385D01*
G75*
G02*
X75506885Y78694385I0J250000D01*
G01*
G37*
G36*
G01*
X77331885Y78694385D02*
X77331885Y79594385D01*
G75*
G02*
X77581885Y79844385I250000J0D01*
G01*
X78106885Y79844385D01*
G75*
G02*
X78356885Y79594385I0J-250000D01*
G01*
X78356885Y78694385D01*
G75*
G02*
X78106885Y78444385I-250000J0D01*
G01*
X77581885Y78444385D01*
G75*
G02*
X77331885Y78694385I0J250000D01*
G01*
G37*
D13*
X10044385Y39994385D03*
X10044385Y56224385D03*
X3694385Y39994385D03*
X3694385Y56224385D03*
X16394385Y39994385D03*
X16394385Y56224385D03*
X163944385Y35999385D03*
X163944385Y19769385D03*
X170294385Y35999385D03*
X170294385Y19769385D03*
X157594385Y35999385D03*
X157594385Y19769385D03*
D21*
X111309385Y86544385D03*
D22*
X113849385Y86544385D03*
X116389385Y86544385D03*
G36*
G01*
X31924385Y79754985D02*
X32824385Y79754985D01*
G75*
G02*
X33074385Y79504985I0J-250000D01*
G01*
X33074385Y78979985D01*
G75*
G02*
X32824385Y78729985I-250000J0D01*
G01*
X31924385Y78729985D01*
G75*
G02*
X31674385Y78979985I0J250000D01*
G01*
X31674385Y79504985D01*
G75*
G02*
X31924385Y79754985I250000J0D01*
G01*
G37*
G36*
G01*
X31924385Y77929985D02*
X32824385Y77929985D01*
G75*
G02*
X33074385Y77679985I0J-250000D01*
G01*
X33074385Y77154985D01*
G75*
G02*
X32824385Y76904985I-250000J0D01*
G01*
X31924385Y76904985D01*
G75*
G02*
X31674385Y77154985I0J250000D01*
G01*
X31674385Y77679985D01*
G75*
G02*
X31924385Y77929985I250000J0D01*
G01*
G37*
G36*
G01*
X140184385Y83409385D02*
X140184385Y84359385D01*
G75*
G02*
X140434385Y84609385I250000J0D01*
G01*
X140934385Y84609385D01*
G75*
G02*
X141184385Y84359385I0J-250000D01*
G01*
X141184385Y83409385D01*
G75*
G02*
X140934385Y83159385I-250000J0D01*
G01*
X140434385Y83159385D01*
G75*
G02*
X140184385Y83409385I0J250000D01*
G01*
G37*
G36*
G01*
X142084385Y83409385D02*
X142084385Y84359385D01*
G75*
G02*
X142334385Y84609385I250000J0D01*
G01*
X142834385Y84609385D01*
G75*
G02*
X143084385Y84359385I0J-250000D01*
G01*
X143084385Y83409385D01*
G75*
G02*
X142834385Y83159385I-250000J0D01*
G01*
X142334385Y83159385D01*
G75*
G02*
X142084385Y83409385I0J250000D01*
G01*
G37*
G36*
G01*
X33824385Y79744985D02*
X34724385Y79744985D01*
G75*
G02*
X34974385Y79494985I0J-250000D01*
G01*
X34974385Y78969985D01*
G75*
G02*
X34724385Y78719985I-250000J0D01*
G01*
X33824385Y78719985D01*
G75*
G02*
X33574385Y78969985I0J250000D01*
G01*
X33574385Y79494985D01*
G75*
G02*
X33824385Y79744985I250000J0D01*
G01*
G37*
G36*
G01*
X33824385Y77919985D02*
X34724385Y77919985D01*
G75*
G02*
X34974385Y77669985I0J-250000D01*
G01*
X34974385Y77144985D01*
G75*
G02*
X34724385Y76894985I-250000J0D01*
G01*
X33824385Y76894985D01*
G75*
G02*
X33574385Y77144985I0J250000D01*
G01*
X33574385Y77669985D01*
G75*
G02*
X33824385Y77919985I250000J0D01*
G01*
G37*
D12*
X100974385Y9474385D03*
G36*
G01*
X138274385Y85799385D02*
X137374385Y85799385D01*
G75*
G02*
X137124385Y86049385I0J250000D01*
G01*
X137124385Y86574385D01*
G75*
G02*
X137374385Y86824385I250000J0D01*
G01*
X138274385Y86824385D01*
G75*
G02*
X138524385Y86574385I0J-250000D01*
G01*
X138524385Y86049385D01*
G75*
G02*
X138274385Y85799385I-250000J0D01*
G01*
G37*
G36*
G01*
X138274385Y87624385D02*
X137374385Y87624385D01*
G75*
G02*
X137124385Y87874385I0J250000D01*
G01*
X137124385Y88399385D01*
G75*
G02*
X137374385Y88649385I250000J0D01*
G01*
X138274385Y88649385D01*
G75*
G02*
X138524385Y88399385I0J-250000D01*
G01*
X138524385Y87874385D01*
G75*
G02*
X138274385Y87624385I-250000J0D01*
G01*
G37*
D23*
X62094385Y109919385D03*
X62094385Y108919385D03*
X62094385Y107919385D03*
X62094385Y106919385D03*
X62094385Y105919385D03*
X62094385Y104919385D03*
X62094385Y100919385D03*
X62094385Y99919385D03*
X62094385Y98919385D03*
X62094385Y97919385D03*
X62094385Y96919385D03*
X62094385Y95919385D03*
X62094385Y94919385D03*
X63094385Y94919385D03*
X64094385Y94919385D03*
X65094385Y94919385D03*
X66094385Y94919385D03*
X67094385Y94919385D03*
X68094385Y94919385D03*
X69094385Y94919385D03*
X70094385Y94919385D03*
X71094385Y94919385D03*
X72094385Y94919385D03*
X73094385Y94919385D03*
X74094385Y94919385D03*
X75094385Y94919385D03*
X76094385Y94919385D03*
X77094385Y94919385D03*
X78094385Y94919385D03*
X79094385Y94919385D03*
X80094385Y94919385D03*
X81094385Y94919385D03*
X82094385Y94919385D03*
X83094385Y94919385D03*
X84094385Y94919385D03*
X85094385Y94919385D03*
X86094385Y94919385D03*
X87094385Y94919385D03*
X88094385Y94919385D03*
X89094385Y94919385D03*
X90094385Y94919385D03*
X91094385Y94919385D03*
X92094385Y94919385D03*
X93094385Y94919385D03*
X94094385Y94919385D03*
X95094385Y94919385D03*
X96094385Y94919385D03*
X97094385Y94919385D03*
X98094385Y94919385D03*
X99094385Y94919385D03*
X100094385Y94919385D03*
X101094385Y94919385D03*
X102094385Y94919385D03*
X103094385Y94919385D03*
X104094385Y94919385D03*
X105094385Y94919385D03*
X106094385Y94919385D03*
X107094385Y94919385D03*
X108094385Y94919385D03*
X109094385Y94919385D03*
X110094385Y94919385D03*
X111094385Y94919385D03*
X112094385Y109919385D03*
X112094385Y108919385D03*
X112094385Y107919385D03*
X112094385Y106919385D03*
X112094385Y105919385D03*
X112094385Y104919385D03*
X112094385Y103919385D03*
X112094385Y102919385D03*
X112094385Y101919385D03*
X112094385Y100919385D03*
X112094385Y99919385D03*
X112094385Y98919385D03*
X112094385Y97919385D03*
X112094385Y96919385D03*
X112094385Y95919385D03*
X112094385Y94919385D03*
G36*
G01*
X100119385Y73770635D02*
X100119385Y72858135D01*
G75*
G02*
X99875635Y72614385I-243750J0D01*
G01*
X99388135Y72614385D01*
G75*
G02*
X99144385Y72858135I0J243750D01*
G01*
X99144385Y73770635D01*
G75*
G02*
X99388135Y74014385I243750J0D01*
G01*
X99875635Y74014385D01*
G75*
G02*
X100119385Y73770635I0J-243750D01*
G01*
G37*
G36*
G01*
X98244385Y73770635D02*
X98244385Y72858135D01*
G75*
G02*
X98000635Y72614385I-243750J0D01*
G01*
X97513135Y72614385D01*
G75*
G02*
X97269385Y72858135I0J243750D01*
G01*
X97269385Y73770635D01*
G75*
G02*
X97513135Y74014385I243750J0D01*
G01*
X98000635Y74014385D01*
G75*
G02*
X98244385Y73770635I0J-243750D01*
G01*
G37*
D24*
X79994385Y66494385D03*
X93994385Y66494385D03*
X79994385Y61494385D03*
X93994385Y61494385D03*
D13*
X172000000Y8000000D03*
G36*
G01*
X136889385Y99874385D02*
X135939385Y99874385D01*
G75*
G02*
X135689385Y100124385I0J250000D01*
G01*
X135689385Y100624385D01*
G75*
G02*
X135939385Y100874385I250000J0D01*
G01*
X136889385Y100874385D01*
G75*
G02*
X137139385Y100624385I0J-250000D01*
G01*
X137139385Y100124385D01*
G75*
G02*
X136889385Y99874385I-250000J0D01*
G01*
G37*
G36*
G01*
X136889385Y101774385D02*
X135939385Y101774385D01*
G75*
G02*
X135689385Y102024385I0J250000D01*
G01*
X135689385Y102524385D01*
G75*
G02*
X135939385Y102774385I250000J0D01*
G01*
X136889385Y102774385D01*
G75*
G02*
X137139385Y102524385I0J-250000D01*
G01*
X137139385Y102024385D01*
G75*
G02*
X136889385Y101774385I-250000J0D01*
G01*
G37*
G36*
G01*
X151599385Y75814385D02*
X150649385Y75814385D01*
G75*
G02*
X150399385Y76064385I0J250000D01*
G01*
X150399385Y76564385D01*
G75*
G02*
X150649385Y76814385I250000J0D01*
G01*
X151599385Y76814385D01*
G75*
G02*
X151849385Y76564385I0J-250000D01*
G01*
X151849385Y76064385D01*
G75*
G02*
X151599385Y75814385I-250000J0D01*
G01*
G37*
G36*
G01*
X151599385Y77714385D02*
X150649385Y77714385D01*
G75*
G02*
X150399385Y77964385I0J250000D01*
G01*
X150399385Y78464385D01*
G75*
G02*
X150649385Y78714385I250000J0D01*
G01*
X151599385Y78714385D01*
G75*
G02*
X151849385Y78464385I0J-250000D01*
G01*
X151849385Y77964385D01*
G75*
G02*
X151599385Y77714385I-250000J0D01*
G01*
G37*
G36*
G01*
X119564385Y85779385D02*
X118664385Y85779385D01*
G75*
G02*
X118414385Y86029385I0J250000D01*
G01*
X118414385Y86554385D01*
G75*
G02*
X118664385Y86804385I250000J0D01*
G01*
X119564385Y86804385D01*
G75*
G02*
X119814385Y86554385I0J-250000D01*
G01*
X119814385Y86029385D01*
G75*
G02*
X119564385Y85779385I-250000J0D01*
G01*
G37*
G36*
G01*
X119564385Y87604385D02*
X118664385Y87604385D01*
G75*
G02*
X118414385Y87854385I0J250000D01*
G01*
X118414385Y88379385D01*
G75*
G02*
X118664385Y88629385I250000J0D01*
G01*
X119564385Y88629385D01*
G75*
G02*
X119814385Y88379385I0J-250000D01*
G01*
X119814385Y87854385D01*
G75*
G02*
X119564385Y87604385I-250000J0D01*
G01*
G37*
D20*
X73504385Y75644385D03*
X73504385Y79044385D03*
G36*
G01*
X145654385Y85439385D02*
X144754385Y85439385D01*
G75*
G02*
X144504385Y85689385I0J250000D01*
G01*
X144504385Y86214385D01*
G75*
G02*
X144754385Y86464385I250000J0D01*
G01*
X145654385Y86464385D01*
G75*
G02*
X145904385Y86214385I0J-250000D01*
G01*
X145904385Y85689385D01*
G75*
G02*
X145654385Y85439385I-250000J0D01*
G01*
G37*
G36*
G01*
X145654385Y87264385D02*
X144754385Y87264385D01*
G75*
G02*
X144504385Y87514385I0J250000D01*
G01*
X144504385Y88039385D01*
G75*
G02*
X144754385Y88289385I250000J0D01*
G01*
X145654385Y88289385D01*
G75*
G02*
X145904385Y88039385I0J-250000D01*
G01*
X145904385Y87514385D01*
G75*
G02*
X145654385Y87264385I-250000J0D01*
G01*
G37*
G36*
X129344385Y4644385D02*
G01*
X129844385Y4644385D01*
X129844385Y4640107D01*
X129909648Y4640107D01*
X130035727Y4606325D01*
X130148766Y4541062D01*
X130241062Y4448766D01*
X130306325Y4335727D01*
X130340107Y4209648D01*
X130340107Y4144385D01*
X130344385Y4144385D01*
X130344385Y3644385D01*
X130340107Y3644385D01*
X130340107Y3579122D01*
X130306325Y3453043D01*
X130241062Y3340004D01*
X130148766Y3247708D01*
X130035727Y3182445D01*
X129909648Y3148663D01*
X129844385Y3148663D01*
X129844385Y3144385D01*
X129344385Y3144385D01*
X129344385Y4644385D01*
G37*
G36*
X128544385Y3148663D02*
G01*
X128479122Y3148663D01*
X128353043Y3182445D01*
X128240004Y3247708D01*
X128147708Y3340004D01*
X128082445Y3453043D01*
X128048663Y3579122D01*
X128048663Y3644385D01*
X128044385Y3644385D01*
X128044385Y4144385D01*
X128048663Y4144385D01*
X128048663Y4209648D01*
X128082445Y4335727D01*
X128147708Y4448766D01*
X128240004Y4541062D01*
X128353043Y4606325D01*
X128479122Y4640107D01*
X128544385Y4640107D01*
X128544385Y4644385D01*
X129044385Y4644385D01*
X129044385Y3144385D01*
X128544385Y3144385D01*
X128544385Y3148663D01*
G37*
D12*
X6994385Y107994385D03*
G36*
G01*
X143089385Y76324385D02*
X142139385Y76324385D01*
G75*
G02*
X141889385Y76574385I0J250000D01*
G01*
X141889385Y77074385D01*
G75*
G02*
X142139385Y77324385I250000J0D01*
G01*
X143089385Y77324385D01*
G75*
G02*
X143339385Y77074385I0J-250000D01*
G01*
X143339385Y76574385D01*
G75*
G02*
X143089385Y76324385I-250000J0D01*
G01*
G37*
G36*
G01*
X143089385Y78224385D02*
X142139385Y78224385D01*
G75*
G02*
X141889385Y78474385I0J250000D01*
G01*
X141889385Y78974385D01*
G75*
G02*
X142139385Y79224385I250000J0D01*
G01*
X143089385Y79224385D01*
G75*
G02*
X143339385Y78974385I0J-250000D01*
G01*
X143339385Y78474385D01*
G75*
G02*
X143089385Y78224385I-250000J0D01*
G01*
G37*
D13*
X163959385Y97194385D03*
X163959385Y80964385D03*
X170309385Y97194385D03*
X170309385Y80964385D03*
X157609385Y97194385D03*
X157609385Y80964385D03*
G36*
G01*
X30024385Y79754985D02*
X30924385Y79754985D01*
G75*
G02*
X31174385Y79504985I0J-250000D01*
G01*
X31174385Y78979985D01*
G75*
G02*
X30924385Y78729985I-250000J0D01*
G01*
X30024385Y78729985D01*
G75*
G02*
X29774385Y78979985I0J250000D01*
G01*
X29774385Y79504985D01*
G75*
G02*
X30024385Y79754985I250000J0D01*
G01*
G37*
G36*
G01*
X30024385Y77929985D02*
X30924385Y77929985D01*
G75*
G02*
X31174385Y77679985I0J-250000D01*
G01*
X31174385Y77154985D01*
G75*
G02*
X30924385Y76904985I-250000J0D01*
G01*
X30024385Y76904985D01*
G75*
G02*
X29774385Y77154985I0J250000D01*
G01*
X29774385Y77679985D01*
G75*
G02*
X30024385Y77929985I250000J0D01*
G01*
G37*
G36*
G01*
X145679385Y88824385D02*
X144729385Y88824385D01*
G75*
G02*
X144479385Y89074385I0J250000D01*
G01*
X144479385Y89574385D01*
G75*
G02*
X144729385Y89824385I250000J0D01*
G01*
X145679385Y89824385D01*
G75*
G02*
X145929385Y89574385I0J-250000D01*
G01*
X145929385Y89074385D01*
G75*
G02*
X145679385Y88824385I-250000J0D01*
G01*
G37*
G36*
G01*
X145679385Y90724385D02*
X144729385Y90724385D01*
G75*
G02*
X144479385Y90974385I0J250000D01*
G01*
X144479385Y91474385D01*
G75*
G02*
X144729385Y91724385I250000J0D01*
G01*
X145679385Y91724385D01*
G75*
G02*
X145929385Y91474385I0J-250000D01*
G01*
X145929385Y90974385D01*
G75*
G02*
X145679385Y90724385I-250000J0D01*
G01*
G37*
G36*
X129644385Y8744385D02*
G01*
X130144385Y8744385D01*
X130144385Y8740107D01*
X130209648Y8740107D01*
X130335727Y8706325D01*
X130448766Y8641062D01*
X130541062Y8548766D01*
X130606325Y8435727D01*
X130640107Y8309648D01*
X130640107Y8244385D01*
X130644385Y8244385D01*
X130644385Y7744385D01*
X130640107Y7744385D01*
X130640107Y7679122D01*
X130606325Y7553043D01*
X130541062Y7440004D01*
X130448766Y7347708D01*
X130335727Y7282445D01*
X130209648Y7248663D01*
X130144385Y7248663D01*
X130144385Y7244385D01*
X129644385Y7244385D01*
X129644385Y8744385D01*
G37*
G36*
X128844385Y7248663D02*
G01*
X128779122Y7248663D01*
X128653043Y7282445D01*
X128540004Y7347708D01*
X128447708Y7440004D01*
X128382445Y7553043D01*
X128348663Y7679122D01*
X128348663Y7744385D01*
X128344385Y7744385D01*
X128344385Y8244385D01*
X128348663Y8244385D01*
X128348663Y8309648D01*
X128382445Y8435727D01*
X128447708Y8548766D01*
X128540004Y8641062D01*
X128653043Y8706325D01*
X128779122Y8740107D01*
X128844385Y8740107D01*
X128844385Y8744385D01*
X129344385Y8744385D01*
X129344385Y7244385D01*
X128844385Y7244385D01*
X128844385Y7248663D01*
G37*
G36*
G01*
X27052585Y72287385D02*
X27952585Y72287385D01*
G75*
G02*
X28202585Y72037385I0J-250000D01*
G01*
X28202585Y71512385D01*
G75*
G02*
X27952585Y71262385I-250000J0D01*
G01*
X27052585Y71262385D01*
G75*
G02*
X26802585Y71512385I0J250000D01*
G01*
X26802585Y72037385D01*
G75*
G02*
X27052585Y72287385I250000J0D01*
G01*
G37*
G36*
G01*
X27052585Y70462385D02*
X27952585Y70462385D01*
G75*
G02*
X28202585Y70212385I0J-250000D01*
G01*
X28202585Y69687385D01*
G75*
G02*
X27952585Y69437385I-250000J0D01*
G01*
X27052585Y69437385D01*
G75*
G02*
X26802585Y69687385I0J250000D01*
G01*
X26802585Y70212385D01*
G75*
G02*
X27052585Y70462385I250000J0D01*
G01*
G37*
D12*
X149994385Y67494385D03*
G36*
X93940697Y97708464D02*
G01*
X93208464Y98440697D01*
X93193585Y98476618D01*
X93193585Y99512152D01*
X93208464Y99548073D01*
X93940697Y100280306D01*
X93976618Y100295185D01*
X95012152Y100295185D01*
X95048073Y100280306D01*
X95780306Y99548073D01*
X95795185Y99512152D01*
X95795185Y98476618D01*
X95780306Y98440697D01*
X95048073Y97708464D01*
X95012152Y97693585D01*
X93976618Y97693585D01*
X93940697Y97708464D01*
G37*
G36*
X103280306Y98440697D02*
G01*
X102548073Y97708464D01*
X102512152Y97693585D01*
X101476618Y97693585D01*
X101440697Y97708464D01*
X100708464Y98440697D01*
X100693585Y98476618D01*
X100693585Y99512152D01*
X100708464Y99548073D01*
X101440697Y100280306D01*
X101476618Y100295185D01*
X102512152Y100295185D01*
X102548073Y100280306D01*
X103280306Y99548073D01*
X103295185Y99512152D01*
X103295185Y98476618D01*
X103280306Y98440697D01*
G37*
G36*
X108940697Y97708464D02*
G01*
X108208464Y98440697D01*
X108193585Y98476618D01*
X108193585Y99512152D01*
X108208464Y99548073D01*
X108940697Y100280306D01*
X108976618Y100295185D01*
X110012152Y100295185D01*
X110048073Y100280306D01*
X110780306Y99548073D01*
X110795185Y99512152D01*
X110795185Y98476618D01*
X110780306Y98440697D01*
X110048073Y97708464D01*
X110012152Y97693585D01*
X108976618Y97693585D01*
X108940697Y97708464D01*
G37*
G36*
X96440697Y95208464D02*
G01*
X95708464Y95940697D01*
X95693585Y95976618D01*
X95693585Y97012152D01*
X95708464Y97048073D01*
X96440697Y97780306D01*
X96476618Y97795185D01*
X97512152Y97795185D01*
X97548073Y97780306D01*
X98280306Y97048073D01*
X98295185Y97012152D01*
X98295185Y95976618D01*
X98280306Y95940697D01*
X97548073Y95208464D01*
X97512152Y95193585D01*
X96476618Y95193585D01*
X96440697Y95208464D01*
G37*
G36*
X106440697Y95208464D02*
G01*
X105708464Y95940697D01*
X105693585Y95976618D01*
X105693585Y97012152D01*
X105708464Y97048073D01*
X106440697Y97780306D01*
X106476618Y97795185D01*
X107512152Y97795185D01*
X107548073Y97780306D01*
X108280306Y97048073D01*
X108295185Y97012152D01*
X108295185Y95976618D01*
X108280306Y95940697D01*
X107548073Y95208464D01*
X107512152Y95193585D01*
X106476618Y95193585D01*
X106440697Y95208464D01*
G37*
G36*
X103558464Y107958464D02*
G01*
X103543585Y107994385D01*
X103543585Y109094385D01*
X103558464Y109130306D01*
X104458464Y110030306D01*
X104494385Y110045185D01*
X105394385Y110045185D01*
X105430306Y110030306D01*
X105445185Y109994385D01*
X105445185Y107994385D01*
X105430306Y107958464D01*
X105394385Y107943585D01*
X103594385Y107943585D01*
X103558464Y107958464D01*
G37*
G36*
G01*
X107945185Y109994385D02*
X107945185Y107994385D01*
G75*
G02*
X107894385Y107943585I-50800J0D01*
G01*
X106094385Y107943585D01*
G75*
G02*
X106043585Y107994385I0J50800D01*
G01*
X106043585Y109994385D01*
G75*
G02*
X106094385Y110045185I50800J0D01*
G01*
X107894385Y110045185D01*
G75*
G02*
X107945185Y109994385I0J-50800D01*
G01*
G37*
G36*
G01*
X97945185Y109994385D02*
X97945185Y107994385D01*
G75*
G02*
X97894385Y107943585I-50800J0D01*
G01*
X96094385Y107943585D01*
G75*
G02*
X96043585Y107994385I0J50800D01*
G01*
X96043585Y109994385D01*
G75*
G02*
X96094385Y110045185I50800J0D01*
G01*
X97894385Y110045185D01*
G75*
G02*
X97945185Y109994385I0J-50800D01*
G01*
G37*
G36*
X98558464Y107958464D02*
G01*
X98543585Y107994385D01*
X98543585Y109994385D01*
X98558464Y110030306D01*
X98594385Y110045185D01*
X99494385Y110045185D01*
X99530306Y110030306D01*
X100430306Y109130306D01*
X100445185Y109094385D01*
X100445185Y107994385D01*
X100430306Y107958464D01*
X100394385Y107943585D01*
X98594385Y107943585D01*
X98558464Y107958464D01*
G37*
X100994385Y67494385D03*
G36*
G01*
X137359385Y92074385D02*
X138309385Y92074385D01*
G75*
G02*
X138559385Y91824385I0J-250000D01*
G01*
X138559385Y91324385D01*
G75*
G02*
X138309385Y91074385I-250000J0D01*
G01*
X137359385Y91074385D01*
G75*
G02*
X137109385Y91324385I0J250000D01*
G01*
X137109385Y91824385D01*
G75*
G02*
X137359385Y92074385I250000J0D01*
G01*
G37*
G36*
G01*
X137359385Y90174385D02*
X138309385Y90174385D01*
G75*
G02*
X138559385Y89924385I0J-250000D01*
G01*
X138559385Y89424385D01*
G75*
G02*
X138309385Y89174385I-250000J0D01*
G01*
X137359385Y89174385D01*
G75*
G02*
X137109385Y89424385I0J250000D01*
G01*
X137109385Y89924385D01*
G75*
G02*
X137359385Y90174385I250000J0D01*
G01*
G37*
D11*
X42244385Y99494385D03*
D25*
X42244385Y94494385D03*
X42244385Y96994385D03*
D26*
X49744385Y102594385D03*
X49744385Y91394385D03*
D25*
X56744385Y94494385D03*
X56744385Y99494385D03*
G36*
G01*
X141244385Y95779385D02*
X141244385Y94829385D01*
G75*
G02*
X140994385Y94579385I-250000J0D01*
G01*
X140494385Y94579385D01*
G75*
G02*
X140244385Y94829385I0J250000D01*
G01*
X140244385Y95779385D01*
G75*
G02*
X140494385Y96029385I250000J0D01*
G01*
X140994385Y96029385D01*
G75*
G02*
X141244385Y95779385I0J-250000D01*
G01*
G37*
G36*
G01*
X139344385Y95779385D02*
X139344385Y94829385D01*
G75*
G02*
X139094385Y94579385I-250000J0D01*
G01*
X138594385Y94579385D01*
G75*
G02*
X138344385Y94829385I0J250000D01*
G01*
X138344385Y95779385D01*
G75*
G02*
X138594385Y96029385I250000J0D01*
G01*
X139094385Y96029385D01*
G75*
G02*
X139344385Y95779385I0J-250000D01*
G01*
G37*
D27*
X141514385Y88594385D03*
G36*
G01*
X143269385Y92044385D02*
X143569385Y92044385D01*
G75*
G02*
X143719385Y91894385I0J-150000D01*
G01*
X143719385Y90419385D01*
G75*
G02*
X143569385Y90269385I-150000J0D01*
G01*
X143269385Y90269385D01*
G75*
G02*
X143119385Y90419385I0J150000D01*
G01*
X143119385Y91894385D01*
G75*
G02*
X143269385Y92044385I150000J0D01*
G01*
G37*
G36*
G01*
X141999385Y92044385D02*
X142299385Y92044385D01*
G75*
G02*
X142449385Y91894385I0J-150000D01*
G01*
X142449385Y90419385D01*
G75*
G02*
X142299385Y90269385I-150000J0D01*
G01*
X141999385Y90269385D01*
G75*
G02*
X141849385Y90419385I0J150000D01*
G01*
X141849385Y91894385D01*
G75*
G02*
X141999385Y92044385I150000J0D01*
G01*
G37*
G36*
G01*
X140729385Y92044385D02*
X141029385Y92044385D01*
G75*
G02*
X141179385Y91894385I0J-150000D01*
G01*
X141179385Y90419385D01*
G75*
G02*
X141029385Y90269385I-150000J0D01*
G01*
X140729385Y90269385D01*
G75*
G02*
X140579385Y90419385I0J150000D01*
G01*
X140579385Y91894385D01*
G75*
G02*
X140729385Y92044385I150000J0D01*
G01*
G37*
G36*
G01*
X139459385Y92044385D02*
X139759385Y92044385D01*
G75*
G02*
X139909385Y91894385I0J-150000D01*
G01*
X139909385Y90419385D01*
G75*
G02*
X139759385Y90269385I-150000J0D01*
G01*
X139459385Y90269385D01*
G75*
G02*
X139309385Y90419385I0J150000D01*
G01*
X139309385Y91894385D01*
G75*
G02*
X139459385Y92044385I150000J0D01*
G01*
G37*
G36*
G01*
X139459385Y86919385D02*
X139759385Y86919385D01*
G75*
G02*
X139909385Y86769385I0J-150000D01*
G01*
X139909385Y85294385D01*
G75*
G02*
X139759385Y85144385I-150000J0D01*
G01*
X139459385Y85144385D01*
G75*
G02*
X139309385Y85294385I0J150000D01*
G01*
X139309385Y86769385D01*
G75*
G02*
X139459385Y86919385I150000J0D01*
G01*
G37*
G36*
G01*
X140729385Y86919385D02*
X141029385Y86919385D01*
G75*
G02*
X141179385Y86769385I0J-150000D01*
G01*
X141179385Y85294385D01*
G75*
G02*
X141029385Y85144385I-150000J0D01*
G01*
X140729385Y85144385D01*
G75*
G02*
X140579385Y85294385I0J150000D01*
G01*
X140579385Y86769385D01*
G75*
G02*
X140729385Y86919385I150000J0D01*
G01*
G37*
G36*
G01*
X141999385Y86919385D02*
X142299385Y86919385D01*
G75*
G02*
X142449385Y86769385I0J-150000D01*
G01*
X142449385Y85294385D01*
G75*
G02*
X142299385Y85144385I-150000J0D01*
G01*
X141999385Y85144385D01*
G75*
G02*
X141849385Y85294385I0J150000D01*
G01*
X141849385Y86769385D01*
G75*
G02*
X141999385Y86919385I150000J0D01*
G01*
G37*
G36*
G01*
X143269385Y86919385D02*
X143569385Y86919385D01*
G75*
G02*
X143719385Y86769385I0J-150000D01*
G01*
X143719385Y85294385D01*
G75*
G02*
X143569385Y85144385I-150000J0D01*
G01*
X143269385Y85144385D01*
G75*
G02*
X143119385Y85294385I0J150000D01*
G01*
X143119385Y86769385D01*
G75*
G02*
X143269385Y86919385I150000J0D01*
G01*
G37*
G36*
G01*
X78355585Y81573585D02*
X78355585Y80623585D01*
G75*
G02*
X78105585Y80373585I-250000J0D01*
G01*
X77605585Y80373585D01*
G75*
G02*
X77355585Y80623585I0J250000D01*
G01*
X77355585Y81573585D01*
G75*
G02*
X77605585Y81823585I250000J0D01*
G01*
X78105585Y81823585D01*
G75*
G02*
X78355585Y81573585I0J-250000D01*
G01*
G37*
G36*
G01*
X76455585Y81573585D02*
X76455585Y80623585D01*
G75*
G02*
X76205585Y80373585I-250000J0D01*
G01*
X75705585Y80373585D01*
G75*
G02*
X75455585Y80623585I0J250000D01*
G01*
X75455585Y81573585D01*
G75*
G02*
X75705585Y81823585I250000J0D01*
G01*
X76205585Y81823585D01*
G75*
G02*
X76455585Y81573585I0J-250000D01*
G01*
G37*
G36*
G01*
X22033985Y104616785D02*
X21083985Y104616785D01*
G75*
G02*
X20833985Y104866785I0J250000D01*
G01*
X20833985Y105366785D01*
G75*
G02*
X21083985Y105616785I250000J0D01*
G01*
X22033985Y105616785D01*
G75*
G02*
X22283985Y105366785I0J-250000D01*
G01*
X22283985Y104866785D01*
G75*
G02*
X22033985Y104616785I-250000J0D01*
G01*
G37*
G36*
G01*
X22033985Y106516785D02*
X21083985Y106516785D01*
G75*
G02*
X20833985Y106766785I0J250000D01*
G01*
X20833985Y107266785D01*
G75*
G02*
X21083985Y107516785I250000J0D01*
G01*
X22033985Y107516785D01*
G75*
G02*
X22283985Y107266785I0J-250000D01*
G01*
X22283985Y106766785D01*
G75*
G02*
X22033985Y106516785I-250000J0D01*
G01*
G37*
G36*
G01*
X26285985Y72226785D02*
X26285985Y71326785D01*
G75*
G02*
X26035985Y71076785I-250000J0D01*
G01*
X25510985Y71076785D01*
G75*
G02*
X25260985Y71326785I0J250000D01*
G01*
X25260985Y72226785D01*
G75*
G02*
X25510985Y72476785I250000J0D01*
G01*
X26035985Y72476785D01*
G75*
G02*
X26285985Y72226785I0J-250000D01*
G01*
G37*
G36*
G01*
X24460985Y72226785D02*
X24460985Y71326785D01*
G75*
G02*
X24210985Y71076785I-250000J0D01*
G01*
X23685985Y71076785D01*
G75*
G02*
X23435985Y71326785I0J250000D01*
G01*
X23435985Y72226785D01*
G75*
G02*
X23685985Y72476785I250000J0D01*
G01*
X24210985Y72476785D01*
G75*
G02*
X24460985Y72226785I0J-250000D01*
G01*
G37*
G36*
G01*
X63990985Y88572985D02*
X63090985Y88572985D01*
G75*
G02*
X62840985Y88822985I0J250000D01*
G01*
X62840985Y89347985D01*
G75*
G02*
X63090985Y89597985I250000J0D01*
G01*
X63990985Y89597985D01*
G75*
G02*
X64240985Y89347985I0J-250000D01*
G01*
X64240985Y88822985D01*
G75*
G02*
X63990985Y88572985I-250000J0D01*
G01*
G37*
G36*
G01*
X63990985Y90397985D02*
X63090985Y90397985D01*
G75*
G02*
X62840985Y90647985I0J250000D01*
G01*
X62840985Y91172985D01*
G75*
G02*
X63090985Y91422985I250000J0D01*
G01*
X63990985Y91422985D01*
G75*
G02*
X64240985Y91172985I0J-250000D01*
G01*
X64240985Y90647985D01*
G75*
G02*
X63990985Y90397985I-250000J0D01*
G01*
G37*
G36*
G01*
X84869385Y79744385D02*
X85819385Y79744385D01*
G75*
G02*
X86069385Y79494385I0J-250000D01*
G01*
X86069385Y78994385D01*
G75*
G02*
X85819385Y78744385I-250000J0D01*
G01*
X84869385Y78744385D01*
G75*
G02*
X84619385Y78994385I0J250000D01*
G01*
X84619385Y79494385D01*
G75*
G02*
X84869385Y79744385I250000J0D01*
G01*
G37*
G36*
G01*
X84869385Y77844385D02*
X85819385Y77844385D01*
G75*
G02*
X86069385Y77594385I0J-250000D01*
G01*
X86069385Y77094385D01*
G75*
G02*
X85819385Y76844385I-250000J0D01*
G01*
X84869385Y76844385D01*
G75*
G02*
X84619385Y77094385I0J250000D01*
G01*
X84619385Y77594385D01*
G75*
G02*
X84869385Y77844385I250000J0D01*
G01*
G37*
G36*
G01*
X54286985Y77317385D02*
X53986985Y77317385D01*
G75*
G02*
X53836985Y77467385I0J150000D01*
G01*
X53836985Y78492385D01*
G75*
G02*
X53986985Y78642385I150000J0D01*
G01*
X54286985Y78642385D01*
G75*
G02*
X54436985Y78492385I0J-150000D01*
G01*
X54436985Y77467385D01*
G75*
G02*
X54286985Y77317385I-150000J0D01*
G01*
G37*
G36*
G01*
X55236985Y77317385D02*
X54936985Y77317385D01*
G75*
G02*
X54786985Y77467385I0J150000D01*
G01*
X54786985Y78492385D01*
G75*
G02*
X54936985Y78642385I150000J0D01*
G01*
X55236985Y78642385D01*
G75*
G02*
X55386985Y78492385I0J-150000D01*
G01*
X55386985Y77467385D01*
G75*
G02*
X55236985Y77317385I-150000J0D01*
G01*
G37*
G36*
G01*
X56186985Y77317385D02*
X55886985Y77317385D01*
G75*
G02*
X55736985Y77467385I0J150000D01*
G01*
X55736985Y78492385D01*
G75*
G02*
X55886985Y78642385I150000J0D01*
G01*
X56186985Y78642385D01*
G75*
G02*
X56336985Y78492385I0J-150000D01*
G01*
X56336985Y77467385D01*
G75*
G02*
X56186985Y77317385I-150000J0D01*
G01*
G37*
G36*
G01*
X56186985Y79592385D02*
X55886985Y79592385D01*
G75*
G02*
X55736985Y79742385I0J150000D01*
G01*
X55736985Y80767385D01*
G75*
G02*
X55886985Y80917385I150000J0D01*
G01*
X56186985Y80917385D01*
G75*
G02*
X56336985Y80767385I0J-150000D01*
G01*
X56336985Y79742385D01*
G75*
G02*
X56186985Y79592385I-150000J0D01*
G01*
G37*
G36*
G01*
X55236985Y79592385D02*
X54936985Y79592385D01*
G75*
G02*
X54786985Y79742385I0J150000D01*
G01*
X54786985Y80767385D01*
G75*
G02*
X54936985Y80917385I150000J0D01*
G01*
X55236985Y80917385D01*
G75*
G02*
X55386985Y80767385I0J-150000D01*
G01*
X55386985Y79742385D01*
G75*
G02*
X55236985Y79592385I-150000J0D01*
G01*
G37*
G36*
G01*
X54286985Y79592385D02*
X53986985Y79592385D01*
G75*
G02*
X53836985Y79742385I0J150000D01*
G01*
X53836985Y80767385D01*
G75*
G02*
X53986985Y80917385I150000J0D01*
G01*
X54286985Y80917385D01*
G75*
G02*
X54436985Y80767385I0J-150000D01*
G01*
X54436985Y79742385D01*
G75*
G02*
X54286985Y79592385I-150000J0D01*
G01*
G37*
D12*
X149994385Y2994385D03*
G36*
G01*
X41269385Y82564385D02*
X41269385Y83464385D01*
G75*
G02*
X41519385Y83714385I250000J0D01*
G01*
X42044385Y83714385D01*
G75*
G02*
X42294385Y83464385I0J-250000D01*
G01*
X42294385Y82564385D01*
G75*
G02*
X42044385Y82314385I-250000J0D01*
G01*
X41519385Y82314385D01*
G75*
G02*
X41269385Y82564385I0J250000D01*
G01*
G37*
G36*
G01*
X43094385Y82564385D02*
X43094385Y83464385D01*
G75*
G02*
X43344385Y83714385I250000J0D01*
G01*
X43869385Y83714385D01*
G75*
G02*
X44119385Y83464385I0J-250000D01*
G01*
X44119385Y82564385D01*
G75*
G02*
X43869385Y82314385I-250000J0D01*
G01*
X43344385Y82314385D01*
G75*
G02*
X43094385Y82564385I0J250000D01*
G01*
G37*
G36*
G01*
X8294385Y70869385D02*
X8294385Y71819385D01*
G75*
G02*
X8544385Y72069385I250000J0D01*
G01*
X9044385Y72069385D01*
G75*
G02*
X9294385Y71819385I0J-250000D01*
G01*
X9294385Y70869385D01*
G75*
G02*
X9044385Y70619385I-250000J0D01*
G01*
X8544385Y70619385D01*
G75*
G02*
X8294385Y70869385I0J250000D01*
G01*
G37*
G36*
G01*
X10194385Y70869385D02*
X10194385Y71819385D01*
G75*
G02*
X10444385Y72069385I250000J0D01*
G01*
X10944385Y72069385D01*
G75*
G02*
X11194385Y71819385I0J-250000D01*
G01*
X11194385Y70869385D01*
G75*
G02*
X10944385Y70619385I-250000J0D01*
G01*
X10444385Y70619385D01*
G75*
G02*
X10194385Y70869385I0J250000D01*
G01*
G37*
G36*
G01*
X143357385Y99134385D02*
X143357385Y101334385D01*
G75*
G02*
X143459385Y101436385I102000J0D01*
G01*
X144059385Y101436385D01*
G75*
G02*
X144161385Y101334385I0J-102000D01*
G01*
X144161385Y99134385D01*
G75*
G02*
X144059385Y99032385I-102000J0D01*
G01*
X143459385Y99032385D01*
G75*
G02*
X143357385Y99134385I0J102000D01*
G01*
G37*
G36*
G01*
X97269385Y79156685D02*
X97269385Y80056685D01*
G75*
G02*
X97519385Y80306685I250000J0D01*
G01*
X98044385Y80306685D01*
G75*
G02*
X98294385Y80056685I0J-250000D01*
G01*
X98294385Y79156685D01*
G75*
G02*
X98044385Y78906685I-250000J0D01*
G01*
X97519385Y78906685D01*
G75*
G02*
X97269385Y79156685I0J250000D01*
G01*
G37*
G36*
G01*
X99094385Y79156685D02*
X99094385Y80056685D01*
G75*
G02*
X99344385Y80306685I250000J0D01*
G01*
X99869385Y80306685D01*
G75*
G02*
X100119385Y80056685I0J-250000D01*
G01*
X100119385Y79156685D01*
G75*
G02*
X99869385Y78906685I-250000J0D01*
G01*
X99344385Y78906685D01*
G75*
G02*
X99094385Y79156685I0J250000D01*
G01*
G37*
G36*
G01*
X39219385Y99694385D02*
X40169385Y99694385D01*
G75*
G02*
X40419385Y99444385I0J-250000D01*
G01*
X40419385Y98944385D01*
G75*
G02*
X40169385Y98694385I-250000J0D01*
G01*
X39219385Y98694385D01*
G75*
G02*
X38969385Y98944385I0J250000D01*
G01*
X38969385Y99444385D01*
G75*
G02*
X39219385Y99694385I250000J0D01*
G01*
G37*
G36*
G01*
X39219385Y97794385D02*
X40169385Y97794385D01*
G75*
G02*
X40419385Y97544385I0J-250000D01*
G01*
X40419385Y97044385D01*
G75*
G02*
X40169385Y96794385I-250000J0D01*
G01*
X39219385Y96794385D01*
G75*
G02*
X38969385Y97044385I0J250000D01*
G01*
X38969385Y97544385D01*
G75*
G02*
X39219385Y97794385I250000J0D01*
G01*
G37*
G36*
G01*
X59319385Y100244385D02*
X60269385Y100244385D01*
G75*
G02*
X60519385Y99994385I0J-250000D01*
G01*
X60519385Y99494385D01*
G75*
G02*
X60269385Y99244385I-250000J0D01*
G01*
X59319385Y99244385D01*
G75*
G02*
X59069385Y99494385I0J250000D01*
G01*
X59069385Y99994385D01*
G75*
G02*
X59319385Y100244385I250000J0D01*
G01*
G37*
G36*
G01*
X59319385Y98344385D02*
X60269385Y98344385D01*
G75*
G02*
X60519385Y98094385I0J-250000D01*
G01*
X60519385Y97594385D01*
G75*
G02*
X60269385Y97344385I-250000J0D01*
G01*
X59319385Y97344385D01*
G75*
G02*
X59069385Y97594385I0J250000D01*
G01*
X59069385Y98094385D01*
G75*
G02*
X59319385Y98344385I250000J0D01*
G01*
G37*
G36*
G01*
X141774385Y96789385D02*
X141774385Y97739385D01*
G75*
G02*
X142024385Y97989385I250000J0D01*
G01*
X142524385Y97989385D01*
G75*
G02*
X142774385Y97739385I0J-250000D01*
G01*
X142774385Y96789385D01*
G75*
G02*
X142524385Y96539385I-250000J0D01*
G01*
X142024385Y96539385D01*
G75*
G02*
X141774385Y96789385I0J250000D01*
G01*
G37*
G36*
G01*
X143674385Y96789385D02*
X143674385Y97739385D01*
G75*
G02*
X143924385Y97989385I250000J0D01*
G01*
X144424385Y97989385D01*
G75*
G02*
X144674385Y97739385I0J-250000D01*
G01*
X144674385Y96789385D01*
G75*
G02*
X144424385Y96539385I-250000J0D01*
G01*
X143924385Y96539385D01*
G75*
G02*
X143674385Y96789385I0J250000D01*
G01*
G37*
D21*
X89219385Y49694385D03*
D22*
X86679385Y49694385D03*
X84139385Y49694385D03*
G36*
G01*
X148274385Y100739385D02*
X148274385Y99789385D01*
G75*
G02*
X148024385Y99539385I-250000J0D01*
G01*
X147524385Y99539385D01*
G75*
G02*
X147274385Y99789385I0J250000D01*
G01*
X147274385Y100739385D01*
G75*
G02*
X147524385Y100989385I250000J0D01*
G01*
X148024385Y100989385D01*
G75*
G02*
X148274385Y100739385I0J-250000D01*
G01*
G37*
G36*
G01*
X146374385Y100739385D02*
X146374385Y99789385D01*
G75*
G02*
X146124385Y99539385I-250000J0D01*
G01*
X145624385Y99539385D01*
G75*
G02*
X145374385Y99789385I0J250000D01*
G01*
X145374385Y100739385D01*
G75*
G02*
X145624385Y100989385I250000J0D01*
G01*
X146124385Y100989385D01*
G75*
G02*
X146374385Y100739385I0J-250000D01*
G01*
G37*
D13*
X163944385Y56214385D03*
X163944385Y39984385D03*
X170294385Y56214385D03*
X170294385Y39984385D03*
X157594385Y56214385D03*
X157594385Y39984385D03*
G36*
G01*
X146639385Y105514385D02*
X145689385Y105514385D01*
G75*
G02*
X145439385Y105764385I0J250000D01*
G01*
X145439385Y106264385D01*
G75*
G02*
X145689385Y106514385I250000J0D01*
G01*
X146639385Y106514385D01*
G75*
G02*
X146889385Y106264385I0J-250000D01*
G01*
X146889385Y105764385D01*
G75*
G02*
X146639385Y105514385I-250000J0D01*
G01*
G37*
G36*
G01*
X146639385Y107414385D02*
X145689385Y107414385D01*
G75*
G02*
X145439385Y107664385I0J250000D01*
G01*
X145439385Y108164385D01*
G75*
G02*
X145689385Y108414385I250000J0D01*
G01*
X146639385Y108414385D01*
G75*
G02*
X146889385Y108164385I0J-250000D01*
G01*
X146889385Y107664385D01*
G75*
G02*
X146639385Y107414385I-250000J0D01*
G01*
G37*
D28*
X4429385Y75819385D03*
X4429385Y75169385D03*
X4429385Y74519385D03*
X4429385Y73869385D03*
X4429385Y73219385D03*
D29*
X3229385Y77469385D03*
D30*
X4529385Y77369385D03*
D31*
X2479385Y77249385D03*
D32*
X1549385Y77249385D03*
D33*
X4549385Y76939385D03*
D34*
X1279385Y75479385D03*
X1279385Y73559385D03*
D33*
X4549385Y72099385D03*
D32*
X1549385Y71789385D03*
D31*
X2479385Y71769385D03*
D30*
X4549385Y71619385D03*
D29*
X3229385Y71519385D03*
G36*
G01*
X141099385Y76314385D02*
X140149385Y76314385D01*
G75*
G02*
X139899385Y76564385I0J250000D01*
G01*
X139899385Y77064385D01*
G75*
G02*
X140149385Y77314385I250000J0D01*
G01*
X141099385Y77314385D01*
G75*
G02*
X141349385Y77064385I0J-250000D01*
G01*
X141349385Y76564385D01*
G75*
G02*
X141099385Y76314385I-250000J0D01*
G01*
G37*
G36*
G01*
X141099385Y78214385D02*
X140149385Y78214385D01*
G75*
G02*
X139899385Y78464385I0J250000D01*
G01*
X139899385Y78964385D01*
G75*
G02*
X140149385Y79214385I250000J0D01*
G01*
X141099385Y79214385D01*
G75*
G02*
X141349385Y78964385I0J-250000D01*
G01*
X141349385Y78464385D01*
G75*
G02*
X141099385Y78214385I-250000J0D01*
G01*
G37*
G36*
G01*
X35869385Y96194385D02*
X36819385Y96194385D01*
G75*
G02*
X37069385Y95944385I0J-250000D01*
G01*
X37069385Y95444385D01*
G75*
G02*
X36819385Y95194385I-250000J0D01*
G01*
X35869385Y95194385D01*
G75*
G02*
X35619385Y95444385I0J250000D01*
G01*
X35619385Y95944385D01*
G75*
G02*
X35869385Y96194385I250000J0D01*
G01*
G37*
G36*
G01*
X35869385Y94294385D02*
X36819385Y94294385D01*
G75*
G02*
X37069385Y94044385I0J-250000D01*
G01*
X37069385Y93544385D01*
G75*
G02*
X36819385Y93294385I-250000J0D01*
G01*
X35869385Y93294385D01*
G75*
G02*
X35619385Y93544385I0J250000D01*
G01*
X35619385Y94044385D01*
G75*
G02*
X35869385Y94294385I250000J0D01*
G01*
G37*
G36*
X151644385Y15844385D02*
G01*
X151644385Y15344385D01*
X151640107Y15344385D01*
X151640107Y15279122D01*
X151606325Y15153043D01*
X151541062Y15040004D01*
X151448766Y14947708D01*
X151335727Y14882445D01*
X151209648Y14848663D01*
X151144385Y14848663D01*
X151144385Y14844385D01*
X150644385Y14844385D01*
X150644385Y14848663D01*
X150579122Y14848663D01*
X150453043Y14882445D01*
X150340004Y14947708D01*
X150247708Y15040004D01*
X150182445Y15153043D01*
X150148663Y15279122D01*
X150148663Y15344385D01*
X150144385Y15344385D01*
X150144385Y15844385D01*
X151644385Y15844385D01*
G37*
G36*
X150148663Y16644385D02*
G01*
X150148663Y16709648D01*
X150182445Y16835727D01*
X150247708Y16948766D01*
X150340004Y17041062D01*
X150453043Y17106325D01*
X150579122Y17140107D01*
X150644385Y17140107D01*
X150644385Y17144385D01*
X151144385Y17144385D01*
X151144385Y17140107D01*
X151209648Y17140107D01*
X151335727Y17106325D01*
X151448766Y17041062D01*
X151541062Y16948766D01*
X151606325Y16835727D01*
X151640107Y16709648D01*
X151640107Y16644385D01*
X151644385Y16644385D01*
X151644385Y16144385D01*
X150144385Y16144385D01*
X150144385Y16644385D01*
X150148663Y16644385D01*
G37*
D24*
X4994385Y66494385D03*
X18994385Y66494385D03*
X4994385Y61494385D03*
X18994385Y61494385D03*
G36*
G01*
X36121885Y88384385D02*
X36246885Y88384385D01*
G75*
G02*
X36309385Y88321885I0J-62500D01*
G01*
X36309385Y87621885D01*
G75*
G02*
X36246885Y87559385I-62500J0D01*
G01*
X36121885Y87559385D01*
G75*
G02*
X36059385Y87621885I0J62500D01*
G01*
X36059385Y88321885D01*
G75*
G02*
X36121885Y88384385I62500J0D01*
G01*
G37*
G36*
G01*
X35621885Y88384385D02*
X35746885Y88384385D01*
G75*
G02*
X35809385Y88321885I0J-62500D01*
G01*
X35809385Y87621885D01*
G75*
G02*
X35746885Y87559385I-62500J0D01*
G01*
X35621885Y87559385D01*
G75*
G02*
X35559385Y87621885I0J62500D01*
G01*
X35559385Y88321885D01*
G75*
G02*
X35621885Y88384385I62500J0D01*
G01*
G37*
G36*
G01*
X35121885Y88384385D02*
X35246885Y88384385D01*
G75*
G02*
X35309385Y88321885I0J-62500D01*
G01*
X35309385Y87621885D01*
G75*
G02*
X35246885Y87559385I-62500J0D01*
G01*
X35121885Y87559385D01*
G75*
G02*
X35059385Y87621885I0J62500D01*
G01*
X35059385Y88321885D01*
G75*
G02*
X35121885Y88384385I62500J0D01*
G01*
G37*
G36*
G01*
X34621885Y88384385D02*
X34746885Y88384385D01*
G75*
G02*
X34809385Y88321885I0J-62500D01*
G01*
X34809385Y87621885D01*
G75*
G02*
X34746885Y87559385I-62500J0D01*
G01*
X34621885Y87559385D01*
G75*
G02*
X34559385Y87621885I0J62500D01*
G01*
X34559385Y88321885D01*
G75*
G02*
X34621885Y88384385I62500J0D01*
G01*
G37*
G36*
G01*
X34121885Y88384385D02*
X34246885Y88384385D01*
G75*
G02*
X34309385Y88321885I0J-62500D01*
G01*
X34309385Y87621885D01*
G75*
G02*
X34246885Y87559385I-62500J0D01*
G01*
X34121885Y87559385D01*
G75*
G02*
X34059385Y87621885I0J62500D01*
G01*
X34059385Y88321885D01*
G75*
G02*
X34121885Y88384385I62500J0D01*
G01*
G37*
G36*
G01*
X33621885Y88384385D02*
X33746885Y88384385D01*
G75*
G02*
X33809385Y88321885I0J-62500D01*
G01*
X33809385Y87621885D01*
G75*
G02*
X33746885Y87559385I-62500J0D01*
G01*
X33621885Y87559385D01*
G75*
G02*
X33559385Y87621885I0J62500D01*
G01*
X33559385Y88321885D01*
G75*
G02*
X33621885Y88384385I62500J0D01*
G01*
G37*
G36*
G01*
X33121885Y88384385D02*
X33246885Y88384385D01*
G75*
G02*
X33309385Y88321885I0J-62500D01*
G01*
X33309385Y87621885D01*
G75*
G02*
X33246885Y87559385I-62500J0D01*
G01*
X33121885Y87559385D01*
G75*
G02*
X33059385Y87621885I0J62500D01*
G01*
X33059385Y88321885D01*
G75*
G02*
X33121885Y88384385I62500J0D01*
G01*
G37*
G36*
G01*
X32621885Y88384385D02*
X32746885Y88384385D01*
G75*
G02*
X32809385Y88321885I0J-62500D01*
G01*
X32809385Y87621885D01*
G75*
G02*
X32746885Y87559385I-62500J0D01*
G01*
X32621885Y87559385D01*
G75*
G02*
X32559385Y87621885I0J62500D01*
G01*
X32559385Y88321885D01*
G75*
G02*
X32621885Y88384385I62500J0D01*
G01*
G37*
G36*
G01*
X32121885Y88384385D02*
X32246885Y88384385D01*
G75*
G02*
X32309385Y88321885I0J-62500D01*
G01*
X32309385Y87621885D01*
G75*
G02*
X32246885Y87559385I-62500J0D01*
G01*
X32121885Y87559385D01*
G75*
G02*
X32059385Y87621885I0J62500D01*
G01*
X32059385Y88321885D01*
G75*
G02*
X32121885Y88384385I62500J0D01*
G01*
G37*
G36*
G01*
X30896885Y87159385D02*
X31596885Y87159385D01*
G75*
G02*
X31659385Y87096885I0J-62500D01*
G01*
X31659385Y86971885D01*
G75*
G02*
X31596885Y86909385I-62500J0D01*
G01*
X30896885Y86909385D01*
G75*
G02*
X30834385Y86971885I0J62500D01*
G01*
X30834385Y87096885D01*
G75*
G02*
X30896885Y87159385I62500J0D01*
G01*
G37*
G36*
G01*
X30896885Y86659385D02*
X31596885Y86659385D01*
G75*
G02*
X31659385Y86596885I0J-62500D01*
G01*
X31659385Y86471885D01*
G75*
G02*
X31596885Y86409385I-62500J0D01*
G01*
X30896885Y86409385D01*
G75*
G02*
X30834385Y86471885I0J62500D01*
G01*
X30834385Y86596885D01*
G75*
G02*
X30896885Y86659385I62500J0D01*
G01*
G37*
G36*
G01*
X30896885Y86159385D02*
X31596885Y86159385D01*
G75*
G02*
X31659385Y86096885I0J-62500D01*
G01*
X31659385Y85971885D01*
G75*
G02*
X31596885Y85909385I-62500J0D01*
G01*
X30896885Y85909385D01*
G75*
G02*
X30834385Y85971885I0J62500D01*
G01*
X30834385Y86096885D01*
G75*
G02*
X30896885Y86159385I62500J0D01*
G01*
G37*
G36*
G01*
X30896885Y85659385D02*
X31596885Y85659385D01*
G75*
G02*
X31659385Y85596885I0J-62500D01*
G01*
X31659385Y85471885D01*
G75*
G02*
X31596885Y85409385I-62500J0D01*
G01*
X30896885Y85409385D01*
G75*
G02*
X30834385Y85471885I0J62500D01*
G01*
X30834385Y85596885D01*
G75*
G02*
X30896885Y85659385I62500J0D01*
G01*
G37*
G36*
G01*
X30896885Y85159385D02*
X31596885Y85159385D01*
G75*
G02*
X31659385Y85096885I0J-62500D01*
G01*
X31659385Y84971885D01*
G75*
G02*
X31596885Y84909385I-62500J0D01*
G01*
X30896885Y84909385D01*
G75*
G02*
X30834385Y84971885I0J62500D01*
G01*
X30834385Y85096885D01*
G75*
G02*
X30896885Y85159385I62500J0D01*
G01*
G37*
G36*
G01*
X30896885Y84659385D02*
X31596885Y84659385D01*
G75*
G02*
X31659385Y84596885I0J-62500D01*
G01*
X31659385Y84471885D01*
G75*
G02*
X31596885Y84409385I-62500J0D01*
G01*
X30896885Y84409385D01*
G75*
G02*
X30834385Y84471885I0J62500D01*
G01*
X30834385Y84596885D01*
G75*
G02*
X30896885Y84659385I62500J0D01*
G01*
G37*
G36*
G01*
X30896885Y84159385D02*
X31596885Y84159385D01*
G75*
G02*
X31659385Y84096885I0J-62500D01*
G01*
X31659385Y83971885D01*
G75*
G02*
X31596885Y83909385I-62500J0D01*
G01*
X30896885Y83909385D01*
G75*
G02*
X30834385Y83971885I0J62500D01*
G01*
X30834385Y84096885D01*
G75*
G02*
X30896885Y84159385I62500J0D01*
G01*
G37*
G36*
G01*
X30896885Y83659385D02*
X31596885Y83659385D01*
G75*
G02*
X31659385Y83596885I0J-62500D01*
G01*
X31659385Y83471885D01*
G75*
G02*
X31596885Y83409385I-62500J0D01*
G01*
X30896885Y83409385D01*
G75*
G02*
X30834385Y83471885I0J62500D01*
G01*
X30834385Y83596885D01*
G75*
G02*
X30896885Y83659385I62500J0D01*
G01*
G37*
G36*
G01*
X30896885Y83159385D02*
X31596885Y83159385D01*
G75*
G02*
X31659385Y83096885I0J-62500D01*
G01*
X31659385Y82971885D01*
G75*
G02*
X31596885Y82909385I-62500J0D01*
G01*
X30896885Y82909385D01*
G75*
G02*
X30834385Y82971885I0J62500D01*
G01*
X30834385Y83096885D01*
G75*
G02*
X30896885Y83159385I62500J0D01*
G01*
G37*
G36*
G01*
X32121885Y82509385D02*
X32246885Y82509385D01*
G75*
G02*
X32309385Y82446885I0J-62500D01*
G01*
X32309385Y81746885D01*
G75*
G02*
X32246885Y81684385I-62500J0D01*
G01*
X32121885Y81684385D01*
G75*
G02*
X32059385Y81746885I0J62500D01*
G01*
X32059385Y82446885D01*
G75*
G02*
X32121885Y82509385I62500J0D01*
G01*
G37*
G36*
G01*
X32621885Y82509385D02*
X32746885Y82509385D01*
G75*
G02*
X32809385Y82446885I0J-62500D01*
G01*
X32809385Y81746885D01*
G75*
G02*
X32746885Y81684385I-62500J0D01*
G01*
X32621885Y81684385D01*
G75*
G02*
X32559385Y81746885I0J62500D01*
G01*
X32559385Y82446885D01*
G75*
G02*
X32621885Y82509385I62500J0D01*
G01*
G37*
G36*
G01*
X33121885Y82509385D02*
X33246885Y82509385D01*
G75*
G02*
X33309385Y82446885I0J-62500D01*
G01*
X33309385Y81746885D01*
G75*
G02*
X33246885Y81684385I-62500J0D01*
G01*
X33121885Y81684385D01*
G75*
G02*
X33059385Y81746885I0J62500D01*
G01*
X33059385Y82446885D01*
G75*
G02*
X33121885Y82509385I62500J0D01*
G01*
G37*
G36*
G01*
X33621885Y82509385D02*
X33746885Y82509385D01*
G75*
G02*
X33809385Y82446885I0J-62500D01*
G01*
X33809385Y81746885D01*
G75*
G02*
X33746885Y81684385I-62500J0D01*
G01*
X33621885Y81684385D01*
G75*
G02*
X33559385Y81746885I0J62500D01*
G01*
X33559385Y82446885D01*
G75*
G02*
X33621885Y82509385I62500J0D01*
G01*
G37*
G36*
G01*
X34121885Y82509385D02*
X34246885Y82509385D01*
G75*
G02*
X34309385Y82446885I0J-62500D01*
G01*
X34309385Y81746885D01*
G75*
G02*
X34246885Y81684385I-62500J0D01*
G01*
X34121885Y81684385D01*
G75*
G02*
X34059385Y81746885I0J62500D01*
G01*
X34059385Y82446885D01*
G75*
G02*
X34121885Y82509385I62500J0D01*
G01*
G37*
G36*
G01*
X34621885Y82509385D02*
X34746885Y82509385D01*
G75*
G02*
X34809385Y82446885I0J-62500D01*
G01*
X34809385Y81746885D01*
G75*
G02*
X34746885Y81684385I-62500J0D01*
G01*
X34621885Y81684385D01*
G75*
G02*
X34559385Y81746885I0J62500D01*
G01*
X34559385Y82446885D01*
G75*
G02*
X34621885Y82509385I62500J0D01*
G01*
G37*
G36*
G01*
X35121885Y82509385D02*
X35246885Y82509385D01*
G75*
G02*
X35309385Y82446885I0J-62500D01*
G01*
X35309385Y81746885D01*
G75*
G02*
X35246885Y81684385I-62500J0D01*
G01*
X35121885Y81684385D01*
G75*
G02*
X35059385Y81746885I0J62500D01*
G01*
X35059385Y82446885D01*
G75*
G02*
X35121885Y82509385I62500J0D01*
G01*
G37*
G36*
G01*
X35621885Y82509385D02*
X35746885Y82509385D01*
G75*
G02*
X35809385Y82446885I0J-62500D01*
G01*
X35809385Y81746885D01*
G75*
G02*
X35746885Y81684385I-62500J0D01*
G01*
X35621885Y81684385D01*
G75*
G02*
X35559385Y81746885I0J62500D01*
G01*
X35559385Y82446885D01*
G75*
G02*
X35621885Y82509385I62500J0D01*
G01*
G37*
G36*
G01*
X36121885Y82509385D02*
X36246885Y82509385D01*
G75*
G02*
X36309385Y82446885I0J-62500D01*
G01*
X36309385Y81746885D01*
G75*
G02*
X36246885Y81684385I-62500J0D01*
G01*
X36121885Y81684385D01*
G75*
G02*
X36059385Y81746885I0J62500D01*
G01*
X36059385Y82446885D01*
G75*
G02*
X36121885Y82509385I62500J0D01*
G01*
G37*
G36*
G01*
X36771885Y83159385D02*
X37471885Y83159385D01*
G75*
G02*
X37534385Y83096885I0J-62500D01*
G01*
X37534385Y82971885D01*
G75*
G02*
X37471885Y82909385I-62500J0D01*
G01*
X36771885Y82909385D01*
G75*
G02*
X36709385Y82971885I0J62500D01*
G01*
X36709385Y83096885D01*
G75*
G02*
X36771885Y83159385I62500J0D01*
G01*
G37*
G36*
G01*
X36771885Y83659385D02*
X37471885Y83659385D01*
G75*
G02*
X37534385Y83596885I0J-62500D01*
G01*
X37534385Y83471885D01*
G75*
G02*
X37471885Y83409385I-62500J0D01*
G01*
X36771885Y83409385D01*
G75*
G02*
X36709385Y83471885I0J62500D01*
G01*
X36709385Y83596885D01*
G75*
G02*
X36771885Y83659385I62500J0D01*
G01*
G37*
G36*
G01*
X36771885Y84159385D02*
X37471885Y84159385D01*
G75*
G02*
X37534385Y84096885I0J-62500D01*
G01*
X37534385Y83971885D01*
G75*
G02*
X37471885Y83909385I-62500J0D01*
G01*
X36771885Y83909385D01*
G75*
G02*
X36709385Y83971885I0J62500D01*
G01*
X36709385Y84096885D01*
G75*
G02*
X36771885Y84159385I62500J0D01*
G01*
G37*
G36*
G01*
X36771885Y84659385D02*
X37471885Y84659385D01*
G75*
G02*
X37534385Y84596885I0J-62500D01*
G01*
X37534385Y84471885D01*
G75*
G02*
X37471885Y84409385I-62500J0D01*
G01*
X36771885Y84409385D01*
G75*
G02*
X36709385Y84471885I0J62500D01*
G01*
X36709385Y84596885D01*
G75*
G02*
X36771885Y84659385I62500J0D01*
G01*
G37*
G36*
G01*
X36771885Y85159385D02*
X37471885Y85159385D01*
G75*
G02*
X37534385Y85096885I0J-62500D01*
G01*
X37534385Y84971885D01*
G75*
G02*
X37471885Y84909385I-62500J0D01*
G01*
X36771885Y84909385D01*
G75*
G02*
X36709385Y84971885I0J62500D01*
G01*
X36709385Y85096885D01*
G75*
G02*
X36771885Y85159385I62500J0D01*
G01*
G37*
G36*
G01*
X36771885Y85659385D02*
X37471885Y85659385D01*
G75*
G02*
X37534385Y85596885I0J-62500D01*
G01*
X37534385Y85471885D01*
G75*
G02*
X37471885Y85409385I-62500J0D01*
G01*
X36771885Y85409385D01*
G75*
G02*
X36709385Y85471885I0J62500D01*
G01*
X36709385Y85596885D01*
G75*
G02*
X36771885Y85659385I62500J0D01*
G01*
G37*
G36*
G01*
X36771885Y86159385D02*
X37471885Y86159385D01*
G75*
G02*
X37534385Y86096885I0J-62500D01*
G01*
X37534385Y85971885D01*
G75*
G02*
X37471885Y85909385I-62500J0D01*
G01*
X36771885Y85909385D01*
G75*
G02*
X36709385Y85971885I0J62500D01*
G01*
X36709385Y86096885D01*
G75*
G02*
X36771885Y86159385I62500J0D01*
G01*
G37*
G36*
G01*
X36771885Y86659385D02*
X37471885Y86659385D01*
G75*
G02*
X37534385Y86596885I0J-62500D01*
G01*
X37534385Y86471885D01*
G75*
G02*
X37471885Y86409385I-62500J0D01*
G01*
X36771885Y86409385D01*
G75*
G02*
X36709385Y86471885I0J62500D01*
G01*
X36709385Y86596885D01*
G75*
G02*
X36771885Y86659385I62500J0D01*
G01*
G37*
G36*
G01*
X36771885Y87159385D02*
X37471885Y87159385D01*
G75*
G02*
X37534385Y87096885I0J-62500D01*
G01*
X37534385Y86971885D01*
G75*
G02*
X37471885Y86909385I-62500J0D01*
G01*
X36771885Y86909385D01*
G75*
G02*
X36709385Y86971885I0J62500D01*
G01*
X36709385Y87096885D01*
G75*
G02*
X36771885Y87159385I62500J0D01*
G01*
G37*
D35*
X34184385Y85034385D03*
D36*
X67705985Y92992985D03*
X67705985Y91722985D03*
X67705985Y90452985D03*
X77205985Y90452985D03*
X77205985Y91722985D03*
X77205985Y92992985D03*
G36*
G01*
X40989385Y72959385D02*
X40989385Y72809385D01*
G75*
G02*
X40914385Y72734385I-75000J0D01*
G01*
X39614385Y72734385D01*
G75*
G02*
X39539385Y72809385I0J75000D01*
G01*
X39539385Y72959385D01*
G75*
G02*
X39614385Y73034385I75000J0D01*
G01*
X40914385Y73034385D01*
G75*
G02*
X40989385Y72959385I0J-75000D01*
G01*
G37*
G36*
G01*
X40989385Y73459385D02*
X40989385Y73309385D01*
G75*
G02*
X40914385Y73234385I-75000J0D01*
G01*
X39614385Y73234385D01*
G75*
G02*
X39539385Y73309385I0J75000D01*
G01*
X39539385Y73459385D01*
G75*
G02*
X39614385Y73534385I75000J0D01*
G01*
X40914385Y73534385D01*
G75*
G02*
X40989385Y73459385I0J-75000D01*
G01*
G37*
G36*
G01*
X40989385Y73959385D02*
X40989385Y73809385D01*
G75*
G02*
X40914385Y73734385I-75000J0D01*
G01*
X39614385Y73734385D01*
G75*
G02*
X39539385Y73809385I0J75000D01*
G01*
X39539385Y73959385D01*
G75*
G02*
X39614385Y74034385I75000J0D01*
G01*
X40914385Y74034385D01*
G75*
G02*
X40989385Y73959385I0J-75000D01*
G01*
G37*
G36*
G01*
X40989385Y74459385D02*
X40989385Y74309385D01*
G75*
G02*
X40914385Y74234385I-75000J0D01*
G01*
X39614385Y74234385D01*
G75*
G02*
X39539385Y74309385I0J75000D01*
G01*
X39539385Y74459385D01*
G75*
G02*
X39614385Y74534385I75000J0D01*
G01*
X40914385Y74534385D01*
G75*
G02*
X40989385Y74459385I0J-75000D01*
G01*
G37*
G36*
G01*
X40989385Y74959385D02*
X40989385Y74809385D01*
G75*
G02*
X40914385Y74734385I-75000J0D01*
G01*
X39614385Y74734385D01*
G75*
G02*
X39539385Y74809385I0J75000D01*
G01*
X39539385Y74959385D01*
G75*
G02*
X39614385Y75034385I75000J0D01*
G01*
X40914385Y75034385D01*
G75*
G02*
X40989385Y74959385I0J-75000D01*
G01*
G37*
G36*
G01*
X36689385Y74959385D02*
X36689385Y74809385D01*
G75*
G02*
X36614385Y74734385I-75000J0D01*
G01*
X35314385Y74734385D01*
G75*
G02*
X35239385Y74809385I0J75000D01*
G01*
X35239385Y74959385D01*
G75*
G02*
X35314385Y75034385I75000J0D01*
G01*
X36614385Y75034385D01*
G75*
G02*
X36689385Y74959385I0J-75000D01*
G01*
G37*
G36*
G01*
X36689385Y74459385D02*
X36689385Y74309385D01*
G75*
G02*
X36614385Y74234385I-75000J0D01*
G01*
X35314385Y74234385D01*
G75*
G02*
X35239385Y74309385I0J75000D01*
G01*
X35239385Y74459385D01*
G75*
G02*
X35314385Y74534385I75000J0D01*
G01*
X36614385Y74534385D01*
G75*
G02*
X36689385Y74459385I0J-75000D01*
G01*
G37*
G36*
G01*
X36689385Y73959385D02*
X36689385Y73809385D01*
G75*
G02*
X36614385Y73734385I-75000J0D01*
G01*
X35314385Y73734385D01*
G75*
G02*
X35239385Y73809385I0J75000D01*
G01*
X35239385Y73959385D01*
G75*
G02*
X35314385Y74034385I75000J0D01*
G01*
X36614385Y74034385D01*
G75*
G02*
X36689385Y73959385I0J-75000D01*
G01*
G37*
G36*
G01*
X36689385Y73459385D02*
X36689385Y73309385D01*
G75*
G02*
X36614385Y73234385I-75000J0D01*
G01*
X35314385Y73234385D01*
G75*
G02*
X35239385Y73309385I0J75000D01*
G01*
X35239385Y73459385D01*
G75*
G02*
X35314385Y73534385I75000J0D01*
G01*
X36614385Y73534385D01*
G75*
G02*
X36689385Y73459385I0J-75000D01*
G01*
G37*
G36*
G01*
X36689385Y72959385D02*
X36689385Y72809385D01*
G75*
G02*
X36614385Y72734385I-75000J0D01*
G01*
X35314385Y72734385D01*
G75*
G02*
X35239385Y72809385I0J75000D01*
G01*
X35239385Y72959385D01*
G75*
G02*
X35314385Y73034385I75000J0D01*
G01*
X36614385Y73034385D01*
G75*
G02*
X36689385Y72959385I0J-75000D01*
G01*
G37*
G36*
G01*
X76628385Y89052985D02*
X76628385Y88152985D01*
G75*
G02*
X76378385Y87902985I-250000J0D01*
G01*
X75853385Y87902985D01*
G75*
G02*
X75603385Y88152985I0J250000D01*
G01*
X75603385Y89052985D01*
G75*
G02*
X75853385Y89302985I250000J0D01*
G01*
X76378385Y89302985D01*
G75*
G02*
X76628385Y89052985I0J-250000D01*
G01*
G37*
G36*
G01*
X74803385Y89052985D02*
X74803385Y88152985D01*
G75*
G02*
X74553385Y87902985I-250000J0D01*
G01*
X74028385Y87902985D01*
G75*
G02*
X73778385Y88152985I0J250000D01*
G01*
X73778385Y89052985D01*
G75*
G02*
X74028385Y89302985I250000J0D01*
G01*
X74553385Y89302985D01*
G75*
G02*
X74803385Y89052985I0J-250000D01*
G01*
G37*
G36*
G01*
X91484385Y51866885D02*
X90584385Y51866885D01*
G75*
G02*
X90334385Y52116885I0J250000D01*
G01*
X90334385Y52641885D01*
G75*
G02*
X90584385Y52891885I250000J0D01*
G01*
X91484385Y52891885D01*
G75*
G02*
X91734385Y52641885I0J-250000D01*
G01*
X91734385Y52116885D01*
G75*
G02*
X91484385Y51866885I-250000J0D01*
G01*
G37*
G36*
G01*
X91484385Y53691885D02*
X90584385Y53691885D01*
G75*
G02*
X90334385Y53941885I0J250000D01*
G01*
X90334385Y54466885D01*
G75*
G02*
X90584385Y54716885I250000J0D01*
G01*
X91484385Y54716885D01*
G75*
G02*
X91734385Y54466885I0J-250000D01*
G01*
X91734385Y53941885D01*
G75*
G02*
X91484385Y53691885I-250000J0D01*
G01*
G37*
G36*
X79544385Y55344385D02*
G01*
X79544385Y54844385D01*
X79540107Y54844385D01*
X79540107Y54779122D01*
X79506325Y54653043D01*
X79441062Y54540004D01*
X79348766Y54447708D01*
X79235727Y54382445D01*
X79109648Y54348663D01*
X79044385Y54348663D01*
X79044385Y54344385D01*
X78544385Y54344385D01*
X78544385Y54348663D01*
X78479122Y54348663D01*
X78353043Y54382445D01*
X78240004Y54447708D01*
X78147708Y54540004D01*
X78082445Y54653043D01*
X78048663Y54779122D01*
X78048663Y54844385D01*
X78044385Y54844385D01*
X78044385Y55344385D01*
X79544385Y55344385D01*
G37*
G36*
X78048663Y56144385D02*
G01*
X78048663Y56209648D01*
X78082445Y56335727D01*
X78147708Y56448766D01*
X78240004Y56541062D01*
X78353043Y56606325D01*
X78479122Y56640107D01*
X78544385Y56640107D01*
X78544385Y56644385D01*
X79044385Y56644385D01*
X79044385Y56640107D01*
X79109648Y56640107D01*
X79235727Y56606325D01*
X79348766Y56541062D01*
X79441062Y56448766D01*
X79506325Y56335727D01*
X79540107Y56209648D01*
X79540107Y56144385D01*
X79544385Y56144385D01*
X79544385Y55644385D01*
X78044385Y55644385D01*
X78044385Y56144385D01*
X78048663Y56144385D01*
G37*
G36*
X77044385Y55344385D02*
G01*
X77044385Y54844385D01*
X77040107Y54844385D01*
X77040107Y54779122D01*
X77006325Y54653043D01*
X76941062Y54540004D01*
X76848766Y54447708D01*
X76735727Y54382445D01*
X76609648Y54348663D01*
X76544385Y54348663D01*
X76544385Y54344385D01*
X76044385Y54344385D01*
X76044385Y54348663D01*
X75979122Y54348663D01*
X75853043Y54382445D01*
X75740004Y54447708D01*
X75647708Y54540004D01*
X75582445Y54653043D01*
X75548663Y54779122D01*
X75548663Y54844385D01*
X75544385Y54844385D01*
X75544385Y55344385D01*
X77044385Y55344385D01*
G37*
G36*
X75548663Y56144385D02*
G01*
X75548663Y56209648D01*
X75582445Y56335727D01*
X75647708Y56448766D01*
X75740004Y56541062D01*
X75853043Y56606325D01*
X75979122Y56640107D01*
X76044385Y56640107D01*
X76044385Y56644385D01*
X76544385Y56644385D01*
X76544385Y56640107D01*
X76609648Y56640107D01*
X76735727Y56606325D01*
X76848766Y56541062D01*
X76941062Y56448766D01*
X77006325Y56335727D01*
X77040107Y56209648D01*
X77040107Y56144385D01*
X77044385Y56144385D01*
X77044385Y55644385D01*
X75544385Y55644385D01*
X75544385Y56144385D01*
X75548663Y56144385D01*
G37*
G36*
G01*
X43414385Y84949385D02*
X42514385Y84949385D01*
G75*
G02*
X42264385Y85199385I0J250000D01*
G01*
X42264385Y85724385D01*
G75*
G02*
X42514385Y85974385I250000J0D01*
G01*
X43414385Y85974385D01*
G75*
G02*
X43664385Y85724385I0J-250000D01*
G01*
X43664385Y85199385D01*
G75*
G02*
X43414385Y84949385I-250000J0D01*
G01*
G37*
G36*
G01*
X43414385Y86774385D02*
X42514385Y86774385D01*
G75*
G02*
X42264385Y87024385I0J250000D01*
G01*
X42264385Y87549385D01*
G75*
G02*
X42514385Y87799385I250000J0D01*
G01*
X43414385Y87799385D01*
G75*
G02*
X43664385Y87549385I0J-250000D01*
G01*
X43664385Y87024385D01*
G75*
G02*
X43414385Y86774385I-250000J0D01*
G01*
G37*
G36*
G01*
X86844385Y81519385D02*
X86744385Y81519385D01*
G75*
G02*
X86694385Y81569385I0J50000D01*
G01*
X86694385Y82344385D01*
G75*
G02*
X86744385Y82394385I50000J0D01*
G01*
X86844385Y82394385D01*
G75*
G02*
X86894385Y82344385I0J-50000D01*
G01*
X86894385Y81569385D01*
G75*
G02*
X86844385Y81519385I-50000J0D01*
G01*
G37*
G36*
G01*
X87244385Y81519385D02*
X87144385Y81519385D01*
G75*
G02*
X87094385Y81569385I0J50000D01*
G01*
X87094385Y82344385D01*
G75*
G02*
X87144385Y82394385I50000J0D01*
G01*
X87244385Y82394385D01*
G75*
G02*
X87294385Y82344385I0J-50000D01*
G01*
X87294385Y81569385D01*
G75*
G02*
X87244385Y81519385I-50000J0D01*
G01*
G37*
G36*
G01*
X87644385Y81519385D02*
X87544385Y81519385D01*
G75*
G02*
X87494385Y81569385I0J50000D01*
G01*
X87494385Y82344385D01*
G75*
G02*
X87544385Y82394385I50000J0D01*
G01*
X87644385Y82394385D01*
G75*
G02*
X87694385Y82344385I0J-50000D01*
G01*
X87694385Y81569385D01*
G75*
G02*
X87644385Y81519385I-50000J0D01*
G01*
G37*
G36*
G01*
X88044385Y81519385D02*
X87944385Y81519385D01*
G75*
G02*
X87894385Y81569385I0J50000D01*
G01*
X87894385Y82344385D01*
G75*
G02*
X87944385Y82394385I50000J0D01*
G01*
X88044385Y82394385D01*
G75*
G02*
X88094385Y82344385I0J-50000D01*
G01*
X88094385Y81569385D01*
G75*
G02*
X88044385Y81519385I-50000J0D01*
G01*
G37*
G36*
G01*
X88444385Y81519385D02*
X88344385Y81519385D01*
G75*
G02*
X88294385Y81569385I0J50000D01*
G01*
X88294385Y82344385D01*
G75*
G02*
X88344385Y82394385I50000J0D01*
G01*
X88444385Y82394385D01*
G75*
G02*
X88494385Y82344385I0J-50000D01*
G01*
X88494385Y81569385D01*
G75*
G02*
X88444385Y81519385I-50000J0D01*
G01*
G37*
G36*
G01*
X88844385Y81519385D02*
X88744385Y81519385D01*
G75*
G02*
X88694385Y81569385I0J50000D01*
G01*
X88694385Y82344385D01*
G75*
G02*
X88744385Y82394385I50000J0D01*
G01*
X88844385Y82394385D01*
G75*
G02*
X88894385Y82344385I0J-50000D01*
G01*
X88894385Y81569385D01*
G75*
G02*
X88844385Y81519385I-50000J0D01*
G01*
G37*
G36*
G01*
X89244385Y81519385D02*
X89144385Y81519385D01*
G75*
G02*
X89094385Y81569385I0J50000D01*
G01*
X89094385Y82344385D01*
G75*
G02*
X89144385Y82394385I50000J0D01*
G01*
X89244385Y82394385D01*
G75*
G02*
X89294385Y82344385I0J-50000D01*
G01*
X89294385Y81569385D01*
G75*
G02*
X89244385Y81519385I-50000J0D01*
G01*
G37*
G36*
G01*
X89644385Y81519385D02*
X89544385Y81519385D01*
G75*
G02*
X89494385Y81569385I0J50000D01*
G01*
X89494385Y82344385D01*
G75*
G02*
X89544385Y82394385I50000J0D01*
G01*
X89644385Y82394385D01*
G75*
G02*
X89694385Y82344385I0J-50000D01*
G01*
X89694385Y81569385D01*
G75*
G02*
X89644385Y81519385I-50000J0D01*
G01*
G37*
G36*
G01*
X90044385Y81519385D02*
X89944385Y81519385D01*
G75*
G02*
X89894385Y81569385I0J50000D01*
G01*
X89894385Y82344385D01*
G75*
G02*
X89944385Y82394385I50000J0D01*
G01*
X90044385Y82394385D01*
G75*
G02*
X90094385Y82344385I0J-50000D01*
G01*
X90094385Y81569385D01*
G75*
G02*
X90044385Y81519385I-50000J0D01*
G01*
G37*
G36*
G01*
X90444385Y81519385D02*
X90344385Y81519385D01*
G75*
G02*
X90294385Y81569385I0J50000D01*
G01*
X90294385Y82344385D01*
G75*
G02*
X90344385Y82394385I50000J0D01*
G01*
X90444385Y82394385D01*
G75*
G02*
X90494385Y82344385I0J-50000D01*
G01*
X90494385Y81569385D01*
G75*
G02*
X90444385Y81519385I-50000J0D01*
G01*
G37*
G36*
G01*
X90844385Y81519385D02*
X90744385Y81519385D01*
G75*
G02*
X90694385Y81569385I0J50000D01*
G01*
X90694385Y82344385D01*
G75*
G02*
X90744385Y82394385I50000J0D01*
G01*
X90844385Y82394385D01*
G75*
G02*
X90894385Y82344385I0J-50000D01*
G01*
X90894385Y81569385D01*
G75*
G02*
X90844385Y81519385I-50000J0D01*
G01*
G37*
G36*
G01*
X91244385Y81519385D02*
X91144385Y81519385D01*
G75*
G02*
X91094385Y81569385I0J50000D01*
G01*
X91094385Y82344385D01*
G75*
G02*
X91144385Y82394385I50000J0D01*
G01*
X91244385Y82394385D01*
G75*
G02*
X91294385Y82344385I0J-50000D01*
G01*
X91294385Y81569385D01*
G75*
G02*
X91244385Y81519385I-50000J0D01*
G01*
G37*
G36*
G01*
X91644385Y81519385D02*
X91544385Y81519385D01*
G75*
G02*
X91494385Y81569385I0J50000D01*
G01*
X91494385Y82344385D01*
G75*
G02*
X91544385Y82394385I50000J0D01*
G01*
X91644385Y82394385D01*
G75*
G02*
X91694385Y82344385I0J-50000D01*
G01*
X91694385Y81569385D01*
G75*
G02*
X91644385Y81519385I-50000J0D01*
G01*
G37*
G36*
G01*
X92044385Y81519385D02*
X91944385Y81519385D01*
G75*
G02*
X91894385Y81569385I0J50000D01*
G01*
X91894385Y82344385D01*
G75*
G02*
X91944385Y82394385I50000J0D01*
G01*
X92044385Y82394385D01*
G75*
G02*
X92094385Y82344385I0J-50000D01*
G01*
X92094385Y81569385D01*
G75*
G02*
X92044385Y81519385I-50000J0D01*
G01*
G37*
G36*
G01*
X93219385Y82694385D02*
X92444385Y82694385D01*
G75*
G02*
X92394385Y82744385I0J50000D01*
G01*
X92394385Y82844385D01*
G75*
G02*
X92444385Y82894385I50000J0D01*
G01*
X93219385Y82894385D01*
G75*
G02*
X93269385Y82844385I0J-50000D01*
G01*
X93269385Y82744385D01*
G75*
G02*
X93219385Y82694385I-50000J0D01*
G01*
G37*
G36*
G01*
X93219385Y83094385D02*
X92444385Y83094385D01*
G75*
G02*
X92394385Y83144385I0J50000D01*
G01*
X92394385Y83244385D01*
G75*
G02*
X92444385Y83294385I50000J0D01*
G01*
X93219385Y83294385D01*
G75*
G02*
X93269385Y83244385I0J-50000D01*
G01*
X93269385Y83144385D01*
G75*
G02*
X93219385Y83094385I-50000J0D01*
G01*
G37*
G36*
G01*
X93219385Y83494385D02*
X92444385Y83494385D01*
G75*
G02*
X92394385Y83544385I0J50000D01*
G01*
X92394385Y83644385D01*
G75*
G02*
X92444385Y83694385I50000J0D01*
G01*
X93219385Y83694385D01*
G75*
G02*
X93269385Y83644385I0J-50000D01*
G01*
X93269385Y83544385D01*
G75*
G02*
X93219385Y83494385I-50000J0D01*
G01*
G37*
G36*
G01*
X93219385Y83894385D02*
X92444385Y83894385D01*
G75*
G02*
X92394385Y83944385I0J50000D01*
G01*
X92394385Y84044385D01*
G75*
G02*
X92444385Y84094385I50000J0D01*
G01*
X93219385Y84094385D01*
G75*
G02*
X93269385Y84044385I0J-50000D01*
G01*
X93269385Y83944385D01*
G75*
G02*
X93219385Y83894385I-50000J0D01*
G01*
G37*
G36*
G01*
X93219385Y84294385D02*
X92444385Y84294385D01*
G75*
G02*
X92394385Y84344385I0J50000D01*
G01*
X92394385Y84444385D01*
G75*
G02*
X92444385Y84494385I50000J0D01*
G01*
X93219385Y84494385D01*
G75*
G02*
X93269385Y84444385I0J-50000D01*
G01*
X93269385Y84344385D01*
G75*
G02*
X93219385Y84294385I-50000J0D01*
G01*
G37*
G36*
G01*
X93219385Y84694385D02*
X92444385Y84694385D01*
G75*
G02*
X92394385Y84744385I0J50000D01*
G01*
X92394385Y84844385D01*
G75*
G02*
X92444385Y84894385I50000J0D01*
G01*
X93219385Y84894385D01*
G75*
G02*
X93269385Y84844385I0J-50000D01*
G01*
X93269385Y84744385D01*
G75*
G02*
X93219385Y84694385I-50000J0D01*
G01*
G37*
G36*
G01*
X93219385Y85094385D02*
X92444385Y85094385D01*
G75*
G02*
X92394385Y85144385I0J50000D01*
G01*
X92394385Y85244385D01*
G75*
G02*
X92444385Y85294385I50000J0D01*
G01*
X93219385Y85294385D01*
G75*
G02*
X93269385Y85244385I0J-50000D01*
G01*
X93269385Y85144385D01*
G75*
G02*
X93219385Y85094385I-50000J0D01*
G01*
G37*
G36*
G01*
X93219385Y85494385D02*
X92444385Y85494385D01*
G75*
G02*
X92394385Y85544385I0J50000D01*
G01*
X92394385Y85644385D01*
G75*
G02*
X92444385Y85694385I50000J0D01*
G01*
X93219385Y85694385D01*
G75*
G02*
X93269385Y85644385I0J-50000D01*
G01*
X93269385Y85544385D01*
G75*
G02*
X93219385Y85494385I-50000J0D01*
G01*
G37*
G36*
G01*
X93219385Y85894385D02*
X92444385Y85894385D01*
G75*
G02*
X92394385Y85944385I0J50000D01*
G01*
X92394385Y86044385D01*
G75*
G02*
X92444385Y86094385I50000J0D01*
G01*
X93219385Y86094385D01*
G75*
G02*
X93269385Y86044385I0J-50000D01*
G01*
X93269385Y85944385D01*
G75*
G02*
X93219385Y85894385I-50000J0D01*
G01*
G37*
G36*
G01*
X93219385Y86294385D02*
X92444385Y86294385D01*
G75*
G02*
X92394385Y86344385I0J50000D01*
G01*
X92394385Y86444385D01*
G75*
G02*
X92444385Y86494385I50000J0D01*
G01*
X93219385Y86494385D01*
G75*
G02*
X93269385Y86444385I0J-50000D01*
G01*
X93269385Y86344385D01*
G75*
G02*
X93219385Y86294385I-50000J0D01*
G01*
G37*
G36*
G01*
X93219385Y86694385D02*
X92444385Y86694385D01*
G75*
G02*
X92394385Y86744385I0J50000D01*
G01*
X92394385Y86844385D01*
G75*
G02*
X92444385Y86894385I50000J0D01*
G01*
X93219385Y86894385D01*
G75*
G02*
X93269385Y86844385I0J-50000D01*
G01*
X93269385Y86744385D01*
G75*
G02*
X93219385Y86694385I-50000J0D01*
G01*
G37*
G36*
G01*
X93219385Y87094385D02*
X92444385Y87094385D01*
G75*
G02*
X92394385Y87144385I0J50000D01*
G01*
X92394385Y87244385D01*
G75*
G02*
X92444385Y87294385I50000J0D01*
G01*
X93219385Y87294385D01*
G75*
G02*
X93269385Y87244385I0J-50000D01*
G01*
X93269385Y87144385D01*
G75*
G02*
X93219385Y87094385I-50000J0D01*
G01*
G37*
G36*
G01*
X93219385Y87494385D02*
X92444385Y87494385D01*
G75*
G02*
X92394385Y87544385I0J50000D01*
G01*
X92394385Y87644385D01*
G75*
G02*
X92444385Y87694385I50000J0D01*
G01*
X93219385Y87694385D01*
G75*
G02*
X93269385Y87644385I0J-50000D01*
G01*
X93269385Y87544385D01*
G75*
G02*
X93219385Y87494385I-50000J0D01*
G01*
G37*
G36*
G01*
X93219385Y87894385D02*
X92444385Y87894385D01*
G75*
G02*
X92394385Y87944385I0J50000D01*
G01*
X92394385Y88044385D01*
G75*
G02*
X92444385Y88094385I50000J0D01*
G01*
X93219385Y88094385D01*
G75*
G02*
X93269385Y88044385I0J-50000D01*
G01*
X93269385Y87944385D01*
G75*
G02*
X93219385Y87894385I-50000J0D01*
G01*
G37*
G36*
G01*
X92044385Y88394385D02*
X91944385Y88394385D01*
G75*
G02*
X91894385Y88444385I0J50000D01*
G01*
X91894385Y89219385D01*
G75*
G02*
X91944385Y89269385I50000J0D01*
G01*
X92044385Y89269385D01*
G75*
G02*
X92094385Y89219385I0J-50000D01*
G01*
X92094385Y88444385D01*
G75*
G02*
X92044385Y88394385I-50000J0D01*
G01*
G37*
G36*
G01*
X91644385Y88394385D02*
X91544385Y88394385D01*
G75*
G02*
X91494385Y88444385I0J50000D01*
G01*
X91494385Y89219385D01*
G75*
G02*
X91544385Y89269385I50000J0D01*
G01*
X91644385Y89269385D01*
G75*
G02*
X91694385Y89219385I0J-50000D01*
G01*
X91694385Y88444385D01*
G75*
G02*
X91644385Y88394385I-50000J0D01*
G01*
G37*
G36*
G01*
X91244385Y88394385D02*
X91144385Y88394385D01*
G75*
G02*
X91094385Y88444385I0J50000D01*
G01*
X91094385Y89219385D01*
G75*
G02*
X91144385Y89269385I50000J0D01*
G01*
X91244385Y89269385D01*
G75*
G02*
X91294385Y89219385I0J-50000D01*
G01*
X91294385Y88444385D01*
G75*
G02*
X91244385Y88394385I-50000J0D01*
G01*
G37*
G36*
G01*
X90844385Y88394385D02*
X90744385Y88394385D01*
G75*
G02*
X90694385Y88444385I0J50000D01*
G01*
X90694385Y89219385D01*
G75*
G02*
X90744385Y89269385I50000J0D01*
G01*
X90844385Y89269385D01*
G75*
G02*
X90894385Y89219385I0J-50000D01*
G01*
X90894385Y88444385D01*
G75*
G02*
X90844385Y88394385I-50000J0D01*
G01*
G37*
G36*
G01*
X90444385Y88394385D02*
X90344385Y88394385D01*
G75*
G02*
X90294385Y88444385I0J50000D01*
G01*
X90294385Y89219385D01*
G75*
G02*
X90344385Y89269385I50000J0D01*
G01*
X90444385Y89269385D01*
G75*
G02*
X90494385Y89219385I0J-50000D01*
G01*
X90494385Y88444385D01*
G75*
G02*
X90444385Y88394385I-50000J0D01*
G01*
G37*
G36*
G01*
X90044385Y88394385D02*
X89944385Y88394385D01*
G75*
G02*
X89894385Y88444385I0J50000D01*
G01*
X89894385Y89219385D01*
G75*
G02*
X89944385Y89269385I50000J0D01*
G01*
X90044385Y89269385D01*
G75*
G02*
X90094385Y89219385I0J-50000D01*
G01*
X90094385Y88444385D01*
G75*
G02*
X90044385Y88394385I-50000J0D01*
G01*
G37*
G36*
G01*
X89644385Y88394385D02*
X89544385Y88394385D01*
G75*
G02*
X89494385Y88444385I0J50000D01*
G01*
X89494385Y89219385D01*
G75*
G02*
X89544385Y89269385I50000J0D01*
G01*
X89644385Y89269385D01*
G75*
G02*
X89694385Y89219385I0J-50000D01*
G01*
X89694385Y88444385D01*
G75*
G02*
X89644385Y88394385I-50000J0D01*
G01*
G37*
G36*
G01*
X89244385Y88394385D02*
X89144385Y88394385D01*
G75*
G02*
X89094385Y88444385I0J50000D01*
G01*
X89094385Y89219385D01*
G75*
G02*
X89144385Y89269385I50000J0D01*
G01*
X89244385Y89269385D01*
G75*
G02*
X89294385Y89219385I0J-50000D01*
G01*
X89294385Y88444385D01*
G75*
G02*
X89244385Y88394385I-50000J0D01*
G01*
G37*
G36*
G01*
X88844385Y88394385D02*
X88744385Y88394385D01*
G75*
G02*
X88694385Y88444385I0J50000D01*
G01*
X88694385Y89219385D01*
G75*
G02*
X88744385Y89269385I50000J0D01*
G01*
X88844385Y89269385D01*
G75*
G02*
X88894385Y89219385I0J-50000D01*
G01*
X88894385Y88444385D01*
G75*
G02*
X88844385Y88394385I-50000J0D01*
G01*
G37*
G36*
G01*
X88444385Y88394385D02*
X88344385Y88394385D01*
G75*
G02*
X88294385Y88444385I0J50000D01*
G01*
X88294385Y89219385D01*
G75*
G02*
X88344385Y89269385I50000J0D01*
G01*
X88444385Y89269385D01*
G75*
G02*
X88494385Y89219385I0J-50000D01*
G01*
X88494385Y88444385D01*
G75*
G02*
X88444385Y88394385I-50000J0D01*
G01*
G37*
G36*
G01*
X88044385Y88394385D02*
X87944385Y88394385D01*
G75*
G02*
X87894385Y88444385I0J50000D01*
G01*
X87894385Y89219385D01*
G75*
G02*
X87944385Y89269385I50000J0D01*
G01*
X88044385Y89269385D01*
G75*
G02*
X88094385Y89219385I0J-50000D01*
G01*
X88094385Y88444385D01*
G75*
G02*
X88044385Y88394385I-50000J0D01*
G01*
G37*
G36*
G01*
X87644385Y88394385D02*
X87544385Y88394385D01*
G75*
G02*
X87494385Y88444385I0J50000D01*
G01*
X87494385Y89219385D01*
G75*
G02*
X87544385Y89269385I50000J0D01*
G01*
X87644385Y89269385D01*
G75*
G02*
X87694385Y89219385I0J-50000D01*
G01*
X87694385Y88444385D01*
G75*
G02*
X87644385Y88394385I-50000J0D01*
G01*
G37*
G36*
G01*
X87244385Y88394385D02*
X87144385Y88394385D01*
G75*
G02*
X87094385Y88444385I0J50000D01*
G01*
X87094385Y89219385D01*
G75*
G02*
X87144385Y89269385I50000J0D01*
G01*
X87244385Y89269385D01*
G75*
G02*
X87294385Y89219385I0J-50000D01*
G01*
X87294385Y88444385D01*
G75*
G02*
X87244385Y88394385I-50000J0D01*
G01*
G37*
G36*
G01*
X86844385Y88394385D02*
X86744385Y88394385D01*
G75*
G02*
X86694385Y88444385I0J50000D01*
G01*
X86694385Y89219385D01*
G75*
G02*
X86744385Y89269385I50000J0D01*
G01*
X86844385Y89269385D01*
G75*
G02*
X86894385Y89219385I0J-50000D01*
G01*
X86894385Y88444385D01*
G75*
G02*
X86844385Y88394385I-50000J0D01*
G01*
G37*
G36*
G01*
X86344385Y87894385D02*
X85569385Y87894385D01*
G75*
G02*
X85519385Y87944385I0J50000D01*
G01*
X85519385Y88044385D01*
G75*
G02*
X85569385Y88094385I50000J0D01*
G01*
X86344385Y88094385D01*
G75*
G02*
X86394385Y88044385I0J-50000D01*
G01*
X86394385Y87944385D01*
G75*
G02*
X86344385Y87894385I-50000J0D01*
G01*
G37*
G36*
G01*
X86344385Y87494385D02*
X85569385Y87494385D01*
G75*
G02*
X85519385Y87544385I0J50000D01*
G01*
X85519385Y87644385D01*
G75*
G02*
X85569385Y87694385I50000J0D01*
G01*
X86344385Y87694385D01*
G75*
G02*
X86394385Y87644385I0J-50000D01*
G01*
X86394385Y87544385D01*
G75*
G02*
X86344385Y87494385I-50000J0D01*
G01*
G37*
G36*
G01*
X86344385Y87094385D02*
X85569385Y87094385D01*
G75*
G02*
X85519385Y87144385I0J50000D01*
G01*
X85519385Y87244385D01*
G75*
G02*
X85569385Y87294385I50000J0D01*
G01*
X86344385Y87294385D01*
G75*
G02*
X86394385Y87244385I0J-50000D01*
G01*
X86394385Y87144385D01*
G75*
G02*
X86344385Y87094385I-50000J0D01*
G01*
G37*
G36*
G01*
X86344385Y86694385D02*
X85569385Y86694385D01*
G75*
G02*
X85519385Y86744385I0J50000D01*
G01*
X85519385Y86844385D01*
G75*
G02*
X85569385Y86894385I50000J0D01*
G01*
X86344385Y86894385D01*
G75*
G02*
X86394385Y86844385I0J-50000D01*
G01*
X86394385Y86744385D01*
G75*
G02*
X86344385Y86694385I-50000J0D01*
G01*
G37*
G36*
G01*
X86344385Y86294385D02*
X85569385Y86294385D01*
G75*
G02*
X85519385Y86344385I0J50000D01*
G01*
X85519385Y86444385D01*
G75*
G02*
X85569385Y86494385I50000J0D01*
G01*
X86344385Y86494385D01*
G75*
G02*
X86394385Y86444385I0J-50000D01*
G01*
X86394385Y86344385D01*
G75*
G02*
X86344385Y86294385I-50000J0D01*
G01*
G37*
G36*
G01*
X86344385Y85894385D02*
X85569385Y85894385D01*
G75*
G02*
X85519385Y85944385I0J50000D01*
G01*
X85519385Y86044385D01*
G75*
G02*
X85569385Y86094385I50000J0D01*
G01*
X86344385Y86094385D01*
G75*
G02*
X86394385Y86044385I0J-50000D01*
G01*
X86394385Y85944385D01*
G75*
G02*
X86344385Y85894385I-50000J0D01*
G01*
G37*
G36*
G01*
X86344385Y85494385D02*
X85569385Y85494385D01*
G75*
G02*
X85519385Y85544385I0J50000D01*
G01*
X85519385Y85644385D01*
G75*
G02*
X85569385Y85694385I50000J0D01*
G01*
X86344385Y85694385D01*
G75*
G02*
X86394385Y85644385I0J-50000D01*
G01*
X86394385Y85544385D01*
G75*
G02*
X86344385Y85494385I-50000J0D01*
G01*
G37*
G36*
G01*
X86344385Y85094385D02*
X85569385Y85094385D01*
G75*
G02*
X85519385Y85144385I0J50000D01*
G01*
X85519385Y85244385D01*
G75*
G02*
X85569385Y85294385I50000J0D01*
G01*
X86344385Y85294385D01*
G75*
G02*
X86394385Y85244385I0J-50000D01*
G01*
X86394385Y85144385D01*
G75*
G02*
X86344385Y85094385I-50000J0D01*
G01*
G37*
G36*
G01*
X86344385Y84694385D02*
X85569385Y84694385D01*
G75*
G02*
X85519385Y84744385I0J50000D01*
G01*
X85519385Y84844385D01*
G75*
G02*
X85569385Y84894385I50000J0D01*
G01*
X86344385Y84894385D01*
G75*
G02*
X86394385Y84844385I0J-50000D01*
G01*
X86394385Y84744385D01*
G75*
G02*
X86344385Y84694385I-50000J0D01*
G01*
G37*
G36*
G01*
X86344385Y84294385D02*
X85569385Y84294385D01*
G75*
G02*
X85519385Y84344385I0J50000D01*
G01*
X85519385Y84444385D01*
G75*
G02*
X85569385Y84494385I50000J0D01*
G01*
X86344385Y84494385D01*
G75*
G02*
X86394385Y84444385I0J-50000D01*
G01*
X86394385Y84344385D01*
G75*
G02*
X86344385Y84294385I-50000J0D01*
G01*
G37*
G36*
G01*
X86344385Y83894385D02*
X85569385Y83894385D01*
G75*
G02*
X85519385Y83944385I0J50000D01*
G01*
X85519385Y84044385D01*
G75*
G02*
X85569385Y84094385I50000J0D01*
G01*
X86344385Y84094385D01*
G75*
G02*
X86394385Y84044385I0J-50000D01*
G01*
X86394385Y83944385D01*
G75*
G02*
X86344385Y83894385I-50000J0D01*
G01*
G37*
G36*
G01*
X86344385Y83494385D02*
X85569385Y83494385D01*
G75*
G02*
X85519385Y83544385I0J50000D01*
G01*
X85519385Y83644385D01*
G75*
G02*
X85569385Y83694385I50000J0D01*
G01*
X86344385Y83694385D01*
G75*
G02*
X86394385Y83644385I0J-50000D01*
G01*
X86394385Y83544385D01*
G75*
G02*
X86344385Y83494385I-50000J0D01*
G01*
G37*
G36*
G01*
X86344385Y83094385D02*
X85569385Y83094385D01*
G75*
G02*
X85519385Y83144385I0J50000D01*
G01*
X85519385Y83244385D01*
G75*
G02*
X85569385Y83294385I50000J0D01*
G01*
X86344385Y83294385D01*
G75*
G02*
X86394385Y83244385I0J-50000D01*
G01*
X86394385Y83144385D01*
G75*
G02*
X86344385Y83094385I-50000J0D01*
G01*
G37*
G36*
G01*
X86344385Y82694385D02*
X85569385Y82694385D01*
G75*
G02*
X85519385Y82744385I0J50000D01*
G01*
X85519385Y82844385D01*
G75*
G02*
X85569385Y82894385I50000J0D01*
G01*
X86344385Y82894385D01*
G75*
G02*
X86394385Y82844385I0J-50000D01*
G01*
X86394385Y82744385D01*
G75*
G02*
X86344385Y82694385I-50000J0D01*
G01*
G37*
G36*
G01*
X90850385Y83794385D02*
X87938385Y83794385D01*
G75*
G02*
X87794385Y83938385I0J144000D01*
G01*
X87794385Y86850385D01*
G75*
G02*
X87938385Y86994385I144000J0D01*
G01*
X90850385Y86994385D01*
G75*
G02*
X90994385Y86850385I0J-144000D01*
G01*
X90994385Y83938385D01*
G75*
G02*
X90850385Y83794385I-144000J0D01*
G01*
G37*
G36*
G01*
X34964385Y71169385D02*
X34964385Y70219385D01*
G75*
G02*
X34714385Y69969385I-250000J0D01*
G01*
X34214385Y69969385D01*
G75*
G02*
X33964385Y70219385I0J250000D01*
G01*
X33964385Y71169385D01*
G75*
G02*
X34214385Y71419385I250000J0D01*
G01*
X34714385Y71419385D01*
G75*
G02*
X34964385Y71169385I0J-250000D01*
G01*
G37*
G36*
G01*
X33064385Y71169385D02*
X33064385Y70219385D01*
G75*
G02*
X32814385Y69969385I-250000J0D01*
G01*
X32314385Y69969385D01*
G75*
G02*
X32064385Y70219385I0J250000D01*
G01*
X32064385Y71169385D01*
G75*
G02*
X32314385Y71419385I250000J0D01*
G01*
X32814385Y71419385D01*
G75*
G02*
X33064385Y71169385I0J-250000D01*
G01*
G37*
G36*
G01*
X86628135Y54666885D02*
X87540635Y54666885D01*
G75*
G02*
X87784385Y54423135I0J-243750D01*
G01*
X87784385Y53935635D01*
G75*
G02*
X87540635Y53691885I-243750J0D01*
G01*
X86628135Y53691885D01*
G75*
G02*
X86384385Y53935635I0J243750D01*
G01*
X86384385Y54423135D01*
G75*
G02*
X86628135Y54666885I243750J0D01*
G01*
G37*
G36*
G01*
X86628135Y52791885D02*
X87540635Y52791885D01*
G75*
G02*
X87784385Y52548135I0J-243750D01*
G01*
X87784385Y52060635D01*
G75*
G02*
X87540635Y51816885I-243750J0D01*
G01*
X86628135Y51816885D01*
G75*
G02*
X86384385Y52060635I0J243750D01*
G01*
X86384385Y52548135D01*
G75*
G02*
X86628135Y52791885I243750J0D01*
G01*
G37*
G36*
G01*
X53082585Y78525585D02*
X53082585Y77575585D01*
G75*
G02*
X52832585Y77325585I-250000J0D01*
G01*
X52332585Y77325585D01*
G75*
G02*
X52082585Y77575585I0J250000D01*
G01*
X52082585Y78525585D01*
G75*
G02*
X52332585Y78775585I250000J0D01*
G01*
X52832585Y78775585D01*
G75*
G02*
X53082585Y78525585I0J-250000D01*
G01*
G37*
G36*
G01*
X51182585Y78525585D02*
X51182585Y77575585D01*
G75*
G02*
X50932585Y77325585I-250000J0D01*
G01*
X50432585Y77325585D01*
G75*
G02*
X50182585Y77575585I0J250000D01*
G01*
X50182585Y78525585D01*
G75*
G02*
X50432585Y78775585I250000J0D01*
G01*
X50932585Y78775585D01*
G75*
G02*
X51182585Y78525585I0J-250000D01*
G01*
G37*
G36*
G01*
X108674385Y82019385D02*
X108674385Y81069385D01*
G75*
G02*
X108424385Y80819385I-250000J0D01*
G01*
X107924385Y80819385D01*
G75*
G02*
X107674385Y81069385I0J250000D01*
G01*
X107674385Y82019385D01*
G75*
G02*
X107924385Y82269385I250000J0D01*
G01*
X108424385Y82269385D01*
G75*
G02*
X108674385Y82019385I0J-250000D01*
G01*
G37*
G36*
G01*
X106774385Y82019385D02*
X106774385Y81069385D01*
G75*
G02*
X106524385Y80819385I-250000J0D01*
G01*
X106024385Y80819385D01*
G75*
G02*
X105774385Y81069385I0J250000D01*
G01*
X105774385Y82019385D01*
G75*
G02*
X106024385Y82269385I250000J0D01*
G01*
X106524385Y82269385D01*
G75*
G02*
X106774385Y82019385I0J-250000D01*
G01*
G37*
G36*
G01*
X141754385Y94809385D02*
X141754385Y95759385D01*
G75*
G02*
X142004385Y96009385I250000J0D01*
G01*
X142504385Y96009385D01*
G75*
G02*
X142754385Y95759385I0J-250000D01*
G01*
X142754385Y94809385D01*
G75*
G02*
X142504385Y94559385I-250000J0D01*
G01*
X142004385Y94559385D01*
G75*
G02*
X141754385Y94809385I0J250000D01*
G01*
G37*
G36*
G01*
X143654385Y94809385D02*
X143654385Y95759385D01*
G75*
G02*
X143904385Y96009385I250000J0D01*
G01*
X144404385Y96009385D01*
G75*
G02*
X144654385Y95759385I0J-250000D01*
G01*
X144654385Y94809385D01*
G75*
G02*
X144404385Y94559385I-250000J0D01*
G01*
X143904385Y94559385D01*
G75*
G02*
X143654385Y94809385I0J250000D01*
G01*
G37*
G36*
G01*
X133169385Y88494385D02*
X133169385Y87594385D01*
G75*
G02*
X132919385Y87344385I-250000J0D01*
G01*
X132394385Y87344385D01*
G75*
G02*
X132144385Y87594385I0J250000D01*
G01*
X132144385Y88494385D01*
G75*
G02*
X132394385Y88744385I250000J0D01*
G01*
X132919385Y88744385D01*
G75*
G02*
X133169385Y88494385I0J-250000D01*
G01*
G37*
G36*
G01*
X131344385Y88494385D02*
X131344385Y87594385D01*
G75*
G02*
X131094385Y87344385I-250000J0D01*
G01*
X130569385Y87344385D01*
G75*
G02*
X130319385Y87594385I0J250000D01*
G01*
X130319385Y88494385D01*
G75*
G02*
X130569385Y88744385I250000J0D01*
G01*
X131094385Y88744385D01*
G75*
G02*
X131344385Y88494385I0J-250000D01*
G01*
G37*
G36*
G01*
X136354385Y82439385D02*
X135454385Y82439385D01*
G75*
G02*
X135204385Y82689385I0J250000D01*
G01*
X135204385Y83214385D01*
G75*
G02*
X135454385Y83464385I250000J0D01*
G01*
X136354385Y83464385D01*
G75*
G02*
X136604385Y83214385I0J-250000D01*
G01*
X136604385Y82689385D01*
G75*
G02*
X136354385Y82439385I-250000J0D01*
G01*
G37*
G36*
G01*
X136354385Y84264385D02*
X135454385Y84264385D01*
G75*
G02*
X135204385Y84514385I0J250000D01*
G01*
X135204385Y85039385D01*
G75*
G02*
X135454385Y85289385I250000J0D01*
G01*
X136354385Y85289385D01*
G75*
G02*
X136604385Y85039385I0J-250000D01*
G01*
X136604385Y84514385D01*
G75*
G02*
X136354385Y84264385I-250000J0D01*
G01*
G37*
G36*
G01*
X89284385Y91059385D02*
X89284385Y92009385D01*
G75*
G02*
X89534385Y92259385I250000J0D01*
G01*
X90034385Y92259385D01*
G75*
G02*
X90284385Y92009385I0J-250000D01*
G01*
X90284385Y91059385D01*
G75*
G02*
X90034385Y90809385I-250000J0D01*
G01*
X89534385Y90809385D01*
G75*
G02*
X89284385Y91059385I0J250000D01*
G01*
G37*
G36*
G01*
X91184385Y91059385D02*
X91184385Y92009385D01*
G75*
G02*
X91434385Y92259385I250000J0D01*
G01*
X91934385Y92259385D01*
G75*
G02*
X92184385Y92009385I0J-250000D01*
G01*
X92184385Y91059385D01*
G75*
G02*
X91934385Y90809385I-250000J0D01*
G01*
X91434385Y90809385D01*
G75*
G02*
X91184385Y91059385I0J250000D01*
G01*
G37*
G36*
G01*
X73778385Y86252985D02*
X73778385Y87152985D01*
G75*
G02*
X74028385Y87402985I250000J0D01*
G01*
X74553385Y87402985D01*
G75*
G02*
X74803385Y87152985I0J-250000D01*
G01*
X74803385Y86252985D01*
G75*
G02*
X74553385Y86002985I-250000J0D01*
G01*
X74028385Y86002985D01*
G75*
G02*
X73778385Y86252985I0J250000D01*
G01*
G37*
G36*
G01*
X75603385Y86252985D02*
X75603385Y87152985D01*
G75*
G02*
X75853385Y87402985I250000J0D01*
G01*
X76378385Y87402985D01*
G75*
G02*
X76628385Y87152985I0J-250000D01*
G01*
X76628385Y86252985D01*
G75*
G02*
X76378385Y86002985I-250000J0D01*
G01*
X75853385Y86002985D01*
G75*
G02*
X75603385Y86252985I0J250000D01*
G01*
G37*
G36*
G01*
X61559735Y91022985D02*
X62072235Y91022985D01*
G75*
G02*
X62290985Y90804235I0J-218750D01*
G01*
X62290985Y90366735D01*
G75*
G02*
X62072235Y90147985I-218750J0D01*
G01*
X61559735Y90147985D01*
G75*
G02*
X61340985Y90366735I0J218750D01*
G01*
X61340985Y90804235D01*
G75*
G02*
X61559735Y91022985I218750J0D01*
G01*
G37*
G36*
G01*
X61559735Y89447985D02*
X62072235Y89447985D01*
G75*
G02*
X62290985Y89229235I0J-218750D01*
G01*
X62290985Y88791735D01*
G75*
G02*
X62072235Y88572985I-218750J0D01*
G01*
X61559735Y88572985D01*
G75*
G02*
X61340985Y88791735I0J218750D01*
G01*
X61340985Y89229235D01*
G75*
G02*
X61559735Y89447985I218750J0D01*
G01*
G37*
G36*
G01*
X65355985Y91022985D02*
X65955985Y91022985D01*
G75*
G02*
X66205985Y90772985I0J-250000D01*
G01*
X66205985Y90172985D01*
G75*
G02*
X65955985Y89922985I-250000J0D01*
G01*
X65355985Y89922985D01*
G75*
G02*
X65105985Y90172985I0J250000D01*
G01*
X65105985Y90772985D01*
G75*
G02*
X65355985Y91022985I250000J0D01*
G01*
G37*
G36*
G01*
X65355985Y88222985D02*
X65955985Y88222985D01*
G75*
G02*
X66205985Y87972985I0J-250000D01*
G01*
X66205985Y87372985D01*
G75*
G02*
X65955985Y87122985I-250000J0D01*
G01*
X65355985Y87122985D01*
G75*
G02*
X65105985Y87372985I0J250000D01*
G01*
X65105985Y87972985D01*
G75*
G02*
X65355985Y88222985I250000J0D01*
G01*
G37*
G36*
G01*
X35874385Y99744385D02*
X35874385Y98744385D01*
G75*
G02*
X35624385Y98494385I-250000J0D01*
G01*
X34524385Y98494385D01*
G75*
G02*
X34274385Y98744385I0J250000D01*
G01*
X34274385Y99744385D01*
G75*
G02*
X34524385Y99994385I250000J0D01*
G01*
X35624385Y99994385D01*
G75*
G02*
X35874385Y99744385I0J-250000D01*
G01*
G37*
D37*
X32574385Y99244385D03*
X30574385Y99244385D03*
X28074385Y99244385D03*
D13*
X38144385Y101954385D03*
X25004385Y101954385D03*
G36*
G01*
X85634385Y92929385D02*
X85634385Y91979385D01*
G75*
G02*
X85384385Y91729385I-250000J0D01*
G01*
X84884385Y91729385D01*
G75*
G02*
X84634385Y91979385I0J250000D01*
G01*
X84634385Y92929385D01*
G75*
G02*
X84884385Y93179385I250000J0D01*
G01*
X85384385Y93179385D01*
G75*
G02*
X85634385Y92929385I0J-250000D01*
G01*
G37*
G36*
G01*
X83734385Y92929385D02*
X83734385Y91979385D01*
G75*
G02*
X83484385Y91729385I-250000J0D01*
G01*
X82984385Y91729385D01*
G75*
G02*
X82734385Y91979385I0J250000D01*
G01*
X82734385Y92929385D01*
G75*
G02*
X82984385Y93179385I250000J0D01*
G01*
X83484385Y93179385D01*
G75*
G02*
X83734385Y92929385I0J-250000D01*
G01*
G37*
G36*
G01*
X133641985Y105835585D02*
X132741985Y105835585D01*
G75*
G02*
X132491985Y106085585I0J250000D01*
G01*
X132491985Y106610585D01*
G75*
G02*
X132741985Y106860585I250000J0D01*
G01*
X133641985Y106860585D01*
G75*
G02*
X133891985Y106610585I0J-250000D01*
G01*
X133891985Y106085585D01*
G75*
G02*
X133641985Y105835585I-250000J0D01*
G01*
G37*
G36*
G01*
X133641985Y107660585D02*
X132741985Y107660585D01*
G75*
G02*
X132491985Y107910585I0J250000D01*
G01*
X132491985Y108435585D01*
G75*
G02*
X132741985Y108685585I250000J0D01*
G01*
X133641985Y108685585D01*
G75*
G02*
X133891985Y108435585I0J-250000D01*
G01*
X133891985Y107910585D01*
G75*
G02*
X133641985Y107660585I-250000J0D01*
G01*
G37*
G36*
G01*
X61790985Y87316735D02*
X61790985Y87829235D01*
G75*
G02*
X62009735Y88047985I218750J0D01*
G01*
X62447235Y88047985D01*
G75*
G02*
X62665985Y87829235I0J-218750D01*
G01*
X62665985Y87316735D01*
G75*
G02*
X62447235Y87097985I-218750J0D01*
G01*
X62009735Y87097985D01*
G75*
G02*
X61790985Y87316735I0J218750D01*
G01*
G37*
G36*
G01*
X63365985Y87316735D02*
X63365985Y87829235D01*
G75*
G02*
X63584735Y88047985I218750J0D01*
G01*
X64022235Y88047985D01*
G75*
G02*
X64240985Y87829235I0J-218750D01*
G01*
X64240985Y87316735D01*
G75*
G02*
X64022235Y87097985I-218750J0D01*
G01*
X63584735Y87097985D01*
G75*
G02*
X63365985Y87316735I0J218750D01*
G01*
G37*
G36*
G01*
X96644385Y80081685D02*
X96644385Y79131685D01*
G75*
G02*
X96394385Y78881685I-250000J0D01*
G01*
X95894385Y78881685D01*
G75*
G02*
X95644385Y79131685I0J250000D01*
G01*
X95644385Y80081685D01*
G75*
G02*
X95894385Y80331685I250000J0D01*
G01*
X96394385Y80331685D01*
G75*
G02*
X96644385Y80081685I0J-250000D01*
G01*
G37*
G36*
G01*
X94744385Y80081685D02*
X94744385Y79131685D01*
G75*
G02*
X94494385Y78881685I-250000J0D01*
G01*
X93994385Y78881685D01*
G75*
G02*
X93744385Y79131685I0J250000D01*
G01*
X93744385Y80081685D01*
G75*
G02*
X93994385Y80331685I250000J0D01*
G01*
X94494385Y80331685D01*
G75*
G02*
X94744385Y80081685I0J-250000D01*
G01*
G37*
G36*
G01*
X150764385Y104734385D02*
X150764385Y101834385D01*
G75*
G02*
X150514385Y101584385I-250000J0D01*
G01*
X149889385Y101584385D01*
G75*
G02*
X149639385Y101834385I0J250000D01*
G01*
X149639385Y104734385D01*
G75*
G02*
X149889385Y104984385I250000J0D01*
G01*
X150514385Y104984385D01*
G75*
G02*
X150764385Y104734385I0J-250000D01*
G01*
G37*
G36*
G01*
X146489385Y104734385D02*
X146489385Y101834385D01*
G75*
G02*
X146239385Y101584385I-250000J0D01*
G01*
X145614385Y101584385D01*
G75*
G02*
X145364385Y101834385I0J250000D01*
G01*
X145364385Y104734385D01*
G75*
G02*
X145614385Y104984385I250000J0D01*
G01*
X146239385Y104984385D01*
G75*
G02*
X146489385Y104734385I0J-250000D01*
G01*
G37*
G36*
G01*
X122294385Y75694385D02*
X117294385Y75694385D01*
G75*
G02*
X117044385Y75944385I0J250000D01*
G01*
X117044385Y76444385D01*
G75*
G02*
X117294385Y76694385I250000J0D01*
G01*
X122294385Y76694385D01*
G75*
G02*
X122544385Y76444385I0J-250000D01*
G01*
X122544385Y75944385D01*
G75*
G02*
X122294385Y75694385I-250000J0D01*
G01*
G37*
G36*
G01*
X122294385Y77694385D02*
X117294385Y77694385D01*
G75*
G02*
X117044385Y77944385I0J250000D01*
G01*
X117044385Y78444385D01*
G75*
G02*
X117294385Y78694385I250000J0D01*
G01*
X122294385Y78694385D01*
G75*
G02*
X122544385Y78444385I0J-250000D01*
G01*
X122544385Y77944385D01*
G75*
G02*
X122294385Y77694385I-250000J0D01*
G01*
G37*
G36*
G01*
X122294385Y79694385D02*
X117294385Y79694385D01*
G75*
G02*
X117044385Y79944385I0J250000D01*
G01*
X117044385Y80444385D01*
G75*
G02*
X117294385Y80694385I250000J0D01*
G01*
X122294385Y80694385D01*
G75*
G02*
X122544385Y80444385I0J-250000D01*
G01*
X122544385Y79944385D01*
G75*
G02*
X122294385Y79694385I-250000J0D01*
G01*
G37*
G36*
G01*
X118794385Y72994385D02*
X116294385Y72994385D01*
G75*
G02*
X116044385Y73244385I0J250000D01*
G01*
X116044385Y74344385D01*
G75*
G02*
X116294385Y74594385I250000J0D01*
G01*
X118794385Y74594385D01*
G75*
G02*
X119044385Y74344385I0J-250000D01*
G01*
X119044385Y73244385D01*
G75*
G02*
X118794385Y72994385I-250000J0D01*
G01*
G37*
G36*
G01*
X118794385Y81794385D02*
X116294385Y81794385D01*
G75*
G02*
X116044385Y82044385I0J250000D01*
G01*
X116044385Y83144385D01*
G75*
G02*
X116294385Y83394385I250000J0D01*
G01*
X118794385Y83394385D01*
G75*
G02*
X119044385Y83144385I0J-250000D01*
G01*
X119044385Y82044385D01*
G75*
G02*
X118794385Y81794385I-250000J0D01*
G01*
G37*
D24*
X154994385Y14494385D03*
X168994385Y14494385D03*
X154994385Y9494385D03*
X168994385Y9494385D03*
G36*
G01*
X79739385Y74144385D02*
X79439385Y74144385D01*
G75*
G02*
X79289385Y74294385I0J150000D01*
G01*
X79289385Y75594385D01*
G75*
G02*
X79439385Y75744385I150000J0D01*
G01*
X79739385Y75744385D01*
G75*
G02*
X79889385Y75594385I0J-150000D01*
G01*
X79889385Y74294385D01*
G75*
G02*
X79739385Y74144385I-150000J0D01*
G01*
G37*
G36*
G01*
X81009385Y74144385D02*
X80709385Y74144385D01*
G75*
G02*
X80559385Y74294385I0J150000D01*
G01*
X80559385Y75594385D01*
G75*
G02*
X80709385Y75744385I150000J0D01*
G01*
X81009385Y75744385D01*
G75*
G02*
X81159385Y75594385I0J-150000D01*
G01*
X81159385Y74294385D01*
G75*
G02*
X81009385Y74144385I-150000J0D01*
G01*
G37*
G36*
G01*
X82279385Y74144385D02*
X81979385Y74144385D01*
G75*
G02*
X81829385Y74294385I0J150000D01*
G01*
X81829385Y75594385D01*
G75*
G02*
X81979385Y75744385I150000J0D01*
G01*
X82279385Y75744385D01*
G75*
G02*
X82429385Y75594385I0J-150000D01*
G01*
X82429385Y74294385D01*
G75*
G02*
X82279385Y74144385I-150000J0D01*
G01*
G37*
G36*
G01*
X83549385Y74144385D02*
X83249385Y74144385D01*
G75*
G02*
X83099385Y74294385I0J150000D01*
G01*
X83099385Y75594385D01*
G75*
G02*
X83249385Y75744385I150000J0D01*
G01*
X83549385Y75744385D01*
G75*
G02*
X83699385Y75594385I0J-150000D01*
G01*
X83699385Y74294385D01*
G75*
G02*
X83549385Y74144385I-150000J0D01*
G01*
G37*
G36*
G01*
X83549385Y81344385D02*
X83249385Y81344385D01*
G75*
G02*
X83099385Y81494385I0J150000D01*
G01*
X83099385Y82794385D01*
G75*
G02*
X83249385Y82944385I150000J0D01*
G01*
X83549385Y82944385D01*
G75*
G02*
X83699385Y82794385I0J-150000D01*
G01*
X83699385Y81494385D01*
G75*
G02*
X83549385Y81344385I-150000J0D01*
G01*
G37*
G36*
G01*
X82279385Y81344385D02*
X81979385Y81344385D01*
G75*
G02*
X81829385Y81494385I0J150000D01*
G01*
X81829385Y82794385D01*
G75*
G02*
X81979385Y82944385I150000J0D01*
G01*
X82279385Y82944385D01*
G75*
G02*
X82429385Y82794385I0J-150000D01*
G01*
X82429385Y81494385D01*
G75*
G02*
X82279385Y81344385I-150000J0D01*
G01*
G37*
G36*
G01*
X81009385Y81344385D02*
X80709385Y81344385D01*
G75*
G02*
X80559385Y81494385I0J150000D01*
G01*
X80559385Y82794385D01*
G75*
G02*
X80709385Y82944385I150000J0D01*
G01*
X81009385Y82944385D01*
G75*
G02*
X81159385Y82794385I0J-150000D01*
G01*
X81159385Y81494385D01*
G75*
G02*
X81009385Y81344385I-150000J0D01*
G01*
G37*
G36*
G01*
X79739385Y81344385D02*
X79439385Y81344385D01*
G75*
G02*
X79289385Y81494385I0J150000D01*
G01*
X79289385Y82794385D01*
G75*
G02*
X79439385Y82944385I150000J0D01*
G01*
X79739385Y82944385D01*
G75*
G02*
X79889385Y82794385I0J-150000D01*
G01*
X79889385Y81494385D01*
G75*
G02*
X79739385Y81344385I-150000J0D01*
G01*
G37*
G36*
G01*
X36549385Y81004385D02*
X37499385Y81004385D01*
G75*
G02*
X37749385Y80754385I0J-250000D01*
G01*
X37749385Y80254385D01*
G75*
G02*
X37499385Y80004385I-250000J0D01*
G01*
X36549385Y80004385D01*
G75*
G02*
X36299385Y80254385I0J250000D01*
G01*
X36299385Y80754385D01*
G75*
G02*
X36549385Y81004385I250000J0D01*
G01*
G37*
G36*
G01*
X36549385Y79104385D02*
X37499385Y79104385D01*
G75*
G02*
X37749385Y78854385I0J-250000D01*
G01*
X37749385Y78354385D01*
G75*
G02*
X37499385Y78104385I-250000J0D01*
G01*
X36549385Y78104385D01*
G75*
G02*
X36299385Y78354385I0J250000D01*
G01*
X36299385Y78854385D01*
G75*
G02*
X36549385Y79104385I250000J0D01*
G01*
G37*
D38*
X70994385Y19494385D03*
X70994385Y67494385D03*
X37994385Y19494385D03*
X37994385Y67494385D03*
D39*
X72994385Y36194385D03*
X69914385Y36194385D03*
X72994385Y36594385D03*
X69914385Y36594385D03*
X72994385Y36994385D03*
X69914385Y36994385D03*
X72994385Y37394385D03*
X69914385Y37394385D03*
X72994385Y37794385D03*
X69914385Y37794385D03*
X72994385Y38194385D03*
X69914385Y38194385D03*
X72994385Y38594385D03*
X69914385Y38594385D03*
X72994385Y38994385D03*
X69914385Y38994385D03*
X72994385Y39394385D03*
X69914385Y39394385D03*
X72994385Y39794385D03*
X69914385Y39794385D03*
X72994385Y40194385D03*
X69914385Y40194385D03*
X72994385Y40594385D03*
X69914385Y40594385D03*
X72994385Y40994385D03*
X69914385Y40994385D03*
X72994385Y41394385D03*
X69914385Y41394385D03*
X72994385Y41794385D03*
X69914385Y41794385D03*
X72994385Y42194385D03*
X69914385Y42194385D03*
X72994385Y42594385D03*
X69914385Y42594385D03*
X72994385Y42994385D03*
X69914385Y42994385D03*
X72994385Y43394385D03*
X69914385Y43394385D03*
X72994385Y43794385D03*
X69914385Y43794385D03*
X72994385Y44194385D03*
X69914385Y44194385D03*
X72994385Y44594385D03*
X69914385Y44594385D03*
X72994385Y44994385D03*
X69914385Y44994385D03*
X72994385Y45394385D03*
X69914385Y45394385D03*
X72994385Y45794385D03*
X69914385Y45794385D03*
X72994385Y46194385D03*
X69914385Y46194385D03*
X72994385Y46594385D03*
X69914385Y46594385D03*
X72994385Y46994385D03*
X69914385Y46994385D03*
X72994385Y47394385D03*
X69914385Y47394385D03*
X72994385Y47794385D03*
X69914385Y47794385D03*
X72994385Y48194385D03*
X69914385Y48194385D03*
X72994385Y48594385D03*
X69914385Y48594385D03*
X72994385Y48994385D03*
X69914385Y48994385D03*
X72994385Y49394385D03*
X69914385Y49394385D03*
X72994385Y49794385D03*
X69914385Y49794385D03*
X72994385Y50194385D03*
X69914385Y50194385D03*
X72994385Y50594385D03*
X69914385Y50594385D03*
X72994385Y50994385D03*
X69914385Y50994385D03*
X72994385Y51394385D03*
X69914385Y51394385D03*
X72994385Y51794385D03*
X69914385Y51794385D03*
X72994385Y52194385D03*
X69914385Y52194385D03*
X72994385Y52594385D03*
X69914385Y52594385D03*
X72994385Y52994385D03*
X69914385Y52994385D03*
X72994385Y53394385D03*
X69914385Y53394385D03*
X72994385Y53794385D03*
X69914385Y53794385D03*
X72994385Y54194385D03*
X69914385Y54194385D03*
X72994385Y54594385D03*
X69914385Y54594385D03*
X72994385Y54994385D03*
X69914385Y54994385D03*
X72994385Y55394385D03*
X69914385Y55394385D03*
X72994385Y55794385D03*
X69914385Y55794385D03*
X39074385Y36194385D03*
X35994385Y36194385D03*
X39074385Y36594385D03*
X35994385Y36594385D03*
X39074385Y36994385D03*
X35994385Y36994385D03*
X39074385Y37394385D03*
X35994385Y37394385D03*
X39074385Y37794385D03*
X35994385Y37794385D03*
X39074385Y38194385D03*
X35994385Y38194385D03*
X39074385Y38594385D03*
X35994385Y38594385D03*
X39074385Y38994385D03*
X35994385Y38994385D03*
X39074385Y39394385D03*
X35994385Y39394385D03*
X39074385Y39794385D03*
X35994385Y39794385D03*
X39074385Y40194385D03*
X35994385Y40194385D03*
X39074385Y40594385D03*
X35994385Y40594385D03*
X39074385Y40994385D03*
X35994385Y40994385D03*
X39074385Y41394385D03*
X35994385Y41394385D03*
X39074385Y41794385D03*
X35994385Y41794385D03*
X39074385Y42194385D03*
X35994385Y42194385D03*
X39074385Y42594385D03*
X35994385Y42594385D03*
X39074385Y42994385D03*
X35994385Y42994385D03*
X39074385Y43394385D03*
X35994385Y43394385D03*
X39074385Y43794385D03*
X35994385Y43794385D03*
X39074385Y44194385D03*
X35994385Y44194385D03*
X39074385Y44594385D03*
X35994385Y44594385D03*
X39074385Y44994385D03*
X35994385Y44994385D03*
X39074385Y45394385D03*
X35994385Y45394385D03*
X39074385Y45794385D03*
X35994385Y45794385D03*
X39074385Y46194385D03*
X35994385Y46194385D03*
X39074385Y46594385D03*
X35994385Y46594385D03*
X39074385Y46994385D03*
X35994385Y46994385D03*
X39074385Y47394385D03*
X35994385Y47394385D03*
X39074385Y47794385D03*
X35994385Y47794385D03*
X39074385Y48194385D03*
X35994385Y48194385D03*
X39074385Y48594385D03*
X35994385Y48594385D03*
X39074385Y48994385D03*
X35994385Y48994385D03*
X39074385Y49394385D03*
X35994385Y49394385D03*
X39074385Y49794385D03*
X35994385Y49794385D03*
X39074385Y50194385D03*
X35994385Y50194385D03*
X39074385Y50594385D03*
X35994385Y50594385D03*
X39074385Y50994385D03*
X35994385Y50994385D03*
X39074385Y51394385D03*
X35994385Y51394385D03*
X39074385Y51794385D03*
X35994385Y51794385D03*
X39074385Y52194385D03*
X35994385Y52194385D03*
X39074385Y52594385D03*
X35994385Y52594385D03*
X39074385Y52994385D03*
X35994385Y52994385D03*
X39074385Y53394385D03*
X35994385Y53394385D03*
X39074385Y53794385D03*
X35994385Y53794385D03*
X39074385Y54194385D03*
X35994385Y54194385D03*
X39074385Y54594385D03*
X35994385Y54594385D03*
X39074385Y54994385D03*
X35994385Y54994385D03*
X39074385Y55394385D03*
X35994385Y55394385D03*
X39074385Y55794385D03*
X35994385Y55794385D03*
D13*
X2000000Y8000000D03*
D24*
X154994385Y66494385D03*
X168994385Y66494385D03*
X154994385Y61494385D03*
X168994385Y61494385D03*
G36*
G01*
X141234385Y93799385D02*
X141234385Y92849385D01*
G75*
G02*
X140984385Y92599385I-250000J0D01*
G01*
X140484385Y92599385D01*
G75*
G02*
X140234385Y92849385I0J250000D01*
G01*
X140234385Y93799385D01*
G75*
G02*
X140484385Y94049385I250000J0D01*
G01*
X140984385Y94049385D01*
G75*
G02*
X141234385Y93799385I0J-250000D01*
G01*
G37*
G36*
G01*
X139334385Y93799385D02*
X139334385Y92849385D01*
G75*
G02*
X139084385Y92599385I-250000J0D01*
G01*
X138584385Y92599385D01*
G75*
G02*
X138334385Y92849385I0J250000D01*
G01*
X138334385Y93799385D01*
G75*
G02*
X138584385Y94049385I250000J0D01*
G01*
X139084385Y94049385D01*
G75*
G02*
X139334385Y93799385I0J-250000D01*
G01*
G37*
D12*
X23994385Y2994385D03*
G36*
G01*
X141264385Y97739385D02*
X141264385Y96789385D01*
G75*
G02*
X141014385Y96539385I-250000J0D01*
G01*
X140514385Y96539385D01*
G75*
G02*
X140264385Y96789385I0J250000D01*
G01*
X140264385Y97739385D01*
G75*
G02*
X140514385Y97989385I250000J0D01*
G01*
X141014385Y97989385D01*
G75*
G02*
X141264385Y97739385I0J-250000D01*
G01*
G37*
G36*
G01*
X139364385Y97739385D02*
X139364385Y96789385D01*
G75*
G02*
X139114385Y96539385I-250000J0D01*
G01*
X138614385Y96539385D01*
G75*
G02*
X138364385Y96789385I0J250000D01*
G01*
X138364385Y97739385D01*
G75*
G02*
X138614385Y97989385I250000J0D01*
G01*
X139114385Y97989385D01*
G75*
G02*
X139364385Y97739385I0J-250000D01*
G01*
G37*
D24*
X4994385Y14494385D03*
X18994385Y14494385D03*
X4994385Y9494385D03*
X18994385Y9494385D03*
G36*
G01*
X141744385Y92839385D02*
X141744385Y93789385D01*
G75*
G02*
X141994385Y94039385I250000J0D01*
G01*
X142494385Y94039385D01*
G75*
G02*
X142744385Y93789385I0J-250000D01*
G01*
X142744385Y92839385D01*
G75*
G02*
X142494385Y92589385I-250000J0D01*
G01*
X141994385Y92589385D01*
G75*
G02*
X141744385Y92839385I0J250000D01*
G01*
G37*
G36*
G01*
X143644385Y92839385D02*
X143644385Y93789385D01*
G75*
G02*
X143894385Y94039385I250000J0D01*
G01*
X144394385Y94039385D01*
G75*
G02*
X144644385Y93789385I0J-250000D01*
G01*
X144644385Y92839385D01*
G75*
G02*
X144394385Y92589385I-250000J0D01*
G01*
X143894385Y92589385D01*
G75*
G02*
X143644385Y92839385I0J250000D01*
G01*
G37*
G36*
G01*
X85634385Y51816885D02*
X84734385Y51816885D01*
G75*
G02*
X84484385Y52066885I0J250000D01*
G01*
X84484385Y52591885D01*
G75*
G02*
X84734385Y52841885I250000J0D01*
G01*
X85634385Y52841885D01*
G75*
G02*
X85884385Y52591885I0J-250000D01*
G01*
X85884385Y52066885D01*
G75*
G02*
X85634385Y51816885I-250000J0D01*
G01*
G37*
G36*
G01*
X85634385Y53641885D02*
X84734385Y53641885D01*
G75*
G02*
X84484385Y53891885I0J250000D01*
G01*
X84484385Y54416885D01*
G75*
G02*
X84734385Y54666885I250000J0D01*
G01*
X85634385Y54666885D01*
G75*
G02*
X85884385Y54416885I0J-250000D01*
G01*
X85884385Y53891885D01*
G75*
G02*
X85634385Y53641885I-250000J0D01*
G01*
G37*
G36*
G01*
X94719385Y84744385D02*
X95669385Y84744385D01*
G75*
G02*
X95919385Y84494385I0J-250000D01*
G01*
X95919385Y83994385D01*
G75*
G02*
X95669385Y83744385I-250000J0D01*
G01*
X94719385Y83744385D01*
G75*
G02*
X94469385Y83994385I0J250000D01*
G01*
X94469385Y84494385D01*
G75*
G02*
X94719385Y84744385I250000J0D01*
G01*
G37*
G36*
G01*
X94719385Y82844385D02*
X95669385Y82844385D01*
G75*
G02*
X95919385Y82594385I0J-250000D01*
G01*
X95919385Y82094385D01*
G75*
G02*
X95669385Y81844385I-250000J0D01*
G01*
X94719385Y81844385D01*
G75*
G02*
X94469385Y82094385I0J250000D01*
G01*
X94469385Y82594385D01*
G75*
G02*
X94719385Y82844385I250000J0D01*
G01*
G37*
G36*
G01*
X140214385Y82619385D02*
X141114385Y82619385D01*
G75*
G02*
X141364385Y82369385I0J-250000D01*
G01*
X141364385Y81844385D01*
G75*
G02*
X141114385Y81594385I-250000J0D01*
G01*
X140214385Y81594385D01*
G75*
G02*
X139964385Y81844385I0J250000D01*
G01*
X139964385Y82369385D01*
G75*
G02*
X140214385Y82619385I250000J0D01*
G01*
G37*
G36*
G01*
X140214385Y80794385D02*
X141114385Y80794385D01*
G75*
G02*
X141364385Y80544385I0J-250000D01*
G01*
X141364385Y80019385D01*
G75*
G02*
X141114385Y79769385I-250000J0D01*
G01*
X140214385Y79769385D01*
G75*
G02*
X139964385Y80019385I0J250000D01*
G01*
X139964385Y80544385D01*
G75*
G02*
X140214385Y80794385I250000J0D01*
G01*
G37*
D12*
X167000000Y108000000D03*
G36*
G01*
X88628135Y54666885D02*
X89540635Y54666885D01*
G75*
G02*
X89784385Y54423135I0J-243750D01*
G01*
X89784385Y53935635D01*
G75*
G02*
X89540635Y53691885I-243750J0D01*
G01*
X88628135Y53691885D01*
G75*
G02*
X88384385Y53935635I0J243750D01*
G01*
X88384385Y54423135D01*
G75*
G02*
X88628135Y54666885I243750J0D01*
G01*
G37*
G36*
G01*
X88628135Y52791885D02*
X89540635Y52791885D01*
G75*
G02*
X89784385Y52548135I0J-243750D01*
G01*
X89784385Y52060635D01*
G75*
G02*
X89540635Y51816885I-243750J0D01*
G01*
X88628135Y51816885D01*
G75*
G02*
X88384385Y52060635I0J243750D01*
G01*
X88384385Y52548135D01*
G75*
G02*
X88628135Y52791885I243750J0D01*
G01*
G37*
G36*
G01*
X85644385Y90969385D02*
X85644385Y90019385D01*
G75*
G02*
X85394385Y89769385I-250000J0D01*
G01*
X84894385Y89769385D01*
G75*
G02*
X84644385Y90019385I0J250000D01*
G01*
X84644385Y90969385D01*
G75*
G02*
X84894385Y91219385I250000J0D01*
G01*
X85394385Y91219385D01*
G75*
G02*
X85644385Y90969385I0J-250000D01*
G01*
G37*
G36*
G01*
X83744385Y90969385D02*
X83744385Y90019385D01*
G75*
G02*
X83494385Y89769385I-250000J0D01*
G01*
X82994385Y89769385D01*
G75*
G02*
X82744385Y90019385I0J250000D01*
G01*
X82744385Y90969385D01*
G75*
G02*
X82994385Y91219385I250000J0D01*
G01*
X83494385Y91219385D01*
G75*
G02*
X83744385Y90969385I0J-250000D01*
G01*
G37*
G36*
G01*
X70778385Y87090735D02*
X70778385Y87603235D01*
G75*
G02*
X70997135Y87821985I218750J0D01*
G01*
X71434635Y87821985D01*
G75*
G02*
X71653385Y87603235I0J-218750D01*
G01*
X71653385Y87090735D01*
G75*
G02*
X71434635Y86871985I-218750J0D01*
G01*
X70997135Y86871985D01*
G75*
G02*
X70778385Y87090735I0J218750D01*
G01*
G37*
G36*
G01*
X72353385Y87090735D02*
X72353385Y87603235D01*
G75*
G02*
X72572135Y87821985I218750J0D01*
G01*
X73009635Y87821985D01*
G75*
G02*
X73228385Y87603235I0J-218750D01*
G01*
X73228385Y87090735D01*
G75*
G02*
X73009635Y86871985I-218750J0D01*
G01*
X72572135Y86871985D01*
G75*
G02*
X72353385Y87090735I0J218750D01*
G01*
G37*
G36*
G01*
X7629385Y72894385D02*
X7229385Y72894385D01*
G75*
G02*
X7154385Y72969385I0J75000D01*
G01*
X7154385Y73119385D01*
G75*
G02*
X7229385Y73194385I75000J0D01*
G01*
X7629385Y73194385D01*
G75*
G02*
X7704385Y73119385I0J-75000D01*
G01*
X7704385Y72969385D01*
G75*
G02*
X7629385Y72894385I-75000J0D01*
G01*
G37*
G36*
G01*
X7629385Y73394385D02*
X7229385Y73394385D01*
G75*
G02*
X7154385Y73469385I0J75000D01*
G01*
X7154385Y73619385D01*
G75*
G02*
X7229385Y73694385I75000J0D01*
G01*
X7629385Y73694385D01*
G75*
G02*
X7704385Y73619385I0J-75000D01*
G01*
X7704385Y73469385D01*
G75*
G02*
X7629385Y73394385I-75000J0D01*
G01*
G37*
G36*
G01*
X7629385Y73894385D02*
X7229385Y73894385D01*
G75*
G02*
X7154385Y73969385I0J75000D01*
G01*
X7154385Y74119385D01*
G75*
G02*
X7229385Y74194385I75000J0D01*
G01*
X7629385Y74194385D01*
G75*
G02*
X7704385Y74119385I0J-75000D01*
G01*
X7704385Y73969385D01*
G75*
G02*
X7629385Y73894385I-75000J0D01*
G01*
G37*
G36*
G01*
X7629385Y74394385D02*
X7229385Y74394385D01*
G75*
G02*
X7154385Y74469385I0J75000D01*
G01*
X7154385Y74619385D01*
G75*
G02*
X7229385Y74694385I75000J0D01*
G01*
X7629385Y74694385D01*
G75*
G02*
X7704385Y74619385I0J-75000D01*
G01*
X7704385Y74469385D01*
G75*
G02*
X7629385Y74394385I-75000J0D01*
G01*
G37*
G36*
G01*
X7629385Y74894385D02*
X7229385Y74894385D01*
G75*
G02*
X7154385Y74969385I0J75000D01*
G01*
X7154385Y75119385D01*
G75*
G02*
X7229385Y75194385I75000J0D01*
G01*
X7629385Y75194385D01*
G75*
G02*
X7704385Y75119385I0J-75000D01*
G01*
X7704385Y74969385D01*
G75*
G02*
X7629385Y74894385I-75000J0D01*
G01*
G37*
G36*
G01*
X6859385Y74894385D02*
X6459385Y74894385D01*
G75*
G02*
X6384385Y74969385I0J75000D01*
G01*
X6384385Y75119385D01*
G75*
G02*
X6459385Y75194385I75000J0D01*
G01*
X6859385Y75194385D01*
G75*
G02*
X6934385Y75119385I0J-75000D01*
G01*
X6934385Y74969385D01*
G75*
G02*
X6859385Y74894385I-75000J0D01*
G01*
G37*
G36*
G01*
X6859385Y74394385D02*
X6459385Y74394385D01*
G75*
G02*
X6384385Y74469385I0J75000D01*
G01*
X6384385Y74619385D01*
G75*
G02*
X6459385Y74694385I75000J0D01*
G01*
X6859385Y74694385D01*
G75*
G02*
X6934385Y74619385I0J-75000D01*
G01*
X6934385Y74469385D01*
G75*
G02*
X6859385Y74394385I-75000J0D01*
G01*
G37*
G36*
G01*
X6859385Y73894385D02*
X6459385Y73894385D01*
G75*
G02*
X6384385Y73969385I0J75000D01*
G01*
X6384385Y74119385D01*
G75*
G02*
X6459385Y74194385I75000J0D01*
G01*
X6859385Y74194385D01*
G75*
G02*
X6934385Y74119385I0J-75000D01*
G01*
X6934385Y73969385D01*
G75*
G02*
X6859385Y73894385I-75000J0D01*
G01*
G37*
G36*
G01*
X6859385Y73394385D02*
X6459385Y73394385D01*
G75*
G02*
X6384385Y73469385I0J75000D01*
G01*
X6384385Y73619385D01*
G75*
G02*
X6459385Y73694385I75000J0D01*
G01*
X6859385Y73694385D01*
G75*
G02*
X6934385Y73619385I0J-75000D01*
G01*
X6934385Y73469385D01*
G75*
G02*
X6859385Y73394385I-75000J0D01*
G01*
G37*
G36*
G01*
X6859385Y72894385D02*
X6459385Y72894385D01*
G75*
G02*
X6384385Y72969385I0J75000D01*
G01*
X6384385Y73119385D01*
G75*
G02*
X6459385Y73194385I75000J0D01*
G01*
X6859385Y73194385D01*
G75*
G02*
X6934385Y73119385I0J-75000D01*
G01*
X6934385Y72969385D01*
G75*
G02*
X6859385Y72894385I-75000J0D01*
G01*
G37*
D11*
X136224385Y105054385D03*
D40*
X96947585Y76047584D03*
X99147585Y76047584D03*
X99147585Y77647586D03*
X96947585Y77647586D03*
G36*
G01*
X46429385Y83184385D02*
X45479385Y83184385D01*
G75*
G02*
X45229385Y83434385I0J250000D01*
G01*
X45229385Y83934385D01*
G75*
G02*
X45479385Y84184385I250000J0D01*
G01*
X46429385Y84184385D01*
G75*
G02*
X46679385Y83934385I0J-250000D01*
G01*
X46679385Y83434385D01*
G75*
G02*
X46429385Y83184385I-250000J0D01*
G01*
G37*
G36*
G01*
X46429385Y85084385D02*
X45479385Y85084385D01*
G75*
G02*
X45229385Y85334385I0J250000D01*
G01*
X45229385Y85834385D01*
G75*
G02*
X45479385Y86084385I250000J0D01*
G01*
X46429385Y86084385D01*
G75*
G02*
X46679385Y85834385I0J-250000D01*
G01*
X46679385Y85334385D01*
G75*
G02*
X46429385Y85084385I-250000J0D01*
G01*
G37*
G36*
G01*
X24244385Y84959385D02*
X25144385Y84959385D01*
G75*
G02*
X25394385Y84709385I0J-250000D01*
G01*
X25394385Y84184385D01*
G75*
G02*
X25144385Y83934385I-250000J0D01*
G01*
X24244385Y83934385D01*
G75*
G02*
X23994385Y84184385I0J250000D01*
G01*
X23994385Y84709385D01*
G75*
G02*
X24244385Y84959385I250000J0D01*
G01*
G37*
G36*
G01*
X24244385Y83134385D02*
X25144385Y83134385D01*
G75*
G02*
X25394385Y82884385I0J-250000D01*
G01*
X25394385Y82359385D01*
G75*
G02*
X25144385Y82109385I-250000J0D01*
G01*
X24244385Y82109385D01*
G75*
G02*
X23994385Y82359385I0J250000D01*
G01*
X23994385Y82884385D01*
G75*
G02*
X24244385Y83134385I250000J0D01*
G01*
G37*
G36*
G01*
X120394385Y88056885D02*
X120394385Y88231885D01*
G75*
G02*
X120481885Y88319385I87500J0D01*
G01*
X121331885Y88319385D01*
G75*
G02*
X121419385Y88231885I0J-87500D01*
G01*
X121419385Y88056885D01*
G75*
G02*
X121331885Y87969385I-87500J0D01*
G01*
X120481885Y87969385D01*
G75*
G02*
X120394385Y88056885I0J87500D01*
G01*
G37*
G36*
G01*
X120394385Y87406885D02*
X120394385Y87581885D01*
G75*
G02*
X120481885Y87669385I87500J0D01*
G01*
X121331885Y87669385D01*
G75*
G02*
X121419385Y87581885I0J-87500D01*
G01*
X121419385Y87406885D01*
G75*
G02*
X121331885Y87319385I-87500J0D01*
G01*
X120481885Y87319385D01*
G75*
G02*
X120394385Y87406885I0J87500D01*
G01*
G37*
G36*
G01*
X120394385Y86756885D02*
X120394385Y86931885D01*
G75*
G02*
X120481885Y87019385I87500J0D01*
G01*
X121331885Y87019385D01*
G75*
G02*
X121419385Y86931885I0J-87500D01*
G01*
X121419385Y86756885D01*
G75*
G02*
X121331885Y86669385I-87500J0D01*
G01*
X120481885Y86669385D01*
G75*
G02*
X120394385Y86756885I0J87500D01*
G01*
G37*
G36*
G01*
X122069385Y86756885D02*
X122069385Y86931885D01*
G75*
G02*
X122156885Y87019385I87500J0D01*
G01*
X123006885Y87019385D01*
G75*
G02*
X123094385Y86931885I0J-87500D01*
G01*
X123094385Y86756885D01*
G75*
G02*
X123006885Y86669385I-87500J0D01*
G01*
X122156885Y86669385D01*
G75*
G02*
X122069385Y86756885I0J87500D01*
G01*
G37*
G36*
G01*
X122069385Y88056885D02*
X122069385Y88231885D01*
G75*
G02*
X122156885Y88319385I87500J0D01*
G01*
X123006885Y88319385D01*
G75*
G02*
X123094385Y88231885I0J-87500D01*
G01*
X123094385Y88056885D01*
G75*
G02*
X123006885Y87969385I-87500J0D01*
G01*
X122156885Y87969385D01*
G75*
G02*
X122069385Y88056885I0J87500D01*
G01*
G37*
D11*
X117244385Y99494385D03*
D25*
X117244385Y94494385D03*
X117244385Y96994385D03*
D26*
X124744385Y102594385D03*
X124744385Y91394385D03*
D25*
X131744385Y94494385D03*
X131744385Y99494385D03*
D12*
X86994385Y32994385D03*
D24*
X79994385Y14494385D03*
X93994385Y14494385D03*
X79994385Y9494385D03*
X93994385Y9494385D03*
G36*
G01*
X81234985Y53704385D02*
X81234985Y53879385D01*
G75*
G02*
X81322485Y53966885I87500J0D01*
G01*
X82172485Y53966885D01*
G75*
G02*
X82259985Y53879385I0J-87500D01*
G01*
X82259985Y53704385D01*
G75*
G02*
X82172485Y53616885I-87500J0D01*
G01*
X81322485Y53616885D01*
G75*
G02*
X81234985Y53704385I0J87500D01*
G01*
G37*
G36*
G01*
X81234985Y53054385D02*
X81234985Y53229385D01*
G75*
G02*
X81322485Y53316885I87500J0D01*
G01*
X82172485Y53316885D01*
G75*
G02*
X82259985Y53229385I0J-87500D01*
G01*
X82259985Y53054385D01*
G75*
G02*
X82172485Y52966885I-87500J0D01*
G01*
X81322485Y52966885D01*
G75*
G02*
X81234985Y53054385I0J87500D01*
G01*
G37*
G36*
G01*
X81234985Y52404385D02*
X81234985Y52579385D01*
G75*
G02*
X81322485Y52666885I87500J0D01*
G01*
X82172485Y52666885D01*
G75*
G02*
X82259985Y52579385I0J-87500D01*
G01*
X82259985Y52404385D01*
G75*
G02*
X82172485Y52316885I-87500J0D01*
G01*
X81322485Y52316885D01*
G75*
G02*
X81234985Y52404385I0J87500D01*
G01*
G37*
G36*
G01*
X82909985Y52404385D02*
X82909985Y52579385D01*
G75*
G02*
X82997485Y52666885I87500J0D01*
G01*
X83847485Y52666885D01*
G75*
G02*
X83934985Y52579385I0J-87500D01*
G01*
X83934985Y52404385D01*
G75*
G02*
X83847485Y52316885I-87500J0D01*
G01*
X82997485Y52316885D01*
G75*
G02*
X82909985Y52404385I0J87500D01*
G01*
G37*
G36*
G01*
X82909985Y53704385D02*
X82909985Y53879385D01*
G75*
G02*
X82997485Y53966885I87500J0D01*
G01*
X83847485Y53966885D01*
G75*
G02*
X83934985Y53879385I0J-87500D01*
G01*
X83934985Y53704385D01*
G75*
G02*
X83847485Y53616885I-87500J0D01*
G01*
X82997485Y53616885D01*
G75*
G02*
X82909985Y53704385I0J87500D01*
G01*
G37*
G36*
G01*
X90159385Y79644385D02*
X91109385Y79644385D01*
G75*
G02*
X91359385Y79394385I0J-250000D01*
G01*
X91359385Y78894385D01*
G75*
G02*
X91109385Y78644385I-250000J0D01*
G01*
X90159385Y78644385D01*
G75*
G02*
X89909385Y78894385I0J250000D01*
G01*
X89909385Y79394385D01*
G75*
G02*
X90159385Y79644385I250000J0D01*
G01*
G37*
G36*
G01*
X90159385Y77744385D02*
X91109385Y77744385D01*
G75*
G02*
X91359385Y77494385I0J-250000D01*
G01*
X91359385Y76994385D01*
G75*
G02*
X91109385Y76744385I-250000J0D01*
G01*
X90159385Y76744385D01*
G75*
G02*
X89909385Y76994385I0J250000D01*
G01*
X89909385Y77494385D01*
G75*
G02*
X90159385Y77744385I250000J0D01*
G01*
G37*
G36*
G01*
X99869385Y80844385D02*
X98919385Y80844385D01*
G75*
G02*
X98669385Y81094385I0J250000D01*
G01*
X98669385Y81594385D01*
G75*
G02*
X98919385Y81844385I250000J0D01*
G01*
X99869385Y81844385D01*
G75*
G02*
X100119385Y81594385I0J-250000D01*
G01*
X100119385Y81094385D01*
G75*
G02*
X99869385Y80844385I-250000J0D01*
G01*
G37*
G36*
G01*
X99869385Y82744385D02*
X98919385Y82744385D01*
G75*
G02*
X98669385Y82994385I0J250000D01*
G01*
X98669385Y83494385D01*
G75*
G02*
X98919385Y83744385I250000J0D01*
G01*
X99869385Y83744385D01*
G75*
G02*
X100119385Y83494385I0J-250000D01*
G01*
X100119385Y82994385D01*
G75*
G02*
X99869385Y82744385I-250000J0D01*
G01*
G37*
G36*
G01*
X143139385Y79724385D02*
X142189385Y79724385D01*
G75*
G02*
X141939385Y79974385I0J250000D01*
G01*
X141939385Y80474385D01*
G75*
G02*
X142189385Y80724385I250000J0D01*
G01*
X143139385Y80724385D01*
G75*
G02*
X143389385Y80474385I0J-250000D01*
G01*
X143389385Y79974385D01*
G75*
G02*
X143139385Y79724385I-250000J0D01*
G01*
G37*
G36*
G01*
X143139385Y81624385D02*
X142189385Y81624385D01*
G75*
G02*
X141939385Y81874385I0J250000D01*
G01*
X141939385Y82374385D01*
G75*
G02*
X142189385Y82624385I250000J0D01*
G01*
X143139385Y82624385D01*
G75*
G02*
X143389385Y82374385I0J-250000D01*
G01*
X143389385Y81874385D01*
G75*
G02*
X143139385Y81624385I-250000J0D01*
G01*
G37*
D11*
X95484385Y73334385D03*
G36*
X63940697Y97708464D02*
G01*
X63208464Y98440697D01*
X63193585Y98476618D01*
X63193585Y99512152D01*
X63208464Y99548073D01*
X63940697Y100280306D01*
X63976618Y100295185D01*
X65012152Y100295185D01*
X65048073Y100280306D01*
X65780306Y99548073D01*
X65795185Y99512152D01*
X65795185Y98476618D01*
X65780306Y98440697D01*
X65048073Y97708464D01*
X65012152Y97693585D01*
X63976618Y97693585D01*
X63940697Y97708464D01*
G37*
G36*
X73280306Y98440697D02*
G01*
X72548073Y97708464D01*
X72512152Y97693585D01*
X71476618Y97693585D01*
X71440697Y97708464D01*
X70708464Y98440697D01*
X70693585Y98476618D01*
X70693585Y99512152D01*
X70708464Y99548073D01*
X71440697Y100280306D01*
X71476618Y100295185D01*
X72512152Y100295185D01*
X72548073Y100280306D01*
X73280306Y99548073D01*
X73295185Y99512152D01*
X73295185Y98476618D01*
X73280306Y98440697D01*
G37*
G36*
X78940697Y97708464D02*
G01*
X78208464Y98440697D01*
X78193585Y98476618D01*
X78193585Y99512152D01*
X78208464Y99548073D01*
X78940697Y100280306D01*
X78976618Y100295185D01*
X80012152Y100295185D01*
X80048073Y100280306D01*
X80780306Y99548073D01*
X80795185Y99512152D01*
X80795185Y98476618D01*
X80780306Y98440697D01*
X80048073Y97708464D01*
X80012152Y97693585D01*
X78976618Y97693585D01*
X78940697Y97708464D01*
G37*
G36*
X66440697Y95208464D02*
G01*
X65708464Y95940697D01*
X65693585Y95976618D01*
X65693585Y97012152D01*
X65708464Y97048073D01*
X66440697Y97780306D01*
X66476618Y97795185D01*
X67512152Y97795185D01*
X67548073Y97780306D01*
X68280306Y97048073D01*
X68295185Y97012152D01*
X68295185Y95976618D01*
X68280306Y95940697D01*
X67548073Y95208464D01*
X67512152Y95193585D01*
X66476618Y95193585D01*
X66440697Y95208464D01*
G37*
G36*
X76440697Y95208464D02*
G01*
X75708464Y95940697D01*
X75693585Y95976618D01*
X75693585Y97012152D01*
X75708464Y97048073D01*
X76440697Y97780306D01*
X76476618Y97795185D01*
X77512152Y97795185D01*
X77548073Y97780306D01*
X78280306Y97048073D01*
X78295185Y97012152D01*
X78295185Y95976618D01*
X78280306Y95940697D01*
X77548073Y95208464D01*
X77512152Y95193585D01*
X76476618Y95193585D01*
X76440697Y95208464D01*
G37*
G36*
X73558464Y107958464D02*
G01*
X73543585Y107994385D01*
X73543585Y109094385D01*
X73558464Y109130306D01*
X74458464Y110030306D01*
X74494385Y110045185D01*
X75394385Y110045185D01*
X75430306Y110030306D01*
X75445185Y109994385D01*
X75445185Y107994385D01*
X75430306Y107958464D01*
X75394385Y107943585D01*
X73594385Y107943585D01*
X73558464Y107958464D01*
G37*
G36*
G01*
X77945185Y109994385D02*
X77945185Y107994385D01*
G75*
G02*
X77894385Y107943585I-50800J0D01*
G01*
X76094385Y107943585D01*
G75*
G02*
X76043585Y107994385I0J50800D01*
G01*
X76043585Y109994385D01*
G75*
G02*
X76094385Y110045185I50800J0D01*
G01*
X77894385Y110045185D01*
G75*
G02*
X77945185Y109994385I0J-50800D01*
G01*
G37*
G36*
G01*
X67945185Y109994385D02*
X67945185Y107994385D01*
G75*
G02*
X67894385Y107943585I-50800J0D01*
G01*
X66094385Y107943585D01*
G75*
G02*
X66043585Y107994385I0J50800D01*
G01*
X66043585Y109994385D01*
G75*
G02*
X66094385Y110045185I50800J0D01*
G01*
X67894385Y110045185D01*
G75*
G02*
X67945185Y109994385I0J-50800D01*
G01*
G37*
G36*
X68558464Y107958464D02*
G01*
X68543585Y107994385D01*
X68543585Y109994385D01*
X68558464Y110030306D01*
X68594385Y110045185D01*
X69494385Y110045185D01*
X69530306Y110030306D01*
X70430306Y109130306D01*
X70445185Y109094385D01*
X70445185Y107994385D01*
X70430306Y107958464D01*
X70394385Y107943585D01*
X68594385Y107943585D01*
X68558464Y107958464D01*
G37*
D41*
X146894385Y82929385D03*
X146894385Y78779385D03*
G36*
G01*
X129794385Y85694385D02*
X129794385Y85394385D01*
G75*
G02*
X129644385Y85244385I-150000J0D01*
G01*
X128619385Y85244385D01*
G75*
G02*
X128469385Y85394385I0J150000D01*
G01*
X128469385Y85694385D01*
G75*
G02*
X128619385Y85844385I150000J0D01*
G01*
X129644385Y85844385D01*
G75*
G02*
X129794385Y85694385I0J-150000D01*
G01*
G37*
G36*
G01*
X129794385Y86644385D02*
X129794385Y86344385D01*
G75*
G02*
X129644385Y86194385I-150000J0D01*
G01*
X128619385Y86194385D01*
G75*
G02*
X128469385Y86344385I0J150000D01*
G01*
X128469385Y86644385D01*
G75*
G02*
X128619385Y86794385I150000J0D01*
G01*
X129644385Y86794385D01*
G75*
G02*
X129794385Y86644385I0J-150000D01*
G01*
G37*
G36*
G01*
X129794385Y87594385D02*
X129794385Y87294385D01*
G75*
G02*
X129644385Y87144385I-150000J0D01*
G01*
X128619385Y87144385D01*
G75*
G02*
X128469385Y87294385I0J150000D01*
G01*
X128469385Y87594385D01*
G75*
G02*
X128619385Y87744385I150000J0D01*
G01*
X129644385Y87744385D01*
G75*
G02*
X129794385Y87594385I0J-150000D01*
G01*
G37*
G36*
G01*
X127519385Y87594385D02*
X127519385Y87294385D01*
G75*
G02*
X127369385Y87144385I-150000J0D01*
G01*
X126344385Y87144385D01*
G75*
G02*
X126194385Y87294385I0J150000D01*
G01*
X126194385Y87594385D01*
G75*
G02*
X126344385Y87744385I150000J0D01*
G01*
X127369385Y87744385D01*
G75*
G02*
X127519385Y87594385I0J-150000D01*
G01*
G37*
G36*
G01*
X127519385Y85694385D02*
X127519385Y85394385D01*
G75*
G02*
X127369385Y85244385I-150000J0D01*
G01*
X126344385Y85244385D01*
G75*
G02*
X126194385Y85394385I0J150000D01*
G01*
X126194385Y85694385D01*
G75*
G02*
X126344385Y85844385I150000J0D01*
G01*
X127369385Y85844385D01*
G75*
G02*
X127519385Y85694385I0J-150000D01*
G01*
G37*
G36*
G01*
X45479385Y82684385D02*
X46429385Y82684385D01*
G75*
G02*
X46679385Y82434385I0J-250000D01*
G01*
X46679385Y81934385D01*
G75*
G02*
X46429385Y81684385I-250000J0D01*
G01*
X45479385Y81684385D01*
G75*
G02*
X45229385Y81934385I0J250000D01*
G01*
X45229385Y82434385D01*
G75*
G02*
X45479385Y82684385I250000J0D01*
G01*
G37*
G36*
G01*
X45479385Y80784385D02*
X46429385Y80784385D01*
G75*
G02*
X46679385Y80534385I0J-250000D01*
G01*
X46679385Y80034385D01*
G75*
G02*
X46429385Y79784385I-250000J0D01*
G01*
X45479385Y79784385D01*
G75*
G02*
X45229385Y80034385I0J250000D01*
G01*
X45229385Y80534385D01*
G75*
G02*
X45479385Y80784385I250000J0D01*
G01*
G37*
G36*
G01*
X84174385Y88939385D02*
X84174385Y87989385D01*
G75*
G02*
X83924385Y87739385I-250000J0D01*
G01*
X83424385Y87739385D01*
G75*
G02*
X83174385Y87989385I0J250000D01*
G01*
X83174385Y88939385D01*
G75*
G02*
X83424385Y89189385I250000J0D01*
G01*
X83924385Y89189385D01*
G75*
G02*
X84174385Y88939385I0J-250000D01*
G01*
G37*
G36*
G01*
X82274385Y88939385D02*
X82274385Y87989385D01*
G75*
G02*
X82024385Y87739385I-250000J0D01*
G01*
X81524385Y87739385D01*
G75*
G02*
X81274385Y87989385I0J250000D01*
G01*
X81274385Y88939385D01*
G75*
G02*
X81524385Y89189385I250000J0D01*
G01*
X82024385Y89189385D01*
G75*
G02*
X82274385Y88939385I0J-250000D01*
G01*
G37*
G36*
G01*
X124419385Y87944385D02*
X125369385Y87944385D01*
G75*
G02*
X125619385Y87694385I0J-250000D01*
G01*
X125619385Y87194385D01*
G75*
G02*
X125369385Y86944385I-250000J0D01*
G01*
X124419385Y86944385D01*
G75*
G02*
X124169385Y87194385I0J250000D01*
G01*
X124169385Y87694385D01*
G75*
G02*
X124419385Y87944385I250000J0D01*
G01*
G37*
G36*
G01*
X124419385Y86044385D02*
X125369385Y86044385D01*
G75*
G02*
X125619385Y85794385I0J-250000D01*
G01*
X125619385Y85294385D01*
G75*
G02*
X125369385Y85044385I-250000J0D01*
G01*
X124419385Y85044385D01*
G75*
G02*
X124169385Y85294385I0J250000D01*
G01*
X124169385Y85794385D01*
G75*
G02*
X124419385Y86044385I250000J0D01*
G01*
G37*
G36*
G01*
X131230985Y74525185D02*
X126230985Y74525185D01*
G75*
G02*
X125980985Y74775185I0J250000D01*
G01*
X125980985Y75275185D01*
G75*
G02*
X126230985Y75525185I250000J0D01*
G01*
X131230985Y75525185D01*
G75*
G02*
X131480985Y75275185I0J-250000D01*
G01*
X131480985Y74775185D01*
G75*
G02*
X131230985Y74525185I-250000J0D01*
G01*
G37*
G36*
G01*
X131230985Y76525185D02*
X126230985Y76525185D01*
G75*
G02*
X125980985Y76775185I0J250000D01*
G01*
X125980985Y77275185D01*
G75*
G02*
X126230985Y77525185I250000J0D01*
G01*
X131230985Y77525185D01*
G75*
G02*
X131480985Y77275185I0J-250000D01*
G01*
X131480985Y76775185D01*
G75*
G02*
X131230985Y76525185I-250000J0D01*
G01*
G37*
G36*
G01*
X131230985Y78525185D02*
X126230985Y78525185D01*
G75*
G02*
X125980985Y78775185I0J250000D01*
G01*
X125980985Y79275185D01*
G75*
G02*
X126230985Y79525185I250000J0D01*
G01*
X131230985Y79525185D01*
G75*
G02*
X131480985Y79275185I0J-250000D01*
G01*
X131480985Y78775185D01*
G75*
G02*
X131230985Y78525185I-250000J0D01*
G01*
G37*
G36*
G01*
X131230985Y80525185D02*
X126230985Y80525185D01*
G75*
G02*
X125980985Y80775185I0J250000D01*
G01*
X125980985Y81275185D01*
G75*
G02*
X126230985Y81525185I250000J0D01*
G01*
X131230985Y81525185D01*
G75*
G02*
X131480985Y81275185I0J-250000D01*
G01*
X131480985Y80775185D01*
G75*
G02*
X131230985Y80525185I-250000J0D01*
G01*
G37*
G36*
G01*
X127730985Y71825185D02*
X125230985Y71825185D01*
G75*
G02*
X124980985Y72075185I0J250000D01*
G01*
X124980985Y73175185D01*
G75*
G02*
X125230985Y73425185I250000J0D01*
G01*
X127730985Y73425185D01*
G75*
G02*
X127980985Y73175185I0J-250000D01*
G01*
X127980985Y72075185D01*
G75*
G02*
X127730985Y71825185I-250000J0D01*
G01*
G37*
G36*
G01*
X127730985Y82625185D02*
X125230985Y82625185D01*
G75*
G02*
X124980985Y82875185I0J250000D01*
G01*
X124980985Y83975185D01*
G75*
G02*
X125230985Y84225185I250000J0D01*
G01*
X127730985Y84225185D01*
G75*
G02*
X127980985Y83975185I0J-250000D01*
G01*
X127980985Y82875185D01*
G75*
G02*
X127730985Y82625185I-250000J0D01*
G01*
G37*
G36*
G01*
X70778385Y88563935D02*
X70778385Y89076435D01*
G75*
G02*
X70997135Y89295185I218750J0D01*
G01*
X71434635Y89295185D01*
G75*
G02*
X71653385Y89076435I0J-218750D01*
G01*
X71653385Y88563935D01*
G75*
G02*
X71434635Y88345185I-218750J0D01*
G01*
X70997135Y88345185D01*
G75*
G02*
X70778385Y88563935I0J218750D01*
G01*
G37*
G36*
G01*
X72353385Y88563935D02*
X72353385Y89076435D01*
G75*
G02*
X72572135Y89295185I218750J0D01*
G01*
X73009635Y89295185D01*
G75*
G02*
X73228385Y89076435I0J-218750D01*
G01*
X73228385Y88563935D01*
G75*
G02*
X73009635Y88345185I-218750J0D01*
G01*
X72572135Y88345185D01*
G75*
G02*
X72353385Y88563935I0J218750D01*
G01*
G37*
D14*
X76988885Y101494385D03*
X74488885Y101494385D03*
D15*
X71988885Y106494385D03*
D14*
X66988885Y101494385D03*
X69488885Y101494385D03*
G36*
G01*
X37829385Y96194385D02*
X38779385Y96194385D01*
G75*
G02*
X39029385Y95944385I0J-250000D01*
G01*
X39029385Y95444385D01*
G75*
G02*
X38779385Y95194385I-250000J0D01*
G01*
X37829385Y95194385D01*
G75*
G02*
X37579385Y95444385I0J250000D01*
G01*
X37579385Y95944385D01*
G75*
G02*
X37829385Y96194385I250000J0D01*
G01*
G37*
G36*
G01*
X37829385Y94294385D02*
X38779385Y94294385D01*
G75*
G02*
X39029385Y94044385I0J-250000D01*
G01*
X39029385Y93544385D01*
G75*
G02*
X38779385Y93294385I-250000J0D01*
G01*
X37829385Y93294385D01*
G75*
G02*
X37579385Y93544385I0J250000D01*
G01*
X37579385Y94044385D01*
G75*
G02*
X37829385Y94294385I250000J0D01*
G01*
G37*
D42*
X11994385Y11994385D03*
X86994385Y63994385D03*
X11994385Y63994385D03*
X161994385Y63994385D03*
X86994385Y11994385D03*
G36*
G01*
X54354385Y106879385D02*
X54354385Y108129385D01*
G75*
G02*
X54604385Y108379385I250000J0D01*
G01*
X55304385Y108379385D01*
G75*
G02*
X55554385Y108129385I0J-250000D01*
G01*
X55554385Y106879385D01*
G75*
G02*
X55304385Y106629385I-250000J0D01*
G01*
X54604385Y106629385D01*
G75*
G02*
X54354385Y106879385I0J250000D01*
G01*
G37*
D43*
X56954385Y107504385D03*
X58954385Y107504385D03*
D42*
X161994385Y11994385D03*
D21*
X102244385Y62618785D03*
D44*
X99704385Y62618785D03*
X102244385Y60078785D03*
X99704385Y60078785D03*
X102244385Y57538785D03*
X99704385Y57538785D03*
X102244385Y54998785D03*
X99704385Y54998785D03*
X102244385Y52458785D03*
X99704385Y52458785D03*
X102244385Y49918785D03*
X99704385Y49918785D03*
X102244385Y47378785D03*
X99704385Y47378785D03*
X102244385Y44838785D03*
X99704385Y44838785D03*
X102244385Y42298785D03*
X99704385Y42298785D03*
X102244385Y39758785D03*
X99704385Y39758785D03*
X102244385Y37218785D03*
X99704385Y37218785D03*
X102244385Y34678785D03*
X99704385Y34678785D03*
X102244385Y32138785D03*
X99704385Y32138785D03*
X102244385Y29598785D03*
X99704385Y29598785D03*
X102244385Y27058785D03*
X99704385Y27058785D03*
X102244385Y24518785D03*
X99704385Y24518785D03*
X102244385Y21978785D03*
X99704385Y21978785D03*
X102244385Y19438785D03*
X99704385Y19438785D03*
X102244385Y16898785D03*
X99704385Y16898785D03*
X102244385Y14358785D03*
X99704385Y14358785D03*
D21*
X138549385Y56148785D03*
D44*
X136009385Y56148785D03*
X138549385Y53608785D03*
X136009385Y53608785D03*
X138549385Y51068785D03*
X136009385Y51068785D03*
D21*
X134374385Y11843785D03*
D44*
X134374385Y9303785D03*
X136914385Y11843785D03*
X136914385Y9303785D03*
X139454385Y11843785D03*
X139454385Y9303785D03*
G36*
G01*
X45424385Y106869385D02*
X45424385Y108119385D01*
G75*
G02*
X45674385Y108369385I250000J0D01*
G01*
X46374385Y108369385D01*
G75*
G02*
X46624385Y108119385I0J-250000D01*
G01*
X46624385Y106869385D01*
G75*
G02*
X46374385Y106619385I-250000J0D01*
G01*
X45674385Y106619385D01*
G75*
G02*
X45424385Y106869385I0J250000D01*
G01*
G37*
D43*
X48024385Y107494385D03*
X50024385Y107494385D03*
M02*
