G04 #@! TF.GenerationSoftware,KiCad,Pcbnew,9.0.7+1*
G04 #@! TF.CreationDate,2026-04-21T20:45:41+00:00*
G04 #@! TF.ProjectId,pedalboard-hw,70656461-6c62-46f6-9172-642d68772e6b,4.0.1-RC*
G04 #@! TF.SameCoordinates,Original*
G04 #@! TF.FileFunction,Legend,Bot*
G04 #@! TF.FilePolarity,Positive*
%FSLAX46Y46*%
G04 Gerber Fmt 4.6, Leading zero omitted, Abs format (unit mm)*
G04 Created by KiCad (PCBNEW 9.0.7+1) date 2026-04-21 20:45:41*
%MOMM*%
%LPD*%
G01*
G04 APERTURE LIST*
%ADD10C,0.150000*%
%ADD11C,0.120000*%
%ADD12C,0.100000*%
G04 APERTURE END LIST*
D10*
G36*
X4159204Y84114062D02*
G01*
X4121033Y83999550D01*
X4046919Y83925437D01*
X3969932Y83886943D01*
X3796398Y83843559D01*
X3672009Y83843559D01*
X3498475Y83886943D01*
X3421488Y83925436D01*
X3347375Y83999549D01*
X3309204Y84114063D01*
X3309204Y84264987D01*
X4159204Y84264987D01*
X4159204Y84114062D01*
G37*
G36*
X4420315Y83582448D02*
G01*
X3048093Y83582448D01*
X3048093Y84339987D01*
X3159204Y84339987D01*
X3159204Y84101892D01*
X3159933Y84094487D01*
X3159793Y84092512D01*
X3160383Y84089915D01*
X3160645Y84087260D01*
X3161403Y84085429D01*
X3163053Y84078175D01*
X3210672Y83935318D01*
X3216666Y83921893D01*
X3218431Y83919858D01*
X3219463Y83917367D01*
X3228790Y83906002D01*
X3324028Y83810764D01*
X3329778Y83806044D01*
X3331077Y83804547D01*
X3333331Y83803128D01*
X3335393Y83801436D01*
X3337225Y83800678D01*
X3343520Y83796715D01*
X3438758Y83749096D01*
X3439827Y83748687D01*
X3440263Y83748364D01*
X3446399Y83746172D01*
X3452489Y83743841D01*
X3453029Y83743803D01*
X3454109Y83743417D01*
X3644585Y83695798D01*
X3647121Y83695423D01*
X3648143Y83695000D01*
X3653655Y83694458D01*
X3659129Y83693648D01*
X3660221Y83693811D01*
X3662775Y83693559D01*
X3805632Y83693559D01*
X3808185Y83693811D01*
X3809278Y83693648D01*
X3814751Y83694458D01*
X3820264Y83695000D01*
X3821285Y83695423D01*
X3823822Y83695798D01*
X4014298Y83743417D01*
X4015377Y83743803D01*
X4015917Y83743841D01*
X4021998Y83746169D01*
X4028144Y83748364D01*
X4028579Y83748687D01*
X4029649Y83749096D01*
X4124887Y83796715D01*
X4131183Y83800679D01*
X4133013Y83801436D01*
X4135071Y83803126D01*
X4137330Y83804547D01*
X4138629Y83806046D01*
X4144379Y83810764D01*
X4239618Y83906002D01*
X4248946Y83917367D01*
X4249977Y83919858D01*
X4251742Y83921892D01*
X4257736Y83935318D01*
X4305355Y84078174D01*
X4307004Y84085430D01*
X4307763Y84087260D01*
X4308024Y84089914D01*
X4308615Y84092511D01*
X4308474Y84094486D01*
X4309204Y84101892D01*
X4309204Y84339987D01*
X4307763Y84354619D01*
X4296564Y84381655D01*
X4275872Y84402347D01*
X4248836Y84413546D01*
X4234204Y84414987D01*
X3234204Y84414987D01*
X3219572Y84413546D01*
X3192536Y84402347D01*
X3171844Y84381655D01*
X3160645Y84354619D01*
X3159204Y84339987D01*
X3048093Y84339987D01*
X3048093Y85382367D01*
X3159387Y85382367D01*
X3160645Y85377755D01*
X3160645Y85372974D01*
X3164462Y85363759D01*
X3167087Y85354135D01*
X3170014Y85350355D01*
X3171844Y85345938D01*
X3178894Y85338888D01*
X3185004Y85330998D01*
X3191136Y85326646D01*
X3192536Y85325246D01*
X3193910Y85324677D01*
X3196994Y85322488D01*
X3951787Y84891178D01*
X3234204Y84891178D01*
X3219572Y84889737D01*
X3192536Y84878538D01*
X3171844Y84857846D01*
X3160645Y84830810D01*
X3160645Y84801546D01*
X3171844Y84774510D01*
X3192536Y84753818D01*
X3219572Y84742619D01*
X3234204Y84741178D01*
X4234204Y84741178D01*
X4237967Y84741549D01*
X4239443Y84741361D01*
X4241353Y84741883D01*
X4248836Y84742619D01*
X4258051Y84746437D01*
X4267675Y84749061D01*
X4271455Y84751989D01*
X4275872Y84753818D01*
X4282922Y84760869D01*
X4290812Y84766978D01*
X4293185Y84771132D01*
X4296564Y84774510D01*
X4300380Y84783723D01*
X4305331Y84792387D01*
X4305933Y84797131D01*
X4307763Y84801546D01*
X4307763Y84811521D01*
X4309021Y84821417D01*
X4307763Y84826030D01*
X4307763Y84830810D01*
X4303945Y84840027D01*
X4301321Y84849648D01*
X4298394Y84853428D01*
X4296564Y84857846D01*
X4289512Y84864898D01*
X4283404Y84872786D01*
X4277269Y84877141D01*
X4275872Y84878538D01*
X4274499Y84879107D01*
X4271415Y84881296D01*
X3516621Y85312606D01*
X4234204Y85312606D01*
X4248836Y85314047D01*
X4275872Y85325246D01*
X4296564Y85345938D01*
X4307763Y85372974D01*
X4307763Y85402238D01*
X4296564Y85429274D01*
X4275872Y85449966D01*
X4248836Y85461165D01*
X4234204Y85462606D01*
X3234204Y85462606D01*
X3230440Y85462236D01*
X3228965Y85462423D01*
X3227054Y85461902D01*
X3219572Y85461165D01*
X3210356Y85457348D01*
X3200733Y85454723D01*
X3196952Y85451796D01*
X3192536Y85449966D01*
X3185485Y85442916D01*
X3177596Y85436806D01*
X3175222Y85432653D01*
X3171844Y85429274D01*
X3168027Y85420062D01*
X3163077Y85411397D01*
X3162474Y85406654D01*
X3160645Y85402238D01*
X3160645Y85392264D01*
X3159387Y85382367D01*
X3048093Y85382367D01*
X3048093Y86101892D01*
X3159204Y86101892D01*
X3159204Y85959035D01*
X3160645Y85944403D01*
X3161676Y85941914D01*
X3161867Y85939226D01*
X3167122Y85925494D01*
X3214741Y85830256D01*
X3222573Y85817813D01*
X3244681Y85798640D01*
X3272442Y85789386D01*
X3301632Y85791460D01*
X3327807Y85804548D01*
X3346980Y85826655D01*
X3356234Y85854417D01*
X3354160Y85883607D01*
X3348905Y85897338D01*
X3309204Y85976740D01*
X3309204Y86089722D01*
X3347375Y86204236D01*
X3421488Y86278348D01*
X3498475Y86316842D01*
X3672009Y86360225D01*
X3796398Y86360225D01*
X3969932Y86316842D01*
X4046919Y86278348D01*
X4121033Y86204235D01*
X4159204Y86089722D01*
X4159204Y86018824D01*
X4121033Y85904312D01*
X4107899Y85891178D01*
X3880632Y85891178D01*
X3880632Y86006654D01*
X3879191Y86021286D01*
X3867992Y86048322D01*
X3847300Y86069014D01*
X3820264Y86080213D01*
X3791000Y86080213D01*
X3763964Y86069014D01*
X3743272Y86048322D01*
X3732073Y86021286D01*
X3730632Y86006654D01*
X3730632Y85816178D01*
X3732073Y85801547D01*
X3732073Y85801546D01*
X3743272Y85774510D01*
X3763964Y85753818D01*
X3791000Y85742619D01*
X3805632Y85741178D01*
X4138965Y85741178D01*
X4153597Y85742619D01*
X4164795Y85747258D01*
X4180632Y85753817D01*
X4191997Y85763144D01*
X4239617Y85810763D01*
X4248945Y85822129D01*
X4249975Y85824618D01*
X4251742Y85826654D01*
X4257736Y85840080D01*
X4305355Y85982936D01*
X4307004Y85990192D01*
X4307763Y85992022D01*
X4308024Y85994676D01*
X4308615Y85997273D01*
X4308474Y85999248D01*
X4309204Y86006654D01*
X4309204Y86101892D01*
X4308474Y86109299D01*
X4308615Y86111273D01*
X4308024Y86113871D01*
X4307763Y86116524D01*
X4307004Y86118355D01*
X4305355Y86125610D01*
X4257736Y86268466D01*
X4251742Y86281892D01*
X4249977Y86283927D01*
X4248946Y86286417D01*
X4239618Y86297782D01*
X4144379Y86393020D01*
X4138629Y86397739D01*
X4137330Y86399237D01*
X4135071Y86400659D01*
X4133013Y86402348D01*
X4131183Y86403106D01*
X4124887Y86407069D01*
X4029649Y86454688D01*
X4028579Y86455098D01*
X4028144Y86455420D01*
X4021998Y86457616D01*
X4015917Y86459943D01*
X4015377Y86459982D01*
X4014298Y86460367D01*
X3823822Y86507986D01*
X3821285Y86508362D01*
X3820264Y86508784D01*
X3814751Y86509327D01*
X3809278Y86510136D01*
X3808185Y86509974D01*
X3805632Y86510225D01*
X3662775Y86510225D01*
X3660221Y86509974D01*
X3659129Y86510136D01*
X3653655Y86509327D01*
X3648143Y86508784D01*
X3647121Y86508362D01*
X3644585Y86507986D01*
X3454109Y86460367D01*
X3453029Y86459982D01*
X3452489Y86459943D01*
X3446399Y86457613D01*
X3440263Y86455420D01*
X3439827Y86455098D01*
X3438758Y86454688D01*
X3343520Y86407069D01*
X3337225Y86403107D01*
X3335393Y86402348D01*
X3333331Y86400657D01*
X3331077Y86399237D01*
X3329778Y86397741D01*
X3324028Y86393020D01*
X3228790Y86297782D01*
X3219463Y86286417D01*
X3218431Y86283927D01*
X3216666Y86281891D01*
X3210672Y86268466D01*
X3163053Y86125609D01*
X3161403Y86118356D01*
X3160645Y86116524D01*
X3160383Y86113870D01*
X3159793Y86111272D01*
X3159933Y86109298D01*
X3159204Y86101892D01*
X3048093Y86101892D01*
X3048093Y86621336D01*
X4420315Y86621336D01*
X4420315Y83582448D01*
G37*
G36*
X60863716Y103858638D02*
G01*
X59443876Y103858638D01*
X59443876Y105044566D01*
X59554987Y105044566D01*
X59554987Y104044566D01*
X59555357Y104040803D01*
X59555170Y104039327D01*
X59555691Y104037417D01*
X59556428Y104029934D01*
X59560245Y104020719D01*
X59562870Y104011095D01*
X59565797Y104007315D01*
X59567627Y104002898D01*
X59574677Y103995848D01*
X59580787Y103987958D01*
X59584940Y103985585D01*
X59588319Y103982206D01*
X59597531Y103978390D01*
X59606196Y103973439D01*
X59610939Y103972837D01*
X59615355Y103971007D01*
X59625329Y103971007D01*
X59635226Y103969749D01*
X59639838Y103971007D01*
X59644619Y103971007D01*
X59653834Y103974825D01*
X59663458Y103977449D01*
X59667238Y103980377D01*
X59671655Y103982206D01*
X59678705Y103989257D01*
X59686595Y103995366D01*
X59690947Y104001499D01*
X59692347Y104002898D01*
X59692916Y104004273D01*
X59695105Y104007356D01*
X60126415Y104762150D01*
X60126415Y104044566D01*
X60127856Y104029934D01*
X60139055Y104002898D01*
X60159747Y103982206D01*
X60186783Y103971007D01*
X60216047Y103971007D01*
X60243083Y103982206D01*
X60263775Y104002898D01*
X60274974Y104029934D01*
X60276415Y104044566D01*
X60276415Y105044566D01*
X60602605Y105044566D01*
X60602605Y104044566D01*
X60604046Y104029934D01*
X60615245Y104002898D01*
X60635937Y103982206D01*
X60662973Y103971007D01*
X60692237Y103971007D01*
X60719273Y103982206D01*
X60739965Y104002898D01*
X60751164Y104029934D01*
X60752605Y104044566D01*
X60752605Y105044566D01*
X60751164Y105059198D01*
X60739965Y105086234D01*
X60719273Y105106926D01*
X60692237Y105118125D01*
X60662973Y105118125D01*
X60635937Y105106926D01*
X60615245Y105086234D01*
X60604046Y105059198D01*
X60602605Y105044566D01*
X60276415Y105044566D01*
X60276044Y105048330D01*
X60276232Y105049805D01*
X60275710Y105051716D01*
X60274974Y105059198D01*
X60271156Y105068414D01*
X60268532Y105078037D01*
X60265604Y105081818D01*
X60263775Y105086234D01*
X60256724Y105093285D01*
X60250615Y105101174D01*
X60246461Y105103548D01*
X60243083Y105106926D01*
X60233870Y105110743D01*
X60225206Y105115693D01*
X60220462Y105116296D01*
X60216047Y105118125D01*
X60206073Y105118125D01*
X60196176Y105119383D01*
X60191564Y105118125D01*
X60186783Y105118125D01*
X60177566Y105114308D01*
X60167945Y105111683D01*
X60164165Y105108757D01*
X60159747Y105106926D01*
X60152695Y105099875D01*
X60144807Y105093766D01*
X60140452Y105087632D01*
X60139055Y105086234D01*
X60138486Y105084862D01*
X60136297Y105081777D01*
X59704987Y104326983D01*
X59704987Y105044566D01*
X59703546Y105059198D01*
X59692347Y105086234D01*
X59671655Y105106926D01*
X59644619Y105118125D01*
X59615355Y105118125D01*
X59588319Y105106926D01*
X59567627Y105086234D01*
X59556428Y105059198D01*
X59554987Y105044566D01*
X59443876Y105044566D01*
X59443876Y105230494D01*
X60863716Y105230494D01*
X60863716Y103858638D01*
G37*
G36*
X170779204Y92094062D02*
G01*
X170741033Y91979550D01*
X170666919Y91905437D01*
X170589932Y91866943D01*
X170416398Y91823559D01*
X170292009Y91823559D01*
X170118475Y91866943D01*
X170041488Y91905436D01*
X169967375Y91979549D01*
X169929204Y92094063D01*
X169929204Y92244987D01*
X170779204Y92244987D01*
X170779204Y92094062D01*
G37*
G36*
X171040315Y91562448D02*
G01*
X169668093Y91562448D01*
X169668093Y92319987D01*
X169779204Y92319987D01*
X169779204Y92081892D01*
X169779933Y92074487D01*
X169779793Y92072512D01*
X169780383Y92069915D01*
X169780645Y92067260D01*
X169781403Y92065429D01*
X169783053Y92058175D01*
X169830672Y91915318D01*
X169836666Y91901893D01*
X169838431Y91899858D01*
X169839463Y91897367D01*
X169848790Y91886002D01*
X169944028Y91790764D01*
X169949778Y91786044D01*
X169951077Y91784547D01*
X169953331Y91783128D01*
X169955393Y91781436D01*
X169957225Y91780678D01*
X169963520Y91776715D01*
X170058758Y91729096D01*
X170059827Y91728687D01*
X170060263Y91728364D01*
X170066399Y91726172D01*
X170072489Y91723841D01*
X170073029Y91723803D01*
X170074109Y91723417D01*
X170264585Y91675798D01*
X170267121Y91675423D01*
X170268143Y91675000D01*
X170273655Y91674458D01*
X170279129Y91673648D01*
X170280221Y91673811D01*
X170282775Y91673559D01*
X170425632Y91673559D01*
X170428185Y91673811D01*
X170429278Y91673648D01*
X170434751Y91674458D01*
X170440264Y91675000D01*
X170441285Y91675423D01*
X170443822Y91675798D01*
X170634298Y91723417D01*
X170635377Y91723803D01*
X170635917Y91723841D01*
X170641998Y91726169D01*
X170648144Y91728364D01*
X170648579Y91728687D01*
X170649649Y91729096D01*
X170744887Y91776715D01*
X170751183Y91780679D01*
X170753013Y91781436D01*
X170755071Y91783126D01*
X170757330Y91784547D01*
X170758629Y91786046D01*
X170764379Y91790764D01*
X170859618Y91886002D01*
X170868946Y91897367D01*
X170869977Y91899858D01*
X170871742Y91901892D01*
X170877736Y91915318D01*
X170925355Y92058174D01*
X170927004Y92065430D01*
X170927763Y92067260D01*
X170928024Y92069914D01*
X170928615Y92072511D01*
X170928474Y92074486D01*
X170929204Y92081892D01*
X170929204Y92319987D01*
X170927763Y92334619D01*
X170916564Y92361655D01*
X170895872Y92382347D01*
X170868836Y92393546D01*
X170854204Y92394987D01*
X169854204Y92394987D01*
X169839572Y92393546D01*
X169812536Y92382347D01*
X169791844Y92361655D01*
X169780645Y92334619D01*
X169779204Y92319987D01*
X169668093Y92319987D01*
X169668093Y93362367D01*
X169779387Y93362367D01*
X169780645Y93357755D01*
X169780645Y93352974D01*
X169784462Y93343759D01*
X169787087Y93334135D01*
X169790014Y93330355D01*
X169791844Y93325938D01*
X169798894Y93318888D01*
X169805004Y93310998D01*
X169811136Y93306646D01*
X169812536Y93305246D01*
X169813910Y93304677D01*
X169816994Y93302488D01*
X170571787Y92871178D01*
X169854204Y92871178D01*
X169839572Y92869737D01*
X169812536Y92858538D01*
X169791844Y92837846D01*
X169780645Y92810810D01*
X169780645Y92781546D01*
X169791844Y92754510D01*
X169812536Y92733818D01*
X169839572Y92722619D01*
X169854204Y92721178D01*
X170854204Y92721178D01*
X170857967Y92721549D01*
X170859443Y92721361D01*
X170861353Y92721883D01*
X170868836Y92722619D01*
X170878051Y92726437D01*
X170887675Y92729061D01*
X170891455Y92731989D01*
X170895872Y92733818D01*
X170902922Y92740869D01*
X170910812Y92746978D01*
X170913185Y92751132D01*
X170916564Y92754510D01*
X170920380Y92763723D01*
X170925331Y92772387D01*
X170925933Y92777131D01*
X170927763Y92781546D01*
X170927763Y92791521D01*
X170929021Y92801417D01*
X170927763Y92806030D01*
X170927763Y92810810D01*
X170923945Y92820027D01*
X170921321Y92829648D01*
X170918394Y92833428D01*
X170916564Y92837846D01*
X170909512Y92844898D01*
X170903404Y92852786D01*
X170897269Y92857141D01*
X170895872Y92858538D01*
X170894499Y92859107D01*
X170891415Y92861296D01*
X170136621Y93292606D01*
X170854204Y93292606D01*
X170868836Y93294047D01*
X170895872Y93305246D01*
X170916564Y93325938D01*
X170927763Y93352974D01*
X170927763Y93382238D01*
X170916564Y93409274D01*
X170895872Y93429966D01*
X170868836Y93441165D01*
X170854204Y93442606D01*
X169854204Y93442606D01*
X169850440Y93442236D01*
X169848965Y93442423D01*
X169847054Y93441902D01*
X169839572Y93441165D01*
X169830356Y93437348D01*
X169820733Y93434723D01*
X169816952Y93431796D01*
X169812536Y93429966D01*
X169805485Y93422916D01*
X169797596Y93416806D01*
X169795222Y93412653D01*
X169791844Y93409274D01*
X169788027Y93400062D01*
X169783077Y93391397D01*
X169782474Y93386654D01*
X169780645Y93382238D01*
X169780645Y93372264D01*
X169779387Y93362367D01*
X169668093Y93362367D01*
X169668093Y94081892D01*
X169779204Y94081892D01*
X169779204Y93939035D01*
X169780645Y93924403D01*
X169781676Y93921914D01*
X169781867Y93919226D01*
X169787122Y93905494D01*
X169834741Y93810256D01*
X169842573Y93797813D01*
X169864681Y93778640D01*
X169892442Y93769386D01*
X169921632Y93771460D01*
X169947807Y93784548D01*
X169966980Y93806655D01*
X169976234Y93834417D01*
X169974160Y93863607D01*
X169968905Y93877338D01*
X169929204Y93956740D01*
X169929204Y94069722D01*
X169967375Y94184236D01*
X170041488Y94258348D01*
X170118475Y94296842D01*
X170292009Y94340225D01*
X170416398Y94340225D01*
X170589932Y94296842D01*
X170666919Y94258348D01*
X170741033Y94184235D01*
X170779204Y94069722D01*
X170779204Y93998824D01*
X170741033Y93884312D01*
X170727899Y93871178D01*
X170500632Y93871178D01*
X170500632Y93986654D01*
X170499191Y94001286D01*
X170487992Y94028322D01*
X170467300Y94049014D01*
X170440264Y94060213D01*
X170411000Y94060213D01*
X170383964Y94049014D01*
X170363272Y94028322D01*
X170352073Y94001286D01*
X170350632Y93986654D01*
X170350632Y93796178D01*
X170352073Y93781547D01*
X170352073Y93781546D01*
X170363272Y93754510D01*
X170383964Y93733818D01*
X170411000Y93722619D01*
X170425632Y93721178D01*
X170758965Y93721178D01*
X170773597Y93722619D01*
X170784795Y93727258D01*
X170800632Y93733817D01*
X170811997Y93743144D01*
X170859617Y93790763D01*
X170868945Y93802129D01*
X170869975Y93804618D01*
X170871742Y93806654D01*
X170877736Y93820080D01*
X170925355Y93962936D01*
X170927004Y93970192D01*
X170927763Y93972022D01*
X170928024Y93974676D01*
X170928615Y93977273D01*
X170928474Y93979248D01*
X170929204Y93986654D01*
X170929204Y94081892D01*
X170928474Y94089299D01*
X170928615Y94091273D01*
X170928024Y94093871D01*
X170927763Y94096524D01*
X170927004Y94098355D01*
X170925355Y94105610D01*
X170877736Y94248466D01*
X170871742Y94261892D01*
X170869977Y94263927D01*
X170868946Y94266417D01*
X170859618Y94277782D01*
X170764379Y94373020D01*
X170758629Y94377739D01*
X170757330Y94379237D01*
X170755071Y94380659D01*
X170753013Y94382348D01*
X170751183Y94383106D01*
X170744887Y94387069D01*
X170649649Y94434688D01*
X170648579Y94435098D01*
X170648144Y94435420D01*
X170641998Y94437616D01*
X170635917Y94439943D01*
X170635377Y94439982D01*
X170634298Y94440367D01*
X170443822Y94487986D01*
X170441285Y94488362D01*
X170440264Y94488784D01*
X170434751Y94489327D01*
X170429278Y94490136D01*
X170428185Y94489974D01*
X170425632Y94490225D01*
X170282775Y94490225D01*
X170280221Y94489974D01*
X170279129Y94490136D01*
X170273655Y94489327D01*
X170268143Y94488784D01*
X170267121Y94488362D01*
X170264585Y94487986D01*
X170074109Y94440367D01*
X170073029Y94439982D01*
X170072489Y94439943D01*
X170066399Y94437613D01*
X170060263Y94435420D01*
X170059827Y94435098D01*
X170058758Y94434688D01*
X169963520Y94387069D01*
X169957225Y94383107D01*
X169955393Y94382348D01*
X169953331Y94380657D01*
X169951077Y94379237D01*
X169949778Y94377741D01*
X169944028Y94373020D01*
X169848790Y94277782D01*
X169839463Y94266417D01*
X169838431Y94263927D01*
X169836666Y94261891D01*
X169830672Y94248466D01*
X169783053Y94105609D01*
X169781403Y94098356D01*
X169780645Y94096524D01*
X169780383Y94093870D01*
X169779793Y94091272D01*
X169779933Y94089298D01*
X169779204Y94081892D01*
X169668093Y94081892D01*
X169668093Y94601336D01*
X171040315Y94601336D01*
X171040315Y91562448D01*
G37*
X71967129Y12144454D02*
X71776653Y12144454D01*
X71776653Y12144454D02*
X71681415Y12096835D01*
X71681415Y12096835D02*
X71586177Y12001597D01*
X71586177Y12001597D02*
X71538558Y11811121D01*
X71538558Y11811121D02*
X71538558Y11477788D01*
X71538558Y11477788D02*
X71586177Y11287312D01*
X71586177Y11287312D02*
X71681415Y11192073D01*
X71681415Y11192073D02*
X71776653Y11144454D01*
X71776653Y11144454D02*
X71967129Y11144454D01*
X71967129Y11144454D02*
X72062367Y11192073D01*
X72062367Y11192073D02*
X72157605Y11287312D01*
X72157605Y11287312D02*
X72205224Y11477788D01*
X72205224Y11477788D02*
X72205224Y11811121D01*
X72205224Y11811121D02*
X72157605Y12001597D01*
X72157605Y12001597D02*
X72062367Y12096835D01*
X72062367Y12096835D02*
X71967129Y12144454D01*
X71109986Y11811121D02*
X71109986Y10811121D01*
X71109986Y11763502D02*
X71014748Y11811121D01*
X71014748Y11811121D02*
X70824272Y11811121D01*
X70824272Y11811121D02*
X70729034Y11763502D01*
X70729034Y11763502D02*
X70681415Y11715883D01*
X70681415Y11715883D02*
X70633796Y11620645D01*
X70633796Y11620645D02*
X70633796Y11334931D01*
X70633796Y11334931D02*
X70681415Y11239693D01*
X70681415Y11239693D02*
X70729034Y11192073D01*
X70729034Y11192073D02*
X70824272Y11144454D01*
X70824272Y11144454D02*
X71014748Y11144454D01*
X71014748Y11144454D02*
X71109986Y11192073D01*
X69824272Y11192073D02*
X69919510Y11144454D01*
X69919510Y11144454D02*
X70109986Y11144454D01*
X70109986Y11144454D02*
X70205224Y11192073D01*
X70205224Y11192073D02*
X70252843Y11287312D01*
X70252843Y11287312D02*
X70252843Y11668264D01*
X70252843Y11668264D02*
X70205224Y11763502D01*
X70205224Y11763502D02*
X70109986Y11811121D01*
X70109986Y11811121D02*
X69919510Y11811121D01*
X69919510Y11811121D02*
X69824272Y11763502D01*
X69824272Y11763502D02*
X69776653Y11668264D01*
X69776653Y11668264D02*
X69776653Y11573026D01*
X69776653Y11573026D02*
X70252843Y11477788D01*
X69348081Y11811121D02*
X69348081Y11144454D01*
X69348081Y11715883D02*
X69300462Y11763502D01*
X69300462Y11763502D02*
X69205224Y11811121D01*
X69205224Y11811121D02*
X69062367Y11811121D01*
X69062367Y11811121D02*
X68967129Y11763502D01*
X68967129Y11763502D02*
X68919510Y11668264D01*
X68919510Y11668264D02*
X68919510Y11144454D01*
X67681414Y11144454D02*
X67681414Y12144454D01*
X67681414Y12144454D02*
X67300462Y12144454D01*
X67300462Y12144454D02*
X67205224Y12096835D01*
X67205224Y12096835D02*
X67157605Y12049216D01*
X67157605Y12049216D02*
X67109986Y11953978D01*
X67109986Y11953978D02*
X67109986Y11811121D01*
X67109986Y11811121D02*
X67157605Y11715883D01*
X67157605Y11715883D02*
X67205224Y11668264D01*
X67205224Y11668264D02*
X67300462Y11620645D01*
X67300462Y11620645D02*
X67681414Y11620645D01*
X66300462Y11192073D02*
X66395700Y11144454D01*
X66395700Y11144454D02*
X66586176Y11144454D01*
X66586176Y11144454D02*
X66681414Y11192073D01*
X66681414Y11192073D02*
X66729033Y11287312D01*
X66729033Y11287312D02*
X66729033Y11668264D01*
X66729033Y11668264D02*
X66681414Y11763502D01*
X66681414Y11763502D02*
X66586176Y11811121D01*
X66586176Y11811121D02*
X66395700Y11811121D01*
X66395700Y11811121D02*
X66300462Y11763502D01*
X66300462Y11763502D02*
X66252843Y11668264D01*
X66252843Y11668264D02*
X66252843Y11573026D01*
X66252843Y11573026D02*
X66729033Y11477788D01*
X65395700Y11144454D02*
X65395700Y12144454D01*
X65395700Y11192073D02*
X65490938Y11144454D01*
X65490938Y11144454D02*
X65681414Y11144454D01*
X65681414Y11144454D02*
X65776652Y11192073D01*
X65776652Y11192073D02*
X65824271Y11239693D01*
X65824271Y11239693D02*
X65871890Y11334931D01*
X65871890Y11334931D02*
X65871890Y11620645D01*
X65871890Y11620645D02*
X65824271Y11715883D01*
X65824271Y11715883D02*
X65776652Y11763502D01*
X65776652Y11763502D02*
X65681414Y11811121D01*
X65681414Y11811121D02*
X65490938Y11811121D01*
X65490938Y11811121D02*
X65395700Y11763502D01*
X64490938Y11144454D02*
X64490938Y11668264D01*
X64490938Y11668264D02*
X64538557Y11763502D01*
X64538557Y11763502D02*
X64633795Y11811121D01*
X64633795Y11811121D02*
X64824271Y11811121D01*
X64824271Y11811121D02*
X64919509Y11763502D01*
X64490938Y11192073D02*
X64586176Y11144454D01*
X64586176Y11144454D02*
X64824271Y11144454D01*
X64824271Y11144454D02*
X64919509Y11192073D01*
X64919509Y11192073D02*
X64967128Y11287312D01*
X64967128Y11287312D02*
X64967128Y11382550D01*
X64967128Y11382550D02*
X64919509Y11477788D01*
X64919509Y11477788D02*
X64824271Y11525407D01*
X64824271Y11525407D02*
X64586176Y11525407D01*
X64586176Y11525407D02*
X64490938Y11573026D01*
X63871890Y11144454D02*
X63967128Y11192073D01*
X63967128Y11192073D02*
X64014747Y11287312D01*
X64014747Y11287312D02*
X64014747Y12144454D01*
X63490937Y11144454D02*
X63490937Y12144454D01*
X63490937Y11763502D02*
X63395699Y11811121D01*
X63395699Y11811121D02*
X63205223Y11811121D01*
X63205223Y11811121D02*
X63109985Y11763502D01*
X63109985Y11763502D02*
X63062366Y11715883D01*
X63062366Y11715883D02*
X63014747Y11620645D01*
X63014747Y11620645D02*
X63014747Y11334931D01*
X63014747Y11334931D02*
X63062366Y11239693D01*
X63062366Y11239693D02*
X63109985Y11192073D01*
X63109985Y11192073D02*
X63205223Y11144454D01*
X63205223Y11144454D02*
X63395699Y11144454D01*
X63395699Y11144454D02*
X63490937Y11192073D01*
X62443318Y11144454D02*
X62538556Y11192073D01*
X62538556Y11192073D02*
X62586175Y11239693D01*
X62586175Y11239693D02*
X62633794Y11334931D01*
X62633794Y11334931D02*
X62633794Y11620645D01*
X62633794Y11620645D02*
X62586175Y11715883D01*
X62586175Y11715883D02*
X62538556Y11763502D01*
X62538556Y11763502D02*
X62443318Y11811121D01*
X62443318Y11811121D02*
X62300461Y11811121D01*
X62300461Y11811121D02*
X62205223Y11763502D01*
X62205223Y11763502D02*
X62157604Y11715883D01*
X62157604Y11715883D02*
X62109985Y11620645D01*
X62109985Y11620645D02*
X62109985Y11334931D01*
X62109985Y11334931D02*
X62157604Y11239693D01*
X62157604Y11239693D02*
X62205223Y11192073D01*
X62205223Y11192073D02*
X62300461Y11144454D01*
X62300461Y11144454D02*
X62443318Y11144454D01*
X61252842Y11144454D02*
X61252842Y11668264D01*
X61252842Y11668264D02*
X61300461Y11763502D01*
X61300461Y11763502D02*
X61395699Y11811121D01*
X61395699Y11811121D02*
X61586175Y11811121D01*
X61586175Y11811121D02*
X61681413Y11763502D01*
X61252842Y11192073D02*
X61348080Y11144454D01*
X61348080Y11144454D02*
X61586175Y11144454D01*
X61586175Y11144454D02*
X61681413Y11192073D01*
X61681413Y11192073D02*
X61729032Y11287312D01*
X61729032Y11287312D02*
X61729032Y11382550D01*
X61729032Y11382550D02*
X61681413Y11477788D01*
X61681413Y11477788D02*
X61586175Y11525407D01*
X61586175Y11525407D02*
X61348080Y11525407D01*
X61348080Y11525407D02*
X61252842Y11573026D01*
X60776651Y11144454D02*
X60776651Y11811121D01*
X60776651Y11620645D02*
X60729032Y11715883D01*
X60729032Y11715883D02*
X60681413Y11763502D01*
X60681413Y11763502D02*
X60586175Y11811121D01*
X60586175Y11811121D02*
X60490937Y11811121D01*
X59729032Y11144454D02*
X59729032Y12144454D01*
X59729032Y11192073D02*
X59824270Y11144454D01*
X59824270Y11144454D02*
X60014746Y11144454D01*
X60014746Y11144454D02*
X60109984Y11192073D01*
X60109984Y11192073D02*
X60157603Y11239693D01*
X60157603Y11239693D02*
X60205222Y11334931D01*
X60205222Y11334931D02*
X60205222Y11620645D01*
X60205222Y11620645D02*
X60157603Y11715883D01*
X60157603Y11715883D02*
X60109984Y11763502D01*
X60109984Y11763502D02*
X60014746Y11811121D01*
X60014746Y11811121D02*
X59824270Y11811121D01*
X59824270Y11811121D02*
X59729032Y11763502D01*
X58490936Y11144454D02*
X58490936Y12144454D01*
X58490936Y12144454D02*
X58157603Y11430169D01*
X58157603Y11430169D02*
X57824270Y12144454D01*
X57824270Y12144454D02*
X57824270Y11144454D01*
X56919508Y11144454D02*
X56919508Y11668264D01*
X56919508Y11668264D02*
X56967127Y11763502D01*
X56967127Y11763502D02*
X57062365Y11811121D01*
X57062365Y11811121D02*
X57252841Y11811121D01*
X57252841Y11811121D02*
X57348079Y11763502D01*
X56919508Y11192073D02*
X57014746Y11144454D01*
X57014746Y11144454D02*
X57252841Y11144454D01*
X57252841Y11144454D02*
X57348079Y11192073D01*
X57348079Y11192073D02*
X57395698Y11287312D01*
X57395698Y11287312D02*
X57395698Y11382550D01*
X57395698Y11382550D02*
X57348079Y11477788D01*
X57348079Y11477788D02*
X57252841Y11525407D01*
X57252841Y11525407D02*
X57014746Y11525407D01*
X57014746Y11525407D02*
X56919508Y11573026D01*
X56443317Y11144454D02*
X56443317Y11811121D01*
X56443317Y12144454D02*
X56490936Y12096835D01*
X56490936Y12096835D02*
X56443317Y12049216D01*
X56443317Y12049216D02*
X56395698Y12096835D01*
X56395698Y12096835D02*
X56443317Y12144454D01*
X56443317Y12144454D02*
X56443317Y12049216D01*
X55967127Y11811121D02*
X55967127Y11144454D01*
X55967127Y11715883D02*
X55919508Y11763502D01*
X55919508Y11763502D02*
X55824270Y11811121D01*
X55824270Y11811121D02*
X55681413Y11811121D01*
X55681413Y11811121D02*
X55586175Y11763502D01*
X55586175Y11763502D02*
X55538556Y11668264D01*
X55538556Y11668264D02*
X55538556Y11144454D01*
X55062365Y11144454D02*
X55062365Y12144454D01*
X55062365Y11763502D02*
X54967127Y11811121D01*
X54967127Y11811121D02*
X54776651Y11811121D01*
X54776651Y11811121D02*
X54681413Y11763502D01*
X54681413Y11763502D02*
X54633794Y11715883D01*
X54633794Y11715883D02*
X54586175Y11620645D01*
X54586175Y11620645D02*
X54586175Y11334931D01*
X54586175Y11334931D02*
X54633794Y11239693D01*
X54633794Y11239693D02*
X54681413Y11192073D01*
X54681413Y11192073D02*
X54776651Y11144454D01*
X54776651Y11144454D02*
X54967127Y11144454D01*
X54967127Y11144454D02*
X55062365Y11192073D01*
X54014746Y11144454D02*
X54109984Y11192073D01*
X54109984Y11192073D02*
X54157603Y11239693D01*
X54157603Y11239693D02*
X54205222Y11334931D01*
X54205222Y11334931D02*
X54205222Y11620645D01*
X54205222Y11620645D02*
X54157603Y11715883D01*
X54157603Y11715883D02*
X54109984Y11763502D01*
X54109984Y11763502D02*
X54014746Y11811121D01*
X54014746Y11811121D02*
X53871889Y11811121D01*
X53871889Y11811121D02*
X53776651Y11763502D01*
X53776651Y11763502D02*
X53729032Y11715883D01*
X53729032Y11715883D02*
X53681413Y11620645D01*
X53681413Y11620645D02*
X53681413Y11334931D01*
X53681413Y11334931D02*
X53729032Y11239693D01*
X53729032Y11239693D02*
X53776651Y11192073D01*
X53776651Y11192073D02*
X53871889Y11144454D01*
X53871889Y11144454D02*
X54014746Y11144454D01*
X52824270Y11144454D02*
X52824270Y11668264D01*
X52824270Y11668264D02*
X52871889Y11763502D01*
X52871889Y11763502D02*
X52967127Y11811121D01*
X52967127Y11811121D02*
X53157603Y11811121D01*
X53157603Y11811121D02*
X53252841Y11763502D01*
X52824270Y11192073D02*
X52919508Y11144454D01*
X52919508Y11144454D02*
X53157603Y11144454D01*
X53157603Y11144454D02*
X53252841Y11192073D01*
X53252841Y11192073D02*
X53300460Y11287312D01*
X53300460Y11287312D02*
X53300460Y11382550D01*
X53300460Y11382550D02*
X53252841Y11477788D01*
X53252841Y11477788D02*
X53157603Y11525407D01*
X53157603Y11525407D02*
X52919508Y11525407D01*
X52919508Y11525407D02*
X52824270Y11573026D01*
X52348079Y11144454D02*
X52348079Y11811121D01*
X52348079Y11620645D02*
X52300460Y11715883D01*
X52300460Y11715883D02*
X52252841Y11763502D01*
X52252841Y11763502D02*
X52157603Y11811121D01*
X52157603Y11811121D02*
X52062365Y11811121D01*
X51300460Y11144454D02*
X51300460Y12144454D01*
X51300460Y11192073D02*
X51395698Y11144454D01*
X51395698Y11144454D02*
X51586174Y11144454D01*
X51586174Y11144454D02*
X51681412Y11192073D01*
X51681412Y11192073D02*
X51729031Y11239693D01*
X51729031Y11239693D02*
X51776650Y11334931D01*
X51776650Y11334931D02*
X51776650Y11620645D01*
X51776650Y11620645D02*
X51729031Y11715883D01*
X51729031Y11715883D02*
X51681412Y11763502D01*
X51681412Y11763502D02*
X51586174Y11811121D01*
X51586174Y11811121D02*
X51395698Y11811121D01*
X51395698Y11811121D02*
X51300460Y11763502D01*
X72157605Y9534510D02*
X72157605Y10534510D01*
X71729034Y9534510D02*
X71729034Y10058320D01*
X71729034Y10058320D02*
X71776653Y10153558D01*
X71776653Y10153558D02*
X71871891Y10201177D01*
X71871891Y10201177D02*
X72014748Y10201177D01*
X72014748Y10201177D02*
X72109986Y10153558D01*
X72109986Y10153558D02*
X72157605Y10105939D01*
X71395700Y10201177D02*
X71014748Y10201177D01*
X71252843Y10534510D02*
X71252843Y9677368D01*
X71252843Y9677368D02*
X71205224Y9582129D01*
X71205224Y9582129D02*
X71109986Y9534510D01*
X71109986Y9534510D02*
X71014748Y9534510D01*
X70824271Y10201177D02*
X70443319Y10201177D01*
X70681414Y10534510D02*
X70681414Y9677368D01*
X70681414Y9677368D02*
X70633795Y9582129D01*
X70633795Y9582129D02*
X70538557Y9534510D01*
X70538557Y9534510D02*
X70443319Y9534510D01*
X70109985Y10201177D02*
X70109985Y9201177D01*
X70109985Y10153558D02*
X70014747Y10201177D01*
X70014747Y10201177D02*
X69824271Y10201177D01*
X69824271Y10201177D02*
X69729033Y10153558D01*
X69729033Y10153558D02*
X69681414Y10105939D01*
X69681414Y10105939D02*
X69633795Y10010701D01*
X69633795Y10010701D02*
X69633795Y9724987D01*
X69633795Y9724987D02*
X69681414Y9629749D01*
X69681414Y9629749D02*
X69729033Y9582129D01*
X69729033Y9582129D02*
X69824271Y9534510D01*
X69824271Y9534510D02*
X70014747Y9534510D01*
X70014747Y9534510D02*
X70109985Y9582129D01*
X69252842Y9582129D02*
X69157604Y9534510D01*
X69157604Y9534510D02*
X68967128Y9534510D01*
X68967128Y9534510D02*
X68871890Y9582129D01*
X68871890Y9582129D02*
X68824271Y9677368D01*
X68824271Y9677368D02*
X68824271Y9724987D01*
X68824271Y9724987D02*
X68871890Y9820225D01*
X68871890Y9820225D02*
X68967128Y9867844D01*
X68967128Y9867844D02*
X69109985Y9867844D01*
X69109985Y9867844D02*
X69205223Y9915463D01*
X69205223Y9915463D02*
X69252842Y10010701D01*
X69252842Y10010701D02*
X69252842Y10058320D01*
X69252842Y10058320D02*
X69205223Y10153558D01*
X69205223Y10153558D02*
X69109985Y10201177D01*
X69109985Y10201177D02*
X68967128Y10201177D01*
X68967128Y10201177D02*
X68871890Y10153558D01*
X68395699Y9629749D02*
X68348080Y9582129D01*
X68348080Y9582129D02*
X68395699Y9534510D01*
X68395699Y9534510D02*
X68443318Y9582129D01*
X68443318Y9582129D02*
X68395699Y9629749D01*
X68395699Y9629749D02*
X68395699Y9534510D01*
X68395699Y10153558D02*
X68348080Y10105939D01*
X68348080Y10105939D02*
X68395699Y10058320D01*
X68395699Y10058320D02*
X68443318Y10105939D01*
X68443318Y10105939D02*
X68395699Y10153558D01*
X68395699Y10153558D02*
X68395699Y10058320D01*
X67205224Y10582129D02*
X68062366Y9296415D01*
X66157605Y10582129D02*
X67014747Y9296415D01*
X65395700Y10201177D02*
X65395700Y9391653D01*
X65395700Y9391653D02*
X65443319Y9296415D01*
X65443319Y9296415D02*
X65490938Y9248796D01*
X65490938Y9248796D02*
X65586176Y9201177D01*
X65586176Y9201177D02*
X65729033Y9201177D01*
X65729033Y9201177D02*
X65824271Y9248796D01*
X65395700Y9582129D02*
X65490938Y9534510D01*
X65490938Y9534510D02*
X65681414Y9534510D01*
X65681414Y9534510D02*
X65776652Y9582129D01*
X65776652Y9582129D02*
X65824271Y9629749D01*
X65824271Y9629749D02*
X65871890Y9724987D01*
X65871890Y9724987D02*
X65871890Y10010701D01*
X65871890Y10010701D02*
X65824271Y10105939D01*
X65824271Y10105939D02*
X65776652Y10153558D01*
X65776652Y10153558D02*
X65681414Y10201177D01*
X65681414Y10201177D02*
X65490938Y10201177D01*
X65490938Y10201177D02*
X65395700Y10153558D01*
X64919509Y9534510D02*
X64919509Y10201177D01*
X64919509Y10534510D02*
X64967128Y10486891D01*
X64967128Y10486891D02*
X64919509Y10439272D01*
X64919509Y10439272D02*
X64871890Y10486891D01*
X64871890Y10486891D02*
X64919509Y10534510D01*
X64919509Y10534510D02*
X64919509Y10439272D01*
X64586176Y10201177D02*
X64205224Y10201177D01*
X64443319Y10534510D02*
X64443319Y9677368D01*
X64443319Y9677368D02*
X64395700Y9582129D01*
X64395700Y9582129D02*
X64300462Y9534510D01*
X64300462Y9534510D02*
X64205224Y9534510D01*
X63871890Y9534510D02*
X63871890Y10534510D01*
X63443319Y9534510D02*
X63443319Y10058320D01*
X63443319Y10058320D02*
X63490938Y10153558D01*
X63490938Y10153558D02*
X63586176Y10201177D01*
X63586176Y10201177D02*
X63729033Y10201177D01*
X63729033Y10201177D02*
X63824271Y10153558D01*
X63824271Y10153558D02*
X63871890Y10105939D01*
X62538557Y10201177D02*
X62538557Y9534510D01*
X62967128Y10201177D02*
X62967128Y9677368D01*
X62967128Y9677368D02*
X62919509Y9582129D01*
X62919509Y9582129D02*
X62824271Y9534510D01*
X62824271Y9534510D02*
X62681414Y9534510D01*
X62681414Y9534510D02*
X62586176Y9582129D01*
X62586176Y9582129D02*
X62538557Y9629749D01*
X62062366Y9534510D02*
X62062366Y10534510D01*
X62062366Y10153558D02*
X61967128Y10201177D01*
X61967128Y10201177D02*
X61776652Y10201177D01*
X61776652Y10201177D02*
X61681414Y10153558D01*
X61681414Y10153558D02*
X61633795Y10105939D01*
X61633795Y10105939D02*
X61586176Y10010701D01*
X61586176Y10010701D02*
X61586176Y9724987D01*
X61586176Y9724987D02*
X61633795Y9629749D01*
X61633795Y9629749D02*
X61681414Y9582129D01*
X61681414Y9582129D02*
X61776652Y9534510D01*
X61776652Y9534510D02*
X61967128Y9534510D01*
X61967128Y9534510D02*
X62062366Y9582129D01*
X61157604Y9629749D02*
X61109985Y9582129D01*
X61109985Y9582129D02*
X61157604Y9534510D01*
X61157604Y9534510D02*
X61205223Y9582129D01*
X61205223Y9582129D02*
X61157604Y9629749D01*
X61157604Y9629749D02*
X61157604Y9534510D01*
X60252843Y9582129D02*
X60348081Y9534510D01*
X60348081Y9534510D02*
X60538557Y9534510D01*
X60538557Y9534510D02*
X60633795Y9582129D01*
X60633795Y9582129D02*
X60681414Y9629749D01*
X60681414Y9629749D02*
X60729033Y9724987D01*
X60729033Y9724987D02*
X60729033Y10010701D01*
X60729033Y10010701D02*
X60681414Y10105939D01*
X60681414Y10105939D02*
X60633795Y10153558D01*
X60633795Y10153558D02*
X60538557Y10201177D01*
X60538557Y10201177D02*
X60348081Y10201177D01*
X60348081Y10201177D02*
X60252843Y10153558D01*
X59681414Y9534510D02*
X59776652Y9582129D01*
X59776652Y9582129D02*
X59824271Y9629749D01*
X59824271Y9629749D02*
X59871890Y9724987D01*
X59871890Y9724987D02*
X59871890Y10010701D01*
X59871890Y10010701D02*
X59824271Y10105939D01*
X59824271Y10105939D02*
X59776652Y10153558D01*
X59776652Y10153558D02*
X59681414Y10201177D01*
X59681414Y10201177D02*
X59538557Y10201177D01*
X59538557Y10201177D02*
X59443319Y10153558D01*
X59443319Y10153558D02*
X59395700Y10105939D01*
X59395700Y10105939D02*
X59348081Y10010701D01*
X59348081Y10010701D02*
X59348081Y9724987D01*
X59348081Y9724987D02*
X59395700Y9629749D01*
X59395700Y9629749D02*
X59443319Y9582129D01*
X59443319Y9582129D02*
X59538557Y9534510D01*
X59538557Y9534510D02*
X59681414Y9534510D01*
X58919509Y9534510D02*
X58919509Y10201177D01*
X58919509Y10105939D02*
X58871890Y10153558D01*
X58871890Y10153558D02*
X58776652Y10201177D01*
X58776652Y10201177D02*
X58633795Y10201177D01*
X58633795Y10201177D02*
X58538557Y10153558D01*
X58538557Y10153558D02*
X58490938Y10058320D01*
X58490938Y10058320D02*
X58490938Y9534510D01*
X58490938Y10058320D02*
X58443319Y10153558D01*
X58443319Y10153558D02*
X58348081Y10201177D01*
X58348081Y10201177D02*
X58205224Y10201177D01*
X58205224Y10201177D02*
X58109985Y10153558D01*
X58109985Y10153558D02*
X58062366Y10058320D01*
X58062366Y10058320D02*
X58062366Y9534510D01*
X56871891Y10582129D02*
X57729033Y9296415D01*
X56538557Y10201177D02*
X56538557Y9201177D01*
X56538557Y10153558D02*
X56443319Y10201177D01*
X56443319Y10201177D02*
X56252843Y10201177D01*
X56252843Y10201177D02*
X56157605Y10153558D01*
X56157605Y10153558D02*
X56109986Y10105939D01*
X56109986Y10105939D02*
X56062367Y10010701D01*
X56062367Y10010701D02*
X56062367Y9724987D01*
X56062367Y9724987D02*
X56109986Y9629749D01*
X56109986Y9629749D02*
X56157605Y9582129D01*
X56157605Y9582129D02*
X56252843Y9534510D01*
X56252843Y9534510D02*
X56443319Y9534510D01*
X56443319Y9534510D02*
X56538557Y9582129D01*
X55252843Y9582129D02*
X55348081Y9534510D01*
X55348081Y9534510D02*
X55538557Y9534510D01*
X55538557Y9534510D02*
X55633795Y9582129D01*
X55633795Y9582129D02*
X55681414Y9677368D01*
X55681414Y9677368D02*
X55681414Y10058320D01*
X55681414Y10058320D02*
X55633795Y10153558D01*
X55633795Y10153558D02*
X55538557Y10201177D01*
X55538557Y10201177D02*
X55348081Y10201177D01*
X55348081Y10201177D02*
X55252843Y10153558D01*
X55252843Y10153558D02*
X55205224Y10058320D01*
X55205224Y10058320D02*
X55205224Y9963082D01*
X55205224Y9963082D02*
X55681414Y9867844D01*
X54348081Y9534510D02*
X54348081Y10534510D01*
X54348081Y9582129D02*
X54443319Y9534510D01*
X54443319Y9534510D02*
X54633795Y9534510D01*
X54633795Y9534510D02*
X54729033Y9582129D01*
X54729033Y9582129D02*
X54776652Y9629749D01*
X54776652Y9629749D02*
X54824271Y9724987D01*
X54824271Y9724987D02*
X54824271Y10010701D01*
X54824271Y10010701D02*
X54776652Y10105939D01*
X54776652Y10105939D02*
X54729033Y10153558D01*
X54729033Y10153558D02*
X54633795Y10201177D01*
X54633795Y10201177D02*
X54443319Y10201177D01*
X54443319Y10201177D02*
X54348081Y10153558D01*
X53443319Y9534510D02*
X53443319Y10058320D01*
X53443319Y10058320D02*
X53490938Y10153558D01*
X53490938Y10153558D02*
X53586176Y10201177D01*
X53586176Y10201177D02*
X53776652Y10201177D01*
X53776652Y10201177D02*
X53871890Y10153558D01*
X53443319Y9582129D02*
X53538557Y9534510D01*
X53538557Y9534510D02*
X53776652Y9534510D01*
X53776652Y9534510D02*
X53871890Y9582129D01*
X53871890Y9582129D02*
X53919509Y9677368D01*
X53919509Y9677368D02*
X53919509Y9772606D01*
X53919509Y9772606D02*
X53871890Y9867844D01*
X53871890Y9867844D02*
X53776652Y9915463D01*
X53776652Y9915463D02*
X53538557Y9915463D01*
X53538557Y9915463D02*
X53443319Y9963082D01*
X52824271Y9534510D02*
X52919509Y9582129D01*
X52919509Y9582129D02*
X52967128Y9677368D01*
X52967128Y9677368D02*
X52967128Y10534510D01*
X52443318Y9534510D02*
X52443318Y10534510D01*
X52443318Y10153558D02*
X52348080Y10201177D01*
X52348080Y10201177D02*
X52157604Y10201177D01*
X52157604Y10201177D02*
X52062366Y10153558D01*
X52062366Y10153558D02*
X52014747Y10105939D01*
X52014747Y10105939D02*
X51967128Y10010701D01*
X51967128Y10010701D02*
X51967128Y9724987D01*
X51967128Y9724987D02*
X52014747Y9629749D01*
X52014747Y9629749D02*
X52062366Y9582129D01*
X52062366Y9582129D02*
X52157604Y9534510D01*
X52157604Y9534510D02*
X52348080Y9534510D01*
X52348080Y9534510D02*
X52443318Y9582129D01*
X51395699Y9534510D02*
X51490937Y9582129D01*
X51490937Y9582129D02*
X51538556Y9629749D01*
X51538556Y9629749D02*
X51586175Y9724987D01*
X51586175Y9724987D02*
X51586175Y10010701D01*
X51586175Y10010701D02*
X51538556Y10105939D01*
X51538556Y10105939D02*
X51490937Y10153558D01*
X51490937Y10153558D02*
X51395699Y10201177D01*
X51395699Y10201177D02*
X51252842Y10201177D01*
X51252842Y10201177D02*
X51157604Y10153558D01*
X51157604Y10153558D02*
X51109985Y10105939D01*
X51109985Y10105939D02*
X51062366Y10010701D01*
X51062366Y10010701D02*
X51062366Y9724987D01*
X51062366Y9724987D02*
X51109985Y9629749D01*
X51109985Y9629749D02*
X51157604Y9582129D01*
X51157604Y9582129D02*
X51252842Y9534510D01*
X51252842Y9534510D02*
X51395699Y9534510D01*
X50205223Y9534510D02*
X50205223Y10058320D01*
X50205223Y10058320D02*
X50252842Y10153558D01*
X50252842Y10153558D02*
X50348080Y10201177D01*
X50348080Y10201177D02*
X50538556Y10201177D01*
X50538556Y10201177D02*
X50633794Y10153558D01*
X50205223Y9582129D02*
X50300461Y9534510D01*
X50300461Y9534510D02*
X50538556Y9534510D01*
X50538556Y9534510D02*
X50633794Y9582129D01*
X50633794Y9582129D02*
X50681413Y9677368D01*
X50681413Y9677368D02*
X50681413Y9772606D01*
X50681413Y9772606D02*
X50633794Y9867844D01*
X50633794Y9867844D02*
X50538556Y9915463D01*
X50538556Y9915463D02*
X50300461Y9915463D01*
X50300461Y9915463D02*
X50205223Y9963082D01*
X49729032Y9534510D02*
X49729032Y10201177D01*
X49729032Y10010701D02*
X49681413Y10105939D01*
X49681413Y10105939D02*
X49633794Y10153558D01*
X49633794Y10153558D02*
X49538556Y10201177D01*
X49538556Y10201177D02*
X49443318Y10201177D01*
X48681413Y9534510D02*
X48681413Y10534510D01*
X48681413Y9582129D02*
X48776651Y9534510D01*
X48776651Y9534510D02*
X48967127Y9534510D01*
X48967127Y9534510D02*
X49062365Y9582129D01*
X49062365Y9582129D02*
X49109984Y9629749D01*
X49109984Y9629749D02*
X49157603Y9724987D01*
X49157603Y9724987D02*
X49157603Y10010701D01*
X49157603Y10010701D02*
X49109984Y10105939D01*
X49109984Y10105939D02*
X49062365Y10153558D01*
X49062365Y10153558D02*
X48967127Y10201177D01*
X48967127Y10201177D02*
X48776651Y10201177D01*
X48776651Y10201177D02*
X48681413Y10153558D01*
X72157605Y7924566D02*
X72157605Y8924566D01*
X72157605Y8924566D02*
X71776653Y8924566D01*
X71776653Y8924566D02*
X71681415Y8876947D01*
X71681415Y8876947D02*
X71633796Y8829328D01*
X71633796Y8829328D02*
X71586177Y8734090D01*
X71586177Y8734090D02*
X71586177Y8591233D01*
X71586177Y8591233D02*
X71633796Y8495995D01*
X71633796Y8495995D02*
X71681415Y8448376D01*
X71681415Y8448376D02*
X71776653Y8400757D01*
X71776653Y8400757D02*
X72157605Y8400757D01*
X70586177Y8019805D02*
X70633796Y7972185D01*
X70633796Y7972185D02*
X70776653Y7924566D01*
X70776653Y7924566D02*
X70871891Y7924566D01*
X70871891Y7924566D02*
X71014748Y7972185D01*
X71014748Y7972185D02*
X71109986Y8067424D01*
X71109986Y8067424D02*
X71157605Y8162662D01*
X71157605Y8162662D02*
X71205224Y8353138D01*
X71205224Y8353138D02*
X71205224Y8495995D01*
X71205224Y8495995D02*
X71157605Y8686471D01*
X71157605Y8686471D02*
X71109986Y8781709D01*
X71109986Y8781709D02*
X71014748Y8876947D01*
X71014748Y8876947D02*
X70871891Y8924566D01*
X70871891Y8924566D02*
X70776653Y8924566D01*
X70776653Y8924566D02*
X70633796Y8876947D01*
X70633796Y8876947D02*
X70586177Y8829328D01*
X69824272Y8448376D02*
X69681415Y8400757D01*
X69681415Y8400757D02*
X69633796Y8353138D01*
X69633796Y8353138D02*
X69586177Y8257900D01*
X69586177Y8257900D02*
X69586177Y8115043D01*
X69586177Y8115043D02*
X69633796Y8019805D01*
X69633796Y8019805D02*
X69681415Y7972185D01*
X69681415Y7972185D02*
X69776653Y7924566D01*
X69776653Y7924566D02*
X70157605Y7924566D01*
X70157605Y7924566D02*
X70157605Y8924566D01*
X70157605Y8924566D02*
X69824272Y8924566D01*
X69824272Y8924566D02*
X69729034Y8876947D01*
X69729034Y8876947D02*
X69681415Y8829328D01*
X69681415Y8829328D02*
X69633796Y8734090D01*
X69633796Y8734090D02*
X69633796Y8638852D01*
X69633796Y8638852D02*
X69681415Y8543614D01*
X69681415Y8543614D02*
X69729034Y8495995D01*
X69729034Y8495995D02*
X69824272Y8448376D01*
X69824272Y8448376D02*
X70157605Y8448376D01*
X69157605Y8019805D02*
X69109986Y7972185D01*
X69109986Y7972185D02*
X69157605Y7924566D01*
X69157605Y7924566D02*
X69205224Y7972185D01*
X69205224Y7972185D02*
X69157605Y8019805D01*
X69157605Y8019805D02*
X69157605Y7924566D01*
X69157605Y8543614D02*
X69109986Y8495995D01*
X69109986Y8495995D02*
X69157605Y8448376D01*
X69157605Y8448376D02*
X69205224Y8495995D01*
X69205224Y8495995D02*
X69157605Y8543614D01*
X69157605Y8543614D02*
X69157605Y8448376D01*
X67490939Y8591233D02*
X67490939Y7924566D01*
X67729034Y8972185D02*
X67967129Y8257900D01*
X67967129Y8257900D02*
X67348082Y8257900D01*
X66967129Y8019805D02*
X66919510Y7972185D01*
X66919510Y7972185D02*
X66967129Y7924566D01*
X66967129Y7924566D02*
X67014748Y7972185D01*
X67014748Y7972185D02*
X66967129Y8019805D01*
X66967129Y8019805D02*
X66967129Y7924566D01*
X66300463Y8924566D02*
X66205225Y8924566D01*
X66205225Y8924566D02*
X66109987Y8876947D01*
X66109987Y8876947D02*
X66062368Y8829328D01*
X66062368Y8829328D02*
X66014749Y8734090D01*
X66014749Y8734090D02*
X65967130Y8543614D01*
X65967130Y8543614D02*
X65967130Y8305519D01*
X65967130Y8305519D02*
X66014749Y8115043D01*
X66014749Y8115043D02*
X66062368Y8019805D01*
X66062368Y8019805D02*
X66109987Y7972185D01*
X66109987Y7972185D02*
X66205225Y7924566D01*
X66205225Y7924566D02*
X66300463Y7924566D01*
X66300463Y7924566D02*
X66395701Y7972185D01*
X66395701Y7972185D02*
X66443320Y8019805D01*
X66443320Y8019805D02*
X66490939Y8115043D01*
X66490939Y8115043D02*
X66538558Y8305519D01*
X66538558Y8305519D02*
X66538558Y8543614D01*
X66538558Y8543614D02*
X66490939Y8734090D01*
X66490939Y8734090D02*
X66443320Y8829328D01*
X66443320Y8829328D02*
X66395701Y8876947D01*
X66395701Y8876947D02*
X66300463Y8924566D01*
X65538558Y8019805D02*
X65490939Y7972185D01*
X65490939Y7972185D02*
X65538558Y7924566D01*
X65538558Y7924566D02*
X65586177Y7972185D01*
X65586177Y7972185D02*
X65538558Y8019805D01*
X65538558Y8019805D02*
X65538558Y7924566D01*
X64538559Y7924566D02*
X65109987Y7924566D01*
X64824273Y7924566D02*
X64824273Y8924566D01*
X64824273Y8924566D02*
X64919511Y8781709D01*
X64919511Y8781709D02*
X65014749Y8686471D01*
X65014749Y8686471D02*
X65109987Y8638852D01*
X64109987Y8305519D02*
X63348083Y8305519D01*
X62300464Y7924566D02*
X62633797Y8400757D01*
X62871892Y7924566D02*
X62871892Y8924566D01*
X62871892Y8924566D02*
X62490940Y8924566D01*
X62490940Y8924566D02*
X62395702Y8876947D01*
X62395702Y8876947D02*
X62348083Y8829328D01*
X62348083Y8829328D02*
X62300464Y8734090D01*
X62300464Y8734090D02*
X62300464Y8591233D01*
X62300464Y8591233D02*
X62348083Y8495995D01*
X62348083Y8495995D02*
X62395702Y8448376D01*
X62395702Y8448376D02*
X62490940Y8400757D01*
X62490940Y8400757D02*
X62871892Y8400757D01*
X61300464Y8019805D02*
X61348083Y7972185D01*
X61348083Y7972185D02*
X61490940Y7924566D01*
X61490940Y7924566D02*
X61586178Y7924566D01*
X61586178Y7924566D02*
X61729035Y7972185D01*
X61729035Y7972185D02*
X61824273Y8067424D01*
X61824273Y8067424D02*
X61871892Y8162662D01*
X61871892Y8162662D02*
X61919511Y8353138D01*
X61919511Y8353138D02*
X61919511Y8495995D01*
X61919511Y8495995D02*
X61871892Y8686471D01*
X61871892Y8686471D02*
X61824273Y8781709D01*
X61824273Y8781709D02*
X61729035Y8876947D01*
X61729035Y8876947D02*
X61586178Y8924566D01*
X61586178Y8924566D02*
X61490940Y8924566D01*
X61490940Y8924566D02*
X61348083Y8876947D01*
X61348083Y8876947D02*
X61300464Y8829328D01*
X60205225Y8924566D02*
X59586178Y8924566D01*
X59586178Y8924566D02*
X59919511Y8543614D01*
X59919511Y8543614D02*
X59776654Y8543614D01*
X59776654Y8543614D02*
X59681416Y8495995D01*
X59681416Y8495995D02*
X59633797Y8448376D01*
X59633797Y8448376D02*
X59586178Y8353138D01*
X59586178Y8353138D02*
X59586178Y8115043D01*
X59586178Y8115043D02*
X59633797Y8019805D01*
X59633797Y8019805D02*
X59681416Y7972185D01*
X59681416Y7972185D02*
X59776654Y7924566D01*
X59776654Y7924566D02*
X60062368Y7924566D01*
X60062368Y7924566D02*
X60157606Y7972185D01*
X60157606Y7972185D02*
X60205225Y8019805D01*
X58967130Y8924566D02*
X58871892Y8924566D01*
X58871892Y8924566D02*
X58776654Y8876947D01*
X58776654Y8876947D02*
X58729035Y8829328D01*
X58729035Y8829328D02*
X58681416Y8734090D01*
X58681416Y8734090D02*
X58633797Y8543614D01*
X58633797Y8543614D02*
X58633797Y8305519D01*
X58633797Y8305519D02*
X58681416Y8115043D01*
X58681416Y8115043D02*
X58729035Y8019805D01*
X58729035Y8019805D02*
X58776654Y7972185D01*
X58776654Y7972185D02*
X58871892Y7924566D01*
X58871892Y7924566D02*
X58967130Y7924566D01*
X58967130Y7924566D02*
X59062368Y7972185D01*
X59062368Y7972185D02*
X59109987Y8019805D01*
X59109987Y8019805D02*
X59157606Y8115043D01*
X59157606Y8115043D02*
X59205225Y8305519D01*
X59205225Y8305519D02*
X59205225Y8543614D01*
X59205225Y8543614D02*
X59157606Y8734090D01*
X59157606Y8734090D02*
X59109987Y8829328D01*
X59109987Y8829328D02*
X59062368Y8876947D01*
X59062368Y8876947D02*
X58967130Y8924566D01*
X58014749Y8924566D02*
X57919511Y8924566D01*
X57919511Y8924566D02*
X57824273Y8876947D01*
X57824273Y8876947D02*
X57776654Y8829328D01*
X57776654Y8829328D02*
X57729035Y8734090D01*
X57729035Y8734090D02*
X57681416Y8543614D01*
X57681416Y8543614D02*
X57681416Y8305519D01*
X57681416Y8305519D02*
X57729035Y8115043D01*
X57729035Y8115043D02*
X57776654Y8019805D01*
X57776654Y8019805D02*
X57824273Y7972185D01*
X57824273Y7972185D02*
X57919511Y7924566D01*
X57919511Y7924566D02*
X58014749Y7924566D01*
X58014749Y7924566D02*
X58109987Y7972185D01*
X58109987Y7972185D02*
X58157606Y8019805D01*
X58157606Y8019805D02*
X58205225Y8115043D01*
X58205225Y8115043D02*
X58252844Y8305519D01*
X58252844Y8305519D02*
X58252844Y8543614D01*
X58252844Y8543614D02*
X58205225Y8734090D01*
X58205225Y8734090D02*
X58157606Y8829328D01*
X58157606Y8829328D02*
X58109987Y8876947D01*
X58109987Y8876947D02*
X58014749Y8924566D01*
X56776654Y8924566D02*
X57252844Y8924566D01*
X57252844Y8924566D02*
X57300463Y8448376D01*
X57300463Y8448376D02*
X57252844Y8495995D01*
X57252844Y8495995D02*
X57157606Y8543614D01*
X57157606Y8543614D02*
X56919511Y8543614D01*
X56919511Y8543614D02*
X56824273Y8495995D01*
X56824273Y8495995D02*
X56776654Y8448376D01*
X56776654Y8448376D02*
X56729035Y8353138D01*
X56729035Y8353138D02*
X56729035Y8115043D01*
X56729035Y8115043D02*
X56776654Y8019805D01*
X56776654Y8019805D02*
X56824273Y7972185D01*
X56824273Y7972185D02*
X56919511Y7924566D01*
X56919511Y7924566D02*
X57157606Y7924566D01*
X57157606Y7924566D02*
X57252844Y7972185D01*
X57252844Y7972185D02*
X57300463Y8019805D01*
X56395701Y8924566D02*
X55776654Y8924566D01*
X55776654Y8924566D02*
X56109987Y8543614D01*
X56109987Y8543614D02*
X55967130Y8543614D01*
X55967130Y8543614D02*
X55871892Y8495995D01*
X55871892Y8495995D02*
X55824273Y8448376D01*
X55824273Y8448376D02*
X55776654Y8353138D01*
X55776654Y8353138D02*
X55776654Y8115043D01*
X55776654Y8115043D02*
X55824273Y8019805D01*
X55824273Y8019805D02*
X55871892Y7972185D01*
X55871892Y7972185D02*
X55967130Y7924566D01*
X55967130Y7924566D02*
X56252844Y7924566D01*
X56252844Y7924566D02*
X56348082Y7972185D01*
X56348082Y7972185D02*
X56395701Y8019805D01*
X54919511Y8924566D02*
X55109987Y8924566D01*
X55109987Y8924566D02*
X55205225Y8876947D01*
X55205225Y8876947D02*
X55252844Y8829328D01*
X55252844Y8829328D02*
X55348082Y8686471D01*
X55348082Y8686471D02*
X55395701Y8495995D01*
X55395701Y8495995D02*
X55395701Y8115043D01*
X55395701Y8115043D02*
X55348082Y8019805D01*
X55348082Y8019805D02*
X55300463Y7972185D01*
X55300463Y7972185D02*
X55205225Y7924566D01*
X55205225Y7924566D02*
X55014749Y7924566D01*
X55014749Y7924566D02*
X54919511Y7972185D01*
X54919511Y7972185D02*
X54871892Y8019805D01*
X54871892Y8019805D02*
X54824273Y8115043D01*
X54824273Y8115043D02*
X54824273Y8353138D01*
X54824273Y8353138D02*
X54871892Y8448376D01*
X54871892Y8448376D02*
X54919511Y8495995D01*
X54919511Y8495995D02*
X55014749Y8543614D01*
X55014749Y8543614D02*
X55205225Y8543614D01*
X55205225Y8543614D02*
X55300463Y8495995D01*
X55300463Y8495995D02*
X55348082Y8448376D01*
X55348082Y8448376D02*
X55395701Y8353138D01*
X54252844Y8495995D02*
X54348082Y8543614D01*
X54348082Y8543614D02*
X54395701Y8591233D01*
X54395701Y8591233D02*
X54443320Y8686471D01*
X54443320Y8686471D02*
X54443320Y8734090D01*
X54443320Y8734090D02*
X54395701Y8829328D01*
X54395701Y8829328D02*
X54348082Y8876947D01*
X54348082Y8876947D02*
X54252844Y8924566D01*
X54252844Y8924566D02*
X54062368Y8924566D01*
X54062368Y8924566D02*
X53967130Y8876947D01*
X53967130Y8876947D02*
X53919511Y8829328D01*
X53919511Y8829328D02*
X53871892Y8734090D01*
X53871892Y8734090D02*
X53871892Y8686471D01*
X53871892Y8686471D02*
X53919511Y8591233D01*
X53919511Y8591233D02*
X53967130Y8543614D01*
X53967130Y8543614D02*
X54062368Y8495995D01*
X54062368Y8495995D02*
X54252844Y8495995D01*
X54252844Y8495995D02*
X54348082Y8448376D01*
X54348082Y8448376D02*
X54395701Y8400757D01*
X54395701Y8400757D02*
X54443320Y8305519D01*
X54443320Y8305519D02*
X54443320Y8115043D01*
X54443320Y8115043D02*
X54395701Y8019805D01*
X54395701Y8019805D02*
X54348082Y7972185D01*
X54348082Y7972185D02*
X54252844Y7924566D01*
X54252844Y7924566D02*
X54062368Y7924566D01*
X54062368Y7924566D02*
X53967130Y7972185D01*
X53967130Y7972185D02*
X53919511Y8019805D01*
X53919511Y8019805D02*
X53871892Y8115043D01*
X53871892Y8115043D02*
X53871892Y8305519D01*
X53871892Y8305519D02*
X53919511Y8400757D01*
X53919511Y8400757D02*
X53967130Y8448376D01*
X53967130Y8448376D02*
X54062368Y8495995D01*
G36*
X16433013Y85597216D02*
G01*
X16398755Y85528700D01*
X16368348Y85498293D01*
X16299832Y85464035D01*
X16192385Y85464035D01*
X16123869Y85498293D01*
X16093462Y85528700D01*
X16059204Y85597216D01*
X16059204Y85885463D01*
X16433013Y85885463D01*
X16433013Y85597216D01*
G37*
G36*
X17170315Y83394841D02*
G01*
X15798093Y83394841D01*
X15798093Y84055701D01*
X15909204Y84055701D01*
X15909204Y83579511D01*
X15910645Y83564879D01*
X15921844Y83537843D01*
X15942536Y83517151D01*
X15969572Y83505952D01*
X15998836Y83505952D01*
X16025872Y83517151D01*
X16046564Y83537843D01*
X16057763Y83564879D01*
X16059204Y83579511D01*
X16059204Y83980701D01*
X16385394Y83980701D01*
X16385394Y83722368D01*
X16386835Y83707736D01*
X16398034Y83680700D01*
X16418726Y83660008D01*
X16445762Y83648809D01*
X16475026Y83648809D01*
X16502062Y83660008D01*
X16522754Y83680700D01*
X16533953Y83707736D01*
X16535394Y83722368D01*
X16535394Y83980701D01*
X16984204Y83980701D01*
X16998836Y83982142D01*
X17025872Y83993341D01*
X17046564Y84014033D01*
X17057763Y84041069D01*
X17057763Y84070333D01*
X17046564Y84097369D01*
X17025872Y84118061D01*
X16998836Y84129260D01*
X16984204Y84130701D01*
X15984204Y84130701D01*
X15969572Y84129260D01*
X15942536Y84118061D01*
X15921844Y84097369D01*
X15910645Y84070333D01*
X15909204Y84055701D01*
X15798093Y84055701D01*
X15798093Y84960463D01*
X15909204Y84960463D01*
X15909204Y84484273D01*
X15910645Y84469641D01*
X15921844Y84442605D01*
X15942536Y84421913D01*
X15969572Y84410714D01*
X15998836Y84410714D01*
X16025872Y84421913D01*
X16046564Y84442605D01*
X16057763Y84469641D01*
X16059204Y84484273D01*
X16059204Y84885463D01*
X16385394Y84885463D01*
X16385394Y84627130D01*
X16386835Y84612498D01*
X16398034Y84585462D01*
X16418726Y84564770D01*
X16445762Y84553571D01*
X16475026Y84553571D01*
X16502062Y84564770D01*
X16522754Y84585462D01*
X16533953Y84612498D01*
X16535394Y84627130D01*
X16535394Y84885463D01*
X16909204Y84885463D01*
X16909204Y84484273D01*
X16910645Y84469641D01*
X16921844Y84442605D01*
X16942536Y84421913D01*
X16969572Y84410714D01*
X16998836Y84410714D01*
X17025872Y84421913D01*
X17046564Y84442605D01*
X17057763Y84469641D01*
X17059204Y84484273D01*
X17059204Y84960463D01*
X17057763Y84975095D01*
X17046564Y85002131D01*
X17025872Y85022823D01*
X16998836Y85034022D01*
X16984204Y85035463D01*
X15984204Y85035463D01*
X15969572Y85034022D01*
X15942536Y85022823D01*
X15921844Y85002131D01*
X15910645Y84975095D01*
X15909204Y84960463D01*
X15798093Y84960463D01*
X15798093Y85960463D01*
X15909204Y85960463D01*
X15909204Y85579511D01*
X15910645Y85564879D01*
X15911676Y85562390D01*
X15911867Y85559702D01*
X15917122Y85545970D01*
X15964741Y85450732D01*
X15968705Y85444433D01*
X15969463Y85442605D01*
X15971151Y85440549D01*
X15972573Y85438289D01*
X15974071Y85436990D01*
X15978790Y85431240D01*
X16026409Y85383621D01*
X16032158Y85378903D01*
X16033458Y85377404D01*
X16035717Y85375983D01*
X16037774Y85374294D01*
X16039601Y85373537D01*
X16045901Y85369572D01*
X16141139Y85321953D01*
X16154870Y85316698D01*
X16157559Y85316507D01*
X16160048Y85315476D01*
X16174680Y85314035D01*
X16317537Y85314035D01*
X16332169Y85315476D01*
X16334658Y85316508D01*
X16337346Y85316698D01*
X16351078Y85321953D01*
X16446316Y85369572D01*
X16452615Y85373537D01*
X16454443Y85374294D01*
X16456499Y85375983D01*
X16458759Y85377404D01*
X16460058Y85378903D01*
X16465808Y85383621D01*
X16513427Y85431240D01*
X16518145Y85436990D01*
X16519644Y85438289D01*
X16521065Y85440549D01*
X16522754Y85442605D01*
X16523511Y85444433D01*
X16527476Y85450732D01*
X16575095Y85545970D01*
X16580350Y85559701D01*
X16580541Y85562391D01*
X16581572Y85564879D01*
X16582903Y85578396D01*
X16941195Y85327592D01*
X16954008Y85320382D01*
X16982579Y85314053D01*
X17011397Y85319138D01*
X17036075Y85334865D01*
X17052857Y85358839D01*
X17059187Y85387410D01*
X17054101Y85416227D01*
X17038374Y85440906D01*
X17027214Y85450477D01*
X16583013Y85761418D01*
X16583013Y85885463D01*
X16984204Y85885463D01*
X16998836Y85886904D01*
X17025872Y85898103D01*
X17046564Y85918795D01*
X17057763Y85945831D01*
X17057763Y85975095D01*
X17046564Y86002131D01*
X17025872Y86022823D01*
X16998836Y86034022D01*
X16984204Y86035463D01*
X15984204Y86035463D01*
X15969572Y86034022D01*
X15942536Y86022823D01*
X15921844Y86002131D01*
X15910645Y85975095D01*
X15909204Y85960463D01*
X15798093Y85960463D01*
X15798093Y86969843D01*
X15909793Y86969843D01*
X15911868Y86940653D01*
X15924954Y86914480D01*
X15947061Y86895306D01*
X15960487Y86889312D01*
X16747033Y86627130D01*
X15960487Y86364948D01*
X15947061Y86358954D01*
X15924954Y86339780D01*
X15911868Y86313607D01*
X15909793Y86284417D01*
X15919047Y86256654D01*
X15938221Y86234547D01*
X15964394Y86221461D01*
X15993584Y86219386D01*
X16007921Y86222646D01*
X17007921Y86555979D01*
X17021346Y86561973D01*
X17025393Y86565484D01*
X17030187Y86567880D01*
X17036351Y86574988D01*
X17043453Y86581147D01*
X17045848Y86585939D01*
X17049361Y86589988D01*
X17052335Y86598911D01*
X17056540Y86607320D01*
X17056919Y86612665D01*
X17058615Y86617750D01*
X17057948Y86627130D01*
X17058615Y86636510D01*
X17056919Y86641596D01*
X17056540Y86646940D01*
X17052335Y86655350D01*
X17049361Y86664272D01*
X17045848Y86668322D01*
X17043453Y86673113D01*
X17036351Y86679273D01*
X17030187Y86686380D01*
X17025393Y86688777D01*
X17021346Y86692287D01*
X17007921Y86698281D01*
X16007921Y87031614D01*
X15993584Y87034874D01*
X15964394Y87032799D01*
X15938221Y87019713D01*
X15919047Y86997606D01*
X15909793Y86969843D01*
X15798093Y86969843D01*
X15798093Y87145985D01*
X17170315Y87145985D01*
X17170315Y83394841D01*
G37*
G36*
X39914986Y107960757D02*
G01*
X39645013Y107960757D01*
X39459071Y108022738D01*
X39337338Y108144470D01*
X39275035Y108269077D01*
X39207843Y108537848D01*
X39207843Y108733667D01*
X39275035Y109002438D01*
X39337338Y109127044D01*
X39459071Y109248777D01*
X39645013Y109310757D01*
X39914986Y109310757D01*
X39914986Y107960757D01*
G37*
G36*
X42660225Y107644090D02*
G01*
X38248319Y107644090D01*
X38248319Y109385757D01*
X38414986Y109385757D01*
X38414986Y107885757D01*
X38416427Y107871125D01*
X38427626Y107844089D01*
X38448318Y107823397D01*
X38475354Y107812198D01*
X38504618Y107812198D01*
X38531654Y107823397D01*
X38552346Y107844089D01*
X38563545Y107871125D01*
X38564986Y107885757D01*
X38564986Y108742900D01*
X39057843Y108742900D01*
X39057843Y108528614D01*
X39058094Y108526061D01*
X39057932Y108524969D01*
X39058740Y108519497D01*
X39059284Y108513982D01*
X39059707Y108512961D01*
X39060082Y108510424D01*
X39131510Y108224710D01*
X39131895Y108223631D01*
X39131934Y108223090D01*
X39134264Y108217001D01*
X39136457Y108210864D01*
X39136779Y108210429D01*
X39137189Y108209359D01*
X39208618Y108066502D01*
X39212581Y108060206D01*
X39213339Y108058376D01*
X39215028Y108056318D01*
X39216450Y108054059D01*
X39217948Y108052760D01*
X39222667Y108047010D01*
X39365524Y107904152D01*
X39376889Y107894825D01*
X39379379Y107893794D01*
X39381415Y107892028D01*
X39394840Y107886034D01*
X39609126Y107814606D01*
X39616379Y107812957D01*
X39618211Y107812198D01*
X39620865Y107811937D01*
X39623463Y107811346D01*
X39625437Y107811487D01*
X39632843Y107810757D01*
X39989986Y107810757D01*
X40004618Y107812198D01*
X40031654Y107823397D01*
X40052346Y107844089D01*
X40063545Y107871125D01*
X40064986Y107885757D01*
X40064986Y109385757D01*
X40629272Y109385757D01*
X40629272Y107885757D01*
X40630713Y107871125D01*
X40641912Y107844089D01*
X40662604Y107823397D01*
X40689640Y107812198D01*
X40718904Y107812198D01*
X40745940Y107823397D01*
X40766632Y107844089D01*
X40777831Y107871125D01*
X40779272Y107885757D01*
X40779272Y109385757D01*
X41343558Y109385757D01*
X41343558Y107885757D01*
X41344999Y107871125D01*
X41356198Y107844089D01*
X41376890Y107823397D01*
X41403926Y107812198D01*
X41433190Y107812198D01*
X41460226Y107823397D01*
X41480918Y107844089D01*
X41492117Y107871125D01*
X41493558Y107885757D01*
X41493558Y109047690D01*
X41850594Y108282611D01*
X41853768Y108277252D01*
X41854428Y108275439D01*
X41855602Y108274157D01*
X41858088Y108269961D01*
X41866497Y108262261D01*
X41874192Y108253858D01*
X41877210Y108252450D01*
X41879669Y108250198D01*
X41890381Y108246303D01*
X41900710Y108241482D01*
X41904038Y108241336D01*
X41907170Y108240197D01*
X41918564Y108240698D01*
X41929946Y108240198D01*
X41933074Y108241336D01*
X41936406Y108241482D01*
X41946741Y108246306D01*
X41957447Y108250198D01*
X41959902Y108252448D01*
X41962924Y108253857D01*
X41970625Y108262268D01*
X41979028Y108269962D01*
X41981511Y108274155D01*
X41982688Y108275439D01*
X41983348Y108277255D01*
X41986522Y108282612D01*
X42343558Y109047690D01*
X42343558Y107885757D01*
X42344999Y107871125D01*
X42356198Y107844089D01*
X42376890Y107823397D01*
X42403926Y107812198D01*
X42433190Y107812198D01*
X42460226Y107823397D01*
X42480918Y107844089D01*
X42492117Y107871125D01*
X42493558Y107885757D01*
X42493558Y109385757D01*
X42492611Y109395373D01*
X42492689Y109397145D01*
X42492342Y109398098D01*
X42492117Y109400389D01*
X42487138Y109412408D01*
X42482688Y109424646D01*
X42481558Y109425880D01*
X42480918Y109427425D01*
X42471718Y109436625D01*
X42462924Y109446228D01*
X42461407Y109446936D01*
X42460226Y109448117D01*
X42448213Y109453094D01*
X42436406Y109458603D01*
X42434733Y109458677D01*
X42433190Y109459316D01*
X42420184Y109459316D01*
X42407170Y109459888D01*
X42405597Y109459316D01*
X42403926Y109459316D01*
X42391907Y109454338D01*
X42379669Y109449887D01*
X42378435Y109448757D01*
X42376890Y109448117D01*
X42367691Y109438919D01*
X42358088Y109430124D01*
X42356912Y109428140D01*
X42356198Y109427425D01*
X42355521Y109425792D01*
X42350594Y109417474D01*
X41918557Y108491682D01*
X41486522Y109417473D01*
X41481596Y109425789D01*
X41480918Y109427425D01*
X41480202Y109428141D01*
X41479028Y109430123D01*
X41469431Y109438912D01*
X41460226Y109448117D01*
X41458680Y109448758D01*
X41457447Y109449887D01*
X41445216Y109454335D01*
X41433190Y109459316D01*
X41431516Y109459316D01*
X41429946Y109459887D01*
X41416945Y109459316D01*
X41403926Y109459316D01*
X41402381Y109458677D01*
X41400710Y109458603D01*
X41388911Y109453097D01*
X41376890Y109448117D01*
X41375707Y109446935D01*
X41374192Y109446227D01*
X41365403Y109436631D01*
X41356198Y109427425D01*
X41355557Y109425880D01*
X41354428Y109424646D01*
X41349980Y109412416D01*
X41344999Y109400389D01*
X41344772Y109398094D01*
X41344428Y109397145D01*
X41344505Y109395379D01*
X41343558Y109385757D01*
X40779272Y109385757D01*
X40777831Y109400389D01*
X40766632Y109427425D01*
X40745940Y109448117D01*
X40718904Y109459316D01*
X40689640Y109459316D01*
X40662604Y109448117D01*
X40641912Y109427425D01*
X40630713Y109400389D01*
X40629272Y109385757D01*
X40064986Y109385757D01*
X40063545Y109400389D01*
X40052346Y109427425D01*
X40031654Y109448117D01*
X40004618Y109459316D01*
X39989986Y109460757D01*
X39632843Y109460757D01*
X39625436Y109460028D01*
X39623462Y109460168D01*
X39620864Y109459578D01*
X39618211Y109459316D01*
X39616380Y109458558D01*
X39609125Y109456908D01*
X39394840Y109385479D01*
X39381414Y109379485D01*
X39379377Y109377719D01*
X39376889Y109376688D01*
X39365524Y109367361D01*
X39222667Y109224504D01*
X39217948Y109218755D01*
X39216450Y109217455D01*
X39215028Y109215196D01*
X39213340Y109213139D01*
X39212582Y109211312D01*
X39208618Y109205012D01*
X39137189Y109062155D01*
X39136779Y109061086D01*
X39136457Y109060650D01*
X39134264Y109054514D01*
X39131934Y109048424D01*
X39131895Y109047884D01*
X39131510Y109046804D01*
X39060082Y108761090D01*
X39059707Y108758554D01*
X39059284Y108757532D01*
X39058740Y108752018D01*
X39057932Y108746545D01*
X39058094Y108745454D01*
X39057843Y108742900D01*
X38564986Y108742900D01*
X38564986Y109385757D01*
X38563545Y109400389D01*
X38552346Y109427425D01*
X38531654Y109448117D01*
X38504618Y109459316D01*
X38475354Y109459316D01*
X38448318Y109448117D01*
X38427626Y109427425D01*
X38416427Y109400389D01*
X38414986Y109385757D01*
X38248319Y109385757D01*
X38248319Y109627424D01*
X42660225Y109627424D01*
X42660225Y107644090D01*
G37*
X116305004Y73806006D02*
X115638337Y73806006D01*
X115305004Y73806006D02*
X115352623Y73853625D01*
X115352623Y73853625D02*
X115400242Y73806006D01*
X115400242Y73806006D02*
X115352623Y73758387D01*
X115352623Y73758387D02*
X115305004Y73806006D01*
X115305004Y73806006D02*
X115400242Y73806006D01*
X115638337Y73329816D02*
X116305004Y73329816D01*
X115733575Y73329816D02*
X115685956Y73282197D01*
X115685956Y73282197D02*
X115638337Y73186959D01*
X115638337Y73186959D02*
X115638337Y73044102D01*
X115638337Y73044102D02*
X115685956Y72948864D01*
X115685956Y72948864D02*
X115781194Y72901245D01*
X115781194Y72901245D02*
X116305004Y72901245D01*
G36*
X164600132Y93333877D02*
G01*
X163228276Y93333877D01*
X163228276Y94086177D01*
X163339387Y94086177D01*
X163340645Y94081565D01*
X163340645Y94076784D01*
X163344462Y94067569D01*
X163347087Y94057945D01*
X163350014Y94054165D01*
X163351844Y94049748D01*
X163358894Y94042698D01*
X163365004Y94034808D01*
X163371136Y94030456D01*
X163372536Y94029056D01*
X163373910Y94028487D01*
X163376994Y94026298D01*
X164131787Y93594988D01*
X163414204Y93594988D01*
X163399572Y93593547D01*
X163372536Y93582348D01*
X163351844Y93561656D01*
X163340645Y93534620D01*
X163340645Y93505356D01*
X163351844Y93478320D01*
X163372536Y93457628D01*
X163399572Y93446429D01*
X163414204Y93444988D01*
X164414204Y93444988D01*
X164417967Y93445359D01*
X164419443Y93445171D01*
X164421353Y93445693D01*
X164428836Y93446429D01*
X164438051Y93450247D01*
X164447675Y93452871D01*
X164451455Y93455799D01*
X164455872Y93457628D01*
X164462922Y93464679D01*
X164470812Y93470788D01*
X164473185Y93474942D01*
X164476564Y93478320D01*
X164480380Y93487533D01*
X164485331Y93496197D01*
X164485933Y93500941D01*
X164487763Y93505356D01*
X164487763Y93515331D01*
X164489021Y93525227D01*
X164487763Y93529840D01*
X164487763Y93534620D01*
X164483945Y93543837D01*
X164481321Y93553458D01*
X164478394Y93557238D01*
X164476564Y93561656D01*
X164469512Y93568708D01*
X164463404Y93576596D01*
X164457269Y93580951D01*
X164455872Y93582348D01*
X164454499Y93582917D01*
X164451415Y93585106D01*
X163696621Y94016416D01*
X164414204Y94016416D01*
X164428836Y94017857D01*
X164455872Y94029056D01*
X164476564Y94049748D01*
X164487763Y94076784D01*
X164487763Y94106048D01*
X164476564Y94133084D01*
X164455872Y94153776D01*
X164428836Y94164975D01*
X164414204Y94166416D01*
X163414204Y94166416D01*
X163410440Y94166046D01*
X163408965Y94166233D01*
X163407054Y94165712D01*
X163399572Y94164975D01*
X163390356Y94161158D01*
X163380733Y94158533D01*
X163376952Y94155606D01*
X163372536Y94153776D01*
X163365485Y94146726D01*
X163357596Y94140616D01*
X163355222Y94136463D01*
X163351844Y94133084D01*
X163348027Y94123872D01*
X163343077Y94115207D01*
X163342474Y94110464D01*
X163340645Y94106048D01*
X163340645Y94096074D01*
X163339387Y94086177D01*
X163228276Y94086177D01*
X163228276Y94582238D01*
X163340645Y94582238D01*
X163340645Y94552974D01*
X163351844Y94525938D01*
X163372536Y94505246D01*
X163399572Y94494047D01*
X163414204Y94492606D01*
X164414204Y94492606D01*
X164428836Y94494047D01*
X164455872Y94505246D01*
X164476564Y94525938D01*
X164487763Y94552974D01*
X164487763Y94582238D01*
X164476564Y94609274D01*
X164455872Y94629966D01*
X164428836Y94641165D01*
X164414204Y94642606D01*
X163414204Y94642606D01*
X163399572Y94641165D01*
X163372536Y94629966D01*
X163351844Y94609274D01*
X163340645Y94582238D01*
X163228276Y94582238D01*
X163228276Y94753717D01*
X164600132Y94753717D01*
X164600132Y93333877D01*
G37*
G36*
X46107940Y104695308D02*
G01*
X46179882Y104623366D01*
X46220224Y104461999D01*
X46220224Y104147134D01*
X46179882Y103985768D01*
X46107939Y103913824D01*
X46039424Y103879566D01*
X45884358Y103879566D01*
X45815842Y103913824D01*
X45743899Y103985768D01*
X45703558Y104147134D01*
X45703558Y104461999D01*
X45743899Y104623366D01*
X45815842Y104695308D01*
X45884358Y104729566D01*
X46039424Y104729566D01*
X46107940Y104695308D01*
G37*
G36*
X46481335Y103618455D02*
G01*
X43539126Y103618455D01*
X43539126Y104819198D01*
X43650237Y104819198D01*
X43650237Y104789934D01*
X43661436Y104762898D01*
X43682128Y104742206D01*
X43709164Y104731007D01*
X43723796Y104729566D01*
X43934510Y104729566D01*
X43934510Y103804566D01*
X43935951Y103789934D01*
X43947150Y103762898D01*
X43967842Y103742206D01*
X43994878Y103731007D01*
X44024142Y103731007D01*
X44051178Y103742206D01*
X44071870Y103762898D01*
X44083069Y103789934D01*
X44084510Y103804566D01*
X44084510Y104729566D01*
X44295224Y104729566D01*
X44309856Y104731007D01*
X44336892Y104742206D01*
X44357584Y104762898D01*
X44368783Y104789934D01*
X44368783Y104804566D01*
X44553558Y104804566D01*
X44553558Y103995043D01*
X44554999Y103980411D01*
X44556030Y103977922D01*
X44556221Y103975234D01*
X44561476Y103961502D01*
X44609095Y103866264D01*
X44613058Y103859968D01*
X44613816Y103858138D01*
X44615505Y103856080D01*
X44616927Y103853821D01*
X44618425Y103852522D01*
X44623143Y103846773D01*
X44670762Y103799153D01*
X44676511Y103794435D01*
X44677812Y103792935D01*
X44680071Y103791513D01*
X44682128Y103789825D01*
X44683955Y103789068D01*
X44690255Y103785103D01*
X44785493Y103737484D01*
X44799224Y103732229D01*
X44801913Y103732038D01*
X44804402Y103731007D01*
X44819034Y103729566D01*
X45009510Y103729566D01*
X45024142Y103731007D01*
X45026631Y103732039D01*
X45029319Y103732229D01*
X45043051Y103737484D01*
X45138289Y103785103D01*
X45144588Y103789068D01*
X45146416Y103789825D01*
X45148472Y103791513D01*
X45150732Y103792935D01*
X45152032Y103794435D01*
X45157782Y103799153D01*
X45205400Y103846772D01*
X45210118Y103852522D01*
X45211617Y103853821D01*
X45213038Y103856080D01*
X45214728Y103858138D01*
X45215485Y103859968D01*
X45219449Y103866264D01*
X45267068Y103961502D01*
X45272323Y103975233D01*
X45272514Y103977923D01*
X45273545Y103980411D01*
X45274986Y103995043D01*
X45274986Y104471233D01*
X45553558Y104471233D01*
X45553558Y104137900D01*
X45553809Y104135347D01*
X45553647Y104134254D01*
X45554456Y104128781D01*
X45554999Y104123268D01*
X45555421Y104122247D01*
X45555797Y104119710D01*
X45603416Y103929234D01*
X45608363Y103915388D01*
X45611682Y103910909D01*
X45613816Y103905757D01*
X45623144Y103894391D01*
X45718382Y103799152D01*
X45724132Y103794432D01*
X45725431Y103792935D01*
X45727685Y103791516D01*
X45729747Y103789824D01*
X45731579Y103789066D01*
X45737874Y103785103D01*
X45833112Y103737484D01*
X45846843Y103732229D01*
X45849532Y103732038D01*
X45852021Y103731007D01*
X45866653Y103729566D01*
X46057129Y103729566D01*
X46071761Y103731007D01*
X46074250Y103732039D01*
X46076938Y103732229D01*
X46090670Y103737484D01*
X46185908Y103785103D01*
X46192207Y103789068D01*
X46194035Y103789825D01*
X46196091Y103791514D01*
X46198351Y103792935D01*
X46199650Y103794434D01*
X46205400Y103799152D01*
X46300639Y103894392D01*
X46309966Y103905757D01*
X46312099Y103910909D01*
X46315419Y103915388D01*
X46320366Y103929234D01*
X46367985Y104119710D01*
X46368360Y104122247D01*
X46368783Y104123268D01*
X46369325Y104128781D01*
X46370135Y104134254D01*
X46369972Y104135347D01*
X46370224Y104137900D01*
X46370224Y104471233D01*
X46369972Y104473787D01*
X46370135Y104474879D01*
X46369325Y104480353D01*
X46368783Y104485865D01*
X46368360Y104486887D01*
X46367985Y104489423D01*
X46320366Y104679899D01*
X46315419Y104693745D01*
X46312100Y104698224D01*
X46309966Y104703377D01*
X46300638Y104714742D01*
X46205400Y104809980D01*
X46199650Y104814699D01*
X46198351Y104816197D01*
X46196091Y104817619D01*
X46194035Y104819307D01*
X46192207Y104820065D01*
X46185908Y104824029D01*
X46090670Y104871648D01*
X46076938Y104876903D01*
X46074250Y104877094D01*
X46071761Y104878125D01*
X46057129Y104879566D01*
X45866653Y104879566D01*
X45852021Y104878125D01*
X45849532Y104877095D01*
X45846843Y104876903D01*
X45833112Y104871648D01*
X45737874Y104824029D01*
X45731579Y104820067D01*
X45729747Y104819308D01*
X45727685Y104817617D01*
X45725431Y104816197D01*
X45724132Y104814701D01*
X45718382Y104809980D01*
X45623144Y104714742D01*
X45613817Y104703377D01*
X45611683Y104698227D01*
X45608363Y104693745D01*
X45603416Y104679899D01*
X45555797Y104489423D01*
X45555421Y104486887D01*
X45554999Y104485865D01*
X45554456Y104480353D01*
X45553647Y104474879D01*
X45553809Y104473787D01*
X45553558Y104471233D01*
X45274986Y104471233D01*
X45274986Y104804566D01*
X45273545Y104819198D01*
X45262346Y104846234D01*
X45241654Y104866926D01*
X45214618Y104878125D01*
X45185354Y104878125D01*
X45158318Y104866926D01*
X45137626Y104846234D01*
X45126427Y104819198D01*
X45124986Y104804566D01*
X45124986Y104012748D01*
X45090727Y103944232D01*
X45060320Y103913824D01*
X44991805Y103879566D01*
X44836739Y103879566D01*
X44768223Y103913824D01*
X44737816Y103944232D01*
X44703558Y104012748D01*
X44703558Y104804566D01*
X44702117Y104819198D01*
X44690918Y104846234D01*
X44670226Y104866926D01*
X44643190Y104878125D01*
X44613926Y104878125D01*
X44586890Y104866926D01*
X44566198Y104846234D01*
X44554999Y104819198D01*
X44553558Y104804566D01*
X44368783Y104804566D01*
X44368783Y104819198D01*
X44357584Y104846234D01*
X44336892Y104866926D01*
X44309856Y104878125D01*
X44295224Y104879566D01*
X43723796Y104879566D01*
X43709164Y104878125D01*
X43682128Y104866926D01*
X43661436Y104846234D01*
X43650237Y104819198D01*
X43539126Y104819198D01*
X43539126Y104990677D01*
X46481335Y104990677D01*
X46481335Y103618455D01*
G37*
G36*
X10740132Y83573877D02*
G01*
X9368276Y83573877D01*
X9368276Y84326177D01*
X9479387Y84326177D01*
X9480645Y84321565D01*
X9480645Y84316784D01*
X9484462Y84307569D01*
X9487087Y84297945D01*
X9490014Y84294165D01*
X9491844Y84289748D01*
X9498894Y84282698D01*
X9505004Y84274808D01*
X9511136Y84270456D01*
X9512536Y84269056D01*
X9513910Y84268487D01*
X9516994Y84266298D01*
X10271787Y83834988D01*
X9554204Y83834988D01*
X9539572Y83833547D01*
X9512536Y83822348D01*
X9491844Y83801656D01*
X9480645Y83774620D01*
X9480645Y83745356D01*
X9491844Y83718320D01*
X9512536Y83697628D01*
X9539572Y83686429D01*
X9554204Y83684988D01*
X10554204Y83684988D01*
X10557967Y83685359D01*
X10559443Y83685171D01*
X10561353Y83685693D01*
X10568836Y83686429D01*
X10578051Y83690247D01*
X10587675Y83692871D01*
X10591455Y83695799D01*
X10595872Y83697628D01*
X10602922Y83704679D01*
X10610812Y83710788D01*
X10613185Y83714942D01*
X10616564Y83718320D01*
X10620380Y83727533D01*
X10625331Y83736197D01*
X10625933Y83740941D01*
X10627763Y83745356D01*
X10627763Y83755331D01*
X10629021Y83765227D01*
X10627763Y83769840D01*
X10627763Y83774620D01*
X10623945Y83783837D01*
X10621321Y83793458D01*
X10618394Y83797238D01*
X10616564Y83801656D01*
X10609512Y83808708D01*
X10603404Y83816596D01*
X10597269Y83820951D01*
X10595872Y83822348D01*
X10594499Y83822917D01*
X10591415Y83825106D01*
X9836621Y84256416D01*
X10554204Y84256416D01*
X10568836Y84257857D01*
X10595872Y84269056D01*
X10616564Y84289748D01*
X10627763Y84316784D01*
X10627763Y84346048D01*
X10616564Y84373084D01*
X10595872Y84393776D01*
X10568836Y84404975D01*
X10554204Y84406416D01*
X9554204Y84406416D01*
X9550440Y84406046D01*
X9548965Y84406233D01*
X9547054Y84405712D01*
X9539572Y84404975D01*
X9530356Y84401158D01*
X9520733Y84398533D01*
X9516952Y84395606D01*
X9512536Y84393776D01*
X9505485Y84386726D01*
X9497596Y84380616D01*
X9495222Y84376463D01*
X9491844Y84373084D01*
X9488027Y84363872D01*
X9483077Y84355207D01*
X9482474Y84350464D01*
X9480645Y84346048D01*
X9480645Y84336074D01*
X9479387Y84326177D01*
X9368276Y84326177D01*
X9368276Y84822238D01*
X9480645Y84822238D01*
X9480645Y84792974D01*
X9491844Y84765938D01*
X9512536Y84745246D01*
X9539572Y84734047D01*
X9554204Y84732606D01*
X10554204Y84732606D01*
X10568836Y84734047D01*
X10595872Y84745246D01*
X10616564Y84765938D01*
X10627763Y84792974D01*
X10627763Y84822238D01*
X10616564Y84849274D01*
X10595872Y84869966D01*
X10568836Y84881165D01*
X10554204Y84882606D01*
X9554204Y84882606D01*
X9539572Y84881165D01*
X9512536Y84869966D01*
X9491844Y84849274D01*
X9480645Y84822238D01*
X9368276Y84822238D01*
X9368276Y84993717D01*
X10740132Y84993717D01*
X10740132Y83573877D01*
G37*
G36*
X157413013Y93347216D02*
G01*
X157378755Y93278700D01*
X157348348Y93248293D01*
X157279832Y93214035D01*
X157172385Y93214035D01*
X157103869Y93248293D01*
X157073462Y93278700D01*
X157039204Y93347216D01*
X157039204Y93635463D01*
X157413013Y93635463D01*
X157413013Y93347216D01*
G37*
G36*
X158150315Y91144841D02*
G01*
X156778093Y91144841D01*
X156778093Y91805701D01*
X156889204Y91805701D01*
X156889204Y91329511D01*
X156890645Y91314879D01*
X156901844Y91287843D01*
X156922536Y91267151D01*
X156949572Y91255952D01*
X156978836Y91255952D01*
X157005872Y91267151D01*
X157026564Y91287843D01*
X157037763Y91314879D01*
X157039204Y91329511D01*
X157039204Y91730701D01*
X157365394Y91730701D01*
X157365394Y91472368D01*
X157366835Y91457736D01*
X157378034Y91430700D01*
X157398726Y91410008D01*
X157425762Y91398809D01*
X157455026Y91398809D01*
X157482062Y91410008D01*
X157502754Y91430700D01*
X157513953Y91457736D01*
X157515394Y91472368D01*
X157515394Y91730701D01*
X157964204Y91730701D01*
X157978836Y91732142D01*
X158005872Y91743341D01*
X158026564Y91764033D01*
X158037763Y91791069D01*
X158037763Y91820333D01*
X158026564Y91847369D01*
X158005872Y91868061D01*
X157978836Y91879260D01*
X157964204Y91880701D01*
X156964204Y91880701D01*
X156949572Y91879260D01*
X156922536Y91868061D01*
X156901844Y91847369D01*
X156890645Y91820333D01*
X156889204Y91805701D01*
X156778093Y91805701D01*
X156778093Y92710463D01*
X156889204Y92710463D01*
X156889204Y92234273D01*
X156890645Y92219641D01*
X156901844Y92192605D01*
X156922536Y92171913D01*
X156949572Y92160714D01*
X156978836Y92160714D01*
X157005872Y92171913D01*
X157026564Y92192605D01*
X157037763Y92219641D01*
X157039204Y92234273D01*
X157039204Y92635463D01*
X157365394Y92635463D01*
X157365394Y92377130D01*
X157366835Y92362498D01*
X157378034Y92335462D01*
X157398726Y92314770D01*
X157425762Y92303571D01*
X157455026Y92303571D01*
X157482062Y92314770D01*
X157502754Y92335462D01*
X157513953Y92362498D01*
X157515394Y92377130D01*
X157515394Y92635463D01*
X157889204Y92635463D01*
X157889204Y92234273D01*
X157890645Y92219641D01*
X157901844Y92192605D01*
X157922536Y92171913D01*
X157949572Y92160714D01*
X157978836Y92160714D01*
X158005872Y92171913D01*
X158026564Y92192605D01*
X158037763Y92219641D01*
X158039204Y92234273D01*
X158039204Y92710463D01*
X158037763Y92725095D01*
X158026564Y92752131D01*
X158005872Y92772823D01*
X157978836Y92784022D01*
X157964204Y92785463D01*
X156964204Y92785463D01*
X156949572Y92784022D01*
X156922536Y92772823D01*
X156901844Y92752131D01*
X156890645Y92725095D01*
X156889204Y92710463D01*
X156778093Y92710463D01*
X156778093Y93710463D01*
X156889204Y93710463D01*
X156889204Y93329511D01*
X156890645Y93314879D01*
X156891676Y93312390D01*
X156891867Y93309702D01*
X156897122Y93295970D01*
X156944741Y93200732D01*
X156948705Y93194433D01*
X156949463Y93192605D01*
X156951151Y93190549D01*
X156952573Y93188289D01*
X156954071Y93186990D01*
X156958790Y93181240D01*
X157006409Y93133621D01*
X157012158Y93128903D01*
X157013458Y93127404D01*
X157015717Y93125983D01*
X157017774Y93124294D01*
X157019601Y93123537D01*
X157025901Y93119572D01*
X157121139Y93071953D01*
X157134870Y93066698D01*
X157137559Y93066507D01*
X157140048Y93065476D01*
X157154680Y93064035D01*
X157297537Y93064035D01*
X157312169Y93065476D01*
X157314658Y93066508D01*
X157317346Y93066698D01*
X157331078Y93071953D01*
X157426316Y93119572D01*
X157432615Y93123537D01*
X157434443Y93124294D01*
X157436499Y93125983D01*
X157438759Y93127404D01*
X157440058Y93128903D01*
X157445808Y93133621D01*
X157493427Y93181240D01*
X157498145Y93186990D01*
X157499644Y93188289D01*
X157501065Y93190549D01*
X157502754Y93192605D01*
X157503511Y93194433D01*
X157507476Y93200732D01*
X157555095Y93295970D01*
X157560350Y93309701D01*
X157560541Y93312391D01*
X157561572Y93314879D01*
X157562903Y93328396D01*
X157921195Y93077592D01*
X157934008Y93070382D01*
X157962579Y93064053D01*
X157991397Y93069138D01*
X158016075Y93084865D01*
X158032857Y93108839D01*
X158039187Y93137410D01*
X158034101Y93166227D01*
X158018374Y93190906D01*
X158007214Y93200477D01*
X157563013Y93511418D01*
X157563013Y93635463D01*
X157964204Y93635463D01*
X157978836Y93636904D01*
X158005872Y93648103D01*
X158026564Y93668795D01*
X158037763Y93695831D01*
X158037763Y93725095D01*
X158026564Y93752131D01*
X158005872Y93772823D01*
X157978836Y93784022D01*
X157964204Y93785463D01*
X156964204Y93785463D01*
X156949572Y93784022D01*
X156922536Y93772823D01*
X156901844Y93752131D01*
X156890645Y93725095D01*
X156889204Y93710463D01*
X156778093Y93710463D01*
X156778093Y94719843D01*
X156889793Y94719843D01*
X156891868Y94690653D01*
X156904954Y94664480D01*
X156927061Y94645306D01*
X156940487Y94639312D01*
X157727033Y94377130D01*
X156940487Y94114948D01*
X156927061Y94108954D01*
X156904954Y94089780D01*
X156891868Y94063607D01*
X156889793Y94034417D01*
X156899047Y94006654D01*
X156918221Y93984547D01*
X156944394Y93971461D01*
X156973584Y93969386D01*
X156987921Y93972646D01*
X157987921Y94305979D01*
X158001346Y94311973D01*
X158005393Y94315484D01*
X158010187Y94317880D01*
X158016351Y94324988D01*
X158023453Y94331147D01*
X158025848Y94335939D01*
X158029361Y94339988D01*
X158032335Y94348911D01*
X158036540Y94357320D01*
X158036919Y94362665D01*
X158038615Y94367750D01*
X158037948Y94377130D01*
X158038615Y94386510D01*
X158036919Y94391596D01*
X158036540Y94396940D01*
X158032335Y94405350D01*
X158029361Y94414272D01*
X158025848Y94418322D01*
X158023453Y94423113D01*
X158016351Y94429273D01*
X158010187Y94436380D01*
X158005393Y94438777D01*
X158001346Y94442287D01*
X157987921Y94448281D01*
X156987921Y94781614D01*
X156973584Y94784874D01*
X156944394Y94782799D01*
X156918221Y94769713D01*
X156899047Y94747606D01*
X156889793Y94719843D01*
X156778093Y94719843D01*
X156778093Y94895985D01*
X158150315Y94895985D01*
X158150315Y91144841D01*
G37*
X13242479Y8179566D02*
X13242479Y9179566D01*
X13242479Y8703376D02*
X12671051Y8703376D01*
X12671051Y8179566D02*
X12671051Y9179566D01*
X11671051Y8179566D02*
X12242479Y8179566D01*
X11956765Y8179566D02*
X11956765Y9179566D01*
X11956765Y9179566D02*
X12052003Y9036709D01*
X12052003Y9036709D02*
X12147241Y8941471D01*
X12147241Y8941471D02*
X12242479Y8893852D01*
X11337717Y9179566D02*
X10718670Y9179566D01*
X10718670Y9179566D02*
X11052003Y8798614D01*
X11052003Y8798614D02*
X10909146Y8798614D01*
X10909146Y8798614D02*
X10813908Y8750995D01*
X10813908Y8750995D02*
X10766289Y8703376D01*
X10766289Y8703376D02*
X10718670Y8608138D01*
X10718670Y8608138D02*
X10718670Y8370043D01*
X10718670Y8370043D02*
X10766289Y8274805D01*
X10766289Y8274805D02*
X10813908Y8227185D01*
X10813908Y8227185D02*
X10909146Y8179566D01*
X10909146Y8179566D02*
X11194860Y8179566D01*
X11194860Y8179566D02*
X11290098Y8227185D01*
X11290098Y8227185D02*
X11337717Y8274805D01*
X87676289Y60559566D02*
X87676289Y61559566D01*
X87676289Y61083376D02*
X87104861Y61083376D01*
X87104861Y60559566D02*
X87104861Y61559566D01*
X86581051Y60559566D02*
X86390575Y60559566D01*
X86390575Y60559566D02*
X86295337Y60607185D01*
X86295337Y60607185D02*
X86247718Y60654805D01*
X86247718Y60654805D02*
X86152480Y60797662D01*
X86152480Y60797662D02*
X86104861Y60988138D01*
X86104861Y60988138D02*
X86104861Y61369090D01*
X86104861Y61369090D02*
X86152480Y61464328D01*
X86152480Y61464328D02*
X86200099Y61511947D01*
X86200099Y61511947D02*
X86295337Y61559566D01*
X86295337Y61559566D02*
X86485813Y61559566D01*
X86485813Y61559566D02*
X86581051Y61511947D01*
X86581051Y61511947D02*
X86628670Y61464328D01*
X86628670Y61464328D02*
X86676289Y61369090D01*
X86676289Y61369090D02*
X86676289Y61130995D01*
X86676289Y61130995D02*
X86628670Y61035757D01*
X86628670Y61035757D02*
X86581051Y60988138D01*
X86581051Y60988138D02*
X86485813Y60940519D01*
X86485813Y60940519D02*
X86295337Y60940519D01*
X86295337Y60940519D02*
X86200099Y60988138D01*
X86200099Y60988138D02*
X86152480Y61035757D01*
X86152480Y61035757D02*
X86104861Y61130995D01*
X13272479Y60139566D02*
X13272479Y61139566D01*
X13272479Y60663376D02*
X12701051Y60663376D01*
X12701051Y60139566D02*
X12701051Y61139566D01*
X11701051Y60139566D02*
X12272479Y60139566D01*
X11986765Y60139566D02*
X11986765Y61139566D01*
X11986765Y61139566D02*
X12082003Y60996709D01*
X12082003Y60996709D02*
X12177241Y60901471D01*
X12177241Y60901471D02*
X12272479Y60853852D01*
X11082003Y61139566D02*
X10986765Y61139566D01*
X10986765Y61139566D02*
X10891527Y61091947D01*
X10891527Y61091947D02*
X10843908Y61044328D01*
X10843908Y61044328D02*
X10796289Y60949090D01*
X10796289Y60949090D02*
X10748670Y60758614D01*
X10748670Y60758614D02*
X10748670Y60520519D01*
X10748670Y60520519D02*
X10796289Y60330043D01*
X10796289Y60330043D02*
X10843908Y60234805D01*
X10843908Y60234805D02*
X10891527Y60187185D01*
X10891527Y60187185D02*
X10986765Y60139566D01*
X10986765Y60139566D02*
X11082003Y60139566D01*
X11082003Y60139566D02*
X11177241Y60187185D01*
X11177241Y60187185D02*
X11224860Y60234805D01*
X11224860Y60234805D02*
X11272479Y60330043D01*
X11272479Y60330043D02*
X11320098Y60520519D01*
X11320098Y60520519D02*
X11320098Y60758614D01*
X11320098Y60758614D02*
X11272479Y60949090D01*
X11272479Y60949090D02*
X11224860Y61044328D01*
X11224860Y61044328D02*
X11177241Y61091947D01*
X11177241Y61091947D02*
X11082003Y61139566D01*
X162596289Y60449566D02*
X162596289Y61449566D01*
X162596289Y60973376D02*
X162024861Y60973376D01*
X162024861Y60449566D02*
X162024861Y61449566D01*
X161405813Y61020995D02*
X161501051Y61068614D01*
X161501051Y61068614D02*
X161548670Y61116233D01*
X161548670Y61116233D02*
X161596289Y61211471D01*
X161596289Y61211471D02*
X161596289Y61259090D01*
X161596289Y61259090D02*
X161548670Y61354328D01*
X161548670Y61354328D02*
X161501051Y61401947D01*
X161501051Y61401947D02*
X161405813Y61449566D01*
X161405813Y61449566D02*
X161215337Y61449566D01*
X161215337Y61449566D02*
X161120099Y61401947D01*
X161120099Y61401947D02*
X161072480Y61354328D01*
X161072480Y61354328D02*
X161024861Y61259090D01*
X161024861Y61259090D02*
X161024861Y61211471D01*
X161024861Y61211471D02*
X161072480Y61116233D01*
X161072480Y61116233D02*
X161120099Y61068614D01*
X161120099Y61068614D02*
X161215337Y61020995D01*
X161215337Y61020995D02*
X161405813Y61020995D01*
X161405813Y61020995D02*
X161501051Y60973376D01*
X161501051Y60973376D02*
X161548670Y60925757D01*
X161548670Y60925757D02*
X161596289Y60830519D01*
X161596289Y60830519D02*
X161596289Y60640043D01*
X161596289Y60640043D02*
X161548670Y60544805D01*
X161548670Y60544805D02*
X161501051Y60497185D01*
X161501051Y60497185D02*
X161405813Y60449566D01*
X161405813Y60449566D02*
X161215337Y60449566D01*
X161215337Y60449566D02*
X161120099Y60497185D01*
X161120099Y60497185D02*
X161072480Y60544805D01*
X161072480Y60544805D02*
X161024861Y60640043D01*
X161024861Y60640043D02*
X161024861Y60830519D01*
X161024861Y60830519D02*
X161072480Y60925757D01*
X161072480Y60925757D02*
X161120099Y60973376D01*
X161120099Y60973376D02*
X161215337Y61020995D01*
X88202479Y8589566D02*
X88202479Y9589566D01*
X88202479Y9113376D02*
X87631051Y9113376D01*
X87631051Y8589566D02*
X87631051Y9589566D01*
X86631051Y8589566D02*
X87202479Y8589566D01*
X86916765Y8589566D02*
X86916765Y9589566D01*
X86916765Y9589566D02*
X87012003Y9446709D01*
X87012003Y9446709D02*
X87107241Y9351471D01*
X87107241Y9351471D02*
X87202479Y9303852D01*
X86250098Y9494328D02*
X86202479Y9541947D01*
X86202479Y9541947D02*
X86107241Y9589566D01*
X86107241Y9589566D02*
X85869146Y9589566D01*
X85869146Y9589566D02*
X85773908Y9541947D01*
X85773908Y9541947D02*
X85726289Y9494328D01*
X85726289Y9494328D02*
X85678670Y9399090D01*
X85678670Y9399090D02*
X85678670Y9303852D01*
X85678670Y9303852D02*
X85726289Y9160995D01*
X85726289Y9160995D02*
X86297717Y8589566D01*
X86297717Y8589566D02*
X85678670Y8589566D01*
X55903908Y105189566D02*
X55903908Y104475281D01*
X55903908Y104475281D02*
X55951527Y104332424D01*
X55951527Y104332424D02*
X56046765Y104237185D01*
X56046765Y104237185D02*
X56189622Y104189566D01*
X56189622Y104189566D02*
X56284860Y104189566D01*
X55475336Y105094328D02*
X55427717Y105141947D01*
X55427717Y105141947D02*
X55332479Y105189566D01*
X55332479Y105189566D02*
X55094384Y105189566D01*
X55094384Y105189566D02*
X54999146Y105141947D01*
X54999146Y105141947D02*
X54951527Y105094328D01*
X54951527Y105094328D02*
X54903908Y104999090D01*
X54903908Y104999090D02*
X54903908Y104903852D01*
X54903908Y104903852D02*
X54951527Y104760995D01*
X54951527Y104760995D02*
X55522955Y104189566D01*
X55522955Y104189566D02*
X54903908Y104189566D01*
X53999146Y105189566D02*
X54475336Y105189566D01*
X54475336Y105189566D02*
X54522955Y104713376D01*
X54522955Y104713376D02*
X54475336Y104760995D01*
X54475336Y104760995D02*
X54380098Y104808614D01*
X54380098Y104808614D02*
X54142003Y104808614D01*
X54142003Y104808614D02*
X54046765Y104760995D01*
X54046765Y104760995D02*
X53999146Y104713376D01*
X53999146Y104713376D02*
X53951527Y104618138D01*
X53951527Y104618138D02*
X53951527Y104380043D01*
X53951527Y104380043D02*
X53999146Y104284805D01*
X53999146Y104284805D02*
X54046765Y104237185D01*
X54046765Y104237185D02*
X54142003Y104189566D01*
X54142003Y104189566D02*
X54380098Y104189566D01*
X54380098Y104189566D02*
X54475336Y104237185D01*
X54475336Y104237185D02*
X54522955Y104284805D01*
X163272479Y8479566D02*
X163272479Y9479566D01*
X163272479Y9003376D02*
X162701051Y9003376D01*
X162701051Y8479566D02*
X162701051Y9479566D01*
X161701051Y8479566D02*
X162272479Y8479566D01*
X161986765Y8479566D02*
X161986765Y9479566D01*
X161986765Y9479566D02*
X162082003Y9336709D01*
X162082003Y9336709D02*
X162177241Y9241471D01*
X162177241Y9241471D02*
X162272479Y9193852D01*
X160748670Y8479566D02*
X161320098Y8479566D01*
X161034384Y8479566D02*
X161034384Y9479566D01*
X161034384Y9479566D02*
X161129622Y9336709D01*
X161129622Y9336709D02*
X161224860Y9241471D01*
X161224860Y9241471D02*
X161320098Y9193852D01*
X103163508Y15582728D02*
X103163508Y14868443D01*
X103163508Y14868443D02*
X103211127Y14725586D01*
X103211127Y14725586D02*
X103306365Y14630347D01*
X103306365Y14630347D02*
X103449222Y14582728D01*
X103449222Y14582728D02*
X103544460Y14582728D01*
X102734936Y15487490D02*
X102687317Y15535109D01*
X102687317Y15535109D02*
X102592079Y15582728D01*
X102592079Y15582728D02*
X102353984Y15582728D01*
X102353984Y15582728D02*
X102258746Y15535109D01*
X102258746Y15535109D02*
X102211127Y15487490D01*
X102211127Y15487490D02*
X102163508Y15392252D01*
X102163508Y15392252D02*
X102163508Y15297014D01*
X102163508Y15297014D02*
X102211127Y15154157D01*
X102211127Y15154157D02*
X102782555Y14582728D01*
X102782555Y14582728D02*
X102163508Y14582728D01*
X101830174Y15582728D02*
X101163508Y15582728D01*
X101163508Y15582728D02*
X101592079Y14582728D01*
X42778908Y106439566D02*
X42778908Y105725281D01*
X42778908Y105725281D02*
X42826527Y105582424D01*
X42826527Y105582424D02*
X42921765Y105487185D01*
X42921765Y105487185D02*
X43064622Y105439566D01*
X43064622Y105439566D02*
X43159860Y105439566D01*
X42350336Y106344328D02*
X42302717Y106391947D01*
X42302717Y106391947D02*
X42207479Y106439566D01*
X42207479Y106439566D02*
X41969384Y106439566D01*
X41969384Y106439566D02*
X41874146Y106391947D01*
X41874146Y106391947D02*
X41826527Y106344328D01*
X41826527Y106344328D02*
X41778908Y106249090D01*
X41778908Y106249090D02*
X41778908Y106153852D01*
X41778908Y106153852D02*
X41826527Y106010995D01*
X41826527Y106010995D02*
X42397955Y105439566D01*
X42397955Y105439566D02*
X41778908Y105439566D01*
X40921765Y106439566D02*
X41112241Y106439566D01*
X41112241Y106439566D02*
X41207479Y106391947D01*
X41207479Y106391947D02*
X41255098Y106344328D01*
X41255098Y106344328D02*
X41350336Y106201471D01*
X41350336Y106201471D02*
X41397955Y106010995D01*
X41397955Y106010995D02*
X41397955Y105630043D01*
X41397955Y105630043D02*
X41350336Y105534805D01*
X41350336Y105534805D02*
X41302717Y105487185D01*
X41302717Y105487185D02*
X41207479Y105439566D01*
X41207479Y105439566D02*
X41017003Y105439566D01*
X41017003Y105439566D02*
X40921765Y105487185D01*
X40921765Y105487185D02*
X40874146Y105534805D01*
X40874146Y105534805D02*
X40826527Y105630043D01*
X40826527Y105630043D02*
X40826527Y105868138D01*
X40826527Y105868138D02*
X40874146Y105963376D01*
X40874146Y105963376D02*
X40921765Y106010995D01*
X40921765Y106010995D02*
X41017003Y106058614D01*
X41017003Y106058614D02*
X41207479Y106058614D01*
X41207479Y106058614D02*
X41302717Y106010995D01*
X41302717Y106010995D02*
X41350336Y105963376D01*
X41350336Y105963376D02*
X41397955Y105868138D01*
D11*
X52594385Y106644385D02*
X52594385Y105394385D01*
X52594385Y105394385D02*
X53844385Y105394385D01*
X52894385Y110414385D02*
X52894385Y105694385D01*
X52894385Y105694385D02*
X61014385Y105694385D01*
X53504385Y109804385D02*
X53504385Y106304385D01*
X53504385Y108304385D02*
X52894385Y108304385D01*
X53504385Y107004385D02*
X52894385Y107004385D01*
X53504385Y106304385D02*
X55454385Y106304385D01*
X54354385Y105694385D02*
X54354385Y105494385D01*
X54354385Y105594385D02*
X54654385Y105594385D01*
X54354385Y105494385D02*
X54654385Y105494385D01*
X54654385Y105494385D02*
X54654385Y105694385D01*
X55454385Y106304385D02*
X55454385Y105694385D01*
X55854385Y109304385D02*
X55854385Y109804385D01*
X55954385Y109304385D02*
X55954385Y109804385D01*
X56054385Y109804385D02*
X56054385Y109304385D01*
X56054385Y109304385D02*
X55854385Y109304385D01*
X57854385Y109304385D02*
X57854385Y109804385D01*
X57954385Y109304385D02*
X57954385Y109804385D01*
X58054385Y109804385D02*
X58054385Y109304385D01*
X58054385Y109304385D02*
X57854385Y109304385D01*
X58454385Y106304385D02*
X60404385Y106304385D01*
X58454385Y105694385D02*
X58454385Y106304385D01*
X60404385Y109804385D02*
X53504385Y109804385D01*
X60404385Y108304385D02*
X61014385Y108304385D01*
X60404385Y107004385D02*
X61014385Y107004385D01*
X60404385Y106304385D02*
X60404385Y109804385D01*
X61014385Y110414385D02*
X52894385Y110414385D01*
X61014385Y105694385D02*
X61014385Y110414385D01*
D12*
X96974385Y67438785D02*
X96974385Y9488785D01*
D11*
X98374385Y13028785D02*
X98374385Y63948785D01*
D12*
X100474385Y70989142D02*
X100974385Y70988785D01*
D11*
X100974385Y63948785D02*
X98374385Y63948785D01*
X100974385Y61348785D02*
X100974385Y63948785D01*
X103574385Y63948785D02*
X102244385Y63948785D01*
X103574385Y62618785D02*
X103574385Y63948785D01*
X103574385Y61348785D02*
X100974385Y61348785D01*
X103574385Y13028785D02*
X98374385Y13028785D01*
X103574385Y13028785D02*
X103574385Y61348785D01*
X133044385Y13173785D02*
X133044385Y11843785D01*
X133044385Y10573785D02*
X133044385Y7973785D01*
X134374385Y13173785D02*
X133044385Y13173785D01*
X134679385Y49738785D02*
X134679385Y57478785D01*
X135644385Y13173785D02*
X135644385Y10573785D01*
X135644385Y10573785D02*
X133044385Y10573785D01*
X137279385Y57478785D02*
X134679385Y57478785D01*
X137279385Y54878785D02*
X137279385Y57478785D01*
X139879385Y57478785D02*
X138549385Y57478785D01*
X139879385Y56148785D02*
X139879385Y57478785D01*
X139879385Y54878785D02*
X137279385Y54878785D01*
X139879385Y49738785D02*
X134679385Y49738785D01*
X139879385Y49738785D02*
X139879385Y54878785D01*
X140784385Y13173785D02*
X135644385Y13173785D01*
X140784385Y13173785D02*
X140784385Y7973785D01*
X140784385Y7973785D02*
X133044385Y7973785D01*
D12*
X149724385Y5988785D02*
X100224385Y5988785D01*
X149974385Y70988785D02*
X100974385Y70988785D01*
X149974385Y5988785D02*
X149724385Y5988785D01*
X153474385Y9488785D02*
X153474385Y67488785D01*
X96974385Y67438785D02*
G75*
G02*
X100474385Y70989142I3500000J50000D01*
G01*
X100474385Y5988785D02*
G75*
G02*
X96974385Y9488785I0J3500000D01*
G01*
X149974385Y70988785D02*
G75*
G02*
X153474385Y67488785I1J-3499999D01*
G01*
X153474385Y9488785D02*
G75*
G02*
X149974385Y5988785I-3499999J-1D01*
G01*
X102625385Y67488785D02*
G75*
G02*
X99323385Y67488785I-1651000J0D01*
G01*
X99323385Y67488785D02*
G75*
G02*
X102625385Y67488785I1651000J0D01*
G01*
X102625385Y9488785D02*
G75*
G02*
X99323385Y9488785I-1651000J0D01*
G01*
X99323385Y9488785D02*
G75*
G02*
X102625385Y9488785I1651000J0D01*
G01*
X151625385Y67488785D02*
G75*
G02*
X148323385Y67488785I-1651000J0D01*
G01*
X148323385Y67488785D02*
G75*
G02*
X151625385Y67488785I1651000J0D01*
G01*
X151625385Y9488785D02*
G75*
G02*
X148323385Y9488785I-1651000J0D01*
G01*
X148323385Y9488785D02*
G75*
G02*
X151625385Y9488785I1651000J0D01*
G01*
D11*
X43664385Y106634385D02*
X43664385Y105384385D01*
X43664385Y105384385D02*
X44914385Y105384385D01*
X43964385Y110404385D02*
X43964385Y105684385D01*
X43964385Y105684385D02*
X52084385Y105684385D01*
X44574385Y109794385D02*
X44574385Y106294385D01*
X44574385Y108294385D02*
X43964385Y108294385D01*
X44574385Y106994385D02*
X43964385Y106994385D01*
X44574385Y106294385D02*
X46524385Y106294385D01*
X45424385Y105684385D02*
X45424385Y105484385D01*
X45424385Y105584385D02*
X45724385Y105584385D01*
X45424385Y105484385D02*
X45724385Y105484385D01*
X45724385Y105484385D02*
X45724385Y105684385D01*
X46524385Y106294385D02*
X46524385Y105684385D01*
X46924385Y109294385D02*
X46924385Y109794385D01*
X47024385Y109294385D02*
X47024385Y109794385D01*
X47124385Y109794385D02*
X47124385Y109294385D01*
X47124385Y109294385D02*
X46924385Y109294385D01*
X48924385Y109294385D02*
X48924385Y109794385D01*
X49024385Y109294385D02*
X49024385Y109794385D01*
X49124385Y109794385D02*
X49124385Y109294385D01*
X49124385Y109294385D02*
X48924385Y109294385D01*
X49524385Y106294385D02*
X51474385Y106294385D01*
X49524385Y105684385D02*
X49524385Y106294385D01*
X51474385Y109794385D02*
X44574385Y109794385D01*
X51474385Y108294385D02*
X52084385Y108294385D01*
X51474385Y106994385D02*
X52084385Y106994385D01*
X51474385Y106294385D02*
X51474385Y109794385D01*
X52084385Y110404385D02*
X43964385Y110404385D01*
X52084385Y105684385D02*
X52084385Y110404385D01*
M02*
