%TF.GenerationSoftware,KiCad,Pcbnew,9.0.7+1*%
%TF.CreationDate,2026-04-21T20:45:40+00:00*%
%TF.ProjectId,pedalboard-hw,70656461-6c62-46f6-9172-642d68772e6b,4.0.1-RC*%
%TF.SameCoordinates,Original*%
%TF.FileFunction,Soldermask,Bot*%
%TF.FilePolarity,Negative*%
%FSLAX46Y46*%
G04 Gerber Fmt 4.6, Leading zero omitted, Abs format (unit mm)*
G04 Created by KiCad (PCBNEW 9.0.7+1) date 2026-04-21 20:45:40*
%MOMM*%
%LPD*%
G01*
G04 APERTURE LIST*
G04 Aperture macros list*
%AMRoundRect*
0 Rectangle with rounded corners*
0 $1 Rounding radius*
0 $2 $3 $4 $5 $6 $7 $8 $9 X,Y pos of 4 corners*
0 Add a 4 corners polygon primitive as box body*
4,1,4,$2,$3,$4,$5,$6,$7,$8,$9,$2,$3,0*
0 Add four circle primitives for the rounded corners*
1,1,$1+$1,$2,$3*
1,1,$1+$1,$4,$5*
1,1,$1+$1,$6,$7*
1,1,$1+$1,$8,$9*
0 Add four rect primitives between the rounded corners*
20,1,$1+$1,$2,$3,$4,$5,0*
20,1,$1+$1,$4,$5,$6,$7,0*
20,1,$1+$1,$6,$7,$8,$9,0*
20,1,$1+$1,$8,$9,$2,$3,0*%
%AMFreePoly0*
4,1,17,0.553688,1.285921,1.285921,0.553688,1.300800,0.517767,1.300800,-0.517767,1.285921,-0.553688,0.553688,-1.285921,0.517767,-1.300800,-0.517767,-1.300800,-0.553688,-1.285921,-1.285921,-0.553688,-1.300800,-0.517767,-1.300800,0.517767,-1.285921,0.553688,-0.553688,1.285921,-0.517767,1.300800,0.517767,1.300800,0.553688,1.285921,0.553688,1.285921,$1*%
%AMFreePoly1*
4,1,14,0.935921,1.035921,0.950800,1.000000,0.950800,-0.100000,0.935921,-0.135921,0.035921,-1.035921,0.000000,-1.050800,-0.900000,-1.050800,-0.935921,-1.035921,-0.950800,-1.000000,-0.950800,1.000000,-0.935921,1.035921,-0.900000,1.050800,0.900000,1.050800,0.935921,1.035921,0.935921,1.035921,$1*%
%AMFreePoly2*
4,1,14,0.935921,1.035921,0.950800,1.000000,0.950800,-1.000000,0.935921,-1.035921,0.900000,-1.050800,0.000000,-1.050800,-0.035921,-1.035921,-0.935921,-0.135921,-0.950800,-0.100000,-0.950800,1.000000,-0.935921,1.035921,-0.900000,1.050800,0.900000,1.050800,0.935921,1.035921,0.935921,1.035921,$1*%
G04 Aperture macros list end*
%ADD10C,2.700000*%
%ADD11O,1.200000X2.200000*%
%ADD12O,2.200000X1.200000*%
%ADD13C,3.000000*%
%ADD14R,4.400000X1.800000*%
%ADD15O,4.000000X1.800000*%
%ADD16O,1.800000X4.000000*%
%ADD17RoundRect,0.250000X1.050000X-1.050000X1.050000X1.050000X-1.050000X1.050000X-1.050000X-1.050000X0*%
%ADD18C,2.600000*%
%ADD19R,1.700000X1.700000*%
%ADD20C,1.700000*%
%ADD21C,0.600000*%
%ADD22FreePoly0,180.000000*%
%ADD23FreePoly0,270.000000*%
%ADD24FreePoly1,180.000000*%
%ADD25RoundRect,0.050800X0.900000X1.000000X-0.900000X1.000000X-0.900000X-1.000000X0.900000X-1.000000X0*%
%ADD26FreePoly2,180.000000*%
%ADD27R,2.000000X2.000000*%
%ADD28C,2.000000*%
%ADD29C,3.200000*%
%ADD30O,1.700000X1.350000*%
%ADD31O,1.500000X1.100000*%
%ADD32R,1.600000X1.500000*%
%ADD33C,1.600000*%
%ADD34C,6.100000*%
%ADD35C,6.000000*%
%ADD36RoundRect,0.250000X-0.350000X-0.625000X0.350000X-0.625000X0.350000X0.625000X-0.350000X0.625000X0*%
%ADD37O,1.200000X1.750000*%
%ADD38O,1.700000X1.700000*%
G04 APERTURE END LIST*
D10*
%TO.C,H7*%
X168000000Y-121500000D03*
%TD*%
D11*
%TO.C,J3*%
X125000000Y-29500000D03*
X122500000Y-29500000D03*
D12*
X120000000Y-24500000D03*
D11*
X115000000Y-29500000D03*
X117500000Y-29500000D03*
%TD*%
D13*
%TO.C,J8*%
X28050000Y-50000000D03*
X28050000Y-33770000D03*
X21700000Y-50000000D03*
X21700000Y-33770000D03*
X34400000Y-50000000D03*
X34400000Y-33770000D03*
%TD*%
%TO.C,J19*%
X28050000Y-111200000D03*
X28050000Y-94970000D03*
X21700000Y-111200000D03*
X21700000Y-94970000D03*
X34400000Y-111200000D03*
X34400000Y-94970000D03*
%TD*%
D14*
%TO.C,J7*%
X176537200Y-30388600D03*
D15*
X176537200Y-24588600D03*
D16*
X171737200Y-27388600D03*
%TD*%
D17*
%TO.C,J6*%
X175637200Y-28198600D03*
D18*
X175637200Y-23198600D03*
%TD*%
D13*
%TO.C,J20*%
X28050000Y-91000000D03*
X28050000Y-74770000D03*
X21700000Y-91000000D03*
X21700000Y-74770000D03*
X34400000Y-91000000D03*
X34400000Y-74770000D03*
%TD*%
%TO.C,J22*%
X181950000Y-94995000D03*
X181950000Y-111225000D03*
X188300000Y-94995000D03*
X188300000Y-111225000D03*
X175600000Y-94995000D03*
X175600000Y-111225000D03*
%TD*%
D19*
%TO.C,J12*%
X129315000Y-44450000D03*
D20*
X131855000Y-44450000D03*
X134395000Y-44450000D03*
%TD*%
D10*
%TO.C,H6*%
X118980000Y-121520000D03*
%TD*%
D21*
%TO.C,H2*%
X80100000Y-21075000D03*
X80100000Y-22075000D03*
X80100000Y-23075000D03*
X80100000Y-24075000D03*
X80100000Y-25075000D03*
X80100000Y-26075000D03*
X80100000Y-30075000D03*
X80100000Y-31075000D03*
X80100000Y-32075000D03*
X80100000Y-33075000D03*
X80100000Y-34075000D03*
X80100000Y-35075000D03*
X80100000Y-36075000D03*
X81100000Y-36075000D03*
X82100000Y-36075000D03*
X83100000Y-36075000D03*
X84100000Y-36075000D03*
X85100000Y-36075000D03*
X86100000Y-36075000D03*
X87100000Y-36075000D03*
X88100000Y-36075000D03*
X89100000Y-36075000D03*
X90100000Y-36075000D03*
X91100000Y-36075000D03*
X92100000Y-36075000D03*
X93100000Y-36075000D03*
X94100000Y-36075000D03*
X95100000Y-36075000D03*
X96100000Y-36075000D03*
X97100000Y-36075000D03*
X98100000Y-36075000D03*
X99100000Y-36075000D03*
X100100000Y-36075000D03*
X101100000Y-36075000D03*
X102100000Y-36075000D03*
X103100000Y-36075000D03*
X104100000Y-36075000D03*
X105100000Y-36075000D03*
X106100000Y-36075000D03*
X107100000Y-36075000D03*
X108100000Y-36075000D03*
X109100000Y-36075000D03*
X110100000Y-36075000D03*
X111100000Y-36075000D03*
X112100000Y-36075000D03*
X113100000Y-36075000D03*
X114100000Y-36075000D03*
X115100000Y-36075000D03*
X116100000Y-36075000D03*
X117100000Y-36075000D03*
X118100000Y-36075000D03*
X119100000Y-36075000D03*
X120100000Y-36075000D03*
X121100000Y-36075000D03*
X122100000Y-36075000D03*
X123100000Y-36075000D03*
X124100000Y-36075000D03*
X125100000Y-36075000D03*
X126100000Y-36075000D03*
X127100000Y-36075000D03*
X128100000Y-36075000D03*
X129100000Y-36075000D03*
X130100000Y-21075000D03*
X130100000Y-22075000D03*
X130100000Y-23075000D03*
X130100000Y-24075000D03*
X130100000Y-25075000D03*
X130100000Y-26075000D03*
X130100000Y-27075000D03*
X130100000Y-28075000D03*
X130100000Y-29075000D03*
X130100000Y-30075000D03*
X130100000Y-31075000D03*
X130100000Y-32075000D03*
X130100000Y-33075000D03*
X130100000Y-34075000D03*
X130100000Y-35075000D03*
X130100000Y-36075000D03*
%TD*%
D10*
%TO.C,H1*%
X25000000Y-23000000D03*
%TD*%
D13*
%TO.C,J5*%
X181965000Y-33800000D03*
X181965000Y-50030000D03*
X188315000Y-33800000D03*
X188315000Y-50030000D03*
X175615000Y-33800000D03*
X175615000Y-50030000D03*
%TD*%
D10*
%TO.C,H4*%
X168000000Y-63500000D03*
%TD*%
D22*
%TO.C,J4*%
X112500000Y-32000000D03*
D23*
X120000000Y-32000000D03*
D22*
X127500000Y-32000000D03*
X115000000Y-34500000D03*
X125000000Y-34500000D03*
D24*
X122500000Y-22000000D03*
D25*
X125000000Y-22000000D03*
X115000000Y-22000000D03*
D26*
X117500000Y-22000000D03*
%TD*%
D10*
%TO.C,H5*%
X119000000Y-63500000D03*
%TD*%
D27*
%TO.C,SW1*%
X60250000Y-31500000D03*
D28*
X60250000Y-36500000D03*
X60250000Y-34000000D03*
D29*
X67750000Y-28400000D03*
X67750000Y-39600000D03*
D28*
X74750000Y-36500000D03*
X74750000Y-31500000D03*
%TD*%
D10*
%TO.C,H15*%
X168000000Y-128000000D03*
%TD*%
D19*
%TO.C,J16*%
X107225000Y-81300000D03*
D20*
X104685000Y-81300000D03*
X102145000Y-81300000D03*
%TD*%
D13*
%TO.C,J18*%
X181950000Y-74780000D03*
X181950000Y-91010000D03*
X188300000Y-74780000D03*
X188300000Y-91010000D03*
X175600000Y-74780000D03*
X175600000Y-91010000D03*
%TD*%
D30*
%TO.C,J9*%
X19555000Y-53745000D03*
D31*
X22555000Y-54055000D03*
X22555000Y-58895000D03*
D30*
X19555000Y-59205000D03*
%TD*%
D32*
%TO.C,J10*%
X53080000Y-31750000D03*
D33*
X50580000Y-31750000D03*
X48580000Y-31750000D03*
X46080000Y-31750000D03*
D13*
X56150000Y-29040000D03*
X43010000Y-29040000D03*
%TD*%
D34*
%TO.C,CM1*%
X89000000Y-111500000D03*
X89000000Y-63500000D03*
X56000000Y-111500000D03*
X56000000Y-63500000D03*
%TD*%
D10*
%TO.C,H14*%
X42000000Y-128000000D03*
%TD*%
%TO.C,H3*%
X185005615Y-22994385D03*
%TD*%
D27*
%TO.C,SW2*%
X135250000Y-31500000D03*
D28*
X135250000Y-36500000D03*
X135250000Y-34000000D03*
D29*
X142750000Y-28400000D03*
X142750000Y-39600000D03*
D28*
X149750000Y-36500000D03*
X149750000Y-31500000D03*
%TD*%
D10*
%TO.C,H16*%
X105000000Y-98000000D03*
%TD*%
D22*
%TO.C,J2*%
X82500000Y-32000000D03*
D23*
X90000000Y-32000000D03*
D22*
X97500000Y-32000000D03*
X85000000Y-34500000D03*
X95000000Y-34500000D03*
D24*
X92500000Y-22000000D03*
D25*
X95000000Y-22000000D03*
X85000000Y-22000000D03*
D26*
X87500000Y-22000000D03*
%TD*%
D11*
%TO.C,J1*%
X94994500Y-29500000D03*
X92494500Y-29500000D03*
D12*
X89994500Y-24500000D03*
D11*
X84994500Y-29500000D03*
X87494500Y-29500000D03*
%TD*%
D35*
%TO.C,H13*%
X30000000Y-119000000D03*
%TD*%
%TO.C,H9*%
X105000000Y-67000000D03*
%TD*%
%TO.C,H10*%
X30000000Y-67000000D03*
%TD*%
%TO.C,H8*%
X180000000Y-67000000D03*
%TD*%
%TO.C,H12*%
X105000000Y-119000000D03*
%TD*%
D36*
%TO.C,J25*%
X72960000Y-23490000D03*
D37*
X74960000Y-23490000D03*
X76960000Y-23490000D03*
%TD*%
D35*
%TO.C,H11*%
X180000000Y-119000000D03*
%TD*%
D19*
%TO.C,J27*%
X120250000Y-68375600D03*
D38*
X117710000Y-68375600D03*
X120250000Y-70915600D03*
X117710000Y-70915600D03*
X120250000Y-73455600D03*
X117710000Y-73455600D03*
X120250000Y-75995600D03*
X117710000Y-75995600D03*
X120250000Y-78535600D03*
X117710000Y-78535600D03*
X120250000Y-81075600D03*
X117710000Y-81075600D03*
X120250000Y-83615600D03*
X117710000Y-83615600D03*
X120250000Y-86155600D03*
X117710000Y-86155600D03*
X120250000Y-88695600D03*
X117710000Y-88695600D03*
X120250000Y-91235600D03*
X117710000Y-91235600D03*
X120250000Y-93775600D03*
X117710000Y-93775600D03*
X120250000Y-96315600D03*
X117710000Y-96315600D03*
X120250000Y-98855600D03*
X117710000Y-98855600D03*
X120250000Y-101395600D03*
X117710000Y-101395600D03*
X120250000Y-103935600D03*
X117710000Y-103935600D03*
X120250000Y-106475600D03*
X117710000Y-106475600D03*
X120250000Y-109015600D03*
X117710000Y-109015600D03*
X120250000Y-111555600D03*
X117710000Y-111555600D03*
X120250000Y-114095600D03*
X117710000Y-114095600D03*
X120250000Y-116635600D03*
X117710000Y-116635600D03*
D19*
X156555000Y-74845600D03*
D38*
X154015000Y-74845600D03*
X156555000Y-77385600D03*
X154015000Y-77385600D03*
X156555000Y-79925600D03*
X154015000Y-79925600D03*
D19*
X152380000Y-119150600D03*
D38*
X152380000Y-121690600D03*
X154920000Y-119150600D03*
X154920000Y-121690600D03*
X157460000Y-119150600D03*
X157460000Y-121690600D03*
%TD*%
D36*
%TO.C,J26*%
X64030000Y-23500000D03*
D37*
X66030000Y-23500000D03*
X68030000Y-23500000D03*
%TD*%
M02*
