%TF.GenerationSoftware,KiCad,Pcbnew,9.0.7+1*%
%TF.CreationDate,2026-04-14T20:44:49+00:00*%
%TF.ProjectId,pedalboard-hw,70656461-6c62-46f6-9172-642d68772e6b,4.0.1-RC*%
%TF.SameCoordinates,Original*%
%TF.FileFunction,Other,Comment*%
%FSLAX46Y46*%
G04 Gerber Fmt 4.6, Leading zero omitted, Abs format (unit mm)*
G04 Created by KiCad (PCBNEW 9.0.7+1) date 2026-04-14 20:44:49*
%MOMM*%
%LPD*%
G01*
G04 APERTURE LIST*
%ADD10C,0.150000*%
G04 APERTURE END LIST*
D10*
%TO.C,H7*%
X170350000Y-121500000D02*
G75*
G02*
X165650000Y-121500000I-2350000J0D01*
G01*
X165650000Y-121500000D02*
G75*
G02*
X170350000Y-121500000I2350000J0D01*
G01*
%TO.C,H6*%
X121330000Y-121520000D02*
G75*
G02*
X116630000Y-121520000I-2350000J0D01*
G01*
X116630000Y-121520000D02*
G75*
G02*
X121330000Y-121520000I2350000J0D01*
G01*
%TO.C,H1*%
X27350000Y-23000000D02*
G75*
G02*
X22650000Y-23000000I-2350000J0D01*
G01*
X22650000Y-23000000D02*
G75*
G02*
X27350000Y-23000000I2350000J0D01*
G01*
%TO.C,H4*%
X170350000Y-63500000D02*
G75*
G02*
X165650000Y-63500000I-2350000J0D01*
G01*
X165650000Y-63500000D02*
G75*
G02*
X170350000Y-63500000I2350000J0D01*
G01*
%TO.C,H5*%
X121350000Y-63500000D02*
G75*
G02*
X116650000Y-63500000I-2350000J0D01*
G01*
X116650000Y-63500000D02*
G75*
G02*
X121350000Y-63500000I2350000J0D01*
G01*
%TO.C,H15*%
X170350000Y-128000000D02*
G75*
G02*
X165650000Y-128000000I-2350000J0D01*
G01*
X165650000Y-128000000D02*
G75*
G02*
X170350000Y-128000000I2350000J0D01*
G01*
%TO.C,H14*%
X44350000Y-128000000D02*
G75*
G02*
X39650000Y-128000000I-2350000J0D01*
G01*
X39650000Y-128000000D02*
G75*
G02*
X44350000Y-128000000I2350000J0D01*
G01*
%TO.C,H3*%
X187355615Y-22994385D02*
G75*
G02*
X182655615Y-22994385I-2350000J0D01*
G01*
X182655615Y-22994385D02*
G75*
G02*
X187355615Y-22994385I2350000J0D01*
G01*
%TO.C,H16*%
X107350000Y-98000000D02*
G75*
G02*
X102650000Y-98000000I-2350000J0D01*
G01*
X102650000Y-98000000D02*
G75*
G02*
X107350000Y-98000000I2350000J0D01*
G01*
%TO.C,H13*%
X33000000Y-119000000D02*
G75*
G02*
X27000000Y-119000000I-3000000J0D01*
G01*
X27000000Y-119000000D02*
G75*
G02*
X33000000Y-119000000I3000000J0D01*
G01*
%TO.C,H9*%
X108000000Y-67000000D02*
G75*
G02*
X102000000Y-67000000I-3000000J0D01*
G01*
X102000000Y-67000000D02*
G75*
G02*
X108000000Y-67000000I3000000J0D01*
G01*
%TO.C,H10*%
X33000000Y-67000000D02*
G75*
G02*
X27000000Y-67000000I-3000000J0D01*
G01*
X27000000Y-67000000D02*
G75*
G02*
X33000000Y-67000000I3000000J0D01*
G01*
%TO.C,H8*%
X183000000Y-67000000D02*
G75*
G02*
X177000000Y-67000000I-3000000J0D01*
G01*
X177000000Y-67000000D02*
G75*
G02*
X183000000Y-67000000I3000000J0D01*
G01*
%TO.C,H12*%
X108000000Y-119000000D02*
G75*
G02*
X102000000Y-119000000I-3000000J0D01*
G01*
X102000000Y-119000000D02*
G75*
G02*
X108000000Y-119000000I3000000J0D01*
G01*
%TO.C,H11*%
X183000000Y-119000000D02*
G75*
G02*
X177000000Y-119000000I-3000000J0D01*
G01*
X177000000Y-119000000D02*
G75*
G02*
X183000000Y-119000000I3000000J0D01*
G01*
%TD*%
M02*
