%TF.GenerationSoftware,KiCad,Pcbnew,9.0.7+1*%
%TF.CreationDate,2026-04-18T10:55:36+00:00*%
%TF.ProjectId,pedalboard-hw,70656461-6c62-46f6-9172-642d68772e6b,4.0.1-RC*%
%TF.SameCoordinates,Original*%
%TF.FileFunction,Legend,Bot*%
%TF.FilePolarity,Positive*%
%FSLAX46Y46*%
G04 Gerber Fmt 4.6, Leading zero omitted, Abs format (unit mm)*
G04 Created by KiCad (PCBNEW 9.0.7+1) date 2026-04-18 10:55:36*
%MOMM*%
%LPD*%
G01*
G04 APERTURE LIST*
%ADD10C,0.150000*%
%ADD11C,0.120000*%
%ADD12C,0.100000*%
G04 APERTURE END LIST*
D10*
G36*
X22164819Y-46880323D02*
G01*
X22126648Y-46994835D01*
X22052534Y-47068948D01*
X21975547Y-47107442D01*
X21802013Y-47150826D01*
X21677624Y-47150826D01*
X21504090Y-47107442D01*
X21427103Y-47068949D01*
X21352990Y-46994836D01*
X21314819Y-46880322D01*
X21314819Y-46729398D01*
X22164819Y-46729398D01*
X22164819Y-46880323D01*
G37*
G36*
X22425930Y-47411937D02*
G01*
X21053708Y-47411937D01*
X21053708Y-46654398D01*
X21164819Y-46654398D01*
X21164819Y-46892493D01*
X21165548Y-46899898D01*
X21165408Y-46901873D01*
X21165998Y-46904470D01*
X21166260Y-46907125D01*
X21167018Y-46908956D01*
X21168668Y-46916210D01*
X21216287Y-47059067D01*
X21222281Y-47072492D01*
X21224046Y-47074527D01*
X21225078Y-47077018D01*
X21234405Y-47088383D01*
X21329643Y-47183621D01*
X21335393Y-47188341D01*
X21336692Y-47189838D01*
X21338946Y-47191257D01*
X21341008Y-47192949D01*
X21342840Y-47193707D01*
X21349135Y-47197670D01*
X21444373Y-47245289D01*
X21445442Y-47245698D01*
X21445878Y-47246021D01*
X21452014Y-47248213D01*
X21458104Y-47250544D01*
X21458644Y-47250582D01*
X21459724Y-47250968D01*
X21650200Y-47298587D01*
X21652736Y-47298962D01*
X21653758Y-47299385D01*
X21659270Y-47299927D01*
X21664744Y-47300737D01*
X21665836Y-47300574D01*
X21668390Y-47300826D01*
X21811247Y-47300826D01*
X21813800Y-47300574D01*
X21814893Y-47300737D01*
X21820366Y-47299927D01*
X21825879Y-47299385D01*
X21826900Y-47298962D01*
X21829437Y-47298587D01*
X22019913Y-47250968D01*
X22020992Y-47250582D01*
X22021532Y-47250544D01*
X22027613Y-47248216D01*
X22033759Y-47246021D01*
X22034194Y-47245698D01*
X22035264Y-47245289D01*
X22130502Y-47197670D01*
X22136798Y-47193706D01*
X22138628Y-47192949D01*
X22140686Y-47191259D01*
X22142945Y-47189838D01*
X22144244Y-47188339D01*
X22149994Y-47183621D01*
X22245233Y-47088383D01*
X22254561Y-47077018D01*
X22255592Y-47074527D01*
X22257357Y-47072493D01*
X22263351Y-47059067D01*
X22310970Y-46916211D01*
X22312619Y-46908955D01*
X22313378Y-46907125D01*
X22313639Y-46904471D01*
X22314230Y-46901874D01*
X22314089Y-46899899D01*
X22314819Y-46892493D01*
X22314819Y-46654398D01*
X22313378Y-46639766D01*
X22302179Y-46612730D01*
X22281487Y-46592038D01*
X22254451Y-46580839D01*
X22239819Y-46579398D01*
X21239819Y-46579398D01*
X21225187Y-46580839D01*
X21198151Y-46592038D01*
X21177459Y-46612730D01*
X21166260Y-46639766D01*
X21164819Y-46654398D01*
X21053708Y-46654398D01*
X21053708Y-45612018D01*
X21165002Y-45612018D01*
X21166260Y-45616630D01*
X21166260Y-45621411D01*
X21170077Y-45630626D01*
X21172702Y-45640250D01*
X21175629Y-45644030D01*
X21177459Y-45648447D01*
X21184509Y-45655497D01*
X21190619Y-45663387D01*
X21196751Y-45667739D01*
X21198151Y-45669139D01*
X21199525Y-45669708D01*
X21202609Y-45671897D01*
X21957402Y-46103207D01*
X21239819Y-46103207D01*
X21225187Y-46104648D01*
X21198151Y-46115847D01*
X21177459Y-46136539D01*
X21166260Y-46163575D01*
X21166260Y-46192839D01*
X21177459Y-46219875D01*
X21198151Y-46240567D01*
X21225187Y-46251766D01*
X21239819Y-46253207D01*
X22239819Y-46253207D01*
X22243582Y-46252836D01*
X22245058Y-46253024D01*
X22246968Y-46252502D01*
X22254451Y-46251766D01*
X22263666Y-46247948D01*
X22273290Y-46245324D01*
X22277070Y-46242396D01*
X22281487Y-46240567D01*
X22288537Y-46233516D01*
X22296427Y-46227407D01*
X22298800Y-46223253D01*
X22302179Y-46219875D01*
X22305995Y-46210662D01*
X22310946Y-46201998D01*
X22311548Y-46197254D01*
X22313378Y-46192839D01*
X22313378Y-46182864D01*
X22314636Y-46172968D01*
X22313378Y-46168355D01*
X22313378Y-46163575D01*
X22309560Y-46154358D01*
X22306936Y-46144737D01*
X22304009Y-46140957D01*
X22302179Y-46136539D01*
X22295127Y-46129487D01*
X22289019Y-46121599D01*
X22282884Y-46117244D01*
X22281487Y-46115847D01*
X22280114Y-46115278D01*
X22277030Y-46113089D01*
X21522236Y-45681779D01*
X22239819Y-45681779D01*
X22254451Y-45680338D01*
X22281487Y-45669139D01*
X22302179Y-45648447D01*
X22313378Y-45621411D01*
X22313378Y-45592147D01*
X22302179Y-45565111D01*
X22281487Y-45544419D01*
X22254451Y-45533220D01*
X22239819Y-45531779D01*
X21239819Y-45531779D01*
X21236055Y-45532149D01*
X21234580Y-45531962D01*
X21232669Y-45532483D01*
X21225187Y-45533220D01*
X21215971Y-45537037D01*
X21206348Y-45539662D01*
X21202567Y-45542589D01*
X21198151Y-45544419D01*
X21191100Y-45551469D01*
X21183211Y-45557579D01*
X21180837Y-45561732D01*
X21177459Y-45565111D01*
X21173642Y-45574323D01*
X21168692Y-45582988D01*
X21168089Y-45587731D01*
X21166260Y-45592147D01*
X21166260Y-45602121D01*
X21165002Y-45612018D01*
X21053708Y-45612018D01*
X21053708Y-44892493D01*
X21164819Y-44892493D01*
X21164819Y-45035350D01*
X21166260Y-45049982D01*
X21167291Y-45052471D01*
X21167482Y-45055159D01*
X21172737Y-45068891D01*
X21220356Y-45164129D01*
X21228188Y-45176572D01*
X21250296Y-45195745D01*
X21278057Y-45204999D01*
X21307247Y-45202925D01*
X21333422Y-45189837D01*
X21352595Y-45167730D01*
X21361849Y-45139968D01*
X21359775Y-45110778D01*
X21354520Y-45097047D01*
X21314819Y-45017645D01*
X21314819Y-44904663D01*
X21352990Y-44790149D01*
X21427103Y-44716037D01*
X21504090Y-44677543D01*
X21677624Y-44634160D01*
X21802013Y-44634160D01*
X21975547Y-44677543D01*
X22052534Y-44716037D01*
X22126648Y-44790150D01*
X22164819Y-44904663D01*
X22164819Y-44975561D01*
X22126648Y-45090073D01*
X22113514Y-45103207D01*
X21886247Y-45103207D01*
X21886247Y-44987731D01*
X21884806Y-44973099D01*
X21873607Y-44946063D01*
X21852915Y-44925371D01*
X21825879Y-44914172D01*
X21796615Y-44914172D01*
X21769579Y-44925371D01*
X21748887Y-44946063D01*
X21737688Y-44973099D01*
X21736247Y-44987731D01*
X21736247Y-45178207D01*
X21737688Y-45192838D01*
X21737688Y-45192839D01*
X21748887Y-45219875D01*
X21769579Y-45240567D01*
X21796615Y-45251766D01*
X21811247Y-45253207D01*
X22144580Y-45253207D01*
X22159212Y-45251766D01*
X22170410Y-45247127D01*
X22186247Y-45240568D01*
X22197612Y-45231241D01*
X22245232Y-45183622D01*
X22254560Y-45172256D01*
X22255590Y-45169767D01*
X22257357Y-45167731D01*
X22263351Y-45154305D01*
X22310970Y-45011449D01*
X22312619Y-45004193D01*
X22313378Y-45002363D01*
X22313639Y-44999709D01*
X22314230Y-44997112D01*
X22314089Y-44995137D01*
X22314819Y-44987731D01*
X22314819Y-44892493D01*
X22314089Y-44885086D01*
X22314230Y-44883112D01*
X22313639Y-44880514D01*
X22313378Y-44877861D01*
X22312619Y-44876030D01*
X22310970Y-44868775D01*
X22263351Y-44725919D01*
X22257357Y-44712493D01*
X22255592Y-44710458D01*
X22254561Y-44707968D01*
X22245233Y-44696603D01*
X22149994Y-44601365D01*
X22144244Y-44596646D01*
X22142945Y-44595148D01*
X22140686Y-44593726D01*
X22138628Y-44592037D01*
X22136798Y-44591279D01*
X22130502Y-44587316D01*
X22035264Y-44539697D01*
X22034194Y-44539287D01*
X22033759Y-44538965D01*
X22027613Y-44536769D01*
X22021532Y-44534442D01*
X22020992Y-44534403D01*
X22019913Y-44534018D01*
X21829437Y-44486399D01*
X21826900Y-44486023D01*
X21825879Y-44485601D01*
X21820366Y-44485058D01*
X21814893Y-44484249D01*
X21813800Y-44484411D01*
X21811247Y-44484160D01*
X21668390Y-44484160D01*
X21665836Y-44484411D01*
X21664744Y-44484249D01*
X21659270Y-44485058D01*
X21653758Y-44485601D01*
X21652736Y-44486023D01*
X21650200Y-44486399D01*
X21459724Y-44534018D01*
X21458644Y-44534403D01*
X21458104Y-44534442D01*
X21452014Y-44536772D01*
X21445878Y-44538965D01*
X21445442Y-44539287D01*
X21444373Y-44539697D01*
X21349135Y-44587316D01*
X21342840Y-44591278D01*
X21341008Y-44592037D01*
X21338946Y-44593728D01*
X21336692Y-44595148D01*
X21335393Y-44596644D01*
X21329643Y-44601365D01*
X21234405Y-44696603D01*
X21225078Y-44707968D01*
X21224046Y-44710458D01*
X21222281Y-44712494D01*
X21216287Y-44725919D01*
X21168668Y-44868776D01*
X21167018Y-44876029D01*
X21166260Y-44877861D01*
X21165998Y-44880515D01*
X21165408Y-44883113D01*
X21165548Y-44885087D01*
X21164819Y-44892493D01*
X21053708Y-44892493D01*
X21053708Y-44373049D01*
X22425930Y-44373049D01*
X22425930Y-47411937D01*
G37*
G36*
X78869331Y-27135747D02*
G01*
X77449491Y-27135747D01*
X77449491Y-25949819D01*
X77560602Y-25949819D01*
X77560602Y-26949819D01*
X77560972Y-26953582D01*
X77560785Y-26955058D01*
X77561306Y-26956968D01*
X77562043Y-26964451D01*
X77565860Y-26973666D01*
X77568485Y-26983290D01*
X77571412Y-26987070D01*
X77573242Y-26991487D01*
X77580292Y-26998537D01*
X77586402Y-27006427D01*
X77590555Y-27008800D01*
X77593934Y-27012179D01*
X77603146Y-27015995D01*
X77611811Y-27020946D01*
X77616554Y-27021548D01*
X77620970Y-27023378D01*
X77630944Y-27023378D01*
X77640841Y-27024636D01*
X77645453Y-27023378D01*
X77650234Y-27023378D01*
X77659449Y-27019560D01*
X77669073Y-27016936D01*
X77672853Y-27014008D01*
X77677270Y-27012179D01*
X77684320Y-27005128D01*
X77692210Y-26999019D01*
X77696562Y-26992886D01*
X77697962Y-26991487D01*
X77698531Y-26990112D01*
X77700720Y-26987029D01*
X78132030Y-26232235D01*
X78132030Y-26949819D01*
X78133471Y-26964451D01*
X78144670Y-26991487D01*
X78165362Y-27012179D01*
X78192398Y-27023378D01*
X78221662Y-27023378D01*
X78248698Y-27012179D01*
X78269390Y-26991487D01*
X78280589Y-26964451D01*
X78282030Y-26949819D01*
X78282030Y-25949819D01*
X78608220Y-25949819D01*
X78608220Y-26949819D01*
X78609661Y-26964451D01*
X78620860Y-26991487D01*
X78641552Y-27012179D01*
X78668588Y-27023378D01*
X78697852Y-27023378D01*
X78724888Y-27012179D01*
X78745580Y-26991487D01*
X78756779Y-26964451D01*
X78758220Y-26949819D01*
X78758220Y-25949819D01*
X78756779Y-25935187D01*
X78745580Y-25908151D01*
X78724888Y-25887459D01*
X78697852Y-25876260D01*
X78668588Y-25876260D01*
X78641552Y-25887459D01*
X78620860Y-25908151D01*
X78609661Y-25935187D01*
X78608220Y-25949819D01*
X78282030Y-25949819D01*
X78281659Y-25946055D01*
X78281847Y-25944580D01*
X78281325Y-25942669D01*
X78280589Y-25935187D01*
X78276771Y-25925971D01*
X78274147Y-25916348D01*
X78271219Y-25912567D01*
X78269390Y-25908151D01*
X78262339Y-25901100D01*
X78256230Y-25893211D01*
X78252076Y-25890837D01*
X78248698Y-25887459D01*
X78239485Y-25883642D01*
X78230821Y-25878692D01*
X78226077Y-25878089D01*
X78221662Y-25876260D01*
X78211688Y-25876260D01*
X78201791Y-25875002D01*
X78197179Y-25876260D01*
X78192398Y-25876260D01*
X78183181Y-25880077D01*
X78173560Y-25882702D01*
X78169780Y-25885628D01*
X78165362Y-25887459D01*
X78158310Y-25894510D01*
X78150422Y-25900619D01*
X78146067Y-25906753D01*
X78144670Y-25908151D01*
X78144101Y-25909523D01*
X78141912Y-25912608D01*
X77710602Y-26667402D01*
X77710602Y-25949819D01*
X77709161Y-25935187D01*
X77697962Y-25908151D01*
X77677270Y-25887459D01*
X77650234Y-25876260D01*
X77620970Y-25876260D01*
X77593934Y-25887459D01*
X77573242Y-25908151D01*
X77562043Y-25935187D01*
X77560602Y-25949819D01*
X77449491Y-25949819D01*
X77449491Y-25763891D01*
X78869331Y-25763891D01*
X78869331Y-27135747D01*
G37*
G36*
X188784819Y-38900323D02*
G01*
X188746648Y-39014835D01*
X188672534Y-39088948D01*
X188595547Y-39127442D01*
X188422013Y-39170826D01*
X188297624Y-39170826D01*
X188124090Y-39127442D01*
X188047103Y-39088949D01*
X187972990Y-39014836D01*
X187934819Y-38900322D01*
X187934819Y-38749398D01*
X188784819Y-38749398D01*
X188784819Y-38900323D01*
G37*
G36*
X189045930Y-39431937D02*
G01*
X187673708Y-39431937D01*
X187673708Y-38674398D01*
X187784819Y-38674398D01*
X187784819Y-38912493D01*
X187785548Y-38919898D01*
X187785408Y-38921873D01*
X187785998Y-38924470D01*
X187786260Y-38927125D01*
X187787018Y-38928956D01*
X187788668Y-38936210D01*
X187836287Y-39079067D01*
X187842281Y-39092492D01*
X187844046Y-39094527D01*
X187845078Y-39097018D01*
X187854405Y-39108383D01*
X187949643Y-39203621D01*
X187955393Y-39208341D01*
X187956692Y-39209838D01*
X187958946Y-39211257D01*
X187961008Y-39212949D01*
X187962840Y-39213707D01*
X187969135Y-39217670D01*
X188064373Y-39265289D01*
X188065442Y-39265698D01*
X188065878Y-39266021D01*
X188072014Y-39268213D01*
X188078104Y-39270544D01*
X188078644Y-39270582D01*
X188079724Y-39270968D01*
X188270200Y-39318587D01*
X188272736Y-39318962D01*
X188273758Y-39319385D01*
X188279270Y-39319927D01*
X188284744Y-39320737D01*
X188285836Y-39320574D01*
X188288390Y-39320826D01*
X188431247Y-39320826D01*
X188433800Y-39320574D01*
X188434893Y-39320737D01*
X188440366Y-39319927D01*
X188445879Y-39319385D01*
X188446900Y-39318962D01*
X188449437Y-39318587D01*
X188639913Y-39270968D01*
X188640992Y-39270582D01*
X188641532Y-39270544D01*
X188647613Y-39268216D01*
X188653759Y-39266021D01*
X188654194Y-39265698D01*
X188655264Y-39265289D01*
X188750502Y-39217670D01*
X188756798Y-39213706D01*
X188758628Y-39212949D01*
X188760686Y-39211259D01*
X188762945Y-39209838D01*
X188764244Y-39208339D01*
X188769994Y-39203621D01*
X188865233Y-39108383D01*
X188874561Y-39097018D01*
X188875592Y-39094527D01*
X188877357Y-39092493D01*
X188883351Y-39079067D01*
X188930970Y-38936211D01*
X188932619Y-38928955D01*
X188933378Y-38927125D01*
X188933639Y-38924471D01*
X188934230Y-38921874D01*
X188934089Y-38919899D01*
X188934819Y-38912493D01*
X188934819Y-38674398D01*
X188933378Y-38659766D01*
X188922179Y-38632730D01*
X188901487Y-38612038D01*
X188874451Y-38600839D01*
X188859819Y-38599398D01*
X187859819Y-38599398D01*
X187845187Y-38600839D01*
X187818151Y-38612038D01*
X187797459Y-38632730D01*
X187786260Y-38659766D01*
X187784819Y-38674398D01*
X187673708Y-38674398D01*
X187673708Y-37632018D01*
X187785002Y-37632018D01*
X187786260Y-37636630D01*
X187786260Y-37641411D01*
X187790077Y-37650626D01*
X187792702Y-37660250D01*
X187795629Y-37664030D01*
X187797459Y-37668447D01*
X187804509Y-37675497D01*
X187810619Y-37683387D01*
X187816751Y-37687739D01*
X187818151Y-37689139D01*
X187819525Y-37689708D01*
X187822609Y-37691897D01*
X188577402Y-38123207D01*
X187859819Y-38123207D01*
X187845187Y-38124648D01*
X187818151Y-38135847D01*
X187797459Y-38156539D01*
X187786260Y-38183575D01*
X187786260Y-38212839D01*
X187797459Y-38239875D01*
X187818151Y-38260567D01*
X187845187Y-38271766D01*
X187859819Y-38273207D01*
X188859819Y-38273207D01*
X188863582Y-38272836D01*
X188865058Y-38273024D01*
X188866968Y-38272502D01*
X188874451Y-38271766D01*
X188883666Y-38267948D01*
X188893290Y-38265324D01*
X188897070Y-38262396D01*
X188901487Y-38260567D01*
X188908537Y-38253516D01*
X188916427Y-38247407D01*
X188918800Y-38243253D01*
X188922179Y-38239875D01*
X188925995Y-38230662D01*
X188930946Y-38221998D01*
X188931548Y-38217254D01*
X188933378Y-38212839D01*
X188933378Y-38202864D01*
X188934636Y-38192968D01*
X188933378Y-38188355D01*
X188933378Y-38183575D01*
X188929560Y-38174358D01*
X188926936Y-38164737D01*
X188924009Y-38160957D01*
X188922179Y-38156539D01*
X188915127Y-38149487D01*
X188909019Y-38141599D01*
X188902884Y-38137244D01*
X188901487Y-38135847D01*
X188900114Y-38135278D01*
X188897030Y-38133089D01*
X188142236Y-37701779D01*
X188859819Y-37701779D01*
X188874451Y-37700338D01*
X188901487Y-37689139D01*
X188922179Y-37668447D01*
X188933378Y-37641411D01*
X188933378Y-37612147D01*
X188922179Y-37585111D01*
X188901487Y-37564419D01*
X188874451Y-37553220D01*
X188859819Y-37551779D01*
X187859819Y-37551779D01*
X187856055Y-37552149D01*
X187854580Y-37551962D01*
X187852669Y-37552483D01*
X187845187Y-37553220D01*
X187835971Y-37557037D01*
X187826348Y-37559662D01*
X187822567Y-37562589D01*
X187818151Y-37564419D01*
X187811100Y-37571469D01*
X187803211Y-37577579D01*
X187800837Y-37581732D01*
X187797459Y-37585111D01*
X187793642Y-37594323D01*
X187788692Y-37602988D01*
X187788089Y-37607731D01*
X187786260Y-37612147D01*
X187786260Y-37622121D01*
X187785002Y-37632018D01*
X187673708Y-37632018D01*
X187673708Y-36912493D01*
X187784819Y-36912493D01*
X187784819Y-37055350D01*
X187786260Y-37069982D01*
X187787291Y-37072471D01*
X187787482Y-37075159D01*
X187792737Y-37088891D01*
X187840356Y-37184129D01*
X187848188Y-37196572D01*
X187870296Y-37215745D01*
X187898057Y-37224999D01*
X187927247Y-37222925D01*
X187953422Y-37209837D01*
X187972595Y-37187730D01*
X187981849Y-37159968D01*
X187979775Y-37130778D01*
X187974520Y-37117047D01*
X187934819Y-37037645D01*
X187934819Y-36924663D01*
X187972990Y-36810149D01*
X188047103Y-36736037D01*
X188124090Y-36697543D01*
X188297624Y-36654160D01*
X188422013Y-36654160D01*
X188595547Y-36697543D01*
X188672534Y-36736037D01*
X188746648Y-36810150D01*
X188784819Y-36924663D01*
X188784819Y-36995561D01*
X188746648Y-37110073D01*
X188733514Y-37123207D01*
X188506247Y-37123207D01*
X188506247Y-37007731D01*
X188504806Y-36993099D01*
X188493607Y-36966063D01*
X188472915Y-36945371D01*
X188445879Y-36934172D01*
X188416615Y-36934172D01*
X188389579Y-36945371D01*
X188368887Y-36966063D01*
X188357688Y-36993099D01*
X188356247Y-37007731D01*
X188356247Y-37198207D01*
X188357688Y-37212838D01*
X188357688Y-37212839D01*
X188368887Y-37239875D01*
X188389579Y-37260567D01*
X188416615Y-37271766D01*
X188431247Y-37273207D01*
X188764580Y-37273207D01*
X188779212Y-37271766D01*
X188790410Y-37267127D01*
X188806247Y-37260568D01*
X188817612Y-37251241D01*
X188865232Y-37203622D01*
X188874560Y-37192256D01*
X188875590Y-37189767D01*
X188877357Y-37187731D01*
X188883351Y-37174305D01*
X188930970Y-37031449D01*
X188932619Y-37024193D01*
X188933378Y-37022363D01*
X188933639Y-37019709D01*
X188934230Y-37017112D01*
X188934089Y-37015137D01*
X188934819Y-37007731D01*
X188934819Y-36912493D01*
X188934089Y-36905086D01*
X188934230Y-36903112D01*
X188933639Y-36900514D01*
X188933378Y-36897861D01*
X188932619Y-36896030D01*
X188930970Y-36888775D01*
X188883351Y-36745919D01*
X188877357Y-36732493D01*
X188875592Y-36730458D01*
X188874561Y-36727968D01*
X188865233Y-36716603D01*
X188769994Y-36621365D01*
X188764244Y-36616646D01*
X188762945Y-36615148D01*
X188760686Y-36613726D01*
X188758628Y-36612037D01*
X188756798Y-36611279D01*
X188750502Y-36607316D01*
X188655264Y-36559697D01*
X188654194Y-36559287D01*
X188653759Y-36558965D01*
X188647613Y-36556769D01*
X188641532Y-36554442D01*
X188640992Y-36554403D01*
X188639913Y-36554018D01*
X188449437Y-36506399D01*
X188446900Y-36506023D01*
X188445879Y-36505601D01*
X188440366Y-36505058D01*
X188434893Y-36504249D01*
X188433800Y-36504411D01*
X188431247Y-36504160D01*
X188288390Y-36504160D01*
X188285836Y-36504411D01*
X188284744Y-36504249D01*
X188279270Y-36505058D01*
X188273758Y-36505601D01*
X188272736Y-36506023D01*
X188270200Y-36506399D01*
X188079724Y-36554018D01*
X188078644Y-36554403D01*
X188078104Y-36554442D01*
X188072014Y-36556772D01*
X188065878Y-36558965D01*
X188065442Y-36559287D01*
X188064373Y-36559697D01*
X187969135Y-36607316D01*
X187962840Y-36611278D01*
X187961008Y-36612037D01*
X187958946Y-36613728D01*
X187956692Y-36615148D01*
X187955393Y-36616644D01*
X187949643Y-36621365D01*
X187854405Y-36716603D01*
X187845078Y-36727968D01*
X187844046Y-36730458D01*
X187842281Y-36732494D01*
X187836287Y-36745919D01*
X187788668Y-36888776D01*
X187787018Y-36896029D01*
X187786260Y-36897861D01*
X187785998Y-36900515D01*
X187785408Y-36903113D01*
X187785548Y-36905087D01*
X187784819Y-36912493D01*
X187673708Y-36912493D01*
X187673708Y-36393049D01*
X189045930Y-36393049D01*
X189045930Y-39431937D01*
G37*
X89972744Y-118849931D02*
X89782268Y-118849931D01*
X89782268Y-118849931D02*
X89687030Y-118897550D01*
X89687030Y-118897550D02*
X89591792Y-118992788D01*
X89591792Y-118992788D02*
X89544173Y-119183264D01*
X89544173Y-119183264D02*
X89544173Y-119516597D01*
X89544173Y-119516597D02*
X89591792Y-119707073D01*
X89591792Y-119707073D02*
X89687030Y-119802312D01*
X89687030Y-119802312D02*
X89782268Y-119849931D01*
X89782268Y-119849931D02*
X89972744Y-119849931D01*
X89972744Y-119849931D02*
X90067982Y-119802312D01*
X90067982Y-119802312D02*
X90163220Y-119707073D01*
X90163220Y-119707073D02*
X90210839Y-119516597D01*
X90210839Y-119516597D02*
X90210839Y-119183264D01*
X90210839Y-119183264D02*
X90163220Y-118992788D01*
X90163220Y-118992788D02*
X90067982Y-118897550D01*
X90067982Y-118897550D02*
X89972744Y-118849931D01*
X89115601Y-119183264D02*
X89115601Y-120183264D01*
X89115601Y-119230883D02*
X89020363Y-119183264D01*
X89020363Y-119183264D02*
X88829887Y-119183264D01*
X88829887Y-119183264D02*
X88734649Y-119230883D01*
X88734649Y-119230883D02*
X88687030Y-119278502D01*
X88687030Y-119278502D02*
X88639411Y-119373740D01*
X88639411Y-119373740D02*
X88639411Y-119659454D01*
X88639411Y-119659454D02*
X88687030Y-119754692D01*
X88687030Y-119754692D02*
X88734649Y-119802312D01*
X88734649Y-119802312D02*
X88829887Y-119849931D01*
X88829887Y-119849931D02*
X89020363Y-119849931D01*
X89020363Y-119849931D02*
X89115601Y-119802312D01*
X87829887Y-119802312D02*
X87925125Y-119849931D01*
X87925125Y-119849931D02*
X88115601Y-119849931D01*
X88115601Y-119849931D02*
X88210839Y-119802312D01*
X88210839Y-119802312D02*
X88258458Y-119707073D01*
X88258458Y-119707073D02*
X88258458Y-119326121D01*
X88258458Y-119326121D02*
X88210839Y-119230883D01*
X88210839Y-119230883D02*
X88115601Y-119183264D01*
X88115601Y-119183264D02*
X87925125Y-119183264D01*
X87925125Y-119183264D02*
X87829887Y-119230883D01*
X87829887Y-119230883D02*
X87782268Y-119326121D01*
X87782268Y-119326121D02*
X87782268Y-119421359D01*
X87782268Y-119421359D02*
X88258458Y-119516597D01*
X87353696Y-119183264D02*
X87353696Y-119849931D01*
X87353696Y-119278502D02*
X87306077Y-119230883D01*
X87306077Y-119230883D02*
X87210839Y-119183264D01*
X87210839Y-119183264D02*
X87067982Y-119183264D01*
X87067982Y-119183264D02*
X86972744Y-119230883D01*
X86972744Y-119230883D02*
X86925125Y-119326121D01*
X86925125Y-119326121D02*
X86925125Y-119849931D01*
X85687029Y-119849931D02*
X85687029Y-118849931D01*
X85687029Y-118849931D02*
X85306077Y-118849931D01*
X85306077Y-118849931D02*
X85210839Y-118897550D01*
X85210839Y-118897550D02*
X85163220Y-118945169D01*
X85163220Y-118945169D02*
X85115601Y-119040407D01*
X85115601Y-119040407D02*
X85115601Y-119183264D01*
X85115601Y-119183264D02*
X85163220Y-119278502D01*
X85163220Y-119278502D02*
X85210839Y-119326121D01*
X85210839Y-119326121D02*
X85306077Y-119373740D01*
X85306077Y-119373740D02*
X85687029Y-119373740D01*
X84306077Y-119802312D02*
X84401315Y-119849931D01*
X84401315Y-119849931D02*
X84591791Y-119849931D01*
X84591791Y-119849931D02*
X84687029Y-119802312D01*
X84687029Y-119802312D02*
X84734648Y-119707073D01*
X84734648Y-119707073D02*
X84734648Y-119326121D01*
X84734648Y-119326121D02*
X84687029Y-119230883D01*
X84687029Y-119230883D02*
X84591791Y-119183264D01*
X84591791Y-119183264D02*
X84401315Y-119183264D01*
X84401315Y-119183264D02*
X84306077Y-119230883D01*
X84306077Y-119230883D02*
X84258458Y-119326121D01*
X84258458Y-119326121D02*
X84258458Y-119421359D01*
X84258458Y-119421359D02*
X84734648Y-119516597D01*
X83401315Y-119849931D02*
X83401315Y-118849931D01*
X83401315Y-119802312D02*
X83496553Y-119849931D01*
X83496553Y-119849931D02*
X83687029Y-119849931D01*
X83687029Y-119849931D02*
X83782267Y-119802312D01*
X83782267Y-119802312D02*
X83829886Y-119754692D01*
X83829886Y-119754692D02*
X83877505Y-119659454D01*
X83877505Y-119659454D02*
X83877505Y-119373740D01*
X83877505Y-119373740D02*
X83829886Y-119278502D01*
X83829886Y-119278502D02*
X83782267Y-119230883D01*
X83782267Y-119230883D02*
X83687029Y-119183264D01*
X83687029Y-119183264D02*
X83496553Y-119183264D01*
X83496553Y-119183264D02*
X83401315Y-119230883D01*
X82496553Y-119849931D02*
X82496553Y-119326121D01*
X82496553Y-119326121D02*
X82544172Y-119230883D01*
X82544172Y-119230883D02*
X82639410Y-119183264D01*
X82639410Y-119183264D02*
X82829886Y-119183264D01*
X82829886Y-119183264D02*
X82925124Y-119230883D01*
X82496553Y-119802312D02*
X82591791Y-119849931D01*
X82591791Y-119849931D02*
X82829886Y-119849931D01*
X82829886Y-119849931D02*
X82925124Y-119802312D01*
X82925124Y-119802312D02*
X82972743Y-119707073D01*
X82972743Y-119707073D02*
X82972743Y-119611835D01*
X82972743Y-119611835D02*
X82925124Y-119516597D01*
X82925124Y-119516597D02*
X82829886Y-119468978D01*
X82829886Y-119468978D02*
X82591791Y-119468978D01*
X82591791Y-119468978D02*
X82496553Y-119421359D01*
X81877505Y-119849931D02*
X81972743Y-119802312D01*
X81972743Y-119802312D02*
X82020362Y-119707073D01*
X82020362Y-119707073D02*
X82020362Y-118849931D01*
X81496552Y-119849931D02*
X81496552Y-118849931D01*
X81496552Y-119230883D02*
X81401314Y-119183264D01*
X81401314Y-119183264D02*
X81210838Y-119183264D01*
X81210838Y-119183264D02*
X81115600Y-119230883D01*
X81115600Y-119230883D02*
X81067981Y-119278502D01*
X81067981Y-119278502D02*
X81020362Y-119373740D01*
X81020362Y-119373740D02*
X81020362Y-119659454D01*
X81020362Y-119659454D02*
X81067981Y-119754692D01*
X81067981Y-119754692D02*
X81115600Y-119802312D01*
X81115600Y-119802312D02*
X81210838Y-119849931D01*
X81210838Y-119849931D02*
X81401314Y-119849931D01*
X81401314Y-119849931D02*
X81496552Y-119802312D01*
X80448933Y-119849931D02*
X80544171Y-119802312D01*
X80544171Y-119802312D02*
X80591790Y-119754692D01*
X80591790Y-119754692D02*
X80639409Y-119659454D01*
X80639409Y-119659454D02*
X80639409Y-119373740D01*
X80639409Y-119373740D02*
X80591790Y-119278502D01*
X80591790Y-119278502D02*
X80544171Y-119230883D01*
X80544171Y-119230883D02*
X80448933Y-119183264D01*
X80448933Y-119183264D02*
X80306076Y-119183264D01*
X80306076Y-119183264D02*
X80210838Y-119230883D01*
X80210838Y-119230883D02*
X80163219Y-119278502D01*
X80163219Y-119278502D02*
X80115600Y-119373740D01*
X80115600Y-119373740D02*
X80115600Y-119659454D01*
X80115600Y-119659454D02*
X80163219Y-119754692D01*
X80163219Y-119754692D02*
X80210838Y-119802312D01*
X80210838Y-119802312D02*
X80306076Y-119849931D01*
X80306076Y-119849931D02*
X80448933Y-119849931D01*
X79258457Y-119849931D02*
X79258457Y-119326121D01*
X79258457Y-119326121D02*
X79306076Y-119230883D01*
X79306076Y-119230883D02*
X79401314Y-119183264D01*
X79401314Y-119183264D02*
X79591790Y-119183264D01*
X79591790Y-119183264D02*
X79687028Y-119230883D01*
X79258457Y-119802312D02*
X79353695Y-119849931D01*
X79353695Y-119849931D02*
X79591790Y-119849931D01*
X79591790Y-119849931D02*
X79687028Y-119802312D01*
X79687028Y-119802312D02*
X79734647Y-119707073D01*
X79734647Y-119707073D02*
X79734647Y-119611835D01*
X79734647Y-119611835D02*
X79687028Y-119516597D01*
X79687028Y-119516597D02*
X79591790Y-119468978D01*
X79591790Y-119468978D02*
X79353695Y-119468978D01*
X79353695Y-119468978D02*
X79258457Y-119421359D01*
X78782266Y-119849931D02*
X78782266Y-119183264D01*
X78782266Y-119373740D02*
X78734647Y-119278502D01*
X78734647Y-119278502D02*
X78687028Y-119230883D01*
X78687028Y-119230883D02*
X78591790Y-119183264D01*
X78591790Y-119183264D02*
X78496552Y-119183264D01*
X77734647Y-119849931D02*
X77734647Y-118849931D01*
X77734647Y-119802312D02*
X77829885Y-119849931D01*
X77829885Y-119849931D02*
X78020361Y-119849931D01*
X78020361Y-119849931D02*
X78115599Y-119802312D01*
X78115599Y-119802312D02*
X78163218Y-119754692D01*
X78163218Y-119754692D02*
X78210837Y-119659454D01*
X78210837Y-119659454D02*
X78210837Y-119373740D01*
X78210837Y-119373740D02*
X78163218Y-119278502D01*
X78163218Y-119278502D02*
X78115599Y-119230883D01*
X78115599Y-119230883D02*
X78020361Y-119183264D01*
X78020361Y-119183264D02*
X77829885Y-119183264D01*
X77829885Y-119183264D02*
X77734647Y-119230883D01*
X76496551Y-119849931D02*
X76496551Y-118849931D01*
X76496551Y-118849931D02*
X76163218Y-119564216D01*
X76163218Y-119564216D02*
X75829885Y-118849931D01*
X75829885Y-118849931D02*
X75829885Y-119849931D01*
X74925123Y-119849931D02*
X74925123Y-119326121D01*
X74925123Y-119326121D02*
X74972742Y-119230883D01*
X74972742Y-119230883D02*
X75067980Y-119183264D01*
X75067980Y-119183264D02*
X75258456Y-119183264D01*
X75258456Y-119183264D02*
X75353694Y-119230883D01*
X74925123Y-119802312D02*
X75020361Y-119849931D01*
X75020361Y-119849931D02*
X75258456Y-119849931D01*
X75258456Y-119849931D02*
X75353694Y-119802312D01*
X75353694Y-119802312D02*
X75401313Y-119707073D01*
X75401313Y-119707073D02*
X75401313Y-119611835D01*
X75401313Y-119611835D02*
X75353694Y-119516597D01*
X75353694Y-119516597D02*
X75258456Y-119468978D01*
X75258456Y-119468978D02*
X75020361Y-119468978D01*
X75020361Y-119468978D02*
X74925123Y-119421359D01*
X74448932Y-119849931D02*
X74448932Y-119183264D01*
X74448932Y-118849931D02*
X74496551Y-118897550D01*
X74496551Y-118897550D02*
X74448932Y-118945169D01*
X74448932Y-118945169D02*
X74401313Y-118897550D01*
X74401313Y-118897550D02*
X74448932Y-118849931D01*
X74448932Y-118849931D02*
X74448932Y-118945169D01*
X73972742Y-119183264D02*
X73972742Y-119849931D01*
X73972742Y-119278502D02*
X73925123Y-119230883D01*
X73925123Y-119230883D02*
X73829885Y-119183264D01*
X73829885Y-119183264D02*
X73687028Y-119183264D01*
X73687028Y-119183264D02*
X73591790Y-119230883D01*
X73591790Y-119230883D02*
X73544171Y-119326121D01*
X73544171Y-119326121D02*
X73544171Y-119849931D01*
X73067980Y-119849931D02*
X73067980Y-118849931D01*
X73067980Y-119230883D02*
X72972742Y-119183264D01*
X72972742Y-119183264D02*
X72782266Y-119183264D01*
X72782266Y-119183264D02*
X72687028Y-119230883D01*
X72687028Y-119230883D02*
X72639409Y-119278502D01*
X72639409Y-119278502D02*
X72591790Y-119373740D01*
X72591790Y-119373740D02*
X72591790Y-119659454D01*
X72591790Y-119659454D02*
X72639409Y-119754692D01*
X72639409Y-119754692D02*
X72687028Y-119802312D01*
X72687028Y-119802312D02*
X72782266Y-119849931D01*
X72782266Y-119849931D02*
X72972742Y-119849931D01*
X72972742Y-119849931D02*
X73067980Y-119802312D01*
X72020361Y-119849931D02*
X72115599Y-119802312D01*
X72115599Y-119802312D02*
X72163218Y-119754692D01*
X72163218Y-119754692D02*
X72210837Y-119659454D01*
X72210837Y-119659454D02*
X72210837Y-119373740D01*
X72210837Y-119373740D02*
X72163218Y-119278502D01*
X72163218Y-119278502D02*
X72115599Y-119230883D01*
X72115599Y-119230883D02*
X72020361Y-119183264D01*
X72020361Y-119183264D02*
X71877504Y-119183264D01*
X71877504Y-119183264D02*
X71782266Y-119230883D01*
X71782266Y-119230883D02*
X71734647Y-119278502D01*
X71734647Y-119278502D02*
X71687028Y-119373740D01*
X71687028Y-119373740D02*
X71687028Y-119659454D01*
X71687028Y-119659454D02*
X71734647Y-119754692D01*
X71734647Y-119754692D02*
X71782266Y-119802312D01*
X71782266Y-119802312D02*
X71877504Y-119849931D01*
X71877504Y-119849931D02*
X72020361Y-119849931D01*
X70829885Y-119849931D02*
X70829885Y-119326121D01*
X70829885Y-119326121D02*
X70877504Y-119230883D01*
X70877504Y-119230883D02*
X70972742Y-119183264D01*
X70972742Y-119183264D02*
X71163218Y-119183264D01*
X71163218Y-119183264D02*
X71258456Y-119230883D01*
X70829885Y-119802312D02*
X70925123Y-119849931D01*
X70925123Y-119849931D02*
X71163218Y-119849931D01*
X71163218Y-119849931D02*
X71258456Y-119802312D01*
X71258456Y-119802312D02*
X71306075Y-119707073D01*
X71306075Y-119707073D02*
X71306075Y-119611835D01*
X71306075Y-119611835D02*
X71258456Y-119516597D01*
X71258456Y-119516597D02*
X71163218Y-119468978D01*
X71163218Y-119468978D02*
X70925123Y-119468978D01*
X70925123Y-119468978D02*
X70829885Y-119421359D01*
X70353694Y-119849931D02*
X70353694Y-119183264D01*
X70353694Y-119373740D02*
X70306075Y-119278502D01*
X70306075Y-119278502D02*
X70258456Y-119230883D01*
X70258456Y-119230883D02*
X70163218Y-119183264D01*
X70163218Y-119183264D02*
X70067980Y-119183264D01*
X69306075Y-119849931D02*
X69306075Y-118849931D01*
X69306075Y-119802312D02*
X69401313Y-119849931D01*
X69401313Y-119849931D02*
X69591789Y-119849931D01*
X69591789Y-119849931D02*
X69687027Y-119802312D01*
X69687027Y-119802312D02*
X69734646Y-119754692D01*
X69734646Y-119754692D02*
X69782265Y-119659454D01*
X69782265Y-119659454D02*
X69782265Y-119373740D01*
X69782265Y-119373740D02*
X69734646Y-119278502D01*
X69734646Y-119278502D02*
X69687027Y-119230883D01*
X69687027Y-119230883D02*
X69591789Y-119183264D01*
X69591789Y-119183264D02*
X69401313Y-119183264D01*
X69401313Y-119183264D02*
X69306075Y-119230883D01*
X90163220Y-121459875D02*
X90163220Y-120459875D01*
X89734649Y-121459875D02*
X89734649Y-120936065D01*
X89734649Y-120936065D02*
X89782268Y-120840827D01*
X89782268Y-120840827D02*
X89877506Y-120793208D01*
X89877506Y-120793208D02*
X90020363Y-120793208D01*
X90020363Y-120793208D02*
X90115601Y-120840827D01*
X90115601Y-120840827D02*
X90163220Y-120888446D01*
X89401315Y-120793208D02*
X89020363Y-120793208D01*
X89258458Y-120459875D02*
X89258458Y-121317017D01*
X89258458Y-121317017D02*
X89210839Y-121412256D01*
X89210839Y-121412256D02*
X89115601Y-121459875D01*
X89115601Y-121459875D02*
X89020363Y-121459875D01*
X88829886Y-120793208D02*
X88448934Y-120793208D01*
X88687029Y-120459875D02*
X88687029Y-121317017D01*
X88687029Y-121317017D02*
X88639410Y-121412256D01*
X88639410Y-121412256D02*
X88544172Y-121459875D01*
X88544172Y-121459875D02*
X88448934Y-121459875D01*
X88115600Y-120793208D02*
X88115600Y-121793208D01*
X88115600Y-120840827D02*
X88020362Y-120793208D01*
X88020362Y-120793208D02*
X87829886Y-120793208D01*
X87829886Y-120793208D02*
X87734648Y-120840827D01*
X87734648Y-120840827D02*
X87687029Y-120888446D01*
X87687029Y-120888446D02*
X87639410Y-120983684D01*
X87639410Y-120983684D02*
X87639410Y-121269398D01*
X87639410Y-121269398D02*
X87687029Y-121364636D01*
X87687029Y-121364636D02*
X87734648Y-121412256D01*
X87734648Y-121412256D02*
X87829886Y-121459875D01*
X87829886Y-121459875D02*
X88020362Y-121459875D01*
X88020362Y-121459875D02*
X88115600Y-121412256D01*
X87258457Y-121412256D02*
X87163219Y-121459875D01*
X87163219Y-121459875D02*
X86972743Y-121459875D01*
X86972743Y-121459875D02*
X86877505Y-121412256D01*
X86877505Y-121412256D02*
X86829886Y-121317017D01*
X86829886Y-121317017D02*
X86829886Y-121269398D01*
X86829886Y-121269398D02*
X86877505Y-121174160D01*
X86877505Y-121174160D02*
X86972743Y-121126541D01*
X86972743Y-121126541D02*
X87115600Y-121126541D01*
X87115600Y-121126541D02*
X87210838Y-121078922D01*
X87210838Y-121078922D02*
X87258457Y-120983684D01*
X87258457Y-120983684D02*
X87258457Y-120936065D01*
X87258457Y-120936065D02*
X87210838Y-120840827D01*
X87210838Y-120840827D02*
X87115600Y-120793208D01*
X87115600Y-120793208D02*
X86972743Y-120793208D01*
X86972743Y-120793208D02*
X86877505Y-120840827D01*
X86401314Y-121364636D02*
X86353695Y-121412256D01*
X86353695Y-121412256D02*
X86401314Y-121459875D01*
X86401314Y-121459875D02*
X86448933Y-121412256D01*
X86448933Y-121412256D02*
X86401314Y-121364636D01*
X86401314Y-121364636D02*
X86401314Y-121459875D01*
X86401314Y-120840827D02*
X86353695Y-120888446D01*
X86353695Y-120888446D02*
X86401314Y-120936065D01*
X86401314Y-120936065D02*
X86448933Y-120888446D01*
X86448933Y-120888446D02*
X86401314Y-120840827D01*
X86401314Y-120840827D02*
X86401314Y-120936065D01*
X85210839Y-120412256D02*
X86067981Y-121697970D01*
X84163220Y-120412256D02*
X85020362Y-121697970D01*
X83401315Y-120793208D02*
X83401315Y-121602732D01*
X83401315Y-121602732D02*
X83448934Y-121697970D01*
X83448934Y-121697970D02*
X83496553Y-121745589D01*
X83496553Y-121745589D02*
X83591791Y-121793208D01*
X83591791Y-121793208D02*
X83734648Y-121793208D01*
X83734648Y-121793208D02*
X83829886Y-121745589D01*
X83401315Y-121412256D02*
X83496553Y-121459875D01*
X83496553Y-121459875D02*
X83687029Y-121459875D01*
X83687029Y-121459875D02*
X83782267Y-121412256D01*
X83782267Y-121412256D02*
X83829886Y-121364636D01*
X83829886Y-121364636D02*
X83877505Y-121269398D01*
X83877505Y-121269398D02*
X83877505Y-120983684D01*
X83877505Y-120983684D02*
X83829886Y-120888446D01*
X83829886Y-120888446D02*
X83782267Y-120840827D01*
X83782267Y-120840827D02*
X83687029Y-120793208D01*
X83687029Y-120793208D02*
X83496553Y-120793208D01*
X83496553Y-120793208D02*
X83401315Y-120840827D01*
X82925124Y-121459875D02*
X82925124Y-120793208D01*
X82925124Y-120459875D02*
X82972743Y-120507494D01*
X82972743Y-120507494D02*
X82925124Y-120555113D01*
X82925124Y-120555113D02*
X82877505Y-120507494D01*
X82877505Y-120507494D02*
X82925124Y-120459875D01*
X82925124Y-120459875D02*
X82925124Y-120555113D01*
X82591791Y-120793208D02*
X82210839Y-120793208D01*
X82448934Y-120459875D02*
X82448934Y-121317017D01*
X82448934Y-121317017D02*
X82401315Y-121412256D01*
X82401315Y-121412256D02*
X82306077Y-121459875D01*
X82306077Y-121459875D02*
X82210839Y-121459875D01*
X81877505Y-121459875D02*
X81877505Y-120459875D01*
X81448934Y-121459875D02*
X81448934Y-120936065D01*
X81448934Y-120936065D02*
X81496553Y-120840827D01*
X81496553Y-120840827D02*
X81591791Y-120793208D01*
X81591791Y-120793208D02*
X81734648Y-120793208D01*
X81734648Y-120793208D02*
X81829886Y-120840827D01*
X81829886Y-120840827D02*
X81877505Y-120888446D01*
X80544172Y-120793208D02*
X80544172Y-121459875D01*
X80972743Y-120793208D02*
X80972743Y-121317017D01*
X80972743Y-121317017D02*
X80925124Y-121412256D01*
X80925124Y-121412256D02*
X80829886Y-121459875D01*
X80829886Y-121459875D02*
X80687029Y-121459875D01*
X80687029Y-121459875D02*
X80591791Y-121412256D01*
X80591791Y-121412256D02*
X80544172Y-121364636D01*
X80067981Y-121459875D02*
X80067981Y-120459875D01*
X80067981Y-120840827D02*
X79972743Y-120793208D01*
X79972743Y-120793208D02*
X79782267Y-120793208D01*
X79782267Y-120793208D02*
X79687029Y-120840827D01*
X79687029Y-120840827D02*
X79639410Y-120888446D01*
X79639410Y-120888446D02*
X79591791Y-120983684D01*
X79591791Y-120983684D02*
X79591791Y-121269398D01*
X79591791Y-121269398D02*
X79639410Y-121364636D01*
X79639410Y-121364636D02*
X79687029Y-121412256D01*
X79687029Y-121412256D02*
X79782267Y-121459875D01*
X79782267Y-121459875D02*
X79972743Y-121459875D01*
X79972743Y-121459875D02*
X80067981Y-121412256D01*
X79163219Y-121364636D02*
X79115600Y-121412256D01*
X79115600Y-121412256D02*
X79163219Y-121459875D01*
X79163219Y-121459875D02*
X79210838Y-121412256D01*
X79210838Y-121412256D02*
X79163219Y-121364636D01*
X79163219Y-121364636D02*
X79163219Y-121459875D01*
X78258458Y-121412256D02*
X78353696Y-121459875D01*
X78353696Y-121459875D02*
X78544172Y-121459875D01*
X78544172Y-121459875D02*
X78639410Y-121412256D01*
X78639410Y-121412256D02*
X78687029Y-121364636D01*
X78687029Y-121364636D02*
X78734648Y-121269398D01*
X78734648Y-121269398D02*
X78734648Y-120983684D01*
X78734648Y-120983684D02*
X78687029Y-120888446D01*
X78687029Y-120888446D02*
X78639410Y-120840827D01*
X78639410Y-120840827D02*
X78544172Y-120793208D01*
X78544172Y-120793208D02*
X78353696Y-120793208D01*
X78353696Y-120793208D02*
X78258458Y-120840827D01*
X77687029Y-121459875D02*
X77782267Y-121412256D01*
X77782267Y-121412256D02*
X77829886Y-121364636D01*
X77829886Y-121364636D02*
X77877505Y-121269398D01*
X77877505Y-121269398D02*
X77877505Y-120983684D01*
X77877505Y-120983684D02*
X77829886Y-120888446D01*
X77829886Y-120888446D02*
X77782267Y-120840827D01*
X77782267Y-120840827D02*
X77687029Y-120793208D01*
X77687029Y-120793208D02*
X77544172Y-120793208D01*
X77544172Y-120793208D02*
X77448934Y-120840827D01*
X77448934Y-120840827D02*
X77401315Y-120888446D01*
X77401315Y-120888446D02*
X77353696Y-120983684D01*
X77353696Y-120983684D02*
X77353696Y-121269398D01*
X77353696Y-121269398D02*
X77401315Y-121364636D01*
X77401315Y-121364636D02*
X77448934Y-121412256D01*
X77448934Y-121412256D02*
X77544172Y-121459875D01*
X77544172Y-121459875D02*
X77687029Y-121459875D01*
X76925124Y-121459875D02*
X76925124Y-120793208D01*
X76925124Y-120888446D02*
X76877505Y-120840827D01*
X76877505Y-120840827D02*
X76782267Y-120793208D01*
X76782267Y-120793208D02*
X76639410Y-120793208D01*
X76639410Y-120793208D02*
X76544172Y-120840827D01*
X76544172Y-120840827D02*
X76496553Y-120936065D01*
X76496553Y-120936065D02*
X76496553Y-121459875D01*
X76496553Y-120936065D02*
X76448934Y-120840827D01*
X76448934Y-120840827D02*
X76353696Y-120793208D01*
X76353696Y-120793208D02*
X76210839Y-120793208D01*
X76210839Y-120793208D02*
X76115600Y-120840827D01*
X76115600Y-120840827D02*
X76067981Y-120936065D01*
X76067981Y-120936065D02*
X76067981Y-121459875D01*
X74877506Y-120412256D02*
X75734648Y-121697970D01*
X74544172Y-120793208D02*
X74544172Y-121793208D01*
X74544172Y-120840827D02*
X74448934Y-120793208D01*
X74448934Y-120793208D02*
X74258458Y-120793208D01*
X74258458Y-120793208D02*
X74163220Y-120840827D01*
X74163220Y-120840827D02*
X74115601Y-120888446D01*
X74115601Y-120888446D02*
X74067982Y-120983684D01*
X74067982Y-120983684D02*
X74067982Y-121269398D01*
X74067982Y-121269398D02*
X74115601Y-121364636D01*
X74115601Y-121364636D02*
X74163220Y-121412256D01*
X74163220Y-121412256D02*
X74258458Y-121459875D01*
X74258458Y-121459875D02*
X74448934Y-121459875D01*
X74448934Y-121459875D02*
X74544172Y-121412256D01*
X73258458Y-121412256D02*
X73353696Y-121459875D01*
X73353696Y-121459875D02*
X73544172Y-121459875D01*
X73544172Y-121459875D02*
X73639410Y-121412256D01*
X73639410Y-121412256D02*
X73687029Y-121317017D01*
X73687029Y-121317017D02*
X73687029Y-120936065D01*
X73687029Y-120936065D02*
X73639410Y-120840827D01*
X73639410Y-120840827D02*
X73544172Y-120793208D01*
X73544172Y-120793208D02*
X73353696Y-120793208D01*
X73353696Y-120793208D02*
X73258458Y-120840827D01*
X73258458Y-120840827D02*
X73210839Y-120936065D01*
X73210839Y-120936065D02*
X73210839Y-121031303D01*
X73210839Y-121031303D02*
X73687029Y-121126541D01*
X72353696Y-121459875D02*
X72353696Y-120459875D01*
X72353696Y-121412256D02*
X72448934Y-121459875D01*
X72448934Y-121459875D02*
X72639410Y-121459875D01*
X72639410Y-121459875D02*
X72734648Y-121412256D01*
X72734648Y-121412256D02*
X72782267Y-121364636D01*
X72782267Y-121364636D02*
X72829886Y-121269398D01*
X72829886Y-121269398D02*
X72829886Y-120983684D01*
X72829886Y-120983684D02*
X72782267Y-120888446D01*
X72782267Y-120888446D02*
X72734648Y-120840827D01*
X72734648Y-120840827D02*
X72639410Y-120793208D01*
X72639410Y-120793208D02*
X72448934Y-120793208D01*
X72448934Y-120793208D02*
X72353696Y-120840827D01*
X71448934Y-121459875D02*
X71448934Y-120936065D01*
X71448934Y-120936065D02*
X71496553Y-120840827D01*
X71496553Y-120840827D02*
X71591791Y-120793208D01*
X71591791Y-120793208D02*
X71782267Y-120793208D01*
X71782267Y-120793208D02*
X71877505Y-120840827D01*
X71448934Y-121412256D02*
X71544172Y-121459875D01*
X71544172Y-121459875D02*
X71782267Y-121459875D01*
X71782267Y-121459875D02*
X71877505Y-121412256D01*
X71877505Y-121412256D02*
X71925124Y-121317017D01*
X71925124Y-121317017D02*
X71925124Y-121221779D01*
X71925124Y-121221779D02*
X71877505Y-121126541D01*
X71877505Y-121126541D02*
X71782267Y-121078922D01*
X71782267Y-121078922D02*
X71544172Y-121078922D01*
X71544172Y-121078922D02*
X71448934Y-121031303D01*
X70829886Y-121459875D02*
X70925124Y-121412256D01*
X70925124Y-121412256D02*
X70972743Y-121317017D01*
X70972743Y-121317017D02*
X70972743Y-120459875D01*
X70448933Y-121459875D02*
X70448933Y-120459875D01*
X70448933Y-120840827D02*
X70353695Y-120793208D01*
X70353695Y-120793208D02*
X70163219Y-120793208D01*
X70163219Y-120793208D02*
X70067981Y-120840827D01*
X70067981Y-120840827D02*
X70020362Y-120888446D01*
X70020362Y-120888446D02*
X69972743Y-120983684D01*
X69972743Y-120983684D02*
X69972743Y-121269398D01*
X69972743Y-121269398D02*
X70020362Y-121364636D01*
X70020362Y-121364636D02*
X70067981Y-121412256D01*
X70067981Y-121412256D02*
X70163219Y-121459875D01*
X70163219Y-121459875D02*
X70353695Y-121459875D01*
X70353695Y-121459875D02*
X70448933Y-121412256D01*
X69401314Y-121459875D02*
X69496552Y-121412256D01*
X69496552Y-121412256D02*
X69544171Y-121364636D01*
X69544171Y-121364636D02*
X69591790Y-121269398D01*
X69591790Y-121269398D02*
X69591790Y-120983684D01*
X69591790Y-120983684D02*
X69544171Y-120888446D01*
X69544171Y-120888446D02*
X69496552Y-120840827D01*
X69496552Y-120840827D02*
X69401314Y-120793208D01*
X69401314Y-120793208D02*
X69258457Y-120793208D01*
X69258457Y-120793208D02*
X69163219Y-120840827D01*
X69163219Y-120840827D02*
X69115600Y-120888446D01*
X69115600Y-120888446D02*
X69067981Y-120983684D01*
X69067981Y-120983684D02*
X69067981Y-121269398D01*
X69067981Y-121269398D02*
X69115600Y-121364636D01*
X69115600Y-121364636D02*
X69163219Y-121412256D01*
X69163219Y-121412256D02*
X69258457Y-121459875D01*
X69258457Y-121459875D02*
X69401314Y-121459875D01*
X68210838Y-121459875D02*
X68210838Y-120936065D01*
X68210838Y-120936065D02*
X68258457Y-120840827D01*
X68258457Y-120840827D02*
X68353695Y-120793208D01*
X68353695Y-120793208D02*
X68544171Y-120793208D01*
X68544171Y-120793208D02*
X68639409Y-120840827D01*
X68210838Y-121412256D02*
X68306076Y-121459875D01*
X68306076Y-121459875D02*
X68544171Y-121459875D01*
X68544171Y-121459875D02*
X68639409Y-121412256D01*
X68639409Y-121412256D02*
X68687028Y-121317017D01*
X68687028Y-121317017D02*
X68687028Y-121221779D01*
X68687028Y-121221779D02*
X68639409Y-121126541D01*
X68639409Y-121126541D02*
X68544171Y-121078922D01*
X68544171Y-121078922D02*
X68306076Y-121078922D01*
X68306076Y-121078922D02*
X68210838Y-121031303D01*
X67734647Y-121459875D02*
X67734647Y-120793208D01*
X67734647Y-120983684D02*
X67687028Y-120888446D01*
X67687028Y-120888446D02*
X67639409Y-120840827D01*
X67639409Y-120840827D02*
X67544171Y-120793208D01*
X67544171Y-120793208D02*
X67448933Y-120793208D01*
X66687028Y-121459875D02*
X66687028Y-120459875D01*
X66687028Y-121412256D02*
X66782266Y-121459875D01*
X66782266Y-121459875D02*
X66972742Y-121459875D01*
X66972742Y-121459875D02*
X67067980Y-121412256D01*
X67067980Y-121412256D02*
X67115599Y-121364636D01*
X67115599Y-121364636D02*
X67163218Y-121269398D01*
X67163218Y-121269398D02*
X67163218Y-120983684D01*
X67163218Y-120983684D02*
X67115599Y-120888446D01*
X67115599Y-120888446D02*
X67067980Y-120840827D01*
X67067980Y-120840827D02*
X66972742Y-120793208D01*
X66972742Y-120793208D02*
X66782266Y-120793208D01*
X66782266Y-120793208D02*
X66687028Y-120840827D01*
X90163220Y-123069819D02*
X90163220Y-122069819D01*
X90163220Y-122069819D02*
X89782268Y-122069819D01*
X89782268Y-122069819D02*
X89687030Y-122117438D01*
X89687030Y-122117438D02*
X89639411Y-122165057D01*
X89639411Y-122165057D02*
X89591792Y-122260295D01*
X89591792Y-122260295D02*
X89591792Y-122403152D01*
X89591792Y-122403152D02*
X89639411Y-122498390D01*
X89639411Y-122498390D02*
X89687030Y-122546009D01*
X89687030Y-122546009D02*
X89782268Y-122593628D01*
X89782268Y-122593628D02*
X90163220Y-122593628D01*
X88591792Y-122974580D02*
X88639411Y-123022200D01*
X88639411Y-123022200D02*
X88782268Y-123069819D01*
X88782268Y-123069819D02*
X88877506Y-123069819D01*
X88877506Y-123069819D02*
X89020363Y-123022200D01*
X89020363Y-123022200D02*
X89115601Y-122926961D01*
X89115601Y-122926961D02*
X89163220Y-122831723D01*
X89163220Y-122831723D02*
X89210839Y-122641247D01*
X89210839Y-122641247D02*
X89210839Y-122498390D01*
X89210839Y-122498390D02*
X89163220Y-122307914D01*
X89163220Y-122307914D02*
X89115601Y-122212676D01*
X89115601Y-122212676D02*
X89020363Y-122117438D01*
X89020363Y-122117438D02*
X88877506Y-122069819D01*
X88877506Y-122069819D02*
X88782268Y-122069819D01*
X88782268Y-122069819D02*
X88639411Y-122117438D01*
X88639411Y-122117438D02*
X88591792Y-122165057D01*
X87829887Y-122546009D02*
X87687030Y-122593628D01*
X87687030Y-122593628D02*
X87639411Y-122641247D01*
X87639411Y-122641247D02*
X87591792Y-122736485D01*
X87591792Y-122736485D02*
X87591792Y-122879342D01*
X87591792Y-122879342D02*
X87639411Y-122974580D01*
X87639411Y-122974580D02*
X87687030Y-123022200D01*
X87687030Y-123022200D02*
X87782268Y-123069819D01*
X87782268Y-123069819D02*
X88163220Y-123069819D01*
X88163220Y-123069819D02*
X88163220Y-122069819D01*
X88163220Y-122069819D02*
X87829887Y-122069819D01*
X87829887Y-122069819D02*
X87734649Y-122117438D01*
X87734649Y-122117438D02*
X87687030Y-122165057D01*
X87687030Y-122165057D02*
X87639411Y-122260295D01*
X87639411Y-122260295D02*
X87639411Y-122355533D01*
X87639411Y-122355533D02*
X87687030Y-122450771D01*
X87687030Y-122450771D02*
X87734649Y-122498390D01*
X87734649Y-122498390D02*
X87829887Y-122546009D01*
X87829887Y-122546009D02*
X88163220Y-122546009D01*
X87163220Y-122974580D02*
X87115601Y-123022200D01*
X87115601Y-123022200D02*
X87163220Y-123069819D01*
X87163220Y-123069819D02*
X87210839Y-123022200D01*
X87210839Y-123022200D02*
X87163220Y-122974580D01*
X87163220Y-122974580D02*
X87163220Y-123069819D01*
X87163220Y-122450771D02*
X87115601Y-122498390D01*
X87115601Y-122498390D02*
X87163220Y-122546009D01*
X87163220Y-122546009D02*
X87210839Y-122498390D01*
X87210839Y-122498390D02*
X87163220Y-122450771D01*
X87163220Y-122450771D02*
X87163220Y-122546009D01*
X85496554Y-122403152D02*
X85496554Y-123069819D01*
X85734649Y-122022200D02*
X85972744Y-122736485D01*
X85972744Y-122736485D02*
X85353697Y-122736485D01*
X84972744Y-122974580D02*
X84925125Y-123022200D01*
X84925125Y-123022200D02*
X84972744Y-123069819D01*
X84972744Y-123069819D02*
X85020363Y-123022200D01*
X85020363Y-123022200D02*
X84972744Y-122974580D01*
X84972744Y-122974580D02*
X84972744Y-123069819D01*
X84306078Y-122069819D02*
X84210840Y-122069819D01*
X84210840Y-122069819D02*
X84115602Y-122117438D01*
X84115602Y-122117438D02*
X84067983Y-122165057D01*
X84067983Y-122165057D02*
X84020364Y-122260295D01*
X84020364Y-122260295D02*
X83972745Y-122450771D01*
X83972745Y-122450771D02*
X83972745Y-122688866D01*
X83972745Y-122688866D02*
X84020364Y-122879342D01*
X84020364Y-122879342D02*
X84067983Y-122974580D01*
X84067983Y-122974580D02*
X84115602Y-123022200D01*
X84115602Y-123022200D02*
X84210840Y-123069819D01*
X84210840Y-123069819D02*
X84306078Y-123069819D01*
X84306078Y-123069819D02*
X84401316Y-123022200D01*
X84401316Y-123022200D02*
X84448935Y-122974580D01*
X84448935Y-122974580D02*
X84496554Y-122879342D01*
X84496554Y-122879342D02*
X84544173Y-122688866D01*
X84544173Y-122688866D02*
X84544173Y-122450771D01*
X84544173Y-122450771D02*
X84496554Y-122260295D01*
X84496554Y-122260295D02*
X84448935Y-122165057D01*
X84448935Y-122165057D02*
X84401316Y-122117438D01*
X84401316Y-122117438D02*
X84306078Y-122069819D01*
X83544173Y-122974580D02*
X83496554Y-123022200D01*
X83496554Y-123022200D02*
X83544173Y-123069819D01*
X83544173Y-123069819D02*
X83591792Y-123022200D01*
X83591792Y-123022200D02*
X83544173Y-122974580D01*
X83544173Y-122974580D02*
X83544173Y-123069819D01*
X82544174Y-123069819D02*
X83115602Y-123069819D01*
X82829888Y-123069819D02*
X82829888Y-122069819D01*
X82829888Y-122069819D02*
X82925126Y-122212676D01*
X82925126Y-122212676D02*
X83020364Y-122307914D01*
X83020364Y-122307914D02*
X83115602Y-122355533D01*
X82115602Y-122688866D02*
X81353698Y-122688866D01*
X80306079Y-123069819D02*
X80639412Y-122593628D01*
X80877507Y-123069819D02*
X80877507Y-122069819D01*
X80877507Y-122069819D02*
X80496555Y-122069819D01*
X80496555Y-122069819D02*
X80401317Y-122117438D01*
X80401317Y-122117438D02*
X80353698Y-122165057D01*
X80353698Y-122165057D02*
X80306079Y-122260295D01*
X80306079Y-122260295D02*
X80306079Y-122403152D01*
X80306079Y-122403152D02*
X80353698Y-122498390D01*
X80353698Y-122498390D02*
X80401317Y-122546009D01*
X80401317Y-122546009D02*
X80496555Y-122593628D01*
X80496555Y-122593628D02*
X80877507Y-122593628D01*
X79306079Y-122974580D02*
X79353698Y-123022200D01*
X79353698Y-123022200D02*
X79496555Y-123069819D01*
X79496555Y-123069819D02*
X79591793Y-123069819D01*
X79591793Y-123069819D02*
X79734650Y-123022200D01*
X79734650Y-123022200D02*
X79829888Y-122926961D01*
X79829888Y-122926961D02*
X79877507Y-122831723D01*
X79877507Y-122831723D02*
X79925126Y-122641247D01*
X79925126Y-122641247D02*
X79925126Y-122498390D01*
X79925126Y-122498390D02*
X79877507Y-122307914D01*
X79877507Y-122307914D02*
X79829888Y-122212676D01*
X79829888Y-122212676D02*
X79734650Y-122117438D01*
X79734650Y-122117438D02*
X79591793Y-122069819D01*
X79591793Y-122069819D02*
X79496555Y-122069819D01*
X79496555Y-122069819D02*
X79353698Y-122117438D01*
X79353698Y-122117438D02*
X79306079Y-122165057D01*
X78210840Y-122069819D02*
X77544174Y-122069819D01*
X77544174Y-122069819D02*
X77972745Y-123069819D01*
X76734650Y-123022200D02*
X76829888Y-123069819D01*
X76829888Y-123069819D02*
X77020364Y-123069819D01*
X77020364Y-123069819D02*
X77115602Y-123022200D01*
X77115602Y-123022200D02*
X77163221Y-122974580D01*
X77163221Y-122974580D02*
X77210840Y-122879342D01*
X77210840Y-122879342D02*
X77210840Y-122593628D01*
X77210840Y-122593628D02*
X77163221Y-122498390D01*
X77163221Y-122498390D02*
X77115602Y-122450771D01*
X77115602Y-122450771D02*
X77020364Y-122403152D01*
X77020364Y-122403152D02*
X76829888Y-122403152D01*
X76829888Y-122403152D02*
X76734650Y-122450771D01*
X75877507Y-123022200D02*
X75972745Y-123069819D01*
X75972745Y-123069819D02*
X76163221Y-123069819D01*
X76163221Y-123069819D02*
X76258459Y-123022200D01*
X76258459Y-123022200D02*
X76306078Y-122974580D01*
X76306078Y-122974580D02*
X76353697Y-122879342D01*
X76353697Y-122879342D02*
X76353697Y-122593628D01*
X76353697Y-122593628D02*
X76306078Y-122498390D01*
X76306078Y-122498390D02*
X76258459Y-122450771D01*
X76258459Y-122450771D02*
X76163221Y-122403152D01*
X76163221Y-122403152D02*
X75972745Y-122403152D01*
X75972745Y-122403152D02*
X75877507Y-122450771D01*
X75020364Y-123069819D02*
X75020364Y-122546009D01*
X75020364Y-122546009D02*
X75067983Y-122450771D01*
X75067983Y-122450771D02*
X75163221Y-122403152D01*
X75163221Y-122403152D02*
X75353697Y-122403152D01*
X75353697Y-122403152D02*
X75448935Y-122450771D01*
X75020364Y-123022200D02*
X75115602Y-123069819D01*
X75115602Y-123069819D02*
X75353697Y-123069819D01*
X75353697Y-123069819D02*
X75448935Y-123022200D01*
X75448935Y-123022200D02*
X75496554Y-122926961D01*
X75496554Y-122926961D02*
X75496554Y-122831723D01*
X75496554Y-122831723D02*
X75448935Y-122736485D01*
X75448935Y-122736485D02*
X75353697Y-122688866D01*
X75353697Y-122688866D02*
X75115602Y-122688866D01*
X75115602Y-122688866D02*
X75020364Y-122641247D01*
X74115602Y-122403152D02*
X74115602Y-123069819D01*
X74353697Y-122022200D02*
X74591792Y-122736485D01*
X74591792Y-122736485D02*
X73972745Y-122736485D01*
X73401316Y-122069819D02*
X73306078Y-122069819D01*
X73306078Y-122069819D02*
X73210840Y-122117438D01*
X73210840Y-122117438D02*
X73163221Y-122165057D01*
X73163221Y-122165057D02*
X73115602Y-122260295D01*
X73115602Y-122260295D02*
X73067983Y-122450771D01*
X73067983Y-122450771D02*
X73067983Y-122688866D01*
X73067983Y-122688866D02*
X73115602Y-122879342D01*
X73115602Y-122879342D02*
X73163221Y-122974580D01*
X73163221Y-122974580D02*
X73210840Y-123022200D01*
X73210840Y-123022200D02*
X73306078Y-123069819D01*
X73306078Y-123069819D02*
X73401316Y-123069819D01*
X73401316Y-123069819D02*
X73496554Y-123022200D01*
X73496554Y-123022200D02*
X73544173Y-122974580D01*
X73544173Y-122974580D02*
X73591792Y-122879342D01*
X73591792Y-122879342D02*
X73639411Y-122688866D01*
X73639411Y-122688866D02*
X73639411Y-122450771D01*
X73639411Y-122450771D02*
X73591792Y-122260295D01*
X73591792Y-122260295D02*
X73544173Y-122165057D01*
X73544173Y-122165057D02*
X73496554Y-122117438D01*
X73496554Y-122117438D02*
X73401316Y-122069819D01*
X72734649Y-122069819D02*
X72115602Y-122069819D01*
X72115602Y-122069819D02*
X72448935Y-122450771D01*
X72448935Y-122450771D02*
X72306078Y-122450771D01*
X72306078Y-122450771D02*
X72210840Y-122498390D01*
X72210840Y-122498390D02*
X72163221Y-122546009D01*
X72163221Y-122546009D02*
X72115602Y-122641247D01*
X72115602Y-122641247D02*
X72115602Y-122879342D01*
X72115602Y-122879342D02*
X72163221Y-122974580D01*
X72163221Y-122974580D02*
X72210840Y-123022200D01*
X72210840Y-123022200D02*
X72306078Y-123069819D01*
X72306078Y-123069819D02*
X72591792Y-123069819D01*
X72591792Y-123069819D02*
X72687030Y-123022200D01*
X72687030Y-123022200D02*
X72734649Y-122974580D01*
G36*
X34438628Y-45397169D02*
G01*
X34404370Y-45465685D01*
X34373963Y-45496092D01*
X34305447Y-45530350D01*
X34198000Y-45530350D01*
X34129484Y-45496092D01*
X34099077Y-45465685D01*
X34064819Y-45397169D01*
X34064819Y-45108922D01*
X34438628Y-45108922D01*
X34438628Y-45397169D01*
G37*
G36*
X35175930Y-47599544D02*
G01*
X33803708Y-47599544D01*
X33803708Y-46938684D01*
X33914819Y-46938684D01*
X33914819Y-47414874D01*
X33916260Y-47429506D01*
X33927459Y-47456542D01*
X33948151Y-47477234D01*
X33975187Y-47488433D01*
X34004451Y-47488433D01*
X34031487Y-47477234D01*
X34052179Y-47456542D01*
X34063378Y-47429506D01*
X34064819Y-47414874D01*
X34064819Y-47013684D01*
X34391009Y-47013684D01*
X34391009Y-47272017D01*
X34392450Y-47286649D01*
X34403649Y-47313685D01*
X34424341Y-47334377D01*
X34451377Y-47345576D01*
X34480641Y-47345576D01*
X34507677Y-47334377D01*
X34528369Y-47313685D01*
X34539568Y-47286649D01*
X34541009Y-47272017D01*
X34541009Y-47013684D01*
X34989819Y-47013684D01*
X35004451Y-47012243D01*
X35031487Y-47001044D01*
X35052179Y-46980352D01*
X35063378Y-46953316D01*
X35063378Y-46924052D01*
X35052179Y-46897016D01*
X35031487Y-46876324D01*
X35004451Y-46865125D01*
X34989819Y-46863684D01*
X33989819Y-46863684D01*
X33975187Y-46865125D01*
X33948151Y-46876324D01*
X33927459Y-46897016D01*
X33916260Y-46924052D01*
X33914819Y-46938684D01*
X33803708Y-46938684D01*
X33803708Y-46033922D01*
X33914819Y-46033922D01*
X33914819Y-46510112D01*
X33916260Y-46524744D01*
X33927459Y-46551780D01*
X33948151Y-46572472D01*
X33975187Y-46583671D01*
X34004451Y-46583671D01*
X34031487Y-46572472D01*
X34052179Y-46551780D01*
X34063378Y-46524744D01*
X34064819Y-46510112D01*
X34064819Y-46108922D01*
X34391009Y-46108922D01*
X34391009Y-46367255D01*
X34392450Y-46381887D01*
X34403649Y-46408923D01*
X34424341Y-46429615D01*
X34451377Y-46440814D01*
X34480641Y-46440814D01*
X34507677Y-46429615D01*
X34528369Y-46408923D01*
X34539568Y-46381887D01*
X34541009Y-46367255D01*
X34541009Y-46108922D01*
X34914819Y-46108922D01*
X34914819Y-46510112D01*
X34916260Y-46524744D01*
X34927459Y-46551780D01*
X34948151Y-46572472D01*
X34975187Y-46583671D01*
X35004451Y-46583671D01*
X35031487Y-46572472D01*
X35052179Y-46551780D01*
X35063378Y-46524744D01*
X35064819Y-46510112D01*
X35064819Y-46033922D01*
X35063378Y-46019290D01*
X35052179Y-45992254D01*
X35031487Y-45971562D01*
X35004451Y-45960363D01*
X34989819Y-45958922D01*
X33989819Y-45958922D01*
X33975187Y-45960363D01*
X33948151Y-45971562D01*
X33927459Y-45992254D01*
X33916260Y-46019290D01*
X33914819Y-46033922D01*
X33803708Y-46033922D01*
X33803708Y-45033922D01*
X33914819Y-45033922D01*
X33914819Y-45414874D01*
X33916260Y-45429506D01*
X33917291Y-45431995D01*
X33917482Y-45434683D01*
X33922737Y-45448415D01*
X33970356Y-45543653D01*
X33974320Y-45549952D01*
X33975078Y-45551780D01*
X33976766Y-45553836D01*
X33978188Y-45556096D01*
X33979686Y-45557395D01*
X33984405Y-45563145D01*
X34032024Y-45610764D01*
X34037773Y-45615482D01*
X34039073Y-45616981D01*
X34041332Y-45618402D01*
X34043389Y-45620091D01*
X34045216Y-45620848D01*
X34051516Y-45624813D01*
X34146754Y-45672432D01*
X34160485Y-45677687D01*
X34163174Y-45677878D01*
X34165663Y-45678909D01*
X34180295Y-45680350D01*
X34323152Y-45680350D01*
X34337784Y-45678909D01*
X34340273Y-45677877D01*
X34342961Y-45677687D01*
X34356693Y-45672432D01*
X34451931Y-45624813D01*
X34458230Y-45620848D01*
X34460058Y-45620091D01*
X34462114Y-45618402D01*
X34464374Y-45616981D01*
X34465673Y-45615482D01*
X34471423Y-45610764D01*
X34519042Y-45563145D01*
X34523760Y-45557395D01*
X34525259Y-45556096D01*
X34526680Y-45553836D01*
X34528369Y-45551780D01*
X34529126Y-45549952D01*
X34533091Y-45543653D01*
X34580710Y-45448415D01*
X34585965Y-45434684D01*
X34586156Y-45431994D01*
X34587187Y-45429506D01*
X34588518Y-45415989D01*
X34946810Y-45666793D01*
X34959623Y-45674003D01*
X34988194Y-45680332D01*
X35017012Y-45675247D01*
X35041690Y-45659520D01*
X35058472Y-45635546D01*
X35064802Y-45606975D01*
X35059716Y-45578158D01*
X35043989Y-45553479D01*
X35032829Y-45543908D01*
X34588628Y-45232967D01*
X34588628Y-45108922D01*
X34989819Y-45108922D01*
X35004451Y-45107481D01*
X35031487Y-45096282D01*
X35052179Y-45075590D01*
X35063378Y-45048554D01*
X35063378Y-45019290D01*
X35052179Y-44992254D01*
X35031487Y-44971562D01*
X35004451Y-44960363D01*
X34989819Y-44958922D01*
X33989819Y-44958922D01*
X33975187Y-44960363D01*
X33948151Y-44971562D01*
X33927459Y-44992254D01*
X33916260Y-45019290D01*
X33914819Y-45033922D01*
X33803708Y-45033922D01*
X33803708Y-44024542D01*
X33915408Y-44024542D01*
X33917483Y-44053732D01*
X33930569Y-44079905D01*
X33952676Y-44099079D01*
X33966102Y-44105073D01*
X34752648Y-44367255D01*
X33966102Y-44629437D01*
X33952676Y-44635431D01*
X33930569Y-44654605D01*
X33917483Y-44680778D01*
X33915408Y-44709968D01*
X33924662Y-44737731D01*
X33943836Y-44759838D01*
X33970009Y-44772924D01*
X33999199Y-44774999D01*
X34013536Y-44771739D01*
X35013536Y-44438406D01*
X35026961Y-44432412D01*
X35031008Y-44428901D01*
X35035802Y-44426505D01*
X35041966Y-44419397D01*
X35049068Y-44413238D01*
X35051463Y-44408446D01*
X35054976Y-44404397D01*
X35057950Y-44395474D01*
X35062155Y-44387065D01*
X35062534Y-44381720D01*
X35064230Y-44376635D01*
X35063563Y-44367255D01*
X35064230Y-44357875D01*
X35062534Y-44352789D01*
X35062155Y-44347445D01*
X35057950Y-44339035D01*
X35054976Y-44330113D01*
X35051463Y-44326063D01*
X35049068Y-44321272D01*
X35041966Y-44315112D01*
X35035802Y-44308005D01*
X35031008Y-44305608D01*
X35026961Y-44302098D01*
X35013536Y-44296104D01*
X34013536Y-43962771D01*
X33999199Y-43959511D01*
X33970009Y-43961586D01*
X33943836Y-43974672D01*
X33924662Y-43996779D01*
X33915408Y-44024542D01*
X33803708Y-44024542D01*
X33803708Y-43848400D01*
X35175930Y-43848400D01*
X35175930Y-47599544D01*
G37*
G36*
X57920601Y-23033628D02*
G01*
X57650628Y-23033628D01*
X57464686Y-22971647D01*
X57342953Y-22849915D01*
X57280650Y-22725308D01*
X57213458Y-22456537D01*
X57213458Y-22260718D01*
X57280650Y-21991947D01*
X57342953Y-21867341D01*
X57464686Y-21745608D01*
X57650628Y-21683628D01*
X57920601Y-21683628D01*
X57920601Y-23033628D01*
G37*
G36*
X60665840Y-23350295D02*
G01*
X56253934Y-23350295D01*
X56253934Y-21608628D01*
X56420601Y-21608628D01*
X56420601Y-23108628D01*
X56422042Y-23123260D01*
X56433241Y-23150296D01*
X56453933Y-23170988D01*
X56480969Y-23182187D01*
X56510233Y-23182187D01*
X56537269Y-23170988D01*
X56557961Y-23150296D01*
X56569160Y-23123260D01*
X56570601Y-23108628D01*
X56570601Y-22251485D01*
X57063458Y-22251485D01*
X57063458Y-22465771D01*
X57063709Y-22468324D01*
X57063547Y-22469416D01*
X57064355Y-22474888D01*
X57064899Y-22480403D01*
X57065322Y-22481424D01*
X57065697Y-22483961D01*
X57137125Y-22769675D01*
X57137510Y-22770754D01*
X57137549Y-22771295D01*
X57139879Y-22777384D01*
X57142072Y-22783521D01*
X57142394Y-22783956D01*
X57142804Y-22785026D01*
X57214233Y-22927883D01*
X57218196Y-22934179D01*
X57218954Y-22936009D01*
X57220643Y-22938067D01*
X57222065Y-22940326D01*
X57223563Y-22941625D01*
X57228282Y-22947375D01*
X57371139Y-23090233D01*
X57382504Y-23099560D01*
X57384994Y-23100591D01*
X57387030Y-23102357D01*
X57400455Y-23108351D01*
X57614741Y-23179779D01*
X57621994Y-23181428D01*
X57623826Y-23182187D01*
X57626480Y-23182448D01*
X57629078Y-23183039D01*
X57631052Y-23182898D01*
X57638458Y-23183628D01*
X57995601Y-23183628D01*
X58010233Y-23182187D01*
X58037269Y-23170988D01*
X58057961Y-23150296D01*
X58069160Y-23123260D01*
X58070601Y-23108628D01*
X58070601Y-21608628D01*
X58634887Y-21608628D01*
X58634887Y-23108628D01*
X58636328Y-23123260D01*
X58647527Y-23150296D01*
X58668219Y-23170988D01*
X58695255Y-23182187D01*
X58724519Y-23182187D01*
X58751555Y-23170988D01*
X58772247Y-23150296D01*
X58783446Y-23123260D01*
X58784887Y-23108628D01*
X58784887Y-21608628D01*
X59349173Y-21608628D01*
X59349173Y-23108628D01*
X59350614Y-23123260D01*
X59361813Y-23150296D01*
X59382505Y-23170988D01*
X59409541Y-23182187D01*
X59438805Y-23182187D01*
X59465841Y-23170988D01*
X59486533Y-23150296D01*
X59497732Y-23123260D01*
X59499173Y-23108628D01*
X59499173Y-21946695D01*
X59856209Y-22711774D01*
X59859383Y-22717133D01*
X59860043Y-22718946D01*
X59861217Y-22720228D01*
X59863703Y-22724424D01*
X59872112Y-22732124D01*
X59879807Y-22740527D01*
X59882825Y-22741935D01*
X59885284Y-22744187D01*
X59895996Y-22748082D01*
X59906325Y-22752903D01*
X59909653Y-22753049D01*
X59912785Y-22754188D01*
X59924179Y-22753687D01*
X59935561Y-22754187D01*
X59938689Y-22753049D01*
X59942021Y-22752903D01*
X59952356Y-22748079D01*
X59963062Y-22744187D01*
X59965517Y-22741937D01*
X59968539Y-22740528D01*
X59976240Y-22732117D01*
X59984643Y-22724423D01*
X59987126Y-22720230D01*
X59988303Y-22718946D01*
X59988963Y-22717130D01*
X59992137Y-22711773D01*
X60349173Y-21946695D01*
X60349173Y-23108628D01*
X60350614Y-23123260D01*
X60361813Y-23150296D01*
X60382505Y-23170988D01*
X60409541Y-23182187D01*
X60438805Y-23182187D01*
X60465841Y-23170988D01*
X60486533Y-23150296D01*
X60497732Y-23123260D01*
X60499173Y-23108628D01*
X60499173Y-21608628D01*
X60498226Y-21599012D01*
X60498304Y-21597240D01*
X60497957Y-21596287D01*
X60497732Y-21593996D01*
X60492753Y-21581977D01*
X60488303Y-21569739D01*
X60487173Y-21568505D01*
X60486533Y-21566960D01*
X60477333Y-21557760D01*
X60468539Y-21548157D01*
X60467022Y-21547449D01*
X60465841Y-21546268D01*
X60453828Y-21541291D01*
X60442021Y-21535782D01*
X60440348Y-21535708D01*
X60438805Y-21535069D01*
X60425799Y-21535069D01*
X60412785Y-21534497D01*
X60411212Y-21535069D01*
X60409541Y-21535069D01*
X60397522Y-21540047D01*
X60385284Y-21544498D01*
X60384050Y-21545628D01*
X60382505Y-21546268D01*
X60373306Y-21555466D01*
X60363703Y-21564261D01*
X60362527Y-21566245D01*
X60361813Y-21566960D01*
X60361136Y-21568593D01*
X60356209Y-21576911D01*
X59924172Y-22502703D01*
X59492137Y-21576912D01*
X59487211Y-21568596D01*
X59486533Y-21566960D01*
X59485817Y-21566244D01*
X59484643Y-21564262D01*
X59475046Y-21555473D01*
X59465841Y-21546268D01*
X59464295Y-21545627D01*
X59463062Y-21544498D01*
X59450831Y-21540050D01*
X59438805Y-21535069D01*
X59437131Y-21535069D01*
X59435561Y-21534498D01*
X59422560Y-21535069D01*
X59409541Y-21535069D01*
X59407996Y-21535708D01*
X59406325Y-21535782D01*
X59394526Y-21541288D01*
X59382505Y-21546268D01*
X59381322Y-21547450D01*
X59379807Y-21548158D01*
X59371018Y-21557754D01*
X59361813Y-21566960D01*
X59361172Y-21568505D01*
X59360043Y-21569739D01*
X59355595Y-21581969D01*
X59350614Y-21593996D01*
X59350387Y-21596291D01*
X59350043Y-21597240D01*
X59350120Y-21599006D01*
X59349173Y-21608628D01*
X58784887Y-21608628D01*
X58783446Y-21593996D01*
X58772247Y-21566960D01*
X58751555Y-21546268D01*
X58724519Y-21535069D01*
X58695255Y-21535069D01*
X58668219Y-21546268D01*
X58647527Y-21566960D01*
X58636328Y-21593996D01*
X58634887Y-21608628D01*
X58070601Y-21608628D01*
X58069160Y-21593996D01*
X58057961Y-21566960D01*
X58037269Y-21546268D01*
X58010233Y-21535069D01*
X57995601Y-21533628D01*
X57638458Y-21533628D01*
X57631051Y-21534357D01*
X57629077Y-21534217D01*
X57626479Y-21534807D01*
X57623826Y-21535069D01*
X57621995Y-21535827D01*
X57614740Y-21537477D01*
X57400455Y-21608906D01*
X57387029Y-21614900D01*
X57384992Y-21616666D01*
X57382504Y-21617697D01*
X57371139Y-21627024D01*
X57228282Y-21769881D01*
X57223563Y-21775630D01*
X57222065Y-21776930D01*
X57220643Y-21779189D01*
X57218955Y-21781246D01*
X57218197Y-21783073D01*
X57214233Y-21789373D01*
X57142804Y-21932230D01*
X57142394Y-21933299D01*
X57142072Y-21933735D01*
X57139879Y-21939871D01*
X57137549Y-21945961D01*
X57137510Y-21946501D01*
X57137125Y-21947581D01*
X57065697Y-22233295D01*
X57065322Y-22235831D01*
X57064899Y-22236853D01*
X57064355Y-22242367D01*
X57063547Y-22247840D01*
X57063709Y-22248931D01*
X57063458Y-22251485D01*
X56570601Y-22251485D01*
X56570601Y-21608628D01*
X56569160Y-21593996D01*
X56557961Y-21566960D01*
X56537269Y-21546268D01*
X56510233Y-21535069D01*
X56480969Y-21535069D01*
X56453933Y-21546268D01*
X56433241Y-21566960D01*
X56422042Y-21593996D01*
X56420601Y-21608628D01*
X56253934Y-21608628D01*
X56253934Y-21366961D01*
X60665840Y-21366961D01*
X60665840Y-23350295D01*
G37*
X134310619Y-57188379D02*
X133643952Y-57188379D01*
X133310619Y-57188379D02*
X133358238Y-57140760D01*
X133358238Y-57140760D02*
X133405857Y-57188379D01*
X133405857Y-57188379D02*
X133358238Y-57235998D01*
X133358238Y-57235998D02*
X133310619Y-57188379D01*
X133310619Y-57188379D02*
X133405857Y-57188379D01*
X133643952Y-57664569D02*
X134310619Y-57664569D01*
X133739190Y-57664569D02*
X133691571Y-57712188D01*
X133691571Y-57712188D02*
X133643952Y-57807426D01*
X133643952Y-57807426D02*
X133643952Y-57950283D01*
X133643952Y-57950283D02*
X133691571Y-58045521D01*
X133691571Y-58045521D02*
X133786809Y-58093140D01*
X133786809Y-58093140D02*
X134310619Y-58093140D01*
G36*
X182605747Y-37660508D02*
G01*
X181233891Y-37660508D01*
X181233891Y-36908208D01*
X181345002Y-36908208D01*
X181346260Y-36912820D01*
X181346260Y-36917601D01*
X181350077Y-36926816D01*
X181352702Y-36936440D01*
X181355629Y-36940220D01*
X181357459Y-36944637D01*
X181364509Y-36951687D01*
X181370619Y-36959577D01*
X181376751Y-36963929D01*
X181378151Y-36965329D01*
X181379525Y-36965898D01*
X181382609Y-36968087D01*
X182137402Y-37399397D01*
X181419819Y-37399397D01*
X181405187Y-37400838D01*
X181378151Y-37412037D01*
X181357459Y-37432729D01*
X181346260Y-37459765D01*
X181346260Y-37489029D01*
X181357459Y-37516065D01*
X181378151Y-37536757D01*
X181405187Y-37547956D01*
X181419819Y-37549397D01*
X182419819Y-37549397D01*
X182423582Y-37549026D01*
X182425058Y-37549214D01*
X182426968Y-37548692D01*
X182434451Y-37547956D01*
X182443666Y-37544138D01*
X182453290Y-37541514D01*
X182457070Y-37538586D01*
X182461487Y-37536757D01*
X182468537Y-37529706D01*
X182476427Y-37523597D01*
X182478800Y-37519443D01*
X182482179Y-37516065D01*
X182485995Y-37506852D01*
X182490946Y-37498188D01*
X182491548Y-37493444D01*
X182493378Y-37489029D01*
X182493378Y-37479054D01*
X182494636Y-37469158D01*
X182493378Y-37464545D01*
X182493378Y-37459765D01*
X182489560Y-37450548D01*
X182486936Y-37440927D01*
X182484009Y-37437147D01*
X182482179Y-37432729D01*
X182475127Y-37425677D01*
X182469019Y-37417789D01*
X182462884Y-37413434D01*
X182461487Y-37412037D01*
X182460114Y-37411468D01*
X182457030Y-37409279D01*
X181702236Y-36977969D01*
X182419819Y-36977969D01*
X182434451Y-36976528D01*
X182461487Y-36965329D01*
X182482179Y-36944637D01*
X182493378Y-36917601D01*
X182493378Y-36888337D01*
X182482179Y-36861301D01*
X182461487Y-36840609D01*
X182434451Y-36829410D01*
X182419819Y-36827969D01*
X181419819Y-36827969D01*
X181416055Y-36828339D01*
X181414580Y-36828152D01*
X181412669Y-36828673D01*
X181405187Y-36829410D01*
X181395971Y-36833227D01*
X181386348Y-36835852D01*
X181382567Y-36838779D01*
X181378151Y-36840609D01*
X181371100Y-36847659D01*
X181363211Y-36853769D01*
X181360837Y-36857922D01*
X181357459Y-36861301D01*
X181353642Y-36870513D01*
X181348692Y-36879178D01*
X181348089Y-36883921D01*
X181346260Y-36888337D01*
X181346260Y-36898311D01*
X181345002Y-36908208D01*
X181233891Y-36908208D01*
X181233891Y-36412147D01*
X181346260Y-36412147D01*
X181346260Y-36441411D01*
X181357459Y-36468447D01*
X181378151Y-36489139D01*
X181405187Y-36500338D01*
X181419819Y-36501779D01*
X182419819Y-36501779D01*
X182434451Y-36500338D01*
X182461487Y-36489139D01*
X182482179Y-36468447D01*
X182493378Y-36441411D01*
X182493378Y-36412147D01*
X182482179Y-36385111D01*
X182461487Y-36364419D01*
X182434451Y-36353220D01*
X182419819Y-36351779D01*
X181419819Y-36351779D01*
X181405187Y-36353220D01*
X181378151Y-36364419D01*
X181357459Y-36385111D01*
X181346260Y-36412147D01*
X181233891Y-36412147D01*
X181233891Y-36240668D01*
X182605747Y-36240668D01*
X182605747Y-37660508D01*
G37*
G36*
X64113555Y-26299077D02*
G01*
X64185497Y-26371019D01*
X64225839Y-26532386D01*
X64225839Y-26847251D01*
X64185497Y-27008617D01*
X64113554Y-27080561D01*
X64045039Y-27114819D01*
X63889973Y-27114819D01*
X63821457Y-27080561D01*
X63749514Y-27008617D01*
X63709173Y-26847251D01*
X63709173Y-26532386D01*
X63749514Y-26371019D01*
X63821457Y-26299077D01*
X63889973Y-26264819D01*
X64045039Y-26264819D01*
X64113555Y-26299077D01*
G37*
G36*
X64486950Y-27375930D02*
G01*
X61544741Y-27375930D01*
X61544741Y-26175187D01*
X61655852Y-26175187D01*
X61655852Y-26204451D01*
X61667051Y-26231487D01*
X61687743Y-26252179D01*
X61714779Y-26263378D01*
X61729411Y-26264819D01*
X61940125Y-26264819D01*
X61940125Y-27189819D01*
X61941566Y-27204451D01*
X61952765Y-27231487D01*
X61973457Y-27252179D01*
X62000493Y-27263378D01*
X62029757Y-27263378D01*
X62056793Y-27252179D01*
X62077485Y-27231487D01*
X62088684Y-27204451D01*
X62090125Y-27189819D01*
X62090125Y-26264819D01*
X62300839Y-26264819D01*
X62315471Y-26263378D01*
X62342507Y-26252179D01*
X62363199Y-26231487D01*
X62374398Y-26204451D01*
X62374398Y-26189819D01*
X62559173Y-26189819D01*
X62559173Y-26999342D01*
X62560614Y-27013974D01*
X62561645Y-27016463D01*
X62561836Y-27019151D01*
X62567091Y-27032883D01*
X62614710Y-27128121D01*
X62618673Y-27134417D01*
X62619431Y-27136247D01*
X62621120Y-27138305D01*
X62622542Y-27140564D01*
X62624040Y-27141863D01*
X62628758Y-27147612D01*
X62676377Y-27195232D01*
X62682126Y-27199950D01*
X62683427Y-27201450D01*
X62685686Y-27202872D01*
X62687743Y-27204560D01*
X62689570Y-27205317D01*
X62695870Y-27209282D01*
X62791108Y-27256901D01*
X62804839Y-27262156D01*
X62807528Y-27262347D01*
X62810017Y-27263378D01*
X62824649Y-27264819D01*
X63015125Y-27264819D01*
X63029757Y-27263378D01*
X63032246Y-27262346D01*
X63034934Y-27262156D01*
X63048666Y-27256901D01*
X63143904Y-27209282D01*
X63150203Y-27205317D01*
X63152031Y-27204560D01*
X63154087Y-27202872D01*
X63156347Y-27201450D01*
X63157647Y-27199950D01*
X63163397Y-27195232D01*
X63211015Y-27147613D01*
X63215733Y-27141863D01*
X63217232Y-27140564D01*
X63218653Y-27138305D01*
X63220343Y-27136247D01*
X63221100Y-27134417D01*
X63225064Y-27128121D01*
X63272683Y-27032883D01*
X63277938Y-27019152D01*
X63278129Y-27016462D01*
X63279160Y-27013974D01*
X63280601Y-26999342D01*
X63280601Y-26523152D01*
X63559173Y-26523152D01*
X63559173Y-26856485D01*
X63559424Y-26859038D01*
X63559262Y-26860131D01*
X63560071Y-26865604D01*
X63560614Y-26871117D01*
X63561036Y-26872138D01*
X63561412Y-26874675D01*
X63609031Y-27065151D01*
X63613978Y-27078997D01*
X63617297Y-27083476D01*
X63619431Y-27088628D01*
X63628759Y-27099994D01*
X63723997Y-27195233D01*
X63729747Y-27199953D01*
X63731046Y-27201450D01*
X63733300Y-27202869D01*
X63735362Y-27204561D01*
X63737194Y-27205319D01*
X63743489Y-27209282D01*
X63838727Y-27256901D01*
X63852458Y-27262156D01*
X63855147Y-27262347D01*
X63857636Y-27263378D01*
X63872268Y-27264819D01*
X64062744Y-27264819D01*
X64077376Y-27263378D01*
X64079865Y-27262346D01*
X64082553Y-27262156D01*
X64096285Y-27256901D01*
X64191523Y-27209282D01*
X64197822Y-27205317D01*
X64199650Y-27204560D01*
X64201706Y-27202871D01*
X64203966Y-27201450D01*
X64205265Y-27199951D01*
X64211015Y-27195233D01*
X64306254Y-27099993D01*
X64315581Y-27088628D01*
X64317714Y-27083476D01*
X64321034Y-27078997D01*
X64325981Y-27065151D01*
X64373600Y-26874675D01*
X64373975Y-26872138D01*
X64374398Y-26871117D01*
X64374940Y-26865604D01*
X64375750Y-26860131D01*
X64375587Y-26859038D01*
X64375839Y-26856485D01*
X64375839Y-26523152D01*
X64375587Y-26520598D01*
X64375750Y-26519506D01*
X64374940Y-26514032D01*
X64374398Y-26508520D01*
X64373975Y-26507498D01*
X64373600Y-26504962D01*
X64325981Y-26314486D01*
X64321034Y-26300640D01*
X64317715Y-26296161D01*
X64315581Y-26291008D01*
X64306253Y-26279643D01*
X64211015Y-26184405D01*
X64205265Y-26179686D01*
X64203966Y-26178188D01*
X64201706Y-26176766D01*
X64199650Y-26175078D01*
X64197822Y-26174320D01*
X64191523Y-26170356D01*
X64096285Y-26122737D01*
X64082553Y-26117482D01*
X64079865Y-26117291D01*
X64077376Y-26116260D01*
X64062744Y-26114819D01*
X63872268Y-26114819D01*
X63857636Y-26116260D01*
X63855147Y-26117290D01*
X63852458Y-26117482D01*
X63838727Y-26122737D01*
X63743489Y-26170356D01*
X63737194Y-26174318D01*
X63735362Y-26175077D01*
X63733300Y-26176768D01*
X63731046Y-26178188D01*
X63729747Y-26179684D01*
X63723997Y-26184405D01*
X63628759Y-26279643D01*
X63619432Y-26291008D01*
X63617298Y-26296158D01*
X63613978Y-26300640D01*
X63609031Y-26314486D01*
X63561412Y-26504962D01*
X63561036Y-26507498D01*
X63560614Y-26508520D01*
X63560071Y-26514032D01*
X63559262Y-26519506D01*
X63559424Y-26520598D01*
X63559173Y-26523152D01*
X63280601Y-26523152D01*
X63280601Y-26189819D01*
X63279160Y-26175187D01*
X63267961Y-26148151D01*
X63247269Y-26127459D01*
X63220233Y-26116260D01*
X63190969Y-26116260D01*
X63163933Y-26127459D01*
X63143241Y-26148151D01*
X63132042Y-26175187D01*
X63130601Y-26189819D01*
X63130601Y-26981637D01*
X63096342Y-27050153D01*
X63065935Y-27080561D01*
X62997420Y-27114819D01*
X62842354Y-27114819D01*
X62773838Y-27080561D01*
X62743431Y-27050153D01*
X62709173Y-26981637D01*
X62709173Y-26189819D01*
X62707732Y-26175187D01*
X62696533Y-26148151D01*
X62675841Y-26127459D01*
X62648805Y-26116260D01*
X62619541Y-26116260D01*
X62592505Y-26127459D01*
X62571813Y-26148151D01*
X62560614Y-26175187D01*
X62559173Y-26189819D01*
X62374398Y-26189819D01*
X62374398Y-26175187D01*
X62363199Y-26148151D01*
X62342507Y-26127459D01*
X62315471Y-26116260D01*
X62300839Y-26114819D01*
X61729411Y-26114819D01*
X61714779Y-26116260D01*
X61687743Y-26127459D01*
X61667051Y-26148151D01*
X61655852Y-26175187D01*
X61544741Y-26175187D01*
X61544741Y-26003708D01*
X64486950Y-26003708D01*
X64486950Y-27375930D01*
G37*
G36*
X28745747Y-47420508D02*
G01*
X27373891Y-47420508D01*
X27373891Y-46668208D01*
X27485002Y-46668208D01*
X27486260Y-46672820D01*
X27486260Y-46677601D01*
X27490077Y-46686816D01*
X27492702Y-46696440D01*
X27495629Y-46700220D01*
X27497459Y-46704637D01*
X27504509Y-46711687D01*
X27510619Y-46719577D01*
X27516751Y-46723929D01*
X27518151Y-46725329D01*
X27519525Y-46725898D01*
X27522609Y-46728087D01*
X28277402Y-47159397D01*
X27559819Y-47159397D01*
X27545187Y-47160838D01*
X27518151Y-47172037D01*
X27497459Y-47192729D01*
X27486260Y-47219765D01*
X27486260Y-47249029D01*
X27497459Y-47276065D01*
X27518151Y-47296757D01*
X27545187Y-47307956D01*
X27559819Y-47309397D01*
X28559819Y-47309397D01*
X28563582Y-47309026D01*
X28565058Y-47309214D01*
X28566968Y-47308692D01*
X28574451Y-47307956D01*
X28583666Y-47304138D01*
X28593290Y-47301514D01*
X28597070Y-47298586D01*
X28601487Y-47296757D01*
X28608537Y-47289706D01*
X28616427Y-47283597D01*
X28618800Y-47279443D01*
X28622179Y-47276065D01*
X28625995Y-47266852D01*
X28630946Y-47258188D01*
X28631548Y-47253444D01*
X28633378Y-47249029D01*
X28633378Y-47239054D01*
X28634636Y-47229158D01*
X28633378Y-47224545D01*
X28633378Y-47219765D01*
X28629560Y-47210548D01*
X28626936Y-47200927D01*
X28624009Y-47197147D01*
X28622179Y-47192729D01*
X28615127Y-47185677D01*
X28609019Y-47177789D01*
X28602884Y-47173434D01*
X28601487Y-47172037D01*
X28600114Y-47171468D01*
X28597030Y-47169279D01*
X27842236Y-46737969D01*
X28559819Y-46737969D01*
X28574451Y-46736528D01*
X28601487Y-46725329D01*
X28622179Y-46704637D01*
X28633378Y-46677601D01*
X28633378Y-46648337D01*
X28622179Y-46621301D01*
X28601487Y-46600609D01*
X28574451Y-46589410D01*
X28559819Y-46587969D01*
X27559819Y-46587969D01*
X27556055Y-46588339D01*
X27554580Y-46588152D01*
X27552669Y-46588673D01*
X27545187Y-46589410D01*
X27535971Y-46593227D01*
X27526348Y-46595852D01*
X27522567Y-46598779D01*
X27518151Y-46600609D01*
X27511100Y-46607659D01*
X27503211Y-46613769D01*
X27500837Y-46617922D01*
X27497459Y-46621301D01*
X27493642Y-46630513D01*
X27488692Y-46639178D01*
X27488089Y-46643921D01*
X27486260Y-46648337D01*
X27486260Y-46658311D01*
X27485002Y-46668208D01*
X27373891Y-46668208D01*
X27373891Y-46172147D01*
X27486260Y-46172147D01*
X27486260Y-46201411D01*
X27497459Y-46228447D01*
X27518151Y-46249139D01*
X27545187Y-46260338D01*
X27559819Y-46261779D01*
X28559819Y-46261779D01*
X28574451Y-46260338D01*
X28601487Y-46249139D01*
X28622179Y-46228447D01*
X28633378Y-46201411D01*
X28633378Y-46172147D01*
X28622179Y-46145111D01*
X28601487Y-46124419D01*
X28574451Y-46113220D01*
X28559819Y-46111779D01*
X27559819Y-46111779D01*
X27545187Y-46113220D01*
X27518151Y-46124419D01*
X27497459Y-46145111D01*
X27486260Y-46172147D01*
X27373891Y-46172147D01*
X27373891Y-46000668D01*
X28745747Y-46000668D01*
X28745747Y-47420508D01*
G37*
G36*
X175418628Y-37647169D02*
G01*
X175384370Y-37715685D01*
X175353963Y-37746092D01*
X175285447Y-37780350D01*
X175178000Y-37780350D01*
X175109484Y-37746092D01*
X175079077Y-37715685D01*
X175044819Y-37647169D01*
X175044819Y-37358922D01*
X175418628Y-37358922D01*
X175418628Y-37647169D01*
G37*
G36*
X176155930Y-39849544D02*
G01*
X174783708Y-39849544D01*
X174783708Y-39188684D01*
X174894819Y-39188684D01*
X174894819Y-39664874D01*
X174896260Y-39679506D01*
X174907459Y-39706542D01*
X174928151Y-39727234D01*
X174955187Y-39738433D01*
X174984451Y-39738433D01*
X175011487Y-39727234D01*
X175032179Y-39706542D01*
X175043378Y-39679506D01*
X175044819Y-39664874D01*
X175044819Y-39263684D01*
X175371009Y-39263684D01*
X175371009Y-39522017D01*
X175372450Y-39536649D01*
X175383649Y-39563685D01*
X175404341Y-39584377D01*
X175431377Y-39595576D01*
X175460641Y-39595576D01*
X175487677Y-39584377D01*
X175508369Y-39563685D01*
X175519568Y-39536649D01*
X175521009Y-39522017D01*
X175521009Y-39263684D01*
X175969819Y-39263684D01*
X175984451Y-39262243D01*
X176011487Y-39251044D01*
X176032179Y-39230352D01*
X176043378Y-39203316D01*
X176043378Y-39174052D01*
X176032179Y-39147016D01*
X176011487Y-39126324D01*
X175984451Y-39115125D01*
X175969819Y-39113684D01*
X174969819Y-39113684D01*
X174955187Y-39115125D01*
X174928151Y-39126324D01*
X174907459Y-39147016D01*
X174896260Y-39174052D01*
X174894819Y-39188684D01*
X174783708Y-39188684D01*
X174783708Y-38283922D01*
X174894819Y-38283922D01*
X174894819Y-38760112D01*
X174896260Y-38774744D01*
X174907459Y-38801780D01*
X174928151Y-38822472D01*
X174955187Y-38833671D01*
X174984451Y-38833671D01*
X175011487Y-38822472D01*
X175032179Y-38801780D01*
X175043378Y-38774744D01*
X175044819Y-38760112D01*
X175044819Y-38358922D01*
X175371009Y-38358922D01*
X175371009Y-38617255D01*
X175372450Y-38631887D01*
X175383649Y-38658923D01*
X175404341Y-38679615D01*
X175431377Y-38690814D01*
X175460641Y-38690814D01*
X175487677Y-38679615D01*
X175508369Y-38658923D01*
X175519568Y-38631887D01*
X175521009Y-38617255D01*
X175521009Y-38358922D01*
X175894819Y-38358922D01*
X175894819Y-38760112D01*
X175896260Y-38774744D01*
X175907459Y-38801780D01*
X175928151Y-38822472D01*
X175955187Y-38833671D01*
X175984451Y-38833671D01*
X176011487Y-38822472D01*
X176032179Y-38801780D01*
X176043378Y-38774744D01*
X176044819Y-38760112D01*
X176044819Y-38283922D01*
X176043378Y-38269290D01*
X176032179Y-38242254D01*
X176011487Y-38221562D01*
X175984451Y-38210363D01*
X175969819Y-38208922D01*
X174969819Y-38208922D01*
X174955187Y-38210363D01*
X174928151Y-38221562D01*
X174907459Y-38242254D01*
X174896260Y-38269290D01*
X174894819Y-38283922D01*
X174783708Y-38283922D01*
X174783708Y-37283922D01*
X174894819Y-37283922D01*
X174894819Y-37664874D01*
X174896260Y-37679506D01*
X174897291Y-37681995D01*
X174897482Y-37684683D01*
X174902737Y-37698415D01*
X174950356Y-37793653D01*
X174954320Y-37799952D01*
X174955078Y-37801780D01*
X174956766Y-37803836D01*
X174958188Y-37806096D01*
X174959686Y-37807395D01*
X174964405Y-37813145D01*
X175012024Y-37860764D01*
X175017773Y-37865482D01*
X175019073Y-37866981D01*
X175021332Y-37868402D01*
X175023389Y-37870091D01*
X175025216Y-37870848D01*
X175031516Y-37874813D01*
X175126754Y-37922432D01*
X175140485Y-37927687D01*
X175143174Y-37927878D01*
X175145663Y-37928909D01*
X175160295Y-37930350D01*
X175303152Y-37930350D01*
X175317784Y-37928909D01*
X175320273Y-37927877D01*
X175322961Y-37927687D01*
X175336693Y-37922432D01*
X175431931Y-37874813D01*
X175438230Y-37870848D01*
X175440058Y-37870091D01*
X175442114Y-37868402D01*
X175444374Y-37866981D01*
X175445673Y-37865482D01*
X175451423Y-37860764D01*
X175499042Y-37813145D01*
X175503760Y-37807395D01*
X175505259Y-37806096D01*
X175506680Y-37803836D01*
X175508369Y-37801780D01*
X175509126Y-37799952D01*
X175513091Y-37793653D01*
X175560710Y-37698415D01*
X175565965Y-37684684D01*
X175566156Y-37681994D01*
X175567187Y-37679506D01*
X175568518Y-37665989D01*
X175926810Y-37916793D01*
X175939623Y-37924003D01*
X175968194Y-37930332D01*
X175997012Y-37925247D01*
X176021690Y-37909520D01*
X176038472Y-37885546D01*
X176044802Y-37856975D01*
X176039716Y-37828158D01*
X176023989Y-37803479D01*
X176012829Y-37793908D01*
X175568628Y-37482967D01*
X175568628Y-37358922D01*
X175969819Y-37358922D01*
X175984451Y-37357481D01*
X176011487Y-37346282D01*
X176032179Y-37325590D01*
X176043378Y-37298554D01*
X176043378Y-37269290D01*
X176032179Y-37242254D01*
X176011487Y-37221562D01*
X175984451Y-37210363D01*
X175969819Y-37208922D01*
X174969819Y-37208922D01*
X174955187Y-37210363D01*
X174928151Y-37221562D01*
X174907459Y-37242254D01*
X174896260Y-37269290D01*
X174894819Y-37283922D01*
X174783708Y-37283922D01*
X174783708Y-36274542D01*
X174895408Y-36274542D01*
X174897483Y-36303732D01*
X174910569Y-36329905D01*
X174932676Y-36349079D01*
X174946102Y-36355073D01*
X175732648Y-36617255D01*
X174946102Y-36879437D01*
X174932676Y-36885431D01*
X174910569Y-36904605D01*
X174897483Y-36930778D01*
X174895408Y-36959968D01*
X174904662Y-36987731D01*
X174923836Y-37009838D01*
X174950009Y-37022924D01*
X174979199Y-37024999D01*
X174993536Y-37021739D01*
X175993536Y-36688406D01*
X176006961Y-36682412D01*
X176011008Y-36678901D01*
X176015802Y-36676505D01*
X176021966Y-36669397D01*
X176029068Y-36663238D01*
X176031463Y-36658446D01*
X176034976Y-36654397D01*
X176037950Y-36645474D01*
X176042155Y-36637065D01*
X176042534Y-36631720D01*
X176044230Y-36626635D01*
X176043563Y-36617255D01*
X176044230Y-36607875D01*
X176042534Y-36602789D01*
X176042155Y-36597445D01*
X176037950Y-36589035D01*
X176034976Y-36580113D01*
X176031463Y-36576063D01*
X176029068Y-36571272D01*
X176021966Y-36565112D01*
X176015802Y-36558005D01*
X176011008Y-36555608D01*
X176006961Y-36552098D01*
X175993536Y-36546104D01*
X174993536Y-36212771D01*
X174979199Y-36209511D01*
X174950009Y-36211586D01*
X174923836Y-36224672D01*
X174904662Y-36246779D01*
X174895408Y-36274542D01*
X174783708Y-36274542D01*
X174783708Y-36098400D01*
X176155930Y-36098400D01*
X176155930Y-39849544D01*
G37*
X31248094Y-122814819D02*
X31248094Y-121814819D01*
X31248094Y-122291009D02*
X30676666Y-122291009D01*
X30676666Y-122814819D02*
X30676666Y-121814819D01*
X29676666Y-122814819D02*
X30248094Y-122814819D01*
X29962380Y-122814819D02*
X29962380Y-121814819D01*
X29962380Y-121814819D02*
X30057618Y-121957676D01*
X30057618Y-121957676D02*
X30152856Y-122052914D01*
X30152856Y-122052914D02*
X30248094Y-122100533D01*
X29343332Y-121814819D02*
X28724285Y-121814819D01*
X28724285Y-121814819D02*
X29057618Y-122195771D01*
X29057618Y-122195771D02*
X28914761Y-122195771D01*
X28914761Y-122195771D02*
X28819523Y-122243390D01*
X28819523Y-122243390D02*
X28771904Y-122291009D01*
X28771904Y-122291009D02*
X28724285Y-122386247D01*
X28724285Y-122386247D02*
X28724285Y-122624342D01*
X28724285Y-122624342D02*
X28771904Y-122719580D01*
X28771904Y-122719580D02*
X28819523Y-122767200D01*
X28819523Y-122767200D02*
X28914761Y-122814819D01*
X28914761Y-122814819D02*
X29200475Y-122814819D01*
X29200475Y-122814819D02*
X29295713Y-122767200D01*
X29295713Y-122767200D02*
X29343332Y-122719580D01*
X105681904Y-70434819D02*
X105681904Y-69434819D01*
X105681904Y-69911009D02*
X105110476Y-69911009D01*
X105110476Y-70434819D02*
X105110476Y-69434819D01*
X104586666Y-70434819D02*
X104396190Y-70434819D01*
X104396190Y-70434819D02*
X104300952Y-70387200D01*
X104300952Y-70387200D02*
X104253333Y-70339580D01*
X104253333Y-70339580D02*
X104158095Y-70196723D01*
X104158095Y-70196723D02*
X104110476Y-70006247D01*
X104110476Y-70006247D02*
X104110476Y-69625295D01*
X104110476Y-69625295D02*
X104158095Y-69530057D01*
X104158095Y-69530057D02*
X104205714Y-69482438D01*
X104205714Y-69482438D02*
X104300952Y-69434819D01*
X104300952Y-69434819D02*
X104491428Y-69434819D01*
X104491428Y-69434819D02*
X104586666Y-69482438D01*
X104586666Y-69482438D02*
X104634285Y-69530057D01*
X104634285Y-69530057D02*
X104681904Y-69625295D01*
X104681904Y-69625295D02*
X104681904Y-69863390D01*
X104681904Y-69863390D02*
X104634285Y-69958628D01*
X104634285Y-69958628D02*
X104586666Y-70006247D01*
X104586666Y-70006247D02*
X104491428Y-70053866D01*
X104491428Y-70053866D02*
X104300952Y-70053866D01*
X104300952Y-70053866D02*
X104205714Y-70006247D01*
X104205714Y-70006247D02*
X104158095Y-69958628D01*
X104158095Y-69958628D02*
X104110476Y-69863390D01*
X31278094Y-70854819D02*
X31278094Y-69854819D01*
X31278094Y-70331009D02*
X30706666Y-70331009D01*
X30706666Y-70854819D02*
X30706666Y-69854819D01*
X29706666Y-70854819D02*
X30278094Y-70854819D01*
X29992380Y-70854819D02*
X29992380Y-69854819D01*
X29992380Y-69854819D02*
X30087618Y-69997676D01*
X30087618Y-69997676D02*
X30182856Y-70092914D01*
X30182856Y-70092914D02*
X30278094Y-70140533D01*
X29087618Y-69854819D02*
X28992380Y-69854819D01*
X28992380Y-69854819D02*
X28897142Y-69902438D01*
X28897142Y-69902438D02*
X28849523Y-69950057D01*
X28849523Y-69950057D02*
X28801904Y-70045295D01*
X28801904Y-70045295D02*
X28754285Y-70235771D01*
X28754285Y-70235771D02*
X28754285Y-70473866D01*
X28754285Y-70473866D02*
X28801904Y-70664342D01*
X28801904Y-70664342D02*
X28849523Y-70759580D01*
X28849523Y-70759580D02*
X28897142Y-70807200D01*
X28897142Y-70807200D02*
X28992380Y-70854819D01*
X28992380Y-70854819D02*
X29087618Y-70854819D01*
X29087618Y-70854819D02*
X29182856Y-70807200D01*
X29182856Y-70807200D02*
X29230475Y-70759580D01*
X29230475Y-70759580D02*
X29278094Y-70664342D01*
X29278094Y-70664342D02*
X29325713Y-70473866D01*
X29325713Y-70473866D02*
X29325713Y-70235771D01*
X29325713Y-70235771D02*
X29278094Y-70045295D01*
X29278094Y-70045295D02*
X29230475Y-69950057D01*
X29230475Y-69950057D02*
X29182856Y-69902438D01*
X29182856Y-69902438D02*
X29087618Y-69854819D01*
X180601904Y-70544819D02*
X180601904Y-69544819D01*
X180601904Y-70021009D02*
X180030476Y-70021009D01*
X180030476Y-70544819D02*
X180030476Y-69544819D01*
X179411428Y-69973390D02*
X179506666Y-69925771D01*
X179506666Y-69925771D02*
X179554285Y-69878152D01*
X179554285Y-69878152D02*
X179601904Y-69782914D01*
X179601904Y-69782914D02*
X179601904Y-69735295D01*
X179601904Y-69735295D02*
X179554285Y-69640057D01*
X179554285Y-69640057D02*
X179506666Y-69592438D01*
X179506666Y-69592438D02*
X179411428Y-69544819D01*
X179411428Y-69544819D02*
X179220952Y-69544819D01*
X179220952Y-69544819D02*
X179125714Y-69592438D01*
X179125714Y-69592438D02*
X179078095Y-69640057D01*
X179078095Y-69640057D02*
X179030476Y-69735295D01*
X179030476Y-69735295D02*
X179030476Y-69782914D01*
X179030476Y-69782914D02*
X179078095Y-69878152D01*
X179078095Y-69878152D02*
X179125714Y-69925771D01*
X179125714Y-69925771D02*
X179220952Y-69973390D01*
X179220952Y-69973390D02*
X179411428Y-69973390D01*
X179411428Y-69973390D02*
X179506666Y-70021009D01*
X179506666Y-70021009D02*
X179554285Y-70068628D01*
X179554285Y-70068628D02*
X179601904Y-70163866D01*
X179601904Y-70163866D02*
X179601904Y-70354342D01*
X179601904Y-70354342D02*
X179554285Y-70449580D01*
X179554285Y-70449580D02*
X179506666Y-70497200D01*
X179506666Y-70497200D02*
X179411428Y-70544819D01*
X179411428Y-70544819D02*
X179220952Y-70544819D01*
X179220952Y-70544819D02*
X179125714Y-70497200D01*
X179125714Y-70497200D02*
X179078095Y-70449580D01*
X179078095Y-70449580D02*
X179030476Y-70354342D01*
X179030476Y-70354342D02*
X179030476Y-70163866D01*
X179030476Y-70163866D02*
X179078095Y-70068628D01*
X179078095Y-70068628D02*
X179125714Y-70021009D01*
X179125714Y-70021009D02*
X179220952Y-69973390D01*
X106208094Y-122404819D02*
X106208094Y-121404819D01*
X106208094Y-121881009D02*
X105636666Y-121881009D01*
X105636666Y-122404819D02*
X105636666Y-121404819D01*
X104636666Y-122404819D02*
X105208094Y-122404819D01*
X104922380Y-122404819D02*
X104922380Y-121404819D01*
X104922380Y-121404819D02*
X105017618Y-121547676D01*
X105017618Y-121547676D02*
X105112856Y-121642914D01*
X105112856Y-121642914D02*
X105208094Y-121690533D01*
X104255713Y-121500057D02*
X104208094Y-121452438D01*
X104208094Y-121452438D02*
X104112856Y-121404819D01*
X104112856Y-121404819D02*
X103874761Y-121404819D01*
X103874761Y-121404819D02*
X103779523Y-121452438D01*
X103779523Y-121452438D02*
X103731904Y-121500057D01*
X103731904Y-121500057D02*
X103684285Y-121595295D01*
X103684285Y-121595295D02*
X103684285Y-121690533D01*
X103684285Y-121690533D02*
X103731904Y-121833390D01*
X103731904Y-121833390D02*
X104303332Y-122404819D01*
X104303332Y-122404819D02*
X103684285Y-122404819D01*
X73909523Y-25804819D02*
X73909523Y-26519104D01*
X73909523Y-26519104D02*
X73957142Y-26661961D01*
X73957142Y-26661961D02*
X74052380Y-26757200D01*
X74052380Y-26757200D02*
X74195237Y-26804819D01*
X74195237Y-26804819D02*
X74290475Y-26804819D01*
X73480951Y-25900057D02*
X73433332Y-25852438D01*
X73433332Y-25852438D02*
X73338094Y-25804819D01*
X73338094Y-25804819D02*
X73099999Y-25804819D01*
X73099999Y-25804819D02*
X73004761Y-25852438D01*
X73004761Y-25852438D02*
X72957142Y-25900057D01*
X72957142Y-25900057D02*
X72909523Y-25995295D01*
X72909523Y-25995295D02*
X72909523Y-26090533D01*
X72909523Y-26090533D02*
X72957142Y-26233390D01*
X72957142Y-26233390D02*
X73528570Y-26804819D01*
X73528570Y-26804819D02*
X72909523Y-26804819D01*
X72004761Y-25804819D02*
X72480951Y-25804819D01*
X72480951Y-25804819D02*
X72528570Y-26281009D01*
X72528570Y-26281009D02*
X72480951Y-26233390D01*
X72480951Y-26233390D02*
X72385713Y-26185771D01*
X72385713Y-26185771D02*
X72147618Y-26185771D01*
X72147618Y-26185771D02*
X72052380Y-26233390D01*
X72052380Y-26233390D02*
X72004761Y-26281009D01*
X72004761Y-26281009D02*
X71957142Y-26376247D01*
X71957142Y-26376247D02*
X71957142Y-26614342D01*
X71957142Y-26614342D02*
X72004761Y-26709580D01*
X72004761Y-26709580D02*
X72052380Y-26757200D01*
X72052380Y-26757200D02*
X72147618Y-26804819D01*
X72147618Y-26804819D02*
X72385713Y-26804819D01*
X72385713Y-26804819D02*
X72480951Y-26757200D01*
X72480951Y-26757200D02*
X72528570Y-26709580D01*
X181278094Y-122514819D02*
X181278094Y-121514819D01*
X181278094Y-121991009D02*
X180706666Y-121991009D01*
X180706666Y-122514819D02*
X180706666Y-121514819D01*
X179706666Y-122514819D02*
X180278094Y-122514819D01*
X179992380Y-122514819D02*
X179992380Y-121514819D01*
X179992380Y-121514819D02*
X180087618Y-121657676D01*
X180087618Y-121657676D02*
X180182856Y-121752914D01*
X180182856Y-121752914D02*
X180278094Y-121800533D01*
X178754285Y-122514819D02*
X179325713Y-122514819D01*
X179039999Y-122514819D02*
X179039999Y-121514819D01*
X179039999Y-121514819D02*
X179135237Y-121657676D01*
X179135237Y-121657676D02*
X179230475Y-121752914D01*
X179230475Y-121752914D02*
X179325713Y-121800533D01*
X121169123Y-115411657D02*
X121169123Y-116125942D01*
X121169123Y-116125942D02*
X121216742Y-116268799D01*
X121216742Y-116268799D02*
X121311980Y-116364038D01*
X121311980Y-116364038D02*
X121454837Y-116411657D01*
X121454837Y-116411657D02*
X121550075Y-116411657D01*
X120740551Y-115506895D02*
X120692932Y-115459276D01*
X120692932Y-115459276D02*
X120597694Y-115411657D01*
X120597694Y-115411657D02*
X120359599Y-115411657D01*
X120359599Y-115411657D02*
X120264361Y-115459276D01*
X120264361Y-115459276D02*
X120216742Y-115506895D01*
X120216742Y-115506895D02*
X120169123Y-115602133D01*
X120169123Y-115602133D02*
X120169123Y-115697371D01*
X120169123Y-115697371D02*
X120216742Y-115840228D01*
X120216742Y-115840228D02*
X120788170Y-116411657D01*
X120788170Y-116411657D02*
X120169123Y-116411657D01*
X119835789Y-115411657D02*
X119169123Y-115411657D01*
X119169123Y-115411657D02*
X119597694Y-116411657D01*
X60784523Y-24554819D02*
X60784523Y-25269104D01*
X60784523Y-25269104D02*
X60832142Y-25411961D01*
X60832142Y-25411961D02*
X60927380Y-25507200D01*
X60927380Y-25507200D02*
X61070237Y-25554819D01*
X61070237Y-25554819D02*
X61165475Y-25554819D01*
X60355951Y-24650057D02*
X60308332Y-24602438D01*
X60308332Y-24602438D02*
X60213094Y-24554819D01*
X60213094Y-24554819D02*
X59974999Y-24554819D01*
X59974999Y-24554819D02*
X59879761Y-24602438D01*
X59879761Y-24602438D02*
X59832142Y-24650057D01*
X59832142Y-24650057D02*
X59784523Y-24745295D01*
X59784523Y-24745295D02*
X59784523Y-24840533D01*
X59784523Y-24840533D02*
X59832142Y-24983390D01*
X59832142Y-24983390D02*
X60403570Y-25554819D01*
X60403570Y-25554819D02*
X59784523Y-25554819D01*
X58927380Y-24554819D02*
X59117856Y-24554819D01*
X59117856Y-24554819D02*
X59213094Y-24602438D01*
X59213094Y-24602438D02*
X59260713Y-24650057D01*
X59260713Y-24650057D02*
X59355951Y-24792914D01*
X59355951Y-24792914D02*
X59403570Y-24983390D01*
X59403570Y-24983390D02*
X59403570Y-25364342D01*
X59403570Y-25364342D02*
X59355951Y-25459580D01*
X59355951Y-25459580D02*
X59308332Y-25507200D01*
X59308332Y-25507200D02*
X59213094Y-25554819D01*
X59213094Y-25554819D02*
X59022618Y-25554819D01*
X59022618Y-25554819D02*
X58927380Y-25507200D01*
X58927380Y-25507200D02*
X58879761Y-25459580D01*
X58879761Y-25459580D02*
X58832142Y-25364342D01*
X58832142Y-25364342D02*
X58832142Y-25126247D01*
X58832142Y-25126247D02*
X58879761Y-25031009D01*
X58879761Y-25031009D02*
X58927380Y-24983390D01*
X58927380Y-24983390D02*
X59022618Y-24935771D01*
X59022618Y-24935771D02*
X59213094Y-24935771D01*
X59213094Y-24935771D02*
X59308332Y-24983390D01*
X59308332Y-24983390D02*
X59355951Y-25031009D01*
X59355951Y-25031009D02*
X59403570Y-25126247D01*
D11*
%TO.C,J25*%
X70600000Y-24350000D02*
X70600000Y-25600000D01*
X70600000Y-25600000D02*
X71850000Y-25600000D01*
X70900000Y-20580000D02*
X70900000Y-25300000D01*
X70900000Y-25300000D02*
X79020000Y-25300000D01*
X71510000Y-21190000D02*
X71510000Y-24690000D01*
X71510000Y-22690000D02*
X70900000Y-22690000D01*
X71510000Y-23990000D02*
X70900000Y-23990000D01*
X71510000Y-24690000D02*
X73460000Y-24690000D01*
X72360000Y-25300000D02*
X72360000Y-25500000D01*
X72360000Y-25400000D02*
X72660000Y-25400000D01*
X72360000Y-25500000D02*
X72660000Y-25500000D01*
X72660000Y-25500000D02*
X72660000Y-25300000D01*
X73460000Y-24690000D02*
X73460000Y-25300000D01*
X73860000Y-21690000D02*
X73860000Y-21190000D01*
X73960000Y-21690000D02*
X73960000Y-21190000D01*
X74060000Y-21190000D02*
X74060000Y-21690000D01*
X74060000Y-21690000D02*
X73860000Y-21690000D01*
X75860000Y-21690000D02*
X75860000Y-21190000D01*
X75960000Y-21690000D02*
X75960000Y-21190000D01*
X76060000Y-21190000D02*
X76060000Y-21690000D01*
X76060000Y-21690000D02*
X75860000Y-21690000D01*
X76460000Y-24690000D02*
X78410000Y-24690000D01*
X76460000Y-25300000D02*
X76460000Y-24690000D01*
X78410000Y-21190000D02*
X71510000Y-21190000D01*
X78410000Y-22690000D02*
X79020000Y-22690000D01*
X78410000Y-23990000D02*
X79020000Y-23990000D01*
X78410000Y-24690000D02*
X78410000Y-21190000D01*
X79020000Y-20580000D02*
X70900000Y-20580000D01*
X79020000Y-25300000D02*
X79020000Y-20580000D01*
D12*
%TO.C,J27*%
X114980000Y-63555600D02*
X114980000Y-121505600D01*
D11*
X116380000Y-117965600D02*
X116380000Y-67045600D01*
D12*
X118480000Y-60005243D02*
X118980000Y-60005600D01*
D11*
X118980000Y-67045600D02*
X116380000Y-67045600D01*
X118980000Y-69645600D02*
X118980000Y-67045600D01*
X121580000Y-67045600D02*
X120250000Y-67045600D01*
X121580000Y-68375600D02*
X121580000Y-67045600D01*
X121580000Y-69645600D02*
X118980000Y-69645600D01*
X121580000Y-117965600D02*
X116380000Y-117965600D01*
X121580000Y-117965600D02*
X121580000Y-69645600D01*
X151050000Y-117820600D02*
X151050000Y-119150600D01*
X151050000Y-120420600D02*
X151050000Y-123020600D01*
X152380000Y-117820600D02*
X151050000Y-117820600D01*
X152685000Y-81255600D02*
X152685000Y-73515600D01*
X153650000Y-117820600D02*
X153650000Y-120420600D01*
X153650000Y-120420600D02*
X151050000Y-120420600D01*
X155285000Y-73515600D02*
X152685000Y-73515600D01*
X155285000Y-76115600D02*
X155285000Y-73515600D01*
X157885000Y-73515600D02*
X156555000Y-73515600D01*
X157885000Y-74845600D02*
X157885000Y-73515600D01*
X157885000Y-76115600D02*
X155285000Y-76115600D01*
X157885000Y-81255600D02*
X152685000Y-81255600D01*
X157885000Y-81255600D02*
X157885000Y-76115600D01*
X158790000Y-117820600D02*
X153650000Y-117820600D01*
X158790000Y-117820600D02*
X158790000Y-123020600D01*
X158790000Y-123020600D02*
X151050000Y-123020600D01*
D12*
X167730000Y-125005600D02*
X118230000Y-125005600D01*
X167980000Y-60005600D02*
X118980000Y-60005600D01*
X167980000Y-125005600D02*
X167730000Y-125005600D01*
X171480000Y-121505600D02*
X171480000Y-63505600D01*
X114980000Y-63555600D02*
G75*
G02*
X118480000Y-60005243I3500000J50000D01*
G01*
X118480000Y-125005600D02*
G75*
G02*
X114980000Y-121505600I0J3500000D01*
G01*
X167980000Y-60005600D02*
G75*
G02*
X171480000Y-63505600I1J-3499999D01*
G01*
X171480000Y-121505600D02*
G75*
G02*
X167980000Y-125005600I-3499999J-1D01*
G01*
X120631000Y-63505600D02*
G75*
G02*
X117329000Y-63505600I-1651000J0D01*
G01*
X117329000Y-63505600D02*
G75*
G02*
X120631000Y-63505600I1651000J0D01*
G01*
X120631000Y-121505600D02*
G75*
G02*
X117329000Y-121505600I-1651000J0D01*
G01*
X117329000Y-121505600D02*
G75*
G02*
X120631000Y-121505600I1651000J0D01*
G01*
X169631000Y-63505600D02*
G75*
G02*
X166329000Y-63505600I-1651000J0D01*
G01*
X166329000Y-63505600D02*
G75*
G02*
X169631000Y-63505600I1651000J0D01*
G01*
X169631000Y-121505600D02*
G75*
G02*
X166329000Y-121505600I-1651000J0D01*
G01*
X166329000Y-121505600D02*
G75*
G02*
X169631000Y-121505600I1651000J0D01*
G01*
D11*
%TO.C,J26*%
X61670000Y-24360000D02*
X61670000Y-25610000D01*
X61670000Y-25610000D02*
X62920000Y-25610000D01*
X61970000Y-20590000D02*
X61970000Y-25310000D01*
X61970000Y-25310000D02*
X70090000Y-25310000D01*
X62580000Y-21200000D02*
X62580000Y-24700000D01*
X62580000Y-22700000D02*
X61970000Y-22700000D01*
X62580000Y-24000000D02*
X61970000Y-24000000D01*
X62580000Y-24700000D02*
X64530000Y-24700000D01*
X63430000Y-25310000D02*
X63430000Y-25510000D01*
X63430000Y-25410000D02*
X63730000Y-25410000D01*
X63430000Y-25510000D02*
X63730000Y-25510000D01*
X63730000Y-25510000D02*
X63730000Y-25310000D01*
X64530000Y-24700000D02*
X64530000Y-25310000D01*
X64930000Y-21700000D02*
X64930000Y-21200000D01*
X65030000Y-21700000D02*
X65030000Y-21200000D01*
X65130000Y-21200000D02*
X65130000Y-21700000D01*
X65130000Y-21700000D02*
X64930000Y-21700000D01*
X66930000Y-21700000D02*
X66930000Y-21200000D01*
X67030000Y-21700000D02*
X67030000Y-21200000D01*
X67130000Y-21200000D02*
X67130000Y-21700000D01*
X67130000Y-21700000D02*
X66930000Y-21700000D01*
X67530000Y-24700000D02*
X69480000Y-24700000D01*
X67530000Y-25310000D02*
X67530000Y-24700000D01*
X69480000Y-21200000D02*
X62580000Y-21200000D01*
X69480000Y-22700000D02*
X70090000Y-22700000D01*
X69480000Y-24000000D02*
X70090000Y-24000000D01*
X69480000Y-24700000D02*
X69480000Y-21200000D01*
X70090000Y-20590000D02*
X61970000Y-20590000D01*
X70090000Y-25310000D02*
X70090000Y-20590000D01*
%TD*%
M02*
