M48
; DRILL file KiCad 10.0.1-10.0.1~ubuntu25.10.1 date 2026-04-23T07:27:45
; FORMAT={-:-/ absolute / metric / decimal}
; #@! TF.CreationDate,2026-04-23T07:27:45+00:00
; #@! TF.GenerationSoftware,Kicad,Pcbnew,10.0.1-10.0.1~ubuntu25.10.1
; #@! TF.FileFunction,MixedPlating,1,2
FMAT,2
METRIC
; #@! TA.AperFunction,Plated,PTH,ViaDrill
T1C0.300
; #@! TA.AperFunction,Plated,PTH,ComponentDrill
T2C0.300
; #@! TA.AperFunction,Plated,PTH,ComponentDrill
T3C0.350
; #@! TA.AperFunction,Plated,PTH,ViaDrill
T4C0.400
; #@! TA.AperFunction,Plated,PTH,ComponentDrill
T5C0.450
; #@! TA.AperFunction,Plated,PTH,ComponentDrill
T6C0.650
; #@! TA.AperFunction,Plated,PTH,ComponentDrill
T7C0.700
; #@! TA.AperFunction,Plated,PTH,ComponentDrill
T8C0.750
; #@! TA.AperFunction,Plated,PTH,ViaDrill
T9C0.800
; #@! TA.AperFunction,Plated,PTH,ComponentDrill
T10C0.800
; #@! TA.AperFunction,Plated,PTH,ComponentDrill
T11C0.950
; #@! TA.AperFunction,Plated,PTH,ComponentDrill
T12C1.000
; #@! TA.AperFunction,Plated,PTH,ComponentDrill
T13C1.300
; #@! TA.AperFunction,Plated,PTH,ComponentDrill
T14C1.321
; #@! TA.AperFunction,Plated,PTH,ComponentDrill
T15C1.400
; #@! TA.AperFunction,Plated,PTH,ComponentDrill
T16C2.300
; #@! TA.AperFunction,Plated,PTH,ComponentDrill
T17C2.600
; #@! TA.AperFunction,NonPlated,NPTH,ComponentDrill
T18C0.500
; #@! TA.AperFunction,NonPlated,NPTH,ComponentDrill
T19C1.200
; #@! TA.AperFunction,NonPlated,NPTH,ComponentDrill
T20C2.700
; #@! TA.AperFunction,NonPlated,NPTH,ComponentDrill
T21C3.700
%
G90
G05
T1
X54.322Y-41.971
X56.18Y-41.756
X100.804Y-50.556
X101.66Y-43.41
X101.8Y-45.56
X109.955Y-45.487
T2
X157.57Y-41.75
X157.57Y-43.05
X158.87Y-41.75
X158.87Y-43.05
X160.17Y-41.75
X160.17Y-43.05
X161.47Y-41.75
X161.47Y-43.05
T3
X106.125Y-44.325
X106.125Y-45.6
X106.125Y-46.875
X107.4Y-44.325
X107.4Y-45.6
X107.4Y-46.875
X108.675Y-44.325
X108.675Y-45.6
X108.675Y-46.875
T4
X24.6Y-69.5
X24.6Y-121.5
X26.95Y-58.05
X31.665Y-29.068
X35.5Y-69.4
X37.0Y-123.1
X39.615Y-22.794
X40.15Y-54.49
X40.19Y-58.12
X41.571Y-22.743
X41.65Y-116.07
X42.23Y-116.884
X46.9Y-52.7
X47.0Y-49.65
X47.0Y-51.7
X47.01Y-46.14
X47.02Y-40.85
X47.4Y-38.3
X47.865Y-43.64
X48.3Y-37.5
X48.48Y-54.468
X48.7Y-39.3
X49.325Y-41.865
X50.19Y-108.52
X50.221Y-107.52
X50.36Y-54.468
X50.55Y-61.29
X50.8Y-44.6
X50.8Y-45.95
X50.8Y-47.35
X52.15Y-44.6
X52.19Y-45.95
X52.2Y-47.35
X52.29Y-54.468
X53.138Y-58.49
X53.6Y-44.6
X53.6Y-46.0
X53.6Y-47.35
X53.789Y-54.061
X54.1Y-51.93
X54.246Y-50.76
X55.5Y-75.0
X55.5Y-78.0
X55.5Y-80.5
X55.5Y-83.0
X55.5Y-85.5
X55.5Y-88.0
X55.5Y-90.5
X55.5Y-93.0
X55.5Y-95.5
X55.55Y-39.25
X55.58Y-48.77
X57.554Y-58.914
X58.0Y-123.9
X58.7Y-48.77
X59.05Y-55.7
X59.45Y-44.832
X59.99Y-50.76
X61.213Y-54.04
X61.264Y-52.64
X61.67Y-48.91
X62.01Y-44.02
X62.13Y-53.64
X63.756Y-58.744
X63.92Y-44.64
X63.98Y-51.57
X68.698Y-53.909
X70.883Y-54.773
X71.67Y-54.773
X73.118Y-54.239
X77.044Y-27.714
X77.495Y-28.646
X77.78Y-33.85
X78.656Y-29.791
X79.437Y-29.122
X82.7Y-90.4
X83.0Y-91.7
X83.2Y-85.4
X83.3Y-86.787
X83.35Y-89.25
X83.4Y-88.1
X83.526Y-92.714
X83.799Y-90.387
X84.0Y-83.1
X84.075Y-84.688
X84.134Y-86.087
X84.5Y-87.599
X84.7Y-83.9
X85.3Y-77.5
X85.3Y-78.5
X85.9Y-86.7
X86.6Y-80.3
X89.5Y-81.5
X89.5Y-87.6
X89.5Y-93.5
X89.5Y-96.0
X89.907Y-73.7
X90.695Y-73.696
X91.482Y-73.721
X91.5Y-54.4
X92.27Y-73.721
X92.8Y-50.3
X92.8Y-53.9
X93.21Y-77.1
X93.701Y-95.522
X94.025Y-86.925
X94.1Y-40.85
X94.3Y-77.3
X94.4Y-125.4
X94.81Y-80.37
X95.289Y-44.906
X95.292Y-48.092
X95.302Y-93.663
X95.538Y-85.894
X95.816Y-92.806
X95.9Y-82.3
X96.059Y-83.599
X96.3Y-89.599
X96.4Y-80.7
X96.522Y-77.768
X97.1Y-87.1
X97.2Y-40.05
X97.4Y-83.001
X97.5Y-84.8
X97.511Y-92.382
X97.684Y-90.399
X98.115Y-40.75
X98.449Y-82.241
X98.557Y-92.2
X98.6Y-42.55
X98.917Y-87.799
X99.6Y-69.5
X99.6Y-121.2
X99.625Y-79.2
X99.8Y-91.2
X101.459Y-54.91
X102.083Y-41.219
X103.3Y-54.6
X103.675Y-51.2
X105.89Y-39.649
X105.97Y-58.44
X106.1Y-56.449
X106.1Y-57.449
X106.1Y-59.431
X106.75Y-75.89
X108.121Y-41.128
X108.47Y-96.399
X108.575Y-54.454
X108.66Y-51.182
X108.7Y-59.574
X109.173Y-58.692
X109.5Y-56.693
X109.5Y-57.693
X109.65Y-95.599
X110.2Y-96.435
X110.3Y-121.0
X110.428Y-39.452
X110.5Y-69.5
X111.1Y-125.5
X111.15Y-82.1
X111.881Y-42.649
X111.948Y-81.497
X112.2Y-52.6
X112.66Y-82.2
X112.793Y-45.434
X112.852Y-42.412
X113.649Y-41.806
X114.185Y-49.2
X114.26Y-78.55
X116.7Y-45.6
X117.15Y-56.05
X117.4Y-46.6
X120.9Y-50.65
X124.0Y-47.5
X124.27Y-50.7
X124.8Y-56.7
X127.3Y-56.7
X134.4Y-54.8
X137.8Y-55.8
X139.5Y-44.6
X141.2Y-54.8
X142.5Y-46.4
X143.273Y-49.921
X143.659Y-51.831
X144.205Y-51.285
X144.5Y-125.4
X145.95Y-42.75
X146.662Y-36.231
X147.1Y-46.05
X148.2Y-49.235
X148.8Y-44.35
X149.087Y-50.7
X150.0Y-57.4
X150.4Y-125.5
X151.15Y-44.3
X151.706Y-55.6
X153.5Y-35.5
X153.5Y-37.0
X153.5Y-38.5
X153.5Y-40.0
X153.5Y-41.5
X153.5Y-43.0
X153.5Y-44.5
X154.3Y-24.0
X154.34Y-27.7
X155.0Y-35.5
X155.0Y-37.0
X155.312Y-54.95
X155.48Y-52.26
X155.5Y-23.0
X155.5Y-32.0
X155.897Y-55.458
X156.2Y-25.9
X156.455Y-55.992
X157.0Y-32.0
X157.065Y-55.484
X157.5Y-23.0
X157.6Y-52.25
X159.5Y-23.0
X159.64Y-52.29
X161.5Y-23.0
X161.5Y-47.0
X161.52Y-52.29
X161.6Y-49.3
X164.0Y-32.0
X164.0Y-35.5
X164.0Y-37.5
X165.5Y-35.5
X165.5Y-37.5
X165.5Y-39.5
X165.5Y-41.5
X165.5Y-43.5
X165.5Y-45.5
X166.133Y-23.099
X167.0Y-30.5
X167.0Y-32.0
X167.0Y-35.5
X167.0Y-37.5
X167.0Y-39.5
X167.0Y-41.5
X167.0Y-43.5
X167.0Y-45.5
X168.5Y-30.5
X169.0Y-50.0
X169.1Y-51.8
X174.6Y-69.5
X174.7Y-121.5
X178.8Y-93.8
X185.4Y-69.5
X185.4Y-121.5
T8
X64.03Y-23.5
X66.03Y-23.5
X68.03Y-23.5
X72.96Y-23.49
X74.96Y-23.49
X76.96Y-23.49
T9
X71.188Y-40.523
X71.213Y-45.425
X103.925Y-41.175
X121.175Y-52.918
X130.27Y-58.862
T11
X46.08Y-31.75
X48.58Y-31.75
X50.58Y-31.75
X53.08Y-31.75
T12
X60.25Y-31.5
X60.25Y-34.0
X60.25Y-36.5
X74.75Y-31.5
X74.75Y-36.5
X102.145Y-81.3
X104.685Y-81.3
X107.225Y-81.3
X117.71Y-68.376
X117.71Y-70.916
X117.71Y-73.456
X117.71Y-75.996
X117.71Y-78.536
X117.71Y-81.076
X117.71Y-83.616
X117.71Y-86.156
X117.71Y-88.696
X117.71Y-91.236
X117.71Y-93.776
X117.71Y-96.316
X117.71Y-98.856
X117.71Y-101.396
X117.71Y-103.936
X117.71Y-106.476
X117.71Y-109.016
X117.71Y-111.556
X117.71Y-114.096
X117.71Y-116.636
X120.25Y-68.376
X120.25Y-70.916
X120.25Y-73.456
X120.25Y-75.996
X120.25Y-78.536
X120.25Y-81.076
X120.25Y-83.616
X120.25Y-86.156
X120.25Y-88.696
X120.25Y-91.236
X120.25Y-93.776
X120.25Y-96.316
X120.25Y-98.856
X120.25Y-101.396
X120.25Y-103.936
X120.25Y-106.476
X120.25Y-109.016
X120.25Y-111.556
X120.25Y-114.096
X120.25Y-116.636
X129.315Y-44.45
X131.855Y-44.45
X134.395Y-44.45
X135.25Y-31.5
X135.25Y-34.0
X135.25Y-36.5
X149.75Y-31.5
X149.75Y-36.5
X152.38Y-119.151
X152.38Y-121.691
X154.015Y-74.846
X154.015Y-77.386
X154.015Y-79.926
X154.92Y-119.151
X154.92Y-121.691
X156.555Y-74.846
X156.555Y-77.386
X156.555Y-79.926
X157.46Y-119.151
X157.46Y-121.691
T13
X175.637Y-23.199
X175.637Y-28.199
T14
X82.5Y-32.0
X85.0Y-22.0
X85.0Y-34.5
X87.5Y-22.0
X90.0Y-32.0
X92.5Y-22.0
X95.0Y-22.0
X95.0Y-34.5
X97.5Y-32.0
X112.5Y-32.0
X115.0Y-22.0
X115.0Y-34.5
X117.5Y-22.0
X120.0Y-32.0
X122.5Y-22.0
X125.0Y-22.0
X125.0Y-34.5
X127.5Y-32.0
T15
X21.7Y-33.77
X21.7Y-50.0
X21.7Y-74.77
X21.7Y-91.0
X21.7Y-94.97
X21.7Y-111.2
X28.05Y-33.77
X28.05Y-50.0
X28.05Y-74.77
X28.05Y-91.0
X28.05Y-94.97
X28.05Y-111.2
X34.4Y-33.77
X34.4Y-50.0
X34.4Y-74.77
X34.4Y-91.0
X34.4Y-94.97
X34.4Y-111.2
X175.6Y-74.78
X175.6Y-91.01
X175.6Y-94.995
X175.6Y-111.225
X175.615Y-33.8
X175.615Y-50.03
X181.95Y-74.78
X181.95Y-91.01
X181.95Y-94.995
X181.95Y-111.225
X181.965Y-33.8
X181.965Y-50.03
X188.3Y-74.78
X188.3Y-91.01
X188.3Y-94.995
X188.3Y-111.225
X188.315Y-33.8
X188.315Y-50.03
T16
X43.01Y-29.04
X56.15Y-29.04
T17
X67.75Y-28.4
X67.75Y-39.6
X142.75Y-28.4
X142.75Y-39.6
T18
X80.1Y-21.075
X80.1Y-22.075
X80.1Y-23.075
X80.1Y-24.075
X80.1Y-25.075
X80.1Y-26.075
X80.1Y-30.075
X80.1Y-31.075
X80.1Y-32.075
X80.1Y-33.075
X80.1Y-34.075
X80.1Y-35.075
X80.1Y-36.075
X81.1Y-36.075
X82.1Y-36.075
X83.1Y-36.075
X84.1Y-36.075
X85.1Y-36.075
X86.1Y-36.075
X87.1Y-36.075
X88.1Y-36.075
X89.1Y-36.075
X90.1Y-36.075
X91.1Y-36.075
X92.1Y-36.075
X93.1Y-36.075
X94.1Y-36.075
X95.1Y-36.075
X96.1Y-36.075
X97.1Y-36.075
X98.1Y-36.075
X99.1Y-36.075
X100.1Y-36.075
X101.1Y-36.075
X102.1Y-36.075
X103.1Y-36.075
X104.1Y-36.075
X105.1Y-36.075
X106.1Y-36.075
X107.1Y-36.075
X108.1Y-36.075
X109.1Y-36.075
X110.1Y-36.075
X111.1Y-36.075
X112.1Y-36.075
X113.1Y-36.075
X114.1Y-36.075
X115.1Y-36.075
X116.1Y-36.075
X117.1Y-36.075
X118.1Y-36.075
X119.1Y-36.075
X120.1Y-36.075
X121.1Y-36.075
X122.1Y-36.075
X123.1Y-36.075
X124.1Y-36.075
X125.1Y-36.075
X126.1Y-36.075
X127.1Y-36.075
X128.1Y-36.075
X129.1Y-36.075
X130.1Y-21.075
X130.1Y-22.075
X130.1Y-23.075
X130.1Y-24.075
X130.1Y-25.075
X130.1Y-26.075
X130.1Y-27.075
X130.1Y-28.075
X130.1Y-29.075
X130.1Y-30.075
X130.1Y-31.075
X130.1Y-32.075
X130.1Y-33.075
X130.1Y-34.075
X130.1Y-35.075
X130.1Y-36.075
T19
X84.995Y-24.5
X89.995Y-29.5
X94.995Y-24.5
X115.0Y-24.5
X120.0Y-29.5
X125.0Y-24.5
T20
X25.0Y-23.0
X42.0Y-128.0
X56.0Y-63.5
X56.0Y-111.5
X89.0Y-63.5
X89.0Y-111.5
X105.0Y-98.0
X118.98Y-121.52
X119.0Y-63.5
X168.0Y-63.5
X168.0Y-121.5
X168.0Y-128.0
X185.006Y-22.994
T21
X30.0Y-67.0
X30.0Y-119.0
X105.0Y-67.0
X105.0Y-119.0
X180.0Y-67.0
X180.0Y-119.0
T5
G00X84.995Y-29.025
M15
G01X84.995Y-29.975
M16
G05
G00X87.495Y-29.025
M15
G01X87.495Y-29.975
M16
G05
G00X90.469Y-24.5
M15
G01X89.519Y-24.5
M16
G05
G00X92.495Y-29.975
M15
G01X92.495Y-29.025
M16
G05
G00X94.995Y-29.975
M15
G01X94.995Y-29.025
M16
G05
G00X115.0Y-29.025
M15
G01X115.0Y-29.975
M16
G05
G00X117.5Y-29.025
M15
G01X117.5Y-29.975
M16
G05
G00X120.475Y-24.5
M15
G01X119.525Y-24.5
M16
G05
G00X122.5Y-29.975
M15
G01X122.5Y-29.025
M16
G05
G00X125.0Y-29.975
M15
G01X125.0Y-29.025
M16
G05
T6
G00X22.355Y-54.055
M15
G01X22.755Y-54.055
M16
G05
G00X22.355Y-58.895
M15
G01X22.755Y-58.895
M16
G05
T7
G00X19.305Y-53.745
M15
G01X19.805Y-53.745
M16
G05
G00X19.305Y-59.205
M15
G01X19.805Y-59.205
M16
G05
T10
G00X171.737Y-26.289
M15
G01X171.737Y-28.489
M16
G05
G00X177.637Y-24.589
M15
G01X175.437Y-24.589
M16
G05
G00X177.837Y-30.389
M15
G01X175.237Y-30.389
M16
G05
M30
