%TF.GenerationSoftware,KiCad,Pcbnew,9.0.7+1*%
%TF.CreationDate,2026-04-18T12:33:56+00:00*%
%TF.ProjectId,pedalboard-hw,70656461-6c62-46f6-9172-642d68772e6b,4.0.1-RC*%
%TF.SameCoordinates,Original*%
%TF.FileFunction,Other,User*%
%FSLAX46Y46*%
G04 Gerber Fmt 4.6, Leading zero omitted, Abs format (unit mm)*
G04 Created by KiCad (PCBNEW 9.0.7+1) date 2026-04-18 12:33:56*
%MOMM*%
%LPD*%
G01*
G04 APERTURE LIST*
%ADD10C,0.050000*%
G04 APERTURE END LIST*
D10*
%TO.C,H13*%
X33200000Y-119000000D02*
G75*
G02*
X26800000Y-119000000I-3200000J0D01*
G01*
X26800000Y-119000000D02*
G75*
G02*
X33200000Y-119000000I3200000J0D01*
G01*
%TO.C,H9*%
X108200000Y-67000000D02*
G75*
G02*
X101800000Y-67000000I-3200000J0D01*
G01*
X101800000Y-67000000D02*
G75*
G02*
X108200000Y-67000000I3200000J0D01*
G01*
%TO.C,H10*%
X33200000Y-67000000D02*
G75*
G02*
X26800000Y-67000000I-3200000J0D01*
G01*
X26800000Y-67000000D02*
G75*
G02*
X33200000Y-67000000I3200000J0D01*
G01*
%TO.C,H8*%
X183200000Y-67000000D02*
G75*
G02*
X176800000Y-67000000I-3200000J0D01*
G01*
X176800000Y-67000000D02*
G75*
G02*
X183200000Y-67000000I3200000J0D01*
G01*
%TO.C,H12*%
X108200000Y-119000000D02*
G75*
G02*
X101800000Y-119000000I-3200000J0D01*
G01*
X101800000Y-119000000D02*
G75*
G02*
X108200000Y-119000000I3200000J0D01*
G01*
%TO.C,J25*%
X70510000Y-20190000D02*
X70510000Y-25690000D01*
X70510000Y-25690000D02*
X79410000Y-25690000D01*
X79410000Y-20190000D02*
X70510000Y-20190000D01*
X79410000Y-25690000D02*
X79410000Y-20190000D01*
%TO.C,H11*%
X183200000Y-119000000D02*
G75*
G02*
X176800000Y-119000000I-3200000J0D01*
G01*
X176800000Y-119000000D02*
G75*
G02*
X183200000Y-119000000I3200000J0D01*
G01*
%TO.C,J27*%
X115910000Y-66575600D02*
X115910000Y-118375600D01*
X115910000Y-118375600D02*
X122010000Y-118375600D01*
X122010000Y-66575600D02*
X115910000Y-66575600D01*
X122010000Y-118375600D02*
X122010000Y-66575600D01*
X150580000Y-117390600D02*
X150580000Y-123490600D01*
X150580000Y-123490600D02*
X159230000Y-123490600D01*
X152215000Y-73045600D02*
X152215000Y-81695600D01*
X152215000Y-81695600D02*
X158315000Y-81695600D01*
X158315000Y-73045600D02*
X152215000Y-73045600D01*
X158315000Y-81695600D02*
X158315000Y-73045600D01*
X159230000Y-117390600D02*
X150580000Y-117390600D01*
X159230000Y-123490600D02*
X159230000Y-117390600D01*
%TO.C,J26*%
X61580000Y-20200000D02*
X61580000Y-25700000D01*
X61580000Y-25700000D02*
X70480000Y-25700000D01*
X70480000Y-20200000D02*
X61580000Y-20200000D01*
X70480000Y-25700000D02*
X70480000Y-20200000D01*
%TD*%
M02*
