%TF.GenerationSoftware,KiCad,Pcbnew,9.0.7+1*%
%TF.CreationDate,2026-04-18T09:55:15+00:00*%
%TF.ProjectId,pedalboard-hw,70656461-6c62-46f6-9172-642d68772e6b,4.0.1-RC*%
%TF.SameCoordinates,Original*%
%TF.FileFunction,Soldermask,Top*%
%TF.FilePolarity,Negative*%
%FSLAX46Y46*%
G04 Gerber Fmt 4.6, Leading zero omitted, Abs format (unit mm)*
G04 Created by KiCad (PCBNEW 9.0.7+1) date 2026-04-18 09:55:15*
%MOMM*%
%LPD*%
G01*
G04 APERTURE LIST*
G04 Aperture macros list*
%AMRoundRect*
0 Rectangle with rounded corners*
0 $1 Rounding radius*
0 $2 $3 $4 $5 $6 $7 $8 $9 X,Y pos of 4 corners*
0 Add a 4 corners polygon primitive as box body*
4,1,4,$2,$3,$4,$5,$6,$7,$8,$9,$2,$3,0*
0 Add four circle primitives for the rounded corners*
1,1,$1+$1,$2,$3*
1,1,$1+$1,$4,$5*
1,1,$1+$1,$6,$7*
1,1,$1+$1,$8,$9*
0 Add four rect primitives between the rounded corners*
20,1,$1+$1,$2,$3,$4,$5,0*
20,1,$1+$1,$4,$5,$6,$7,0*
20,1,$1+$1,$6,$7,$8,$9,0*
20,1,$1+$1,$8,$9,$2,$3,0*%
%AMFreePoly0*
4,1,23,0.500000,-0.750000,0.000000,-0.750000,0.000000,-0.745722,-0.065263,-0.745722,-0.191342,-0.711940,-0.304381,-0.646677,-0.396677,-0.554381,-0.461940,-0.441342,-0.495722,-0.315263,-0.495722,-0.250000,-0.500000,-0.250000,-0.500000,0.250000,-0.495722,0.250000,-0.495722,0.315263,-0.461940,0.441342,-0.396677,0.554381,-0.304381,0.646677,-0.191342,0.711940,-0.065263,0.745722,0.000000,0.745722,
0.000000,0.750000,0.500000,0.750000,0.500000,-0.750000,0.500000,-0.750000,$1*%
%AMFreePoly1*
4,1,23,0.000000,0.745722,0.065263,0.745722,0.191342,0.711940,0.304381,0.646677,0.396677,0.554381,0.461940,0.441342,0.495722,0.315263,0.495722,0.250000,0.500000,0.250000,0.500000,-0.250000,0.495722,-0.250000,0.495722,-0.315263,0.461940,-0.441342,0.396677,-0.554381,0.304381,-0.646677,0.191342,-0.711940,0.065263,-0.745722,0.000000,-0.745722,0.000000,-0.750000,-0.500000,-0.750000,
-0.500000,0.750000,0.000000,0.750000,0.000000,0.745722,0.000000,0.745722,$1*%
%AMFreePoly2*
4,1,17,0.553688,1.285921,1.285921,0.553688,1.300800,0.517767,1.300800,-0.517767,1.285921,-0.553688,0.553688,-1.285921,0.517767,-1.300800,-0.517767,-1.300800,-0.553688,-1.285921,-1.285921,-0.553688,-1.300800,-0.517767,-1.300800,0.517767,-1.285921,0.553688,-0.553688,1.285921,-0.517767,1.300800,0.517767,1.300800,0.553688,1.285921,0.553688,1.285921,$1*%
%AMFreePoly3*
4,1,14,0.935921,1.035921,0.950800,1.000000,0.950800,-0.100000,0.935921,-0.135921,0.035921,-1.035921,0.000000,-1.050800,-0.900000,-1.050800,-0.935921,-1.035921,-0.950800,-1.000000,-0.950800,1.000000,-0.935921,1.035921,-0.900000,1.050800,0.900000,1.050800,0.935921,1.035921,0.935921,1.035921,$1*%
%AMFreePoly4*
4,1,14,0.935921,1.035921,0.950800,1.000000,0.950800,-1.000000,0.935921,-1.035921,0.900000,-1.050800,0.000000,-1.050800,-0.035921,-1.035921,-0.935921,-0.135921,-0.950800,-0.100000,-0.950800,1.000000,-0.935921,1.035921,-0.900000,1.050800,0.900000,1.050800,0.935921,1.035921,0.935921,1.035921,$1*%
G04 Aperture macros list end*
%ADD10C,0.010000*%
%ADD11R,2.000000X2.000000*%
%ADD12RoundRect,0.250000X0.262500X0.450000X-0.262500X0.450000X-0.262500X-0.450000X0.262500X-0.450000X0*%
%ADD13RoundRect,0.250000X-0.262500X-0.450000X0.262500X-0.450000X0.262500X0.450000X-0.262500X0.450000X0*%
%ADD14RoundRect,0.250000X-0.250000X-0.475000X0.250000X-0.475000X0.250000X0.475000X-0.250000X0.475000X0*%
%ADD15RoundRect,0.250000X0.475000X-0.250000X0.475000X0.250000X-0.475000X0.250000X-0.475000X-0.250000X0*%
%ADD16C,2.700000*%
%ADD17C,3.000000*%
%ADD18O,1.200000X2.200000*%
%ADD19O,2.200000X1.200000*%
%ADD20RoundRect,0.250000X-0.475000X0.250000X-0.475000X-0.250000X0.475000X-0.250000X0.475000X0.250000X0*%
%ADD21R,4.400000X1.800000*%
%ADD22O,4.000000X1.800000*%
%ADD23O,1.800000X4.000000*%
%ADD24RoundRect,0.375000X0.625000X0.375000X-0.625000X0.375000X-0.625000X-0.375000X0.625000X-0.375000X0*%
%ADD25RoundRect,0.500000X0.500000X1.400000X-0.500000X1.400000X-0.500000X-1.400000X0.500000X-1.400000X0*%
%ADD26RoundRect,0.250000X1.050000X-1.050000X1.050000X1.050000X-1.050000X1.050000X-1.050000X-1.050000X0*%
%ADD27C,2.600000*%
%ADD28RoundRect,0.250000X0.250000X0.475000X-0.250000X0.475000X-0.250000X-0.475000X0.250000X-0.475000X0*%
%ADD29RoundRect,0.250000X0.785000X1.045000X-0.785000X1.045000X-0.785000X-1.045000X0.785000X-1.045000X0*%
%ADD30R,1.700000X0.900000*%
%ADD31RoundRect,0.250000X-0.450000X0.262500X-0.450000X-0.262500X0.450000X-0.262500X0.450000X0.262500X0*%
%ADD32FreePoly0,0.000000*%
%ADD33FreePoly1,0.000000*%
%ADD34R,2.400000X2.000000*%
%ADD35R,1.700000X1.700000*%
%ADD36C,1.700000*%
%ADD37R,1.400000X1.100000*%
%ADD38RoundRect,0.250000X0.450000X-0.262500X0.450000X0.262500X-0.450000X0.262500X-0.450000X-0.262500X0*%
%ADD39C,0.600000*%
%ADD40RoundRect,0.243750X0.243750X0.456250X-0.243750X0.456250X-0.243750X-0.456250X0.243750X-0.456250X0*%
%ADD41R,2.000000X1.800000*%
%ADD42FreePoly0,180.000000*%
%ADD43FreePoly1,180.000000*%
%ADD44FreePoly2,180.000000*%
%ADD45FreePoly2,270.000000*%
%ADD46FreePoly3,180.000000*%
%ADD47RoundRect,0.050800X0.900000X1.000000X-0.900000X1.000000X-0.900000X-1.000000X0.900000X-1.000000X0*%
%ADD48FreePoly4,180.000000*%
%ADD49C,2.000000*%
%ADD50C,3.200000*%
%ADD51R,3.400000X2.710000*%
%ADD52RoundRect,0.150000X-0.150000X0.737500X-0.150000X-0.737500X0.150000X-0.737500X0.150000X0.737500X0*%
%ADD53RoundRect,0.150000X0.150000X-0.512500X0.150000X0.512500X-0.150000X0.512500X-0.150000X-0.512500X0*%
%ADD54RoundRect,0.102000X-0.300000X-1.100000X0.300000X-1.100000X0.300000X1.100000X-0.300000X1.100000X0*%
%ADD55R,1.650000X0.400000*%
%ADD56R,0.700000X1.825000*%
%ADD57R,1.500000X2.000000*%
%ADD58R,2.000000X1.350000*%
%ADD59O,1.700000X1.350000*%
%ADD60O,1.500000X1.100000*%
%ADD61R,2.500000X1.430000*%
%ADD62FreePoly0,90.000000*%
%ADD63FreePoly1,90.000000*%
%ADD64RoundRect,0.062500X-0.062500X0.350000X-0.062500X-0.350000X0.062500X-0.350000X0.062500X0.350000X0*%
%ADD65RoundRect,0.062500X-0.350000X0.062500X-0.350000X-0.062500X0.350000X-0.062500X0.350000X0.062500X0*%
%ADD66R,3.700000X3.700000*%
%ADD67R,1.300000X0.800000*%
%ADD68R,1.100000X0.250000*%
%ADD69RoundRect,0.050000X0.050000X-0.387500X0.050000X0.387500X-0.050000X0.387500X-0.050000X-0.387500X0*%
%ADD70RoundRect,0.050000X0.387500X-0.050000X0.387500X0.050000X-0.387500X0.050000X-0.387500X-0.050000X0*%
%ADD71RoundRect,0.144000X1.456000X-1.456000X1.456000X1.456000X-1.456000X1.456000X-1.456000X-1.456000X0*%
%ADD72RoundRect,0.243750X-0.456250X0.243750X-0.456250X-0.243750X0.456250X-0.243750X0.456250X0.243750X0*%
%ADD73RoundRect,0.218750X-0.256250X0.218750X-0.256250X-0.218750X0.256250X-0.218750X0.256250X0.218750X0*%
%ADD74RoundRect,0.250000X-0.300000X0.300000X-0.300000X-0.300000X0.300000X-0.300000X0.300000X0.300000X0*%
%ADD75R,1.600000X1.500000*%
%ADD76C,1.600000*%
%ADD77RoundRect,0.218750X-0.218750X-0.256250X0.218750X-0.256250X0.218750X0.256250X-0.218750X0.256250X0*%
%ADD78RoundRect,0.250000X0.312500X1.450000X-0.312500X1.450000X-0.312500X-1.450000X0.312500X-1.450000X0*%
%ADD79RoundRect,0.250000X2.500000X-0.250000X2.500000X0.250000X-2.500000X0.250000X-2.500000X-0.250000X0*%
%ADD80RoundRect,0.250000X1.250000X-0.550000X1.250000X0.550000X-1.250000X0.550000X-1.250000X-0.550000X0*%
%ADD81RoundRect,0.150000X0.150000X-0.650000X0.150000X0.650000X-0.150000X0.650000X-0.150000X-0.650000X0*%
%ADD82C,6.100000*%
%ADD83R,0.700000X0.200000*%
%ADD84RoundRect,0.075000X0.200000X-0.075000X0.200000X0.075000X-0.200000X0.075000X-0.200000X-0.075000X0*%
%ADD85RoundRect,0.100000X-0.225000X-0.100000X0.225000X-0.100000X0.225000X0.100000X-0.225000X0.100000X0*%
%ADD86R,5.100000X2.350000*%
%ADD87RoundRect,0.150000X0.512500X0.150000X-0.512500X0.150000X-0.512500X-0.150000X0.512500X-0.150000X0*%
%ADD88C,6.000000*%
%ADD89RoundRect,0.250000X-0.350000X-0.625000X0.350000X-0.625000X0.350000X0.625000X-0.350000X0.625000X0*%
%ADD90O,1.200000X1.750000*%
%ADD91O,1.700000X1.700000*%
G04 APERTURE END LIST*
%TO.C,JP3*%
G36*
X49399998Y-101900000D02*
G01*
X49699998Y-101900000D01*
X49699998Y-103400000D01*
X49399998Y-103400000D01*
X49399998Y-101900000D01*
G37*
%TO.C,JP6*%
G36*
X147350000Y-127850000D02*
G01*
X147050000Y-127850000D01*
X147050000Y-126350000D01*
X147350000Y-126350000D01*
X147350000Y-127850000D01*
G37*
%TO.C,JP5*%
G36*
X147650000Y-123750000D02*
G01*
X147350000Y-123750000D01*
X147350000Y-122250000D01*
X147650000Y-122250000D01*
X147650000Y-123750000D01*
G37*
D10*
%TO.C,Q1*%
X158360000Y-26758370D02*
X157557320Y-26758370D01*
X157557320Y-24360000D01*
X158360000Y-24360000D01*
X158360000Y-26758370D01*
G36*
X158360000Y-26758370D02*
G01*
X157557320Y-26758370D01*
X157557320Y-24360000D01*
X158360000Y-24360000D01*
X158360000Y-26758370D01*
G37*
X158360000Y-31961440D02*
X157559130Y-31961440D01*
X157559130Y-29560000D01*
X158360000Y-29560000D01*
X158360000Y-31961440D01*
G36*
X158360000Y-31961440D02*
G01*
X157559130Y-31961440D01*
X157559130Y-29560000D01*
X158360000Y-29560000D01*
X158360000Y-31961440D01*
G37*
X159610000Y-26757440D02*
X158808080Y-26757440D01*
X158808080Y-24360000D01*
X159610000Y-24360000D01*
X159610000Y-26757440D01*
G36*
X159610000Y-26757440D02*
G01*
X158808080Y-26757440D01*
X158808080Y-24360000D01*
X159610000Y-24360000D01*
X159610000Y-26757440D01*
G37*
X159610000Y-31962790D02*
X158809230Y-31962790D01*
X158809230Y-29560000D01*
X159610000Y-29560000D01*
X159610000Y-31962790D01*
G36*
X159610000Y-31962790D02*
G01*
X158809230Y-31962790D01*
X158809230Y-29560000D01*
X159610000Y-29560000D01*
X159610000Y-31962790D01*
G37*
X160910000Y-26758000D02*
X160110357Y-26758000D01*
X160110357Y-24360000D01*
X160910000Y-24360000D01*
X160910000Y-26758000D01*
G36*
X160910000Y-26758000D02*
G01*
X160110357Y-26758000D01*
X160110357Y-24360000D01*
X160910000Y-24360000D01*
X160910000Y-26758000D01*
G37*
X160910000Y-31967460D02*
X160110490Y-31967460D01*
X160110490Y-29560000D01*
X160910000Y-29560000D01*
X160910000Y-31967460D01*
G36*
X160910000Y-31967460D02*
G01*
X160110490Y-31967460D01*
X160110490Y-29560000D01*
X160910000Y-29560000D01*
X160910000Y-31967460D01*
G37*
X162160000Y-26758280D02*
X161361840Y-26758280D01*
X161361840Y-24360000D01*
X162160000Y-24360000D01*
X162160000Y-26758280D01*
G36*
X162160000Y-26758280D02*
G01*
X161361840Y-26758280D01*
X161361840Y-24360000D01*
X162160000Y-24360000D01*
X162160000Y-26758280D01*
G37*
%TO.C,JP4*%
G36*
X168150000Y-115150000D02*
G01*
X169650000Y-115150000D01*
X169650000Y-114850000D01*
X168150000Y-114850000D01*
X168150000Y-115150000D01*
G37*
%TO.C,JP2*%
G36*
X96050000Y-75650000D02*
G01*
X97550000Y-75650000D01*
X97550000Y-75350000D01*
X96050000Y-75350000D01*
X96050000Y-75650000D01*
G37*
%TO.C,JP1*%
G36*
X93550000Y-75650000D02*
G01*
X95050000Y-75650000D01*
X95050000Y-75350000D01*
X93550000Y-75350000D01*
X93550000Y-75650000D01*
G37*
%TD*%
D11*
%TO.C,TP3*%
X164760000Y-56860000D03*
%TD*%
D12*
%TO.C,R18*%
X150762500Y-45250000D03*
X148937500Y-45250000D03*
%TD*%
D13*
%TO.C,R21*%
X110977500Y-54810000D03*
X112802500Y-54810000D03*
%TD*%
D14*
%TO.C,C23*%
X114800000Y-44270000D03*
X116700000Y-44270000D03*
%TD*%
D15*
%TO.C,C48*%
X47010000Y-43910000D03*
X47010000Y-42010000D03*
%TD*%
D16*
%TO.C,H7*%
X168000000Y-121500000D03*
%TD*%
D17*
%TO.C,FID1*%
X20000000Y-28000000D03*
%TD*%
D13*
%TO.C,R10*%
X98487500Y-44460000D03*
X100312500Y-44460000D03*
%TD*%
D18*
%TO.C,J3*%
X125000000Y-29500000D03*
X122500000Y-29500000D03*
D19*
X120000000Y-24500000D03*
D18*
X115000000Y-29500000D03*
X117500000Y-29500000D03*
%TD*%
D15*
%TO.C,C21*%
X99440000Y-40800000D03*
X99440000Y-38900000D03*
%TD*%
D20*
%TO.C,C49*%
X47010000Y-46790000D03*
X47010000Y-48690000D03*
%TD*%
D15*
%TO.C,C29*%
X155840000Y-48110000D03*
X155840000Y-46210000D03*
%TD*%
D17*
%TO.C,FID2*%
X190005615Y-27994385D03*
%TD*%
D11*
%TO.C,TP1*%
X153220000Y-32930000D03*
%TD*%
D13*
%TO.C,R9*%
X94025000Y-55850000D03*
X95850000Y-55850000D03*
%TD*%
D17*
%TO.C,J8*%
X28050000Y-50000000D03*
X28050000Y-33770000D03*
X21700000Y-50000000D03*
X21700000Y-33770000D03*
X34400000Y-50000000D03*
X34400000Y-33770000D03*
%TD*%
%TO.C,J19*%
X28050000Y-111200000D03*
X28050000Y-94970000D03*
X21700000Y-111200000D03*
X21700000Y-94970000D03*
X34400000Y-111200000D03*
X34400000Y-94970000D03*
%TD*%
D15*
%TO.C,C28*%
X156650000Y-54170000D03*
X156650000Y-52270000D03*
%TD*%
D21*
%TO.C,J7*%
X176537200Y-30388600D03*
D22*
X176537200Y-24588600D03*
D23*
X171737200Y-27388600D03*
%TD*%
D24*
%TO.C,U5*%
X126040000Y-56350000D03*
X126040000Y-54050000D03*
D25*
X119740000Y-54050000D03*
D24*
X126040000Y-51750000D03*
%TD*%
D12*
%TO.C,R20*%
X140680100Y-46136600D03*
X138855100Y-46136600D03*
%TD*%
D26*
%TO.C,J6*%
X175637200Y-28198600D03*
D27*
X175637200Y-23198600D03*
%TD*%
D28*
%TO.C,C24*%
X122760000Y-49420000D03*
X120860000Y-49420000D03*
%TD*%
D15*
%TO.C,C44*%
X49980000Y-41210000D03*
X49980000Y-39310000D03*
%TD*%
D29*
%TO.C,C43*%
X39535000Y-29042400D03*
X33295000Y-29042400D03*
%TD*%
D30*
%TO.C,SW4*%
X124010000Y-46560000D03*
X124010000Y-43160000D03*
%TD*%
D13*
%TO.C,R6*%
X98487500Y-46360000D03*
X100312500Y-46360000D03*
%TD*%
D14*
%TO.C,C45*%
X57290000Y-43990000D03*
X59190000Y-43990000D03*
%TD*%
D28*
%TO.C,C15*%
X95837500Y-53850000D03*
X93937500Y-53850000D03*
%TD*%
D31*
%TO.C,R29*%
X72991000Y-47205300D03*
X72991000Y-49030300D03*
%TD*%
D32*
%TO.C,JP3*%
X48899998Y-102650000D03*
D33*
X50199998Y-102650000D03*
%TD*%
D15*
%TO.C,C42*%
X41524600Y-25877600D03*
X41524600Y-23977600D03*
%TD*%
D34*
%TO.C,Y1*%
X66840000Y-46270000D03*
X66840000Y-49970000D03*
%TD*%
D29*
%TO.C,C33*%
X157899000Y-57414200D03*
X151659000Y-57414200D03*
%TD*%
D13*
%TO.C,R8*%
X94025000Y-51850000D03*
X95850000Y-51850000D03*
%TD*%
D17*
%TO.C,J20*%
X28050000Y-91000000D03*
X28050000Y-74770000D03*
X21700000Y-91000000D03*
X21700000Y-74770000D03*
X34400000Y-91000000D03*
X34400000Y-74770000D03*
%TD*%
%TO.C,J22*%
X181950000Y-94995000D03*
X181950000Y-111225000D03*
X188300000Y-94995000D03*
X188300000Y-111225000D03*
X175600000Y-94995000D03*
X175600000Y-111225000D03*
%TD*%
D35*
%TO.C,J12*%
X129315000Y-44450000D03*
D36*
X131855000Y-44450000D03*
X134395000Y-44450000D03*
%TD*%
D31*
%TO.C,R25*%
X50380000Y-51751900D03*
X50380000Y-53576900D03*
%TD*%
D14*
%TO.C,C34*%
X158690000Y-47110000D03*
X160590000Y-47110000D03*
%TD*%
D31*
%TO.C,R28*%
X52280000Y-51761900D03*
X52280000Y-53586900D03*
%TD*%
D37*
%TO.C,Y2*%
X114900000Y-54887701D03*
X117100000Y-54887701D03*
X117100000Y-53287699D03*
X114900000Y-53287699D03*
%TD*%
D16*
%TO.C,H6*%
X118980000Y-121520000D03*
%TD*%
D38*
%TO.C,R15*%
X155830000Y-44682500D03*
X155830000Y-42857500D03*
%TD*%
D39*
%TO.C,H2*%
X80100000Y-21075000D03*
X80100000Y-22075000D03*
X80100000Y-23075000D03*
X80100000Y-24075000D03*
X80100000Y-25075000D03*
X80100000Y-26075000D03*
X80100000Y-30075000D03*
X80100000Y-31075000D03*
X80100000Y-32075000D03*
X80100000Y-33075000D03*
X80100000Y-34075000D03*
X80100000Y-35075000D03*
X80100000Y-36075000D03*
X81100000Y-36075000D03*
X82100000Y-36075000D03*
X83100000Y-36075000D03*
X84100000Y-36075000D03*
X85100000Y-36075000D03*
X86100000Y-36075000D03*
X87100000Y-36075000D03*
X88100000Y-36075000D03*
X89100000Y-36075000D03*
X90100000Y-36075000D03*
X91100000Y-36075000D03*
X92100000Y-36075000D03*
X93100000Y-36075000D03*
X94100000Y-36075000D03*
X95100000Y-36075000D03*
X96100000Y-36075000D03*
X97100000Y-36075000D03*
X98100000Y-36075000D03*
X99100000Y-36075000D03*
X100100000Y-36075000D03*
X101100000Y-36075000D03*
X102100000Y-36075000D03*
X103100000Y-36075000D03*
X104100000Y-36075000D03*
X105100000Y-36075000D03*
X106100000Y-36075000D03*
X107100000Y-36075000D03*
X108100000Y-36075000D03*
X109100000Y-36075000D03*
X110100000Y-36075000D03*
X111100000Y-36075000D03*
X112100000Y-36075000D03*
X113100000Y-36075000D03*
X114100000Y-36075000D03*
X115100000Y-36075000D03*
X116100000Y-36075000D03*
X117100000Y-36075000D03*
X118100000Y-36075000D03*
X119100000Y-36075000D03*
X120100000Y-36075000D03*
X121100000Y-36075000D03*
X122100000Y-36075000D03*
X123100000Y-36075000D03*
X124100000Y-36075000D03*
X125100000Y-36075000D03*
X126100000Y-36075000D03*
X127100000Y-36075000D03*
X128100000Y-36075000D03*
X129100000Y-36075000D03*
X130100000Y-21075000D03*
X130100000Y-22075000D03*
X130100000Y-23075000D03*
X130100000Y-24075000D03*
X130100000Y-25075000D03*
X130100000Y-26075000D03*
X130100000Y-27075000D03*
X130100000Y-28075000D03*
X130100000Y-29075000D03*
X130100000Y-30075000D03*
X130100000Y-31075000D03*
X130100000Y-32075000D03*
X130100000Y-33075000D03*
X130100000Y-34075000D03*
X130100000Y-35075000D03*
X130100000Y-36075000D03*
%TD*%
D40*
%TO.C,D2*%
X117637500Y-57680000D03*
X115762500Y-57680000D03*
%TD*%
D41*
%TO.C,SW6*%
X98000000Y-64500000D03*
X112000000Y-64500000D03*
X98000000Y-69500000D03*
X112000000Y-69500000D03*
%TD*%
D17*
%TO.C,FID4*%
X190005615Y-122994385D03*
%TD*%
D15*
%TO.C,C8*%
X154420000Y-30620000D03*
X154420000Y-28720000D03*
%TD*%
%TO.C,C37*%
X169130000Y-54680000D03*
X169130000Y-52780000D03*
%TD*%
D38*
%TO.C,R7*%
X137120000Y-44702500D03*
X137120000Y-42877500D03*
%TD*%
D30*
%TO.C,SW3*%
X91510000Y-55350000D03*
X91510000Y-51950000D03*
%TD*%
D38*
%TO.C,R13*%
X163210000Y-45042500D03*
X163210000Y-43217500D03*
%TD*%
D42*
%TO.C,JP6*%
X147850000Y-127100000D03*
D43*
X146550000Y-127100000D03*
%TD*%
D16*
%TO.C,H1*%
X25000000Y-23000000D03*
%TD*%
D15*
%TO.C,C32*%
X160620000Y-54170000D03*
X160620000Y-52270000D03*
%TD*%
D17*
%TO.C,J5*%
X181965000Y-33800000D03*
X181965000Y-50030000D03*
X188315000Y-33800000D03*
X188315000Y-50030000D03*
X175615000Y-33800000D03*
X175615000Y-50030000D03*
%TD*%
D31*
%TO.C,R26*%
X48480000Y-51751900D03*
X48480000Y-53576900D03*
%TD*%
D15*
%TO.C,C30*%
X163210000Y-41670000D03*
X163210000Y-39770000D03*
%TD*%
D42*
%TO.C,JP5*%
X148150000Y-123000000D03*
D43*
X146850000Y-123000000D03*
%TD*%
D31*
%TO.C,R23*%
X45508200Y-59219500D03*
X45508200Y-61044500D03*
%TD*%
D16*
%TO.C,H4*%
X168000000Y-63500000D03*
%TD*%
D44*
%TO.C,J4*%
X112500000Y-32000000D03*
D45*
X120000000Y-32000000D03*
D44*
X127500000Y-32000000D03*
X115000000Y-34500000D03*
X125000000Y-34500000D03*
D46*
X122500000Y-22000000D03*
D47*
X125000000Y-22000000D03*
X115000000Y-22000000D03*
D48*
X117500000Y-22000000D03*
%TD*%
D16*
%TO.C,H5*%
X119000000Y-63500000D03*
%TD*%
D20*
%TO.C,C35*%
X155840000Y-39420000D03*
X155840000Y-41320000D03*
%TD*%
D11*
%TO.C,SW1*%
X60250000Y-31500000D03*
D49*
X60250000Y-36500000D03*
X60250000Y-34000000D03*
D50*
X67750000Y-28400000D03*
X67750000Y-39600000D03*
D49*
X74750000Y-36500000D03*
X74750000Y-31500000D03*
%TD*%
D28*
%TO.C,C9*%
X158750000Y-35690000D03*
X156850000Y-35690000D03*
%TD*%
D51*
%TO.C,U6*%
X159520000Y-42400000D03*
D52*
X161425000Y-39837500D03*
X160155000Y-39837500D03*
X158885000Y-39837500D03*
X157615000Y-39837500D03*
X157615000Y-44962500D03*
X158885000Y-44962500D03*
X160155000Y-44962500D03*
X161425000Y-44962500D03*
%TD*%
D28*
%TO.C,C18*%
X95861200Y-49895800D03*
X93961200Y-49895800D03*
%TD*%
D15*
%TO.C,C41*%
X39564600Y-25877600D03*
X39564600Y-23977600D03*
%TD*%
D12*
%TO.C,R22*%
X43779100Y-59217600D03*
X41954100Y-59217600D03*
%TD*%
D38*
%TO.C,R3*%
X81546600Y-41908900D03*
X81546600Y-40083900D03*
%TD*%
D20*
%TO.C,C19*%
X103350000Y-51750000D03*
X103350000Y-53650000D03*
%TD*%
D53*
%TO.C,U10*%
X72142600Y-53014500D03*
X73092600Y-53014500D03*
X74042600Y-53014500D03*
X74042600Y-50739500D03*
X73092600Y-50739500D03*
X72142600Y-50739500D03*
%TD*%
D16*
%TO.C,H15*%
X168000000Y-128000000D03*
%TD*%
D13*
%TO.C,R27*%
X59787500Y-47980000D03*
X61612500Y-47980000D03*
%TD*%
D14*
%TO.C,C50*%
X26800000Y-59650000D03*
X28700000Y-59650000D03*
%TD*%
D54*
%TO.C,Q1*%
X161765000Y-30760000D03*
%TD*%
D13*
%TO.C,R11*%
X115787500Y-51387700D03*
X117612500Y-51387700D03*
%TD*%
D20*
%TO.C,C51*%
X57700000Y-31800000D03*
X57700000Y-33700000D03*
%TD*%
%TO.C,C1*%
X77800000Y-31250000D03*
X77800000Y-33150000D03*
%TD*%
D14*
%TO.C,C3*%
X160280000Y-33730000D03*
X162180000Y-33730000D03*
%TD*%
D35*
%TO.C,J16*%
X107225000Y-81300000D03*
D36*
X104685000Y-81300000D03*
X102145000Y-81300000D03*
%TD*%
D28*
%TO.C,C2*%
X165780000Y-30730000D03*
X163880000Y-30730000D03*
%TD*%
D17*
%TO.C,J18*%
X181950000Y-74780000D03*
X181950000Y-91010000D03*
X188300000Y-74780000D03*
X188300000Y-91010000D03*
X175600000Y-74780000D03*
X175600000Y-91010000D03*
%TD*%
D15*
%TO.C,C4*%
X164170000Y-24980000D03*
X164170000Y-23080000D03*
%TD*%
D55*
%TO.C,J9*%
X22435000Y-55175000D03*
X22435000Y-55825000D03*
X22435000Y-56475000D03*
X22435000Y-57125000D03*
X22435000Y-57775000D03*
D56*
X21235000Y-53525000D03*
D57*
X22535000Y-53625000D03*
D58*
X20485000Y-53745000D03*
D59*
X19555000Y-53745000D03*
D60*
X22555000Y-54055000D03*
D61*
X19285000Y-55515000D03*
X19285000Y-57435000D03*
D60*
X22555000Y-58895000D03*
D59*
X19555000Y-59205000D03*
D58*
X20485000Y-59225000D03*
D57*
X22555000Y-59375000D03*
D56*
X21235000Y-59475000D03*
%TD*%
D15*
%TO.C,C36*%
X158630000Y-54180000D03*
X158630000Y-52280000D03*
%TD*%
D20*
%TO.C,C40*%
X54350000Y-35300000D03*
X54350000Y-37200000D03*
%TD*%
D62*
%TO.C,JP4*%
X168900000Y-115650000D03*
D63*
X168900000Y-114350000D03*
%TD*%
D41*
%TO.C,SW5*%
X23000000Y-64500000D03*
X37000000Y-64500000D03*
X23000000Y-69500000D03*
X37000000Y-69500000D03*
%TD*%
D64*
%TO.C,U9*%
X54190000Y-43022500D03*
X53690000Y-43022500D03*
X53190000Y-43022500D03*
X52690000Y-43022500D03*
X52190000Y-43022500D03*
X51690000Y-43022500D03*
X51190000Y-43022500D03*
X50690000Y-43022500D03*
X50190000Y-43022500D03*
D65*
X49252500Y-43960000D03*
X49252500Y-44460000D03*
X49252500Y-44960000D03*
X49252500Y-45460000D03*
X49252500Y-45960000D03*
X49252500Y-46460000D03*
X49252500Y-46960000D03*
X49252500Y-47460000D03*
X49252500Y-47960000D03*
D64*
X50190000Y-48897500D03*
X50690000Y-48897500D03*
X51190000Y-48897500D03*
X51690000Y-48897500D03*
X52190000Y-48897500D03*
X52690000Y-48897500D03*
X53190000Y-48897500D03*
X53690000Y-48897500D03*
X54190000Y-48897500D03*
D65*
X55127500Y-47960000D03*
X55127500Y-47460000D03*
X55127500Y-46960000D03*
X55127500Y-46460000D03*
X55127500Y-45960000D03*
X55127500Y-45460000D03*
X55127500Y-44960000D03*
X55127500Y-44460000D03*
X55127500Y-43960000D03*
D66*
X52190000Y-45960000D03*
%TD*%
D67*
%TO.C,U2*%
X85711600Y-38001400D03*
X85711600Y-39271400D03*
X85711600Y-40541400D03*
X95211600Y-40541400D03*
X95211600Y-39271400D03*
X95211600Y-38001400D03*
%TD*%
D68*
%TO.C,U8*%
X58270000Y-58110000D03*
X58270000Y-57610000D03*
X58270000Y-57110000D03*
X58270000Y-56610000D03*
X58270000Y-56110000D03*
X53970000Y-56110000D03*
X53970000Y-56610000D03*
X53970000Y-57110000D03*
X53970000Y-57610000D03*
X53970000Y-58110000D03*
%TD*%
D12*
%TO.C,R4*%
X94121500Y-42391400D03*
X92296500Y-42391400D03*
%TD*%
D38*
%TO.C,R16*%
X109040000Y-78615000D03*
X109040000Y-76790000D03*
%TD*%
D62*
%TO.C,JP2*%
X96800000Y-76150000D03*
D63*
X96800000Y-74850000D03*
%TD*%
D62*
%TO.C,JP1*%
X94300000Y-76150000D03*
D63*
X94300000Y-74850000D03*
%TD*%
D38*
%TO.C,R24*%
X60970000Y-45532500D03*
X60970000Y-43707500D03*
%TD*%
D69*
%TO.C,U3*%
X104800000Y-49037500D03*
X105200000Y-49037500D03*
X105600000Y-49037500D03*
X106000000Y-49037500D03*
X106400000Y-49037500D03*
X106800000Y-49037500D03*
X107200000Y-49037500D03*
X107600000Y-49037500D03*
X108000000Y-49037500D03*
X108400000Y-49037500D03*
X108800000Y-49037500D03*
X109200000Y-49037500D03*
X109600000Y-49037500D03*
X110000000Y-49037500D03*
D70*
X110837500Y-48200000D03*
X110837500Y-47800000D03*
X110837500Y-47400000D03*
X110837500Y-47000000D03*
X110837500Y-46600000D03*
X110837500Y-46200000D03*
X110837500Y-45800000D03*
X110837500Y-45400000D03*
X110837500Y-45000000D03*
X110837500Y-44600000D03*
X110837500Y-44200000D03*
X110837500Y-43800000D03*
X110837500Y-43400000D03*
X110837500Y-43000000D03*
D69*
X110000000Y-42162500D03*
X109600000Y-42162500D03*
X109200000Y-42162500D03*
X108800000Y-42162500D03*
X108400000Y-42162500D03*
X108000000Y-42162500D03*
X107600000Y-42162500D03*
X107200000Y-42162500D03*
X106800000Y-42162500D03*
X106400000Y-42162500D03*
X106000000Y-42162500D03*
X105600000Y-42162500D03*
X105200000Y-42162500D03*
X104800000Y-42162500D03*
D70*
X103962500Y-43000000D03*
X103962500Y-43400000D03*
X103962500Y-43800000D03*
X103962500Y-44200000D03*
X103962500Y-44600000D03*
X103962500Y-45000000D03*
X103962500Y-45400000D03*
X103962500Y-45800000D03*
X103962500Y-46200000D03*
X103962500Y-46600000D03*
X103962500Y-47000000D03*
X103962500Y-47400000D03*
X103962500Y-47800000D03*
X103962500Y-48200000D03*
D71*
X107400000Y-45600000D03*
%TD*%
D28*
%TO.C,C46*%
X52470000Y-60300000D03*
X50570000Y-60300000D03*
%TD*%
D72*
%TO.C,D7*%
X105090000Y-76815000D03*
X105090000Y-78690000D03*
%TD*%
D28*
%TO.C,C38*%
X70588200Y-52943800D03*
X68688200Y-52943800D03*
%TD*%
%TO.C,C27*%
X126180000Y-49450000D03*
X124280000Y-49450000D03*
%TD*%
D14*
%TO.C,C10*%
X160260000Y-35710000D03*
X162160000Y-35710000D03*
%TD*%
D12*
%TO.C,R19*%
X150662500Y-42950000D03*
X148837500Y-42950000D03*
%TD*%
D38*
%TO.C,R12*%
X153910000Y-48042500D03*
X153910000Y-46217500D03*
%TD*%
D14*
%TO.C,C13*%
X107790000Y-39460000D03*
X109690000Y-39460000D03*
%TD*%
D13*
%TO.C,R5*%
X92296500Y-44291400D03*
X94121500Y-44291400D03*
%TD*%
D73*
%TO.C,L4*%
X79821600Y-40408900D03*
X79821600Y-41983900D03*
%TD*%
D74*
%TO.C,D1*%
X83661600Y-40521400D03*
X83661600Y-43321400D03*
%TD*%
D75*
%TO.C,J10*%
X53080000Y-31750000D03*
D76*
X50580000Y-31750000D03*
X48580000Y-31750000D03*
X46080000Y-31750000D03*
D17*
X56150000Y-29040000D03*
X43010000Y-29040000D03*
%TD*%
D28*
%TO.C,C17*%
X103140000Y-38540000D03*
X101240000Y-38540000D03*
%TD*%
D38*
%TO.C,R1*%
X151197600Y-24646300D03*
X151197600Y-22821300D03*
%TD*%
D77*
%TO.C,L1*%
X80234100Y-43421400D03*
X81809100Y-43421400D03*
%TD*%
D28*
%TO.C,C22*%
X114150000Y-51387700D03*
X112250000Y-51387700D03*
%TD*%
D78*
%TO.C,F1*%
X168207500Y-27710000D03*
X163932500Y-27710000D03*
%TD*%
D79*
%TO.C,J28*%
X137800000Y-54800000D03*
X137800000Y-52800000D03*
X137800000Y-50800000D03*
D80*
X135550000Y-57200000D03*
X135550000Y-48400000D03*
%TD*%
D41*
%TO.C,SW10*%
X173000000Y-116500000D03*
X187000000Y-116500000D03*
X173000000Y-121500000D03*
X187000000Y-121500000D03*
%TD*%
D81*
%TO.C,U4*%
X97595000Y-56050000D03*
X98865000Y-56050000D03*
X100135000Y-56050000D03*
X101405000Y-56050000D03*
X101405000Y-48850000D03*
X100135000Y-48850000D03*
X98865000Y-48850000D03*
X97595000Y-48850000D03*
%TD*%
D20*
%TO.C,C47*%
X55030000Y-50490000D03*
X55030000Y-52390000D03*
%TD*%
D82*
%TO.C,CM1*%
X89000000Y-111500000D03*
X89000000Y-63500000D03*
X56000000Y-111500000D03*
X56000000Y-63500000D03*
D83*
X91000000Y-94800000D03*
X87920000Y-94800000D03*
X91000000Y-94400000D03*
X87920000Y-94400000D03*
X91000000Y-94000000D03*
X87920000Y-94000000D03*
X91000000Y-93600000D03*
X87920000Y-93600000D03*
X91000000Y-93200000D03*
X87920000Y-93200000D03*
X91000000Y-92800000D03*
X87920000Y-92800000D03*
X91000000Y-92400000D03*
X87920000Y-92400000D03*
X91000000Y-92000000D03*
X87920000Y-92000000D03*
X91000000Y-91600000D03*
X87920000Y-91600000D03*
X91000000Y-91200000D03*
X87920000Y-91200000D03*
X91000000Y-90800000D03*
X87920000Y-90800000D03*
X91000000Y-90400000D03*
X87920000Y-90400000D03*
X91000000Y-90000000D03*
X87920000Y-90000000D03*
X91000000Y-89600000D03*
X87920000Y-89600000D03*
X91000000Y-89200000D03*
X87920000Y-89200000D03*
X91000000Y-88800000D03*
X87920000Y-88800000D03*
X91000000Y-88400000D03*
X87920000Y-88400000D03*
X91000000Y-88000000D03*
X87920000Y-88000000D03*
X91000000Y-87600000D03*
X87920000Y-87600000D03*
X91000000Y-87200000D03*
X87920000Y-87200000D03*
X91000000Y-86800000D03*
X87920000Y-86800000D03*
X91000000Y-86400000D03*
X87920000Y-86400000D03*
X91000000Y-86000000D03*
X87920000Y-86000000D03*
X91000000Y-85600000D03*
X87920000Y-85600000D03*
X91000000Y-85200000D03*
X87920000Y-85200000D03*
X91000000Y-84800000D03*
X87920000Y-84800000D03*
X91000000Y-84400000D03*
X87920000Y-84400000D03*
X91000000Y-84000000D03*
X87920000Y-84000000D03*
X91000000Y-83600000D03*
X87920000Y-83600000D03*
X91000000Y-83200000D03*
X87920000Y-83200000D03*
X91000000Y-82800000D03*
X87920000Y-82800000D03*
X91000000Y-82400000D03*
X87920000Y-82400000D03*
X91000000Y-82000000D03*
X87920000Y-82000000D03*
X91000000Y-81600000D03*
X87920000Y-81600000D03*
X91000000Y-81200000D03*
X87920000Y-81200000D03*
X91000000Y-80800000D03*
X87920000Y-80800000D03*
X91000000Y-80400000D03*
X87920000Y-80400000D03*
X91000000Y-80000000D03*
X87920000Y-80000000D03*
X91000000Y-79600000D03*
X87920000Y-79600000D03*
X91000000Y-79200000D03*
X87920000Y-79200000D03*
X91000000Y-78800000D03*
X87920000Y-78800000D03*
X91000000Y-78400000D03*
X87920000Y-78400000D03*
X91000000Y-78000000D03*
X87920000Y-78000000D03*
X91000000Y-77600000D03*
X87920000Y-77600000D03*
X91000000Y-77200000D03*
X87920000Y-77200000D03*
X91000000Y-76800000D03*
X87920000Y-76800000D03*
X91000000Y-76400000D03*
X87920000Y-76400000D03*
X91000000Y-76000000D03*
X87920000Y-76000000D03*
X91000000Y-75600000D03*
X87920000Y-75600000D03*
X91000000Y-75200000D03*
X87920000Y-75200000D03*
X57080000Y-94800000D03*
X54000000Y-94800000D03*
X57080000Y-94400000D03*
X54000000Y-94400000D03*
X57080000Y-94000000D03*
X54000000Y-94000000D03*
X57080000Y-93600000D03*
X54000000Y-93600000D03*
X57080000Y-93200000D03*
X54000000Y-93200000D03*
X57080000Y-92800000D03*
X54000000Y-92800000D03*
X57080000Y-92400000D03*
X54000000Y-92400000D03*
X57080000Y-92000000D03*
X54000000Y-92000000D03*
X57080000Y-91600000D03*
X54000000Y-91600000D03*
X57080000Y-91200000D03*
X54000000Y-91200000D03*
X57080000Y-90800000D03*
X54000000Y-90800000D03*
X57080000Y-90400000D03*
X54000000Y-90400000D03*
X57080000Y-90000000D03*
X54000000Y-90000000D03*
X57080000Y-89600000D03*
X54000000Y-89600000D03*
X57080000Y-89200000D03*
X54000000Y-89200000D03*
X57080000Y-88800000D03*
X54000000Y-88800000D03*
X57080000Y-88400000D03*
X54000000Y-88400000D03*
X57080000Y-88000000D03*
X54000000Y-88000000D03*
X57080000Y-87600000D03*
X54000000Y-87600000D03*
X57080000Y-87200000D03*
X54000000Y-87200000D03*
X57080000Y-86800000D03*
X54000000Y-86800000D03*
X57080000Y-86400000D03*
X54000000Y-86400000D03*
X57080000Y-86000000D03*
X54000000Y-86000000D03*
X57080000Y-85600000D03*
X54000000Y-85600000D03*
X57080000Y-85200000D03*
X54000000Y-85200000D03*
X57080000Y-84800000D03*
X54000000Y-84800000D03*
X57080000Y-84400000D03*
X54000000Y-84400000D03*
X57080000Y-84000000D03*
X54000000Y-84000000D03*
X57080000Y-83600000D03*
X54000000Y-83600000D03*
X57080000Y-83200000D03*
X54000000Y-83200000D03*
X57080000Y-82800000D03*
X54000000Y-82800000D03*
X57080000Y-82400000D03*
X54000000Y-82400000D03*
X57080000Y-82000000D03*
X54000000Y-82000000D03*
X57080000Y-81600000D03*
X54000000Y-81600000D03*
X57080000Y-81200000D03*
X54000000Y-81200000D03*
X57080000Y-80800000D03*
X54000000Y-80800000D03*
X57080000Y-80400000D03*
X54000000Y-80400000D03*
X57080000Y-80000000D03*
X54000000Y-80000000D03*
X57080000Y-79600000D03*
X54000000Y-79600000D03*
X57080000Y-79200000D03*
X54000000Y-79200000D03*
X57080000Y-78800000D03*
X54000000Y-78800000D03*
X57080000Y-78400000D03*
X54000000Y-78400000D03*
X57080000Y-78000000D03*
X54000000Y-78000000D03*
X57080000Y-77600000D03*
X54000000Y-77600000D03*
X57080000Y-77200000D03*
X54000000Y-77200000D03*
X57080000Y-76800000D03*
X54000000Y-76800000D03*
X57080000Y-76400000D03*
X54000000Y-76400000D03*
X57080000Y-76000000D03*
X54000000Y-76000000D03*
X57080000Y-75600000D03*
X54000000Y-75600000D03*
X57080000Y-75200000D03*
X54000000Y-75200000D03*
%TD*%
D17*
%TO.C,FID3*%
X20005615Y-122994385D03*
%TD*%
D41*
%TO.C,SW7*%
X173000000Y-64500000D03*
X187000000Y-64500000D03*
X173000000Y-69500000D03*
X187000000Y-69500000D03*
%TD*%
D28*
%TO.C,C5*%
X158740000Y-37670000D03*
X156840000Y-37670000D03*
%TD*%
D16*
%TO.C,H14*%
X42000000Y-128000000D03*
%TD*%
D28*
%TO.C,C6*%
X158770000Y-33730000D03*
X156870000Y-33730000D03*
%TD*%
D41*
%TO.C,SW8*%
X23000000Y-116500000D03*
X37000000Y-116500000D03*
X23000000Y-121500000D03*
X37000000Y-121500000D03*
%TD*%
D14*
%TO.C,C7*%
X160250000Y-37680000D03*
X162150000Y-37680000D03*
%TD*%
D38*
%TO.C,R17*%
X103190000Y-78665000D03*
X103190000Y-76840000D03*
%TD*%
D20*
%TO.C,C16*%
X113200000Y-46750000D03*
X113200000Y-48650000D03*
%TD*%
D31*
%TO.C,R14*%
X158670000Y-48887500D03*
X158670000Y-50712500D03*
%TD*%
D16*
%TO.C,H3*%
X185005615Y-22994385D03*
%TD*%
D72*
%TO.C,D6*%
X107090000Y-76815000D03*
X107090000Y-78690000D03*
%TD*%
D28*
%TO.C,C14*%
X103150000Y-40500000D03*
X101250000Y-40500000D03*
%TD*%
D77*
%TO.C,L2*%
X89221500Y-43647400D03*
X90796500Y-43647400D03*
%TD*%
D84*
%TO.C,U11*%
X25435000Y-57950000D03*
X25435000Y-57450000D03*
X25435000Y-56950000D03*
X25435000Y-56450000D03*
X25435000Y-55950000D03*
X24665000Y-55950000D03*
X24665000Y-56450000D03*
X24665000Y-56950000D03*
X24665000Y-57450000D03*
X24665000Y-57950000D03*
%TD*%
D11*
%TO.C,TP2*%
X154230000Y-25940000D03*
%TD*%
D15*
%TO.C,C11*%
X63960000Y-47310000D03*
X63960000Y-45410000D03*
%TD*%
D31*
%TO.C,R2*%
X42700000Y-46547500D03*
X42700000Y-48372500D03*
%TD*%
D85*
%TO.C,U1*%
X138800000Y-42850000D03*
X138800000Y-43500000D03*
X138800000Y-44150000D03*
X140700000Y-44150000D03*
X140700000Y-42850000D03*
%TD*%
D11*
%TO.C,SW2*%
X135250000Y-31500000D03*
D49*
X135250000Y-36500000D03*
X135250000Y-34000000D03*
D50*
X142750000Y-28400000D03*
X142750000Y-39600000D03*
D49*
X149750000Y-36500000D03*
X149750000Y-31500000D03*
%TD*%
D16*
%TO.C,H16*%
X105000000Y-98000000D03*
%TD*%
D41*
%TO.C,SW9*%
X98000000Y-116500000D03*
X112000000Y-116500000D03*
X98000000Y-121500000D03*
X112000000Y-121500000D03*
%TD*%
D85*
%TO.C,U7*%
X99640600Y-77202500D03*
X99640600Y-77852500D03*
X99640600Y-78502500D03*
X101540600Y-78502500D03*
X101540600Y-77202500D03*
%TD*%
D20*
%TO.C,C20*%
X108640000Y-51850000D03*
X108640000Y-53750000D03*
%TD*%
D15*
%TO.C,C26*%
X117400000Y-49650000D03*
X117400000Y-47750000D03*
%TD*%
%TO.C,C31*%
X160670000Y-50770000D03*
X160670000Y-48870000D03*
%TD*%
D11*
%TO.C,TP4*%
X113490000Y-57660000D03*
%TD*%
D44*
%TO.C,J2*%
X82500000Y-32000000D03*
D45*
X90000000Y-32000000D03*
D44*
X97500000Y-32000000D03*
X85000000Y-34500000D03*
X95000000Y-34500000D03*
D46*
X92500000Y-22000000D03*
D47*
X95000000Y-22000000D03*
X85000000Y-22000000D03*
D48*
X87500000Y-22000000D03*
%TD*%
D86*
%TO.C,L5*%
X164900000Y-48065000D03*
X164900000Y-52215000D03*
%TD*%
D87*
%TO.C,U12*%
X147137500Y-45450000D03*
X147137500Y-44500000D03*
X147137500Y-43550000D03*
X144862500Y-43550000D03*
X144862500Y-45450000D03*
%TD*%
D20*
%TO.C,C25*%
X63960000Y-48810000D03*
X63960000Y-50710000D03*
%TD*%
D28*
%TO.C,C12*%
X101680000Y-42530000D03*
X99780000Y-42530000D03*
%TD*%
D20*
%TO.C,C52*%
X142900000Y-43550000D03*
X142900000Y-45450000D03*
%TD*%
D79*
%TO.C,J14*%
X146736600Y-55969200D03*
X146736600Y-53969200D03*
X146736600Y-51969200D03*
X146736600Y-49969200D03*
D80*
X144486600Y-58369200D03*
X144486600Y-47569200D03*
%TD*%
D77*
%TO.C,L3*%
X89221500Y-42174200D03*
X90796500Y-42174200D03*
%TD*%
D18*
%TO.C,J1*%
X94994500Y-29500000D03*
X92494500Y-29500000D03*
D19*
X89994500Y-24500000D03*
D18*
X84994500Y-29500000D03*
X87494500Y-29500000D03*
%TD*%
D20*
%TO.C,C39*%
X56310000Y-35300000D03*
X56310000Y-37200000D03*
%TD*%
D88*
%TO.C,H13*%
X30000000Y-119000000D03*
%TD*%
%TO.C,H9*%
X105000000Y-67000000D03*
%TD*%
%TO.C,H10*%
X30000000Y-67000000D03*
%TD*%
%TO.C,H8*%
X180000000Y-67000000D03*
%TD*%
%TO.C,H12*%
X105000000Y-119000000D03*
%TD*%
D89*
%TO.C,J25*%
X72960000Y-23490000D03*
D90*
X74960000Y-23490000D03*
X76960000Y-23490000D03*
%TD*%
D88*
%TO.C,H11*%
X180000000Y-119000000D03*
%TD*%
D35*
%TO.C,J27*%
X120250000Y-68375600D03*
D91*
X117710000Y-68375600D03*
X120250000Y-70915600D03*
X117710000Y-70915600D03*
X120250000Y-73455600D03*
X117710000Y-73455600D03*
X120250000Y-75995600D03*
X117710000Y-75995600D03*
X120250000Y-78535600D03*
X117710000Y-78535600D03*
X120250000Y-81075600D03*
X117710000Y-81075600D03*
X120250000Y-83615600D03*
X117710000Y-83615600D03*
X120250000Y-86155600D03*
X117710000Y-86155600D03*
X120250000Y-88695600D03*
X117710000Y-88695600D03*
X120250000Y-91235600D03*
X117710000Y-91235600D03*
X120250000Y-93775600D03*
X117710000Y-93775600D03*
X120250000Y-96315600D03*
X117710000Y-96315600D03*
X120250000Y-98855600D03*
X117710000Y-98855600D03*
X120250000Y-101395600D03*
X117710000Y-101395600D03*
X120250000Y-103935600D03*
X117710000Y-103935600D03*
X120250000Y-106475600D03*
X117710000Y-106475600D03*
X120250000Y-109015600D03*
X117710000Y-109015600D03*
X120250000Y-111555600D03*
X117710000Y-111555600D03*
X120250000Y-114095600D03*
X117710000Y-114095600D03*
X120250000Y-116635600D03*
X117710000Y-116635600D03*
D35*
X156555000Y-74845600D03*
D91*
X154015000Y-74845600D03*
X156555000Y-77385600D03*
X154015000Y-77385600D03*
X156555000Y-79925600D03*
X154015000Y-79925600D03*
D35*
X152380000Y-119150600D03*
D91*
X152380000Y-121690600D03*
X154920000Y-119150600D03*
X154920000Y-121690600D03*
X157460000Y-119150600D03*
X157460000Y-121690600D03*
%TD*%
D89*
%TO.C,J26*%
X64030000Y-23500000D03*
D90*
X66030000Y-23500000D03*
X68030000Y-23500000D03*
%TD*%
M02*
