<?xml version='1.0' encoding='ASCII' standalone='yes'?>
<svg xmlns="http://www.w3.org/2000/svg" version="1.1" width="297.0022mm" height="210.0072mm" viewBox="0.0000 0.0000 297.0022 210.0072">
            <title>Picture generated by PcbDraw </title>
            <desc>Picture generated by PcbDraw</desc>
        <defs><clipPath id="cut-off"><path d=" M 187.0 20.0 A 1 1 0 0 1 188.0 21.0 L 188.0 23.0 A 3 3 0 0 0 191.0 26.0 A 1 1 0 0 1 192.0 27.0 L 192.0 124.0 A 1 1 0 0 1 191.0 125.0 A 3 3 0 0 0 188.0 128.0 L 188.0 130.0 A 1 1 0 0 1 187.0 131.0 L 110.0 131.0 A 5 5 0 0 0 100.0 131.0 L 23.0 131.0 A 1 1 0 0 1 22.0 130.0 L 22.0 128.0 A 3 3 0 0 0 19.0 125.0 A 1 1 0 0 1 18.0 124.0 L 18.0 27.0 A 1 1 0 0 1 19.0 26.0 A 3 3 0 0 0 22.0 23.0 L 22.0 21.0 A 1 1 0 0 1 23.0 20.0 L 87.8 20.0 L 87.8 21.0 A 0.4 0.4 0 0 0 88.2 21.4 L 91.8 21.4 A 0.4 0.4 0 0 0 92.2 21.0 L 92.2 20.0 L 100.0 20.0 A 5 5 0 0 0 110.0 20.0 L 117.8 20.0 L 117.8 21.0 A 0.4 0.4 0 0 0 118.2 21.4 L 121.8 21.4 A 0.4 0.4 0 0 0 122.2 21.0 L 122.2 20.0 L 187.0 20.0 " style="fill-rule: evenodd;"/></clipPath><mask id="pads-mask-silkscreen"><rect x="14.53" y="12.498942" width="188.787858" height="135.93748" fill="white"/><g style="fill:#000000; fill-opacity:1.0000; stroke:none;">
<circle cx="168.0000" cy="121.5000" r="1.3500"/> 
</g>
<g style="fill:none;  stroke:#000000; stroke-width:1.2000; stroke-opacity:1;  stroke-linecap:round; stroke-linejoin:round;">
<path d="M125.0000 30.0000 L125.0000 29.0000 "/>
<path d="M122.5000 30.0000 L122.5000 29.0000 "/>
<path d="M120.5000 24.5000 L119.5000 24.5000 "/>
<path d="M115.0000 29.0000 L115.0000 30.0000 "/>
<path d="M117.5000 29.0000 L117.5000 30.0000 "/>
</g>
<g style="fill:#000000; fill-opacity:1.0000; stroke:none;">
<circle cx="28.0500" cy="50.0000" r="1.5000"/> 
</g>
<g style="fill:#000000; fill-opacity:1.0000; stroke:none;">
<circle cx="28.0500" cy="33.7700" r="1.5000"/> 
</g>
<g style="fill:#000000; fill-opacity:1.0000; stroke:none;">
<circle cx="21.7000" cy="50.0000" r="1.5000"/> 
</g>
<g style="fill:#000000; fill-opacity:1.0000; stroke:none;">
<circle cx="21.7000" cy="33.7700" r="1.5000"/> 
</g>
<g style="fill:#000000; fill-opacity:1.0000; stroke:none;">
<circle cx="34.4000" cy="50.0000" r="1.5000"/> 
</g>
<g style="fill:#000000; fill-opacity:1.0000; stroke:none;">
<circle cx="34.4000" cy="33.7700" r="1.5000"/> 
</g>
<g style="fill:#000000; fill-opacity:1.0000; stroke:none;">
<circle cx="28.0500" cy="111.2000" r="1.5000"/> 
</g>
<g style="fill:#000000; fill-opacity:1.0000; stroke:none;">
<circle cx="28.0500" cy="94.9700" r="1.5000"/> 
</g>
<g style="fill:#000000; fill-opacity:1.0000; stroke:none;">
<circle cx="21.7000" cy="111.2000" r="1.5000"/> 
</g>
<g style="fill:#000000; fill-opacity:1.0000; stroke:none;">
<circle cx="21.7000" cy="94.9700" r="1.5000"/> 
</g>
<g style="fill:#000000; fill-opacity:1.0000; stroke:none;">
<circle cx="34.4000" cy="111.2000" r="1.5000"/> 
</g>
<g style="fill:#000000; fill-opacity:1.0000; stroke:none;">
<circle cx="34.4000" cy="94.9700" r="1.5000"/> 
<path style="fill:#000000; fill-opacity:1.0000; stroke:none;fill-rule:evenodd;" d="M 178.7372,29.4886 178.7372,31.2886 174.3372,31.2886 174.3372,29.4886 Z"/> 
</g>
<g style="fill:none;  stroke:#000000; stroke-width:1.8000; stroke-opacity:1;  stroke-linecap:round; stroke-linejoin:round;">
<path d="M177.6372 24.5886 L175.4372 24.5886 "/>
<path d="M171.7372 26.2886 L171.7372 28.4886 "/>
<path style="fill:#000000; fill-opacity:1.0000; stroke:none;fill-rule:evenodd;" d="M 174.5872,29.4986 174.4915,29.4796 174.4104,29.4254 174.3562,29.3443 174.3372,29.2486 174.3372,27.1486 174.3562,27.0529 174.4104,26.9718 174.4915,26.9176 174.5872,26.8986 176.6872,26.8986 176.7829,26.9176 176.8640,26.9718 176.9182,27.0529 176.9372,27.1486 176.9372,29.2486 176.9182,29.3443 176.8640,29.4254 176.7829,29.4796 176.6872,29.4986 Z"/> 
</g>
<g style="fill:#000000; fill-opacity:1.0000; stroke:none;">
<circle cx="175.6372" cy="23.1986" r="1.3000"/> 
</g>
<g style="fill:#000000; fill-opacity:1.0000; stroke:none;">
<circle cx="28.0500" cy="91.0000" r="1.5000"/> 
</g>
<g style="fill:#000000; fill-opacity:1.0000; stroke:none;">
<circle cx="28.0500" cy="74.7700" r="1.5000"/> 
</g>
<g style="fill:#000000; fill-opacity:1.0000; stroke:none;">
<circle cx="21.7000" cy="91.0000" r="1.5000"/> 
</g>
<g style="fill:#000000; fill-opacity:1.0000; stroke:none;">
<circle cx="21.7000" cy="74.7700" r="1.5000"/> 
</g>
<g style="fill:#000000; fill-opacity:1.0000; stroke:none;">
<circle cx="34.4000" cy="91.0000" r="1.5000"/> 
</g>
<g style="fill:#000000; fill-opacity:1.0000; stroke:none;">
<circle cx="34.4000" cy="74.7700" r="1.5000"/> 
</g>
<g style="fill:#000000; fill-opacity:1.0000; stroke:none;">
<circle cx="181.9500" cy="94.9950" r="1.5000"/> 
</g>
<g style="fill:#000000; fill-opacity:1.0000; stroke:none;">
<circle cx="181.9500" cy="111.2250" r="1.5000"/> 
</g>
<g style="fill:#000000; fill-opacity:1.0000; stroke:none;">
<circle cx="188.3000" cy="94.9950" r="1.5000"/> 
</g>
<g style="fill:#000000; fill-opacity:1.0000; stroke:none;">
<circle cx="188.3000" cy="111.2250" r="1.5000"/> 
</g>
<g style="fill:#000000; fill-opacity:1.0000; stroke:none;">
<circle cx="175.6000" cy="94.9950" r="1.5000"/> 
</g>
<g style="fill:#000000; fill-opacity:1.0000; stroke:none;">
<circle cx="175.6000" cy="111.2250" r="1.5000"/> 
<path style="fill:#000000; fill-opacity:1.0000; stroke:none;fill-rule:evenodd;" d="M 130.1650,45.3000 128.4650,45.3000 128.4650,43.6000 130.1650,43.6000 Z"/> 
</g>
<g style="fill:#000000; fill-opacity:1.0000; stroke:none;">
<circle cx="131.8550" cy="44.4500" r="0.8500"/> 
</g>
<g style="fill:#000000; fill-opacity:1.0000; stroke:none;">
<circle cx="134.3950" cy="44.4500" r="0.8500"/> 
</g>
<g style="fill:#000000; fill-opacity:1.0000; stroke:none;">
<circle cx="118.9800" cy="121.5200" r="1.3500"/> 
</g>
<g style="fill:#000000; fill-opacity:1.0000; stroke:none;">
<circle cx="80.1000" cy="21.0750" r="0.3000"/> 
</g>
<g style="fill:#000000; fill-opacity:1.0000; stroke:none;">
<circle cx="80.1000" cy="22.0750" r="0.3000"/> 
</g>
<g style="fill:#000000; fill-opacity:1.0000; stroke:none;">
<circle cx="80.1000" cy="23.0750" r="0.3000"/> 
</g>
<g style="fill:#000000; fill-opacity:1.0000; stroke:none;">
<circle cx="80.1000" cy="24.0750" r="0.3000"/> 
</g>
<g style="fill:#000000; fill-opacity:1.0000; stroke:none;">
<circle cx="80.1000" cy="25.0750" r="0.3000"/> 
</g>
<g style="fill:#000000; fill-opacity:1.0000; stroke:none;">
<circle cx="80.1000" cy="26.0750" r="0.3000"/> 
</g>
<g style="fill:#000000; fill-opacity:1.0000; stroke:none;">
<circle cx="80.1000" cy="30.0750" r="0.3000"/> 
</g>
<g style="fill:#000000; fill-opacity:1.0000; stroke:none;">
<circle cx="80.1000" cy="31.0750" r="0.3000"/> 
</g>
<g style="fill:#000000; fill-opacity:1.0000; stroke:none;">
<circle cx="80.1000" cy="32.0750" r="0.3000"/> 
</g>
<g style="fill:#000000; fill-opacity:1.0000; stroke:none;">
<circle cx="80.1000" cy="33.0750" r="0.3000"/> 
</g>
<g style="fill:#000000; fill-opacity:1.0000; stroke:none;">
<circle cx="80.1000" cy="34.0750" r="0.3000"/> 
</g>
<g style="fill:#000000; fill-opacity:1.0000; stroke:none;">
<circle cx="80.1000" cy="35.0750" r="0.3000"/> 
</g>
<g style="fill:#000000; fill-opacity:1.0000; stroke:none;">
<circle cx="80.1000" cy="36.0750" r="0.3000"/> 
</g>
<g style="fill:#000000; fill-opacity:1.0000; stroke:none;">
<circle cx="81.1000" cy="36.0750" r="0.3000"/> 
</g>
<g style="fill:#000000; fill-opacity:1.0000; stroke:none;">
<circle cx="82.1000" cy="36.0750" r="0.3000"/> 
</g>
<g style="fill:#000000; fill-opacity:1.0000; stroke:none;">
<circle cx="83.1000" cy="36.0750" r="0.3000"/> 
</g>
<g style="fill:#000000; fill-opacity:1.0000; stroke:none;">
<circle cx="84.1000" cy="36.0750" r="0.3000"/> 
</g>
<g style="fill:#000000; fill-opacity:1.0000; stroke:none;">
<circle cx="85.1000" cy="36.0750" r="0.3000"/> 
</g>
<g style="fill:#000000; fill-opacity:1.0000; stroke:none;">
<circle cx="86.1000" cy="36.0750" r="0.3000"/> 
</g>
<g style="fill:#000000; fill-opacity:1.0000; stroke:none;">
<circle cx="87.1000" cy="36.0750" r="0.3000"/> 
</g>
<g style="fill:#000000; fill-opacity:1.0000; stroke:none;">
<circle cx="88.1000" cy="36.0750" r="0.3000"/> 
</g>
<g style="fill:#000000; fill-opacity:1.0000; stroke:none;">
<circle cx="89.1000" cy="36.0750" r="0.3000"/> 
</g>
<g style="fill:#000000; fill-opacity:1.0000; stroke:none;">
<circle cx="90.1000" cy="36.0750" r="0.3000"/> 
</g>
<g style="fill:#000000; fill-opacity:1.0000; stroke:none;">
<circle cx="91.1000" cy="36.0750" r="0.3000"/> 
</g>
<g style="fill:#000000; fill-opacity:1.0000; stroke:none;">
<circle cx="92.1000" cy="36.0750" r="0.3000"/> 
</g>
<g style="fill:#000000; fill-opacity:1.0000; stroke:none;">
<circle cx="93.1000" cy="36.0750" r="0.3000"/> 
</g>
<g style="fill:#000000; fill-opacity:1.0000; stroke:none;">
<circle cx="94.1000" cy="36.0750" r="0.3000"/> 
</g>
<g style="fill:#000000; fill-opacity:1.0000; stroke:none;">
<circle cx="95.1000" cy="36.0750" r="0.3000"/> 
</g>
<g style="fill:#000000; fill-opacity:1.0000; stroke:none;">
<circle cx="96.1000" cy="36.0750" r="0.3000"/> 
</g>
<g style="fill:#000000; fill-opacity:1.0000; stroke:none;">
<circle cx="97.1000" cy="36.0750" r="0.3000"/> 
</g>
<g style="fill:#000000; fill-opacity:1.0000; stroke:none;">
<circle cx="98.1000" cy="36.0750" r="0.3000"/> 
</g>
<g style="fill:#000000; fill-opacity:1.0000; stroke:none;">
<circle cx="99.1000" cy="36.0750" r="0.3000"/> 
</g>
<g style="fill:#000000; fill-opacity:1.0000; stroke:none;">
<circle cx="100.1000" cy="36.0750" r="0.3000"/> 
</g>
<g style="fill:#000000; fill-opacity:1.0000; stroke:none;">
<circle cx="101.1000" cy="36.0750" r="0.3000"/> 
</g>
<g style="fill:#000000; fill-opacity:1.0000; stroke:none;">
<circle cx="102.1000" cy="36.0750" r="0.3000"/> 
</g>
<g style="fill:#000000; fill-opacity:1.0000; stroke:none;">
<circle cx="103.1000" cy="36.0750" r="0.3000"/> 
</g>
<g style="fill:#000000; fill-opacity:1.0000; stroke:none;">
<circle cx="104.1000" cy="36.0750" r="0.3000"/> 
</g>
<g style="fill:#000000; fill-opacity:1.0000; stroke:none;">
<circle cx="105.1000" cy="36.0750" r="0.3000"/> 
</g>
<g style="fill:#000000; fill-opacity:1.0000; stroke:none;">
<circle cx="106.1000" cy="36.0750" r="0.3000"/> 
</g>
<g style="fill:#000000; fill-opacity:1.0000; stroke:none;">
<circle cx="107.1000" cy="36.0750" r="0.3000"/> 
</g>
<g style="fill:#000000; fill-opacity:1.0000; stroke:none;">
<circle cx="108.1000" cy="36.0750" r="0.3000"/> 
</g>
<g style="fill:#000000; fill-opacity:1.0000; stroke:none;">
<circle cx="109.1000" cy="36.0750" r="0.3000"/> 
</g>
<g style="fill:#000000; fill-opacity:1.0000; stroke:none;">
<circle cx="110.1000" cy="36.0750" r="0.3000"/> 
</g>
<g style="fill:#000000; fill-opacity:1.0000; stroke:none;">
<circle cx="111.1000" cy="36.0750" r="0.3000"/> 
</g>
<g style="fill:#000000; fill-opacity:1.0000; stroke:none;">
<circle cx="112.1000" cy="36.0750" r="0.3000"/> 
</g>
<g style="fill:#000000; fill-opacity:1.0000; stroke:none;">
<circle cx="113.1000" cy="36.0750" r="0.3000"/> 
</g>
<g style="fill:#000000; fill-opacity:1.0000; stroke:none;">
<circle cx="114.1000" cy="36.0750" r="0.3000"/> 
</g>
<g style="fill:#000000; fill-opacity:1.0000; stroke:none;">
<circle cx="115.1000" cy="36.0750" r="0.3000"/> 
</g>
<g style="fill:#000000; fill-opacity:1.0000; stroke:none;">
<circle cx="116.1000" cy="36.0750" r="0.3000"/> 
</g>
<g style="fill:#000000; fill-opacity:1.0000; stroke:none;">
<circle cx="117.1000" cy="36.0750" r="0.3000"/> 
</g>
<g style="fill:#000000; fill-opacity:1.0000; stroke:none;">
<circle cx="118.1000" cy="36.0750" r="0.3000"/> 
</g>
<g style="fill:#000000; fill-opacity:1.0000; stroke:none;">
<circle cx="119.1000" cy="36.0750" r="0.3000"/> 
</g>
<g style="fill:#000000; fill-opacity:1.0000; stroke:none;">
<circle cx="120.1000" cy="36.0750" r="0.3000"/> 
</g>
<g style="fill:#000000; fill-opacity:1.0000; stroke:none;">
<circle cx="121.1000" cy="36.0750" r="0.3000"/> 
</g>
<g style="fill:#000000; fill-opacity:1.0000; stroke:none;">
<circle cx="122.1000" cy="36.0750" r="0.3000"/> 
</g>
<g style="fill:#000000; fill-opacity:1.0000; stroke:none;">
<circle cx="123.1000" cy="36.0750" r="0.3000"/> 
</g>
<g style="fill:#000000; fill-opacity:1.0000; stroke:none;">
<circle cx="124.1000" cy="36.0750" r="0.3000"/> 
</g>
<g style="fill:#000000; fill-opacity:1.0000; stroke:none;">
<circle cx="125.1000" cy="36.0750" r="0.3000"/> 
</g>
<g style="fill:#000000; fill-opacity:1.0000; stroke:none;">
<circle cx="126.1000" cy="36.0750" r="0.3000"/> 
</g>
<g style="fill:#000000; fill-opacity:1.0000; stroke:none;">
<circle cx="127.1000" cy="36.0750" r="0.3000"/> 
</g>
<g style="fill:#000000; fill-opacity:1.0000; stroke:none;">
<circle cx="128.1000" cy="36.0750" r="0.3000"/> 
</g>
<g style="fill:#000000; fill-opacity:1.0000; stroke:none;">
<circle cx="129.1000" cy="36.0750" r="0.3000"/> 
</g>
<g style="fill:#000000; fill-opacity:1.0000; stroke:none;">
<circle cx="130.1000" cy="21.0750" r="0.3000"/> 
</g>
<g style="fill:#000000; fill-opacity:1.0000; stroke:none;">
<circle cx="130.1000" cy="22.0750" r="0.3000"/> 
</g>
<g style="fill:#000000; fill-opacity:1.0000; stroke:none;">
<circle cx="130.1000" cy="23.0750" r="0.3000"/> 
</g>
<g style="fill:#000000; fill-opacity:1.0000; stroke:none;">
<circle cx="130.1000" cy="24.0750" r="0.3000"/> 
</g>
<g style="fill:#000000; fill-opacity:1.0000; stroke:none;">
<circle cx="130.1000" cy="25.0750" r="0.3000"/> 
</g>
<g style="fill:#000000; fill-opacity:1.0000; stroke:none;">
<circle cx="130.1000" cy="26.0750" r="0.3000"/> 
</g>
<g style="fill:#000000; fill-opacity:1.0000; stroke:none;">
<circle cx="130.1000" cy="27.0750" r="0.3000"/> 
</g>
<g style="fill:#000000; fill-opacity:1.0000; stroke:none;">
<circle cx="130.1000" cy="28.0750" r="0.3000"/> 
</g>
<g style="fill:#000000; fill-opacity:1.0000; stroke:none;">
<circle cx="130.1000" cy="29.0750" r="0.3000"/> 
</g>
<g style="fill:#000000; fill-opacity:1.0000; stroke:none;">
<circle cx="130.1000" cy="30.0750" r="0.3000"/> 
</g>
<g style="fill:#000000; fill-opacity:1.0000; stroke:none;">
<circle cx="130.1000" cy="31.0750" r="0.3000"/> 
</g>
<g style="fill:#000000; fill-opacity:1.0000; stroke:none;">
<circle cx="130.1000" cy="32.0750" r="0.3000"/> 
</g>
<g style="fill:#000000; fill-opacity:1.0000; stroke:none;">
<circle cx="130.1000" cy="33.0750" r="0.3000"/> 
</g>
<g style="fill:#000000; fill-opacity:1.0000; stroke:none;">
<circle cx="130.1000" cy="34.0750" r="0.3000"/> 
</g>
<g style="fill:#000000; fill-opacity:1.0000; stroke:none;">
<circle cx="130.1000" cy="35.0750" r="0.3000"/> 
</g>
<g style="fill:#000000; fill-opacity:1.0000; stroke:none;">
<circle cx="130.1000" cy="36.0750" r="0.3000"/> 
</g>
<g style="fill:#000000; fill-opacity:1.0000; stroke:none;">
<circle cx="25.0000" cy="23.0000" r="1.3500"/> 
</g>
<g style="fill:#000000; fill-opacity:1.0000; stroke:none;">
<circle cx="181.9650" cy="33.8000" r="1.5000"/> 
</g>
<g style="fill:#000000; fill-opacity:1.0000; stroke:none;">
<circle cx="181.9650" cy="50.0300" r="1.5000"/> 
</g>
<g style="fill:#000000; fill-opacity:1.0000; stroke:none;">
<circle cx="188.3150" cy="33.8000" r="1.5000"/> 
</g>
<g style="fill:#000000; fill-opacity:1.0000; stroke:none;">
<circle cx="188.3150" cy="50.0300" r="1.5000"/> 
</g>
<g style="fill:#000000; fill-opacity:1.0000; stroke:none;">
<circle cx="175.6150" cy="33.8000" r="1.5000"/> 
</g>
<g style="fill:#000000; fill-opacity:1.0000; stroke:none;">
<circle cx="175.6150" cy="50.0300" r="1.5000"/> 
</g>
<g style="fill:#000000; fill-opacity:1.0000; stroke:none;">
<circle cx="168.0000" cy="63.5000" r="1.3500"/> 
<path style="fill:#000000; fill-opacity:1.0000; stroke:none;fill-rule:evenodd;" d="M 111.9463,33.2859 111.2141,32.5537 111.1992,32.5178 111.1992,31.4822 111.2141,31.4463 111.9463,30.7141 111.9822,30.6992 113.0178,30.6992 113.0537,30.7141 113.7859,31.4463 113.8008,31.4822 113.8008,32.5178 113.7859,32.5537 113.0537,33.2859 113.0178,33.3008 111.9822,33.3008 Z"/> 
<path style="fill:#000000; fill-opacity:1.0000; stroke:none;fill-rule:evenodd;" d="M 121.2859,32.5537 120.5537,33.2859 120.5178,33.3008 119.4822,33.3008 119.4463,33.2859 118.7141,32.5537 118.6992,32.5178 118.6992,31.4822 118.7141,31.4463 119.4463,30.7141 119.4822,30.6992 120.5178,30.6992 120.5537,30.7141 121.2859,31.4463 121.3008,31.4822 121.3008,32.5178 Z"/> 
<path style="fill:#000000; fill-opacity:1.0000; stroke:none;fill-rule:evenodd;" d="M 126.9463,33.2859 126.2141,32.5537 126.1992,32.5178 126.1992,31.4822 126.2141,31.4463 126.9463,30.7141 126.9822,30.6992 128.0178,30.6992 128.0537,30.7141 128.7859,31.4463 128.8008,31.4822 128.8008,32.5178 128.7859,32.5537 128.0537,33.2859 128.0178,33.3008 126.9822,33.3008 Z"/> 
<path style="fill:#000000; fill-opacity:1.0000; stroke:none;fill-rule:evenodd;" d="M 114.4463,35.7859 113.7141,35.0537 113.6992,35.0178 113.6992,33.9822 113.7141,33.9463 114.4463,33.2141 114.4822,33.1992 115.5178,33.1992 115.5537,33.2141 116.2859,33.9463 116.3008,33.9822 116.3008,35.0178 116.2859,35.0537 115.5537,35.7859 115.5178,35.8008 114.4822,35.8008 Z"/> 
<path style="fill:#000000; fill-opacity:1.0000; stroke:none;fill-rule:evenodd;" d="M 124.4463,35.7859 123.7141,35.0537 123.6992,35.0178 123.6992,33.9822 123.7141,33.9463 124.4463,33.2141 124.4822,33.1992 125.5178,33.1992 125.5537,33.2141 126.2859,33.9463 126.3008,33.9822 126.3008,35.0178 126.2859,35.0537 125.5537,35.7859 125.5178,35.8008 124.4822,35.8008 Z"/> 
<path style="fill:#000000; fill-opacity:1.0000; stroke:none;fill-rule:evenodd;" d="M 121.5641,23.0359 121.5492,23.0000 121.5492,21.9000 121.5641,21.8641 122.4641,20.9641 122.5000,20.9492 123.4000,20.9492 123.4359,20.9641 123.4508,21.0000 123.4508,23.0000 123.4359,23.0359 123.4000,23.0508 121.6000,23.0508 Z"/> 
<path style="fill:#000000; fill-opacity:1.0000; stroke:none;fill-rule:evenodd;" d="M 125.9508,23.0000 125.9469,23.0194 125.9359,23.0359 125.9194,23.0469 125.9000,23.0508 124.1000,23.0508 124.0806,23.0469 124.0641,23.0359 124.0531,23.0194 124.0492,23.0000 124.0492,21.0000 124.0531,20.9806 124.0641,20.9641 124.0806,20.9531 124.1000,20.9492 125.9000,20.9492 125.9194,20.9531 125.9359,20.9641 125.9469,20.9806 125.9508,21.0000 Z"/> 
<path style="fill:#000000; fill-opacity:1.0000; stroke:none;fill-rule:evenodd;" d="M 115.9508,23.0000 115.9469,23.0194 115.9359,23.0359 115.9194,23.0469 115.9000,23.0508 114.1000,23.0508 114.0806,23.0469 114.0641,23.0359 114.0531,23.0194 114.0492,23.0000 114.0492,21.0000 114.0531,20.9806 114.0641,20.9641 114.0806,20.9531 114.1000,20.9492 115.9000,20.9492 115.9194,20.9531 115.9359,20.9641 115.9469,20.9806 115.9508,21.0000 Z"/> 
<path style="fill:#000000; fill-opacity:1.0000; stroke:none;fill-rule:evenodd;" d="M 116.5641,23.0359 116.5492,23.0000 116.5492,21.0000 116.5641,20.9641 116.6000,20.9492 117.5000,20.9492 117.5359,20.9641 118.4359,21.8641 118.4508,21.9000 118.4508,23.0000 118.4359,23.0359 118.4000,23.0508 116.6000,23.0508 Z"/> 
</g>
<g style="fill:#000000; fill-opacity:1.0000; stroke:none;">
<circle cx="119.0000" cy="63.5000" r="1.3500"/> 
<path style="fill:#000000; fill-opacity:1.0000; stroke:none;fill-rule:evenodd;" d="M 59.2500,32.5000 59.2500,30.5000 61.2500,30.5000 61.2500,32.5000 Z"/> 
</g>
<g style="fill:#000000; fill-opacity:1.0000; stroke:none;">
<circle cx="60.2500" cy="36.5000" r="1.0000"/> 
</g>
<g style="fill:#000000; fill-opacity:1.0000; stroke:none;">
<circle cx="60.2500" cy="34.0000" r="1.0000"/> 
</g>
<g style="fill:#000000; fill-opacity:1.0000; stroke:none;">
<circle cx="67.7500" cy="28.4000" r="1.6000"/> 
</g>
<g style="fill:#000000; fill-opacity:1.0000; stroke:none;">
<circle cx="67.7500" cy="39.6000" r="1.6000"/> 
</g>
<g style="fill:#000000; fill-opacity:1.0000; stroke:none;">
<circle cx="74.7500" cy="36.5000" r="1.0000"/> 
</g>
<g style="fill:#000000; fill-opacity:1.0000; stroke:none;">
<circle cx="74.7500" cy="31.5000" r="1.0000"/> 
</g>
<g style="fill:#000000; fill-opacity:1.0000; stroke:none;">
<circle cx="168.0000" cy="128.0000" r="1.3500"/> 
<path style="fill:#000000; fill-opacity:1.0000; stroke:none;fill-rule:evenodd;" d="M 106.3750,80.4500 108.0750,80.4500 108.0750,82.1500 106.3750,82.1500 Z"/> 
</g>
<g style="fill:#000000; fill-opacity:1.0000; stroke:none;">
<circle cx="104.6850" cy="81.3000" r="0.8500"/> 
</g>
<g style="fill:#000000; fill-opacity:1.0000; stroke:none;">
<circle cx="102.1450" cy="81.3000" r="0.8500"/> 
</g>
<g style="fill:#000000; fill-opacity:1.0000; stroke:none;">
<circle cx="181.9500" cy="74.7800" r="1.5000"/> 
</g>
<g style="fill:#000000; fill-opacity:1.0000; stroke:none;">
<circle cx="181.9500" cy="91.0100" r="1.5000"/> 
</g>
<g style="fill:#000000; fill-opacity:1.0000; stroke:none;">
<circle cx="188.3000" cy="74.7800" r="1.5000"/> 
</g>
<g style="fill:#000000; fill-opacity:1.0000; stroke:none;">
<circle cx="188.3000" cy="91.0100" r="1.5000"/> 
</g>
<g style="fill:#000000; fill-opacity:1.0000; stroke:none;">
<circle cx="175.6000" cy="74.7800" r="1.5000"/> 
</g>
<g style="fill:#000000; fill-opacity:1.0000; stroke:none;">
<circle cx="175.6000" cy="91.0100" r="1.5000"/> 
</g>
<g style="fill:none;  stroke:#000000; stroke-width:1.3500; stroke-opacity:1;  stroke-linecap:round; stroke-linejoin:round;">
<path d="M19.3800 53.7450 L19.7300 53.7450 "/>
</g>
<g style="fill:none;  stroke:#000000; stroke-width:1.1000; stroke-opacity:1;  stroke-linecap:round; stroke-linejoin:round;">
<path d="M22.3550 54.0550 L22.7550 54.0550 "/>
<path d="M22.3550 58.8950 L22.7550 58.8950 "/>
</g>
<g style="fill:none;  stroke:#000000; stroke-width:1.3500; stroke-opacity:1;  stroke-linecap:round; stroke-linejoin:round;">
<path d="M19.3800 59.2050 L19.7300 59.2050 "/>
<path style="fill:#000000; fill-opacity:1.0000; stroke:none;fill-rule:evenodd;" d="M 53.8800,31.0000 53.8800,32.5000 52.2800,32.5000 52.2800,31.0000 Z"/> 
</g>
<g style="fill:#000000; fill-opacity:1.0000; stroke:none;">
<circle cx="50.5800" cy="31.7500" r="0.8000"/> 
</g>
<g style="fill:#000000; fill-opacity:1.0000; stroke:none;">
<circle cx="48.5800" cy="31.7500" r="0.8000"/> 
</g>
<g style="fill:#000000; fill-opacity:1.0000; stroke:none;">
<circle cx="46.0800" cy="31.7500" r="0.8000"/> 
</g>
<g style="fill:#000000; fill-opacity:1.0000; stroke:none;">
<circle cx="56.1500" cy="29.0400" r="1.5000"/> 
</g>
<g style="fill:#000000; fill-opacity:1.0000; stroke:none;">
<circle cx="43.0100" cy="29.0400" r="1.5000"/> 
</g>
<g style="fill:#000000; fill-opacity:1.0000; stroke:none;">
<circle cx="89.0000" cy="111.5000" r="3.0500"/> 
</g>
<g style="fill:#000000; fill-opacity:1.0000; stroke:none;">
<circle cx="89.0000" cy="63.5000" r="3.0500"/> 
</g>
<g style="fill:#000000; fill-opacity:1.0000; stroke:none;">
<circle cx="56.0000" cy="111.5000" r="3.0500"/> 
</g>
<g style="fill:#000000; fill-opacity:1.0000; stroke:none;">
<circle cx="56.0000" cy="63.5000" r="3.0500"/> 
</g>
<g style="fill:#000000; fill-opacity:1.0000; stroke:none;">
<circle cx="42.0000" cy="128.0000" r="1.3500"/> 
</g>
<g style="fill:#000000; fill-opacity:1.0000; stroke:none;">
<circle cx="185.0056" cy="22.9944" r="1.3500"/> 
<path style="fill:#000000; fill-opacity:1.0000; stroke:none;fill-rule:evenodd;" d="M 134.2500,32.5000 134.2500,30.5000 136.2500,30.5000 136.2500,32.5000 Z"/> 
</g>
<g style="fill:#000000; fill-opacity:1.0000; stroke:none;">
<circle cx="135.2500" cy="36.5000" r="1.0000"/> 
</g>
<g style="fill:#000000; fill-opacity:1.0000; stroke:none;">
<circle cx="135.2500" cy="34.0000" r="1.0000"/> 
</g>
<g style="fill:#000000; fill-opacity:1.0000; stroke:none;">
<circle cx="142.7500" cy="28.4000" r="1.6000"/> 
</g>
<g style="fill:#000000; fill-opacity:1.0000; stroke:none;">
<circle cx="142.7500" cy="39.6000" r="1.6000"/> 
</g>
<g style="fill:#000000; fill-opacity:1.0000; stroke:none;">
<circle cx="149.7500" cy="36.5000" r="1.0000"/> 
</g>
<g style="fill:#000000; fill-opacity:1.0000; stroke:none;">
<circle cx="149.7500" cy="31.5000" r="1.0000"/> 
</g>
<g style="fill:#000000; fill-opacity:1.0000; stroke:none;">
<circle cx="105.0000" cy="98.0000" r="1.3500"/> 
<path style="fill:#000000; fill-opacity:1.0000; stroke:none;fill-rule:evenodd;" d="M 81.9463,33.2859 81.2141,32.5537 81.1992,32.5178 81.1992,31.4822 81.2141,31.4463 81.9463,30.7141 81.9822,30.6992 83.0178,30.6992 83.0537,30.7141 83.7859,31.4463 83.8008,31.4822 83.8008,32.5178 83.7859,32.5537 83.0537,33.2859 83.0178,33.3008 81.9822,33.3008 Z"/> 
<path style="fill:#000000; fill-opacity:1.0000; stroke:none;fill-rule:evenodd;" d="M 91.2859,32.5537 90.5537,33.2859 90.5178,33.3008 89.4822,33.3008 89.4463,33.2859 88.7141,32.5537 88.6992,32.5178 88.6992,31.4822 88.7141,31.4463 89.4463,30.7141 89.4822,30.6992 90.5178,30.6992 90.5537,30.7141 91.2859,31.4463 91.3008,31.4822 91.3008,32.5178 Z"/> 
<path style="fill:#000000; fill-opacity:1.0000; stroke:none;fill-rule:evenodd;" d="M 96.9463,33.2859 96.2141,32.5537 96.1992,32.5178 96.1992,31.4822 96.2141,31.4463 96.9463,30.7141 96.9822,30.6992 98.0178,30.6992 98.0537,30.7141 98.7859,31.4463 98.8008,31.4822 98.8008,32.5178 98.7859,32.5537 98.0537,33.2859 98.0178,33.3008 96.9822,33.3008 Z"/> 
<path style="fill:#000000; fill-opacity:1.0000; stroke:none;fill-rule:evenodd;" d="M 84.4463,35.7859 83.7141,35.0537 83.6992,35.0178 83.6992,33.9822 83.7141,33.9463 84.4463,33.2141 84.4822,33.1992 85.5178,33.1992 85.5537,33.2141 86.2859,33.9463 86.3008,33.9822 86.3008,35.0178 86.2859,35.0537 85.5537,35.7859 85.5178,35.8008 84.4822,35.8008 Z"/> 
<path style="fill:#000000; fill-opacity:1.0000; stroke:none;fill-rule:evenodd;" d="M 94.4463,35.7859 93.7141,35.0537 93.6992,35.0178 93.6992,33.9822 93.7141,33.9463 94.4463,33.2141 94.4822,33.1992 95.5178,33.1992 95.5537,33.2141 96.2859,33.9463 96.3008,33.9822 96.3008,35.0178 96.2859,35.0537 95.5537,35.7859 95.5178,35.8008 94.4822,35.8008 Z"/> 
<path style="fill:#000000; fill-opacity:1.0000; stroke:none;fill-rule:evenodd;" d="M 91.5641,23.0359 91.5492,23.0000 91.5492,21.9000 91.5641,21.8641 92.4641,20.9641 92.5000,20.9492 93.4000,20.9492 93.4359,20.9641 93.4508,21.0000 93.4508,23.0000 93.4359,23.0359 93.4000,23.0508 91.6000,23.0508 Z"/> 
<path style="fill:#000000; fill-opacity:1.0000; stroke:none;fill-rule:evenodd;" d="M 95.9508,23.0000 95.9469,23.0194 95.9359,23.0359 95.9194,23.0469 95.9000,23.0508 94.1000,23.0508 94.0806,23.0469 94.0641,23.0359 94.0531,23.0194 94.0492,23.0000 94.0492,21.0000 94.0531,20.9806 94.0641,20.9641 94.0806,20.9531 94.1000,20.9492 95.9000,20.9492 95.9194,20.9531 95.9359,20.9641 95.9469,20.9806 95.9508,21.0000 Z"/> 
<path style="fill:#000000; fill-opacity:1.0000; stroke:none;fill-rule:evenodd;" d="M 85.9508,23.0000 85.9469,23.0194 85.9359,23.0359 85.9194,23.0469 85.9000,23.0508 84.1000,23.0508 84.0806,23.0469 84.0641,23.0359 84.0531,23.0194 84.0492,23.0000 84.0492,21.0000 84.0531,20.9806 84.0641,20.9641 84.0806,20.9531 84.1000,20.9492 85.9000,20.9492 85.9194,20.9531 85.9359,20.9641 85.9469,20.9806 85.9508,21.0000 Z"/> 
<path style="fill:#000000; fill-opacity:1.0000; stroke:none;fill-rule:evenodd;" d="M 86.5641,23.0359 86.5492,23.0000 86.5492,21.0000 86.5641,20.9641 86.6000,20.9492 87.5000,20.9492 87.5359,20.9641 88.4359,21.8641 88.4508,21.9000 88.4508,23.0000 88.4359,23.0359 88.4000,23.0508 86.6000,23.0508 Z"/> 
</g>
<g style="fill:none;  stroke:#000000; stroke-width:1.2000; stroke-opacity:1;  stroke-linecap:round; stroke-linejoin:round;">
<path d="M94.9945 30.0000 L94.9945 29.0000 "/>
<path d="M92.4945 30.0000 L92.4945 29.0000 "/>
<path d="M90.4945 24.5000 L89.4945 24.5000 "/>
<path d="M84.9945 29.0000 L84.9945 30.0000 "/>
<path d="M87.4945 29.0000 L87.4945 30.0000 "/>
</g>
<g style="fill:#000000; fill-opacity:1.0000; stroke:none;">
<circle cx="30.0000" cy="119.0000" r="3.0000"/> 
</g>
<g style="fill:#000000; fill-opacity:1.0000; stroke:none;">
<circle cx="105.0000" cy="67.0000" r="3.0000"/> 
</g>
<g style="fill:#000000; fill-opacity:1.0000; stroke:none;">
<circle cx="30.0000" cy="67.0000" r="3.0000"/> 
</g>
<g style="fill:#000000; fill-opacity:1.0000; stroke:none;">
<circle cx="180.0000" cy="67.0000" r="3.0000"/> 
</g>
<g style="fill:#000000; fill-opacity:1.0000; stroke:none;">
<circle cx="105.0000" cy="119.0000" r="3.0000"/> 
<path style="fill:#000000; fill-opacity:1.0000; stroke:none;fill-rule:evenodd;" d="M 72.3600,22.8650 72.3790,22.7693 72.4332,22.6882 72.5143,22.6340 72.6100,22.6150 73.3100,22.6150 73.4057,22.6340 73.4868,22.6882 73.5410,22.7693 73.5600,22.8650 73.5600,24.1150 73.5410,24.2107 73.4868,24.2918 73.4057,24.3460 73.3100,24.3650 72.6100,24.3650 72.5143,24.3460 72.4332,24.2918 72.3790,24.2107 72.3600,24.1150 Z"/> 
</g>
<g style="fill:none;  stroke:#000000; stroke-width:1.2000; stroke-opacity:1;  stroke-linecap:round; stroke-linejoin:round;">
<path d="M74.9600 23.2150 L74.9600 23.7650 "/>
<path d="M76.9600 23.2150 L76.9600 23.7650 "/>
</g>
<g style="fill:#000000; fill-opacity:1.0000; stroke:none;">
<circle cx="180.0000" cy="119.0000" r="3.0000"/> 
<path style="fill:#000000; fill-opacity:1.0000; stroke:none;fill-rule:evenodd;" d="M 121.1000,67.5256 121.1000,69.2256 119.4000,69.2256 119.4000,67.5256 Z"/> 
</g>
<g style="fill:#000000; fill-opacity:1.0000; stroke:none;">
<circle cx="117.7100" cy="68.3756" r="0.8500"/> 
<circle cx="120.2500" cy="70.9156" r="0.8500"/> 
<circle cx="117.7100" cy="70.9156" r="0.8500"/> 
<circle cx="120.2500" cy="73.4556" r="0.8500"/> 
<circle cx="117.7100" cy="73.4556" r="0.8500"/> 
<circle cx="120.2500" cy="75.9956" r="0.8500"/> 
<circle cx="117.7100" cy="75.9956" r="0.8500"/> 
<circle cx="120.2500" cy="78.5356" r="0.8500"/> 
<circle cx="117.7100" cy="78.5356" r="0.8500"/> 
<circle cx="120.2500" cy="81.0756" r="0.8500"/> 
<circle cx="117.7100" cy="81.0756" r="0.8500"/> 
<circle cx="120.2500" cy="83.6156" r="0.8500"/> 
<circle cx="117.7100" cy="83.6156" r="0.8500"/> 
<circle cx="120.2500" cy="86.1556" r="0.8500"/> 
<circle cx="117.7100" cy="86.1556" r="0.8500"/> 
<circle cx="120.2500" cy="88.6956" r="0.8500"/> 
<circle cx="117.7100" cy="88.6956" r="0.8500"/> 
<circle cx="120.2500" cy="91.2356" r="0.8500"/> 
<circle cx="117.7100" cy="91.2356" r="0.8500"/> 
<circle cx="120.2500" cy="93.7756" r="0.8500"/> 
<circle cx="117.7100" cy="93.7756" r="0.8500"/> 
<circle cx="120.2500" cy="96.3156" r="0.8500"/> 
<circle cx="117.7100" cy="96.3156" r="0.8500"/> 
<circle cx="120.2500" cy="98.8556" r="0.8500"/> 
<circle cx="117.7100" cy="98.8556" r="0.8500"/> 
<circle cx="120.2500" cy="101.3956" r="0.8500"/> 
<circle cx="117.7100" cy="101.3956" r="0.8500"/> 
<circle cx="120.2500" cy="103.9356" r="0.8500"/> 
<circle cx="117.7100" cy="103.9356" r="0.8500"/> 
<circle cx="120.2500" cy="106.4756" r="0.8500"/> 
<circle cx="117.7100" cy="106.4756" r="0.8500"/> 
<circle cx="120.2500" cy="109.0156" r="0.8500"/> 
<circle cx="117.7100" cy="109.0156" r="0.8500"/> 
<circle cx="120.2500" cy="111.5556" r="0.8500"/> 
<circle cx="117.7100" cy="111.5556" r="0.8500"/> 
<circle cx="120.2500" cy="114.0956" r="0.8500"/> 
<circle cx="117.7100" cy="114.0956" r="0.8500"/> 
<circle cx="120.2500" cy="116.6356" r="0.8500"/> 
<circle cx="117.7100" cy="116.6356" r="0.8500"/> 
<path style="fill:#000000; fill-opacity:1.0000; stroke:none;fill-rule:evenodd;" d="M 157.4050,73.9956 157.4050,75.6956 155.7050,75.6956 155.7050,73.9956 Z"/> 
<circle cx="154.0150" cy="74.8456" r="0.8500"/> 
<circle cx="156.5550" cy="77.3856" r="0.8500"/> 
<circle cx="154.0150" cy="77.3856" r="0.8500"/> 
<circle cx="156.5550" cy="79.9256" r="0.8500"/> 
<circle cx="154.0150" cy="79.9256" r="0.8500"/> 
<path style="fill:#000000; fill-opacity:1.0000; stroke:none;fill-rule:evenodd;" d="M 151.5300,118.3006 153.2300,118.3006 153.2300,120.0006 151.5300,120.0006 Z"/> 
<circle cx="152.3800" cy="121.6906" r="0.8500"/> 
<circle cx="154.9200" cy="119.1506" r="0.8500"/> 
<circle cx="154.9200" cy="121.6906" r="0.8500"/> 
<circle cx="157.4600" cy="119.1506" r="0.8500"/> 
<circle cx="157.4600" cy="121.6906" r="0.8500"/> 
<path style="fill:#000000; fill-opacity:1.0000; stroke:none;fill-rule:evenodd;" d="M 63.4300,22.8750 63.4490,22.7793 63.5032,22.6982 63.5843,22.6440 63.6800,22.6250 64.3800,22.6250 64.4757,22.6440 64.5568,22.6982 64.6110,22.7793 64.6300,22.8750 64.6300,24.1250 64.6110,24.2207 64.5568,24.3018 64.4757,24.3560 64.3800,24.3750 63.6800,24.3750 63.5843,24.3560 63.5032,24.3018 63.4490,24.2207 63.4300,24.1250 Z"/> 
</g>
<g style="fill:none;  stroke:#000000; stroke-width:1.2000; stroke-opacity:1;  stroke-linecap:round; stroke-linejoin:round;">
<path d="M66.0300 23.2250 L66.0300 23.7750 "/>
<path d="M68.0300 23.2250 L68.0300 23.7750 "/>
</g> 
</mask></defs><g transform="scale(-1,1) translate(-297.0022,0)" id="boardContainer"><g id="substrate" clip-path="url(#cut-off)" mask="url(#pads-mask-silkscreen)"><g id="substrate-board" style="fill:#143324; fill-opacity:0.25098039215686274; stroke:#143324; stroke-width:0;"><path d=" M 187.0 20.0 A 1 1 0 0 1 188.0 21.0 L 188.0 23.0 A 3 3 0 0 0 191.0 26.0 A 1 1 0 0 1 192.0 27.0 L 192.0 124.0 A 1 1 0 0 1 191.0 125.0 A 3 3 0 0 0 188.0 128.0 L 188.0 130.0 A 1 1 0 0 1 187.0 131.0 L 110.0 131.0 A 5 5 0 0 0 100.0 131.0 L 23.0 131.0 A 1 1 0 0 1 22.0 130.0 L 22.0 128.0 A 3 3 0 0 0 19.0 125.0 A 1 1 0 0 1 18.0 124.0 L 18.0 27.0 A 1 1 0 0 1 19.0 26.0 A 3 3 0 0 0 22.0 23.0 L 22.0 21.0 A 1 1 0 0 1 23.0 20.0 L 87.8 20.0 L 87.8 21.0 A 0.4 0.4 0 0 0 88.2 21.4 L 91.8 21.4 A 0.4 0.4 0 0 0 92.2 21.0 L 92.2 20.0 L 100.0 20.0 A 5 5 0 0 0 110.0 20.0 L 117.8 20.0 L 117.8 21.0 A 0.4 0.4 0 0 0 118.2 21.4 L 121.8 21.4 A 0.4 0.4 0 0 0 122.2 21.0 L 122.2 20.0 L 187.0 20.0 " style="fill-rule: evenodd;"/><g style="fill: none;stroke: #4ca06c;stroke-width: 0.1000;stroke-opacity: 1;stroke-linecap: round;stroke-linejoin: round">
<path d="M122.2000 20.0000 L187.0000 20.0000 "/>
<path d="M18.0000 124.0000 L18.0000 27.0000 "/>
<path d="M22.0000 130.0000 A1.0000 1.0000 0.0 0 0 23.0000 131.0000"/>
<path d="M110.0000 131.0000 A5.0000 5.0000 0.0 0 0 100.0000 131.0000"/>
<path d="M23.0000 131.0000 L100.0000 131.0000 "/>
<path d="M117.8000 21.0000 A0.4000 0.4000 0.0 0 0 118.2000 21.4000"/>
<path d="M100.0000 20.0000 A5.0000 5.0000 0.0 0 0 110.0000 20.0000"/>
<path d="M87.8000 21.0000 A0.4000 0.4000 0.0 0 0 88.2000 21.4000"/>
<path d="M187.0000 131.0000 A1.0000 1.0000 0.0 0 0 188.0000 130.0000"/>
<path d="M118.2000 21.4000 L121.8000 21.4000 "/>
<path d="M188.0000 23.0000 A3.0000 3.0000 0.0 0 0 191.0000 26.0000"/>
<path d="M18.0000 124.0000 A1.0000 1.0000 0.0 0 0 19.0000 125.0000"/>
<path d="M19.0000 26.0000 A1.0000 1.0000 0.0 0 0 18.0000 27.0000"/>
<path d="M192.0000 27.0000 A1.0000 1.0000 0.0 0 0 191.0000 26.0000"/>
<path d="M110.0000 20.0000 L117.8000 20.0000 "/>
<path d="M192.0000 27.0000 L192.0000 124.0000 "/>
<path d="M22.0000 128.0000 A3.0000 3.0000 0.0 0 0 19.0000 125.0000"/>
<path d="M188.0000 128.0000 L188.0000 130.0000 "/>
<path d="M117.8000 20.0000 L117.8000 21.0000 "/>
<path d="M92.2000 21.0000 L92.2000 20.0000 "/>
<path d="M188.0000 21.0000 L188.0000 23.0000 "/>
<path d="M92.2000 20.0000 L100.0000 20.0000 "/>
<path d="M91.8000 21.4000 A0.4000 0.4000 0.0 0 0 92.2000 21.0000"/>
<path d="M87.8000 20.0000 L87.8000 21.0000 "/>
<path d="M19.0000 26.0000 A3.0000 3.0000 0.0 0 0 22.0000 23.0000"/>
<path d="M88.2000 21.4000 L91.8000 21.4000 "/>
<path d="M23.0000 20.0000 A1.0000 1.0000 0.0 0 0 22.0000 21.0000"/>
<path d="M87.8000 20.0000 L23.0000 20.0000 "/>
<path d="M22.0000 21.0000 L22.0000 23.0000 "/>
<path d="M121.8000 21.4000 A0.4000 0.4000 0.0 0 0 122.2000 21.0000"/>
<path d="M191.0000 125.0000 A1.0000 1.0000 0.0 0 0 192.0000 124.0000"/>
<path d="M122.2000 21.0000 L122.2000 20.0000 "/>
<path d="M110.0000 131.0000 L187.0000 131.0000 "/>
<path d="M22.0000 128.0000 L22.0000 130.0000 "/>
<path d="M191.0000 125.0000 A3.0000 3.0000 0.0 0 0 188.0000 128.0000"/>
<path d="M188.0000 21.0000 A1.0000 1.0000 0.0 0 0 187.0000 20.0000"/>
</g> 
</g></g></g></svg>
