<?xml version="1.0" standalone="no"?>
 <!DOCTYPE svg PUBLIC "-//W3C//DTD SVG 1.1//EN" 
 "http://www.w3.org/Graphics/SVG/1.1/DTD/svg11.dtd"> 
<svg
  xmlns:svg="http://www.w3.org/2000/svg"
  xmlns="http://www.w3.org/2000/svg"
  xmlns:xlink="http://www.w3.org/1999/xlink"
  version="1.1"
  width="297.0022mm" height="210.0072mm" viewBox="0.0000 0.0000 297.0022 210.0072">
<title>SVG Image created as pedalboard-hw-Edge_Cuts1.svg date 2026/04/18 10:01:08 </title>
  <desc>Image generated by PCBNEW </desc>
<g style="fill:#000000; fill-opacity:1.0000;stroke:#000000; stroke-opacity:1.0000;
stroke-linecap:round; stroke-linejoin:round;"
 transform="translate(0 0) scale(1 1)">
</g>
<g style="fill:none; 
stroke:#000000; stroke-width:0.1000; stroke-opacity:1; 
stroke-linecap:round; stroke-linejoin:round;">
<path d="M174.8022 20.0000
L110.0022 20.0000
" />
<path d="M279.0022 124.0000
L279.0022 27.0000
" />
<path d="M274.0022 131.0000 A1.0000 1.0000 0.0 0 0 275.0022 130.0000" />
<path d="M197.0022 131.0000 A5.0000 5.0000 0.0 0 0 187.0022 131.0000" />
<path d="M274.0022 131.0000
L197.0022 131.0000
" />
<path d="M178.8022 21.4000 A0.4000 0.4000 0.0 0 0 179.2022 21.0000" />
<path d="M187.0022 20.0000 A5.0000 5.0000 0.0 0 0 197.0022 20.0000" />
<path d="M208.8022 21.4000 A0.4000 0.4000 0.0 0 0 209.2022 21.0000" />
<path d="M109.0022 130.0000 A1.0000 1.0000 0.0 0 0 110.0022 131.0000" />
<path d="M178.8022 21.4000
L175.2022 21.4000
" />
<path d="M106.0022 26.0000 A3.0000 3.0000 0.0 0 0 109.0022 23.0000" />
<path d="M278.0022 125.0000 A1.0000 1.0000 0.0 0 0 279.0022 124.0000" />
<path d="M279.0022 27.0000 A1.0000 1.0000 0.0 0 0 278.0022 26.0000" />
<path d="M106.0022 26.0000 A1.0000 1.0000 0.0 0 0 105.0022 27.0000" />
<path d="M187.0022 20.0000
L179.2022 20.0000
" />
<path d="M105.0022 27.0000
L105.0022 124.0000
" />
<path d="M278.0022 125.0000 A3.0000 3.0000 0.0 0 0 275.0022 128.0000" />
<path d="M109.0022 128.0000
L109.0022 130.0000
" />
<path d="M179.2022 20.0000
L179.2022 21.0000
" />
<path d="M204.8022 21.0000
L204.8022 20.0000
" />
<path d="M109.0022 21.0000
L109.0022 23.0000
" />
<path d="M204.8022 20.0000
L197.0022 20.0000
" />
<path d="M204.8022 21.0000 A0.4000 0.4000 0.0 0 0 205.2022 21.4000" />
<path d="M209.2022 20.0000
L209.2022 21.0000
" />
<path d="M275.0022 23.0000 A3.0000 3.0000 0.0 0 0 278.0022 26.0000" />
<path d="M208.8022 21.4000
L205.2022 21.4000
" />
<path d="M275.0022 21.0000 A1.0000 1.0000 0.0 0 0 274.0022 20.0000" />
<path d="M209.2022 20.0000
L274.0022 20.0000
" />
<path d="M275.0022 21.0000
L275.0022 23.0000
" />
<path d="M174.8022 21.0000 A0.4000 0.4000 0.0 0 0 175.2022 21.4000" />
<path d="M105.0022 124.0000 A1.0000 1.0000 0.0 0 0 106.0022 125.0000" />
<path d="M174.8022 21.0000
L174.8022 20.0000
" />
<path d="M187.0022 131.0000
L110.0022 131.0000
" />
<path d="M275.0022 128.0000
L275.0022 130.0000
" />
<path d="M109.0022 128.0000 A3.0000 3.0000 0.0 0 0 106.0022 125.0000" />
<path d="M110.0022 20.0000 A1.0000 1.0000 0.0 0 0 109.0022 21.0000" />
</g> 
</svg>
