  0
SECTION
  2
HEADER
  9
$ANGBASE
  50
0.0
  9
$ANGDIR
  70
1
  9
$MEASUREMENT
  70
1
  0
ENDSEC
  0
SECTION
  2
TABLES
  0
TABLE
  2
LTYPE
  70
4
  0
LTYPE
  5
40F
  2
CONTINUOUS
  70
0
  3
Solid line
  72
65
  73
0
  40
0.0
  0
LTYPE
  5
410
  2
DASHDOT
 70
0
  3
Dash Dot ____ _ ____ _
 72
65
 73
4
 40
2.0
 49
1.25
 49
-0.25
 49
0.25
 49
-0.25
  0
LTYPE
  5
411
  2
DASHED
 70
0
  3
Dashed __ __ __ __ __
 72
65
 73
2
 40
0.75
 49
0.5
 49
-0.25
  0
LTYPE
  5
43B
  2
DOTTED
 70
0
  3
Dotted .  .  .  .
 72
65
 73
2
 40
0.2
 49
0.0
 49
-0.2
  0
ENDTAB
  0
TABLE
  2
STYLE
  70
4
  0
STYLE
  2
KICAD
  70
0
  40
0
  41
1
  42
1
  50
0
  71
0
  3
isocp.shx
  0
STYLE
  2
KICADB
  70
0
  40
0
  41
1
  42
1
  50
0
  71
0
  3
isocp.shx
  0
STYLE
  2
KICADI
  70
0
  40
0
  41
1
  42
1
  50
15
  71
0
  3
isocp.shx
  0
STYLE
  2
KICADBI
  70
0
  40
0
  41
1
  42
1
  50
15
  71
0
  3
isocp.shx
  0
ENDTAB
  0
TABLE
  2
LAYER
  70
1
  0
LAYER
  2
BLACK
  70
0
  62
7
  6
CONTINUOUS
  0
ENDTAB
  0
ENDSEC
  0
SECTION
  2
ENTITIES
0
LINE
8
BLACK
6
CONTINUOUS
10
122.1999999999999886
20
-20.
11
187.
21
-20.
0
LINE
8
BLACK
6
CONTINUOUS
10
18.
20
-124.
11
18.
21
-27.
0
ARC
8
BLACK
10
23.
20
-130.
40
1.
50
-180.00000000
51
-90.00000000
0
ARC
8
BLACK
10
105.
20
-131.
40
5.
50
0.00000000
51
180.00000000
0
LINE
8
BLACK
6
CONTINUOUS
10
23.
20
-131.
11
100.
21
-131.
0
ARC
8
BLACK
10
118.1999999999999886
20
-21.
40
0.4
50
-180.00000000
51
-90.00000000
0
ARC
8
BLACK
10
105.
20
-20.
40
5.
50
-180.00000000
51
-0.00000000
0
ARC
8
BLACK
10
88.2000000000000028
20
-21.
40
0.4
50
-180.00000000
51
-90.00000000
0
ARC
8
BLACK
10
187.
20
-130.
40
1.
50
-90.00000000
51
-0.00000000
0
LINE
8
BLACK
6
CONTINUOUS
10
118.1999999999999886
20
-21.3999999999999986
11
121.799997999999988
21
-21.4000020000000006
0
ARC
8
BLACK
10
191.
20
-23.
40
3.
50
-180.00000000
51
-90.00000000
0
ARC
8
BLACK
10
19.
20
-124.
40
1.
50
-180.00000000
51
-90.00000000
0
ARC
8
BLACK
10
19.
20
-27.
40
1.
50
90.00000000
51
180.00000000
0
ARC
8
BLACK
10
191.
20
-27.
40
1.
50
0.00000000
51
90.00000000
0
LINE
8
BLACK
6
CONTINUOUS
10
110.
20
-20.
11
117.7999999999999972
21
-20.
0
LINE
8
BLACK
6
CONTINUOUS
10
192.
20
-27.
11
192.
21
-124.
0
ARC
8
BLACK
10
19.
20
-128.
40
3.
50
0.00000000
51
90.00000000
0
LINE
8
BLACK
6
CONTINUOUS
10
188.
20
-128.
11
188.
21
-130.
0
LINE
8
BLACK
6
CONTINUOUS
10
117.7999999999999972
20
-20.
11
117.7999999999999972
21
-21.
0
LINE
8
BLACK
6
CONTINUOUS
10
92.2000000000000028
20
-21.
11
92.2000000000000028
21
-20.
0
LINE
8
BLACK
6
CONTINUOUS
10
188.
20
-21.
11
188.
21
-23.
0
LINE
8
BLACK
6
CONTINUOUS
10
92.2000000000000028
20
-20.
11
100.
21
-20.
0
ARC
8
BLACK
10
91.7999999999999972
20
-21.
40
0.4
50
-90.00000000
51
-0.00000000
0
LINE
8
BLACK
6
CONTINUOUS
10
87.7999999999999972
20
-20.
11
87.7999999999999972
21
-21.
0
ARC
8
BLACK
10
19.
20
-23.
40
3.
50
-90.00000000
51
-0.00000000
0
LINE
8
BLACK
6
CONTINUOUS
10
88.2000000000000028
20
-21.3999999999999986
11
91.7999999999999972
21
-21.3999999999999986
0
ARC
8
BLACK
10
23.
20
-21.
40
1.
50
90.00000000
51
180.00000000
0
LINE
8
BLACK
6
CONTINUOUS
10
87.7999999999999972
20
-20.
11
23.
21
-20.
0
LINE
8
BLACK
6
CONTINUOUS
10
22.
20
-21.
11
22.
21
-23.
0
ARC
8
BLACK
10
121.7999999999999972
20
-21.
40
0.4
50
-90.00028648
51
-0.00000000
0
ARC
8
BLACK
10
191.
20
-124.
40
1.
50
-90.00000000
51
-0.00000000
0
LINE
8
BLACK
6
CONTINUOUS
10
122.1999999999999886
20
-21.
11
122.1999999999999886
21
-20.
0
LINE
8
BLACK
6
CONTINUOUS
10
110.
20
-131.
11
187.
21
-131.
0
LINE
8
BLACK
6
CONTINUOUS
10
22.
20
-128.
11
22.
21
-130.
0
ARC
8
BLACK
10
191.
20
-128.
40
3.
50
90.00000000
51
180.00000000
0
ARC
8
BLACK
10
187.
20
-21.
40
1.
50
0.00000000
51
90.00000000
  0
ENDSEC
  0
EOF
