  0
SECTION
  2
HEADER
  9
$ANGBASE
  50
0.0
  9
$ANGDIR
  70
1
  9
$MEASUREMENT
  70
1
  0
ENDSEC
  0
SECTION
  2
TABLES
  0
TABLE
  2
LTYPE
  70
4
  0
LTYPE
  5
40F
  2
CONTINUOUS
  70
0
  3
Solid line
  72
65
  73
0
  40
0.0
  0
LTYPE
  5
410
  2
DASHDOT
 70
0
  3
Dash Dot ____ _ ____ _
 72
65
 73
4
 40
2.0
 49
1.25
 49
-0.25
 49
0.25
 49
-0.25
  0
LTYPE
  5
411
  2
DASHED
 70
0
  3
Dashed __ __ __ __ __
 72
65
 73
2
 40
0.75
 49
0.5
 49
-0.25
  0
LTYPE
  5
43B
  2
DOTTED
 70
0
  3
Dotted .  .  .  .
 72
65
 73
2
 40
0.2
 49
0.0
 49
-0.2
  0
ENDTAB
  0
TABLE
  2
STYLE
  70
4
  0
STYLE
  2
KICAD
  70
0
  40
0
  41
1
  42
1
  50
0
  71
0
  3
isocp.shx
  0
STYLE
  2
KICADB
  70
0
  40
0
  41
1
  42
1
  50
0
  71
0
  3
isocp.shx
  0
STYLE
  2
KICADI
  70
0
  40
0
  41
1
  42
1
  50
15
  71
0
  3
isocp.shx
  0
STYLE
  2
KICADBI
  70
0
  40
0
  41
1
  42
1
  50
15
  71
0
  3
isocp.shx
  0
ENDTAB
  0
TABLE
  2
LAYER
  70
1
  0
LAYER
  2
BLACK
  70
0
  62
7
  6
CONTINUOUS
  0
ENDTAB
  0
ENDSEC
  0
SECTION
  2
ENTITIES
0
LINE
8
BLACK
6
CONTINUOUS
10
30.4690169999999974
20
-116.2395609999999948
11
30.7751389999999994
21
-116.3094309999999894
0
LINE
8
BLACK
6
CONTINUOUS
10
30.7751389999999994
20
-116.3094309999999894
11
31.071513999999997
21
-116.4131369999999919
0
LINE
8
BLACK
6
CONTINUOUS
10
31.071513999999997
20
-116.4131369999999919
11
31.3544129999999974
21
-116.5493740000000003
0
LINE
8
BLACK
6
CONTINUOUS
10
31.3544129999999974
20
-116.5493740000000003
11
31.6202799999999975
21
-116.7164299999999884
0
LINE
8
BLACK
6
CONTINUOUS
10
31.6202799999999975
20
-116.7164299999999884
11
31.8657699999999977
21
-116.9122019999999935
0
LINE
8
BLACK
6
CONTINUOUS
10
31.8657699999999977
20
-116.9122019999999935
11
32.0877979999999994
21
-117.1342299999999881
0
LINE
8
BLACK
6
CONTINUOUS
10
32.0877979999999994
20
-117.1342299999999881
11
32.2835699999999974
21
-117.3797199999999918
0
LINE
8
BLACK
6
CONTINUOUS
10
32.2835699999999974
20
-117.3797199999999918
11
32.4506259999999997
21
-117.6455869999999919
0
LINE
8
BLACK
6
CONTINUOUS
10
32.4506259999999997
20
-117.6455869999999919
11
32.586863000000001
21
-117.9284859999999924
0
LINE
8
BLACK
6
CONTINUOUS
10
32.586863000000001
20
-117.9284859999999924
11
32.6905689999999964
21
-118.22486099999999
0
LINE
8
BLACK
6
CONTINUOUS
10
32.6905689999999964
20
-118.22486099999999
11
32.7604389999999981
21
-118.530982999999992
0
LINE
8
BLACK
6
CONTINUOUS
10
32.7604389999999981
20
-118.530982999999992
11
32.7955949999999987
21
-118.843002999999996
0
LINE
8
BLACK
6
CONTINUOUS
10
32.7955949999999987
20
-118.843002999999996
11
32.7955949999999987
21
-119.1569969999999898
0
LINE
8
BLACK
6
CONTINUOUS
10
32.7955949999999987
20
-119.1569969999999898
11
32.7604389999999981
21
-119.4690169999999938
0
LINE
8
BLACK
6
CONTINUOUS
10
32.7604389999999981
20
-119.4690169999999938
11
32.6905689999999964
21
-119.7751389999999958
0
LINE
8
BLACK
6
CONTINUOUS
10
32.6905689999999964
20
-119.7751389999999958
11
32.586863000000001
21
-120.0715139999999934
0
LINE
8
BLACK
6
CONTINUOUS
10
32.586863000000001
20
-120.0715139999999934
11
32.4506259999999997
21
-120.3544129999999939
0
LINE
8
BLACK
6
CONTINUOUS
10
32.4506259999999997
20
-120.3544129999999939
11
32.2835699999999974
21
-120.6202799999999939
0
LINE
8
BLACK
6
CONTINUOUS
10
32.2835699999999974
20
-120.6202799999999939
11
32.0877979999999994
21
-120.8657699999999977
0
LINE
8
BLACK
6
CONTINUOUS
10
32.0877979999999994
20
-120.8657699999999977
11
31.8657699999999977
21
-121.0877979999999923
0
LINE
8
BLACK
6
CONTINUOUS
10
31.8657699999999977
20
-121.0877979999999923
11
31.6202799999999975
21
-121.2835699999999974
0
LINE
8
BLACK
6
CONTINUOUS
10
31.6202799999999975
20
-121.2835699999999974
11
31.3544129999999974
21
-121.4506259999999997
0
LINE
8
BLACK
6
CONTINUOUS
10
31.3544129999999974
20
-121.4506259999999997
11
31.071513999999997
21
-121.5868629999999939
0
LINE
8
BLACK
6
CONTINUOUS
10
31.071513999999997
20
-121.5868629999999939
11
30.7751389999999994
21
-121.6905689999999964
0
LINE
8
BLACK
6
CONTINUOUS
10
30.7751389999999994
20
-121.6905689999999964
11
30.4690169999999974
21
-121.760438999999991
0
LINE
8
BLACK
6
CONTINUOUS
10
30.4690169999999974
20
-121.760438999999991
11
30.1569969999999969
21
-121.7955949999999916
0
LINE
8
BLACK
6
CONTINUOUS
10
30.1569969999999969
20
-121.7955949999999916
11
29.8430029999999995
21
-121.7955949999999916
0
LINE
8
BLACK
6
CONTINUOUS
10
29.8430029999999995
20
-121.7955949999999916
11
29.5309829999999991
21
-121.760438999999991
0
LINE
8
BLACK
6
CONTINUOUS
10
29.5309829999999991
20
-121.760438999999991
11
29.2248609999999971
21
-121.6905689999999964
0
LINE
8
BLACK
6
CONTINUOUS
10
29.2248609999999971
20
-121.6905689999999964
11
28.9284859999999995
21
-121.5868629999999939
0
LINE
8
BLACK
6
CONTINUOUS
10
28.9284859999999995
20
-121.5868629999999939
11
28.645586999999999
21
-121.4506259999999997
0
LINE
8
BLACK
6
CONTINUOUS
10
28.645586999999999
20
-121.4506259999999997
11
28.3797199999999989
21
-121.2835699999999974
0
LINE
8
BLACK
6
CONTINUOUS
10
28.3797199999999989
20
-121.2835699999999974
11
28.1342299999999987
21
-121.0877979999999923
0
LINE
8
BLACK
6
CONTINUOUS
10
28.1342299999999987
20
-121.0877979999999923
11
27.9122019999999971
21
-120.8657699999999977
0
LINE
8
BLACK
6
CONTINUOUS
10
27.9122019999999971
20
-120.8657699999999977
11
27.716429999999999
21
-120.6202799999999939
0
LINE
8
BLACK
6
CONTINUOUS
10
27.716429999999999
20
-120.6202799999999939
11
27.5493740000000003
21
-120.3544129999999939
0
LINE
8
BLACK
6
CONTINUOUS
10
27.5493740000000003
20
-120.3544129999999939
11
27.413136999999999
21
-120.0715139999999934
0
LINE
8
BLACK
6
CONTINUOUS
10
27.413136999999999
20
-120.0715139999999934
11
27.309431
21
-119.7751389999999958
0
LINE
8
BLACK
6
CONTINUOUS
10
27.309431
20
-119.7751389999999958
11
27.2395609999999984
21
-119.4690169999999938
0
LINE
8
BLACK
6
CONTINUOUS
10
27.2395609999999984
20
-119.4690169999999938
11
27.2044049999999977
21
-119.1569969999999898
0
LINE
8
BLACK
6
CONTINUOUS
10
27.2044049999999977
20
-119.1569969999999898
11
27.2044049999999977
21
-118.843002999999996
0
LINE
8
BLACK
6
CONTINUOUS
10
27.2044049999999977
20
-118.843002999999996
11
27.2395609999999984
21
-118.530982999999992
0
LINE
8
BLACK
6
CONTINUOUS
10
27.2395609999999984
20
-118.530982999999992
11
27.309431
21
-118.22486099999999
0
LINE
8
BLACK
6
CONTINUOUS
10
27.309431
20
-118.22486099999999
11
27.413136999999999
21
-117.9284859999999924
0
LINE
8
BLACK
6
CONTINUOUS
10
27.413136999999999
20
-117.9284859999999924
11
27.5493740000000003
21
-117.6455869999999919
0
LINE
8
BLACK
6
CONTINUOUS
10
27.5493740000000003
20
-117.6455869999999919
11
27.716429999999999
21
-117.3797199999999918
0
LINE
8
BLACK
6
CONTINUOUS
10
27.716429999999999
20
-117.3797199999999918
11
27.9122019999999971
21
-117.1342299999999881
0
LINE
8
BLACK
6
CONTINUOUS
10
27.9122019999999971
20
-117.1342299999999881
11
28.1342299999999987
21
-116.9122019999999935
0
LINE
8
BLACK
6
CONTINUOUS
10
28.1342299999999987
20
-116.9122019999999935
11
28.3797199999999989
21
-116.7164299999999884
0
LINE
8
BLACK
6
CONTINUOUS
10
28.3797199999999989
20
-116.7164299999999884
11
28.645586999999999
21
-116.5493740000000003
0
LINE
8
BLACK
6
CONTINUOUS
10
28.645586999999999
20
-116.5493740000000003
11
28.9284859999999995
21
-116.4131369999999919
0
LINE
8
BLACK
6
CONTINUOUS
10
28.9284859999999995
20
-116.4131369999999919
11
29.2248609999999971
21
-116.3094309999999894
0
LINE
8
BLACK
6
CONTINUOUS
10
29.2248609999999971
20
-116.3094309999999894
11
29.5309829999999991
21
-116.2395609999999948
0
LINE
8
BLACK
6
CONTINUOUS
10
29.5309829999999991
20
-116.2395609999999948
11
29.8430029999999995
21
-116.2044049999999942
0
LINE
8
BLACK
6
CONTINUOUS
10
29.8430029999999995
20
-116.2044049999999942
11
30.1569969999999969
21
-116.2044049999999942
0
LINE
8
BLACK
6
CONTINUOUS
10
30.1569969999999969
20
-116.2044049999999942
11
30.4690169999999974
21
-116.2395609999999948
0
LINE
8
BLACK
6
CONTINUOUS
10
105.4690169999999938
20
-116.2395609999999948
11
105.7751389999999958
21
-116.3094309999999894
0
LINE
8
BLACK
6
CONTINUOUS
10
105.7751389999999958
20
-116.3094309999999894
11
106.0715139999999934
21
-116.4131369999999919
0
LINE
8
BLACK
6
CONTINUOUS
10
106.0715139999999934
20
-116.4131369999999919
11
106.3544129999999939
21
-116.5493740000000003
0
LINE
8
BLACK
6
CONTINUOUS
10
106.3544129999999939
20
-116.5493740000000003
11
106.6202799999999939
21
-116.7164299999999884
0
LINE
8
BLACK
6
CONTINUOUS
10
106.6202799999999939
20
-116.7164299999999884
11
106.8657699999999977
21
-116.9122019999999935
0
LINE
8
BLACK
6
CONTINUOUS
10
106.8657699999999977
20
-116.9122019999999935
11
107.0877979999999923
21
-117.1342299999999881
0
LINE
8
BLACK
6
CONTINUOUS
10
107.0877979999999923
20
-117.1342299999999881
11
107.2835699999999974
21
-117.3797199999999918
0
LINE
8
BLACK
6
CONTINUOUS
10
107.2835699999999974
20
-117.3797199999999918
11
107.4506259999999997
21
-117.6455869999999919
0
LINE
8
BLACK
6
CONTINUOUS
10
107.4506259999999997
20
-117.6455869999999919
11
107.5868629999999939
21
-117.9284859999999924
0
LINE
8
BLACK
6
CONTINUOUS
10
107.5868629999999939
20
-117.9284859999999924
11
107.6905689999999964
21
-118.22486099999999
0
LINE
8
BLACK
6
CONTINUOUS
10
107.6905689999999964
20
-118.22486099999999
11
107.760438999999991
21
-118.530982999999992
0
LINE
8
BLACK
6
CONTINUOUS
10
107.760438999999991
20
-118.530982999999992
11
107.7955949999999916
21
-118.843002999999996
0
LINE
8
BLACK
6
CONTINUOUS
10
107.7955949999999916
20
-118.843002999999996
11
107.7955949999999916
21
-119.1569969999999898
0
LINE
8
BLACK
6
CONTINUOUS
10
107.7955949999999916
20
-119.1569969999999898
11
107.760438999999991
21
-119.4690169999999938
0
LINE
8
BLACK
6
CONTINUOUS
10
107.760438999999991
20
-119.4690169999999938
11
107.6905689999999964
21
-119.7751389999999958
0
LINE
8
BLACK
6
CONTINUOUS
10
107.6905689999999964
20
-119.7751389999999958
11
107.5868629999999939
21
-120.0715139999999934
0
LINE
8
BLACK
6
CONTINUOUS
10
107.5868629999999939
20
-120.0715139999999934
11
107.4506259999999997
21
-120.3544129999999939
0
LINE
8
BLACK
6
CONTINUOUS
10
107.4506259999999997
20
-120.3544129999999939
11
107.2835699999999974
21
-120.6202799999999939
0
LINE
8
BLACK
6
CONTINUOUS
10
107.2835699999999974
20
-120.6202799999999939
11
107.0877979999999923
21
-120.8657699999999977
0
LINE
8
BLACK
6
CONTINUOUS
10
107.0877979999999923
20
-120.8657699999999977
11
106.8657699999999977
21
-121.0877979999999923
0
LINE
8
BLACK
6
CONTINUOUS
10
106.8657699999999977
20
-121.0877979999999923
11
106.6202799999999939
21
-121.2835699999999974
0
LINE
8
BLACK
6
CONTINUOUS
10
106.6202799999999939
20
-121.2835699999999974
11
106.3544129999999939
21
-121.4506259999999997
0
LINE
8
BLACK
6
CONTINUOUS
10
106.3544129999999939
20
-121.4506259999999997
11
106.0715139999999934
21
-121.5868629999999939
0
LINE
8
BLACK
6
CONTINUOUS
10
106.0715139999999934
20
-121.5868629999999939
11
105.7751389999999958
21
-121.6905689999999964
0
LINE
8
BLACK
6
CONTINUOUS
10
105.7751389999999958
20
-121.6905689999999964
11
105.4690169999999938
21
-121.760438999999991
0
LINE
8
BLACK
6
CONTINUOUS
10
105.4690169999999938
20
-121.760438999999991
11
105.1569969999999898
21
-121.7955949999999916
0
LINE
8
BLACK
6
CONTINUOUS
10
105.1569969999999898
20
-121.7955949999999916
11
104.843002999999996
21
-121.7955949999999916
0
LINE
8
BLACK
6
CONTINUOUS
10
104.843002999999996
20
-121.7955949999999916
11
104.530982999999992
21
-121.760438999999991
0
LINE
8
BLACK
6
CONTINUOUS
10
104.530982999999992
20
-121.760438999999991
11
104.22486099999999
21
-121.6905689999999964
0
LINE
8
BLACK
6
CONTINUOUS
10
104.22486099999999
20
-121.6905689999999964
11
103.9284859999999924
21
-121.5868629999999939
0
LINE
8
BLACK
6
CONTINUOUS
10
103.9284859999999924
20
-121.5868629999999939
11
103.6455869999999919
21
-121.4506259999999997
0
LINE
8
BLACK
6
CONTINUOUS
10
103.6455869999999919
20
-121.4506259999999997
11
103.3797199999999918
21
-121.2835699999999974
0
LINE
8
BLACK
6
CONTINUOUS
10
103.3797199999999918
20
-121.2835699999999974
11
103.1342300000000023
21
-121.0877979999999923
0
LINE
8
BLACK
6
CONTINUOUS
10
103.1342300000000023
20
-121.0877979999999923
11
102.9122019999999935
21
-120.8657699999999977
0
LINE
8
BLACK
6
CONTINUOUS
10
102.9122019999999935
20
-120.8657699999999977
11
102.7164299999999884
21
-120.6202799999999939
0
LINE
8
BLACK
6
CONTINUOUS
10
102.7164299999999884
20
-120.6202799999999939
11
102.5493740000000003
21
-120.3544129999999939
0
LINE
8
BLACK
6
CONTINUOUS
10
102.5493740000000003
20
-120.3544129999999939
11
102.4131369999999919
21
-120.0715139999999934
0
LINE
8
BLACK
6
CONTINUOUS
10
102.4131369999999919
20
-120.0715139999999934
11
102.3094309999999894
21
-119.7751389999999958
0
LINE
8
BLACK
6
CONTINUOUS
10
102.3094309999999894
20
-119.7751389999999958
11
102.2395609999999948
21
-119.4690169999999938
0
LINE
8
BLACK
6
CONTINUOUS
10
102.2395609999999948
20
-119.4690169999999938
11
102.2044049999999942
21
-119.1569969999999898
0
LINE
8
BLACK
6
CONTINUOUS
10
102.2044049999999942
20
-119.1569969999999898
11
102.2044049999999942
21
-118.843002999999996
0
LINE
8
BLACK
6
CONTINUOUS
10
102.2044049999999942
20
-118.843002999999996
11
102.2395609999999948
21
-118.530982999999992
0
LINE
8
BLACK
6
CONTINUOUS
10
102.2395609999999948
20
-118.530982999999992
11
102.3094309999999894
21
-118.22486099999999
0
LINE
8
BLACK
6
CONTINUOUS
10
102.3094309999999894
20
-118.22486099999999
11
102.4131369999999919
21
-117.9284859999999924
0
LINE
8
BLACK
6
CONTINUOUS
10
102.4131369999999919
20
-117.9284859999999924
11
102.5493740000000003
21
-117.6455869999999919
0
LINE
8
BLACK
6
CONTINUOUS
10
102.5493740000000003
20
-117.6455869999999919
11
102.7164299999999884
21
-117.3797199999999918
0
LINE
8
BLACK
6
CONTINUOUS
10
102.7164299999999884
20
-117.3797199999999918
11
102.9122019999999935
21
-117.1342299999999881
0
LINE
8
BLACK
6
CONTINUOUS
10
102.9122019999999935
20
-117.1342299999999881
11
103.1342300000000023
21
-116.9122019999999935
0
LINE
8
BLACK
6
CONTINUOUS
10
103.1342300000000023
20
-116.9122019999999935
11
103.3797199999999918
21
-116.7164299999999884
0
LINE
8
BLACK
6
CONTINUOUS
10
103.3797199999999918
20
-116.7164299999999884
11
103.6455869999999919
21
-116.5493740000000003
0
LINE
8
BLACK
6
CONTINUOUS
10
103.6455869999999919
20
-116.5493740000000003
11
103.9284859999999924
21
-116.4131369999999919
0
LINE
8
BLACK
6
CONTINUOUS
10
103.9284859999999924
20
-116.4131369999999919
11
104.22486099999999
21
-116.3094309999999894
0
LINE
8
BLACK
6
CONTINUOUS
10
104.22486099999999
20
-116.3094309999999894
11
104.530982999999992
21
-116.2395609999999948
0
LINE
8
BLACK
6
CONTINUOUS
10
104.530982999999992
20
-116.2395609999999948
11
104.843002999999996
21
-116.2044049999999942
0
LINE
8
BLACK
6
CONTINUOUS
10
104.843002999999996
20
-116.2044049999999942
11
105.1569969999999898
21
-116.2044049999999942
0
LINE
8
BLACK
6
CONTINUOUS
10
105.1569969999999898
20
-116.2044049999999942
11
105.4690169999999938
21
-116.2395609999999948
0
LINE
8
BLACK
6
CONTINUOUS
10
180.4690169999999796
20
-116.2395609999999948
11
180.7751389999999958
21
-116.3094309999999894
0
LINE
8
BLACK
6
CONTINUOUS
10
180.7751389999999958
20
-116.3094309999999894
11
181.0715139999999792
21
-116.4131369999999919
0
LINE
8
BLACK
6
CONTINUOUS
10
181.0715139999999792
20
-116.4131369999999919
11
181.3544129999999939
21
-116.5493740000000003
0
LINE
8
BLACK
6
CONTINUOUS
10
181.3544129999999939
20
-116.5493740000000003
11
181.6202799999999797
21
-116.7164299999999884
0
LINE
8
BLACK
6
CONTINUOUS
10
181.6202799999999797
20
-116.7164299999999884
11
181.8657699999999977
21
-116.9122019999999935
0
LINE
8
BLACK
6
CONTINUOUS
10
181.8657699999999977
20
-116.9122019999999935
11
182.0877979999999923
21
-117.1342299999999881
0
LINE
8
BLACK
6
CONTINUOUS
10
182.0877979999999923
20
-117.1342299999999881
11
182.2835699999999974
21
-117.3797199999999918
0
LINE
8
BLACK
6
CONTINUOUS
10
182.2835699999999974
20
-117.3797199999999918
11
182.4506259999999997
21
-117.6455869999999919
0
LINE
8
BLACK
6
CONTINUOUS
10
182.4506259999999997
20
-117.6455869999999919
11
182.5868629999999939
21
-117.9284859999999924
0
LINE
8
BLACK
6
CONTINUOUS
10
182.5868629999999939
20
-117.9284859999999924
11
182.6905689999999822
21
-118.22486099999999
0
LINE
8
BLACK
6
CONTINUOUS
10
182.6905689999999822
20
-118.22486099999999
11
182.760438999999991
21
-118.530982999999992
0
LINE
8
BLACK
6
CONTINUOUS
10
182.760438999999991
20
-118.530982999999992
11
182.7955949999999916
21
-118.843002999999996
0
LINE
8
BLACK
6
CONTINUOUS
10
182.7955949999999916
20
-118.843002999999996
11
182.7955949999999916
21
-119.1569969999999898
0
LINE
8
BLACK
6
CONTINUOUS
10
182.7955949999999916
20
-119.1569969999999898
11
182.760438999999991
21
-119.4690169999999938
0
LINE
8
BLACK
6
CONTINUOUS
10
182.760438999999991
20
-119.4690169999999938
11
182.6905689999999822
21
-119.7751389999999958
0
LINE
8
BLACK
6
CONTINUOUS
10
182.6905689999999822
20
-119.7751389999999958
11
182.5868629999999939
21
-120.0715139999999934
0
LINE
8
BLACK
6
CONTINUOUS
10
182.5868629999999939
20
-120.0715139999999934
11
182.4506259999999997
21
-120.3544129999999939
0
LINE
8
BLACK
6
CONTINUOUS
10
182.4506259999999997
20
-120.3544129999999939
11
182.2835699999999974
21
-120.6202799999999939
0
LINE
8
BLACK
6
CONTINUOUS
10
182.2835699999999974
20
-120.6202799999999939
11
182.0877979999999923
21
-120.8657699999999977
0
LINE
8
BLACK
6
CONTINUOUS
10
182.0877979999999923
20
-120.8657699999999977
11
181.8657699999999977
21
-121.0877979999999923
0
LINE
8
BLACK
6
CONTINUOUS
10
181.8657699999999977
20
-121.0877979999999923
11
181.6202799999999797
21
-121.2835699999999974
0
LINE
8
BLACK
6
CONTINUOUS
10
181.6202799999999797
20
-121.2835699999999974
11
181.3544129999999939
21
-121.4506259999999997
0
LINE
8
BLACK
6
CONTINUOUS
10
181.3544129999999939
20
-121.4506259999999997
11
181.0715139999999792
21
-121.5868629999999939
0
LINE
8
BLACK
6
CONTINUOUS
10
181.0715139999999792
20
-121.5868629999999939
11
180.7751389999999958
21
-121.6905689999999964
0
LINE
8
BLACK
6
CONTINUOUS
10
180.7751389999999958
20
-121.6905689999999964
11
180.4690169999999796
21
-121.760438999999991
0
LINE
8
BLACK
6
CONTINUOUS
10
180.4690169999999796
20
-121.760438999999991
11
180.1569969999999898
21
-121.7955949999999916
0
LINE
8
BLACK
6
CONTINUOUS
10
180.1569969999999898
20
-121.7955949999999916
11
179.8430029999999817
21
-121.7955949999999916
0
LINE
8
BLACK
6
CONTINUOUS
10
179.8430029999999817
20
-121.7955949999999916
11
179.530982999999992
21
-121.760438999999991
0
LINE
8
BLACK
6
CONTINUOUS
10
179.530982999999992
20
-121.760438999999991
11
179.2248610000000042
21
-121.6905689999999964
0
LINE
8
BLACK
6
CONTINUOUS
10
179.2248610000000042
20
-121.6905689999999964
11
178.9284859999999924
21
-121.5868629999999939
0
LINE
8
BLACK
6
CONTINUOUS
10
178.9284859999999924
20
-121.5868629999999939
11
178.6455869999999777
21
-121.4506259999999997
0
LINE
8
BLACK
6
CONTINUOUS
10
178.6455869999999777
20
-121.4506259999999997
11
178.3797199999999918
21
-121.2835699999999974
0
LINE
8
BLACK
6
CONTINUOUS
10
178.3797199999999918
20
-121.2835699999999974
11
178.1342300000000023
21
-121.0877979999999923
0
LINE
8
BLACK
6
CONTINUOUS
10
178.1342300000000023
20
-121.0877979999999923
11
177.9122019999999793
21
-120.8657699999999977
0
LINE
8
BLACK
6
CONTINUOUS
10
177.9122019999999793
20
-120.8657699999999977
11
177.7164300000000026
21
-120.6202799999999939
0
LINE
8
BLACK
6
CONTINUOUS
10
177.7164300000000026
20
-120.6202799999999939
11
177.5493740000000003
21
-120.3544129999999939
0
LINE
8
BLACK
6
CONTINUOUS
10
177.5493740000000003
20
-120.3544129999999939
11
177.4131370000000061
21
-120.0715139999999934
0
LINE
8
BLACK
6
CONTINUOUS
10
177.4131370000000061
20
-120.0715139999999934
11
177.3094309999999894
21
-119.7751389999999958
0
LINE
8
BLACK
6
CONTINUOUS
10
177.3094309999999894
20
-119.7751389999999958
11
177.2395609999999806
21
-119.4690169999999938
0
LINE
8
BLACK
6
CONTINUOUS
10
177.2395609999999806
20
-119.4690169999999938
11
177.20440499999998
21
-119.1569969999999898
0
LINE
8
BLACK
6
CONTINUOUS
10
177.20440499999998
20
-119.1569969999999898
11
177.20440499999998
21
-118.843002999999996
0
LINE
8
BLACK
6
CONTINUOUS
10
177.20440499999998
20
-118.843002999999996
11
177.2395609999999806
21
-118.530982999999992
0
LINE
8
BLACK
6
CONTINUOUS
10
177.2395609999999806
20
-118.530982999999992
11
177.3094309999999894
21
-118.22486099999999
0
LINE
8
BLACK
6
CONTINUOUS
10
177.3094309999999894
20
-118.22486099999999
11
177.4131370000000061
21
-117.9284859999999924
0
LINE
8
BLACK
6
CONTINUOUS
10
177.4131370000000061
20
-117.9284859999999924
11
177.5493740000000003
21
-117.6455869999999919
0
LINE
8
BLACK
6
CONTINUOUS
10
177.5493740000000003
20
-117.6455869999999919
11
177.7164300000000026
21
-117.3797199999999918
0
LINE
8
BLACK
6
CONTINUOUS
10
177.7164300000000026
20
-117.3797199999999918
11
177.9122019999999793
21
-117.1342299999999881
0
LINE
8
BLACK
6
CONTINUOUS
10
177.9122019999999793
20
-117.1342299999999881
11
178.1342300000000023
21
-116.9122019999999935
0
LINE
8
BLACK
6
CONTINUOUS
10
178.1342300000000023
20
-116.9122019999999935
11
178.3797199999999918
21
-116.7164299999999884
0
LINE
8
BLACK
6
CONTINUOUS
10
178.3797199999999918
20
-116.7164299999999884
11
178.6455869999999777
21
-116.5493740000000003
0
LINE
8
BLACK
6
CONTINUOUS
10
178.6455869999999777
20
-116.5493740000000003
11
178.9284859999999924
21
-116.4131369999999919
0
LINE
8
BLACK
6
CONTINUOUS
10
178.9284859999999924
20
-116.4131369999999919
11
179.2248610000000042
21
-116.3094309999999894
0
LINE
8
BLACK
6
CONTINUOUS
10
179.2248610000000042
20
-116.3094309999999894
11
179.530982999999992
21
-116.2395609999999948
0
LINE
8
BLACK
6
CONTINUOUS
10
179.530982999999992
20
-116.2395609999999948
11
179.8430029999999817
21
-116.2044049999999942
0
LINE
8
BLACK
6
CONTINUOUS
10
179.8430029999999817
20
-116.2044049999999942
11
180.1569969999999898
21
-116.2044049999999942
0
LINE
8
BLACK
6
CONTINUOUS
10
180.1569969999999898
20
-116.2044049999999942
11
180.4690169999999796
21
-116.2395609999999948
0
LINE
8
BLACK
6
CONTINUOUS
10
30.4690169999999974
20
-64.2395609999999948
11
30.7751389999999994
21
-64.3094310000000036
0
LINE
8
BLACK
6
CONTINUOUS
10
30.7751389999999994
20
-64.3094310000000036
11
31.071513999999997
21
-64.4131369999999919
0
LINE
8
BLACK
6
CONTINUOUS
10
31.071513999999997
20
-64.4131369999999919
11
31.3544129999999974
21
-64.5493740000000003
0
LINE
8
BLACK
6
CONTINUOUS
10
31.3544129999999974
20
-64.5493740000000003
11
31.6202799999999975
21
-64.7164300000000026
0
LINE
8
BLACK
6
CONTINUOUS
10
31.6202799999999975
20
-64.7164300000000026
11
31.8657699999999977
21
-64.9122019999999935
0
LINE
8
BLACK
6
CONTINUOUS
10
31.8657699999999977
20
-64.9122019999999935
11
32.0877979999999994
21
-65.1342300000000023
0
LINE
8
BLACK
6
CONTINUOUS
10
32.0877979999999994
20
-65.1342300000000023
11
32.2835699999999974
21
-65.3797199999999918
0
LINE
8
BLACK
6
CONTINUOUS
10
32.2835699999999974
20
-65.3797199999999918
11
32.4506259999999997
21
-65.6455869999999919
0
LINE
8
BLACK
6
CONTINUOUS
10
32.4506259999999997
20
-65.6455869999999919
11
32.586863000000001
21
-65.9284859999999924
0
LINE
8
BLACK
6
CONTINUOUS
10
32.586863000000001
20
-65.9284859999999924
11
32.6905689999999964
21
-66.22486099999999
0
LINE
8
BLACK
6
CONTINUOUS
10
32.6905689999999964
20
-66.22486099999999
11
32.7604389999999981
21
-66.530982999999992
0
LINE
8
BLACK
6
CONTINUOUS
10
32.7604389999999981
20
-66.530982999999992
11
32.7955949999999987
21
-66.843002999999996
0
LINE
8
BLACK
6
CONTINUOUS
10
32.7955949999999987
20
-66.843002999999996
11
32.7955949999999987
21
-67.156997000000004
0
LINE
8
BLACK
6
CONTINUOUS
10
32.7955949999999987
20
-67.156997000000004
11
32.7604389999999981
21
-67.4690169999999938
0
LINE
8
BLACK
6
CONTINUOUS
10
32.7604389999999981
20
-67.4690169999999938
11
32.6905689999999964
21
-67.7751389999999958
0
LINE
8
BLACK
6
CONTINUOUS
10
32.6905689999999964
20
-67.7751389999999958
11
32.586863000000001
21
-68.0715139999999934
0
LINE
8
BLACK
6
CONTINUOUS
10
32.586863000000001
20
-68.0715139999999934
11
32.4506259999999997
21
-68.3544129999999939
0
LINE
8
BLACK
6
CONTINUOUS
10
32.4506259999999997
20
-68.3544129999999939
11
32.2835699999999974
21
-68.6202799999999939
0
LINE
8
BLACK
6
CONTINUOUS
10
32.2835699999999974
20
-68.6202799999999939
11
32.0877979999999994
21
-68.8657699999999977
0
LINE
8
BLACK
6
CONTINUOUS
10
32.0877979999999994
20
-68.8657699999999977
11
31.8657699999999977
21
-69.0877979999999923
0
LINE
8
BLACK
6
CONTINUOUS
10
31.8657699999999977
20
-69.0877979999999923
11
31.6202799999999975
21
-69.2835699999999974
0
LINE
8
BLACK
6
CONTINUOUS
10
31.6202799999999975
20
-69.2835699999999974
11
31.3544129999999974
21
-69.4506259999999997
0
LINE
8
BLACK
6
CONTINUOUS
10
31.3544129999999974
20
-69.4506259999999997
11
31.071513999999997
21
-69.5868629999999939
0
LINE
8
BLACK
6
CONTINUOUS
10
31.071513999999997
20
-69.5868629999999939
11
30.7751389999999994
21
-69.6905689999999964
0
LINE
8
BLACK
6
CONTINUOUS
10
30.7751389999999994
20
-69.6905689999999964
11
30.4690169999999974
21
-69.760438999999991
0
LINE
8
BLACK
6
CONTINUOUS
10
30.4690169999999974
20
-69.760438999999991
11
30.1569969999999969
21
-69.7955949999999916
0
LINE
8
BLACK
6
CONTINUOUS
10
30.1569969999999969
20
-69.7955949999999916
11
29.8430029999999995
21
-69.7955949999999916
0
LINE
8
BLACK
6
CONTINUOUS
10
29.8430029999999995
20
-69.7955949999999916
11
29.5309829999999991
21
-69.760438999999991
0
LINE
8
BLACK
6
CONTINUOUS
10
29.5309829999999991
20
-69.760438999999991
11
29.2248609999999971
21
-69.6905689999999964
0
LINE
8
BLACK
6
CONTINUOUS
10
29.2248609999999971
20
-69.6905689999999964
11
28.9284859999999995
21
-69.5868629999999939
0
LINE
8
BLACK
6
CONTINUOUS
10
28.9284859999999995
20
-69.5868629999999939
11
28.645586999999999
21
-69.4506259999999997
0
LINE
8
BLACK
6
CONTINUOUS
10
28.645586999999999
20
-69.4506259999999997
11
28.3797199999999989
21
-69.2835699999999974
0
LINE
8
BLACK
6
CONTINUOUS
10
28.3797199999999989
20
-69.2835699999999974
11
28.1342299999999987
21
-69.0877979999999923
0
LINE
8
BLACK
6
CONTINUOUS
10
28.1342299999999987
20
-69.0877979999999923
11
27.9122019999999971
21
-68.8657699999999977
0
LINE
8
BLACK
6
CONTINUOUS
10
27.9122019999999971
20
-68.8657699999999977
11
27.716429999999999
21
-68.6202799999999939
0
LINE
8
BLACK
6
CONTINUOUS
10
27.716429999999999
20
-68.6202799999999939
11
27.5493740000000003
21
-68.3544129999999939
0
LINE
8
BLACK
6
CONTINUOUS
10
27.5493740000000003
20
-68.3544129999999939
11
27.413136999999999
21
-68.0715139999999934
0
LINE
8
BLACK
6
CONTINUOUS
10
27.413136999999999
20
-68.0715139999999934
11
27.309431
21
-67.7751389999999958
0
LINE
8
BLACK
6
CONTINUOUS
10
27.309431
20
-67.7751389999999958
11
27.2395609999999984
21
-67.4690169999999938
0
LINE
8
BLACK
6
CONTINUOUS
10
27.2395609999999984
20
-67.4690169999999938
11
27.2044049999999977
21
-67.156997000000004
0
LINE
8
BLACK
6
CONTINUOUS
10
27.2044049999999977
20
-67.156997000000004
11
27.2044049999999977
21
-66.843002999999996
0
LINE
8
BLACK
6
CONTINUOUS
10
27.2044049999999977
20
-66.843002999999996
11
27.2395609999999984
21
-66.530982999999992
0
LINE
8
BLACK
6
CONTINUOUS
10
27.2395609999999984
20
-66.530982999999992
11
27.309431
21
-66.22486099999999
0
LINE
8
BLACK
6
CONTINUOUS
10
27.309431
20
-66.22486099999999
11
27.413136999999999
21
-65.9284859999999924
0
LINE
8
BLACK
6
CONTINUOUS
10
27.413136999999999
20
-65.9284859999999924
11
27.5493740000000003
21
-65.6455869999999919
0
LINE
8
BLACK
6
CONTINUOUS
10
27.5493740000000003
20
-65.6455869999999919
11
27.716429999999999
21
-65.3797199999999918
0
LINE
8
BLACK
6
CONTINUOUS
10
27.716429999999999
20
-65.3797199999999918
11
27.9122019999999971
21
-65.1342300000000023
0
LINE
8
BLACK
6
CONTINUOUS
10
27.9122019999999971
20
-65.1342300000000023
11
28.1342299999999987
21
-64.9122019999999935
0
LINE
8
BLACK
6
CONTINUOUS
10
28.1342299999999987
20
-64.9122019999999935
11
28.3797199999999989
21
-64.7164300000000026
0
LINE
8
BLACK
6
CONTINUOUS
10
28.3797199999999989
20
-64.7164300000000026
11
28.645586999999999
21
-64.5493740000000003
0
LINE
8
BLACK
6
CONTINUOUS
10
28.645586999999999
20
-64.5493740000000003
11
28.9284859999999995
21
-64.4131369999999919
0
LINE
8
BLACK
6
CONTINUOUS
10
28.9284859999999995
20
-64.4131369999999919
11
29.2248609999999971
21
-64.3094310000000036
0
LINE
8
BLACK
6
CONTINUOUS
10
29.2248609999999971
20
-64.3094310000000036
11
29.5309829999999991
21
-64.2395609999999948
0
LINE
8
BLACK
6
CONTINUOUS
10
29.5309829999999991
20
-64.2395609999999948
11
29.8430029999999995
21
-64.2044049999999942
0
LINE
8
BLACK
6
CONTINUOUS
10
29.8430029999999995
20
-64.2044049999999942
11
30.1569969999999969
21
-64.2044049999999942
0
LINE
8
BLACK
6
CONTINUOUS
10
30.1569969999999969
20
-64.2044049999999942
11
30.4690169999999974
21
-64.2395609999999948
0
LINE
8
BLACK
6
CONTINUOUS
10
105.4690169999999938
20
-64.2395609999999948
11
105.7751389999999958
21
-64.3094310000000036
0
LINE
8
BLACK
6
CONTINUOUS
10
105.7751389999999958
20
-64.3094310000000036
11
106.0715139999999934
21
-64.4131369999999919
0
LINE
8
BLACK
6
CONTINUOUS
10
106.0715139999999934
20
-64.4131369999999919
11
106.3544129999999939
21
-64.5493740000000003
0
LINE
8
BLACK
6
CONTINUOUS
10
106.3544129999999939
20
-64.5493740000000003
11
106.6202799999999939
21
-64.7164300000000026
0
LINE
8
BLACK
6
CONTINUOUS
10
106.6202799999999939
20
-64.7164300000000026
11
106.8657699999999977
21
-64.9122019999999935
0
LINE
8
BLACK
6
CONTINUOUS
10
106.8657699999999977
20
-64.9122019999999935
11
107.0877979999999923
21
-65.1342300000000023
0
LINE
8
BLACK
6
CONTINUOUS
10
107.0877979999999923
20
-65.1342300000000023
11
107.2835699999999974
21
-65.3797199999999918
0
LINE
8
BLACK
6
CONTINUOUS
10
107.2835699999999974
20
-65.3797199999999918
11
107.4506259999999997
21
-65.6455869999999919
0
LINE
8
BLACK
6
CONTINUOUS
10
107.4506259999999997
20
-65.6455869999999919
11
107.5868629999999939
21
-65.9284859999999924
0
LINE
8
BLACK
6
CONTINUOUS
10
107.5868629999999939
20
-65.9284859999999924
11
107.6905689999999964
21
-66.22486099999999
0
LINE
8
BLACK
6
CONTINUOUS
10
107.6905689999999964
20
-66.22486099999999
11
107.760438999999991
21
-66.530982999999992
0
LINE
8
BLACK
6
CONTINUOUS
10
107.760438999999991
20
-66.530982999999992
11
107.7955949999999916
21
-66.843002999999996
0
LINE
8
BLACK
6
CONTINUOUS
10
107.7955949999999916
20
-66.843002999999996
11
107.7955949999999916
21
-67.156997000000004
0
LINE
8
BLACK
6
CONTINUOUS
10
107.7955949999999916
20
-67.156997000000004
11
107.760438999999991
21
-67.4690169999999938
0
LINE
8
BLACK
6
CONTINUOUS
10
107.760438999999991
20
-67.4690169999999938
11
107.6905689999999964
21
-67.7751389999999958
0
LINE
8
BLACK
6
CONTINUOUS
10
107.6905689999999964
20
-67.7751389999999958
11
107.5868629999999939
21
-68.0715139999999934
0
LINE
8
BLACK
6
CONTINUOUS
10
107.5868629999999939
20
-68.0715139999999934
11
107.4506259999999997
21
-68.3544129999999939
0
LINE
8
BLACK
6
CONTINUOUS
10
107.4506259999999997
20
-68.3544129999999939
11
107.2835699999999974
21
-68.6202799999999939
0
LINE
8
BLACK
6
CONTINUOUS
10
107.2835699999999974
20
-68.6202799999999939
11
107.0877979999999923
21
-68.8657699999999977
0
LINE
8
BLACK
6
CONTINUOUS
10
107.0877979999999923
20
-68.8657699999999977
11
106.8657699999999977
21
-69.0877979999999923
0
LINE
8
BLACK
6
CONTINUOUS
10
106.8657699999999977
20
-69.0877979999999923
11
106.6202799999999939
21
-69.2835699999999974
0
LINE
8
BLACK
6
CONTINUOUS
10
106.6202799999999939
20
-69.2835699999999974
11
106.3544129999999939
21
-69.4506259999999997
0
LINE
8
BLACK
6
CONTINUOUS
10
106.3544129999999939
20
-69.4506259999999997
11
106.0715139999999934
21
-69.5868629999999939
0
LINE
8
BLACK
6
CONTINUOUS
10
106.0715139999999934
20
-69.5868629999999939
11
105.7751389999999958
21
-69.6905689999999964
0
LINE
8
BLACK
6
CONTINUOUS
10
105.7751389999999958
20
-69.6905689999999964
11
105.4690169999999938
21
-69.760438999999991
0
LINE
8
BLACK
6
CONTINUOUS
10
105.4690169999999938
20
-69.760438999999991
11
105.1569969999999898
21
-69.7955949999999916
0
LINE
8
BLACK
6
CONTINUOUS
10
105.1569969999999898
20
-69.7955949999999916
11
104.843002999999996
21
-69.7955949999999916
0
LINE
8
BLACK
6
CONTINUOUS
10
104.843002999999996
20
-69.7955949999999916
11
104.530982999999992
21
-69.760438999999991
0
LINE
8
BLACK
6
CONTINUOUS
10
104.530982999999992
20
-69.760438999999991
11
104.22486099999999
21
-69.6905689999999964
0
LINE
8
BLACK
6
CONTINUOUS
10
104.22486099999999
20
-69.6905689999999964
11
103.9284859999999924
21
-69.5868629999999939
0
LINE
8
BLACK
6
CONTINUOUS
10
103.9284859999999924
20
-69.5868629999999939
11
103.6455869999999919
21
-69.4506259999999997
0
LINE
8
BLACK
6
CONTINUOUS
10
103.6455869999999919
20
-69.4506259999999997
11
103.3797199999999918
21
-69.2835699999999974
0
LINE
8
BLACK
6
CONTINUOUS
10
103.3797199999999918
20
-69.2835699999999974
11
103.1342300000000023
21
-69.0877979999999923
0
LINE
8
BLACK
6
CONTINUOUS
10
103.1342300000000023
20
-69.0877979999999923
11
102.9122019999999935
21
-68.8657699999999977
0
LINE
8
BLACK
6
CONTINUOUS
10
102.9122019999999935
20
-68.8657699999999977
11
102.7164299999999884
21
-68.6202799999999939
0
LINE
8
BLACK
6
CONTINUOUS
10
102.7164299999999884
20
-68.6202799999999939
11
102.5493740000000003
21
-68.3544129999999939
0
LINE
8
BLACK
6
CONTINUOUS
10
102.5493740000000003
20
-68.3544129999999939
11
102.4131369999999919
21
-68.0715139999999934
0
LINE
8
BLACK
6
CONTINUOUS
10
102.4131369999999919
20
-68.0715139999999934
11
102.3094309999999894
21
-67.7751389999999958
0
LINE
8
BLACK
6
CONTINUOUS
10
102.3094309999999894
20
-67.7751389999999958
11
102.2395609999999948
21
-67.4690169999999938
0
LINE
8
BLACK
6
CONTINUOUS
10
102.2395609999999948
20
-67.4690169999999938
11
102.2044049999999942
21
-67.156997000000004
0
LINE
8
BLACK
6
CONTINUOUS
10
102.2044049999999942
20
-67.156997000000004
11
102.2044049999999942
21
-66.843002999999996
0
LINE
8
BLACK
6
CONTINUOUS
10
102.2044049999999942
20
-66.843002999999996
11
102.2395609999999948
21
-66.530982999999992
0
LINE
8
BLACK
6
CONTINUOUS
10
102.2395609999999948
20
-66.530982999999992
11
102.3094309999999894
21
-66.22486099999999
0
LINE
8
BLACK
6
CONTINUOUS
10
102.3094309999999894
20
-66.22486099999999
11
102.4131369999999919
21
-65.9284859999999924
0
LINE
8
BLACK
6
CONTINUOUS
10
102.4131369999999919
20
-65.9284859999999924
11
102.5493740000000003
21
-65.6455869999999919
0
LINE
8
BLACK
6
CONTINUOUS
10
102.5493740000000003
20
-65.6455869999999919
11
102.7164299999999884
21
-65.3797199999999918
0
LINE
8
BLACK
6
CONTINUOUS
10
102.7164299999999884
20
-65.3797199999999918
11
102.9122019999999935
21
-65.1342300000000023
0
LINE
8
BLACK
6
CONTINUOUS
10
102.9122019999999935
20
-65.1342300000000023
11
103.1342300000000023
21
-64.9122019999999935
0
LINE
8
BLACK
6
CONTINUOUS
10
103.1342300000000023
20
-64.9122019999999935
11
103.3797199999999918
21
-64.7164300000000026
0
LINE
8
BLACK
6
CONTINUOUS
10
103.3797199999999918
20
-64.7164300000000026
11
103.6455869999999919
21
-64.5493740000000003
0
LINE
8
BLACK
6
CONTINUOUS
10
103.6455869999999919
20
-64.5493740000000003
11
103.9284859999999924
21
-64.4131369999999919
0
LINE
8
BLACK
6
CONTINUOUS
10
103.9284859999999924
20
-64.4131369999999919
11
104.22486099999999
21
-64.3094310000000036
0
LINE
8
BLACK
6
CONTINUOUS
10
104.22486099999999
20
-64.3094310000000036
11
104.530982999999992
21
-64.2395609999999948
0
LINE
8
BLACK
6
CONTINUOUS
10
104.530982999999992
20
-64.2395609999999948
11
104.843002999999996
21
-64.2044049999999942
0
LINE
8
BLACK
6
CONTINUOUS
10
104.843002999999996
20
-64.2044049999999942
11
105.1569969999999898
21
-64.2044049999999942
0
LINE
8
BLACK
6
CONTINUOUS
10
105.1569969999999898
20
-64.2044049999999942
11
105.4690169999999938
21
-64.2395609999999948
0
LINE
8
BLACK
6
CONTINUOUS
10
180.4690169999999796
20
-64.2395609999999948
11
180.7751389999999958
21
-64.3094310000000036
0
LINE
8
BLACK
6
CONTINUOUS
10
180.7751389999999958
20
-64.3094310000000036
11
181.0715139999999792
21
-64.4131369999999919
0
LINE
8
BLACK
6
CONTINUOUS
10
181.0715139999999792
20
-64.4131369999999919
11
181.3544129999999939
21
-64.5493740000000003
0
LINE
8
BLACK
6
CONTINUOUS
10
181.3544129999999939
20
-64.5493740000000003
11
181.6202799999999797
21
-64.7164300000000026
0
LINE
8
BLACK
6
CONTINUOUS
10
181.6202799999999797
20
-64.7164300000000026
11
181.8657699999999977
21
-64.9122019999999935
0
LINE
8
BLACK
6
CONTINUOUS
10
181.8657699999999977
20
-64.9122019999999935
11
182.0877979999999923
21
-65.1342300000000023
0
LINE
8
BLACK
6
CONTINUOUS
10
182.0877979999999923
20
-65.1342300000000023
11
182.2835699999999974
21
-65.3797199999999918
0
LINE
8
BLACK
6
CONTINUOUS
10
182.2835699999999974
20
-65.3797199999999918
11
182.4506259999999997
21
-65.6455869999999919
0
LINE
8
BLACK
6
CONTINUOUS
10
182.4506259999999997
20
-65.6455869999999919
11
182.5868629999999939
21
-65.9284859999999924
0
LINE
8
BLACK
6
CONTINUOUS
10
182.5868629999999939
20
-65.9284859999999924
11
182.6905689999999822
21
-66.22486099999999
0
LINE
8
BLACK
6
CONTINUOUS
10
182.6905689999999822
20
-66.22486099999999
11
182.760438999999991
21
-66.530982999999992
0
LINE
8
BLACK
6
CONTINUOUS
10
182.760438999999991
20
-66.530982999999992
11
182.7955949999999916
21
-66.843002999999996
0
LINE
8
BLACK
6
CONTINUOUS
10
182.7955949999999916
20
-66.843002999999996
11
182.7955949999999916
21
-67.156997000000004
0
LINE
8
BLACK
6
CONTINUOUS
10
182.7955949999999916
20
-67.156997000000004
11
182.760438999999991
21
-67.4690169999999938
0
LINE
8
BLACK
6
CONTINUOUS
10
182.760438999999991
20
-67.4690169999999938
11
182.6905689999999822
21
-67.7751389999999958
0
LINE
8
BLACK
6
CONTINUOUS
10
182.6905689999999822
20
-67.7751389999999958
11
182.5868629999999939
21
-68.0715139999999934
0
LINE
8
BLACK
6
CONTINUOUS
10
182.5868629999999939
20
-68.0715139999999934
11
182.4506259999999997
21
-68.3544129999999939
0
LINE
8
BLACK
6
CONTINUOUS
10
182.4506259999999997
20
-68.3544129999999939
11
182.2835699999999974
21
-68.6202799999999939
0
LINE
8
BLACK
6
CONTINUOUS
10
182.2835699999999974
20
-68.6202799999999939
11
182.0877979999999923
21
-68.8657699999999977
0
LINE
8
BLACK
6
CONTINUOUS
10
182.0877979999999923
20
-68.8657699999999977
11
181.8657699999999977
21
-69.0877979999999923
0
LINE
8
BLACK
6
CONTINUOUS
10
181.8657699999999977
20
-69.0877979999999923
11
181.6202799999999797
21
-69.2835699999999974
0
LINE
8
BLACK
6
CONTINUOUS
10
181.6202799999999797
20
-69.2835699999999974
11
181.3544129999999939
21
-69.4506259999999997
0
LINE
8
BLACK
6
CONTINUOUS
10
181.3544129999999939
20
-69.4506259999999997
11
181.0715139999999792
21
-69.5868629999999939
0
LINE
8
BLACK
6
CONTINUOUS
10
181.0715139999999792
20
-69.5868629999999939
11
180.7751389999999958
21
-69.6905689999999964
0
LINE
8
BLACK
6
CONTINUOUS
10
180.7751389999999958
20
-69.6905689999999964
11
180.4690169999999796
21
-69.760438999999991
0
LINE
8
BLACK
6
CONTINUOUS
10
180.4690169999999796
20
-69.760438999999991
11
180.1569969999999898
21
-69.7955949999999916
0
LINE
8
BLACK
6
CONTINUOUS
10
180.1569969999999898
20
-69.7955949999999916
11
179.8430029999999817
21
-69.7955949999999916
0
LINE
8
BLACK
6
CONTINUOUS
10
179.8430029999999817
20
-69.7955949999999916
11
179.530982999999992
21
-69.760438999999991
0
LINE
8
BLACK
6
CONTINUOUS
10
179.530982999999992
20
-69.760438999999991
11
179.2248610000000042
21
-69.6905689999999964
0
LINE
8
BLACK
6
CONTINUOUS
10
179.2248610000000042
20
-69.6905689999999964
11
178.9284859999999924
21
-69.5868629999999939
0
LINE
8
BLACK
6
CONTINUOUS
10
178.9284859999999924
20
-69.5868629999999939
11
178.6455869999999777
21
-69.4506259999999997
0
LINE
8
BLACK
6
CONTINUOUS
10
178.6455869999999777
20
-69.4506259999999997
11
178.3797199999999918
21
-69.2835699999999974
0
LINE
8
BLACK
6
CONTINUOUS
10
178.3797199999999918
20
-69.2835699999999974
11
178.1342300000000023
21
-69.0877979999999923
0
LINE
8
BLACK
6
CONTINUOUS
10
178.1342300000000023
20
-69.0877979999999923
11
177.9122019999999793
21
-68.8657699999999977
0
LINE
8
BLACK
6
CONTINUOUS
10
177.9122019999999793
20
-68.8657699999999977
11
177.7164300000000026
21
-68.6202799999999939
0
LINE
8
BLACK
6
CONTINUOUS
10
177.7164300000000026
20
-68.6202799999999939
11
177.5493740000000003
21
-68.3544129999999939
0
LINE
8
BLACK
6
CONTINUOUS
10
177.5493740000000003
20
-68.3544129999999939
11
177.4131370000000061
21
-68.0715139999999934
0
LINE
8
BLACK
6
CONTINUOUS
10
177.4131370000000061
20
-68.0715139999999934
11
177.3094309999999894
21
-67.7751389999999958
0
LINE
8
BLACK
6
CONTINUOUS
10
177.3094309999999894
20
-67.7751389999999958
11
177.2395609999999806
21
-67.4690169999999938
0
LINE
8
BLACK
6
CONTINUOUS
10
177.2395609999999806
20
-67.4690169999999938
11
177.20440499999998
21
-67.156997000000004
0
LINE
8
BLACK
6
CONTINUOUS
10
177.20440499999998
20
-67.156997000000004
11
177.20440499999998
21
-66.843002999999996
0
LINE
8
BLACK
6
CONTINUOUS
10
177.20440499999998
20
-66.843002999999996
11
177.2395609999999806
21
-66.530982999999992
0
LINE
8
BLACK
6
CONTINUOUS
10
177.2395609999999806
20
-66.530982999999992
11
177.3094309999999894
21
-66.22486099999999
0
LINE
8
BLACK
6
CONTINUOUS
10
177.3094309999999894
20
-66.22486099999999
11
177.4131370000000061
21
-65.9284859999999924
0
LINE
8
BLACK
6
CONTINUOUS
10
177.4131370000000061
20
-65.9284859999999924
11
177.5493740000000003
21
-65.6455869999999919
0
LINE
8
BLACK
6
CONTINUOUS
10
177.5493740000000003
20
-65.6455869999999919
11
177.7164300000000026
21
-65.3797199999999918
0
LINE
8
BLACK
6
CONTINUOUS
10
177.7164300000000026
20
-65.3797199999999918
11
177.9122019999999793
21
-65.1342300000000023
0
LINE
8
BLACK
6
CONTINUOUS
10
177.9122019999999793
20
-65.1342300000000023
11
178.1342300000000023
21
-64.9122019999999935
0
LINE
8
BLACK
6
CONTINUOUS
10
178.1342300000000023
20
-64.9122019999999935
11
178.3797199999999918
21
-64.7164300000000026
0
LINE
8
BLACK
6
CONTINUOUS
10
178.3797199999999918
20
-64.7164300000000026
11
178.6455869999999777
21
-64.5493740000000003
0
LINE
8
BLACK
6
CONTINUOUS
10
178.6455869999999777
20
-64.5493740000000003
11
178.9284859999999924
21
-64.4131369999999919
0
LINE
8
BLACK
6
CONTINUOUS
10
178.9284859999999924
20
-64.4131369999999919
11
179.2248610000000042
21
-64.3094310000000036
0
LINE
8
BLACK
6
CONTINUOUS
10
179.2248610000000042
20
-64.3094310000000036
11
179.530982999999992
21
-64.2395609999999948
0
LINE
8
BLACK
6
CONTINUOUS
10
179.530982999999992
20
-64.2395609999999948
11
179.8430029999999817
21
-64.2044049999999942
0
LINE
8
BLACK
6
CONTINUOUS
10
179.8430029999999817
20
-64.2044049999999942
11
180.1569969999999898
21
-64.2044049999999942
0
LINE
8
BLACK
6
CONTINUOUS
10
180.1569969999999898
20
-64.2044049999999942
11
180.4690169999999796
21
-64.2395609999999948
  0
ENDSEC
  0
EOF
