G04 #@! TF.GenerationSoftware,KiCad,Pcbnew,9.0.7+1*
G04 #@! TF.CreationDate,2026-04-18T10:04:53+00:00*
G04 #@! TF.ProjectId,stencil,7374656e-6369-46c2-9e6b-696361645f70,4.0.1-RC*
G04 #@! TF.SameCoordinates,Original*
G04 #@! TF.FileFunction,Paste,Top*
G04 #@! TF.FilePolarity,Positive*
%FSLAX46Y46*%
G04 Gerber Fmt 4.6, Leading zero omitted, Abs format (unit mm)*
G04 Created by KiCad (PCBNEW 9.0.7+1) date 2026-04-18 10:04:53*
%MOMM*%
%LPD*%
G01*
G04 APERTURE LIST*
G04 Aperture macros list*
%AMRoundRect*
0 Rectangle with rounded corners*
0 $1 Rounding radius*
0 $2 $3 $4 $5 $6 $7 $8 $9 X,Y pos of 4 corners*
0 Add a 4 corners polygon primitive as box body*
4,1,4,$2,$3,$4,$5,$6,$7,$8,$9,$2,$3,0*
0 Add four circle primitives for the rounded corners*
1,1,$1+$1,$2,$3*
1,1,$1+$1,$4,$5*
1,1,$1+$1,$6,$7*
1,1,$1+$1,$8,$9*
0 Add four rect primitives between the rounded corners*
20,1,$1+$1,$2,$3,$4,$5,0*
20,1,$1+$1,$4,$5,$6,$7,0*
20,1,$1+$1,$6,$7,$8,$9,0*
20,1,$1+$1,$8,$9,$2,$3,0*%
G04 Aperture macros list end*
%ADD10C,0.500000*%
%ADD11C,1.000000*%
%ADD12C,1.050000*%
%ADD13RoundRect,0.250000X0.262500X0.450000X-0.262500X0.450000X-0.262500X-0.450000X0.262500X-0.450000X0*%
%ADD14RoundRect,0.250000X-0.262500X-0.450000X0.262500X-0.450000X0.262500X0.450000X-0.262500X0.450000X0*%
%ADD15RoundRect,0.250000X-0.250000X-0.475000X0.250000X-0.475000X0.250000X0.475000X-0.250000X0.475000X0*%
%ADD16RoundRect,0.250000X0.475000X-0.250000X0.475000X0.250000X-0.475000X0.250000X-0.475000X-0.250000X0*%
%ADD17RoundRect,0.250000X-0.475000X0.250000X-0.475000X-0.250000X0.475000X-0.250000X0.475000X0.250000X0*%
%ADD18RoundRect,0.375000X0.625000X0.375000X-0.625000X0.375000X-0.625000X-0.375000X0.625000X-0.375000X0*%
%ADD19RoundRect,0.500000X0.500000X1.400000X-0.500000X1.400000X-0.500000X-1.400000X0.500000X-1.400000X0*%
%ADD20RoundRect,0.250000X0.250000X0.475000X-0.250000X0.475000X-0.250000X-0.475000X0.250000X-0.475000X0*%
%ADD21RoundRect,0.250000X0.785000X1.045000X-0.785000X1.045000X-0.785000X-1.045000X0.785000X-1.045000X0*%
%ADD22R,1.700000X0.900000*%
%ADD23RoundRect,0.250000X-0.450000X0.262500X-0.450000X-0.262500X0.450000X-0.262500X0.450000X0.262500X0*%
%ADD24R,2.400000X2.000000*%
%ADD25R,1.400000X1.100000*%
%ADD26RoundRect,0.250000X0.450000X-0.262500X0.450000X0.262500X-0.450000X0.262500X-0.450000X-0.262500X0*%
%ADD27RoundRect,0.243750X0.243750X0.456250X-0.243750X0.456250X-0.243750X-0.456250X0.243750X-0.456250X0*%
%ADD28R,2.000000X1.800000*%
%ADD29RoundRect,0.250000X-0.460000X0.315000X-0.460000X-0.315000X0.460000X-0.315000X0.460000X0.315000X0*%
%ADD30RoundRect,0.150000X-0.150000X0.737500X-0.150000X-0.737500X0.150000X-0.737500X0.150000X0.737500X0*%
%ADD31RoundRect,0.150000X0.150000X-0.512500X0.150000X0.512500X-0.150000X0.512500X-0.150000X-0.512500X0*%
%ADD32R,3.150000X2.200000*%
%ADD33R,0.600000X2.200000*%
%ADD34R,4.400000X2.200000*%
%ADD35R,1.650000X0.400000*%
%ADD36R,0.700000X1.825000*%
%ADD37R,1.500000X2.000000*%
%ADD38R,2.000000X1.350000*%
%ADD39R,2.500000X1.430000*%
%ADD40RoundRect,0.247500X-0.247500X0.247500X-0.247500X-0.247500X0.247500X-0.247500X0.247500X0.247500X0*%
%ADD41RoundRect,0.062500X-0.062500X0.350000X-0.062500X-0.350000X0.062500X-0.350000X0.062500X0.350000X0*%
%ADD42RoundRect,0.062500X-0.350000X0.062500X-0.350000X-0.062500X0.350000X-0.062500X0.350000X0.062500X0*%
%ADD43R,1.300000X0.800000*%
%ADD44R,1.100000X0.250000*%
%ADD45RoundRect,0.250000X0.292217X-0.292217X0.292217X0.292217X-0.292217X0.292217X-0.292217X-0.292217X0*%
%ADD46RoundRect,0.040000X0.040000X-0.310000X0.040000X0.310000X-0.040000X0.310000X-0.040000X-0.310000X0*%
%ADD47RoundRect,0.040000X0.310000X-0.040000X0.310000X0.040000X-0.310000X0.040000X-0.310000X-0.040000X0*%
%ADD48RoundRect,0.243750X-0.456250X0.243750X-0.456250X-0.243750X0.456250X-0.243750X0.456250X0.243750X0*%
%ADD49RoundRect,0.218750X-0.256250X0.218750X-0.256250X-0.218750X0.256250X-0.218750X0.256250X0.218750X0*%
%ADD50RoundRect,0.250000X-0.300000X0.300000X-0.300000X-0.300000X0.300000X-0.300000X0.300000X0.300000X0*%
%ADD51RoundRect,0.218750X-0.218750X-0.256250X0.218750X-0.256250X0.218750X0.256250X-0.218750X0.256250X0*%
%ADD52RoundRect,0.250000X0.312500X1.450000X-0.312500X1.450000X-0.312500X-1.450000X0.312500X-1.450000X0*%
%ADD53RoundRect,0.250000X2.500000X-0.250000X2.500000X0.250000X-2.500000X0.250000X-2.500000X-0.250000X0*%
%ADD54RoundRect,0.250000X1.250000X-0.550000X1.250000X0.550000X-1.250000X0.550000X-1.250000X-0.550000X0*%
%ADD55RoundRect,0.150000X0.150000X-0.650000X0.150000X0.650000X-0.150000X0.650000X-0.150000X-0.650000X0*%
%ADD56R,0.560000X0.160000*%
%ADD57RoundRect,0.075000X0.200000X-0.075000X0.200000X0.075000X-0.200000X0.075000X-0.200000X-0.075000X0*%
%ADD58RoundRect,0.100000X-0.225000X-0.100000X0.225000X-0.100000X0.225000X0.100000X-0.225000X0.100000X0*%
%ADD59R,5.100000X2.350000*%
%ADD60RoundRect,0.150000X0.512500X0.150000X-0.512500X0.150000X-0.512500X-0.150000X0.512500X-0.150000X0*%
G04 APERTURE END LIST*
D10*
X158994385Y60494385D02*
X158994385Y50494385D01*
X14994385Y48494385D02*
X14994385Y38494385D01*
X158994385Y50494385D02*
G75*
G02*
X158494385Y49994385I-500000J0D01*
G01*
X158494385Y60994385D02*
G75*
G02*
X158994385Y60494385I0J-500000D01*
G01*
D11*
X156244385Y55494385D02*
G75*
G02*
X155244385Y55494385I-500000J0D01*
G01*
X155244385Y55494385D02*
G75*
G02*
X156244385Y55494385I500000J0D01*
G01*
D10*
X14994385Y72494385D02*
X14994385Y62494385D01*
X14994385Y-11505615D02*
G75*
G02*
X15494385Y-11005615I500000J0D01*
G01*
X14994385Y108494385D02*
G75*
G02*
X15494385Y108994385I500000J0D01*
G01*
X75494385Y156994385D02*
G75*
G02*
X75994385Y157494385I500000J0D01*
G01*
X158494385Y-23005615D02*
G75*
G02*
X158994385Y-23505615I0J-500000D01*
G01*
D11*
X87494385Y-43255615D02*
G75*
G02*
X86494385Y-43255615I-500000J0D01*
G01*
X86494385Y-43255615D02*
G75*
G02*
X87494385Y-43255615I500000J0D01*
G01*
D10*
X158494385Y36994385D02*
G75*
G02*
X158994385Y36494385I0J-500000D01*
G01*
D11*
X18744385Y55494385D02*
G75*
G02*
X17744385Y55494385I-500000J0D01*
G01*
X17744385Y55494385D02*
G75*
G02*
X18744385Y55494385I500000J0D01*
G01*
D10*
X87494385Y156994385D02*
G75*
G02*
X87994385Y157494385I500000J0D01*
G01*
X158994385Y84494385D02*
X158994385Y74494385D01*
X38494385Y-46005615D02*
G75*
G02*
X37994385Y-46505615I-500000J0D01*
G01*
X14994385Y132494385D02*
X14994385Y122494385D01*
X15994385Y157494385D02*
X25994385Y157494385D01*
X123994385Y-46505615D02*
G75*
G02*
X123494385Y-46005615I0J500000D01*
G01*
X87994385Y-46505615D02*
G75*
G02*
X87494385Y-46005615I0J500000D01*
G01*
X37994385Y157494385D02*
G75*
G02*
X38494385Y156994385I0J-500000D01*
G01*
X135994385Y-46505615D02*
X145994385Y-46505615D01*
X158994385Y-9505615D02*
G75*
G02*
X158494385Y-10005615I-500000J0D01*
G01*
X158494385Y24994385D02*
G75*
G02*
X158994385Y24494385I0J-500000D01*
G01*
X15494385Y13994385D02*
G75*
G02*
X14994385Y14494385I0J500000D01*
G01*
X158994385Y14494385D02*
G75*
G02*
X158494385Y13994385I-500000J0D01*
G01*
D11*
X121869385Y-43255615D02*
G75*
G02*
X120869385Y-43255615I-500000J0D01*
G01*
X120869385Y-43255615D02*
G75*
G02*
X121869385Y-43255615I500000J0D01*
G01*
D10*
X97994385Y157494385D02*
G75*
G02*
X98494385Y156994385I0J-500000D01*
G01*
X14994385Y120494385D02*
X14994385Y110494385D01*
X158994385Y62494385D02*
G75*
G02*
X158494385Y61994385I-500000J0D01*
G01*
X74494385Y-46005615D02*
G75*
G02*
X73994385Y-46505615I-500000J0D01*
G01*
X158494385Y-11005615D02*
G75*
G02*
X158994385Y-11505615I0J-500000D01*
G01*
X15494385Y25994385D02*
G75*
G02*
X14994385Y26494385I0J500000D01*
G01*
X158994385Y110494385D02*
G75*
G02*
X158494385Y109994385I-500000J0D01*
G01*
X158494385Y48994385D02*
G75*
G02*
X158994385Y48494385I0J-500000D01*
G01*
D12*
X156269385Y154244385D02*
G75*
G02*
X155219385Y154244385I-525000J0D01*
G01*
X155219385Y154244385D02*
G75*
G02*
X156269385Y154244385I525000J0D01*
G01*
D10*
X75994385Y157494385D02*
X85994385Y157494385D01*
X158494385Y84994385D02*
G75*
G02*
X158994385Y84494385I0J-500000D01*
G01*
X134494385Y-46005615D02*
G75*
G02*
X133994385Y-46505615I-500000J0D01*
G01*
X157994385Y157494385D02*
G75*
G02*
X158994385Y156494385I0J-1000000D01*
G01*
X87994385Y157494385D02*
X97994385Y157494385D01*
X158494385Y132994385D02*
G75*
G02*
X158994385Y132494385I0J-500000D01*
G01*
X158494385Y72994385D02*
G75*
G02*
X158994385Y72494385I0J-500000D01*
G01*
X123494385Y156994385D02*
G75*
G02*
X123994385Y157494385I500000J0D01*
G01*
X75994385Y-46505615D02*
X85994385Y-46505615D01*
D12*
X156269385Y-43255615D02*
G75*
G02*
X155219385Y-43255615I-525000J0D01*
G01*
X155219385Y-43255615D02*
G75*
G02*
X156269385Y-43255615I525000J0D01*
G01*
D11*
X53119385Y154244385D02*
G75*
G02*
X52119385Y154244385I-500000J0D01*
G01*
X52119385Y154244385D02*
G75*
G02*
X53119385Y154244385I500000J0D01*
G01*
D10*
X158494385Y-35005615D02*
G75*
G02*
X158994385Y-35505615I0J-500000D01*
G01*
X86494385Y-46005615D02*
G75*
G02*
X85994385Y-46505615I-500000J0D01*
G01*
X122494385Y-46005615D02*
G75*
G02*
X121994385Y-46505615I-500000J0D01*
G01*
D11*
X156244385Y104869385D02*
G75*
G02*
X155244385Y104869385I-500000J0D01*
G01*
X155244385Y104869385D02*
G75*
G02*
X156244385Y104869385I500000J0D01*
G01*
D10*
X123994385Y157494385D02*
X133994385Y157494385D01*
X147994385Y-46505615D02*
X157994385Y-46505615D01*
X15494385Y133994385D02*
G75*
G02*
X14994385Y134494385I0J500000D01*
G01*
X123994385Y-46505615D02*
X133994385Y-46505615D01*
X14994385Y12494385D02*
G75*
G02*
X15494385Y12994385I500000J0D01*
G01*
X15494385Y-22005615D02*
G75*
G02*
X14994385Y-21505615I0J500000D01*
G01*
X14994385Y120494385D02*
G75*
G02*
X15494385Y120994385I500000J0D01*
G01*
X111494385Y156994385D02*
G75*
G02*
X111994385Y157494385I500000J0D01*
G01*
X158994385Y108494385D02*
X158994385Y98494385D01*
X158994385Y2494385D02*
G75*
G02*
X158494385Y1994385I-500000J0D01*
G01*
D11*
X156244385Y6119385D02*
G75*
G02*
X155244385Y6119385I-500000J0D01*
G01*
X155244385Y6119385D02*
G75*
G02*
X156244385Y6119385I500000J0D01*
G01*
D10*
X15494385Y-10005615D02*
G75*
G02*
X14994385Y-9505615I0J500000D01*
G01*
X158994385Y122494385D02*
G75*
G02*
X158494385Y121994385I-500000J0D01*
G01*
X15494385Y145994385D02*
G75*
G02*
X14994385Y146494385I0J500000D01*
G01*
D11*
X87494385Y154244385D02*
G75*
G02*
X86494385Y154244385I-500000J0D01*
G01*
X86494385Y154244385D02*
G75*
G02*
X87494385Y154244385I500000J0D01*
G01*
D10*
X158994385Y144494385D02*
X158994385Y134494385D01*
X158494385Y108994385D02*
G75*
G02*
X158994385Y108494385I0J-500000D01*
G01*
X145994385Y157494385D02*
G75*
G02*
X146494385Y156994385I0J-500000D01*
G01*
X14994385Y24494385D02*
X14994385Y14494385D01*
X158994385Y38494385D02*
G75*
G02*
X158494385Y37994385I-500000J0D01*
G01*
X121994385Y157494385D02*
G75*
G02*
X122494385Y156994385I0J-500000D01*
G01*
X51994385Y-46505615D02*
X61994385Y-46505615D01*
X158494385Y12994385D02*
G75*
G02*
X158994385Y12494385I0J-500000D01*
G01*
X158994385Y12494385D02*
X158994385Y2494385D01*
X14994385Y494385D02*
G75*
G02*
X15494385Y994385I500000J0D01*
G01*
X15494385Y61994385D02*
G75*
G02*
X14994385Y62494385I0J500000D01*
G01*
D11*
X121869385Y154244385D02*
G75*
G02*
X120869385Y154244385I-500000J0D01*
G01*
X120869385Y154244385D02*
G75*
G02*
X121869385Y154244385I500000J0D01*
G01*
D10*
X15494385Y1994385D02*
G75*
G02*
X14994385Y2494385I0J500000D01*
G01*
X158994385Y146494385D02*
G75*
G02*
X158494385Y145994385I-500000J0D01*
G01*
X158994385Y26494385D02*
G75*
G02*
X158494385Y25994385I-500000J0D01*
G01*
X99994385Y-46505615D02*
X109994385Y-46505615D01*
X110494385Y-46005615D02*
G75*
G02*
X109994385Y-46505615I-500000J0D01*
G01*
D12*
X18769385Y-43255615D02*
G75*
G02*
X17719385Y-43255615I-525000J0D01*
G01*
X17719385Y-43255615D02*
G75*
G02*
X18769385Y-43255615I525000J0D01*
G01*
D10*
X99494385Y156994385D02*
G75*
G02*
X99994385Y157494385I500000J0D01*
G01*
X39994385Y-46505615D02*
G75*
G02*
X39494385Y-46005615I0J500000D01*
G01*
X39994385Y-46505615D02*
X49994385Y-46505615D01*
X99994385Y-46505615D02*
G75*
G02*
X99494385Y-46005615I0J500000D01*
G01*
X158994385Y-33505615D02*
G75*
G02*
X158494385Y-34005615I-500000J0D01*
G01*
X51994385Y-46505615D02*
G75*
G02*
X51494385Y-46005615I0J500000D01*
G01*
X62494385Y-46005615D02*
G75*
G02*
X61994385Y-46505615I-500000J0D01*
G01*
X158994385Y-45505615D02*
G75*
G02*
X157994385Y-46505615I-1000000J0D01*
G01*
X15994385Y-46505615D02*
G75*
G02*
X14994385Y-45505615I0J1000000D01*
G01*
X158994385Y74494385D02*
G75*
G02*
X158494385Y73994385I-500000J0D01*
G01*
X111994385Y157494385D02*
X121994385Y157494385D01*
X158994385Y-23505615D02*
X158994385Y-33505615D01*
X14994385Y-11505615D02*
X14994385Y-21505615D01*
X85994385Y157494385D02*
G75*
G02*
X86494385Y156994385I0J-500000D01*
G01*
X158494385Y144994385D02*
G75*
G02*
X158994385Y144494385I0J-500000D01*
G01*
X14994385Y12494385D02*
X14994385Y2494385D01*
X135994385Y157494385D02*
X145994385Y157494385D01*
X158994385Y-21505615D02*
G75*
G02*
X158494385Y-22005615I-500000J0D01*
G01*
D12*
X18769385Y154244385D02*
G75*
G02*
X17719385Y154244385I-525000J0D01*
G01*
X17719385Y154244385D02*
G75*
G02*
X18769385Y154244385I525000J0D01*
G01*
D10*
X14994385Y156494385D02*
X14994385Y146494385D01*
X39994385Y157494385D02*
X49994385Y157494385D01*
X14994385Y84494385D02*
G75*
G02*
X15494385Y84994385I500000J0D01*
G01*
X158994385Y96494385D02*
X158994385Y86494385D01*
X14994385Y60494385D02*
G75*
G02*
X15494385Y60994385I500000J0D01*
G01*
X15494385Y85994385D02*
G75*
G02*
X14994385Y86494385I0J500000D01*
G01*
X51494385Y156994385D02*
G75*
G02*
X51994385Y157494385I500000J0D01*
G01*
X27994385Y-46505615D02*
G75*
G02*
X27494385Y-46005615I0J500000D01*
G01*
X109994385Y157494385D02*
G75*
G02*
X110494385Y156994385I0J-500000D01*
G01*
X147994385Y157494385D02*
X157994385Y157494385D01*
X27494385Y156994385D02*
G75*
G02*
X27994385Y157494385I500000J0D01*
G01*
X158994385Y156494385D02*
X158994385Y146494385D01*
X14994385Y-23505615D02*
X14994385Y-33505615D01*
X15994385Y-46505615D02*
X25994385Y-46505615D01*
X87994385Y-46505615D02*
X97994385Y-46505615D01*
X158994385Y48494385D02*
X158994385Y38494385D01*
X158994385Y24494385D02*
X158994385Y14494385D01*
X14994385Y72494385D02*
G75*
G02*
X15494385Y72994385I500000J0D01*
G01*
X14994385Y144494385D02*
G75*
G02*
X15494385Y144994385I500000J0D01*
G01*
X135494385Y156994385D02*
G75*
G02*
X135994385Y157494385I500000J0D01*
G01*
X61994385Y157494385D02*
G75*
G02*
X62494385Y156994385I0J-500000D01*
G01*
X15494385Y49994385D02*
G75*
G02*
X14994385Y50494385I0J500000D01*
G01*
X63994385Y-46505615D02*
X73994385Y-46505615D01*
X111994385Y-46505615D02*
X121994385Y-46505615D01*
X111994385Y-46505615D02*
G75*
G02*
X111494385Y-46005615I0J500000D01*
G01*
X15494385Y97994385D02*
G75*
G02*
X14994385Y98494385I0J500000D01*
G01*
X158994385Y132494385D02*
X158994385Y122494385D01*
D11*
X18744385Y104869385D02*
G75*
G02*
X17744385Y104869385I-500000J0D01*
G01*
X17744385Y104869385D02*
G75*
G02*
X18744385Y104869385I500000J0D01*
G01*
D10*
X146494385Y-46005615D02*
G75*
G02*
X145994385Y-46505615I-500000J0D01*
G01*
X158994385Y86494385D02*
G75*
G02*
X158494385Y85994385I-500000J0D01*
G01*
X14994385Y494385D02*
X14994385Y-9505615D01*
X14994385Y96494385D02*
G75*
G02*
X15494385Y96994385I500000J0D01*
G01*
X15494385Y109994385D02*
G75*
G02*
X14994385Y110494385I0J500000D01*
G01*
X14994385Y36494385D02*
G75*
G02*
X15494385Y36994385I500000J0D01*
G01*
X158994385Y36494385D02*
X158994385Y26494385D01*
X14994385Y-35505615D02*
G75*
G02*
X15494385Y-35005615I500000J0D01*
G01*
X14994385Y60494385D02*
X14994385Y50494385D01*
X63494385Y156994385D02*
G75*
G02*
X63994385Y157494385I500000J0D01*
G01*
X14994385Y96494385D02*
X14994385Y86494385D01*
X27994385Y157494385D02*
X37994385Y157494385D01*
X63994385Y-46505615D02*
G75*
G02*
X63494385Y-46005615I0J500000D01*
G01*
X14994385Y48494385D02*
G75*
G02*
X15494385Y48994385I500000J0D01*
G01*
X147494385Y156994385D02*
G75*
G02*
X147994385Y157494385I500000J0D01*
G01*
X158994385Y98494385D02*
G75*
G02*
X158494385Y97994385I-500000J0D01*
G01*
X158494385Y120994385D02*
G75*
G02*
X158994385Y120494385I0J-500000D01*
G01*
X158994385Y120494385D02*
X158994385Y110494385D01*
X14994385Y-23505615D02*
G75*
G02*
X15494385Y-23005615I500000J0D01*
G01*
X98494385Y-46005615D02*
G75*
G02*
X97994385Y-46505615I-500000J0D01*
G01*
X75994385Y-46505615D02*
G75*
G02*
X75494385Y-46005615I0J500000D01*
G01*
X14994385Y144494385D02*
X14994385Y134494385D01*
X14994385Y84494385D02*
X14994385Y74494385D01*
X158994385Y-35505615D02*
X158994385Y-45505615D01*
X14994385Y108494385D02*
X14994385Y98494385D01*
X14994385Y132494385D02*
G75*
G02*
X15494385Y132994385I500000J0D01*
G01*
X158994385Y494385D02*
X158994385Y-9505615D01*
X15494385Y121994385D02*
G75*
G02*
X14994385Y122494385I0J500000D01*
G01*
X158494385Y96994385D02*
G75*
G02*
X158994385Y96494385I0J-500000D01*
G01*
X49994385Y157494385D02*
G75*
G02*
X50494385Y156994385I0J-500000D01*
G01*
X158994385Y72494385D02*
X158994385Y62494385D01*
X14994385Y-35505615D02*
X14994385Y-45505615D01*
X14994385Y36494385D02*
X14994385Y26494385D01*
X15494385Y37994385D02*
G75*
G02*
X14994385Y38494385I0J500000D01*
G01*
X14994385Y156494385D02*
G75*
G02*
X15994385Y157494385I1000000J0D01*
G01*
X133994385Y157494385D02*
G75*
G02*
X134494385Y156994385I0J-500000D01*
G01*
X158994385Y134494385D02*
G75*
G02*
X158494385Y133994385I-500000J0D01*
G01*
X99994385Y157494385D02*
X109994385Y157494385D01*
X135994385Y-46505615D02*
G75*
G02*
X135494385Y-46005615I0J500000D01*
G01*
X14994385Y24494385D02*
G75*
G02*
X15494385Y24994385I500000J0D01*
G01*
X73994385Y157494385D02*
G75*
G02*
X74494385Y156994385I0J-500000D01*
G01*
X147994385Y-46505615D02*
G75*
G02*
X147494385Y-46005615I0J500000D01*
G01*
D11*
X18744385Y6119385D02*
G75*
G02*
X17744385Y6119385I-500000J0D01*
G01*
X17744385Y6119385D02*
G75*
G02*
X18744385Y6119385I500000J0D01*
G01*
D10*
X15494385Y-34005615D02*
G75*
G02*
X14994385Y-33505615I0J500000D01*
G01*
X25994385Y157494385D02*
G75*
G02*
X26494385Y156994385I0J-500000D01*
G01*
X158994385Y-11505615D02*
X158994385Y-21505615D01*
X50494385Y-46005615D02*
G75*
G02*
X49994385Y-46505615I-500000J0D01*
G01*
X63994385Y157494385D02*
X73994385Y157494385D01*
D11*
X53119385Y-43255615D02*
G75*
G02*
X52119385Y-43255615I-500000J0D01*
G01*
X52119385Y-43255615D02*
G75*
G02*
X53119385Y-43255615I500000J0D01*
G01*
D10*
X51994385Y157494385D02*
X61994385Y157494385D01*
X39494385Y156994385D02*
G75*
G02*
X39994385Y157494385I500000J0D01*
G01*
X26494385Y-46005615D02*
G75*
G02*
X25994385Y-46505615I-500000J0D01*
G01*
X27994385Y-46505615D02*
X37994385Y-46505615D01*
X15494385Y73994385D02*
G75*
G02*
X14994385Y74494385I0J500000D01*
G01*
X158494385Y994385D02*
G75*
G02*
X158994385Y494385I0J-500000D01*
G01*
D13*
G04 #@! TO.C,R18*
X132756885Y85744385D03*
X130931885Y85744385D03*
G04 #@! TD*
D14*
G04 #@! TO.C,R21*
X92971885Y76184385D03*
X94796885Y76184385D03*
G04 #@! TD*
D15*
G04 #@! TO.C,C23*
X96794385Y86724385D03*
X98694385Y86724385D03*
G04 #@! TD*
D16*
G04 #@! TO.C,C48*
X29004385Y87084385D03*
X29004385Y88984385D03*
G04 #@! TD*
D14*
G04 #@! TO.C,R10*
X80481885Y86534385D03*
X82306885Y86534385D03*
G04 #@! TD*
D16*
G04 #@! TO.C,C21*
X81434385Y90194385D03*
X81434385Y92094385D03*
G04 #@! TD*
D17*
G04 #@! TO.C,C49*
X29004385Y84204385D03*
X29004385Y82304385D03*
G04 #@! TD*
D16*
G04 #@! TO.C,C29*
X137834385Y82884385D03*
X137834385Y84784385D03*
G04 #@! TD*
D14*
G04 #@! TO.C,R9*
X76019385Y75144385D03*
X77844385Y75144385D03*
G04 #@! TD*
D16*
G04 #@! TO.C,C28*
X138644385Y76824385D03*
X138644385Y78724385D03*
G04 #@! TD*
D18*
G04 #@! TO.C,U5*
X108034385Y74644385D03*
X108034385Y76944385D03*
D19*
X101734385Y76944385D03*
D18*
X108034385Y79244385D03*
G04 #@! TD*
D13*
G04 #@! TO.C,R20*
X122674485Y84857785D03*
X120849485Y84857785D03*
G04 #@! TD*
D20*
G04 #@! TO.C,C24*
X104754385Y81574385D03*
X102854385Y81574385D03*
G04 #@! TD*
D16*
G04 #@! TO.C,C44*
X31974385Y89784385D03*
X31974385Y91684385D03*
G04 #@! TD*
D21*
G04 #@! TO.C,C43*
X21529385Y101951985D03*
X15289385Y101951985D03*
G04 #@! TD*
D22*
G04 #@! TO.C,SW4*
X106004385Y84434385D03*
X106004385Y87834385D03*
G04 #@! TD*
D14*
G04 #@! TO.C,R6*
X80481885Y84634385D03*
X82306885Y84634385D03*
G04 #@! TD*
D15*
G04 #@! TO.C,C45*
X39284385Y87004385D03*
X41184385Y87004385D03*
G04 #@! TD*
D20*
G04 #@! TO.C,C15*
X77831885Y77144385D03*
X75931885Y77144385D03*
G04 #@! TD*
D23*
G04 #@! TO.C,R29*
X54985385Y83789085D03*
X54985385Y81964085D03*
G04 #@! TD*
D16*
G04 #@! TO.C,C42*
X23518985Y105116785D03*
X23518985Y107016785D03*
G04 #@! TD*
D24*
G04 #@! TO.C,Y1*
X48834385Y84724385D03*
X48834385Y81024385D03*
G04 #@! TD*
D21*
G04 #@! TO.C,C33*
X139893385Y73580185D03*
X133653385Y73580185D03*
G04 #@! TD*
D14*
G04 #@! TO.C,R8*
X76019385Y79144385D03*
X77844385Y79144385D03*
G04 #@! TD*
D23*
G04 #@! TO.C,R25*
X32374385Y79242485D03*
X32374385Y77417485D03*
G04 #@! TD*
D15*
G04 #@! TO.C,C34*
X140684385Y83884385D03*
X142584385Y83884385D03*
G04 #@! TD*
D23*
G04 #@! TO.C,R28*
X34274385Y79232485D03*
X34274385Y77407485D03*
G04 #@! TD*
D25*
G04 #@! TO.C,Y2*
X96894385Y76106684D03*
X99094385Y76106684D03*
X99094385Y77706686D03*
X96894385Y77706686D03*
G04 #@! TD*
D26*
G04 #@! TO.C,R15*
X137824385Y86311885D03*
X137824385Y88136885D03*
G04 #@! TD*
D27*
G04 #@! TO.C,D2*
X99631885Y73314385D03*
X97756885Y73314385D03*
G04 #@! TD*
D28*
G04 #@! TO.C,SW6*
X79994385Y66494385D03*
X93994385Y66494385D03*
X79994385Y61494385D03*
X93994385Y61494385D03*
G04 #@! TD*
D16*
G04 #@! TO.C,C8*
X136414385Y100374385D03*
X136414385Y102274385D03*
G04 #@! TD*
G04 #@! TO.C,C37*
X151124385Y76314385D03*
X151124385Y78214385D03*
G04 #@! TD*
D26*
G04 #@! TO.C,R7*
X119114385Y86291885D03*
X119114385Y88116885D03*
G04 #@! TD*
D22*
G04 #@! TO.C,SW3*
X73504385Y75644385D03*
X73504385Y79044385D03*
G04 #@! TD*
D26*
G04 #@! TO.C,R13*
X145204385Y85951885D03*
X145204385Y87776885D03*
G04 #@! TD*
D16*
G04 #@! TO.C,C32*
X142614385Y76824385D03*
X142614385Y78724385D03*
G04 #@! TD*
D23*
G04 #@! TO.C,R26*
X30474385Y79242485D03*
X30474385Y77417485D03*
G04 #@! TD*
D16*
G04 #@! TO.C,C30*
X145204385Y89324385D03*
X145204385Y91224385D03*
G04 #@! TD*
D23*
G04 #@! TO.C,R23*
X27502585Y71774885D03*
X27502585Y69949885D03*
G04 #@! TD*
D17*
G04 #@! TO.C,C35*
X137834385Y91574385D03*
X137834385Y89674385D03*
G04 #@! TD*
D20*
G04 #@! TO.C,C9*
X140744385Y95304385D03*
X138844385Y95304385D03*
G04 #@! TD*
D29*
G04 #@! TO.C,U6*
X142364385Y89274385D03*
X140664385Y89274385D03*
X142364385Y87914385D03*
X140664385Y87914385D03*
D30*
X143419385Y91156885D03*
X142149385Y91156885D03*
X140879385Y91156885D03*
X139609385Y91156885D03*
X139609385Y86031885D03*
X140879385Y86031885D03*
X142149385Y86031885D03*
X143419385Y86031885D03*
G04 #@! TD*
D20*
G04 #@! TO.C,C18*
X77855585Y81098585D03*
X75955585Y81098585D03*
G04 #@! TD*
D16*
G04 #@! TO.C,C41*
X21558985Y105116785D03*
X21558985Y107016785D03*
G04 #@! TD*
D13*
G04 #@! TO.C,R22*
X25773485Y71776785D03*
X23948485Y71776785D03*
G04 #@! TD*
D26*
G04 #@! TO.C,R3*
X63540985Y89085485D03*
X63540985Y90910485D03*
G04 #@! TD*
D17*
G04 #@! TO.C,C19*
X85344385Y79244385D03*
X85344385Y77344385D03*
G04 #@! TD*
D31*
G04 #@! TO.C,U10*
X54136985Y77979885D03*
X55086985Y77979885D03*
X56036985Y77979885D03*
X56036985Y80254885D03*
X55086985Y80254885D03*
X54136985Y80254885D03*
G04 #@! TD*
D14*
G04 #@! TO.C,R27*
X41781885Y83014385D03*
X43606885Y83014385D03*
G04 #@! TD*
D15*
G04 #@! TO.C,C50*
X8794385Y71344385D03*
X10694385Y71344385D03*
G04 #@! TD*
D32*
G04 #@! TO.C,Q1*
X141219385Y100234385D03*
D33*
X143759385Y100234385D03*
D34*
X141854385Y105434385D03*
G04 #@! TD*
D14*
G04 #@! TO.C,R11*
X97781885Y79606685D03*
X99606885Y79606685D03*
G04 #@! TD*
D17*
G04 #@! TO.C,C51*
X39694385Y99194385D03*
X39694385Y97294385D03*
G04 #@! TD*
G04 #@! TO.C,C1*
X59794385Y99744385D03*
X59794385Y97844385D03*
G04 #@! TD*
D15*
G04 #@! TO.C,C3*
X142274385Y97264385D03*
X144174385Y97264385D03*
G04 #@! TD*
D20*
G04 #@! TO.C,C2*
X147774385Y100264385D03*
X145874385Y100264385D03*
G04 #@! TD*
D16*
G04 #@! TO.C,C4*
X146164385Y106014385D03*
X146164385Y107914385D03*
G04 #@! TD*
D35*
G04 #@! TO.C,J9*
X4429385Y75819385D03*
X4429385Y75169385D03*
X4429385Y74519385D03*
X4429385Y73869385D03*
X4429385Y73219385D03*
D36*
X3229385Y77469385D03*
D37*
X4529385Y77369385D03*
D38*
X2479385Y77249385D03*
D39*
X1279385Y75479385D03*
X1279385Y73559385D03*
D38*
X2479385Y71769385D03*
D37*
X4549385Y71619385D03*
D36*
X3229385Y71519385D03*
G04 #@! TD*
D16*
G04 #@! TO.C,C36*
X140624385Y76814385D03*
X140624385Y78714385D03*
G04 #@! TD*
D17*
G04 #@! TO.C,C40*
X36344385Y95694385D03*
X36344385Y93794385D03*
G04 #@! TD*
D28*
G04 #@! TO.C,SW5*
X4994385Y66494385D03*
X18994385Y66494385D03*
X4994385Y61494385D03*
X18994385Y61494385D03*
G04 #@! TD*
D40*
G04 #@! TO.C,U9*
X35414385Y86264385D03*
X34184385Y86264385D03*
X32954385Y86264385D03*
X35414385Y85034385D03*
X34184385Y85034385D03*
X32954385Y85034385D03*
X35414385Y83804385D03*
X34184385Y83804385D03*
X32954385Y83804385D03*
D41*
X36184385Y87971885D03*
X35684385Y87971885D03*
X35184385Y87971885D03*
X34684385Y87971885D03*
X34184385Y87971885D03*
X33684385Y87971885D03*
X33184385Y87971885D03*
X32684385Y87971885D03*
X32184385Y87971885D03*
D42*
X31246885Y87034385D03*
X31246885Y86534385D03*
X31246885Y86034385D03*
X31246885Y85534385D03*
X31246885Y85034385D03*
X31246885Y84534385D03*
X31246885Y84034385D03*
X31246885Y83534385D03*
X31246885Y83034385D03*
D41*
X32184385Y82096885D03*
X32684385Y82096885D03*
X33184385Y82096885D03*
X33684385Y82096885D03*
X34184385Y82096885D03*
X34684385Y82096885D03*
X35184385Y82096885D03*
X35684385Y82096885D03*
X36184385Y82096885D03*
D42*
X37121885Y83034385D03*
X37121885Y83534385D03*
X37121885Y84034385D03*
X37121885Y84534385D03*
X37121885Y85034385D03*
X37121885Y85534385D03*
X37121885Y86034385D03*
X37121885Y86534385D03*
X37121885Y87034385D03*
G04 #@! TD*
D43*
G04 #@! TO.C,U2*
X67705985Y92992985D03*
X67705985Y91722985D03*
X67705985Y90452985D03*
X77205985Y90452985D03*
X77205985Y91722985D03*
X77205985Y92992985D03*
G04 #@! TD*
D44*
G04 #@! TO.C,U8*
X40264385Y72884385D03*
X40264385Y73384385D03*
X40264385Y73884385D03*
X40264385Y74384385D03*
X40264385Y74884385D03*
X35964385Y74884385D03*
X35964385Y74384385D03*
X35964385Y73884385D03*
X35964385Y73384385D03*
X35964385Y72884385D03*
G04 #@! TD*
D13*
G04 #@! TO.C,R4*
X76115885Y88602985D03*
X74290885Y88602985D03*
G04 #@! TD*
D26*
G04 #@! TO.C,R16*
X91034385Y52379385D03*
X91034385Y54204385D03*
G04 #@! TD*
G04 #@! TO.C,R24*
X42964385Y85461885D03*
X42964385Y87286885D03*
G04 #@! TD*
D45*
G04 #@! TO.C,U3*
X88756885Y84756885D03*
X90031885Y84756885D03*
X88756885Y86031885D03*
X90031885Y86031885D03*
D46*
X86794385Y81956885D03*
X87194385Y81956885D03*
X87594385Y81956885D03*
X87994385Y81956885D03*
X88394385Y81956885D03*
X88794385Y81956885D03*
X89194385Y81956885D03*
X89594385Y81956885D03*
X89994385Y81956885D03*
X90394385Y81956885D03*
X90794385Y81956885D03*
X91194385Y81956885D03*
X91594385Y81956885D03*
X91994385Y81956885D03*
D47*
X92831885Y82794385D03*
X92831885Y83194385D03*
X92831885Y83594385D03*
X92831885Y83994385D03*
X92831885Y84394385D03*
X92831885Y84794385D03*
X92831885Y85194385D03*
X92831885Y85594385D03*
X92831885Y85994385D03*
X92831885Y86394385D03*
X92831885Y86794385D03*
X92831885Y87194385D03*
X92831885Y87594385D03*
X92831885Y87994385D03*
D46*
X91994385Y88831885D03*
X91594385Y88831885D03*
X91194385Y88831885D03*
X90794385Y88831885D03*
X90394385Y88831885D03*
X89994385Y88831885D03*
X89594385Y88831885D03*
X89194385Y88831885D03*
X88794385Y88831885D03*
X88394385Y88831885D03*
X87994385Y88831885D03*
X87594385Y88831885D03*
X87194385Y88831885D03*
X86794385Y88831885D03*
D47*
X85956885Y87994385D03*
X85956885Y87594385D03*
X85956885Y87194385D03*
X85956885Y86794385D03*
X85956885Y86394385D03*
X85956885Y85994385D03*
X85956885Y85594385D03*
X85956885Y85194385D03*
X85956885Y84794385D03*
X85956885Y84394385D03*
X85956885Y83994385D03*
X85956885Y83594385D03*
X85956885Y83194385D03*
X85956885Y82794385D03*
G04 #@! TD*
D20*
G04 #@! TO.C,C46*
X34464385Y70694385D03*
X32564385Y70694385D03*
G04 #@! TD*
D48*
G04 #@! TO.C,D7*
X87084385Y54179385D03*
X87084385Y52304385D03*
G04 #@! TD*
D20*
G04 #@! TO.C,C38*
X52582585Y78050585D03*
X50682585Y78050585D03*
G04 #@! TD*
G04 #@! TO.C,C27*
X108174385Y81544385D03*
X106274385Y81544385D03*
G04 #@! TD*
D15*
G04 #@! TO.C,C10*
X142254385Y95284385D03*
X144154385Y95284385D03*
G04 #@! TD*
D13*
G04 #@! TO.C,R19*
X132656885Y88044385D03*
X130831885Y88044385D03*
G04 #@! TD*
D26*
G04 #@! TO.C,R12*
X135904385Y82951885D03*
X135904385Y84776885D03*
G04 #@! TD*
D15*
G04 #@! TO.C,C13*
X89784385Y91534385D03*
X91684385Y91534385D03*
G04 #@! TD*
D14*
G04 #@! TO.C,R5*
X74290885Y86702985D03*
X76115885Y86702985D03*
G04 #@! TD*
D49*
G04 #@! TO.C,L4*
X61815985Y90585485D03*
X61815985Y89010485D03*
G04 #@! TD*
D50*
G04 #@! TO.C,D1*
X65655985Y90472985D03*
X65655985Y87672985D03*
G04 #@! TD*
D20*
G04 #@! TO.C,C17*
X85134385Y92454385D03*
X83234385Y92454385D03*
G04 #@! TD*
D26*
G04 #@! TO.C,R1*
X133191985Y106348085D03*
X133191985Y108173085D03*
G04 #@! TD*
D51*
G04 #@! TO.C,L1*
X62228485Y87572985D03*
X63803485Y87572985D03*
G04 #@! TD*
D20*
G04 #@! TO.C,C22*
X96144385Y79606685D03*
X94244385Y79606685D03*
G04 #@! TD*
D52*
G04 #@! TO.C,F1*
X150201885Y103284385D03*
X145926885Y103284385D03*
G04 #@! TD*
D53*
G04 #@! TO.C,J28*
X119794385Y76194385D03*
X119794385Y78194385D03*
X119794385Y80194385D03*
D54*
X117544385Y73794385D03*
X117544385Y82594385D03*
G04 #@! TD*
D28*
G04 #@! TO.C,SW10*
X154994385Y14494385D03*
X168994385Y14494385D03*
X154994385Y9494385D03*
X168994385Y9494385D03*
G04 #@! TD*
D55*
G04 #@! TO.C,U4*
X79589385Y74944385D03*
X80859385Y74944385D03*
X82129385Y74944385D03*
X83399385Y74944385D03*
X83399385Y82144385D03*
X82129385Y82144385D03*
X80859385Y82144385D03*
X79589385Y82144385D03*
G04 #@! TD*
D17*
G04 #@! TO.C,C47*
X37024385Y80504385D03*
X37024385Y78604385D03*
G04 #@! TD*
D56*
G04 #@! TO.C,CM1*
X72994385Y36194385D03*
X69914385Y36194385D03*
X72994385Y36594385D03*
X69914385Y36594385D03*
X72994385Y36994385D03*
X69914385Y36994385D03*
X72994385Y37394385D03*
X69914385Y37394385D03*
X72994385Y37794385D03*
X69914385Y37794385D03*
X72994385Y38194385D03*
X69914385Y38194385D03*
X72994385Y38594385D03*
X69914385Y38594385D03*
X72994385Y38994385D03*
X69914385Y38994385D03*
X72994385Y39394385D03*
X69914385Y39394385D03*
X72994385Y39794385D03*
X69914385Y39794385D03*
X72994385Y40194385D03*
X69914385Y40194385D03*
X72994385Y40594385D03*
X69914385Y40594385D03*
X72994385Y40994385D03*
X69914385Y40994385D03*
X72994385Y41394385D03*
X69914385Y41394385D03*
X72994385Y41794385D03*
X69914385Y41794385D03*
X72994385Y42194385D03*
X69914385Y42194385D03*
X72994385Y42594385D03*
X69914385Y42594385D03*
X72994385Y42994385D03*
X69914385Y42994385D03*
X72994385Y43394385D03*
X69914385Y43394385D03*
X72994385Y43794385D03*
X69914385Y43794385D03*
X72994385Y44194385D03*
X69914385Y44194385D03*
X72994385Y44594385D03*
X69914385Y44594385D03*
X72994385Y44994385D03*
X69914385Y44994385D03*
X72994385Y45394385D03*
X69914385Y45394385D03*
X72994385Y45794385D03*
X69914385Y45794385D03*
X72994385Y46194385D03*
X69914385Y46194385D03*
X72994385Y46594385D03*
X69914385Y46594385D03*
X72994385Y46994385D03*
X69914385Y46994385D03*
X72994385Y47394385D03*
X69914385Y47394385D03*
X72994385Y47794385D03*
X69914385Y47794385D03*
X72994385Y48194385D03*
X69914385Y48194385D03*
X72994385Y48594385D03*
X69914385Y48594385D03*
X72994385Y48994385D03*
X69914385Y48994385D03*
X72994385Y49394385D03*
X69914385Y49394385D03*
X72994385Y49794385D03*
X69914385Y49794385D03*
X72994385Y50194385D03*
X69914385Y50194385D03*
X72994385Y50594385D03*
X69914385Y50594385D03*
X72994385Y50994385D03*
X69914385Y50994385D03*
X72994385Y51394385D03*
X69914385Y51394385D03*
X72994385Y51794385D03*
X69914385Y51794385D03*
X72994385Y52194385D03*
X69914385Y52194385D03*
X72994385Y52594385D03*
X69914385Y52594385D03*
X72994385Y52994385D03*
X69914385Y52994385D03*
X72994385Y53394385D03*
X69914385Y53394385D03*
X72994385Y53794385D03*
X69914385Y53794385D03*
X72994385Y54194385D03*
X69914385Y54194385D03*
X72994385Y54594385D03*
X69914385Y54594385D03*
X72994385Y54994385D03*
X69914385Y54994385D03*
X72994385Y55394385D03*
X69914385Y55394385D03*
X72994385Y55794385D03*
X69914385Y55794385D03*
X39074385Y36194385D03*
X35994385Y36194385D03*
X39074385Y36594385D03*
X35994385Y36594385D03*
X39074385Y36994385D03*
X35994385Y36994385D03*
X39074385Y37394385D03*
X35994385Y37394385D03*
X39074385Y37794385D03*
X35994385Y37794385D03*
X39074385Y38194385D03*
X35994385Y38194385D03*
X39074385Y38594385D03*
X35994385Y38594385D03*
X39074385Y38994385D03*
X35994385Y38994385D03*
X39074385Y39394385D03*
X35994385Y39394385D03*
X39074385Y39794385D03*
X35994385Y39794385D03*
X39074385Y40194385D03*
X35994385Y40194385D03*
X39074385Y40594385D03*
X35994385Y40594385D03*
X39074385Y40994385D03*
X35994385Y40994385D03*
X39074385Y41394385D03*
X35994385Y41394385D03*
X39074385Y41794385D03*
X35994385Y41794385D03*
X39074385Y42194385D03*
X35994385Y42194385D03*
X39074385Y42594385D03*
X35994385Y42594385D03*
X39074385Y42994385D03*
X35994385Y42994385D03*
X39074385Y43394385D03*
X35994385Y43394385D03*
X39074385Y43794385D03*
X35994385Y43794385D03*
X39074385Y44194385D03*
X35994385Y44194385D03*
X39074385Y44594385D03*
X35994385Y44594385D03*
X39074385Y44994385D03*
X35994385Y44994385D03*
X39074385Y45394385D03*
X35994385Y45394385D03*
X39074385Y45794385D03*
X35994385Y45794385D03*
X39074385Y46194385D03*
X35994385Y46194385D03*
X39074385Y46594385D03*
X35994385Y46594385D03*
X39074385Y46994385D03*
X35994385Y46994385D03*
X39074385Y47394385D03*
X35994385Y47394385D03*
X39074385Y47794385D03*
X35994385Y47794385D03*
X39074385Y48194385D03*
X35994385Y48194385D03*
X39074385Y48594385D03*
X35994385Y48594385D03*
X39074385Y48994385D03*
X35994385Y48994385D03*
X39074385Y49394385D03*
X35994385Y49394385D03*
X39074385Y49794385D03*
X35994385Y49794385D03*
X39074385Y50194385D03*
X35994385Y50194385D03*
X39074385Y50594385D03*
X35994385Y50594385D03*
X39074385Y50994385D03*
X35994385Y50994385D03*
X39074385Y51394385D03*
X35994385Y51394385D03*
X39074385Y51794385D03*
X35994385Y51794385D03*
X39074385Y52194385D03*
X35994385Y52194385D03*
X39074385Y52594385D03*
X35994385Y52594385D03*
X39074385Y52994385D03*
X35994385Y52994385D03*
X39074385Y53394385D03*
X35994385Y53394385D03*
X39074385Y53794385D03*
X35994385Y53794385D03*
X39074385Y54194385D03*
X35994385Y54194385D03*
X39074385Y54594385D03*
X35994385Y54594385D03*
X39074385Y54994385D03*
X35994385Y54994385D03*
X39074385Y55394385D03*
X35994385Y55394385D03*
X39074385Y55794385D03*
X35994385Y55794385D03*
G04 #@! TD*
D28*
G04 #@! TO.C,SW7*
X154994385Y66494385D03*
X168994385Y66494385D03*
X154994385Y61494385D03*
X168994385Y61494385D03*
G04 #@! TD*
D20*
G04 #@! TO.C,C5*
X140734385Y93324385D03*
X138834385Y93324385D03*
G04 #@! TD*
G04 #@! TO.C,C6*
X140764385Y97264385D03*
X138864385Y97264385D03*
G04 #@! TD*
D28*
G04 #@! TO.C,SW8*
X4994385Y14494385D03*
X18994385Y14494385D03*
X4994385Y9494385D03*
X18994385Y9494385D03*
G04 #@! TD*
D15*
G04 #@! TO.C,C7*
X142244385Y93314385D03*
X144144385Y93314385D03*
G04 #@! TD*
D26*
G04 #@! TO.C,R17*
X85184385Y52329385D03*
X85184385Y54154385D03*
G04 #@! TD*
D17*
G04 #@! TO.C,C16*
X95194385Y84244385D03*
X95194385Y82344385D03*
G04 #@! TD*
D23*
G04 #@! TO.C,R14*
X140664385Y82106885D03*
X140664385Y80281885D03*
G04 #@! TD*
D48*
G04 #@! TO.C,D6*
X89084385Y54179385D03*
X89084385Y52304385D03*
G04 #@! TD*
D20*
G04 #@! TO.C,C14*
X85144385Y90494385D03*
X83244385Y90494385D03*
G04 #@! TD*
D51*
G04 #@! TO.C,L2*
X71215885Y87346985D03*
X72790885Y87346985D03*
G04 #@! TD*
D57*
G04 #@! TO.C,U11*
X7429385Y73044385D03*
X7429385Y73544385D03*
X7429385Y74044385D03*
X7429385Y74544385D03*
X7429385Y75044385D03*
X6659385Y75044385D03*
X6659385Y74544385D03*
X6659385Y74044385D03*
X6659385Y73544385D03*
X6659385Y73044385D03*
G04 #@! TD*
D16*
G04 #@! TO.C,C11*
X45954385Y83684385D03*
X45954385Y85584385D03*
G04 #@! TD*
D23*
G04 #@! TO.C,R2*
X24694385Y84446885D03*
X24694385Y82621885D03*
G04 #@! TD*
D58*
G04 #@! TO.C,U1*
X120794385Y88144385D03*
X120794385Y87494385D03*
X120794385Y86844385D03*
X122694385Y86844385D03*
X122694385Y88144385D03*
G04 #@! TD*
D28*
G04 #@! TO.C,SW9*
X79994385Y14494385D03*
X93994385Y14494385D03*
X79994385Y9494385D03*
X93994385Y9494385D03*
G04 #@! TD*
D58*
G04 #@! TO.C,U7*
X81634985Y53791885D03*
X81634985Y53141885D03*
X81634985Y52491885D03*
X83534985Y52491885D03*
X83534985Y53791885D03*
G04 #@! TD*
D17*
G04 #@! TO.C,C20*
X90634385Y79144385D03*
X90634385Y77244385D03*
G04 #@! TD*
D16*
G04 #@! TO.C,C26*
X99394385Y81344385D03*
X99394385Y83244385D03*
G04 #@! TD*
G04 #@! TO.C,C31*
X142664385Y80224385D03*
X142664385Y82124385D03*
G04 #@! TD*
D59*
G04 #@! TO.C,L5*
X146894385Y82929385D03*
X146894385Y78779385D03*
G04 #@! TD*
D60*
G04 #@! TO.C,U12*
X129131885Y85544385D03*
X129131885Y86494385D03*
X129131885Y87444385D03*
X126856885Y87444385D03*
X126856885Y85544385D03*
G04 #@! TD*
D17*
G04 #@! TO.C,C25*
X45954385Y82184385D03*
X45954385Y80284385D03*
G04 #@! TD*
D20*
G04 #@! TO.C,C12*
X83674385Y88464385D03*
X81774385Y88464385D03*
G04 #@! TD*
D17*
G04 #@! TO.C,C52*
X124894385Y87444385D03*
X124894385Y85544385D03*
G04 #@! TD*
D53*
G04 #@! TO.C,J14*
X128730985Y75025185D03*
X128730985Y77025185D03*
X128730985Y79025185D03*
X128730985Y81025185D03*
D54*
X126480985Y72625185D03*
X126480985Y83425185D03*
G04 #@! TD*
D51*
G04 #@! TO.C,L3*
X71215885Y88820185D03*
X72790885Y88820185D03*
G04 #@! TD*
D17*
G04 #@! TO.C,C39*
X38304385Y95694385D03*
X38304385Y93794385D03*
G04 #@! TD*
M02*
